<svg width="16" height="17" viewBox="0 0 16 17" fill="none" xmlns="http://www.w3.org/2000/svg">
<path d="M11.3486 4.20007L8.0665 7.4822C7.9822 7.56662 7.86779 7.61406 7.74849 7.61406C7.62919 7.61406 7.51478 7.56662 7.43048 7.4822L6.39844 6.45016" stroke="#81766F" stroke-linecap="round" stroke-linejoin="round"/>
<path d="M3.38029 8.94116L1 11.8501L3.25009 12.3001L4.15012 15.0002L6.54421 11.2008" stroke="#81766F" stroke-linecap="round" stroke-linejoin="round"/>
<path d="M12.121 8.94116L14.5012 11.8501L12.2512 12.3001L11.3511 15.0002L8.95703 11.2008" stroke="#81766F" stroke-linecap="round" stroke-linejoin="round"/>
<path d="M12.2483 6.77226L12.7547 8.10192C12.8304 8.29956 12.7579 8.52323 12.5807 8.63894L11.389 9.41897L11.017 10.793C10.9617 10.9972 10.7717 11.1353 10.5604 11.1248L9.13894 11.054L8.03069 11.9469C7.86562 12.0795 7.63054 12.0795 7.46547 11.9469L6.35723 11.0522L4.93577 11.123C4.7245 11.1335 4.53446 10.9954 4.47916 10.7912L4.10714 9.41717L2.9155 8.63714C2.73828 8.52143 2.66581 8.29776 2.74149 8.10012L3.24791 6.77226L2.74149 5.44201C2.66442 5.24351 2.73704 5.01816 2.9155 4.90199L4.10714 4.12196L4.47916 2.74791C4.53446 2.54374 4.7245 2.40564 4.93577 2.4161L6.35723 2.4899L7.46547 1.59947C7.63054 1.46684 7.86562 1.46684 8.03069 1.59947L9.13894 2.4899" stroke="#81766F" stroke-linecap="round" stroke-linejoin="round"/>
</svg>
