<svg width="14" height="14" viewBox="0 0 14 14" fill="none" xmlns="http://www.w3.org/2000/svg">
<path d="M10 3.67615L7.265 6.41115C7.19475 6.4815 7.09942 6.52103 7 6.52103C6.90058 6.52103 6.80525 6.4815 6.735 6.41115L5.875 5.55115" stroke="#BAB5AB" stroke-linecap="round" stroke-linejoin="round"/>
<path d="M3.3585 7.6275L1.375 10.0515L3.25 10.4265L4 12.6765L5.995 9.5105" stroke="#BAB5AB" stroke-linecap="round" stroke-linejoin="round"/>
<path d="M10.6404 7.6275L12.6239 10.0515L10.7489 10.4265L9.99891 12.6765L8.00391 9.5105" stroke="#BAB5AB" stroke-linecap="round" stroke-linejoin="round"/>
<path d="M10.7482 5.81978L11.1702 6.92778C11.2333 7.09248 11.1729 7.27886 11.0252 7.37528L10.0322 8.02528L9.72224 9.17028C9.67616 9.34042 9.5178 9.45549 9.34174 9.44678L8.15724 9.38778L7.23374 10.1318C7.09619 10.2423 6.90029 10.2423 6.76274 10.1318L5.83924 9.38628L4.65474 9.44528C4.47869 9.45399 4.32033 9.33892 4.27424 9.16878L3.96424 8.02378L2.97124 7.37378C2.82357 7.27736 2.76318 7.09098 2.82624 6.92628L3.24824 5.81978L2.82624 4.71128C2.76202 4.54586 2.82253 4.35808 2.97124 4.26128L3.96424 3.61128L4.27424 2.46628C4.32033 2.29614 4.47869 2.18106 4.65474 2.18978L5.83924 2.25128L6.76274 1.50928C6.90029 1.39876 7.09619 1.39876 7.23374 1.50928L8.15724 2.25128" stroke="#BAB5AB" stroke-linecap="round" stroke-linejoin="round"/>
</svg>
