<svg width="20" height="21" viewBox="0 0 20 21" fill="none" xmlns="http://www.w3.org/2000/svg">
<path fill-rule="evenodd" clip-rule="evenodd" d="M15.8346 16.4997H4.16797C3.7088 16.4997 3.33464 16.1263 3.33464 15.6663V7.54134L9.5013 12.1663C9.64963 12.278 9.82547 12.333 10.0013 12.333C10.1771 12.333 10.353 12.278 10.5013 12.1663L16.668 7.54134V15.6663C16.668 16.1263 16.2938 16.4997 15.8346 16.4997ZM15.2788 6.49967L10.0013 10.458L4.7238 6.49967H15.2788ZM15.8346 4.83301H4.16797C2.78964 4.83301 1.66797 5.95467 1.66797 7.33301V15.6663C1.66797 17.0447 2.78964 18.1663 4.16797 18.1663H15.8346C17.213 18.1663 18.3346 17.0447 18.3346 15.6663V7.33301C18.3346 5.95467 17.213 4.83301 15.8346 4.83301Z" fill="white"/>
</svg>
