<svg width="16" height="17" viewBox="0 0 16 17" fill="none" xmlns="http://www.w3.org/2000/svg">
<path d="M6.84263 9.99651C6.4882 10.096 6.10764 10.0239 5.81414 9.80171C5.52065 9.5795 5.34804 9.23276 5.34766 8.86463V6.80972C5.36208 6.17157 5.88354 5.66177 6.52185 5.66177C7.16016 5.66177 7.68161 6.17157 7.69604 6.80972V8.61017" stroke="#81766F" stroke-linecap="round" stroke-linejoin="round"/>
<path d="M7.69922 8.57116V6.80972C7.71365 6.17157 8.2351 5.66177 8.87341 5.66177C9.51172 5.66177 10.0332 6.17157 10.0476 6.80972V8.57116" stroke="#81766F" stroke-linecap="round" stroke-linejoin="round"/>
<path d="M12.3956 10.731V2.70104C12.4052 2.27521 12.1835 1.87755 11.8163 1.66181C11.449 1.44606 10.9937 1.44606 10.6265 1.66181C10.2592 1.87755 10.0375 2.27521 10.0472 2.70104V6.80966" stroke="#81766F" stroke-linecap="round" stroke-linejoin="round"/>
<path d="M7.69707 13.2676C7.69659 12.6446 7.94384 12.0469 8.38433 11.6063C8.82483 11.1657 9.42242 10.9183 10.0455 10.9186H7.99055C7.3524 10.9042 6.8426 10.3828 6.8426 9.74445C6.8426 9.10614 7.3524 8.58468 7.99055 8.57026H10.0623C10.5624 8.5707 11.0496 8.72837 11.4552 9.02097C12.022 9.40909 12.3705 10.0436 12.3938 10.7302C12.3938 12.5697 10.5418 15.0291 7.69707 15.0291C5.10312 15.0291 3.0003 12.9263 3.0003 10.3323V3.87469C2.99067 3.44886 3.21234 3.05119 3.5796 2.83545C3.94686 2.61971 4.40213 2.61971 4.76939 2.83545C5.13664 3.05119 5.35831 3.44886 5.34869 3.87469V6.80942" stroke="#81766F" stroke-linecap="round" stroke-linejoin="round"/>
</svg>
