<svg width="33" height="33" viewBox="0 0 33 33" fill="none" xmlns="http://www.w3.org/2000/svg">
<path fill-rule="evenodd" clip-rule="evenodd" d="M7.49349 18.2155H23.3135L18.4695 24.0288C17.9975 24.5942 18.0748 25.4355 18.6402 25.9062C19.2068 26.3782 20.0468 26.3008 20.5188 25.7355L27.1855 17.7355C27.2375 17.6728 27.2628 17.5995 27.3015 17.5302C27.3335 17.4742 27.3722 17.4262 27.3962 17.3648C27.4562 17.2115 27.4922 17.0502 27.4922 16.8875C27.4922 16.8862 27.4935 16.8835 27.4935 16.8822C27.4935 16.8808 27.4922 16.8782 27.4922 16.8768C27.4922 16.7142 27.4562 16.5528 27.3962 16.3995C27.3722 16.3382 27.3335 16.2902 27.3015 16.2342C27.2628 16.1648 27.2375 16.0915 27.1855 16.0288L20.5188 8.02883C20.2535 7.71283 19.8748 7.54883 19.4935 7.54883C19.1922 7.54883 18.8895 7.65016 18.6402 7.85816C18.0748 8.32883 17.9975 9.17016 18.4695 9.7355L23.3135 15.5488H7.49349C6.75749 15.5488 6.16016 16.1462 6.16016 16.8822C6.16016 17.6182 6.75749 18.2155 7.49349 18.2155Z" fill="#322E28"/>
<mask id="mask0" mask-type="alpha" maskUnits="userSpaceOnUse" x="6" y="7" width="22" height="20">
<path fill-rule="evenodd" clip-rule="evenodd" d="M7.49349 18.2155H23.3135L18.4695 24.0288C17.9975 24.5942 18.0748 25.4355 18.6402 25.9062C19.2068 26.3782 20.0468 26.3008 20.5188 25.7355L27.1855 17.7355C27.2375 17.6728 27.2628 17.5995 27.3015 17.5302C27.3335 17.4742 27.3722 17.4262 27.3962 17.3648C27.4562 17.2115 27.4922 17.0502 27.4922 16.8875C27.4922 16.8862 27.4935 16.8835 27.4935 16.8822C27.4935 16.8808 27.4922 16.8782 27.4922 16.8768C27.4922 16.7142 27.4562 16.5528 27.3962 16.3995C27.3722 16.3382 27.3335 16.2902 27.3015 16.2342C27.2628 16.1648 27.2375 16.0915 27.1855 16.0288L20.5188 8.02883C20.2535 7.71283 19.8748 7.54883 19.4935 7.54883C19.1922 7.54883 18.8895 7.65016 18.6402 7.85816C18.0748 8.32883 17.9975 9.17016 18.4695 9.7355L23.3135 15.5488H7.49349C6.75749 15.5488 6.16016 16.1462 6.16016 16.8822C6.16016 17.6182 6.75749 18.2155 7.49349 18.2155Z" fill="white"/>
</mask>
<g mask="url(#mask0)">
<rect x="0.828125" y="0.881836" width="32" height="32" fill="white"/>
</g>
</svg>
