<svg width="17" height="17" viewBox="0 0 17 17" fill="none" xmlns="http://www.w3.org/2000/svg">
<path fill-rule="evenodd" clip-rule="evenodd" d="M8.751 11.8335C8.41366 11.8335 8.091 11.6782 7.867 11.4055L5.05833 8.00683C4.72233 7.5995 4.65499 7.0215 4.88566 6.53283C5.08899 6.1015 5.49366 5.8335 5.94233 5.8335H11.5597C12.0083 5.8335 12.413 6.1015 12.6163 6.53283C12.847 7.0215 12.7797 7.5995 12.4443 8.00616L9.635 11.4055C9.411 11.6782 9.08833 11.8335 8.751 11.8335Z" fill="#231F20"/>
<mask id="mask0" mask-type="alpha" maskUnits="userSpaceOnUse" x="4" y="5" width="9" height="7">
<path fill-rule="evenodd" clip-rule="evenodd" d="M8.751 11.8335C8.41366 11.8335 8.091 11.6782 7.867 11.4055L5.05833 8.00683C4.72233 7.5995 4.65499 7.0215 4.88566 6.53283C5.08899 6.1015 5.49366 5.8335 5.94233 5.8335H11.5597C12.0083 5.8335 12.413 6.1015 12.6163 6.53283C12.847 7.0215 12.7797 7.5995 12.4443 8.00616L9.635 11.4055C9.411 11.6782 9.08833 11.8335 8.751 11.8335Z" fill="white"/>
</mask>
<g mask="url(#mask0)">
<rect x="0.75" y="0.5" width="16" height="16" fill="#81766F"/>
</g>
</svg>
