<svg width="16" height="16" viewBox="0 0 16 16" fill="none" xmlns="http://www.w3.org/2000/svg">
<path fill-rule="evenodd" clip-rule="evenodd" d="M4.81366 3.99977C4.23766 3.99977 3.69766 4.22244 3.29366 4.62711C2.45499 5.46711 2.45499 6.83444 3.29432 7.67577L8.00032 12.3898L12.707 7.67577C13.5463 6.83444 13.5463 5.46711 12.707 4.62711C11.899 3.81711 10.475 3.81844 9.66699 4.62711L8.47232 5.82377C8.22166 6.07511 7.77899 6.07511 7.52832 5.82377L6.33366 4.62644C5.92966 4.22244 5.39032 3.99977 4.81366 3.99977ZM8.00003 13.9998C7.82336 13.9998 7.65336 13.9298 7.5287 13.8038L2.35003 8.61717C0.992698 7.25717 0.992698 5.0445 2.35003 3.6845C3.00603 3.0285 3.8807 2.6665 4.81336 2.6665C5.74603 2.6665 6.62136 3.0285 7.2767 3.6845L8.00003 4.40917L8.72336 3.68517C9.37936 3.0285 10.254 2.6665 11.1874 2.6665C12.1194 2.6665 12.9947 3.0285 13.65 3.6845C15.008 5.0445 15.008 7.25717 13.6507 8.61717L8.47203 13.8045C8.3467 13.9298 8.17736 13.9998 8.00003 13.9998Z" fill="#0EA36C"/>
</svg>
