<svg width="16" height="16" viewBox="0 0 16 16" fill="none" xmlns="http://www.w3.org/2000/svg">
<path fill-rule="evenodd" clip-rule="evenodd" d="M8.001 11.3335C7.66366 11.3335 7.341 11.1782 7.117 10.9055L4.30833 7.50683C3.97233 7.0995 3.90499 6.5215 4.13566 6.03283C4.33899 5.6015 4.74366 5.3335 5.19233 5.3335H10.8097C11.2583 5.3335 11.663 5.6015 11.8663 6.03283C12.097 6.5215 12.0297 7.0995 11.6943 7.50616L8.885 10.9055C8.661 11.1782 8.33833 11.3335 8.001 11.3335Z" fill="#231F20"/>
<mask id="mask0" mask-type="alpha" maskUnits="userSpaceOnUse" x="4" y="5" width="9" height="7">
<path fill-rule="evenodd" clip-rule="evenodd" d="M8.001 11.3335C7.66366 11.3335 7.341 11.1782 7.117 10.9055L4.30833 7.50683C3.97233 7.0995 3.90499 6.5215 4.13566 6.03283C4.33899 5.6015 4.74366 5.3335 5.19233 5.3335H10.8097C11.2583 5.3335 11.663 5.6015 11.8663 6.03283C12.097 6.5215 12.0297 7.0995 11.6943 7.50616L8.885 10.9055C8.661 11.1782 8.33833 11.3335 8.001 11.3335Z" fill="white"/>
</mask>
<g mask="url(#mask0)">
<rect width="16" height="16" fill="#0EA36C"/>
</g>
</svg>
