<svg width="16" height="16" viewBox="0 0 16 16" fill="none" xmlns="http://www.w3.org/2000/svg">
<path fill-rule="evenodd" clip-rule="evenodd" d="M10.6806 7.11895L8.8839 5.32229L10.1826 4.02295L11.9786 5.81895L10.6806 7.11895ZM6.05457 11.7496L4.0699 11.9303L4.2459 9.95962L7.99057 6.21495L9.7879 8.01229L6.05457 11.7496ZM12.9372 4.89162L12.9366 4.89095L11.1112 3.06562C10.6172 2.57295 9.76857 2.54962 9.30057 3.01962L3.30323 9.01695C3.0859 9.23362 2.95123 9.52162 2.92323 9.82629L2.67057 12.6063C2.65323 12.803 2.72323 12.9976 2.86323 13.1376C2.98923 13.2636 3.15923 13.333 3.33457 13.333C3.35523 13.333 3.37523 13.3323 3.39523 13.3303L6.17523 13.0776C6.48057 13.0496 6.7679 12.9156 6.98457 12.699L12.9826 6.70095C13.4679 6.21429 13.4472 5.40229 12.9372 4.89162Z" fill="#231F20"/>
<mask id="mask0" mask-type="alpha" maskUnits="userSpaceOnUse" x="2" y="2" width="12" height="12">
<path fill-rule="evenodd" clip-rule="evenodd" d="M10.6806 7.11895L8.8839 5.32229L10.1826 4.02295L11.9786 5.81895L10.6806 7.11895ZM6.05457 11.7496L4.0699 11.9303L4.2459 9.95962L7.99057 6.21495L9.7879 8.01229L6.05457 11.7496ZM12.9372 4.89162L12.9366 4.89095L11.1112 3.06562C10.6172 2.57295 9.76857 2.54962 9.30057 3.01962L3.30323 9.01695C3.0859 9.23362 2.95123 9.52162 2.92323 9.82629L2.67057 12.6063C2.65323 12.803 2.72323 12.9976 2.86323 13.1376C2.98923 13.2636 3.15923 13.333 3.33457 13.333C3.35523 13.333 3.37523 13.3323 3.39523 13.3303L6.17523 13.0776C6.48057 13.0496 6.7679 12.9156 6.98457 12.699L12.9826 6.70095C13.4679 6.21429 13.4472 5.40229 12.9372 4.89162Z" fill="white"/>
</mask>
<g mask="url(#mask0)">
<rect width="16" height="16" fill="#0EA36C"/>
</g>
</svg>
