<svg width="360" height="96" viewBox="0 0 360 96" fill="none" xmlns="http://www.w3.org/2000/svg">
<path opacity="0.3" d="M269.037 -50.6133H76.6719V57.9101H269.037V-50.6133Z" fill="#026D49"/>
<path d="M120.856 42.0035C111.979 33.128 103.13 24.2813 94.2528 15.4058C93.8781 15.0312 93.3304 15.6075 93.6763 15.9821C102.554 24.8576 111.403 33.7043 120.28 42.5799C120.655 42.9256 121.231 42.3781 120.856 42.0035Z" fill="white"/>
<path d="M94.2528 42.5799C103.13 33.7044 111.979 24.8577 120.856 15.9821C121.231 15.6075 120.655 15.06 120.28 15.4058C111.403 24.2813 102.554 33.128 93.6763 42.0036C93.3304 42.3782 93.8781 42.9257 94.2528 42.5799Z" fill="white"/>
<path d="M88.6613 18.028C88.4307 18.028 88.2578 17.8551 88.2578 17.6246V10.9103C88.2578 10.6797 88.4307 10.5068 88.6613 10.5068H95.4924C95.723 10.5068 95.8959 10.6797 95.8959 10.9103C95.8959 11.1408 95.723 11.3137 95.4924 11.3137H89.0649V17.6246C89.036 17.8551 88.8631 18.028 88.6613 18.028Z" fill="#C7C9BC"/>
<path d="M126.162 18.1139C125.932 18.1139 125.759 17.941 125.759 17.7105V11.2844H119.446C119.216 11.2844 119.043 11.1115 119.043 10.881C119.043 10.6504 119.216 10.4775 119.446 10.4775H126.162C126.393 10.4775 126.566 10.6504 126.566 10.881V17.7105C126.537 17.941 126.364 18.1139 126.162 18.1139Z" fill="#C7C9BC"/>
<path d="M95.4045 47.2194H88.6887C88.4581 47.2194 88.2852 47.0465 88.2852 46.816V39.9864C88.2852 39.7559 88.4581 39.583 88.6887 39.583C88.9193 39.583 89.0922 39.7559 89.0922 39.9864V46.4125H95.4045C95.6351 46.4125 95.808 46.5854 95.808 46.816C95.808 47.0465 95.6351 47.2194 95.4045 47.2194Z" fill="#C7C9BC"/>
<path d="M259.555 29.4678H222.027V49.1495H259.555V29.4678Z" fill="#FFA79B"/>
<path d="M135.877 -0.126953H88.7797C88.2609 -0.126953 88.2609 0.679916 88.7797 0.679916H135.877C136.367 0.6511 136.367 -0.126953 135.877 -0.126953Z" fill="#9299AB"/>
<path d="M177.18 36.7871H156.629V51.5412H177.18V36.7871Z" fill="#FECA55"/>
<path d="M167.005 45.2594C166.919 45.2594 166.832 45.2306 166.775 45.1729L157.984 38.4875C157.811 38.3434 157.782 38.1129 157.897 37.94C158.041 37.7671 158.272 37.7382 158.445 37.8535L166.977 44.3372L175.306 37.7671C175.479 37.623 175.739 37.6518 175.854 37.8247C175.998 37.9976 175.969 38.2569 175.796 38.3722L167.207 45.1153C167.178 45.2306 167.092 45.2594 167.005 45.2594Z" fill="white"/>
<path d="M180.176 35.7787V40.1588C180.176 40.6775 180.983 40.6775 180.983 40.1588V35.7787C180.983 35.26 180.176 35.26 180.176 35.7787Z" fill="white"/>
<path d="M254.282 35.375H238.112C237.593 35.375 237.593 36.1818 238.112 36.1818H254.282C254.8 36.1818 254.8 35.375 254.282 35.375Z" fill="white"/>
<path d="M254.282 40.1592H238.112C237.593 40.1592 237.593 40.9661 238.112 40.9661H254.282C254.8 40.9661 254.8 40.1592 254.282 40.1592Z" fill="white"/>
<path d="M235.74 57.5362C232.8 52.2916 229.86 47.0181 226.921 41.7735C226.431 40.8802 225.047 41.687 225.537 42.5804C228.477 47.825 231.417 53.0984 234.357 58.3431C234.847 59.2364 236.23 58.4295 235.74 57.5362Z" fill="#D24A43"/>
<path d="M235.396 60.2449C233.637 69.6968 231.85 79.1775 230.092 88.6293C229.89 89.6379 231.447 90.0702 231.62 89.0616C233.378 79.6097 235.165 70.1291 236.923 60.6772C237.125 59.6686 235.597 59.2364 235.396 60.2449Z" fill="#D24A43"/>
<path d="M238.308 95.0266H222.484V92.8366C222.484 89.6667 225.05 87.1309 228.191 87.1309H232.601C235.772 87.1309 238.308 89.6955 238.308 92.8366V95.0266Z" fill="#D24A43"/>
<path d="M238.885 59.1214C239.029 60.7352 237.588 62.0319 235.974 62.0319C234.36 62.0319 233.062 60.7352 233.062 59.1214C233.062 57.5077 234.36 56.2109 235.974 56.2109C237.588 56.2109 238.741 57.1619 238.885 59.1214Z" fill="#D24A43"/>
<path d="M227.326 43.0989H194.871V40.9088C194.871 37.739 197.436 35.2031 200.578 35.2031H221.59C224.761 35.2031 227.297 37.7678 227.297 40.9088V43.0989H227.326Z" fill="#D24A43"/>
<path d="M207.686 61.1489L207.687 61.1455C207.695 61.121 207.703 61.1111 207.706 61.1079C207.709 61.1043 207.714 61.1002 207.724 61.0962C207.746 61.0864 207.789 61.0801 207.84 61.0938C207.871 61.1024 207.89 61.1142 207.899 61.1215C207.898 61.1263 207.896 61.1327 207.893 61.1407L207.891 61.1475L207.889 61.1543C206.174 66.3833 204.459 71.6195 202.745 76.8556L202.744 76.8596C201.029 82.097 199.314 87.3343 197.599 92.5644L197.598 92.5678C197.589 92.5939 197.581 92.6046 197.578 92.608C197.574 92.6116 197.57 92.615 197.562 92.6184C197.544 92.6266 197.505 92.6331 197.457 92.6199C197.417 92.6089 197.397 92.5917 197.391 92.5849C197.391 92.58 197.392 92.5709 197.397 92.5569C199.112 87.3272 200.826 82.0905 202.541 76.8538L202.541 76.8525C204.256 71.6155 205.971 66.3786 207.686 61.1489Z" fill="#322E28" stroke="#322E28"/>
<path d="M177.81 92.6436H197.179C197.206 92.6436 197.216 92.6485 197.216 92.6485C197.216 92.6485 197.216 92.6485 197.216 92.6485C197.216 92.6486 197.217 92.6487 197.218 92.6507C197.225 92.6582 197.241 92.6872 197.241 92.7379C197.241 92.7883 197.225 92.8226 197.213 92.8365C197.209 92.842 197.205 92.8445 197.202 92.8462C197.199 92.8476 197.189 92.8522 197.167 92.8538H177.81C177.779 92.8538 177.765 92.8481 177.761 92.8465C177.758 92.8449 177.755 92.8431 177.752 92.8393C177.743 92.829 177.727 92.7982 177.727 92.7487C177.727 92.6992 177.743 92.6684 177.752 92.6581C177.755 92.6543 177.758 92.6525 177.761 92.6509C177.765 92.6493 177.779 92.6436 177.81 92.6436Z" fill="#322E28" stroke="#322E28"/>
<path d="M181.24 74.0762H169.566V89.4354H181.24V74.0762Z" fill="#EBF5F1"/>
<path d="M185.073 77.1883C184.179 75.5746 182.191 76.4967 180.75 76.0645C180 75.834 179.683 76.9866 180.433 77.2172C181.211 77.4477 182.738 77.1307 183.344 77.39C184.842 78.0816 184.237 84.1908 184.035 85.3146C183.661 87.5335 181.787 87.4182 180.029 87.303C179.251 87.2453 179.251 88.4556 180.029 88.5132C181.499 88.5997 183.142 88.6573 184.352 87.6487C185.765 86.4961 185.909 78.7156 185.073 77.1883Z" fill="#EBF5F1"/>
<path d="M174.122 66.8429C173.084 68.1397 172.94 69.9263 173.891 71.3095C174.179 71.7417 174.871 71.3383 174.583 70.906C173.862 69.8398 173.862 68.4278 174.698 67.4193C175.015 67.0158 174.439 66.4683 174.122 66.8429Z" fill="#E6DFD1"/>
<path d="M175.909 66.8429C174.842 68.1397 174.727 69.9263 175.678 71.3095C175.966 71.7417 176.658 71.3383 176.37 70.906C175.649 69.8398 175.649 68.4278 176.485 67.4193C176.802 67.0158 176.226 66.4683 175.909 66.8429Z" fill="#E6DFD1"/>
<path d="M196.398 59.2062C191.21 60.8487 187.78 65.2865 187.52 70.7329C187.491 71.2516 188.299 71.2516 188.327 70.7329C188.558 65.6611 191.786 61.5115 196.628 59.9842C197.09 59.8402 196.888 59.0621 196.398 59.2062Z" fill="#D24A43"/>
<path d="M196.714 66.0076C194.466 66.6703 192.909 68.7451 192.938 71.0793C192.938 71.598 193.745 71.598 193.745 71.0793C193.745 69.0909 195.013 67.3331 196.944 66.7568C197.434 66.6127 197.204 65.8635 196.714 66.0076Z" fill="#D24A43"/>
<path d="M194.236 53.1551C186.137 54.5095 180.517 61.6849 181.064 69.8688C181.093 70.3875 181.9 70.3875 181.871 69.8688C181.352 62.0018 186.713 55.2299 194.467 53.9332C194.928 53.8467 194.726 53.0687 194.236 53.1551Z" fill="#D24A43"/>
<path d="M199.51 71.0789C199.568 71.7129 198.991 72.2028 198.386 72.2028C197.752 72.2028 197.262 71.6841 197.262 71.0789C197.262 70.445 197.781 69.9551 198.386 69.9551C199.02 69.9551 199.452 70.3297 199.51 71.0789Z" fill="#D24A43"/>
<path d="M280.446 8.23042C279.553 8.23042 278.832 7.50999 278.832 6.61667C278.832 5.72335 279.553 5.00293 280.446 5.00293C281.368 5.00293 281.974 5.60808 282.06 6.58785C282.089 6.99129 281.945 7.39473 281.657 7.71172C281.368 8.0287 280.936 8.23042 280.446 8.23042ZM280.446 5.78099C279.985 5.78099 279.61 6.1556 279.61 6.61667C279.61 7.07774 279.985 7.45236 280.446 7.45236C280.677 7.45236 280.936 7.33709 281.08 7.16419C281.167 7.04892 281.282 6.87603 281.253 6.64549C281.224 6.06915 280.965 5.78099 280.446 5.78099Z" fill="#D24A43"/>
<path d="M285.954 13.5038C285.06 13.5038 284.34 12.7834 284.34 11.8901C284.34 10.9968 285.06 10.2764 285.954 10.2764C286.876 10.2764 287.482 10.8815 287.568 11.8613C287.597 12.2647 287.453 12.6682 287.165 12.9851C286.876 13.3021 286.415 13.5038 285.954 13.5038ZM285.954 11.0544C285.493 11.0544 285.118 11.429 285.118 11.8901C285.118 12.3512 285.493 12.7258 285.954 12.7258C286.185 12.7258 286.444 12.6105 286.588 12.4376C286.675 12.3224 286.79 12.1495 286.761 11.9189C286.732 11.3426 286.473 11.0544 285.954 11.0544Z" fill="#D24A43"/>
<path d="M296.56 26.212H168.066V-11.0479H296.56V26.212ZM168.873 25.4052H295.781V-10.241H168.873V25.4052Z" fill="#026D49"/>
<path d="M233.583 4.65723H178.848V13.2446H225.051C227.876 10.3629 230.729 7.51006 233.583 4.65723Z" fill="#026D49"/>
<path d="M242.026 4.65723H238.856C236.002 7.51006 233.149 10.3629 230.324 13.2446H233.466C236.319 10.3629 239.173 7.51006 242.026 4.65723Z" fill="#026D49"/>
<path d="M250.702 4.65723H247.532C244.678 7.51006 241.825 10.3629 239 13.2446H242.113C244.995 10.3629 247.849 7.51006 250.702 4.65723Z" fill="#026D49"/>
<path d="M259.376 4.65723H256.292C253.41 7.51006 250.557 10.3629 247.703 13.2446H250.787L259.376 4.65723Z" fill="#026D49"/>
<path d="M268.056 4.65723H264.972C262.09 7.51006 259.236 10.3629 256.383 13.2446H259.467L268.056 4.65723Z" fill="#026D49"/>
<path d="M276.412 5.60817V4.65723H273.847C271.022 7.51006 268.168 10.3629 265.344 13.2446H268.774C271.31 10.6799 273.847 8.14402 276.412 5.60817Z" fill="#026D49"/>
<path d="M274.078 13.2443H276.413V10.9102C275.635 11.6882 274.856 12.4663 274.078 13.2443Z" fill="#026D49"/>
<path d="M256.467 -3.06543H206.574V0.392555H256.467V-3.06543Z" fill="#9299AB"/>
<path d="M286.415 5.55031C284.08 7.88446 281.745 10.2474 279.411 12.5816C279.036 12.9562 279.612 13.5037 279.987 13.1579C282.322 10.8238 284.656 8.46079 286.991 6.12664C287.337 5.75203 286.789 5.17569 286.415 5.55031Z" fill="#D24A43"/>
<path d="M274.397 90.704C274.253 89.7242 274.397 88.7444 274.685 87.8223H243.383C241.683 89.8683 241.856 91.5108 243.383 92.8652H275.435C274.887 92.3465 274.512 91.6261 274.397 90.704Z" fill="#E6DFD1"/>
<path d="M268.66 84.9978C268.747 84.7096 268.862 84.4215 268.977 84.1621H243.382C242.229 85.3436 242.287 86.6692 243.382 88.0812H269.554C268.804 87.2743 268.314 86.2657 268.66 84.9978Z" fill="#E6DFD1"/>
<path d="M269.728 87.9084H243.153C243.038 87.9084 242.923 87.8507 242.865 87.7643C242.173 86.9574 241.597 85.6607 242.836 83.9317C242.923 83.8164 243.038 83.7588 243.153 83.7588H269.498C269.728 83.7588 269.901 83.9317 269.901 84.1622C269.901 84.3928 269.728 84.5657 269.498 84.5657H243.355C242.75 85.5166 242.721 86.3235 243.326 87.1015H269.699C269.93 87.1015 270.103 87.2744 270.103 87.5049C270.103 87.7355 269.959 87.9084 269.728 87.9084Z" fill="#C7C9BC"/>
<path d="M275.607 93.1529H242.979C242.864 93.1529 242.719 93.0953 242.662 92.98C241.451 91.3087 241.451 89.522 242.662 87.6778C242.748 87.5625 242.864 87.5049 243.008 87.5049H275.347C275.578 87.5049 275.751 87.6778 275.751 87.9083C275.751 88.1389 275.578 88.3118 275.347 88.3118H243.209C242.345 89.7526 242.345 91.0781 243.209 92.3749H275.635C275.866 92.3749 276.039 92.5478 276.039 92.7783C276.039 93.0088 275.837 93.1529 275.607 93.1529Z" fill="#C7C9BC"/>
<path d="M272.348 89.0029H243.64C243.38 89.0029 243.38 89.4063 243.64 89.4063H272.348C272.607 89.4063 272.607 89.0029 272.348 89.0029Z" fill="white"/>
<path d="M269.697 90.2998H255.718C255.459 90.2998 255.459 90.7032 255.718 90.7032H269.697C269.928 90.6744 269.928 90.2998 269.697 90.2998Z" fill="white"/>
<path d="M131.142 46.2685C130.652 46.3261 117.768 57.4493 117.768 57.4493L111.023 43.7614L126.213 37.71L131.142 46.2685Z" fill="#FFA79B"/>
<path d="M129.222 44.0051L130.437 46.1255C130.429 46.1313 130.421 46.137 130.413 46.1429C130.184 46.3103 129.877 46.5491 129.513 46.8404C128.957 47.2861 128.256 47.8637 127.474 48.5162C127.507 46.9946 128.197 45.3527 129.222 44.0051Z" fill="#322E28" stroke="#322E28"/>
<path d="M123.07 23.9645C125.289 20.7082 132.466 20.5929 136.674 22.7253C138.519 23.6475 139.816 22.5524 139.874 24.2238C140.018 28.4022 140.421 41.946 138.288 44.5683C134.57 49.179 127.941 46.355 125.26 41.9748C122.58 37.5659 119.928 28.5751 123.07 23.9645Z" fill="#FFA79B"/>
<path d="M133.292 22.0917L133.487 22.1312L133.656 22.0261C134.355 21.591 135.5 21.1571 136.699 20.9643C137.907 20.7699 139.064 20.837 139.854 21.2839C140.053 21.4045 140.364 21.702 140.489 22.1645C140.609 22.607 140.58 23.2839 139.96 24.221C139.757 24.4812 139.394 24.7362 138.894 24.9537C138.394 25.1708 137.799 25.3326 137.192 25.4264C136.584 25.5202 135.982 25.5434 135.47 25.4936C134.943 25.4423 134.575 25.3197 134.38 25.176L133.241 24.3352L133.599 25.7051C134.219 28.0697 134.136 31.0282 132.041 32.7095L132.023 32.7235L132.007 32.739C131.888 32.8531 131.815 32.9941 131.767 33.1123C131.716 33.2358 131.677 33.3742 131.644 33.5153C131.578 33.7959 131.525 34.1468 131.469 34.525C131.463 34.5715 131.456 34.6186 131.449 34.6663C131.34 35.4104 131.21 36.3033 130.959 37.2385C130.427 39.2252 129.374 41.3181 126.932 42.412L126.931 42.4125C124.91 43.3239 122.257 42.9783 120.005 41.8387C117.744 40.6945 116.059 38.8405 115.815 36.9265L115.815 36.9265L115.815 36.9219C115.366 33.6489 116.69 31.2975 118.437 29.3484C119.217 28.4787 120.07 27.7011 120.887 26.9556C120.993 26.8594 121.098 26.7638 121.202 26.6686C122.097 25.8493 122.95 25.0446 123.514 24.2182C124.259 23.1326 125.689 22.3895 127.491 22.027C129.281 21.667 131.361 21.6999 133.292 22.0917Z" fill="#322E28" stroke="#322E28"/>
<path d="M132.7 40.3899C131.432 40.9951 128.752 41.0527 127.224 39.8424C125.466 38.488 125.033 36.7014 125.84 34.4537C126.417 32.8688 128.434 31.8314 130.423 32.2348C130.913 32.3501 131.432 32.523 131.893 32.84C132.037 32.9264 132.181 33.0417 132.297 33.1281C132.383 35.5775 132.527 37.9693 132.7 40.3899Z" fill="#FFA79B"/>
<path d="M141.317 34.7995C141.231 33.8774 140.308 33.301 139.444 33.4739C139.155 33.5316 139.011 33.9062 139.098 34.1655C139.098 34.1944 139.127 34.2232 139.127 34.2232C139.04 34.252 138.954 34.2808 138.867 34.3096C138.233 34.6266 138.838 35.5488 139.444 35.2318C139.444 35.2318 139.501 35.2318 139.444 35.2606C138.954 35.4335 138.925 36.2115 139.472 36.3268C140.395 36.5573 141.404 35.8081 141.317 34.7995Z" fill="#FFA79B"/>
<mask id="path-53-inside-1" fill="white">
<path d="M131.402 37.134L129.557 35.2609C129.356 35.0592 129.039 35.3762 129.24 35.5779C129.846 36.2118 130.48 36.8458 131.085 37.4509C131.258 37.6527 131.604 37.3357 131.402 37.134Z"/>
</mask>
<path d="M131.402 37.134L129.557 35.2609C129.356 35.0592 129.039 35.3762 129.24 35.5779C129.846 36.2118 130.48 36.8458 131.085 37.4509C131.258 37.6527 131.604 37.3357 131.402 37.134Z" fill="#322E28"/>
<path d="M131.402 37.134L130.69 37.8357L130.695 37.8412L131.402 37.134ZM129.557 35.2609L130.27 34.5592L130.264 34.5537L129.557 35.2609ZM129.24 35.5779L129.964 34.8873L129.956 34.8789L129.947 34.8707L129.24 35.5779ZM131.085 37.4509L131.844 36.8001L131.819 36.7709L131.792 36.7438L131.085 37.4509ZM132.115 36.4323L130.27 34.5592L128.845 35.9626L130.69 37.8356L132.115 36.4323ZM130.264 34.5537C130.01 34.2996 129.666 34.1714 129.313 34.2003C128.988 34.2269 128.722 34.3793 128.541 34.5609C128.359 34.7425 128.206 35.0083 128.18 35.3332C128.151 35.6865 128.279 36.031 128.533 36.2851L129.947 34.8707C130.101 35.0239 130.193 35.2532 130.173 35.4966C130.155 35.7116 130.057 35.8729 129.955 35.9753C129.852 36.0777 129.691 36.176 129.476 36.1936C129.233 36.2135 129.004 36.1213 128.85 35.9681L130.264 34.5537ZM128.517 36.2684C129.132 36.9122 129.774 37.5544 130.378 38.1581L131.792 36.7438C131.185 36.1372 130.56 35.5115 129.964 34.8873L128.517 36.2684ZM130.326 38.1018C130.587 38.406 130.959 38.5417 131.32 38.5114C131.642 38.4843 131.901 38.3333 132.075 38.1665C132.251 37.9988 132.415 37.7443 132.455 37.419C132.499 37.0575 132.377 36.6943 132.109 36.4268L130.695 37.8412C130.528 37.6745 130.439 37.4265 130.47 37.1749C130.496 36.9595 130.6 36.8095 130.693 36.721C130.785 36.6334 130.937 36.5365 131.152 36.5184C131.406 36.4971 131.67 36.5968 131.844 36.8001L130.326 38.1018Z" fill="#322E28" mask="url(#path-53-inside-1)"/>
<mask id="path-55-inside-2" fill="white">
<path d="M138.032 39.698C137.715 39.5827 137.369 39.4675 137.052 39.3522C136.764 39.2657 136.648 39.698 136.936 39.7844C137.254 39.8997 137.599 40.015 137.916 40.1302C138.205 40.2167 138.32 39.7844 138.032 39.698Z"/>
</mask>
<path d="M138.032 39.698C137.715 39.5827 137.369 39.4675 137.052 39.3522C136.764 39.2657 136.648 39.698 136.936 39.7844C137.254 39.8997 137.599 40.015 137.916 40.1302C138.205 40.2167 138.32 39.7844 138.032 39.698Z" fill="#322E28"/>
<path d="M138.032 39.698L137.69 40.6378L137.717 40.6476L137.744 40.6558L138.032 39.698ZM137.052 39.3522L137.393 38.4124L137.367 38.4026L137.339 38.3943L137.052 39.3522ZM136.936 39.7844L137.278 38.8446L137.251 38.8348L137.224 38.8266L136.936 39.7844ZM137.916 40.1302L137.575 41.07L137.602 41.0798L137.629 41.0881L137.916 40.1302ZM138.373 38.7582C138.207 38.6977 138.035 38.6377 137.87 38.5806C137.703 38.5225 137.544 38.4672 137.393 38.4124L136.71 40.292C136.876 40.3525 137.049 40.4124 137.213 40.4696C137.38 40.5277 137.539 40.583 137.69 40.6378L138.373 38.7582ZM137.339 38.3943C137.01 38.2956 136.645 38.3304 136.336 38.5267C136.048 38.7092 135.882 38.9841 135.812 39.2458C135.67 39.7788 135.896 40.5165 136.649 40.7423L137.224 38.8266C137.408 38.8819 137.588 39.0196 137.69 39.2273C137.782 39.4152 137.785 39.6068 137.744 39.7612C137.703 39.9148 137.601 40.0924 137.407 40.2155C137.192 40.3524 136.95 40.3655 136.764 40.31L137.339 38.3943ZM136.595 40.7242C136.761 40.7847 136.934 40.8447 137.098 40.9018C137.265 40.9599 137.424 41.0152 137.575 41.07L138.258 39.1904C138.092 39.1299 137.919 39.07 137.755 39.0128C137.588 38.9547 137.429 38.8994 137.278 38.8446L136.595 40.7242ZM137.629 41.0881C137.958 41.1868 138.323 41.152 138.632 40.9557C138.92 40.7732 139.087 40.4983 139.156 40.2367C139.299 39.7036 139.072 38.9659 138.319 38.7401L137.744 40.6558C137.56 40.6006 137.38 40.4628 137.278 40.2551C137.186 40.0673 137.183 39.8756 137.224 39.7212C137.265 39.5676 137.367 39.39 137.561 39.2669C137.777 39.13 138.019 39.1169 138.204 39.1724L137.629 41.0881Z" fill="#322E28" mask="url(#path-55-inside-2)"/>
<mask id="path-57-inside-3" fill="white">
<path d="M138.551 31.2548C138.465 31.7735 138.35 32.2634 138.263 32.7821C138.205 33.0703 138.638 33.1855 138.695 32.8974C138.782 32.3787 138.897 31.8888 138.984 31.3701C139.041 31.0819 138.609 30.9666 138.551 31.2548Z"/>
</mask>
<path d="M138.551 31.2548C138.465 31.7735 138.35 32.2634 138.263 32.7821C138.205 33.0703 138.638 33.1855 138.695 32.8974C138.782 32.3787 138.897 31.8888 138.984 31.3701C139.041 31.0819 138.609 30.9666 138.551 31.2548Z" fill="#322E28"/>
<path d="M138.551 31.2548L137.571 31.0587L137.568 31.0745L137.565 31.0904L138.551 31.2548ZM138.263 32.7821L139.244 32.9782L139.247 32.9624L139.249 32.9465L138.263 32.7821ZM138.695 32.8974L139.676 33.0935L139.679 33.0777L139.682 33.0618L138.695 32.8974ZM138.984 31.3701L138.003 31.1739L138 31.1897L137.997 31.2056L138.984 31.3701ZM137.565 31.0904C137.525 31.3313 137.478 31.5678 137.427 31.8223C137.377 32.0721 137.323 32.3398 137.277 32.6177L139.249 32.9465C139.29 32.7056 139.337 32.4691 139.388 32.2146C139.438 31.9648 139.491 31.6971 139.538 31.4192L137.565 31.0904ZM137.283 32.5859C137.129 33.3552 137.674 33.8875 138.178 34.0221C138.433 34.0899 138.756 34.0877 139.062 33.9257C139.397 33.7492 139.607 33.4371 139.676 33.0935L137.715 32.7012C137.755 32.5017 137.89 32.2832 138.128 32.1572C138.34 32.0456 138.547 32.0506 138.694 32.0896C138.842 32.1291 138.998 32.221 139.113 32.3823C139.24 32.5614 139.283 32.7812 139.244 32.9782L137.283 32.5859ZM139.682 33.0618C139.722 32.8209 139.769 32.5844 139.82 32.3299C139.87 32.0801 139.924 31.8123 139.97 31.5345L137.997 31.2056C137.957 31.4465 137.91 31.683 137.859 31.9376C137.809 32.1873 137.755 32.4551 137.709 32.7329L139.682 33.0618ZM139.964 31.5662C140.118 30.797 139.573 30.2646 139.068 30.1301C138.814 30.0623 138.491 30.0645 138.184 30.2265C137.85 30.403 137.639 30.7151 137.571 31.0587L139.532 31.451C139.492 31.6504 139.357 31.8689 139.118 31.995C138.907 32.1066 138.699 32.1016 138.553 32.0626C138.405 32.0231 138.249 31.9311 138.134 31.7698C138.006 31.5908 137.964 31.371 138.003 31.1739L139.964 31.5662Z" fill="#322E28" mask="url(#path-57-inside-3)"/>
<mask id="path-59-inside-4" fill="white">
<path d="M138.694 29.3819C138.434 29.4395 138.175 29.526 137.915 29.5836C137.339 29.7277 137.598 30.621 138.146 30.4481C138.405 30.3905 138.665 30.304 138.924 30.2464C139.501 30.1311 139.241 29.2378 138.694 29.3819Z"/>
</mask>
<path d="M138.694 29.3819C138.434 29.4395 138.175 29.526 137.915 29.5836C137.339 29.7277 137.598 30.621 138.146 30.4481C138.405 30.3905 138.665 30.304 138.924 30.2464C139.501 30.1311 139.241 29.2378 138.694 29.3819Z" fill="#322E28"/>
<path d="M138.694 29.3819L138.911 30.3581L138.929 30.3539L138.948 30.349L138.694 29.3819ZM137.915 29.5836L137.699 28.6074L137.686 28.6103L137.673 28.6135L137.915 29.5836ZM138.146 30.4481L137.929 29.4719L137.887 29.4814L137.845 29.4945L138.146 30.4481ZM138.924 30.2464L138.728 29.2658L138.718 29.2679L138.707 29.2702L138.924 30.2464ZM138.477 28.4057C138.317 28.4411 138.162 28.4844 138.037 28.5192C137.903 28.5565 137.798 28.5852 137.699 28.6074L138.132 30.5598C138.292 30.5244 138.447 30.4811 138.572 30.4463C138.706 30.409 138.811 30.3803 138.911 30.3581L138.477 28.4057ZM137.673 28.6135C137.25 28.7192 136.91 28.993 136.728 29.3742C136.56 29.727 136.561 30.0997 136.646 30.4032C136.73 30.7063 136.921 31.0232 137.242 31.2377C137.59 31.4701 138.025 31.535 138.447 31.4017L137.845 29.4945C137.994 29.4476 138.19 29.4657 138.353 29.5747C138.49 29.6659 138.549 29.7829 138.572 29.8662C138.596 29.9501 138.606 30.0832 138.534 30.2333C138.449 30.4119 138.293 30.5201 138.158 30.5538L137.673 28.6135ZM138.363 31.4243C138.522 31.3888 138.677 31.3455 138.803 31.3108C138.937 31.2735 139.041 31.2448 139.141 31.2226L138.707 29.2702C138.548 29.3056 138.393 29.3489 138.268 29.3837C138.133 29.421 138.029 29.4497 137.929 29.4719L138.363 31.4243ZM139.12 31.227C139.55 31.141 139.912 30.8774 140.105 30.4847C140.282 30.1255 140.277 29.7475 140.194 29.4484C140.11 29.1477 139.924 28.839 139.619 28.6235C139.291 28.3917 138.869 28.3018 138.439 28.4148L138.948 30.349C138.792 30.39 138.608 30.3577 138.464 30.2565C138.344 30.1716 138.29 30.0664 138.267 29.9854C138.245 29.906 138.231 29.7639 138.312 29.6001C138.409 29.4028 138.586 29.2941 138.728 29.2658L139.12 31.227Z" fill="#322E28" mask="url(#path-59-inside-4)"/>
<path d="M141.031 31.4282L139.763 34.7133C139.648 34.9726 139.215 34.8574 139.331 34.598C139.475 34.2522 139.59 33.9064 139.734 33.5606C137.63 33.3589 134.431 33.0707 131.923 32.8402C131.462 32.552 130.943 32.3503 130.453 32.2351C133.162 32.4944 137.313 32.8402 139.907 33.0996C140.138 32.4944 140.368 31.8893 140.599 31.2841C140.685 31.0248 141.118 31.14 141.031 31.4282Z" fill="white"/>
<path d="M116.99 108.253C120.68 108.08 124.369 107.821 128.058 107.504C127.136 96.9858 126.79 81.1079 126.79 81.1079L122.063 54.366C122.063 54.366 121.977 42.0037 115.751 42.4071C103.732 43.1852 86.7549 66.3826 82.7773 109.406C94.1913 109.089 105.605 108.801 116.99 108.253Z" fill="#EBF5F1"/>
<path d="M108.169 82.5491C105.171 98.0813 120.736 102.98 125.809 102.289C127.192 102.087 128.576 101.799 129.93 101.453C129.095 89.9262 128.778 73.8465 128.778 73.8465L126.904 62.1758C123.676 64.0777 120.649 66.4118 117.911 68.9765C113.905 72.7227 109.005 78.1978 108.169 82.5491Z" fill="#088054"/>
<path d="M183.368 81.5116C182.561 78.8605 178.324 79.8403 175.961 80.2725C176.018 80.1284 176.941 79.6962 176.969 79.5233C178.007 79.4369 179.045 79.1199 179.996 78.6012C181.12 77.996 181.379 76.4111 180.284 76.267C175.615 75.633 171.81 76.267 170.801 76.4687C168.553 76.901 166.42 77.7079 164.374 78.7453C164.114 78.8605 163.913 79.0334 163.768 79.2063C157.024 78.6012 149.357 78.9181 143.419 79.408C142.987 86.5257 143.045 93.7011 144.054 100.732C153.046 98.3694 162.385 95.6318 167.919 93.9604C170.254 93.9893 172.617 93.9316 174.952 93.7587C177.719 93.557 180.716 93.0383 182.129 90.3295C182.821 89.0328 182.907 87.5055 183.051 86.0935C183.253 84.6815 183.772 82.8948 183.368 81.5116Z" fill="#FFA79B"/>
<path d="M146.13 79.2065C138.924 79.6676 133.447 80.4745 133.447 80.4745C128.058 48.1422 125.291 43.8197 116.644 42.4941C116.644 42.4941 112.09 45.7504 111.686 68.602C111.283 91.4536 112.291 104.911 121.572 105.199C125.723 105.343 136.416 102.807 146.994 99.9545C146.591 93.0385 146.331 86.1225 146.13 79.2065Z" fill="#EBF5F1"/>
<path d="M132.584 80.4748C131.719 80.6765 130.855 80.8782 129.99 81.0799C129.731 81.1375 129.846 81.5121 130.105 81.4545C130.97 81.2528 131.835 81.0511 132.699 80.8494C132.959 80.7917 132.843 80.4171 132.584 80.4748Z" fill="white"/>
<path d="M111.312 68.1408C111.283 71.6276 111.283 75.1144 111.254 78.6012C111.254 78.8606 111.657 78.8606 111.657 78.6012C111.686 75.1144 111.686 71.6276 111.715 68.1408C111.715 67.8815 111.312 67.8815 111.312 68.1408Z" fill="#088054"/>
<path d="M182.216 83.0393C181.899 83.241 181.581 83.4139 181.293 83.6156C181.063 83.7597 181.264 84.1055 181.495 83.9614L182.417 83.3851C182.648 83.241 182.446 82.8952 182.216 83.0393Z" fill="#D24A43"/>
<path d="M182.188 85.8059C181.871 86.0076 181.554 86.1805 181.266 86.3822C181.035 86.5263 181.237 86.8721 181.468 86.728L182.39 86.1517C182.592 86.0076 182.39 85.6618 182.188 85.8059Z" fill="#D24A43"/>
<path d="M181.524 89.3787C181.207 89.5804 180.89 89.7533 180.602 89.955C180.371 90.0991 180.573 90.4449 180.804 90.3008L181.726 89.7245C181.928 89.6092 181.726 89.2634 181.524 89.3787Z" fill="#D24A43"/>
<path d="M109.612 48.4876C109.641 48.9774 109.209 49.3521 108.748 49.3521C108.286 49.3521 107.883 48.9486 107.883 48.4876C107.883 48.0265 108.286 47.623 108.748 47.623C109.209 47.623 109.555 47.9112 109.612 48.4876Z" fill="white"/>
<path d="M122.897 48.4876C122.926 48.9774 122.494 49.3521 122.033 49.3521C121.571 49.3521 121.168 48.9486 121.168 48.4876C121.168 48.0265 121.571 47.623 122.033 47.623C122.494 47.623 122.84 47.9112 122.897 48.4876Z" fill="white"/>
<path d="M96.3233 61.2531C96.3522 61.743 95.9198 62.1176 95.4586 62.1176C95.3722 62.1176 95.2857 62.1176 95.1992 62.0888C95.4586 61.5701 95.7469 61.0514 96.0063 60.5615C96.208 60.7056 96.2945 60.9361 96.3233 61.2531Z" fill="white"/>
<path d="M109.612 61.2532C109.641 61.743 109.209 62.1177 108.748 62.1177C108.286 62.1177 107.883 61.7142 107.883 61.2532C107.883 60.7633 108.286 60.3887 108.748 60.3887C109.209 60.3887 109.555 60.6768 109.612 61.2532Z" fill="white"/>
<path d="M122.897 61.2532C122.926 61.743 122.494 62.1177 122.033 62.1177C121.571 62.1177 121.168 61.7142 121.168 61.2532C121.168 60.7633 121.571 60.3887 122.033 60.3887C122.494 60.3887 122.84 60.6768 122.897 61.2532Z" fill="white"/>
<path d="M96.3231 74.0188C96.352 74.5087 95.9196 74.8834 95.4584 74.8834C94.9973 74.8834 94.5938 74.4799 94.5938 74.0188C94.5938 73.5577 94.9973 73.1543 95.4584 73.1543C95.9196 73.1543 96.2943 73.4425 96.3231 74.0188Z" fill="white"/>
<path d="M109.612 74.0188C109.641 74.5087 109.209 74.8834 108.748 74.8834C108.286 74.8834 107.883 74.4799 107.883 74.0188C107.883 73.5577 108.286 73.1543 108.748 73.1543C109.209 73.1543 109.555 73.4425 109.612 74.0188Z" fill="white"/>
<path d="M122.897 74.0188C122.926 74.5087 122.494 74.8834 122.033 74.8834C121.571 74.8834 121.168 74.4799 121.168 74.0188C121.168 73.5577 121.571 73.1543 122.033 73.1543C122.494 73.1543 122.84 73.4425 122.897 74.0188Z" fill="white"/>
<path d="M96.3231 86.7844C96.352 87.2743 95.9196 87.6489 95.4584 87.6489C94.9973 87.6489 94.5938 87.2455 94.5938 86.7844C94.5938 86.2945 94.9973 85.9199 95.4584 85.9199C95.9196 85.9199 96.2943 86.2081 96.3231 86.7844Z" fill="white"/>
<path d="M122.897 86.7844C122.926 87.2743 122.494 87.6489 122.033 87.6489C121.571 87.6489 121.168 87.2455 121.168 86.7844C121.168 86.2945 121.571 85.9199 122.033 85.9199C122.494 85.9199 122.84 86.2081 122.897 86.7844Z" fill="white"/>
<path d="M136.186 86.7844C136.215 87.2743 135.783 87.6489 135.322 87.6489C134.832 87.6489 134.457 87.2455 134.457 86.7844C134.457 86.2945 134.861 85.9199 135.322 85.9199C135.783 85.9199 136.129 86.2081 136.186 86.7844Z" fill="white"/>
<path d="M169.996 94.0176V199.976C169.996 201.763 172.792 201.763 172.792 199.976V94.0176H169.996Z" fill="#EBF5F1"/>
<path d="M275.895 95.1992V199.948C275.895 201.734 278.69 201.734 278.69 199.948V95.1416C277.768 95.1992 276.817 95.2281 275.895 95.1992Z" fill="#EBF5F1"/>
<path d="M287.134 93.0957H161.149C159.362 93.0957 159.362 95.8909 161.149 95.8909H287.134C288.922 95.8909 288.922 93.0957 287.134 93.0957Z" fill="#EBF5F1"/>
<path d="M82.8079 132.488C80.4444 112.374 78.081 92.2598 75.7175 72.1169C75.5445 70.7049 74.651 69.5523 73.1234 69.5234C71.8552 69.5234 70.3564 70.7337 70.5293 72.1169C72.8928 92.2309 75.2563 112.345 77.6198 132.488C77.7927 133.9 78.6862 135.052 80.2139 135.081C81.5109 135.081 82.9809 133.871 82.8079 132.488Z" fill="#575552"/>
</svg>
