<svg width="20" height="21" viewBox="0 0 20 21" fill="none" xmlns="http://www.w3.org/2000/svg">
<path d="M3.39244 8.77466L2 11.4034H15.7164L17.1092 8.77466H3.39244Z" fill="url(#paint0_linear)"/>
<path d="M15.7166 11.4034H2L3.39256 8.77472H17.1093L15.7166 11.4034Z" fill="url(#paint1_linear)"/>
<g opacity="0.300003">
<g opacity="0.300003">
<path opacity="0.300003" d="M5.18359 11.4031H10.0034L13.94 8.77439H9.12055L5.18359 11.4031Z" fill="#07A279"/>
</g>
</g>
<path d="M15.7144 11.4049L17.107 8.77622L12.043 11.4049H15.7144Z" fill="url(#paint2_linear)"/>
<path d="M3.39256 8.77472L2 11.4034L7.06373 8.77472H3.39256Z" fill="url(#paint3_linear)"/>
<path d="M8.77698 2.10992C8.54685 2.10992 8.35938 2.29486 8.35938 2.52133V4.53265L11.9768 2.10992H8.77698Z" fill="url(#paint4_linear)"/>
<path d="M8.33203 4.52951V2.5183C8.33203 2.29183 8.5195 2.10689 8.74975 2.10689H11.9496L8.33203 4.52951Z" fill="url(#paint5_linear)"/>
<path d="M12.3939 4.7387C12.1644 4.7387 11.9766 4.92397 11.9766 5.15045V7.16132L15.5942 4.7387H12.3939Z" fill="url(#paint6_linear)"/>
<path d="M11.9727 7.1619V5.15103C11.9727 4.92444 12.1605 4.73939 12.39 4.73939H15.5903L11.9727 7.1619Z" fill="url(#paint7_linear)"/>
<path d="M11.9727 7.1619L15.5901 4.73939L11.9727 6.61727V7.1619Z" fill="url(#paint8_linear)"/>
<path d="M8.33203 4.5321L11.9496 2.10949L8.33203 3.98748V4.5321Z" fill="url(#paint9_linear)"/>
<path d="M7.13281 18.0674H10.3324C10.5621 18.0674 10.7504 17.8816 10.7504 17.6557L10.7502 15.6448L7.13281 18.0674Z" fill="url(#paint10_linear)"/>
<path d="M10.7462 15.645L10.7465 17.6558C10.7465 17.8817 10.5581 18.0674 10.3284 18.0674H7.12891L10.7462 15.645Z" fill="url(#paint11_linear)"/>
<path d="M3.51953 15.4371H6.71927C6.9494 15.4371 7.13722 15.2522 7.13722 15.0257L7.13699 13.0146L3.51953 15.4371Z" fill="url(#paint12_linear)"/>
<path d="M7.10183 13.0136L7.10206 15.0247C7.10206 15.2512 6.91425 15.4361 6.68411 15.4361H3.48438L7.10183 13.0136Z" fill="url(#paint13_linear)"/>
<path d="M7.10183 13.0136L3.48438 15.4361L7.10183 13.5582V13.0136Z" fill="url(#paint14_linear)"/>
<path d="M2.23037 8.62063C2.10351 8.70574 2 8.89826 2 9.04879V11.4034L11.7492 4.89361C11.8759 4.80873 11.9799 4.61632 11.9799 4.46556V2.11085L2.23037 8.62063Z" fill="url(#paint15_linear)"/>
<path d="M7.36318 15.2846C7.23655 15.3691 7.13281 15.5617 7.13281 15.7126L7.13304 18.0674L16.8821 11.5575C17.0093 11.4727 17.1129 11.2798 17.1129 11.1294V8.77494L7.36318 15.2846Z" fill="url(#paint16_linear)"/>
<path d="M3.75013 12.6545C3.62316 12.7391 3.51953 12.9319 3.51953 13.0824V15.4371L15.3746 7.52096C15.5014 7.43675 15.6055 7.24378 15.6055 7.09336V4.73854L3.75013 12.6545Z" fill="url(#paint17_linear)"/>
<g opacity="0.300003">
<g opacity="0.300003">
<g opacity="0.300003">
<g opacity="0.300003">
<g opacity="0.300003">
<path opacity="0.300003" d="M9.12055 11.6268L13.9087 8.42947H9.97221L5.18359 11.6268H9.12055Z" fill="url(#paint18_linear)"/>
</g>
</g>
</g>
</g>
</g>
<g opacity="0.149994">
<g opacity="0.149994">
<g opacity="0.149994">
<g opacity="0.149994">
<g opacity="0.149994">
<path opacity="0.149994" d="M17.0972 11.0702V8.71572L12.7344 11.6286H16.6709L16.8664 11.4982C16.9936 11.4135 17.0972 11.2206 17.0972 11.0702Z" fill="url(#paint19_linear)"/>
</g>
</g>
</g>
</g>
</g>
<g opacity="0.199997">
<g opacity="0.199997">
<g opacity="0.199997">
<g opacity="0.199997">
<g opacity="0.199997">
<path opacity="0.199997" d="M15.6285 7.03412V4.67952L11.2656 7.59277H15.2026L15.3976 7.46182C15.5244 7.37751 15.6285 7.18465 15.6285 7.03412Z" fill="url(#paint20_linear)"/>
</g>
</g>
</g>
</g>
</g>
<g opacity="0.300003">
<g opacity="0.300003">
<g opacity="0.300003">
<g opacity="0.300003">
<g opacity="0.300003">
<path opacity="0.300003" d="M11.9722 4.40451V2.04969L7.60938 4.96283H11.546L11.7416 4.83245C11.8685 4.74756 11.9722 4.55516 11.9722 4.40451Z" fill="url(#paint21_linear)"/>
</g>
</g>
</g>
</g>
</g>
<g opacity="0.149994">
<g opacity="0.149994">
<g opacity="0.149994">
<g opacity="0.149994">
<g opacity="0.149994">
<path opacity="0.149994" d="M2 8.98732V11.3419L6.36238 8.42878H2.42589L2.23048 8.55928C2.10374 8.64427 2 8.83679 2 8.98732Z" fill="url(#paint22_linear)"/>
</g>
</g>
</g>
</g>
</g>
<g opacity="0.199997">
<g opacity="0.199997">
<g opacity="0.199997">
<g opacity="0.199997">
<g opacity="0.199997">
<path opacity="0.199997" d="M3.49219 13.0241V15.3788L7.85492 12.4658H3.91854L3.7229 12.5961C3.59581 12.6808 3.49219 12.8735 3.49219 13.0241Z" fill="url(#paint23_linear)"/>
</g>
</g>
</g>
</g>
</g>
<g opacity="0.149994">
<g opacity="0.149994">
<g opacity="0.149994">
<g opacity="0.149994">
<g opacity="0.149994">
<path opacity="0.149994" d="M7.12891 15.6513V18.0059L11.4915 15.0927H7.55456L7.35905 15.2233C7.2323 15.3079 7.12891 15.5003 7.12891 15.6513Z" fill="url(#paint24_linear)"/>
</g>
</g>
</g>
</g>
</g>
<path d="M2.23048 8.55928C2.10351 8.64427 2 8.83679 2 8.98732V11.3419L11.9583 2.06433L2.23048 8.55928Z" fill="url(#paint25_linear)"/>
<path d="M7.37099 15.2205C7.24436 15.3052 7.14062 15.4976 7.14062 15.6486L7.14085 18.0032L17.0991 8.72547L7.37099 15.2205Z" fill="url(#paint26_linear)"/>
<path d="M3.7229 12.5961C3.59581 12.6808 3.49219 12.8735 3.49219 13.0241V15.3788L13.4505 6.10108L3.7229 12.5961Z" fill="url(#paint27_linear)"/>
<path d="M10.7462 15.5808L7.12891 18.0032L10.7462 16.1254V15.5808Z" fill="url(#paint28_linear)"/>
<defs>
<linearGradient id="paint0_linear" x1="1.99992" y1="10.089" x2="14.9494" y2="10.089" gradientUnits="userSpaceOnUse">
<stop stop-color="#C4AE2B"/>
<stop offset="0.0452979" stop-color="#C4AE2B"/>
<stop offset="0.175497" stop-color="#C4AE2B"/>
<stop offset="0.540301" stop-color="#259747"/>
<stop offset="1" stop-color="#1B4274"/>
</linearGradient>
<linearGradient id="paint1_linear" x1="-0.33501" y1="10.0891" x2="16.2422" y2="10.0891" gradientUnits="userSpaceOnUse">
<stop stop-color="#9D3D2A"/>
<stop offset="0.198929" stop-color="#259747"/>
<stop offset="0.5" stop-color="#259747"/>
<stop offset="0.742494" stop-color="#259747"/>
<stop offset="1" stop-color="#1B4274"/>
</linearGradient>
<linearGradient id="paint2_linear" x1="2.09141" y1="10.0905" x2="15.3842" y2="10.0905" gradientUnits="userSpaceOnUse">
<stop stop-color="#C03038"/>
<stop offset="0.198929" stop-color="#50B548"/>
<stop offset="0.5" stop-color="#50B548"/>
<stop offset="0.742494" stop-color="#50B548"/>
<stop offset="1" stop-color="#108689"/>
</linearGradient>
<linearGradient id="paint3_linear" x1="2.55808" y1="10.0892" x2="23.6245" y2="10.0892" gradientUnits="userSpaceOnUse">
<stop stop-color="#C03038"/>
<stop offset="0.198929" stop-color="#50B548"/>
<stop offset="0.5" stop-color="#50B548"/>
<stop offset="0.742494" stop-color="#50B548"/>
<stop offset="1" stop-color="#108689"/>
</linearGradient>
<linearGradient id="paint4_linear" x1="0.872952" y1="3.3213" x2="9.9956" y2="3.3213" gradientUnits="userSpaceOnUse">
<stop stop-color="#A5CD3D"/>
<stop offset="1" stop-color="#BA3E26"/>
</linearGradient>
<linearGradient id="paint5_linear" x1="10.3804" y1="3.31822" x2="-3.49489" y2="3.31822" gradientUnits="userSpaceOnUse">
<stop stop-color="#9D3D2A"/>
<stop offset="0.263896" stop-color="#259747"/>
<stop offset="0.663293" stop-color="#259747"/>
<stop offset="0.826592" stop-color="#259747"/>
<stop offset="1" stop-color="#1B4274"/>
</linearGradient>
<linearGradient id="paint6_linear" x1="2.91506" y1="5.95003" x2="14.0906" y2="5.95003" gradientUnits="userSpaceOnUse">
<stop stop-color="#83C341"/>
<stop offset="1" stop-color="#259747"/>
</linearGradient>
<linearGradient id="paint7_linear" x1="-2.37713" y1="5.95061" x2="15.4456" y2="5.95061" gradientUnits="userSpaceOnUse">
<stop stop-color="#9D3D2A"/>
<stop offset="0.198929" stop-color="#259747"/>
<stop offset="0.5" stop-color="#259747"/>
<stop offset="0.742494" stop-color="#259747"/>
<stop offset="1" stop-color="#1B4274"/>
</linearGradient>
<linearGradient id="paint8_linear" x1="0.833753" y1="5.9505" x2="16.4731" y2="5.9505" gradientUnits="userSpaceOnUse">
<stop stop-color="#C03038"/>
<stop offset="0.198929" stop-color="#50B548"/>
<stop offset="0.5" stop-color="#50B548"/>
<stop offset="0.742494" stop-color="#50B548"/>
<stop offset="1" stop-color="#108689"/>
</linearGradient>
<linearGradient id="paint9_linear" x1="12.3377" y1="3.32081" x2="-2.18802" y2="3.32081" gradientUnits="userSpaceOnUse">
<stop stop-color="#C03038"/>
<stop offset="0.198929" stop-color="#50B548"/>
<stop offset="0.5" stop-color="#50B548"/>
<stop offset="0.742494" stop-color="#50B548"/>
<stop offset="1" stop-color="#108689"/>
</linearGradient>
<linearGradient id="paint10_linear" x1="5.00376" y1="16.8561" x2="16.7203" y2="16.8561" gradientUnits="userSpaceOnUse">
<stop stop-color="#3D63AD"/>
<stop offset="1" stop-color="#1B4274"/>
</linearGradient>
<linearGradient id="paint11_linear" x1="20.4588" y1="16.8562" x2="7.61424" y2="16.8562" gradientUnits="userSpaceOnUse">
<stop stop-color="#9D3D2A"/>
<stop offset="0.198929" stop-color="#259747"/>
<stop offset="0.5" stop-color="#259747"/>
<stop offset="0.742494" stop-color="#259747"/>
<stop offset="1" stop-color="#1B4274"/>
</linearGradient>
<linearGradient id="paint12_linear" x1="3.51952" y1="14.2258" x2="18.0014" y2="14.2258" gradientUnits="userSpaceOnUse">
<stop stop-color="#83C341"/>
<stop offset="1" stop-color="#259747"/>
</linearGradient>
<linearGradient id="paint13_linear" x1="18.1379" y1="14.2248" x2="2.7532" y2="14.2249" gradientUnits="userSpaceOnUse">
<stop stop-color="#9D3D2A"/>
<stop offset="0.198929" stop-color="#259747"/>
<stop offset="0.5" stop-color="#259747"/>
<stop offset="0.742494" stop-color="#259747"/>
<stop offset="1" stop-color="#1B4274"/>
</linearGradient>
<linearGradient id="paint14_linear" x1="18.2408" y1="14.2248" x2="2.60144" y2="14.2248" gradientUnits="userSpaceOnUse">
<stop stop-color="#C03038"/>
<stop offset="0.198929" stop-color="#50B548"/>
<stop offset="0.5" stop-color="#50B548"/>
<stop offset="0.742494" stop-color="#50B548"/>
<stop offset="1" stop-color="#108689"/>
</linearGradient>
<linearGradient id="paint15_linear" x1="0.673528" y1="10.9501" x2="12.3219" y2="2.96543" gradientUnits="userSpaceOnUse">
<stop stop-color="#FCE930"/>
<stop offset="1" stop-color="#ED2A2A"/>
</linearGradient>
<linearGradient id="paint16_linear" x1="5.4205" y1="17.8703" x2="17.0687" y2="9.88581" gradientUnits="userSpaceOnUse">
<stop stop-color="#33C4F3"/>
<stop offset="1" stop-color="#108689"/>
</linearGradient>
<linearGradient id="paint17_linear" x1="3.05301" y1="14.4091" x2="14.7013" y2="6.42448" gradientUnits="userSpaceOnUse">
<stop stop-color="#E3E331"/>
<stop offset="1" stop-color="#50B548"/>
</linearGradient>
<linearGradient id="paint18_linear" x1="-0.146159" y1="10.0282" x2="13.0366" y2="10.0282" gradientUnits="userSpaceOnUse">
<stop stop-color="#E3E331"/>
<stop offset="1" stop-color="#50B548"/>
</linearGradient>
<linearGradient id="paint19_linear" x1="10.0694" y1="10.1722" x2="16.6611" y2="10.1722" gradientUnits="userSpaceOnUse">
<stop stop-color="#33C4F3"/>
<stop offset="1" stop-color="#108689"/>
</linearGradient>
<linearGradient id="paint20_linear" x1="8.60051" y1="6.13611" x2="15.1924" y2="6.13611" gradientUnits="userSpaceOnUse">
<stop stop-color="#E3E331"/>
<stop offset="1" stop-color="#50B548"/>
</linearGradient>
<linearGradient id="paint21_linear" x1="4.94434" y1="3.50627" x2="11.5361" y2="3.50627" gradientUnits="userSpaceOnUse">
<stop stop-color="#FCE930"/>
<stop offset="1" stop-color="#ED2A2A"/>
</linearGradient>
<linearGradient id="paint22_linear" x1="9.02714" y1="9.88534" x2="2.43606" y2="9.88534" gradientUnits="userSpaceOnUse">
<stop stop-color="#FCE930"/>
<stop offset="1" stop-color="#ED2A2A"/>
</linearGradient>
<linearGradient id="paint23_linear" x1="10.5199" y1="13.9222" x2="3.92828" y2="13.9222" gradientUnits="userSpaceOnUse">
<stop stop-color="#E3E331"/>
<stop offset="1" stop-color="#50B548"/>
</linearGradient>
<linearGradient id="paint24_linear" x1="14.1564" y1="16.5493" x2="7.56491" y2="16.5493" gradientUnits="userSpaceOnUse">
<stop stop-color="#33C4F3"/>
<stop offset="1" stop-color="#108689"/>
</linearGradient>
<linearGradient id="paint25_linear" x1="0.949716" y1="11.3301" x2="9.37554" y2="4.29811" gradientUnits="userSpaceOnUse">
<stop stop-color="#FFDF2C"/>
<stop offset="1" stop-color="#F3762D"/>
</linearGradient>
<linearGradient id="paint26_linear" x1="4.79968" y1="18.0337" x2="14.5337" y2="10.9328" gradientUnits="userSpaceOnUse">
<stop stop-color="#75EBFB"/>
<stop offset="1" stop-color="#1995A3"/>
</linearGradient>
<linearGradient id="paint27_linear" x1="1.83591" y1="14.8974" x2="11.8852" y2="7.55203" gradientUnits="userSpaceOnUse">
<stop stop-color="#F7FE05"/>
<stop offset="1" stop-color="#65BC46"/>
</linearGradient>
<linearGradient id="paint28_linear" x1="22.4004" y1="16.7921" x2="6.76102" y2="16.7921" gradientUnits="userSpaceOnUse">
<stop stop-color="#C03038"/>
<stop offset="0.198929" stop-color="#50B548"/>
<stop offset="0.5" stop-color="#50B548"/>
<stop offset="0.742494" stop-color="#50B548"/>
<stop offset="1" stop-color="#108689"/>
</linearGradient>
</defs>
</svg>
