<svg width="68" height="37" viewBox="0 0 68 37" fill="none" xmlns="http://www.w3.org/2000/svg">
<g opacity="0.5">
<path d="M31.1817 10.4917V13.9031H30.7735V10.4917H29.666V10.1323H32.2886V10.4923L31.1817 10.4917Z" fill="#322E28"/>
<path d="M33.2442 13.9031V10.1323H35.6193V10.4923H33.653V11.8215H35.3265V12.1821H33.653V13.5437H35.6193V13.9031H33.2442Z" fill="#322E28"/>
<path d="M38.8605 13.9031V10.4917H37.0496V13.9031H36.6414V10.1323H39.2711V13.9031H38.8605Z" fill="#322E28"/>
<path d="M42.7943 13.9031V10.4917H41.4938V11.782C41.4938 13.3728 41.1071 13.9031 40.3762 13.9031H40.1849V13.5431H40.2871C40.7599 13.5431 41.0981 13.2308 41.0981 11.6624V10.1323H43.2043V13.9031H42.7943Z" fill="#322E28"/>
<path d="M46.7855 13.9031V10.8252L44.8401 13.9031H44.4534V10.1323H44.8616V13.2043L46.807 10.1323H47.1937V13.9031H46.7855Z" fill="#322E28"/>
<path d="M51.1257 14.8145V13.9031H48.4446V10.1323H48.851V13.5437H50.6619V10.1323H51.0701V13.5437H51.5274V14.8151L51.1257 14.8145Z" fill="#322E28"/>
<path d="M54.9956 13.9031L54.6896 13.0505H53.0161L52.7119 13.9031H52.2768L53.6849 10.1323H54.0286L55.4307 13.9031H54.9956ZM53.86 10.7091L53.1428 12.7005H54.5725L53.86 10.7091Z" fill="#322E28"/>
<path d="M31.2468 20.6285C31.0656 20.6306 30.8858 20.597 30.7179 20.5298C30.55 20.4625 30.3974 20.3629 30.2691 20.2367C29.9105 19.8832 29.9105 19.5108 29.9105 18.7113C29.9105 17.9118 29.9105 17.54 30.2691 17.1854C30.3975 17.0593 30.5501 16.9598 30.718 16.8925C30.8858 16.8252 31.0656 16.7916 31.2468 16.7936C31.9347 16.7936 32.4422 17.206 32.5742 17.9165H32.1559C32.0537 17.4552 31.7256 17.1506 31.2474 17.1506C31.1249 17.1492 31.0033 17.172 30.8898 17.2175C30.7763 17.2631 30.6732 17.3304 30.5864 17.4157C30.3474 17.6591 30.3181 17.9189 30.3181 18.7084C30.3181 19.4979 30.345 19.7565 30.5864 20.0004C30.6732 20.0857 30.7763 20.1531 30.8898 20.1986C31.0033 20.2442 31.1249 20.2669 31.2474 20.2656C31.7256 20.2656 32.0644 19.9633 32.1666 19.5026H32.5748C32.4505 20.2155 31.9294 20.6285 31.2468 20.6285Z" fill="#322E28"/>
<path d="M36.2224 18.7113C36.2224 19.4631 36.211 19.8897 35.8638 20.2367C35.602 20.4879 35.2511 20.6285 34.8857 20.6285C34.5204 20.6285 34.1694 20.4879 33.9076 20.2367C33.5586 19.8926 33.549 19.4631 33.549 18.7113V18.4167C33.549 17.9666 33.5813 17.5053 33.9076 17.1824C34.1694 16.9312 34.5204 16.7906 34.8857 16.7906C35.2511 16.7906 35.602 16.9312 35.8638 17.1824C36.1967 17.5106 36.2224 17.9878 36.2224 18.4486V18.7113ZM35.8136 18.5098C35.8136 18.065 35.7974 17.6726 35.5452 17.424C35.4585 17.3383 35.3555 17.2702 35.2421 17.2238C35.1286 17.1774 35.007 17.1535 34.8842 17.1535C34.7614 17.1535 34.6398 17.1774 34.5264 17.2238C34.413 17.2702 34.3099 17.3383 34.2232 17.424C33.9542 17.6885 33.9542 18.0809 33.9542 18.6023V18.9776C33.9542 19.3859 33.9758 19.7571 34.2232 20.0004C34.3099 20.0862 34.413 20.1542 34.5264 20.2006C34.6398 20.247 34.7614 20.2709 34.8842 20.2709C35.007 20.2709 35.1286 20.247 35.2421 20.2006C35.3555 20.1542 35.4585 20.0862 35.5452 20.0004C35.8082 19.7412 35.8136 19.3329 35.8136 18.8987V18.5098Z" fill="#322E28"/>
<path d="M40.0367 21.5081V20.5967H37.355V16.826H37.7632V20.2367H39.5741V16.8248H39.9829V20.2367H40.4395V21.5081H40.0367Z" fill="#322E28"/>
<path d="M43.7595 20.5967V17.5188L41.8141 20.5967H41.4274V16.826H41.8356V19.8985L43.7804 16.826H44.1677V20.5967H43.7595Z" fill="#322E28"/>
<path d="M47.7979 20.5967L47.4913 19.7442H45.8179L45.5119 20.5967H45.0762L46.4843 16.826H46.8279L48.2306 20.5967H47.7979ZM46.6624 17.4028L45.9452 19.3942H47.3748L46.6624 17.4028Z" fill="#322E28"/>
<path d="M51.5154 20.5967V17.1854H50.2149V18.478C50.2149 20.0688 49.8282 20.599 49.0973 20.599H48.9036V20.2367H49.0058C49.4786 20.2367 49.8174 19.9244 49.8174 18.3561V16.8242H51.9236V20.5949L51.5154 20.5967Z" fill="#322E28"/>
<path d="M54.6089 20.5967H53.1745V16.826H53.5827V18.3784H54.6089C55.3261 18.3784 55.7911 18.8239 55.7911 19.4908C55.7911 20.1578 55.3183 20.5967 54.6089 20.5967ZM54.5719 18.7372H53.5827V20.2367H54.5719C55.0823 20.2367 55.3781 19.961 55.3781 19.4896C55.3781 19.0183 55.0823 18.7372 54.5719 18.7372Z" fill="#322E28"/>
<path d="M58.9999 20.5967V18.8751H57.1836V20.5967H56.7748V16.826H57.1836V18.5163H58.9999V16.8248H59.4081V20.5955L58.9999 20.5967Z" fill="#322E28"/>
<path d="M62.0941 20.5967H60.6596V16.826H61.0679V18.3784H62.0947C62.8118 18.3784 63.2762 18.8239 63.2762 19.4908C63.2762 20.1578 62.8029 20.5967 62.0941 20.5967ZM61.0673 18.7372V20.2367H62.0594C62.5698 20.2367 62.865 19.961 62.865 19.4896C62.865 19.0183 62.5668 18.7372 62.0594 18.7372H61.0673ZM63.7896 20.5967V16.826H64.1978V20.5967H63.7896Z" fill="#322E28"/>
<path d="M67.4437 20.5967L66.5138 19.013L65.579 20.5967H65.1164L66.2885 18.6636L65.1917 16.8248H65.6651L66.5138 18.3136L67.3631 16.8248H67.8358L66.7343 18.6636L67.9165 20.5967H67.4437Z" fill="#322E28"/>
<path d="M31.1817 23.6899V27.1006H30.7735V23.6899H29.666V23.3299H32.2886V23.6899H31.1817Z" fill="#322E28"/>
<path d="M33.2442 27.1006V23.3299H35.6193V23.6899H33.653V25.0202H35.3265V25.3802H33.653V26.7418H35.6193V27.1006H33.2442Z" fill="#322E28"/>
<path d="M38.7362 27.1006L37.8062 25.5175L36.8714 27.1006H36.4089L37.5809 25.1669L36.4842 23.3299H36.9575L37.8062 24.8187L38.6555 23.3299H39.1282L38.0267 25.1681L39.2089 27.1006H38.7362Z" fill="#322E28"/>
<path d="M42.3496 27.1006V25.3802H40.5333V27.1006H40.1251V23.3299H40.5333V25.0202H42.3496V23.3299H42.7578V27.1006H42.3496Z" fill="#322E28"/>
<path d="M46.5739 25.2152C46.5739 25.9676 46.5626 26.3936 46.2153 26.7412C45.9535 26.9925 45.6026 27.133 45.2372 27.133C44.8719 27.133 44.521 26.9925 44.2592 26.7412C43.9095 26.3965 43.9006 25.9676 43.9006 25.2152V24.9242C43.9006 24.4735 43.9328 24.0127 44.2592 23.6869C44.521 23.4357 44.8719 23.2951 45.2372 23.2951C45.6026 23.2951 45.9535 23.4357 46.2153 23.6869C46.5482 24.0151 46.5739 24.4923 46.5739 24.9536V25.2152ZM46.1651 25.0137C46.1651 24.5689 46.1496 24.1765 45.8968 23.9279C45.8101 23.8422 45.707 23.7742 45.5936 23.7278C45.4802 23.6813 45.3586 23.6575 45.2358 23.6575C45.1129 23.6575 44.9913 23.6813 44.8779 23.7278C44.7645 23.7742 44.6615 23.8422 44.5747 23.9279C44.3058 24.1924 44.3058 24.5848 44.3058 25.1062V25.4827C44.3058 25.8904 44.3273 26.261 44.5747 26.505C44.6615 26.5907 44.7645 26.6587 44.8779 26.7051C44.9913 26.7515 45.1129 26.7754 45.2358 26.7754C45.3586 26.7754 45.4802 26.7515 45.5936 26.7051C45.707 26.6587 45.8101 26.5907 45.8968 26.505C46.1603 26.2451 46.1651 25.8368 46.1651 25.4032V25.0137Z" fill="#322E28"/>
<path d="M49.8671 27.1006V23.6899H48.5665V24.9825C48.5665 26.5733 48.1798 27.1036 47.4489 27.1036H47.2559V26.7436H47.3575C47.8302 26.7436 48.1691 26.4307 48.1691 24.8629V23.3299H50.2753V27.1006H49.8671Z" fill="#322E28"/>
<path d="M54.0931 25.2152C54.0931 25.9676 54.0824 26.3936 53.7345 26.7412C53.4727 26.9925 53.1218 27.133 52.7565 27.133C52.3911 27.133 52.0402 26.9925 51.7784 26.7412C51.4287 26.3965 51.4198 25.9676 51.4198 25.2152V24.9242C51.4198 24.4735 51.4515 24.0127 51.7784 23.6869C52.0402 23.4357 52.3911 23.2951 52.7565 23.2951C53.1218 23.2951 53.4727 23.4357 53.7345 23.6869C54.0674 24.0151 54.0931 24.4923 54.0931 24.9536V25.2152ZM53.6849 25.0137C53.6849 24.5689 53.6688 24.1765 53.416 23.9279C53.3293 23.8422 53.2262 23.7742 53.1128 23.7278C52.9994 23.6813 52.8778 23.6575 52.755 23.6575C52.6321 23.6575 52.5105 23.6813 52.3971 23.7278C52.2837 23.7742 52.1807 23.8422 52.0939 23.9279C51.8256 24.1924 51.8256 24.5848 51.8256 25.1062V25.4827C51.8256 25.8904 51.8471 26.261 52.0939 26.505C52.1807 26.5907 52.2837 26.6587 52.3971 26.7051C52.5105 26.7515 52.6321 26.7754 52.755 26.7754C52.8778 26.7754 52.9994 26.7515 53.1128 26.7051C53.2262 26.6587 53.3293 26.5907 53.416 26.505C53.6795 26.2451 53.6849 25.8368 53.6849 25.4032V25.0137Z" fill="#322E28"/>
<path d="M55.659 23.6899V27.1006H55.2508V23.3299H57.5506V23.6899H55.659Z" fill="#322E28"/>
<path d="M60.8419 27.1006V24.0239L58.8965 27.1006H58.5093V23.3299H58.9175V26.4024L60.8641 23.3299H61.2513V27.1006H60.8419Z" fill="#322E28"/>
<path d="M64.8326 27.1006V24.0239L62.8878 27.1006H62.5005V23.3299H62.9087V26.4024L64.8541 23.3299H65.2407V27.1006H64.8326ZM63.8709 23.0942C63.4245 23.0942 63.1184 22.8986 63.0862 22.4267H63.4298C63.4514 22.6865 63.6091 22.8185 63.8709 22.8185C64.1327 22.8185 64.2893 22.6865 64.3114 22.4267H64.6556C64.6234 22.8957 64.3168 23.0942 63.8709 23.0942Z" fill="#322E28"/>
<path d="M2.91896 6.8543C2.91882 7.02846 2.8722 7.19951 2.7838 7.3502L5.46448 8.87832C5.5525 8.72741 5.67922 8.60207 5.83189 8.51492C5.98456 8.42776 6.15779 8.38188 6.33413 8.38188C6.51047 8.38188 6.68369 8.42776 6.83636 8.51492C6.98903 8.60207 7.11576 8.72741 7.20378 8.87832L9.88446 7.34903C9.79574 7.19845 9.749 7.02735 9.749 6.85313C9.749 6.67891 9.79574 6.5078 9.88446 6.35722L9.17309 5.95031C9.05357 6.1515 8.9754 6.374 8.94305 6.60507C8.9107 6.83614 8.92481 7.07125 8.98458 7.29692L7.61222 8.08382C7.27137 7.7539 6.81315 7.56912 6.33591 7.56912C5.85866 7.56912 5.40044 7.7539 5.05959 8.08382L3.68605 7.2981C3.76441 7.0057 3.76441 6.69821 3.68605 6.40581L5.05662 5.62478C5.25566 5.81763 5.49678 5.96288 5.76149 6.04939C6.0262 6.1359 6.30745 6.16137 6.58367 6.12383C6.8599 6.0863 7.12374 5.98676 7.35495 5.83286C7.58617 5.67896 7.77862 5.47479 7.91752 5.23601L7.20615 4.8291C7.11813 4.98001 6.9914 5.10535 6.83873 5.19251C6.68606 5.27966 6.51284 5.32555 6.3365 5.32555C6.16016 5.32555 5.98694 5.27966 5.83427 5.19251C5.6816 5.10535 5.55487 4.98001 5.46685 4.8291L2.7832 6.35781C2.87223 6.50848 2.91909 6.67984 2.91896 6.8543Z" fill="#322E28"/>
<path d="M9.16909 2.71355L9.88046 2.30664C9.96848 2.45782 10.0953 2.5834 10.2481 2.67072C10.401 2.75804 10.5744 2.80402 10.751 2.80402C10.9276 2.80402 11.101 2.75804 11.2539 2.67072C11.4067 2.5834 11.5335 2.45782 11.6215 2.30664L12.3329 2.71355C12.0937 3.12154 11.7032 3.4216 11.2439 3.55021V5.11346C11.7027 5.24193 12.093 5.54152 12.3323 5.94895L11.6209 6.35586C11.5329 6.20495 11.4062 6.07961 11.2535 5.99246C11.1009 5.9053 10.9276 5.85942 10.7513 5.85942C10.575 5.85942 10.4017 5.9053 10.2491 5.99246C10.0964 6.07961 9.96966 6.20495 9.88164 6.35586L9.17027 5.94895C9.40931 5.54142 9.79938 5.24162 10.2581 5.11287V3.54963C9.79908 3.42087 9.40864 3.12111 9.16909 2.71355ZM13.5903 3.42785C13.4283 3.70195 13.343 4.01361 13.343 4.33096C13.343 4.64831 13.4283 4.95996 13.5903 5.23407L14.3016 4.82716C14.2129 4.67647 14.1662 4.50527 14.1662 4.33096C14.1662 4.15665 14.2129 3.98545 14.3016 3.83476L13.5903 3.42785ZM7.33731 4.33184C7.33743 4.50603 7.29079 4.67715 7.20215 4.82774L7.91352 5.23407C8.07533 4.96003 8.16058 4.64848 8.16058 4.33125C8.16058 4.01402 8.07533 3.70247 7.91352 3.42843L7.20215 3.83827C7.29039 3.98818 7.33701 4.15843 7.33731 4.33184Z" fill="#322E28"/>
<path d="M13.3419 9.3711C13.3422 9.05452 13.4273 8.74366 13.5885 8.47003L14.2998 8.87695C14.2114 9.0276 14.1648 9.19868 14.1648 9.37285C14.1648 9.54702 14.2114 9.7181 14.2998 9.86876L13.5885 10.2757C13.4264 10.0011 13.3413 9.68889 13.3419 9.3711ZM10.7525 7.84473C10.5761 7.84479 10.4029 7.79892 10.2502 7.71175C10.0975 7.62459 9.9708 7.4992 9.88283 7.34824L7.20215 8.87753C7.29081 9.02824 7.33751 9.19943 7.33751 9.37373C7.33751 9.54803 7.29081 9.71922 7.20215 9.86993L7.91352 10.2768C8.15459 9.87039 8.2224 9.38603 8.10203 8.93022L9.47379 8.14802C9.6927 8.35835 9.96123 8.51148 10.2551 8.59357V11.6141L10.7513 11.8969L11.2469 11.6141V8.59064C11.7058 8.46203 12.0961 8.16222 12.3353 7.75457L11.6239 7.34766C11.5358 7.49894 11.4088 7.62458 11.2558 7.71186C11.1028 7.79914 10.9292 7.84498 10.7525 7.84473Z" fill="#322E28"/>
<path d="M0.327183 10.9924L1.03855 11.3993C1.12645 11.248 1.25323 11.1223 1.40609 11.0348C1.55894 10.9474 1.73245 10.9013 1.90909 10.9013C2.08573 10.9013 2.25924 10.9474 2.4121 11.0348C2.56495 11.1223 2.69173 11.248 2.77963 11.3993L3.491 10.9924C3.25192 10.5842 2.86135 10.2839 2.40201 10.1552V8.5925C2.6971 8.51067 2.9666 8.35685 3.18571 8.14518L4.55628 8.92739C4.49634 9.15354 4.48214 9.38913 4.51448 9.6207C4.54683 9.85227 4.62509 10.0753 4.74479 10.2769L5.45616 9.8671C5.3675 9.7165 5.32079 9.5454 5.32079 9.37119C5.32079 9.19699 5.3675 9.02588 5.45616 8.87529L2.77548 7.34717C2.6875 7.49822 2.56076 7.62369 2.40803 7.71094C2.2553 7.79818 2.08197 7.84412 1.90554 7.84412C1.7291 7.84412 1.55578 7.79818 1.40305 7.71094C1.25031 7.62369 1.12357 7.49822 1.03559 7.34717L0.324219 7.75408C0.563767 8.16333 0.955528 8.46413 1.41617 8.5925V10.1557C0.956932 10.2844 0.566382 10.5844 0.327183 10.9924Z" fill="#322E28"/>
<path d="M3.74237 11.8947C3.74227 12.2124 3.65676 12.5244 3.49457 12.7987L2.7832 12.3918C2.87192 12.2411 2.91865 12.0699 2.91865 11.8956C2.91865 11.7213 2.87192 11.5501 2.7832 11.3994L3.49457 10.9925C3.65664 11.2662 3.74215 11.5776 3.74237 11.8947ZM6.33176 13.4223C6.50826 13.4222 6.68165 13.4682 6.83443 13.5554C6.98722 13.6427 7.11401 13.7682 7.202 13.9193L10.7523 11.8947L10.2561 11.6119L7.61044 13.1225C7.41119 12.9298 7.16992 12.7848 6.90512 12.6986C6.64033 12.6123 6.35904 12.5871 6.08285 12.6248C5.80665 12.6626 5.54288 12.7623 5.31176 12.9164C5.08065 13.0705 4.88833 13.2747 4.74955 13.5136L5.46092 13.9205C5.54881 13.7691 5.67562 13.6433 5.82853 13.5558C5.98145 13.4683 6.15504 13.4222 6.33176 13.4223ZM6.33176 11.1822C6.65288 11.1817 6.96823 11.0979 7.24615 10.939C7.52408 10.7801 7.75479 10.5518 7.91515 10.277L7.20378 9.87012C7.11576 10.021 6.98903 10.1464 6.83636 10.2335C6.68369 10.3207 6.51046 10.3666 6.33413 10.3666C6.15779 10.3666 5.98456 10.3207 5.83189 10.2335C5.67922 10.1464 5.5525 10.021 5.46448 9.87012L4.75311 10.28C4.91338 10.5535 5.14351 10.7808 5.42051 10.9392C5.69752 11.0975 6.01172 11.1813 6.33176 11.1822Z" fill="#322E28"/>
<path d="M0.906861 11.8933C0.906798 11.7196 0.953221 11.5489 1.04143 11.3986L0.330058 10.9917C0.168259 11.2658 0.0830078 11.5775 0.0830078 11.8948C0.0830078 12.2121 0.168259 12.5238 0.330058 12.7979L1.04143 12.3881C0.95309 12.2378 0.906657 12.0671 0.906861 11.8933Z" fill="#322E28"/>
<path d="M5.4638 14.9113L2.78371 16.44C2.69589 16.2884 2.56908 16.1624 2.4161 16.0748C2.26313 15.9872 2.08942 15.941 1.91258 15.941C1.73574 15.941 1.56204 15.9872 1.40906 16.0748C1.25608 16.1624 1.12927 16.2884 1.04145 16.44L0.330078 16.0331C0.468651 15.794 0.660879 15.5894 0.891995 15.4351C1.12311 15.2808 1.38697 15.1809 1.66329 15.143C1.93961 15.1051 2.22105 15.1303 2.48598 15.2166C2.75091 15.3029 2.99229 15.448 3.19157 15.6409L4.56332 14.8592C4.44344 14.4035 4.511 13.9194 4.75125 13.5126L5.46262 13.9195C5.37396 14.0702 5.32726 14.2414 5.32726 14.4157C5.32726 14.59 5.37396 14.7612 5.46262 14.9119L5.4638 14.9113ZM1.91288 13.7029C2.23375 13.7026 2.54891 13.619 2.82672 13.4605C3.10454 13.3019 3.33524 13.0739 3.49568 12.7995L2.78431 12.3896C2.69633 12.5404 2.56968 12.6657 2.41712 12.7527C2.26455 12.8398 2.09146 12.8857 1.91525 12.8857C1.73904 12.8857 1.56594 12.8398 1.41338 12.7527C1.26082 12.6657 1.13417 12.5404 1.04619 12.3896L0.334821 12.7966C0.494524 13.0708 0.724327 13.2989 1.00126 13.4579C1.27818 13.617 1.59253 13.7015 1.91288 13.7029Z" fill="#322E28"/>
<path d="M20.0894 10.1546V8.59133C20.5486 8.46243 20.9389 8.16217 21.1778 7.75408L20.4665 7.34717C20.3786 7.49849 20.2518 7.62422 20.0989 7.71166C19.9461 7.7991 19.7726 7.84514 19.5959 7.84514C19.4193 7.84514 19.2458 7.7991 19.0929 7.71166C18.9401 7.62422 18.8133 7.49849 18.7254 7.34717L16.0459 8.87587C16.1346 9.02658 16.1813 9.19777 16.1813 9.37207C16.1813 9.54637 16.1346 9.71756 16.0459 9.86827L16.7573 10.2752C16.8774 10.0737 16.9561 9.85074 16.9886 9.61913C17.0212 9.38751 17.007 9.15183 16.947 8.92564L18.3164 8.14226C18.5354 8.35353 18.8047 8.50712 19.0995 8.58898V10.1528C18.6405 10.2814 18.2502 10.5812 18.0111 10.9889L18.7224 11.3958C18.8104 11.2448 18.9372 11.1193 19.0899 11.032C19.2426 10.9448 19.4159 10.8988 19.5924 10.8988C19.7688 10.8988 19.9421 10.9448 20.0949 11.032C20.2476 11.1193 20.3743 11.2448 20.4623 11.3958L21.1737 10.9889C20.9352 10.5827 20.5465 10.2837 20.0894 10.1546Z" fill="#322E28"/>
<path d="M20.5951 11.8937C20.595 12.0679 20.5484 12.2389 20.46 12.3896L21.1713 12.7966C21.3332 12.5223 21.4186 12.2106 21.4186 11.8932C21.4186 11.5757 21.3332 11.264 21.1713 10.9897L20.46 11.3967C20.5485 11.5477 20.5952 11.7192 20.5951 11.8937Z" fill="#322E28"/>
<path d="M18.7232 12.3868L18.0119 12.7937C17.85 12.5196 17.7646 12.208 17.7646 11.8906C17.7646 11.5733 17.85 11.2616 18.0119 10.9875L18.7232 11.3944C18.6345 11.5451 18.5878 11.7163 18.5878 11.8906C18.5878 12.0649 18.6345 12.2361 18.7232 12.3868ZM13.8948 13.1163L11.2467 11.6081L10.7529 11.8921L14.3027 13.9161C14.3905 13.7648 14.5172 13.639 14.67 13.5516C14.8228 13.4641 14.9963 13.4181 15.1729 13.4181C15.3495 13.4181 15.523 13.4641 15.6758 13.5516C15.8286 13.639 15.9553 13.7648 16.0432 13.9161L16.7545 13.5092C16.5156 13.1011 16.1252 12.8008 15.6661 12.672V11.1075C16.1244 10.9789 16.5142 10.6796 16.7533 10.2726L16.042 9.86572C15.9539 10.0164 15.8272 10.1414 15.6746 10.2284C15.5221 10.3154 15.349 10.3612 15.1729 10.3612C14.9968 10.3612 14.8237 10.3154 14.6712 10.2284C14.5186 10.1414 14.392 10.0164 14.3039 9.86572L13.5925 10.2726C13.8316 10.6796 14.2214 10.9789 14.6797 11.1075V12.672C14.3847 12.7532 14.1149 12.9059 13.8948 13.1163Z" fill="#322E28"/>
<path d="M21.1755 16.0325L20.4641 16.4395C20.3762 16.2884 20.2494 16.1629 20.0967 16.0757C19.9439 15.9884 19.7706 15.9425 19.5942 15.9425C19.4178 15.9425 19.2444 15.9884 19.0917 16.0757C18.939 16.1629 18.8122 16.2884 18.7242 16.4395L16.043 14.9108C16.1316 14.76 16.1783 14.5888 16.1783 14.4146C16.1783 14.2403 16.1316 14.0691 16.043 13.9184L16.7543 13.5114C16.874 13.7126 16.9523 13.9351 16.9846 14.1662C17.017 14.3973 17.0028 14.6324 16.9429 14.8581L18.3158 15.6409C18.515 15.4486 18.7561 15.3038 19.0207 15.2178C19.2852 15.1317 19.5662 15.1066 19.8421 15.1443C20.118 15.1821 20.3815 15.2817 20.6125 15.4356C20.8434 15.5894 21.0356 15.7934 21.1743 16.032L21.1755 16.0325ZM19.5921 13.7006C19.9131 13.7003 20.2284 13.6166 20.5064 13.4579C20.7843 13.2993 21.015 13.0712 21.1755 12.7966L20.4641 12.3896C20.376 12.5405 20.2492 12.6659 20.0965 12.753C19.9438 12.8401 19.7706 12.886 19.5942 12.886C19.4178 12.886 19.2446 12.8401 19.0918 12.753C18.9391 12.6659 18.8123 12.5405 18.7242 12.3896L18.0129 12.7966C18.1729 13.0708 18.4031 13.2987 18.6803 13.4575C18.9576 13.6162 19.2722 13.7002 19.5927 13.7011L19.5921 13.7006Z" fill="#322E28"/>
<path d="M10.7519 15.1284C10.2747 15.1283 9.81656 15.3128 9.47557 15.6424L8.10322 14.8602C8.1815 14.568 8.1815 14.2607 8.10322 13.9685L10.7519 12.4574L13.4 13.9662C13.3399 14.1925 13.3258 14.4282 13.3583 14.6599C13.3909 14.8917 13.4695 15.1147 13.5897 15.3163L14.301 14.9094C14.2123 14.7587 14.1656 14.5875 14.1656 14.4132C14.1656 14.2389 14.2123 14.0677 14.301 13.917L10.7519 11.8936L7.20215 13.9187C7.29081 14.0695 7.33751 14.2407 7.33751 14.4149C7.33751 14.5892 7.29081 14.7604 7.20215 14.9111L9.88342 16.4399C9.9714 16.2888 10.0981 16.1633 10.2509 16.0761C10.4036 15.9888 10.5769 15.9429 10.7534 15.9429C10.9298 15.9429 11.1031 15.9888 11.2559 16.0761C11.4086 16.1633 11.5353 16.2888 11.6233 16.4399L12.3347 16.03C12.174 15.7559 11.9432 15.5284 11.6654 15.3701C11.3876 15.2119 11.0726 15.1285 10.7519 15.1284Z" fill="#322E28"/>
<path d="M16.7548 18.5534L16.0434 18.9633C15.9556 18.8119 15.8289 18.6862 15.6761 18.5987C15.5233 18.5113 15.3498 18.4652 15.1732 18.4652C14.9966 18.4652 14.8231 18.5113 14.6703 18.5987C14.5175 18.6862 14.3908 18.8119 14.303 18.9633L13.5916 18.5564C13.7516 18.2812 13.9823 18.0527 14.2604 17.8937C14.5384 17.7348 14.854 17.6511 15.1753 17.6511C15.4965 17.6511 15.8121 17.7348 16.0902 17.8937C16.3682 18.0527 16.5989 18.2812 16.759 18.5564L16.7548 18.5534ZM18.586 16.9352C18.5858 16.7611 18.6325 16.5902 18.7212 16.4398L16.0399 14.9111C15.9518 15.0618 15.8251 15.1869 15.6726 15.2738C15.52 15.3608 15.347 15.4066 15.1708 15.4066C14.9947 15.4066 14.8217 15.3608 14.6691 15.2738C14.5166 15.1869 14.3899 15.0618 14.3018 14.9111L13.5904 15.318C13.7294 15.5566 13.9218 15.7605 14.153 15.9142C14.3841 16.0679 14.6478 16.1673 14.9239 16.2048C15.1999 16.2423 15.481 16.2168 15.7456 16.1304C16.0101 16.044 16.2511 15.8989 16.4501 15.7062L17.8213 16.4884C17.7613 16.7148 17.7471 16.9506 17.7795 17.1823C17.8118 17.4141 17.8901 17.6373 18.0098 17.8391L18.7212 17.4293C18.6333 17.2791 18.5869 17.1087 18.5866 16.9352H18.586ZM11.7563 16.9352C11.7563 17.1093 11.7097 17.2805 11.6211 17.4311L12.3325 17.838C12.4948 17.5639 12.5803 17.2521 12.5803 16.9346C12.5803 16.617 12.4948 16.3052 12.3325 16.0312L11.6211 16.441C11.7108 16.5913 11.7585 16.7624 11.7592 16.9369L11.7563 16.9352Z" fill="#322E28"/>
<path d="M6.33067 17.647C6.00915 17.6473 5.69339 17.7313 5.4152 17.8905C5.13702 18.0497 4.90623 18.2785 4.74609 18.5539L5.45746 18.9608C5.54528 18.8092 5.6721 18.6832 5.82508 18.5956C5.97805 18.508 6.15175 18.4618 6.3286 18.4618C6.50544 18.4618 6.67914 18.508 6.83212 18.5956C6.98509 18.6832 7.11191 18.8092 7.19973 18.9608L7.9111 18.5539C7.75122 18.2792 7.52107 18.0508 7.24369 17.8917C6.96632 17.7325 6.65146 17.6481 6.33067 17.647Z" fill="#322E28"/>
<path d="M3.49398 17.8397C3.65639 17.565 3.7421 17.2527 3.74237 16.9346C3.74127 16.7842 3.72136 16.6346 3.68309 16.489L5.05544 15.7068C5.39649 16.0368 5.85491 16.2216 6.33235 16.2216C6.80979 16.2216 7.26821 16.0368 7.60926 15.7068L8.98102 16.4884C8.92103 16.7147 8.9068 16.9504 8.93915 17.182C8.9715 17.4137 9.04978 17.6368 9.16953 17.8386L9.8809 17.4316C9.79219 17.281 9.74545 17.1098 9.74545 16.9354C9.74545 16.7611 9.79219 16.5899 9.8809 16.4393L7.20141 14.9111C7.11331 15.0618 6.98662 15.1869 6.83407 15.2738C6.68152 15.3608 6.50849 15.4066 6.33235 15.4066C6.15621 15.4066 5.98318 15.3608 5.83063 15.2738C5.67808 15.1869 5.55139 15.0618 5.46329 14.9111L2.7832 16.4404C2.87192 16.5911 2.91865 16.7623 2.91865 16.9366C2.91865 17.1109 2.87192 17.2821 2.7832 17.4328L3.49398 17.8397Z" fill="#322E28"/>
<path d="M13.5874 5.23357L14.2988 4.82666C14.3868 4.97783 14.5136 5.10341 14.6665 5.19074C14.8193 5.27806 14.9927 5.32404 15.1693 5.32404C15.3459 5.32404 15.5193 5.27806 15.6722 5.19074C15.825 5.10341 15.9518 4.97783 16.0399 4.82666L18.7199 6.35478C18.6312 6.50536 18.5845 6.67646 18.5845 6.85068C18.5845 7.0249 18.6312 7.19601 18.7199 7.34659L16.0404 8.87529C15.9525 8.72397 15.8258 8.59824 15.6729 8.5108C15.5201 8.42337 15.3465 8.37732 15.1699 8.37732C14.9933 8.37732 14.8198 8.42337 14.6669 8.5108C14.514 8.59824 14.3873 8.72397 14.2994 8.87529L13.588 8.46897C13.7266 8.22998 13.9189 8.02555 14.15 7.87136C14.3811 7.71718 14.6449 7.61735 14.9211 7.57953C15.1973 7.54171 15.4787 7.56691 15.7435 7.65319C16.0084 7.73948 16.2497 7.88455 16.4489 8.07728L17.8201 7.29565C17.7815 7.15057 17.7616 7.00127 17.7608 6.85127C17.7616 6.7005 17.7815 6.55043 17.8201 6.40454L16.4495 5.62409C16.2504 5.81712 16.0091 5.9625 15.7442 6.04905C15.4793 6.1356 15.1979 6.16103 14.9215 6.12337C14.6451 6.08572 14.3811 5.98598 14.1498 5.83183C13.9186 5.67768 13.7262 5.47322 13.5874 5.23416V5.23357ZM11.7592 6.85361C11.759 7.02777 11.7124 7.19881 11.624 7.34952L12.3354 7.75643C12.4973 7.48232 12.5826 7.17067 12.5826 6.85332C12.5826 6.53597 12.4973 6.22432 12.3354 5.95021L11.624 6.35712C11.7127 6.5079 11.7594 6.67922 11.7592 6.85361Z" fill="#322E28"/>
<path d="M4.75 3.42979C4.91008 3.15481 5.14075 2.92637 5.41874 2.76752C5.69674 2.60867 6.01223 2.52503 6.33339 2.52503C6.65456 2.52503 6.97005 2.60867 7.24804 2.76752C7.52603 2.92637 7.7567 3.15481 7.91678 3.42979L7.20541 3.83963C7.11751 3.68857 6.99083 3.56308 6.83815 3.47582C6.68546 3.38855 6.51217 3.3426 6.33576 3.3426C6.15936 3.3426 5.98607 3.38855 5.83338 3.47582C5.68069 3.56308 5.55401 3.68857 5.46611 3.83963L4.75 3.42979ZM9.17057 0.908691C9.00835 1.18259 8.92285 1.49419 8.92285 1.81151C8.92285 2.12883 9.00835 2.44043 9.17057 2.71433L9.88195 2.30742C9.79323 2.15673 9.7465 1.98553 9.7465 1.81122C9.7465 1.63691 9.79323 1.46571 9.88195 1.31502L9.17057 0.908691Z" fill="#322E28"/>
<path d="M9.88447 1.31415C9.97244 1.16337 10.0991 1.03813 10.2517 0.951057C10.4042 0.863981 10.5773 0.818136 10.7535 0.818136C10.9297 0.818136 11.1028 0.863981 11.2554 0.951057C11.408 1.03813 11.5346 1.16337 11.6226 1.31415L12.334 0.904312C12.1739 0.629587 11.9433 0.401389 11.6655 0.242712C11.3876 0.084036 11.0724 0.000488281 10.7514 0.000488281C10.4305 0.000488281 10.1152 0.084036 9.83742 0.242712C9.5596 0.401389 9.32903 0.629587 9.16895 0.904312L9.88447 1.31415Z" fill="#322E28"/>
<path d="M1.0403 6.35633C1.12828 6.20529 1.25502 6.07981 1.40775 5.99257C1.56048 5.90532 1.73381 5.85938 1.91024 5.85938C2.08668 5.85938 2.26 5.90532 2.41273 5.99257C2.56547 6.07981 2.69221 6.20529 2.78019 6.35633L5.46087 4.82705C5.37221 4.67634 5.32551 4.50514 5.32551 4.33085C5.32551 4.15655 5.37221 3.98535 5.46087 3.83465L4.7495 3.42773C4.50874 3.83429 4.44095 4.31853 4.56099 4.77435L3.18508 5.55832C2.98585 5.36616 2.74474 5.22157 2.48021 5.13562C2.21569 5.04966 1.93476 5.02463 1.65892 5.06244C1.38309 5.10024 1.11968 5.19988 0.888841 5.35372C0.658006 5.50756 0.465872 5.71153 0.327148 5.95001L1.0403 6.35633Z" fill="#322E28"/>
<path d="M0.906441 6.8535C0.906574 6.67934 0.953194 6.50829 1.0416 6.3576L0.330231 5.95068C0.16832 6.2249 0.0830078 6.53665 0.0830078 6.85409C0.0830078 7.17153 0.16832 7.48328 0.330231 7.75749L1.0416 7.34765C0.953495 7.19747 0.906886 7.02707 0.906441 6.8535Z" fill="#322E28"/>
<path d="M19.5927 5.04241C19.1154 5.0422 18.6571 5.227 18.3164 5.55705L16.944 4.77484C17.0039 4.54911 17.0179 4.31393 16.9853 4.08282C16.9528 3.85172 16.8743 3.62925 16.7543 3.42822L16.043 3.83514C16.1315 3.9859 16.178 4.15707 16.178 4.33133C16.178 4.5056 16.1315 4.67677 16.043 4.82753L18.7231 6.35565C18.8111 6.20488 18.9378 6.07967 19.0904 5.99261C19.243 5.90555 19.4162 5.85971 19.5924 5.85971C19.7686 5.85971 19.9418 5.90555 20.0944 5.99261C20.247 6.07967 20.3737 6.20488 20.4618 6.35565L21.1731 5.94874C21.0132 5.67413 20.7831 5.44585 20.5057 5.28678C20.2283 5.12771 19.9135 5.04344 19.5927 5.04241Z" fill="#322E28"/>
<path d="M20.5975 6.85321C20.5977 7.02716 20.5513 7.19806 20.4629 7.34853L21.1743 7.75544C21.3362 7.48133 21.4215 7.16968 21.4215 6.85233C21.4215 6.53498 21.3362 6.22333 21.1743 5.94922L20.4629 6.35613C20.5516 6.50711 20.598 6.67866 20.5975 6.85321Z" fill="#322E28"/>
<path d="M16.7559 3.42579L16.0446 3.8327C15.9565 3.68207 15.8298 3.55698 15.6772 3.47002C15.5247 3.38305 15.3516 3.33727 15.1755 3.33727C14.9994 3.33727 14.8263 3.38305 14.6738 3.47002C14.5212 3.55698 14.3945 3.68207 14.3064 3.8327L13.5951 3.42579C13.7552 3.15107 13.9857 2.92287 14.2636 2.76419C14.5414 2.60551 14.8566 2.52197 15.1776 2.52197C15.4985 2.52197 15.8138 2.60551 16.0916 2.76419C16.3694 2.92287 16.6 3.15107 16.7601 3.42579H16.7559ZM11.7615 1.80985C11.7616 1.98359 11.7151 2.15425 11.627 2.30459L12.3383 2.7115C12.5002 2.43739 12.5856 2.12573 12.5856 1.80839C12.5856 1.49104 12.5002 1.17938 12.3383 0.905273L11.627 1.31511C11.7153 1.46539 11.7617 1.63609 11.7615 1.80985Z" fill="#322E28"/>
<path d="M16.043 19.9518C16.1316 19.8012 16.1783 19.6301 16.1783 19.4559C16.1783 19.2817 16.1316 19.1106 16.043 18.96L16.7543 18.5501C16.9166 18.8242 17.0021 19.136 17.0021 19.4535C17.0021 19.771 16.9166 20.0828 16.7543 20.3569L16.043 19.9518ZM21.1773 17.8376L20.4659 17.4307C20.3779 17.5817 20.2512 17.7072 20.0985 17.7944C19.9457 17.8817 19.7724 17.9276 19.596 17.9276C19.4195 17.9276 19.2462 17.8817 19.0935 17.7944C18.9407 17.7072 18.814 17.5817 18.726 17.4307L18.0147 17.8405C18.1748 18.1154 18.4054 18.3437 18.6834 18.5024C18.9613 18.6612 19.2767 18.7448 19.5977 18.7448C19.9188 18.7448 20.2342 18.6612 20.5121 18.5024C20.7901 18.3437 21.0207 18.1154 21.1808 17.8405L21.1773 17.8376Z" fill="#322E28"/>
<path d="M20.5951 16.9342C20.595 17.1083 20.5484 17.2794 20.46 17.4301L21.1713 17.837C21.3332 17.5629 21.4186 17.2512 21.4186 16.9339C21.4186 16.6165 21.3332 16.3049 21.1713 16.0308L20.46 16.4377C20.5487 16.5885 20.5953 16.7598 20.5951 16.9342Z" fill="#322E28"/>
<path d="M0.328368 17.8405L1.03974 17.4336C1.12792 17.584 1.25457 17.7088 1.407 17.7956C1.55942 17.8823 1.73227 17.928 1.9082 17.928C2.08414 17.928 2.25698 17.8823 2.40941 17.7956C2.56184 17.7088 2.68849 17.584 2.77667 17.4336L3.48804 17.8405C3.32776 18.1148 3.09718 18.3426 2.81949 18.501C2.5418 18.6593 2.22679 18.7427 1.90613 18.7427C1.58547 18.7427 1.27045 18.6593 0.992765 18.501C0.715077 18.3426 0.484501 18.1148 0.324219 17.8405H0.328368ZM5.32575 19.4559C5.32548 19.2824 5.37149 19.112 5.45913 18.9617L4.74776 18.5548C4.58602 18.829 4.5008 19.1406 4.5008 19.4579C4.5008 19.7752 4.58602 20.0869 4.74776 20.361L5.45913 19.9512C5.371 19.8006 5.32478 19.6298 5.32515 19.4559H5.32575Z" fill="#322E28"/>
<path d="M0.90736 16.9343C0.907081 16.7608 0.953305 16.5903 1.04134 16.4401L0.329965 16.0332C0.168224 16.3074 0.0830078 16.619 0.0830078 16.9363C0.0830078 17.2536 0.168224 17.5653 0.329965 17.8394L1.04134 17.4325C0.952807 17.2811 0.906574 17.1091 0.90736 16.9343Z" fill="#322E28"/>
<path d="M20.9612 26.6904H11.2492V22.2577L13.8955 20.7477C14.0945 20.9402 14.3355 21.0852 14.6 21.1715C14.8645 21.2578 15.1456 21.2832 15.4215 21.2457C15.6975 21.2081 15.9611 21.1087 16.1922 20.955C16.4233 20.8013 16.6156 20.5974 16.7546 20.359L16.0432 19.9491C15.9778 20.0629 15.8902 20.1627 15.7855 20.2429C15.6809 20.3231 15.5612 20.382 15.4333 20.4163C15.3055 20.4506 15.1721 20.4596 15.0407 20.4427C14.9094 20.4259 14.7827 20.3835 14.668 20.3181C14.5533 20.2527 14.4528 20.1655 14.3723 20.0616C14.2919 19.9577 14.233 19.839 14.1992 19.7125C14.1654 19.5861 14.1572 19.4542 14.1752 19.3246C14.1931 19.195 14.2369 19.0702 14.3039 18.9573L13.5925 18.5504C13.4732 18.7517 13.3951 18.9742 13.3629 19.2052C13.3306 19.4363 13.3448 19.6714 13.4046 19.897L11.2515 21.1265V18.6745C11.7101 18.5459 12.1002 18.2463 12.3394 17.839L11.628 17.4321C11.54 17.5832 11.4133 17.7086 11.2605 17.7959C11.1078 17.8831 10.9345 17.9291 10.758 17.9291C10.5816 17.9291 10.4083 17.8831 10.2555 17.7959C10.1028 17.7086 9.97607 17.5832 9.88809 17.4321L9.17672 17.839C9.41601 18.2465 9.80629 18.5461 10.2651 18.6745V21.1277L8.11203 19.8982C8.15031 19.7531 8.17022 19.6038 8.17131 19.4538C8.1712 19.1373 8.08633 18.8264 7.9253 18.5527L7.21393 18.9597C7.34717 19.1875 7.38334 19.4582 7.31447 19.7123C7.24559 19.9665 7.07733 20.1832 6.84668 20.3148C6.61604 20.4464 6.34191 20.4821 6.0846 20.4141C5.82729 20.346 5.60787 20.1799 5.47463 19.9521L4.76326 20.3619C4.90281 20.5983 5.09501 20.8002 5.32531 20.9523C5.5556 21.1045 5.81794 21.2028 6.09244 21.24C6.36694 21.2771 6.6464 21.252 6.90962 21.1666C7.17285 21.0812 7.41294 20.9378 7.6117 20.7471L10.2592 22.2577V26.6904H0.546015C0.458442 26.6904 0.374455 26.7248 0.312532 26.7859C0.250609 26.8471 0.21582 26.93 0.21582 27.0165C0.21582 27.103 0.250609 27.186 0.312532 27.2471C0.374455 27.3083 0.458442 27.3427 0.546015 27.3427H10.2408C10.1768 27.7308 9.98286 28.0866 9.69009 28.3532C9.0623 28.9346 7.94605 29.191 6.46165 29.095C5.85512 29.0492 5.2451 29.0832 4.64766 29.1963C4.61716 29.1966 4.587 29.2025 4.55874 29.2139L4.55103 29.2174C2.85086 29.595 2.1798 30.66 2.05649 31.3784C2.04586 31.4423 2.06128 31.5077 2.09939 31.5604C2.1375 31.6131 2.19519 31.6487 2.25982 31.6594C2.27354 31.6617 2.28742 31.6629 2.30132 31.663C2.35982 31.6628 2.41637 31.6422 2.46096 31.6048C2.50555 31.5674 2.53531 31.5156 2.54497 31.4586C2.55445 31.4053 2.70384 30.6038 3.65648 30.0605C3.5729 30.2947 3.55096 30.5523 3.52962 30.8134C3.49939 31.1875 3.46441 31.6114 3.23618 32.0745C3.22005 32.1036 3.21007 32.1356 3.20684 32.1686C3.20361 32.2016 3.2072 32.2349 3.21739 32.2665C3.22759 32.2981 3.24417 32.3273 3.26613 32.3523C3.28809 32.3774 3.31498 32.3978 3.34517 32.4123C3.37535 32.4268 3.4082 32.435 3.44173 32.4366C3.47525 32.4382 3.50875 32.433 3.54018 32.4214C3.57162 32.4098 3.60035 32.392 3.62462 32.3692C3.64889 32.3463 3.6682 32.3187 3.68138 32.2882C3.95052 31.7426 3.99023 31.249 4.02284 30.8526C4.07145 30.2601 4.09812 29.9323 4.73065 29.6723C4.97379 29.6242 5.21999 29.5927 5.46751 29.578C5.18119 29.9252 5.11776 30.4047 5.05255 30.9018C4.96007 31.6185 4.84506 32.5096 4.0756 33.41C4.0545 33.4348 4.03856 33.4635 4.02867 33.4944C4.01879 33.5253 4.01516 33.5578 4.018 33.59C4.02083 33.6223 4.03007 33.6537 4.04519 33.6824C4.06032 33.7112 4.08102 33.7367 4.10613 33.7575C4.13123 33.7784 4.16025 33.7941 4.19152 33.8039C4.22279 33.8136 4.2557 33.8172 4.28837 33.8144C4.32104 33.8116 4.35283 33.8025 4.38193 33.7876C4.41103 33.7726 4.43686 33.7522 4.45796 33.7274C5.32228 32.7174 5.44795 31.7461 5.54814 30.9656C5.65899 30.1073 5.7408 29.7186 6.46402 29.5862C8.09366 29.6852 9.29291 29.3924 10.0292 28.7109C10.105 28.6392 10.1761 28.5628 10.242 28.482C10.0393 29.0634 9.6231 29.7238 8.76768 30.4358C8.32941 30.795 7.85918 31.1144 7.36272 31.3901C6.59563 31.838 6.04135 32.1618 5.84098 33.2836C5.82961 33.3475 5.84439 33.4132 5.88207 33.4663C5.91976 33.5195 5.97726 33.5557 6.04194 33.567C6.05619 33.5697 6.07069 33.5711 6.08522 33.5711C6.14339 33.5709 6.19965 33.5505 6.24411 33.5135C6.28857 33.4764 6.31837 33.4251 6.32827 33.3685C6.48892 32.468 6.88907 32.235 7.61407 31.8111L7.82393 31.6881C7.6609 32.0693 7.5785 32.4493 7.50144 32.8005C7.3236 33.6202 7.17184 34.3228 6.19726 34.9563C6.15239 34.985 6.11816 35.0273 6.09968 35.0768C6.0812 35.1264 6.07948 35.1805 6.09477 35.2311C6.11006 35.2817 6.14155 35.326 6.1845 35.3574C6.22745 35.3888 6.27956 35.4057 6.33301 35.4054C6.381 35.4051 6.42791 35.3913 6.46817 35.3656C7.61585 34.6226 7.80496 33.7479 7.98814 32.903C8.00888 32.8058 8.02963 32.7104 8.05216 32.6144C8.10433 32.8737 8.18021 33.129 8.25371 33.3755C8.41674 33.9206 8.58509 34.4844 8.49084 35.0149C8.47946 35.0788 8.49424 35.1445 8.53193 35.1976C8.56961 35.2508 8.62711 35.287 8.6918 35.2982C8.70611 35.3005 8.72058 35.3017 8.73507 35.3017C8.79326 35.3018 8.8496 35.2815 8.89416 35.2446C8.93873 35.2076 8.96867 35.1564 8.97872 35.0998C9.09313 34.4557 8.90817 33.8357 8.72915 33.2356C8.45586 32.3205 8.21992 31.53 9.09017 30.8046C9.81932 30.1963 10.2598 29.6132 10.5259 29.0786C10.5817 29.7186 10.657 30.2818 10.734 30.7882C10.9119 31.9498 10.6155 32.3064 10.2799 32.7203C9.9444 33.1343 9.5573 33.6021 9.62784 34.7941C9.63162 34.8564 9.6593 34.9148 9.70524 34.9576C9.75118 35.0004 9.81192 35.0242 9.87504 35.0242H9.88986C9.95541 35.0203 10.0167 34.9908 10.0603 34.9423C10.1038 34.8938 10.1261 34.8302 10.1222 34.7654C10.063 33.7631 10.3528 33.4059 10.6623 33.0283C10.7863 32.885 10.8985 32.732 10.9978 32.571C11.1496 33.9177 11.0103 34.9528 9.81221 36.6144C9.77416 36.6672 9.75891 36.7328 9.7698 36.7967C9.78069 36.8606 9.81685 36.9176 9.8703 36.9552C9.92376 36.9927 9.99014 37.0078 10.0548 36.997C10.1195 36.9863 10.1773 36.9506 10.2153 36.8978C11.8444 34.6366 11.6464 33.3983 11.3185 31.3485C11.2095 30.6676 11.0814 29.8819 11.0055 28.924C11.277 29.4832 11.6464 29.9024 11.992 30.2923C12.8646 31.2771 13.618 32.1272 12.5107 34.9686C12.4871 35.0291 12.4888 35.0964 12.5153 35.1556C12.5419 35.2149 12.5912 35.2613 12.6524 35.2848C12.6808 35.2954 12.7109 35.301 12.7413 35.3012C12.7914 35.3012 12.8404 35.2862 12.8818 35.2582C12.9232 35.2302 12.955 35.1905 12.9731 35.1443C13.5451 33.677 13.6423 32.6688 13.4918 31.9065C13.832 32.3445 14.0549 32.9387 13.9346 34.0599C13.9311 34.0918 13.9339 34.1241 13.943 34.1549C13.9522 34.1858 13.9673 34.2145 13.9877 34.2395C14.0081 34.2645 14.0333 34.2853 14.0618 34.3007C14.0903 34.3161 14.1216 34.3258 14.1539 34.3293H14.1806C14.2417 34.3292 14.3005 34.3068 14.3459 34.2665C14.3913 34.2262 14.4201 34.1708 14.4266 34.1109C14.4671 33.764 14.4714 33.4141 14.4397 33.0664C14.7568 33.3878 15.1036 33.687 15.3923 33.848C15.4496 33.8796 15.5172 33.8876 15.5804 33.8701C15.6436 33.8527 15.6973 33.8113 15.7296 33.7549C15.7456 33.7269 15.7559 33.6961 15.7598 33.6642C15.7638 33.6323 15.7613 33.5999 15.7525 33.569C15.7438 33.538 15.7289 33.5091 15.7088 33.4838C15.6887 33.4586 15.6637 33.4375 15.6354 33.4218C15.1208 33.1355 14.3104 32.2508 14.0348 31.8204C14.0309 31.8143 14.0266 31.8084 14.0217 31.8029C13.8131 31.4803 13.5576 31.2396 13.3104 31.0125C13.1295 30.8524 12.9616 30.6786 12.8083 30.4926C12.8059 30.4899 12.8033 30.4873 12.8006 30.485C12.6595 30.3058 12.5101 30.1337 12.3613 29.9686C12.0014 29.5628 11.6351 29.1489 11.3885 28.5792C11.9143 29.0335 12.7158 29.2027 13.5754 29.2982H13.5837C14.7965 29.4299 14.9714 30.2935 15.1742 31.2947C15.2589 31.7121 15.3467 32.1454 15.521 32.5242C15.5483 32.5831 15.5983 32.6289 15.6598 32.6515C15.7213 32.674 15.7894 32.6715 15.8491 32.6445C15.9087 32.6175 15.9551 32.5682 15.9779 32.5074C16.0008 32.4466 15.9983 32.3794 15.9709 32.3204C15.8209 31.9961 15.7427 31.6097 15.6597 31.201C15.6134 30.9744 15.5654 30.7426 15.5038 30.5148C15.7124 30.6214 15.9294 30.7086 16.1452 30.7941C16.7131 31.0195 17.2033 31.2139 17.4126 31.7168C17.4312 31.7618 17.463 31.8002 17.5039 31.8272C17.5448 31.8542 17.5929 31.8686 17.642 31.8685C17.674 31.8685 17.7056 31.8623 17.7351 31.8503C17.7958 31.8257 17.8442 31.7782 17.8695 31.7184C17.8949 31.6586 17.8951 31.5912 17.8703 31.5312C17.5822 30.8368 16.9449 30.5839 16.329 30.3398C15.8369 30.1448 15.3728 29.9604 15.0758 29.564C15.039 29.5148 14.9993 29.4668 14.9572 29.4205C16.5109 29.5605 18.003 29.8251 18.4186 31.3374C18.4325 31.3891 18.4633 31.4348 18.5062 31.4675C18.549 31.5002 18.6016 31.5181 18.6557 31.5183C18.6778 31.5182 18.6997 31.5152 18.7209 31.5096C18.7842 31.4923 18.838 31.451 18.8705 31.3948C18.903 31.3385 18.9117 31.2718 18.8946 31.2092C18.3439 29.2016 16.2963 29.0365 14.4901 28.8901C12.6363 28.7402 11.4478 28.5751 11.277 27.3391H20.9612C21.0487 27.3391 21.1327 27.3048 21.1946 27.2436C21.2566 27.1825 21.2914 27.0995 21.2914 27.013C21.2914 26.9265 21.2566 26.8436 21.1946 26.7824C21.1327 26.7213 21.0487 26.6869 20.9612 26.6869V26.6904Z" fill="#322E28"/>
</g>
</svg>
