<svg xmlns="http://www.w3.org/2000/svg" xmlns:xlink="http://www.w3.org/1999/xlink"><defs><style>
    .sprite-symbol-usage {display: none;}
    .sprite-symbol-usage:target {display: inline;}
  </style><symbol fill="none" viewBox="0 0 125 37" id="pic-logo-itv"><path d="M3.13 15.115L0 21.023h30.829l3.13-5.908H3.13z" fill="url(#pic-logo-itv_paint0_linear)" /><path d="M30.83 21.023H0l3.13-5.908h30.83l-3.13 5.908z" fill="url(#pic-logo-itv_paint1_linear)" /><path opacity=".3" d="M7.133 21.025h10.833l8.848-5.908H15.982l-8.85 5.908z" fill="#07A279" /><path d="M30.822 21.027l3.13-5.908-11.382 5.908h8.252z" fill="url(#pic-logo-itv_paint2_linear)" /><path d="M3.13 15.115L0 21.023l11.381-5.908H3.13z" fill="url(#pic-logo-itv_paint3_linear)" /><path d="M15.22.136a.934.934 0 00-.939.925v4.52l8.13-5.445H15.22z" fill="url(#pic-logo-itv_paint4_linear)" /><path d="M14.27 5.58V1.058c0-.51.42-.925.938-.925H22.4L14.27 5.58z" fill="url(#pic-logo-itv_paint5_linear)" /><path d="M23.364 6.046a.935.935 0 00-.938.926v4.52l8.13-5.446h-7.192z" fill="url(#pic-logo-itv_paint6_linear)" /><path d="M22.414 11.492v-4.52c0-.509.422-.925.938-.925h7.193l-8.13 5.445z" fill="url(#pic-logo-itv_paint7_linear)" /><path d="M22.414 11.492l8.13-5.445-8.13 4.221v1.224z" fill="url(#pic-logo-itv_paint8_linear)" /><path d="M14.27 5.58L22.4.137l-8.13 4.22v1.225z" fill="url(#pic-logo-itv_paint9_linear)" /><path d="M11.54 36.001h7.19c.517 0 .94-.417.94-.925v-4.52l-8.13 5.445z" fill="url(#pic-logo-itv_paint10_linear)" /><path d="M19.658 30.556v4.52a.936.936 0 01-.94.925h-7.19l8.13-5.445z" fill="url(#pic-logo-itv_paint11_linear)" /><path d="M3.398 30.094h7.192c.517 0 .94-.416.94-.925l-.001-4.52-8.13 5.445z" fill="url(#pic-logo-itv_paint12_linear)" /><path d="M11.506 24.65v4.521a.934.934 0 01-.94.925H3.376l8.13-5.445z" fill="url(#pic-logo-itv_paint13_linear)" /><path d="M11.506 24.65l-8.131 5.446 8.13-4.221v-1.224z" fill="url(#pic-logo-itv_paint14_linear)" /><path d="M.518 14.768c-.285.192-.518.624-.518.963v5.292L21.912 6.392c.285-.191.519-.624.519-.962V.137L.518 14.77z" fill="url(#pic-logo-itv_paint15_linear)" /><path d="M12.045 29.747c-.284.19-.518.622-.518.962V36L33.44 21.369c.286-.19.519-.624.519-.962v-5.291l-21.914 14.63z" fill="url(#pic-logo-itv_paint16_linear)" /><path d="M3.917 23.84c-.286.19-.519.623-.519.961v5.293L30.044 12.3c.285-.189.519-.623.519-.96V6.048L3.917 23.84z" fill="url(#pic-logo-itv_paint17_linear)" /><path opacity=".3" d="M16.009 21.527L26.77 14.34h-8.848L7.16 21.527h8.849z" fill="url(#pic-logo-itv_paint18_linear)" /><path opacity=".15" d="M33.958 20.27V14.98l-9.806 6.547H33l.44-.293c.285-.19.518-.624.518-.962z" fill="url(#pic-logo-itv_paint19_linear)" /><path opacity=".2" d="M30.575 11.203V5.91l-9.805 6.548h8.848l.439-.295c.285-.19.518-.623.518-.961z" fill="url(#pic-logo-itv_paint20_linear)" /><path opacity=".3" d="M22.415 5.293V0L12.61 6.548h8.848l.44-.293c.285-.191.518-.623.518-.962z" fill="url(#pic-logo-itv_paint21_linear)" /><path opacity=".15" d="M0 15.593v5.292l9.805-6.547H.957l-.439.293c-.285.191-.518.624-.518.962z" fill="url(#pic-logo-itv_paint22_linear)" /><path opacity=".2" d="M3.379 24.661v5.293l9.806-6.548H4.336l-.44.293c-.285.19-.518.624-.518.962z" fill="url(#pic-logo-itv_paint23_linear)" /><path opacity=".15" d="M11.535 30.569v5.292l9.805-6.548h-8.848l-.44.294c-.284.19-.517.622-.517.962z" fill="url(#pic-logo-itv_paint24_linear)" /><path d="M.518 14.631c-.285.191-.518.624-.518.962v5.292L22.382.033.518 14.631z" fill="url(#pic-logo-itv_paint25_linear)" /><path d="M12.045 29.609c-.284.19-.518.623-.518.962v5.292L33.91 15.011 12.045 29.609z" fill="url(#pic-logo-itv_paint26_linear)" /><path d="M3.897 23.7c-.285.19-.518.623-.518.961v5.293L25.76 9.1 3.897 23.7z" fill="url(#pic-logo-itv_paint27_linear)" /><path d="M19.662 30.415l-8.13 5.445 8.13-4.22v-1.225z" fill="url(#pic-logo-itv_paint28_linear)" /><path d="M49.774 23.83a.386.386 0 01-.018.115c-.028.076-.098.115-.214.115h-1.354c-.168 0-.25-.078-.25-.23V15.91c0-.169.075-.249.232-.249h1.355c.165 0 .249.08.249.249v7.921zM56.314 23.84a.682.682 0 01-.232.123c-.22.076-.488.13-.805.162-.315.033-.61.05-.878.05-.466 0-.853-.062-1.162-.183a1.857 1.857 0 01-.745-.504 1.888 1.888 0 01-.396-.751 3.604 3.604 0 01-.117-.945v-4.437c0-.14-.077-.211-.23-.211h-.738c-.18 0-.269-.075-.269-.227v-1.008c0-.169.076-.249.233-.249h.752c.168 0 .252-.084.252-.249v-1.523c0-.063.015-.12.05-.173.032-.05.091-.086.183-.112l1.257-.286c.115-.026.198-.013.242.037a.252.252 0 01.069.17v1.907c0 .152.083.23.252.23h1.643c.169 0 .252.074.252.226v1.03c0 .152-.083.227-.252.227h-1.664c-.154 0-.231.07-.231.21v4.095c0 .332.064.592.193.782.128.19.367.286.715.286a8.682 8.682 0 001.007-.115c.179-.038.3-.031.357.018.058.052.1.127.126.226l.172.919c.027.138.014.231-.036.274z" fill="#322E28" /><path d="M59.38 20.382h-3.466c-.167 0-.251-.075-.251-.228v-.8c0-.154.077-.23.231-.23h3.467c.167 0 .25.07.25.21v.82c0 .153-.075.228-.231.228zM49.542 14.58h-1.354c-.166 0-.25-.075-.25-.226v-.802c0-.153.077-.228.231-.228h1.354c.167 0 .25.07.25.21v.82c0 .151-.074.226-.23.226zM111.519 14.58h-1.353c-.167 0-.251-.075-.251-.226v-.802c0-.153.077-.228.232-.228h1.354c.167 0 .249.07.249.21v.82c0 .151-.074.226-.231.226zM114.788 14.58h-1.353c-.167 0-.251-.075-.251-.226v-.802c0-.153.077-.228.231-.228h1.354c.168 0 .25.07.25.21v.82c0 .151-.074.226-.231.226zM64.9 22.499c.333 0 .59-.104.77-.303.18-.202.272-.449.272-.738 0-.288-.093-.54-.271-.754-.181-.214-.456-.322-.826-.322h-2.078c-.077 0-.116.044-.116.133v1.85c0 .089.045.134.133.134H64.9zm-.21-3.392c.318 0 .565-.098.739-.293a.977.977 0 00.26-.669c0-.277-.088-.498-.26-.67-.174-.17-.425-.254-.759-.254h-1.848c-.114 0-.171.064-.171.19v1.563c0 .088.045.133.133.133h1.906zm1.898.495c-.026.012-.038.03-.038.046 0 .02.019.036.056.05.397.178.692.441.883.79.192.349.286.708.286 1.076 0 .761-.253 1.368-.76 1.817-.511.453-1.203.679-2.081.679h-3.772c-.232 0-.35-.103-.35-.306v-7.79c0-.203.111-.304.33-.304h3.532c.882 0 1.575.197 2.086.59.512.392.767.965.767 1.712 0 .294-.083.595-.245.907a1.83 1.83 0 01-.694.733zM70.894 20.93c0 .485.135.885.405 1.205.27.317.69.478 1.258.478.527 0 .94-.153 1.238-.46.296-.305.444-.716.444-1.223v-2.18c0-.495-.14-.902-.425-1.213-.285-.311-.696-.468-1.238-.468-.54 0-.958.157-1.247.468-.29.311-.435.718-.435 1.214v2.18zm5.183.006c0 1.04-.309 1.84-.927 2.398-.62.562-1.478.84-2.574.84-1.096 0-1.957-.278-2.584-.84-.626-.558-.936-1.346-.936-2.362v-2.228c0-.482.082-.923.251-1.322.166-.4.407-.745.715-1.029.31-.286.68-.506 1.112-.658a4.246 4.246 0 011.423-.228c1.081 0 1.94.277 2.572.838.63.559.948 1.354.948 2.38v2.211zM78.535 15.66h5.166a.33.33 0 01.2.066c.06.044.087.104.087.183v7.885c0 .102-.026.17-.086.207a.362.362 0 01-.201.06h-1.277c-.181 0-.271-.084-.271-.248V17.47c0-.166-.066-.248-.195-.248h-1.817c-.142 0-.214.082-.214.248v1.713c-.025.916-.087 1.667-.182 2.257-.098.59-.245 1.078-.436 1.458a2.622 2.622 0 01-.745.914 5.092 5.092 0 01-1.093.609.37.37 0 01-.185.028c-.057-.005-.113-.059-.164-.157l-.424-.822c-.052-.1-.063-.181-.03-.237a.567.567 0 01.184-.18c.282-.166.515-.345.695-.535.181-.192.32-.435.417-.733.097-.3.163-.673.203-1.125a20.6 20.6 0 00.059-1.705v-3.027c0-.177.103-.267.31-.267zM87.317 20.93c0 .485.134.885.406 1.205.27.317.69.478 1.257.478.53 0 .943-.153 1.239-.46.297-.305.446-.716.446-1.223v-2.18c0-.495-.144-.902-.427-1.213-.284-.311-.694-.468-1.238-.468-.541 0-.957.157-1.25.468-.286.311-.433.718-.433 1.214v2.18zm5.185.006c0 1.04-.31 1.84-.928 2.398-.618.562-1.477.84-2.574.84-1.095 0-1.957-.278-2.582-.84-.623-.558-.94-1.346-.94-2.362v-2.228c0-.482.085-.923.253-1.322.168-.4.407-.745.714-1.029a3.205 3.205 0 011.113-.658 4.253 4.253 0 011.422-.228c1.083 0 1.941.277 2.574.838.63.559.948 1.354.948 2.38v2.211zM98.962 15.944c0-.19.11-.284.331-.284h1.163c.231 0 .347.094.347.284v7.83c0 .19-.111.286-.33.286h-1.16c-.233 0-.35-.09-.35-.266v-3.203c0-.113-.064-.17-.192-.17h-2.767c-.066 0-.11.02-.135.057a.192.192 0 00-.039.113v3.182c0 .19-.108.287-.33.287h-1.179c-.218 0-.33-.09-.33-.266v-7.85c0-.19.103-.284.31-.284h1.22c.205 0 .31.094.31.284v2.954c0 .036.01.074.038.115.026.036.07.056.135.056h2.785c.116 0 .173-.056.173-.17v-2.955zM107.921 17.22h-1.973c-.065 0-.107.024-.126.069a.31.31 0 00-.03.121v6.344c0 .203-.108.306-.327.306h-1.18c-.222 0-.329-.103-.329-.306V17.41c0-.125-.065-.19-.194-.19h-1.838c-.233 0-.349-.1-.349-.307v-.946c0-.206.116-.307.349-.307h5.997c.219 0 .329.096.329.289v.964c0 .207-.11.308-.329.308zM114.112 18.65c-.026-.483-.179-.867-.461-1.154-.283-.284-.673-.427-1.175-.427-.536 0-.927.16-1.172.476-.244.316-.383.711-.422 1.18-.012.066-.003.114.03.155.032.035.103.054.22.054h2.768c.142 0 .212-.095.212-.284zm1.839 1.086c0 .14-.048.257-.138.353a.405.405 0 01-.306.14h-4.355c-.117 0-.207.036-.27.107a.346.346 0 00-.098.24v.327c0 .461.155.861.463 1.2.312.339.719.51 1.22.51.388 0 .717-.093.997-.277.277-.184.519-.405.725-.657a.442.442 0 01.185-.144c.058-.018.138.004.242.067l.851.533a.69.69 0 01.212.183c.04.057.032.129-.018.217-.323.578-.766.995-1.326 1.253-.56.257-1.17.387-1.828.387-.53 0-1.013-.079-1.453-.23a3.372 3.372 0 01-1.132-.638 2.791 2.791 0 01-.722-1 3.329 3.329 0 01-.253-1.315V18.84c0-.493.088-.946.262-1.353a3.15 3.15 0 01.723-1.048c.31-.29.68-.518 1.104-.684a3.858 3.858 0 011.414-.247c.515 0 .988.079 1.42.237.432.16.803.382 1.112.667.309.285.55.636.717 1.049.167.412.252.865.252 1.359v.917zM122.488 18.78c0-.484-.144-.877-.431-1.189-.289-.31-.704-.467-1.241-.467-.486 0-.889.165-1.202.486-.316.324-.47.71-.47 1.17v2.18c0 .456.154.847.47 1.178.313.328.722.492 1.221.492.501 0 .902-.164 1.202-.492.302-.331.451-.722.451-1.177v-2.182zm1.839 2.193c0 .432-.066.841-.201 1.228a2.873 2.873 0 01-1.602 1.735 3.304 3.304 0 01-1.338.257c-.425 0-.778-.056-1.062-.162-.281-.107-.492-.22-.632-.333-.104-.076-.189-.115-.253-.115-.065 0-.095.07-.095.211v3.465c0 .154-.079.228-.236.228h-1.349c-.171 0-.253-.081-.253-.247V15.909c0-.155.082-.232.253-.232h1.312c.103 0 .162.023.173.068a.554.554 0 01.021.164v.168c0 .102.026.164.079.183.05.02.109-.004.17-.068.336-.255.66-.422.975-.505.316-.08.647-.124.992-.124.526 0 .981.084 1.36.247.379.167.693.394.944.687.249.293.437.63.56 1.02.122.386.182.809.182 1.267v2.189z" fill="#322E28" /><defs></defs></symbol><linearGradient id="pic-logo-itv_paint0_linear" x1="0" y1="18.069" x2="29.105" y2="18.069" gradientUnits="userSpaceOnUse"><stop stop-color="#C4AE2B" /><stop offset=".045" stop-color="#C4AE2B" /><stop offset=".175" stop-color="#C4AE2B" /><stop offset=".54" stop-color="#259747" /><stop offset="1" stop-color="#1B4274" /></linearGradient><linearGradient id="pic-logo-itv_paint1_linear" x1="-5.248" y1="18.069" x2="32.011" y2="18.069" gradientUnits="userSpaceOnUse"><stop stop-color="#9D3D2A" /><stop offset=".199" stop-color="#259747" /><stop offset=".5" stop-color="#259747" /><stop offset=".742" stop-color="#259747" /><stop offset="1" stop-color="#1B4274" /></linearGradient><linearGradient id="pic-logo-itv_paint2_linear" x1=".203" y1="18.073" x2="30.08" y2="18.073" gradientUnits="userSpaceOnUse"><stop stop-color="#C03038" /><stop offset=".199" stop-color="#50B548" /><stop offset=".5" stop-color="#50B548" /><stop offset=".742" stop-color="#50B548" /><stop offset="1" stop-color="#108689" /></linearGradient><linearGradient id="pic-logo-itv_paint3_linear" x1="1.254" y1="18.07" x2="48.603" y2="18.07" gradientUnits="userSpaceOnUse"><stop stop-color="#C03038" /><stop offset=".199" stop-color="#50B548" /><stop offset=".5" stop-color="#50B548" /><stop offset=".742" stop-color="#50B548" /><stop offset="1" stop-color="#108689" /></linearGradient><linearGradient id="pic-logo-itv_paint4_linear" x1="-2.545" y1="2.859" x2="17.959" y2="2.859" gradientUnits="userSpaceOnUse"><stop stop-color="#A5CD3D" /><stop offset="1" stop-color="#BA3E26" /></linearGradient><linearGradient id="pic-logo-itv_paint5_linear" x1="18.873" y1="2.857" x2="-12.313" y2="2.857" gradientUnits="userSpaceOnUse"><stop stop-color="#9D3D2A" /><stop offset=".264" stop-color="#259747" /><stop offset=".663" stop-color="#259747" /><stop offset=".827" stop-color="#259747" /><stop offset="1" stop-color="#1B4274" /></linearGradient><linearGradient id="pic-logo-itv_paint6_linear" x1="2.059" y1="8.769" x2="27.177" y2="8.769" gradientUnits="userSpaceOnUse"><stop stop-color="#83C341" /><stop offset="1" stop-color="#259747" /></linearGradient><linearGradient id="pic-logo-itv_paint7_linear" x1="-9.838" y1="8.77" x2="30.22" y2="8.77" gradientUnits="userSpaceOnUse"><stop stop-color="#9D3D2A" /><stop offset=".199" stop-color="#259747" /><stop offset=".5" stop-color="#259747" /><stop offset=".742" stop-color="#259747" /><stop offset="1" stop-color="#1B4274" /></linearGradient><linearGradient id="pic-logo-itv_paint8_linear" x1="-2.622" y1="8.769" x2="32.529" y2="8.769" gradientUnits="userSpaceOnUse"><stop stop-color="#C03038" /><stop offset=".199" stop-color="#50B548" /><stop offset=".5" stop-color="#50B548" /><stop offset=".742" stop-color="#50B548" /><stop offset="1" stop-color="#108689" /></linearGradient><linearGradient id="pic-logo-itv_paint9_linear" x1="23.273" y1="2.858" x2="-9.375" y2="2.858" gradientUnits="userSpaceOnUse"><stop stop-color="#C03038" /><stop offset=".199" stop-color="#50B548" /><stop offset=".5" stop-color="#50B548" /><stop offset=".742" stop-color="#50B548" /><stop offset="1" stop-color="#108689" /></linearGradient><linearGradient id="pic-logo-itv_paint10_linear" x1="6.754" y1="33.279" x2="33.088" y2="33.279" gradientUnits="userSpaceOnUse"><stop stop-color="#3D63AD" /><stop offset="1" stop-color="#1B4274" /></linearGradient><linearGradient id="pic-logo-itv_paint11_linear" x1="41.487" y1="33.279" x2="12.618" y2="33.279" gradientUnits="userSpaceOnUse"><stop stop-color="#9D3D2A" /><stop offset=".199" stop-color="#259747" /><stop offset=".5" stop-color="#259747" /><stop offset=".742" stop-color="#259747" /><stop offset="1" stop-color="#1B4274" /></linearGradient><linearGradient id="pic-logo-itv_paint12_linear" x1="3.398" y1="27.371" x2="35.948" y2="27.371" gradientUnits="userSpaceOnUse"><stop stop-color="#83C341" /><stop offset="1" stop-color="#259747" /></linearGradient><linearGradient id="pic-logo-itv_paint13_linear" x1="36.31" y1="27.373" x2="1.732" y2="27.373" gradientUnits="userSpaceOnUse"><stop stop-color="#9D3D2A" /><stop offset=".199" stop-color="#259747" /><stop offset=".5" stop-color="#259747" /><stop offset=".742" stop-color="#259747" /><stop offset="1" stop-color="#1B4274" /></linearGradient><linearGradient id="pic-logo-itv_paint14_linear" x1="36.541" y1="27.373" x2="1.391" y2="27.373" gradientUnits="userSpaceOnUse"><stop stop-color="#C03038" /><stop offset=".199" stop-color="#50B548" /><stop offset=".5" stop-color="#50B548" /><stop offset=".742" stop-color="#50B548" /><stop offset="1" stop-color="#108689" /></linearGradient><linearGradient id="pic-logo-itv_paint15_linear" x1="-2.981" y1="20.004" x2="23.199" y2="2.058" gradientUnits="userSpaceOnUse"><stop stop-color="#FCE930" /><stop offset="1" stop-color="#ED2A2A" /></linearGradient><linearGradient id="pic-logo-itv_paint16_linear" x1="7.679" y1="35.558" x2="33.859" y2="17.612" gradientUnits="userSpaceOnUse"><stop stop-color="#33C4F3" /><stop offset="1" stop-color="#108689" /></linearGradient><linearGradient id="pic-logo-itv_paint17_linear" x1="2.35" y1="27.783" x2="28.53" y2="9.837" gradientUnits="userSpaceOnUse"><stop stop-color="#E3E331" /><stop offset="1" stop-color="#50B548" /></linearGradient><linearGradient id="pic-logo-itv_paint18_linear" x1="-4.819" y1="17.934" x2="24.81" y2="17.934" gradientUnits="userSpaceOnUse"><stop stop-color="#E3E331" /><stop offset="1" stop-color="#50B548" /></linearGradient><linearGradient id="pic-logo-itv_paint19_linear" x1="18.163" y1="18.252" x2="32.978" y2="18.252" gradientUnits="userSpaceOnUse"><stop stop-color="#33C4F3" /><stop offset="1" stop-color="#108689" /></linearGradient><linearGradient id="pic-logo-itv_paint20_linear" x1="14.779" y1="9.185" x2="29.595" y2="9.185" gradientUnits="userSpaceOnUse"><stop stop-color="#E3E331" /><stop offset="1" stop-color="#50B548" /></linearGradient><linearGradient id="pic-logo-itv_paint21_linear" x1="6.619" y1="3.274" x2="21.435" y2="3.274" gradientUnits="userSpaceOnUse"><stop stop-color="#FCE930" /><stop offset="1" stop-color="#ED2A2A" /></linearGradient><linearGradient id="pic-logo-itv_paint22_linear" x1="15.794" y1="17.611" x2=".98" y2="17.611" gradientUnits="userSpaceOnUse"><stop stop-color="#FCE930" /><stop offset="1" stop-color="#ED2A2A" /></linearGradient><linearGradient id="pic-logo-itv_paint23_linear" x1="19.174" y1="26.68" x2="4.359" y2="26.68" gradientUnits="userSpaceOnUse"><stop stop-color="#E3E331" /><stop offset="1" stop-color="#50B548" /></linearGradient><linearGradient id="pic-logo-itv_paint24_linear" x1="27.33" y1="32.587" x2="12.515" y2="32.587" gradientUnits="userSpaceOnUse"><stop stop-color="#33C4F3" /><stop offset="1" stop-color="#108689" /></linearGradient><linearGradient id="pic-logo-itv_paint25_linear" x1="-2.361" y1="20.859" x2="16.577" y2="5.054" gradientUnits="userSpaceOnUse"><stop stop-color="#FFDF2C" /><stop offset="1" stop-color="#F3762D" /></linearGradient><linearGradient id="pic-logo-itv_paint26_linear" x1="6.266" y1="35.932" x2="28.144" y2="19.972" gradientUnits="userSpaceOnUse"><stop stop-color="#75EBFB" /><stop offset="1" stop-color="#1995A3" /></linearGradient><linearGradient id="pic-logo-itv_paint27_linear" x1="-.344" y1="28.872" x2="22.243" y2="12.362" gradientUnits="userSpaceOnUse"><stop stop-color="#F7FE05" /><stop offset="1" stop-color="#65BC46" /></linearGradient><linearGradient id="pic-logo-itv_paint28_linear" x1="45.855" y1="33.138" x2="10.704" y2="33.138" gradientUnits="userSpaceOnUse"><stop stop-color="#C03038" /><stop offset=".199" stop-color="#50B548" /><stop offset=".5" stop-color="#50B548" /><stop offset=".742" stop-color="#50B548" /><stop offset="1" stop-color="#108689" /></linearGradient><symbol fill="none" viewBox="0 0 90 49" id="pic-logo-teplitsa"><g opacity=".5" fill="#322E28"><path d="M41.261 13.92v4.526h-.542V13.92H39.25v-.477h3.48v.478l-1.469-.001zM43.998 18.446v-5.003h3.15v.478H44.54v1.763h2.22v.478h-2.22v1.807h2.609v.477h-3.151zM51.449 18.446V13.92h-2.403v4.526h-.541v-5.003h3.489v5.003h-.545zM56.668 18.446V13.92h-1.725v1.712c0 2.11-.513 2.814-1.483 2.814h-.254v-.478h.136c.627 0 1.076-.414 1.076-2.495v-2.03h2.794v5.003h-.544zM61.964 18.446v-4.084l-2.581 4.084h-.514v-5.003h.542v4.076l2.581-4.076h.513v5.003h-.541zM67.722 19.655v-1.21h-3.557v-5.002h.54v4.526h2.402v-4.526h.541v4.526h.607v1.687h-.533zM72.857 18.446l-.406-1.131h-2.22l-.404 1.13h-.578l1.869-5.002h.456l1.86 5.003h-.577zm-1.507-4.238l-.951 2.642h1.896l-.945-2.642zM41.347 27.369a1.829 1.829 0 01-1.297-.52c-.476-.469-.476-.963-.476-2.024 0-1.06 0-1.554.476-2.024a1.811 1.811 0 011.297-.52c.913 0 1.586.547 1.762 1.49h-.556c-.135-.612-.57-1.017-1.205-1.017a1.238 1.238 0 00-.877.352c-.317.323-.356.668-.356 1.715 0 1.048.036 1.391.356 1.715a1.223 1.223 0 00.877.351c.635 0 1.084-.4 1.22-1.012h.541c-.165.946-.856 1.494-1.762 1.494zM47.949 24.825c0 .998-.015 1.564-.476 2.024-.347.334-.813.52-1.298.52-.484 0-.95-.186-1.297-.52-.463-.456-.476-1.026-.476-2.024v-.39c0-.598.043-1.21.476-1.638a1.874 1.874 0 012.595 0c.442.435.476 1.068.476 1.68v.348zm-.543-.267c0-.59-.021-1.11-.356-1.44a1.242 1.242 0 00-.877-.36 1.253 1.253 0 00-.877.36c-.356.35-.356.87-.356 1.563v.498c0 .541.028 1.034.356 1.357a1.239 1.239 0 00.877.358 1.254 1.254 0 00.877-.358c.35-.344.356-.886.356-1.462v-.516zM53.01 28.536v-1.21h-3.558v-5.002h.541v4.525h2.403v-4.527h.542v4.527h.606v1.687h-.534zM57.949 27.327v-4.084l-2.581 4.084h-.513v-5.003h.541V26.4l2.58-4.076h.514v5.003h-.541zM63.307 27.327l-.407-1.131h-2.22l-.406 1.13h-.578l1.868-5.002h.456l1.861 5.003h-.574zM61.8 23.089l-.951 2.642h1.897L61.8 23.09zM68.24 27.327V22.8h-1.726v1.715c0 2.11-.513 2.814-1.483 2.814h-.257v-.48h.135c.628 0 1.077-.415 1.077-2.496v-2.032h2.795v5.002l-.542.003zM72.344 27.327H70.44v-5.003h.541v2.06h1.362c.951 0 1.568.59 1.568 1.476 0 .884-.627 1.467-1.568 1.467zm-.05-2.467h-1.312v1.99h1.312c.678 0 1.07-.367 1.07-.992s-.392-.998-1.07-.998zM78.17 27.327v-2.284h-2.41v2.284h-.543v-5.003h.543v2.242h2.41v-2.244h.541v5.003l-.541.002zM82.275 27.327h-1.903v-5.003h.541v2.06h1.362c.952 0 1.568.59 1.568 1.476 0 .884-.628 1.467-1.568 1.467zm-1.363-2.467v1.99h1.317c.677 0 1.069-.367 1.069-.992s-.396-.998-1.07-.998h-1.316zm3.612 2.467v-5.003h.542v5.003h-.542zM89.373 27.327l-1.234-2.102-1.24 2.102h-.614l1.555-2.565-1.455-2.44h.628l1.126 1.976 1.127-1.976h.627l-1.462 2.44L90 27.327h-.627zM41.261 31.43v4.526h-.542v-4.525H39.25v-.478h3.48v.478H41.26zM43.998 35.956v-5.003h3.15v.478H44.54v1.765h2.22v.477h-2.22v1.807h2.609v.476h-3.151zM51.284 35.956l-1.234-2.1-1.24 2.1h-.614l1.555-2.566-1.455-2.437h.628l1.126 1.975 1.127-1.975h.627l-1.461 2.439 1.568 2.564h-.627zM56.078 35.956v-2.283h-2.41v2.283h-.541v-5.003h.541v2.243h2.41v-2.243h.542v5.003h-.542zM61.683 33.455c0 .998-.015 1.563-.476 2.024a1.874 1.874 0 01-2.595 0c-.464-.457-.476-1.026-.476-2.024v-.387c0-.598.043-1.209.476-1.641a1.874 1.874 0 012.595 0c.442.435.476 1.068.476 1.68v.348zm-.542-.268c0-.59-.021-1.11-.356-1.44a1.242 1.242 0 00-.877-.36 1.255 1.255 0 00-.877.36c-.357.35-.357.871-.357 1.563v.5c0 .54.028 1.032.357 1.356a1.241 1.241 0 00.877.359 1.253 1.253 0 00.877-.36c.35-.344.356-.886.356-1.461v-.517zM66.052 35.956v-4.525h-1.725v1.715c0 2.11-.513 2.814-1.483 2.814h-.256v-.478h.135c.627 0 1.076-.415 1.076-2.495v-2.034h2.795v5.003h-.542zM71.66 33.455c0 .998-.015 1.563-.477 2.024a1.874 1.874 0 01-2.595 0c-.464-.457-.476-1.026-.476-2.024v-.387c0-.598.042-1.209.476-1.641.347-.334.813-.52 1.298-.52.485 0 .95.186 1.297.52.442.435.476 1.068.476 1.68v.348zm-.542-.268c0-.59-.022-1.11-.357-1.44a1.24 1.24 0 00-.877-.36 1.256 1.256 0 00-.877.36c-.356.35-.356.871-.356 1.563v.5c0 .54.028 1.032.356 1.356a1.242 1.242 0 00.877.359 1.253 1.253 0 00.877-.36c.35-.344.357-.886.357-1.461v-.517zM73.737 31.43v4.526h-.542v-5.003h3.052v.478h-2.51zM80.613 35.956v-4.082l-2.58 4.082h-.514v-5.003h.541v4.077l2.583-4.077h.514v5.003h-.544zM85.908 35.956v-4.082l-2.58 4.082h-.514v-5.003h.542v4.077l2.58-4.077h.514v5.003h-.542zm-1.276-5.316c-.592 0-.998-.26-1.041-.885h.456c.029.344.238.52.585.52s.555-.176.585-.52h.456c-.043.622-.45.885-1.04.885zM3.762 9.094c0 .231-.062.458-.18.658L7.14 11.78a1.344 1.344 0 012.308 0l3.557-2.03a1.296 1.296 0 010-1.315l-.944-.54a2.334 2.334 0 00-.25 1.786l-1.82 1.045a2.435 2.435 0 00-1.694-.683c-.634 0-1.241.245-1.694.683L4.78 9.683a2.286 2.286 0 000-1.184l1.818-1.036a2.45 2.45 0 003.05.276c.306-.204.562-.475.746-.792l-.944-.54c-.116.2-.285.367-.487.482a1.344 1.344 0 01-1.82-.482L3.582 8.435c.118.2.18.428.18.66z" /><path d="M12.055 3.6l.944-.54a1.345 1.345 0 002.31 0l.944.54c-.318.541-.836.94-1.445 1.11v2.074c.609.17 1.126.568 1.444 1.109l-.944.54a1.324 1.324 0 00-.487-.483 1.345 1.345 0 00-1.82.482l-.944-.54c.317-.54.834-.938 1.443-1.109V4.71a2.438 2.438 0 01-1.445-1.11zm5.866.948a2.356 2.356 0 000 2.396l.944-.54a1.297 1.297 0 010-1.316l-.944-.54zM9.625 5.747c0 .231-.062.458-.18.658l.944.54a2.355 2.355 0 000-2.397l-.944.544c.117.2.18.425.18.655zM17.591 12.433c0-.42.114-.832.328-1.195l.943.54a1.298 1.298 0 000 1.316l-.943.54a2.354 2.354 0 01-.328-1.2zm-3.435-2.025a1.343 1.343 0 01-1.154-.659l-3.557 2.03a1.298 1.298 0 010 1.316l.944.54c.32-.54.41-1.182.25-1.787l1.82-1.038c.29.28.647.483 1.037.592v4.007l.658.375.658-.375v-4.011a2.434 2.434 0 001.444-1.11l-.944-.54c-.117.201-.285.368-.488.484a1.344 1.344 0 01-.668.176zM.324 14.584l.944.54a1.344 1.344 0 012.31 0l.944-.54a2.434 2.434 0 00-1.445-1.11V11.4a2.43 2.43 0 001.04-.594l1.818 1.038a2.33 2.33 0 00.25 1.79l.944-.543a1.296 1.296 0 010-1.316L3.573 9.748a1.344 1.344 0 01-2.308 0l-.945.54c.318.542.838.941 1.45 1.112v2.074c-.61.17-1.128.569-1.446 1.11z" /><path d="M4.855 15.781c0 .422-.114.836-.33 1.2l-.943-.54a1.297 1.297 0 000-1.317l.944-.54c.215.364.328.777.329 1.197zm3.435 2.027c.234 0 .464.061.667.177.203.116.371.282.488.483l4.71-2.687-.658-.375-3.51 2.004a2.452 2.452 0 00-3.05-.273 2.405 2.405 0 00-.746.792l.944.54c.116-.2.285-.368.487-.484.203-.116.434-.177.668-.177zm0-2.972c.426 0 .845-.112 1.213-.323.37-.21.675-.513.888-.878l-.944-.54c-.117.2-.285.367-.487.482a1.345 1.345 0 01-1.82-.482l-.944.544c.212.363.518.665.885.875.368.21.785.32 1.21.322zM1.093 15.78c0-.23.062-.457.179-.656l-.944-.54a2.357 2.357 0 000 2.396l.944-.543a1.292 1.292 0 01-.179-.657z" /><path d="M7.14 19.784l-3.556 2.028a1.344 1.344 0 00-2.312 0l-.944-.54c.184-.317.439-.589.746-.793a2.44 2.44 0 012.115-.29c.351.114.671.307.936.563l1.82-1.037a2.34 2.34 0 01.249-1.787l.944.54a1.298 1.298 0 000 1.317l.001-.001zM2.427 18.18c.426 0 .844-.11 1.213-.321.368-.21.674-.513.887-.877l-.944-.544c-.116.2-.284.366-.487.482a1.343 1.343 0 01-1.819-.482l-.944.54c.212.364.517.666.885.877.367.211.784.323 1.21.325zM26.545 13.473v-2.074a2.434 2.434 0 001.444-1.111l-.944-.54a1.344 1.344 0 01-2.31 0l-3.555 2.028a1.298 1.298 0 010 1.317l.944.54a2.333 2.333 0 00.251-1.79l1.817-1.04c.29.28.648.484 1.04.593v2.074a2.434 2.434 0 00-1.445 1.11l.944.54c.117-.2.285-.367.487-.483a1.345 1.345 0 011.821.483l.944-.54a2.434 2.434 0 00-1.438-1.107z" /><path d="M27.215 15.78c0 .231-.063.458-.18.658l.944.54a2.357 2.357 0 000-2.397l-.944.54c.118.2.18.427.18.659zM24.731 16.434l-.944.54a2.356 2.356 0 010-2.396l.944.54a1.297 1.297 0 000 1.316zm-6.406.968l-3.514-2-.655.376 4.71 2.685c.117-.2.285-.367.487-.483a1.344 1.344 0 011.822.483l.944-.54a2.434 2.434 0 00-1.444-1.11v-2.076a2.434 2.434 0 001.442-1.108l-.943-.54c-.117.2-.285.366-.488.482a1.345 1.345 0 01-1.819-.482l-.943.54c.317.54.834.937 1.442 1.108v2.076c-.391.107-.75.31-1.041.59z" /><path d="M27.985 21.271l-.943.54a1.324 1.324 0 00-.488-.483 1.345 1.345 0 00-1.82.483l-3.558-2.028a1.298 1.298 0 000-1.317l.944-.54a2.33 2.33 0 01.25 1.787l1.821 1.039a2.451 2.451 0 013.047-.272c.307.203.562.474.746.79l.001.001zm-2.1-3.094c.426 0 .844-.111 1.213-.322.368-.21.675-.513.887-.877l-.943-.54a1.345 1.345 0 01-2.308 0l-.945.54c.213.364.518.666.886.877.368.21.785.322 1.21.323zM14.155 20.072c-.633 0-1.241.244-1.693.682l-1.821-1.038a2.284 2.284 0 000-1.183l3.514-2.005 3.513 2.002a2.327 2.327 0 00.252 1.791l.944-.54a1.297 1.297 0 010-1.317l-4.709-2.684-4.71 2.687a1.298 1.298 0 010 1.317l3.558 2.028c.117-.2.285-.367.487-.483a1.344 1.344 0 011.821.483l.944-.544a2.413 2.413 0 00-.888-.876 2.452 2.452 0 00-1.212-.32z" /><path d="M22.12 24.617l-.944.543a1.323 1.323 0 00-.487-.483 1.344 1.344 0 00-1.822.483l-.944-.54c.212-.364.518-.668.887-.879a2.446 2.446 0 012.428 0c.369.211.675.515.887.88l-.005-.004zm2.43-2.147c0-.231.061-.458.179-.658l-3.558-2.028c-.117.2-.285.366-.487.481a1.344 1.344 0 01-1.819-.48l-.944.54a2.44 2.44 0 002.86 1.078c.35-.116.67-.308.935-.564l1.819 1.038a2.335 2.335 0 00.25 1.792l.944-.544a1.303 1.303 0 01-.179-.655zm-9.062 0c0 .23-.062.458-.18.658l.944.54a2.351 2.351 0 000-2.398l-.943.544c.119.2.182.426.183.658l-.004-.002zM8.29 23.414a2.45 2.45 0 00-1.215.323c-.369.21-.675.515-.888.88l.944.54a1.344 1.344 0 012.312 0l.944-.54a2.413 2.413 0 00-.886-.879 2.453 2.453 0 00-1.211-.324z" /><path d="M4.525 23.67c.216-.365.33-.78.33-1.201a2.392 2.392 0 00-.079-.591l1.82-1.038c.453.438 1.061.683 1.695.683.633 0 1.242-.245 1.694-.683l1.82 1.037a2.332 2.332 0 00.25 1.791l.944-.54a1.297 1.297 0 010-1.316l-3.555-2.028c-.117.2-.285.366-.487.481a1.344 1.344 0 01-1.82-.48l-3.555 2.028a1.297 1.297 0 010 1.317l.943.54zM17.918 6.943l.943-.54a1.345 1.345 0 002.31 0l3.556 2.028a1.296 1.296 0 000 1.316l-3.555 2.028a1.324 1.324 0 00-.488-.484 1.344 1.344 0 00-1.822.484l-.944-.54a2.438 2.438 0 012.86-1.082c.351.115.672.308.936.563l1.82-1.037a2.348 2.348 0 01-.08-.59c.002-.2.028-.399.08-.592l-1.82-1.036a2.45 2.45 0 01-3.051.276 2.404 2.404 0 01-.745-.793zm-2.426 2.15c0 .23-.062.458-.18.658l.944.54a2.355 2.355 0 000-2.397l-.944.54c.118.2.18.427.18.659zM6.191 4.551c.213-.365.519-.668.888-.879a2.447 2.447 0 012.427 0c.369.211.675.514.887.879l-.944.544a1.323 1.323 0 00-.487-.483 1.344 1.344 0 00-1.82.483l-.95-.544zm5.865-3.345a2.35 2.35 0 000 2.396l.944-.54a1.297 1.297 0 010-1.317l-.944-.539zM13.004 1.743a1.344 1.344 0 012.306 0l.944-.543a2.408 2.408 0 00-.887-.878 2.446 2.446 0 00-2.425 0c-.369.21-.675.513-.887.878l.949.543z" /><path d="M1.27 8.433a1.344 1.344 0 012.308 0l3.558-2.03a1.298 1.298 0 010-1.316l-.944-.54c-.32.54-.41 1.182-.25 1.787l-1.826 1.04a2.45 2.45 0 00-3.047-.271 2.404 2.404 0 00-.745.79l.946.54z" /><path d="M1.093 9.093c0-.231.062-.458.179-.658l-.944-.54a2.357 2.357 0 000 2.397l.944-.544a1.302 1.302 0 01-.18-.655zM25.886 6.69c-.634 0-1.242.245-1.694.683l-1.82-1.038a2.32 2.32 0 00-.252-1.787l-.944.54a1.3 1.3 0 010 1.317l3.556 2.027c.117-.2.285-.366.487-.481a1.344 1.344 0 011.82.481l.943-.54a2.414 2.414 0 00-.885-.878 2.451 2.451 0 00-1.212-.324zM27.218 9.092c0 .231-.062.458-.179.658l.944.54a2.355 2.355 0 000-2.397l-.944.54c.118.2.18.428.179.66zM22.121 4.544l-.943.54a1.324 1.324 0 00-.488-.481 1.344 1.344 0 00-1.819.481l-.943-.54c.212-.364.518-.667.887-.877a2.446 2.446 0 012.425 0c.369.21.675.513.887.877h-.006zM15.495 2.4c0 .23-.062.457-.179.657l.944.54a2.355 2.355 0 000-2.397l-.944.544c.118.2.18.426.179.656zM21.176 26.471a1.297 1.297 0 000-1.316l.944-.543a2.352 2.352 0 010 2.397l-.944-.538zm6.812-2.805l-.944-.54a1.344 1.344 0 01-2.308 0l-.944.544c.212.365.518.668.887.878a2.446 2.446 0 002.426 0c.37-.21.675-.513.888-.878l-.005-.004z" /><path d="M27.215 22.468c0 .23-.063.458-.18.658l.944.54a2.356 2.356 0 000-2.397l-.944.54c.118.2.18.427.18.659zM.326 23.67l.944-.54c.117.2.285.366.487.48a1.345 1.345 0 001.817-.48l.944.54a2.408 2.408 0 01-.887.877 2.446 2.446 0 01-2.424 0 2.408 2.408 0 01-.887-.877h.006zm6.63 2.143c0-.23.06-.456.177-.655l-.944-.54a2.357 2.357 0 000 2.396l.944-.543a1.295 1.295 0 01-.178-.657h.001z" /><path d="M1.094 22.467c0-.23.06-.456.177-.656l-.943-.54a2.357 2.357 0 000 2.397l.943-.54a1.298 1.298 0 01-.177-.661zM27.7 35.412H14.815v-5.881l3.51-2.003a2.449 2.449 0 003.047.275c.307-.204.563-.475.747-.791l-.944-.544a1.32 1.32 0 01-.809.62 1.348 1.348 0 01-1.408-.47 1.309 1.309 0 01-.09-1.466l-.944-.54a2.336 2.336 0 00-.25 1.787l-2.856 1.631v-3.253a2.434 2.434 0 001.443-1.109l-.944-.54c-.117.2-.285.367-.487.483a1.345 1.345 0 01-1.821-.483l-.944.54c.317.54.835.938 1.444 1.109v3.255L10.652 26.4c.051-.192.078-.39.079-.59 0-.42-.113-.832-.326-1.195l-.944.54c.176.302.224.662.133.999a1.318 1.318 0 01-.62.799c-.307.175-.67.222-1.012.132a1.33 1.33 0 01-.809-.613l-.944.544c.185.313.44.581.746.783a2.44 2.44 0 002.102.284c.35-.113.668-.303.931-.556l3.513 2.004v5.881H.614a.441.441 0 00-.31.127.43.43 0 00.31.738h12.863a2.326 2.326 0 01-.731 1.341c-.833.772-2.314 1.112-4.283.984a9.213 9.213 0 00-2.407.135c-.04 0-.08.008-.118.023l-.01.005c-2.256.5-3.146 1.914-3.31 2.867a.321.321 0 00.057.241.329.329 0 00.48.06.324.324 0 00.111-.195c.013-.07.21-1.134 1.475-1.855-.111.311-.14.653-.169 1-.04.496-.086 1.058-.389 1.673a.322.322 0 00.145.448.333.333 0 00.446-.165c.357-.724.41-1.379.453-1.905.064-.786.1-1.22.939-1.566.323-.063.65-.105.978-.125-.38.46-.464 1.097-.551 1.757-.123.95-.275 2.133-1.296 3.328a.326.326 0 00.282.536.334.334 0 00.225-.115c1.147-1.34 1.314-2.63 1.447-3.665.147-1.139.255-1.654 1.215-1.83 2.162.132 3.753-.257 4.73-1.161.1-.095.195-.197.282-.304-.269.771-.82 1.648-1.956 2.592-.581.477-1.205.9-1.864 1.267-1.018.594-1.753 1.023-2.019 2.512a.322.322 0 00.055.242.33.33 0 00.592-.13c.213-1.194.744-1.503 1.706-2.066l.278-.163c-.216.506-.326 1.01-.428 1.476-.236 1.087-.437 2.02-1.73 2.86a.324.324 0 00-.136.365.324.324 0 00.316.23.336.336 0 00.18-.052c1.522-.986 1.773-2.146 2.016-3.267.027-.13.055-.256.085-.383.069.344.17.683.267 1.01.216.723.44 1.47.315 2.175a.321.321 0 00.054.242.33.33 0 00.593-.13c.152-.854-.093-1.677-.331-2.473-.363-1.214-.676-2.263.479-3.225.968-.807 1.552-1.581 1.905-2.29.074.849.174 1.596.276 2.268.236 1.541-.157 2.014-.602 2.563-.446.55-.96 1.17-.866 2.752.005.082.042.16.103.217a.331.331 0 00.225.088h.02a.33.33 0 00.226-.108.323.323 0 00.082-.235c-.078-1.33.306-1.804.717-2.305.164-.19.313-.393.445-.607.201 1.787.017 3.16-1.573 5.365a.32.32 0 00.077.452.331.331 0 00.458-.076c2.161-3 1.899-4.643 1.464-7.363-.145-.903-.315-1.945-.416-3.216.36.742.85 1.298 1.31 1.815 1.157 1.307 2.156 2.434.687 6.204a.321.321 0 00.188.42.333.333 0 00.425-.186c.76-1.947.889-3.285.689-4.296.451.58.747 1.37.588 2.857a.32.32 0 00.168.32c.038.02.08.032.123.037h.035a.33.33 0 00.22-.083.323.323 0 00.106-.207c.054-.46.06-.924.018-1.386.42.427.88.824 1.264 1.038a.334.334 0 00.447-.124.32.32 0 00-.125-.442c-.683-.38-1.758-1.554-2.124-2.125a.178.178 0 00-.017-.023c-.277-.428-.616-.747-.944-1.048a6.113 6.113 0 01-.676-.7 13.611 13.611 0 00-.583-.686c-.477-.538-.963-1.087-1.29-1.843.697.603 1.76.827 2.9.954h.012c1.61.175 1.841 1.32 2.11 2.649.113.554.229 1.129.46 1.631a.332.332 0 00.606-.022.32.32 0 00-.009-.248c-.199-.43-.303-.943-.413-1.485-.061-.301-.125-.609-.207-.91.277.14.565.256.852.37.753.299 1.403.557 1.681 1.224a.325.325 0 00.304.201.328.328 0 00.302-.199.321.321 0 00.001-.248c-.382-.922-1.227-1.257-2.045-1.581-.652-.259-1.268-.503-1.662-1.03a2.581 2.581 0 00-.158-.19c2.062.186 4.041.537 4.593 2.544a.323.323 0 00.314.24.329.329 0 00.285-.164.322.322 0 00.032-.246c-.73-2.664-3.447-2.883-5.843-3.078-2.46-.198-4.037-.417-4.263-2.057H27.7a.441.441 0 00.31-.127.43.43 0 00-.31-.739v.005z" /></g></symbol></defs><use id="pic-logo-itv-usage" xlink:href="#pic-logo-itv" class="sprite-symbol-usage" /><use id="pic-logo-teplitsa-usage" xlink:href="#pic-logo-teplitsa" class="sprite-symbol-usage" /></svg>