<?xml version="1.0" encoding="UTF-8" standalone="no"?>
<svg width="161px" height="40px" viewBox="0 0 161 40" version="1.1" xmlns="http://www.w3.org/2000/svg" xmlns:xlink="http://www.w3.org/1999/xlink" xmlns:sketch="http://www.bohemiancoding.com/sketch/ns">
    <!-- Generator: Sketch 3.3.3 (12072) - http://www.bohemiancoding.com/sketch -->
    <title>Group-2 + ТЕПЛИЦА-СОЦИАЛЬНЫХ</title>
    <desc>Created with Sketch.</desc>
    <defs></defs>
    <g id="Page-1" stroke="none" stroke-width="1" fill="none" fill-rule="evenodd" sketch:type="MSPage">
        <g id="Group-2-+-ТЕПЛИЦА-СОЦИАЛЬНЫХ" sketch:type="MSLayerGroup">
            <g id="Group-2" fill="#AAAAAA" sketch:type="MSShapeGroup">
                <path d="M7.08568604,9.18837453 C6.66639498,9.18837453 6.30068001,9.40371532 6.10467808,9.7232735 L6.10467808,9.7232735 L3.08012539,8.0749434 C3.17662889,7.91830339 3.23353267,7.73560902 3.23353267,7.54067225 L3.23353267,7.54067225 C3.23353267,7.34573548 3.17662889,7.16335502 3.08079093,7.00608719 L3.08079093,7.00608719 L6.10467808,5.35932663 C6.30068001,5.67919872 6.66606221,5.8942256 7.08568604,5.8942256 L7.08568604,5.8942256 C7.50564263,5.8942256 7.87069207,5.67919872 8.06735954,5.35964054 L8.06735954,5.35964054 L11.0912467,7.00765673 C10.9944104,7.16492456 10.9385049,7.34730502 10.9385049,7.54224179 L10.9385049,7.54224179 C10.9385049,7.73655075 10.9944104,7.91924511 11.0912467,8.07651294 L11.0912467,8.07651294 L10.2862744,8.5147283 C10.109906,8.22844434 10.0074126,7.89664375 10.0074126,7.54224179 L10.0074126,7.54224179 C10.0074126,7.37618454 10.0320376,7.21577763 10.0739667,7.06164888 L10.0739667,7.06164888 L8.5262503,6.2181785 C8.15387991,6.56065196 7.64573909,6.77285366 7.08568604,6.77285366 L7.08568604,6.77285366 C6.52596576,6.77285366 6.01849048,6.56065196 5.64645286,6.2184924 L5.64645286,6.2184924 L4.09873644,7.06227669 C4.13966723,7.21577763 4.16429226,7.37555672 4.16429226,7.54067225 L4.16429226,7.54067225 C4.16429226,7.70767122 4.13933446,7.86839204 4.09707258,8.02377643 L4.09707258,8.02377643 L5.64445623,8.86599118 C6.01649385,8.52257599 6.52496745,8.30974647 7.08568604,8.30974647 L7.08568604,8.30974647 C7.8487292,8.30974647 8.51460333,8.70370082 8.87199904,9.28474424 L8.87199904,9.28474424 L8.06735954,9.7232735 C7.87069207,9.40371532 7.50564263,9.18837453 7.08568604,9.18837453" id="path144" transform="translate(7.085686, 7.541300) scale(1, -1) translate(-7.085686, -7.541300) "></path>
                <path d="M12.0722546,6.46961946 C11.652298,6.46961946 11.2862503,6.68558806 11.0902484,7.00514625 L11.0902484,7.00514625 L10.2859416,6.5672448 C10.5528237,6.13373807 10.9910827,5.80476265 11.5138654,5.66601538 L11.5138654,5.66601538 L11.5138654,3.98095806 C10.9914155,3.8425247 10.5534893,3.51386319 10.2862744,3.08035645 L10.2862744,3.08035645 L11.0912467,2.6421411 C11.2872486,2.96201319 11.6526308,3.17704007 12.0722546,3.17704007 L12.0722546,3.17704007 C12.4922112,3.17704007 12.8575934,2.96201319 13.0535954,2.64276891 L13.0535954,2.64276891 L13.8585676,3.08098427 C13.5913528,3.51386319 13.1530938,3.8425247 12.6309766,3.98095806 L12.6309766,3.98095806 L12.6309766,5.66601538 C13.1537593,5.80476265 13.5926839,6.13373807 13.859566,6.56755871 L13.859566,6.56755871 L13.0545937,7.00608797 C12.8589245,6.68558806 12.492544,6.46961946 12.0722546,6.46961946 L12.0722546,6.46961946 L12.0722546,6.46961946 Z M14.994314,4.82348672 C14.994314,4.46971258 15.0968073,4.13791198 15.2725102,3.85162803 L15.2725102,3.85162803 L16.0771497,4.29015729 C15.980979,4.4467973 15.9254063,4.62917776 15.9254063,4.82348672 L15.9254063,4.82348672 C15.9254063,5.01905131 15.9816446,5.20111786 16.0788136,5.35932741 L16.0788136,5.35932741 L15.2735086,5.79754277 C15.0968073,5.5109449 14.994314,5.17820259 14.994314,4.82348672 L14.994314,4.82348672 L14.994314,4.82348672 Z M8.066694,5.35807178 C8.16353026,5.20049004 8.22010128,5.01842349 8.22010128,4.82348672 L8.22010128,4.82348672 C8.22010128,4.62854995 8.16353026,4.44616949 8.06735954,4.28890166 L8.06735954,4.28890166 L8.87199904,3.85100021 C9.04803472,4.13759808 9.15086086,4.46908476 9.15086086,4.82348672 L9.15086086,4.82348672 C9.15086086,5.17820259 9.04803472,5.51031709 8.87199904,5.79691495 L8.87199904,5.79691495 L8.066694,5.35807178 L8.066694,5.35807178 Z" id="path164" transform="translate(12.072754, 4.824115) scale(1, -1) translate(-12.072754, -4.824115) "></path>
                <path d="M12.0722546,12.4385768 C11.6526308,12.4385768 11.2872486,12.6536037 11.0912467,12.9734758 L11.0912467,12.9734758 L8.06735954,11.3254596 C8.16353026,11.1678779 8.22010128,10.9858113 8.22010128,10.7908746 L8.22010128,10.7908746 C8.22010128,10.5959378 8.16386303,10.4132434 8.06735954,10.2562895 L8.06735954,10.2562895 L8.87199904,9.81776026 C9.04836749,10.1043581 9.15086086,10.4358448 9.15086086,10.7908746 L9.15086086,10.7908746 C9.15086086,10.9569318 9.1265686,11.1170248 9.0846395,11.2717814 L9.0846395,11.2717814 L10.6323559,12.114624 C10.8759441,11.8908077 11.1774343,11.7241226 11.5138654,11.6343449 L11.5138654,11.6343449 L11.5141982,8.37943451 L11.5131999,8.37943451 L12.0722546,8.0749439 L12.6316422,8.37943451 L12.6313094,8.38006233 L12.6309766,11.6343449 C13.1534266,11.7730922 13.5916856,12.1017537 13.8589004,12.5349466 L13.8589004,12.5349466 L13.0539281,12.9734758 C12.8575934,12.6536037 12.4922112,12.4385768 12.0722546,12.4385768 M14.994314,10.7940136 C14.994314,10.43867 15.0971401,10.1059276 15.2738413,9.81964371 L15.2738413,9.81964371 L16.0788136,10.258173 C15.9816446,10.4157547 15.9254063,10.5984491 15.9254063,10.7940136 L15.9254063,10.7940136 C15.9254063,10.9883226 15.980979,11.1697613 16.076817,11.3267153 L16.076817,11.3267153 L15.2721775,11.7652445 C15.0968073,11.4786467 14.994314,11.1477878 14.994314,10.7940136" id="path184" transform="translate(12.073087, 10.524210) scale(1, -1) translate(-12.073087, -10.524210) "></path>
                <path d="M2.09878466,11.9046203 C1.67949361,11.9046203 1.31411141,12.1205889 1.11777671,12.4401471 L1.11777671,12.4401471 L0.313469978,12.0016178 C0.580019291,11.5681111 1.01827827,11.2403913 1.54072824,11.1010162 L1.54072824,11.1010162 L1.54072824,9.4169006 C1.01761273,9.27752552 0.579020979,8.94855009 0.312471666,8.51472945 L0.312471666,8.51472945 L1.11677839,8.0765141 C1.31344586,8.39638619 1.67916084,8.61298261 2.09878466,8.61298261 L2.09878466,8.61298261 C2.51907403,8.61298261 2.88512177,8.39638619 3.08079093,8.0765141 L3.08079093,8.0765141 L3.8857632,8.51472945 C3.61888112,8.948864 3.18028937,9.27752552 2.65750663,9.4169006 L2.65750663,9.4169006 L2.65750663,11.1010162 C2.99460333,11.1904799 3.29742464,11.3577928 3.54134555,11.5828647 L3.54134555,11.5828647 L5.08739812,10.7400222 C5.04580178,10.5858934 5.02117675,10.4251726 5.02117675,10.2591154 L5.02117675,10.2591154 C5.02117675,9.90408558 5.12333735,9.57259889 5.30003858,9.28537321 L5.30003858,9.28537321 L6.10467808,9.72453029 C6.00817458,9.88148421 5.95193634,10.0635508 5.95193634,10.2591154 L5.95193634,10.2591154 C5.95193634,10.4534243 6.00817458,10.6354909 6.10467808,10.7933865 L6.10467808,10.7933865 L3.08079093,12.4401471 C2.88445623,12.1205889 2.51874126,11.9046203 2.09878466,11.9046203" id="path204" transform="translate(3.208575, 10.258331) scale(1, -1) translate(-3.208575, -10.258331) "></path>
                <path d="M7.08568604,14.6205498 C6.66639498,14.6205498 6.30068001,14.8358906 6.10467808,15.1560766 L6.10467808,15.1560766 L5.30003858,14.7169195 C5.65743429,14.1358761 6.32330842,13.7422357 7.08568604,13.7422357 L7.08568604,13.7422357 C7.8487292,13.7422357 8.51460333,14.1358761 8.87199904,14.7175473 L8.87199904,14.7175473 L8.06735954,15.1560766 C7.87102484,14.8358906 7.50564263,14.6205498 7.08568604,14.6205498 L7.08568604,14.6205498 L7.08568604,14.6205498 Z M3.08079093,13.5080604 C3.17696166,13.3511065 3.23353267,13.1690399 3.23353267,12.974731 L3.23353267,12.974731 C3.23353267,12.7788525 3.17662889,12.596472 3.07979262,12.4388903 L3.07979262,12.4388903 L3.88476489,12.000361 C4.06146612,12.2872728 4.16429226,12.6197012 4.16429226,12.974731 L4.16429226,12.974731 C4.16429226,13.3291329 4.06179889,13.6599918 3.8857632,13.9462758 L3.8857632,13.9462758 L3.08079093,13.5080604 L3.08079093,13.5080604 Z M8.5262503,11.6512955 C8.15387991,11.9943968 7.64573909,12.2062846 7.08568604,12.2062846 L7.08568604,12.2062846 C6.3223101,12.2062846 5.65610321,11.8126441 5.2987075,11.230659 L5.2987075,11.230659 L6.10401254,10.7921297 C6.30001447,11.1120018 6.66572944,11.3285982 7.08568604,11.3285982 L7.08568604,11.3285982 C7.5059754,11.3285982 7.87169038,11.1126296 8.06769231,10.7924436 L8.06769231,10.7924436 L12.0722546,12.974731 L11.5131999,13.2792216 L8.5262503,11.6512955 L8.5262503,11.6512955 Z" id="path224" transform="translate(7.576024, 12.974103) scale(1, -1) translate(-7.576024, -12.974103) "></path>
                <path d="M0.965168073,12.9763636 C0.965168073,13.1706726 1.02074078,13.3527391 1.1169115,13.509693 L0.312272004,13.9482223 C0.136569086,13.6619383 0.0340757174,13.3307656 0.0340757174,12.9763636 C0.0340757174,12.6213338 0.137234627,12.2892193 0.313935857,12.0016797 L1.11890813,12.4405229 C1.02173909,12.5981047 0.965168073,12.780799 0.965168073,12.9763636" id="path236" transform="translate(0.576492, 12.974951) scale(1, -1) translate(-0.576492, -12.974951) "></path>
                <path d="M2.09898433,16.4601446 C2.86136195,16.4601446 3.5269033,16.8525294 3.88463178,17.4338867 L3.07965951,17.8727299 C2.88332481,17.5531717 2.51860815,17.3381448 2.09898433,17.3381448 C1.68002604,17.3381448 1.31530938,17.5531717 1.11897468,17.8721021 L0.314002411,17.4338867 C0.67173089,16.8525294 1.33693947,16.4601446 2.09898433,16.4601446 M6.10521051,15.1561714 L3.08165614,13.508783 C2.88598698,13.8292829 2.51993923,14.0465071 2.09898433,14.0465071 C1.67836219,14.0465071 1.31231444,13.8292829 1.11631252,13.508783 L0.311340246,13.9469984 C0.668403183,14.5302391 1.33527562,14.9241935 2.09898433,14.9241935 C2.65937015,14.9241935 3.1671782,14.7123057 3.53954859,14.3695183 L5.08693224,15.2117331 C5.04533591,15.3658618 5.02104365,15.5262687 5.02104365,15.6920121 C5.02104365,16.046414 5.12320424,16.3772729 5.29857439,16.6635569 L6.10387943,16.2253415 C6.00770871,16.0683876 5.95180323,15.8869488 5.95180323,15.6920121 C5.95180323,15.4964475 6.00837425,15.3143809 6.10521051,15.1561714" id="path240" transform="translate(3.208275, 15.690756) scale(1, -1) translate(-3.208275, -15.690756) "></path>
                <path d="M22.0460574,11.9014818 C21.6261008,11.9014818 21.2600531,12.1168226 21.0640511,12.4376364 L21.0640511,12.4376364 L18.0408295,10.790248 C18.137333,10.6332941 18.1932385,10.4512276 18.1932385,10.2569186 L18.1932385,10.2569186 C18.1932385,10.061354 18.1363347,9.87865962 18.0398312,9.72107788 L18.0398312,9.72107788 L18.8444707,9.28254862 C19.0211719,9.56946039 19.1243308,9.90157489 19.1243308,10.2569186 L19.1243308,10.2569186 C19.1243308,10.4229759 19.0997058,10.5830689 19.0581095,10.7368837 L19.0581095,10.7368837 L20.604162,11.5787846 C20.8477502,11.3543404 21.1502387,11.1870276 21.4876682,11.0972499 L21.4876682,11.0972499 L21.4876682,9.41250647 C20.9648855,9.27407311 20.5266265,8.94541159 20.2597444,8.51190486 L20.2597444,8.51190486 L21.0647167,8.0736895 C21.2603858,8.3935616 21.6264336,8.6095302 22.0460574,8.6095302 L22.0460574,8.6095302 C22.4653484,8.6095302 22.8307306,8.3935616 23.0273981,8.07431732 L23.0273981,8.07431732 L23.8317048,8.51253267 C23.56449,8.94541159 23.1268966,9.27407311 22.6047794,9.41250647 L22.6047794,9.41250647 L22.6047794,11.0972499 C23.1275621,11.236625 23.5661538,11.5652865 23.8327032,11.9994211 L23.8327032,11.9994211 L23.0280637,12.4376364 C22.8320617,12.1168226 22.4663468,11.9014818 22.0460574,11.9014818" id="path260" transform="translate(20.936267, 10.255663) scale(1, -1) translate(-20.936267, -10.255663) "></path>
                <path d="M23.1798736,12.9716879 C23.1798736,12.7767511 23.1236354,12.5946846 23.0271319,12.4371028 L23.8321042,11.9985736 C24.0081399,12.2854853 24.110966,12.6172859 24.110966,12.9716879 C24.110966,13.3267177 24.0081399,13.6588322 23.8317714,13.94543 L23.0271319,13.5069008 C23.1236354,13.349319 23.1798736,13.1672525 23.1798736,12.9716879" id="path272" transform="translate(23.569049, 12.972002) scale(1, -1) translate(-23.569049, -12.972002) "></path>
                <path d="M17.0588232,14.6202369 C16.6401977,14.6202369 16.2751483,14.8355777 16.0788136,15.1545081 L16.0788136,15.1545081 L15.2741741,14.7159788 C15.5410562,14.2834138 15.9789824,13.9553801 16.5007668,13.8166328 L16.5007668,13.8166328 L16.5007668,12.1306338 C16.1643357,12.0411701 15.8628454,11.8741711 15.6195901,11.6506687 L15.6195901,11.6506687 L12.6316422,13.2757696 L12.0722546,12.971279 L16.0771497,10.7902473 C16.2731517,11.1104333 16.6388667,11.3267158 17.0588232,11.3267158 L17.0588232,11.3267158 C17.4791126,11.3267158 17.8451604,11.1104333 18.0408295,10.7902473 L18.0408295,10.7902473 L18.8458018,11.2287766 C18.5785869,11.6629111 18.1406607,11.9915726 17.617878,12.1306338 L17.617878,12.1306338 L17.617878,13.8166328 C18.1396624,13.9553801 18.5775886,14.2834138 18.8444707,14.7159788 L18.8444707,14.7159788 L18.0398312,15.1545081 C17.8434965,14.8355777 17.4781143,14.6202369 17.0588232,14.6202369 M19.9808826,12.9725346 C19.9808826,12.6181327 20.0833759,12.286646 20.2597444,11.9994203 L20.2597444,11.9994203 L21.0647167,12.4379496 C20.9682132,12.5952174 20.9119749,12.7775979 20.9119749,12.9725346 L20.9119749,12.9725346 C20.9119749,13.1674714 20.9682132,13.349538 21.0647167,13.5071197 L21.0647167,13.5071197 L20.2597444,13.9453351 C20.0833759,13.659365 19.9808826,13.3272505 19.9808826,12.9725346" id="path292" transform="translate(16.568486, 12.972378) scale(1, -1) translate(-16.568486, -12.972378) "></path>
                <path d="M22.0460574,17.3358525 C21.6264336,17.3358525 21.2607186,17.5518211 21.0647167,17.8707515 L21.0647167,17.8707515 L20.2597444,17.4322222 C20.6174729,16.850551 21.283347,16.4581662 22.0460574,16.4581662 L22.0460574,16.4581662 C22.8087678,16.4581662 23.4746419,16.8511788 23.8320376,17.4322222 L23.8320376,17.4322222 L23.0273981,17.8707515 C22.8310634,17.5518211 22.4656812,17.3358525 22.0460574,17.3358525 L22.0460574,17.3358525 L22.0460574,17.3358525 Z M18.0408295,16.2230492 C18.137333,16.0664092 18.1932385,15.8840287 18.1932385,15.6897197 L18.1932385,15.6897197 C18.1932385,15.4941552 18.1363347,15.3114608 18.0398312,15.1538791 L18.0398312,15.1538791 L21.0647167,13.5068046 C21.2603858,13.8263628 21.6261008,14.0423314 22.0457246,14.0423314 L22.0457246,14.0423314 C22.4653484,14.0423314 22.8307306,13.8263628 23.0273981,13.5071185 L23.0273981,13.5071185 L23.8320376,13.9453338 C23.4743091,14.527319 22.808435,14.9203316 22.0457246,14.9203316 L22.0457246,14.9203316 C21.4863371,14.9203316 20.9791946,14.7081299 20.6068242,14.3665982 L20.6068242,14.3665982 L19.0584422,15.2103825 C19.0997058,15.3641973 19.1243308,15.5239764 19.1243308,15.6897197 L19.1243308,15.6897197 C19.1243308,16.0441217 19.0218375,16.3759223 18.8458018,16.6615784 L18.8458018,16.6615784 L18.0408295,16.2230492 L18.0408295,16.2230492 Z" id="path312" transform="translate(20.935934, 15.688778) scale(1, -1) translate(-20.935934, -15.688778) "></path>
                <path d="M8.06769231,15.6900342 C8.16386303,15.5324525 8.22010128,15.3510137 8.22010128,15.1560769 L8.22010128,15.1560769 C8.22010128,14.9611402 8.16353026,14.7784458 8.06636122,14.6208641 L8.06636122,14.6208641 L11.0912467,12.9734757 C11.2875814,13.2930339 11.6529636,13.5090025 12.0725874,13.5090025 L12.0725874,13.5090025 C12.4922112,13.5090025 12.8575934,13.2936617 13.0539281,12.9734757 L13.0539281,12.9734757 L13.8589004,13.4126328 C13.5008392,13.9936762 12.8356306,14.3866888 12.0725874,14.3866888 L12.0725874,14.3866888 C11.5131999,14.3866888 11.0053918,14.1754288 10.6330215,13.8332693 L10.6330215,13.8332693 L9.0846395,14.6761118 C9.1265686,14.8299267 9.15086086,14.9906475 9.15086086,15.1560769 L9.15086086,15.1560769 C9.15086086,15.3224481 9.1265686,15.4831689 9.0846395,15.6366699 L9.0846395,15.6366699 L12.0725874,17.2645959 L15.0605353,15.6388672 C15.0186062,15.4847385 14.994314,15.3243315 14.994314,15.1579604 L14.994314,15.1579604 C14.994314,14.8026167 15.0971401,14.4708161 15.2738413,14.1839043 L15.2738413,14.1839043 L16.0788136,14.6221197 C15.9816446,14.7797014 15.9254063,14.9623958 15.9254063,15.1579604 L15.9254063,15.1579604 C15.9254063,15.3522693 15.980979,15.534022 16.0771497,15.6912898 L16.0771497,15.6912898 L12.0722546,17.8723215 L8.06769231,15.6900342 L8.06769231,15.6900342 Z" id="path332" transform="translate(12.072587, 15.422899) scale(1, -1) translate(-12.072587, -15.422899) "></path>
                <path d="M17.0588232,20.0539817 C16.6401977,20.0539817 16.2751483,20.2686947 16.0788136,20.5876251 L16.0788136,20.5876251 L15.2738413,20.1494097 C15.6319026,19.5680524 16.2971112,19.1756676 17.0588232,19.1756676 L17.0588232,19.1756676 C17.6195418,19.1756676 18.1276827,19.3878693 18.5007186,19.7312845 L18.5007186,19.7312845 L20.0474367,18.888128 C20.0055076,18.7336853 19.9808826,18.5732784 19.9808826,18.4062794 L19.9808826,18.4062794 C19.9808826,18.0512497 20.0833759,17.719763 20.2597444,17.4325373 L20.2597444,17.4325373 L21.0647167,17.8716944 C20.9682132,18.0292761 20.9119749,18.2113427 20.9119749,18.4062794 L20.9119749,18.4062794 C20.9119749,18.6012162 20.9678804,18.7832828 21.0647167,18.9405506 L21.0647167,18.9405506 L18.0398312,20.5876251 C17.8434965,20.2686947 17.4781143,20.0539817 17.0588232,20.0539817 L17.0588232,20.0539817 L17.0588232,20.0539817 Z M13.0539281,18.9389811 C13.1504316,18.782341 13.2070027,18.5993328 13.2070027,18.404396 L13.2070027,18.404396 C13.2070027,18.2094592 13.1504316,18.0273927 13.0539281,17.8701248 L13.0539281,17.8701248 L13.8589004,17.4315956 C14.0356016,17.7175656 14.138095,18.0493662 14.138095,18.404396 L14.138095,18.404396 C14.138095,18.7594258 14.0352689,19.0909125 13.8589004,19.3781381 L13.8589004,19.3781381 L13.0539281,18.9389811 L13.0539281,18.9389811 Z M15.2721775,16.6618935 L16.0771497,16.2236782 C16.2731517,16.5435503 16.6388667,16.7601467 17.059156,16.7601467 L17.059156,16.7601467 C17.4791126,16.7601467 17.8448276,16.544492 18.0408295,16.2236782 L18.0408295,16.2236782 L18.8458018,16.6628353 C18.4884061,17.2451343 17.8221992,17.6381469 17.059156,17.6381469 L17.059156,17.6381469 C16.2957801,17.6381469 15.6295732,17.2445065 15.2721775,16.6618935 L15.2721775,16.6618935 L15.2721775,16.6618935 Z" id="path352" transform="translate(17.059322, 18.405652) scale(1, -1) translate(-17.059322, -18.405652) "></path>
                <path d="M5.29804196,19.6113716 L6.10268146,19.1731563 C6.29901616,19.494284 6.66539667,19.7108804 7.08568604,19.7108804 L7.08568604,19.7108804 C7.50630817,19.7108804 7.87268869,19.494284 8.06835785,19.1737841 L8.06835785,19.1737841 L8.87333012,19.6119995 C8.51593441,20.1952402 7.84939474,20.5888807 7.08568604,20.5888807 L7.08568604,20.5888807 C6.32197733,20.5888807 5.6551049,20.1946124 5.29804196,19.6113716" id="path372" transform="translate(7.085686, 19.881018) scale(1, -1) translate(-7.085686, -19.881018) "></path>
                <path d="M7.08568604,18.8463779 C6.66672776,18.8463779 6.30167832,19.0610908 6.10534362,19.3797073 L6.10534362,19.3797073 L3.08145647,17.7323189 C3.1776272,17.5756789 3.23353267,17.3939263 3.23353267,17.2002451 L3.23353267,17.2002451 C3.23353267,17.0046805 3.17629612,16.8213584 3.07912708,16.6631488 L3.07912708,16.6631488 L3.88376658,16.2249335 C4.06080058,16.5121591 4.16429226,16.8445875 4.16429226,17.2002451 L4.16429226,17.2002451 C4.16429226,17.3663024 4.13933446,17.5263954 4.09840367,17.6805241 L4.09840367,17.6805241 L5.64545455,18.5227389 C6.01782493,18.1799515 6.52563299,17.9677498 7.08568604,17.9677498 L7.08568604,17.9677498 C7.64607186,17.9677498 8.15421268,18.1799515 8.52658307,18.5227389 L8.52658307,18.5227389 L10.0739667,17.6805241 C10.0323704,17.5257676 10.0074126,17.3650468 10.0074126,17.1983617 L10.0074126,17.1983617 C10.0074126,16.8433319 10.1102387,16.5115313 10.2866072,16.2255613 L10.2866072,16.2255613 L11.0912467,16.6640905 C10.995076,16.8213584 10.9385049,17.0034249 10.9385049,17.1983617 L10.9385049,17.1983617 C10.9385049,17.3932985 10.995076,17.5756789 11.0912467,17.7329468 L11.0912467,17.7329468 L8.06636122,19.3803351 C7.87002653,19.0610908 7.50497709,18.8463779 7.08568604,18.8463779" id="path392" transform="translate(7.085187, 17.802634) scale(1, -1) translate(-7.085187, -17.802634) "></path>
                <path d="M17.059156,9.18492245 C16.6388667,9.18492245 16.2734844,9.40089105 16.0771497,9.72107701 L16.0771497,9.72107701 L15.2725102,9.28254779 C15.6295732,8.70024873 16.2961129,8.30629439 17.059156,8.30629439 L17.059156,8.30629439 C17.6198746,8.30629439 18.1283482,8.51912391 18.5010514,8.86253909 L18.5010514,8.86253909 L20.0474367,8.02032434 C20.0055076,7.86619559 19.9808826,7.70516086 19.9808826,7.5387897 L19.9808826,7.5387897 C19.9808826,7.37336027 20.0051748,7.21326727 20.0471039,7.06008024 L20.0471039,7.06008024 L18.5000531,6.21786549 C18.1276827,6.56033895 17.6192091,6.77254065 17.0588232,6.77254065 L17.0588232,6.77254065 C16.2957801,6.77254065 15.6295732,6.37921412 15.2721775,5.79597334 L15.2721775,5.79597334 L16.076817,5.3580719 C16.2731517,5.6782579 16.6388667,5.89454041 17.0588232,5.89454041 L17.0588232,5.89454041 C17.4791126,5.89454041 17.8451604,5.6782579 18.0408295,5.3580719 L18.0408295,5.3580719 L21.0640511,7.00546027 C20.9678804,7.1624142 20.9119749,7.34385293 20.9119749,7.5387897 L20.9119749,7.5387897 C20.9119749,7.73404038 20.9682132,7.91642084 21.0653822,8.07400258 L21.0653822,8.07400258 L18.0414951,9.72107701 C17.8451604,9.40089105 17.4791126,9.18492245 17.059156,9.18492245 L17.059156,9.18492245 L17.059156,9.18492245 Z M13.0535954,8.07368867 C13.1500989,7.91579303 13.2066699,7.73404038 13.2066699,7.5387897 L13.2066699,7.5387897 C13.2066699,7.34385293 13.1500989,7.16178638 13.0539281,7.00420464 L13.0539281,7.00420464 L13.8589004,6.56567538 C14.0352689,6.85227325 14.1374295,7.18407384 14.1374295,7.5387897 L14.1374295,7.5387897 C14.1374295,7.89319166 14.0352689,8.22499226 13.8585676,8.51190403 L13.8585676,8.51190403 L13.0535954,8.07368867 L13.0535954,8.07368867 Z" id="path412" transform="translate(17.059489, 7.539574) scale(1, -1) translate(-17.059489, -7.539574) "></path>
                <path d="M10.0070798,3.31578671 C10.0070798,2.96201257 10.1095732,2.63021197 10.2859416,2.34424193 L10.2859416,2.34424193 L11.0905811,2.78214337 C10.9940776,2.94003902 10.9381722,3.12147775 10.9381722,3.31578671 L10.9381722,3.31578671 C10.9381722,3.5113513 10.995076,3.69404567 11.0919122,3.8516274 L11.0919122,3.8516274 L10.28694,4.29015666 C10.1102387,4.00293099 10.0070798,3.6714443 10.0070798,3.31578671 M5.29970581,1.57328426 L6.10467808,1.1350689 C6.30068001,1.45431318 6.66639498,1.67028178 7.08568604,1.67028178 L7.08568604,1.67028178 C7.50564263,1.67028178 7.87069207,1.454941 8.06735954,1.1350689 L8.06735954,1.1350689 L8.87199904,1.57391207 C8.51427056,2.1549555 7.84839643,2.54890984 7.08568604,2.54890984 L7.08568604,2.54890984 C6.32297565,2.54890984 5.65710152,2.1549555 5.29970581,1.57328426" id="path432" transform="translate(8.195809, 2.712613) scale(1, -1) translate(-8.195809, -2.712613) "></path>
                <path d="M11.0919122,0.16094986 C11.2885797,0.480508047 11.6536291,0.695534922 12.0722546,0.695534922 C12.4912129,0.695534922 12.8565951,0.480508047 13.0529298,0.16094986 L13.8579021,0.599793029 C13.4998408,1.18115036 12.8346323,1.57353517 12.0722546,1.57353517 C11.3102098,1.57353517 10.6446684,1.18115036 10.28694,0.599165213 L11.0919122,0.16094986 L11.0919122,0.16094986 Z" id="path444" transform="translate(12.072421, 0.867243) scale(1, -1) translate(-12.072421, -0.867243) "></path>
                <path d="M5.02117675,6.03485648 C5.02117675,5.86911314 5.04546901,5.70996186 5.08673258,5.55583311 L5.08673258,5.55583311 L3.53768507,4.71236272 C3.16498191,5.05389446 2.65850494,5.26515444 2.09878466,5.26515444 L2.09878466,5.26515444 C1.33640704,5.26515444 0.670200145,4.87214182 0.313137208,4.29047058 L0.313137208,4.29047058 L1.11777671,3.85194132 C1.31411141,4.1714995 1.67916084,4.3874681 2.09878466,4.3874681 L2.09878466,4.3874681 C2.51874126,4.3874681 2.88412346,4.1714995 3.08045816,3.85194132 L3.08045816,3.85194132 L6.10501085,5.50027142 C6.00817458,5.65753925 5.95193634,5.83991971 5.95193634,6.03485648 L5.95193634,6.03485648 C5.95193634,6.22979325 6.00817458,6.4118598 6.10467808,6.56944154 L6.10467808,6.56944154 L5.29970581,7.00765689 C5.12333735,6.72074512 5.02117675,6.38894453 5.02117675,6.03485648" id="path464" transform="translate(3.209074, 5.429799) scale(1, -1) translate(-3.209074, -5.429799) "></path>
                <path d="M0.965168073,7.54271294 C0.965168073,7.73764971 1.02140632,7.91971626 1.11790981,8.077298 L0.312937545,8.51582726 C0.136901857,8.22891549 0.0340757174,7.89711489 0.0340757174,7.54271294 C0.0340757174,7.18768316 0.136901857,6.85588257 0.313270316,6.5689708 L1.11790981,7.00812787 C1.02140632,7.16570961 0.965168073,7.34777616 0.965168073,7.54271294" id="path476" transform="translate(0.575993, 7.542399) scale(1, -1) translate(-0.575993, -7.542399) "></path>
                <path d="M18.0398312,6.56693081 C18.1363347,6.40934907 18.1932385,6.2266547 18.1932385,6.03109011 L18.1932385,6.03109011 C18.1932385,5.83678116 18.137333,5.65534242 18.0414951,5.49776068 L18.0414951,5.49776068 L21.0653822,3.85068621 C21.2620497,4.1702444 21.6267663,4.38527128 22.0460574,4.38527128 L22.0460574,4.38527128 C22.4650157,4.38527128 22.8300651,4.1702444 23.0267326,3.85131403 L23.0267326,3.85131403 L23.8310393,4.28984329 C23.4733108,4.87088671 22.8081022,5.26327152 22.0460574,5.26327152 L22.0460574,5.26327152 C21.4863371,5.26327152 20.9788618,5.05169763 20.6064914,4.70922417 L20.6064914,4.70922417 L19.0584422,5.55206674 C19.1000386,5.70619549 19.1243308,5.86534677 19.1243308,6.03109011 L19.1243308,6.03109011 C19.1243308,6.3867477 19.0211719,6.7185483 18.8444707,7.00514616 L18.8444707,7.00514616 L18.0398312,6.56693081 L18.0398312,6.56693081 Z" id="path496" transform="translate(20.935435, 5.427916) scale(1, -1) translate(-20.935435, -5.427916) "></path>
                <path d="M23.1798736,7.53772282 C23.1798736,7.34278604 23.1239682,7.16134731 23.0281302,7.00439338 L23.8327697,6.56586412 C24.0084726,6.85152026 24.110966,7.18332086 24.110966,7.53772282 C24.110966,7.89275259 24.0078071,8.22486709 23.8311059,8.51209277 L23.0261336,8.07356351 C23.1233026,7.91535395 23.1798736,7.7332874 23.1798736,7.53772282" id="path508" transform="translate(23.568550, 7.538978) scale(1, -1) translate(-23.568550, -7.538978) "></path>
                <path d="M13.0529298,3.84974521 C13.1497661,3.69216347 13.2066699,3.50946911 13.2066699,3.31390452 L13.2066699,3.31390452 C13.2066699,3.12022338 13.1504316,2.93815683 13.0545937,2.7812029 L13.0545937,2.7812029 L13.859566,2.34267364 C14.0356016,2.6289576 14.1374295,2.96013038 14.1374295,3.31390452 L14.1374295,3.31390452 C14.1374295,3.66956211 14.0346033,4.00167661 13.8575693,4.28890229 L13.8575693,4.28890229 L13.0529298,3.84974521 L13.0529298,3.84974521 Z M15.2735086,1.5726577 L16.0788136,1.13444234 C16.2751483,1.45305881 16.6401977,1.66839959 17.059156,1.66839959 L17.059156,1.66839959 C17.4781143,1.66839959 17.8434965,1.45305881 18.0398312,1.13444234 L18.0398312,1.13444234 L18.8444707,1.5726577 C18.4867422,2.15401503 17.8215336,2.54702765 17.059156,2.54702765 L17.059156,2.54702765 C16.2971112,2.54702765 15.6315698,2.15401503 15.2735086,1.5726577 L15.2735086,1.5726577 L15.2735086,1.5726577 Z" id="path528" transform="translate(15.948700, 2.711672) scale(1, -1) translate(-15.948700, -2.711672) "></path>
                <path d="M22.0457246,21.5597969 C21.6261008,21.5597969 21.2607186,21.7757655 21.0647167,22.0953237 L21.0647167,22.0953237 L20.2597444,21.6561666 C20.6174729,21.0751232 21.283347,20.6821105 22.0457246,20.6821105 L22.0457246,20.6821105 C22.8087678,20.6821105 23.4746419,21.0751232 23.8320376,21.6567944 L23.8320376,21.6567944 L23.0273981,22.0953237 C22.8307306,21.7757655 22.4653484,21.5597969 22.0457246,21.5597969 L22.0457246,21.5597969 L22.0457246,21.5597969 Z M18.0408295,20.4473075 C18.137333,20.2903535 18.1932385,20.108287 18.1932385,19.913978 L18.1932385,19.913978 C18.1932385,19.7190413 18.1363347,19.5363469 18.0398312,19.3784512 L18.0398312,19.3784512 L18.8444707,18.9396081 C19.0211719,19.2265198 19.1243308,19.5589483 19.1243308,19.913978 L19.1243308,19.913978 C19.1243308,20.26838 19.0215047,20.5998667 18.8458018,20.8864645 L18.8458018,20.8864645 L18.0408295,20.4473075 L18.0408295,20.4473075 Z" id="path548" transform="translate(20.935934, 20.517466) scale(1, -1) translate(-20.935934, -20.517466) "></path>
                <path d="M23.1798736,18.4050228 C23.1798736,18.210086 23.1236354,18.0280195 23.0271319,17.8704377 L23.8321042,17.4319085 C24.0081399,17.7181924 24.110966,18.0506209 24.110966,18.4050228 C24.110966,18.7594248 24.0081399,19.0918532 23.8317714,19.3781371 L23.0267991,18.9396079 C23.1236354,18.7820261 23.1798736,18.5999596 23.1798736,18.4050228" id="path560" transform="translate(23.568883, 18.405023) scale(1, -1) translate(-23.568883, -18.405023) "></path>
                <path d="M2.09878466,21.5635645 C1.68049192,21.5635645 1.31610803,21.7782775 1.11944056,22.0965801 L1.11944056,22.0965801 L0.31446829,21.6583647 C0.672529539,21.0776352 1.33773812,20.6858782 2.09878466,20.6858782 L2.09878466,20.6858782 C2.86116229,20.6858782 3.5260381,21.0776352 3.88376658,21.6583647 L3.88376658,21.6583647 L3.07912708,22.0965801 C2.88245961,21.7782775 2.51774295,21.5635645 2.09878466,21.5635645 M5.02117675,19.9177457 C5.02117675,19.5620881 5.12400289,19.2296597 5.30136966,18.9421201 L5.30136966,18.9421201 L6.10600916,19.3812772 C6.00884013,19.5388589 5.95193634,19.7218672 5.95193634,19.9177457 L5.95193634,19.9177457 C5.95193634,20.1120547 6.00717627,20.2928656 6.10268146,20.4498195 L6.10268146,20.4498195 L5.29804196,20.8880348 C5.12300458,20.6020648 5.02117675,20.2715198 5.02117675,19.9177457" id="path580" transform="translate(3.210239, 20.519350) scale(1, -1) translate(-3.210239, -20.519350) "></path>
                <path d="M0.0342753798,18.4097327 C0.0342753798,18.0540751 0.13743429,17.7210189 0.31446829,17.434421 L0.31446829,17.434421 L1.11944056,17.8726364 C1.02193875,18.0308459 0.965034965,18.2135403 0.965034965,18.4097327 L0.965034965,18.4097327 C0.965034965,18.6034139 1.0202749,18.7851665 1.11644562,18.9418065 L1.11644562,18.9418065 L0.311140584,19.3803358 C0.136103207,19.0940518 0.0342753798,18.7635069 0.0342753798,18.4097327" id="path600" transform="translate(0.576858, 18.407378) scale(1, -1) translate(-0.576858, -18.407378) "></path>
                <path d="M23.5883829,30.0520398 L12.6312428,30.0520398 L12.6312428,34.8243807 L12.6312428,34.8281476 L15.618858,36.4545042 C15.9912284,36.1120307 16.4990364,35.899829 17.0594222,35.899829 C17.8214671,35.899829 18.4870084,36.2922138 18.8444041,36.8732573 L18.0397646,37.3124143 C17.8434299,36.9928561 17.4783805,36.7778293 17.0594222,36.7778293 C16.6401312,36.7778293 16.2750817,36.9928561 16.078747,37.3124143 C15.9819108,37.4699961 15.9253398,37.6526904 15.9253398,37.8476272 C15.9253398,38.0419362 15.9812452,38.2240027 16.077416,38.3809566 L15.2721109,38.8194859 C15.096408,38.5332019 14.9942474,38.2020292 14.9942474,37.8476272 C14.9942474,37.68157 15.0188724,37.521477 15.0604688,37.3676621 L12.6312428,36.0445405 L12.6312428,38.6889002 C13.1540256,38.8273336 13.5919518,39.1559951 13.8588339,39.588874 L13.0541944,40.0270894 C12.8578597,39.7078451 12.4924775,39.4918765 12.0728536,39.4918765 C11.6532298,39.4918765 11.2875148,39.7078451 11.0911801,40.0270894 L10.2865406,39.588874 C10.5537555,39.1559951 10.9916817,38.8273336 11.5144644,38.6889002 L11.5141317,36.0451684 L9.08523849,37.3689177 C9.12650205,37.5221048 9.15079431,37.6821978 9.15079431,37.8476272 C9.15079431,38.2014014 9.04896648,38.5325741 8.87326356,38.8188581 L8.06829129,38.3803288 C8.16412925,38.2233749 8.21970195,38.0419362 8.21970195,37.8476272 C8.21970195,37.6520626 8.16313094,37.4687404 8.0659619,37.3111587 C7.86929443,36.9922283 7.504245,36.7778293 7.08561948,36.7778293 C6.66732674,36.7778293 6.30294285,36.9922283 6.10627538,37.3111587 L5.30130311,36.8723155 C5.65903159,36.2922138 6.32424017,35.899829 7.08561948,35.899829 C7.64667085,35.899829 8.15481167,36.1126585 8.52718206,36.455132 L11.5141317,34.8281476 L11.5141317,34.8243807 L11.5141317,30.0520398 L0.556658789,30.0520398 C0.351006511,30.0520398 0.184288401,29.894458 0.184288401,29.7007769 C0.184288401,29.5064679 0.351006511,29.349514 0.556658789,29.349514 L11.4938327,29.349514 C11.4329356,29.0067266 11.2675486,28.6090054 10.8725498,28.2605677 C10.164081,27.6340076 8.90520955,27.3577687 7.23037473,27.4613583 C6.43838052,27.5090723 5.76252327,27.4623 5.18649723,27.3514906 C5.15322016,27.3508628 5.11927755,27.3452124 5.08600048,27.3323422 C5.08333832,27.3314005 5.08100892,27.3301448 5.07801399,27.3288892 C3.15959103,26.9217507 2.40087388,25.7747315 2.26377237,25.0003208 C2.23848179,24.8568649 2.34130793,24.7212567 2.49305136,24.6973997 C2.50869158,24.6948885 2.52433181,24.6936328 2.53963926,24.6936328 C2.67341307,24.6936328 2.7922122,24.78498 2.81484061,24.9136822 C2.82482373,24.9714413 2.994204,25.8346879 4.06838775,26.420126 C3.97454642,26.1658606 3.94958862,25.8905635 3.92562913,25.6089881 C3.89135375,25.2056165 3.85208681,24.7495084 3.59485508,24.250395 C3.52730263,24.1191815 3.58520473,23.9615997 3.7239701,23.8978764 C3.76323704,23.8799837 3.80483337,23.8715082 3.84576417,23.8715082 C3.94925585,23.8715082 4.04875428,23.9261282 4.09700603,24.0199866 C4.40049289,24.607936 4.4457497,25.139382 4.48235447,25.5666106 C4.53692886,26.2050991 4.56787654,26.5588733 5.28133687,26.8382512 C5.53224596,26.886907 5.80844562,26.9217507 6.11226525,26.9399574 C5.78981047,26.5660931 5.71826477,26.0494008 5.64572076,25.5135601 C5.54156354,24.7416607 5.41178298,23.7807888 4.54358428,22.8108136 C4.44408585,22.7000041 4.45906053,22.5336329 4.57652857,22.4397745 C4.62877357,22.3983387 4.69299831,22.3773068 4.75655751,22.3773068 C4.8360897,22.3773068 4.91495635,22.4093254 4.97019629,22.4711653 C5.9448816,23.5594838 6.08630914,24.6060525 6.19978394,25.4473256 C6.32457294,26.3717842 6.41641765,26.7911651 7.23336966,26.9333653 C9.07159489,26.8266366 10.4243077,27.1424279 11.2549033,27.8763445 C11.3417565,27.9535658 11.4202903,28.0370653 11.4944982,28.1227621 C11.2658847,27.4962021 10.7966781,26.7848869 9.83164312,26.0173822 C9.83164312,26.0173822 9.83131034,26.0167544 9.83097757,26.0167544 C9.22001061,25.531139 8.70255221,25.2429716 8.24599084,24.9887062 C7.38012153,24.5062298 6.75484543,24.1571643 6.52889414,22.9483052 C6.50227249,22.8048493 6.60410031,22.6679855 6.75584374,22.6428729 C6.77248228,22.6397338 6.78845527,22.6384782 6.80442826,22.6384782 C6.93753653,22.6384782 7.05533735,22.7285697 7.07929684,22.856958 C7.26032409,23.8272472 7.71122836,24.0780595 8.52984422,24.5347955 C8.6050504,24.5765452 8.68491536,24.621434 8.76611141,24.6672646 C8.58242199,24.2566731 8.4892462,23.8495346 8.40239306,23.4662532 C8.20306342,22.5851138 8.03068821,21.8251429 6.92821895,21.1433351 C6.79910393,21.0636025 6.76283193,20.9003704 6.84735568,20.7785742 C6.90126453,20.7010389 6.99044707,20.6596031 7.08162624,20.6596031 C7.13387123,20.6596031 7.18711454,20.673729 7.23403521,20.7022946 C8.52917868,21.5030735 8.74248469,22.4454248 8.94880251,23.3557576 C8.97242923,23.4606028 8.99572317,23.5638785 9.02101374,23.6668403 C9.07991415,23.3871484 9.16543622,23.1118512 9.24862889,22.8456573 C9.4323183,22.2583358 9.62199759,21.6509241 9.5151782,21.0783562 C9.48855655,20.9349003 9.5900516,20.7980365 9.7421278,20.7729238 C9.7581008,20.7704126 9.77440656,20.7691569 9.79071232,20.7691569 C9.92382059,20.7691569 10.0416214,20.8586207 10.0652481,20.987009 C10.1950287,21.6813731 9.98604871,22.3490551 9.78438968,22.9953914 C9.47591126,23.9813759 9.20936195,24.8333218 10.191701,25.6146385 L10.1920338,25.6146385 C11.0153084,26.270078 11.5118023,26.8985215 11.8119614,27.4748563 C11.8751878,26.7848869 11.9600444,26.178103 12.0465647,25.6322173 C12.2442305,24.3803528 11.9154531,23.9964435 11.5344307,23.55195 C11.1524099,23.1065148 10.7191425,22.6017509 10.8016696,21.31724 C10.8109872,21.1775511 10.9341124,21.0695668 11.0805315,21.0695668 C11.0861886,21.0695668 11.0918457,21.0695668 11.0975028,21.0701946 C11.2519084,21.078984 11.3687109,21.2039193 11.3593933,21.3492586 C11.2898442,22.4294155 11.61962,22.8139527 11.9686964,23.2210911 C12.1001408,23.3736503 12.2329163,23.5287208 12.3467239,23.7139264 C12.5181008,22.2621027 12.3613658,21.1474159 11.0113152,19.3571995 C10.9221326,19.2388562 10.9510837,19.0746824 11.076871,18.9899273 C11.1261211,18.9569669 11.1826921,18.9415855 11.2385975,18.9415855 C11.3257835,18.9415855 11.4119711,18.9795683 11.4662127,19.052081 C13.3041051,21.4883198 13.080816,22.8224282 12.710775,25.0313977 C12.5876499,25.7653142 12.4462223,26.6122376 12.3577053,27.6440527 C12.6641871,27.0413496 13.0804832,26.5899501 13.4708232,26.1693136 C14.4551589,25.1079912 15.305388,24.192322 14.0555013,21.1304649 C13.9999286,20.9942289 14.0714743,20.8422975 14.215564,20.789561 C14.2485083,20.7779464 14.2821182,20.7716682 14.315728,20.7716682 C14.4282045,20.7716682 14.5336928,20.8360193 14.5766202,20.9408645 C15.2218626,22.5220184 15.3316769,23.6084534 15.1619638,24.4293224 C15.5459812,23.957205 15.7972231,23.3171469 15.6614526,22.1089156 C15.6448141,21.9642041 15.7562923,21.8342463 15.9093668,21.8188648 C15.9193499,21.818237 15.9290002,21.8176091 15.9393161,21.8176091 C16.0800781,21.8176091 16.2012067,21.9174318 16.2165141,22.05304 C16.2650986,22.485919 16.2650986,22.8544468 16.2318216,23.1787136 C16.58955,22.8321593 16.9805556,22.5097759 17.3066708,22.3361849 C17.349931,22.3135835 17.3971845,22.3025968 17.4434396,22.3025968 C17.5409414,22.3025968 17.635781,22.3509386 17.6873605,22.4369493 C17.7625667,22.5637681 17.7153132,22.7244889 17.5805411,22.7954321 C17.0005218,23.1040035 16.086068,24.0548304 15.7759257,24.5206696 C15.7715997,24.5282034 15.7659426,24.5335398 15.760951,24.539818 C15.5256822,24.887314 15.2368372,25.1469158 14.9616359,25.39145 C14.7556508,25.5754 14.5613128,25.7483632 14.3945946,25.9517755 C14.3919325,25.9549146 14.3886048,25.9574258 14.3862754,25.9596232 C14.227211,26.1529904 14.0584963,26.3356848 13.8907798,26.5164957 C13.4847996,26.9534554 13.0714984,27.401088 12.7936349,28.0135222 C13.386965,27.523826 14.2907702,27.3417594 15.2607967,27.2387976 C15.2634589,27.2381698 15.2661211,27.237542 15.2697815,27.2369142 C16.637469,27.0947139 16.8351348,26.1633494 17.0644138,25.0853898 C17.159919,24.6355599 17.2587519,24.1687789 17.4550866,23.7635239 C17.5020072,23.6674681 17.6035023,23.609709 17.7093234,23.609709 C17.7482575,23.609709 17.7875245,23.6175567 17.8254603,23.633566 C17.9658896,23.6944642 18.0271194,23.8507903 17.9632274,23.9832594 C17.7938471,24.3326388 17.7053301,24.7488806 17.6118216,25.1889794 C17.5602421,25.4331997 17.5056677,25.6833843 17.4357859,25.9285463 C17.6710547,25.8139699 17.9163067,25.7194837 18.1592293,25.6275087 C18.7998129,25.384544 19.3532105,25.1748536 19.5891449,24.6330486 C19.6334034,24.5307147 19.7378934,24.4691887 19.8477077,24.4691887 C19.8826487,24.4691887 19.9189207,24.4754669 19.953196,24.4889649 C20.0962874,24.5442127 20.1645054,24.6980275 20.1059378,24.8330079 C19.7808208,25.5807364 19.0620362,25.8535223 18.367211,26.1165771 C17.8124823,26.3268954 17.2880357,26.525599 16.9536012,26.9521998 C16.9120048,27.0055641 16.8670808,27.057045 16.8194946,27.1069564 C18.5728633,26.9559667 20.2560174,26.6709384 20.7245585,25.0414427 C20.7578355,24.9237273 20.870312,24.846506 20.9934372,24.846506 C21.0177294,24.846506 21.0423545,24.8493311 21.0669795,24.8556093 C21.2153952,24.8935921 21.3035795,25.0383036 21.2633142,25.1792483 C20.6420313,27.3423872 18.3322701,27.5206869 16.2943824,27.6782686 C14.2032515,27.8396173 12.8625184,28.0179169 12.6695115,29.349514 L23.5883829,29.349514 C23.7940352,29.349514 23.9607533,29.5064679 23.9607533,29.7007769 C23.9607533,29.894458 23.7940352,30.0520398 23.5883829,30.0520398" id="path612" transform="translate(12.072521, 29.484337) scale(1, -1) translate(-12.072521, -29.484337) "></path>
            </g>
            <path d="M39.7005,11.916 L39.7005,11.168 L34.3325,11.168 L34.3325,11.916 L36.5985,11.916 L36.5985,19 L37.4345,19 L37.4345,11.916 L39.7005,11.916 L39.7005,11.916 Z M46.0255,19 L46.0255,18.252 L41.9995,18.252 L41.9995,15.425 L45.4315,15.425 L45.4315,14.677 L41.9995,14.677 L41.9995,11.916 L46.0255,11.916 L46.0255,11.168 L41.1635,11.168 L41.1635,19 L46.0255,19 L46.0255,19 Z M53.1425,19 L53.1425,11.168 L47.7635,11.168 L47.7635,19 L48.5995,19 L48.5995,11.916 L52.3065,11.916 L52.3065,19 L53.1425,19 L53.1425,19 Z M60.6005,19 L60.6005,11.168 L56.2885,11.168 L56.2885,14.347 C56.2885,17.603 55.5955,18.252 54.6275,18.252 L54.4185,18.252 L54.4185,19 L54.8145,19 C56.3105,19 57.1025,17.9 57.1025,14.6 L57.1025,11.916 L59.7645,11.916 L59.7645,19 L60.6005,19 L60.6005,19 Z M68.4765,19 L68.4765,11.168 L67.6845,11.168 L63.7025,17.548 L63.7025,11.168 L62.8665,11.168 L62.8665,19 L63.6585,19 L67.6405,12.609 L67.6405,19 L68.4765,19 L68.4765,19 Z M77.0565,20.892 L77.0565,18.252 L76.1215,18.252 L76.1215,11.168 L75.2855,11.168 L75.2855,18.252 L71.5785,18.252 L71.5785,11.168 L70.7425,11.168 L70.7425,19 L76.2315,19 L76.2315,20.892 L77.0565,20.892 L77.0565,20.892 Z M84.0965,19 L81.2255,11.168 L80.5215,11.168 L77.6395,19 L78.5305,19 L79.1575,17.229 L82.5785,17.229 L83.2055,19 L84.0965,19 L84.0965,19 Z M82.3365,16.503 L79.4105,16.503 L80.8845,12.367 L82.3365,16.503 L82.3365,16.503 Z M93.2595,16.734 L92.4235,16.734 C92.2145,17.691 91.5215,18.318 90.5425,18.318 C90.0255,18.318 89.5305,18.12 89.1895,17.768 C88.6945,17.262 88.6395,16.723 88.6395,15.084 C88.6395,13.445 88.6945,12.906 89.1895,12.4 C89.5305,12.048 90.0255,11.85 90.5425,11.85 C91.5215,11.85 92.1925,12.477 92.4015,13.434 L93.2595,13.434 C92.9955,11.96 91.9505,11.102 90.5425,11.102 C89.7725,11.102 89.0685,11.388 88.5405,11.916 C87.8035,12.653 87.8035,13.423 87.8035,15.084 C87.8035,16.745 87.8035,17.515 88.5405,18.252 C89.0685,18.78 89.7725,19.066 90.5425,19.066 C91.9395,19.066 93.0065,18.208 93.2595,16.734 L93.2595,16.734 Z M100.0685,14.545 C100.0685,13.588 100.0135,12.598 99.3315,11.916 C98.8035,11.388 98.0995,11.102 97.3295,11.102 C96.5595,11.102 95.8555,11.388 95.3275,11.916 C94.6565,12.587 94.5905,13.544 94.5905,14.479 L94.5905,15.084 C94.5905,16.646 94.6125,17.537 95.3275,18.252 C95.8555,18.78 96.5485,19.066 97.3295,19.066 C98.1105,19.066 98.8035,18.78 99.3315,18.252 C100.0465,17.537 100.0685,16.646 100.0685,15.084 L100.0685,14.545 L100.0685,14.545 Z M99.2325,15.469 C99.2325,16.371 99.2215,17.218 98.6825,17.757 C98.3195,18.12 97.8465,18.318 97.3295,18.318 C96.8125,18.318 96.3395,18.12 95.9765,17.757 C95.4705,17.251 95.4265,16.481 95.4265,15.634 L95.4265,14.853 C95.4265,13.775 95.4265,12.961 95.9765,12.411 C96.3395,12.048 96.8235,11.85 97.3295,11.85 C97.8355,11.85 98.3195,12.048 98.6825,12.411 C99.1995,12.928 99.2325,13.742 99.2325,14.666 L99.2325,15.469 L99.2325,15.469 Z M108.3515,20.892 L108.3515,18.252 L107.4165,18.252 L107.4165,11.168 L106.5805,11.168 L106.5805,18.252 L102.8735,18.252 L102.8735,11.168 L102.0375,11.168 L102.0375,19 L107.5265,19 L107.5265,20.892 L108.3515,20.892 L108.3515,20.892 Z M115.5455,19 L115.5455,11.168 L114.7535,11.168 L110.7715,17.548 L110.7715,11.168 L109.9355,11.168 L109.9355,19 L110.7275,19 L114.7095,12.609 L114.7095,19 L115.5455,19 L115.5455,19 Z M123.2675,19 L120.3965,11.168 L119.6925,11.168 L116.8105,19 L117.7015,19 L118.3285,17.229 L121.7495,17.229 L122.3765,19 L123.2675,19 L123.2675,19 Z M121.5075,16.503 L118.5815,16.503 L120.0555,12.367 L121.5075,16.503 L121.5075,16.503 Z M129.7135,19 L129.7135,11.168 L125.4015,11.168 L125.4015,14.347 C125.4015,17.603 124.7085,18.252 123.7405,18.252 L123.5315,18.252 L123.5315,19 L123.9275,19 C125.4235,19 126.2155,17.9 126.2155,14.6 L126.2155,11.916 L128.8775,11.916 L128.8775,19 L129.7135,19 L129.7135,19 Z M137.3365,16.701 C137.3365,15.315 136.3795,14.391 134.9165,14.391 L132.8155,14.391 L132.8155,11.168 L131.9795,11.168 L131.9795,19 L134.9165,19 C136.3685,19 137.3365,18.076 137.3365,16.701 L137.3365,16.701 Z M136.4895,16.701 C136.4895,17.68 135.8845,18.252 134.8395,18.252 L132.8155,18.252 L132.8155,15.139 L134.8395,15.139 C135.8845,15.139 136.4895,15.711 136.4895,16.701 L136.4895,16.701 Z M144.2995,19 L144.2995,11.168 L143.4635,11.168 L143.4635,14.677 L139.7455,14.677 L139.7455,11.168 L138.9095,11.168 L138.9095,19 L139.7455,19 L139.7455,15.425 L143.4635,15.425 L143.4635,19 L144.2995,19 L144.2995,19 Z M153.8035,19 L153.8035,11.168 L152.9675,11.168 L152.9675,19 L153.8035,19 L153.8035,19 Z M151.9225,16.701 C151.9225,15.315 150.9655,14.391 149.5025,14.391 L147.4015,14.391 L147.4015,11.168 L146.5655,11.168 L146.5655,19 L149.5025,19 C150.9545,19 151.9225,18.076 151.9225,16.701 L151.9225,16.701 Z M151.0755,16.701 C151.0755,17.68 150.4705,18.252 149.4255,18.252 L147.4015,18.252 L147.4015,15.139 L149.4255,15.139 C150.4705,15.139 151.0755,15.711 151.0755,16.701 L151.0755,16.701 Z M160.8325,19 L158.4125,14.985 L160.6675,11.168 L159.6995,11.168 L157.9615,14.259 L156.2235,11.168 L155.2555,11.168 L157.4995,14.985 L155.1015,19 L156.0475,19 L157.9615,15.711 L159.8645,19 L160.8325,19 L160.8325,19 Z M68.2565,27.916 L68.2565,27.168 L62.8885,27.168 L62.8885,27.916 L65.1545,27.916 L65.1545,35 L65.9905,35 L65.9905,27.916 L68.2565,27.916 L68.2565,27.916 Z M74.5815,35 L74.5815,34.252 L70.5555,34.252 L70.5555,31.425 L73.9875,31.425 L73.9875,30.677 L70.5555,30.677 L70.5555,27.916 L74.5815,27.916 L74.5815,27.168 L69.7195,27.168 L69.7195,35 L74.5815,35 L74.5815,35 Z M81.0825,35 L78.6625,30.985 L80.9175,27.168 L79.9495,27.168 L78.2115,30.259 L76.4735,27.168 L75.5055,27.168 L77.7495,30.985 L75.3515,35 L76.2975,35 L78.2115,31.711 L80.1145,35 L81.0825,35 L81.0825,35 Z M87.7705,35 L87.7705,27.168 L86.9345,27.168 L86.9345,30.677 L83.2165,30.677 L83.2165,27.168 L82.3805,27.168 L82.3805,35 L83.2165,35 L83.2165,31.425 L86.9345,31.425 L86.9345,35 L87.7705,35 L87.7705,35 Z M95.2175,30.545 C95.2175,29.588 95.1625,28.598 94.4805,27.916 C93.9525,27.388 93.2485,27.102 92.4785,27.102 C91.7085,27.102 91.0045,27.388 90.4765,27.916 C89.8055,28.587 89.7395,29.544 89.7395,30.479 L89.7395,31.084 C89.7395,32.646 89.7615,33.537 90.4765,34.252 C91.0045,34.78 91.6975,35.066 92.4785,35.066 C93.2595,35.066 93.9525,34.78 94.4805,34.252 C95.1955,33.537 95.2175,32.646 95.2175,31.084 L95.2175,30.545 L95.2175,30.545 Z M94.3815,31.469 C94.3815,32.371 94.3705,33.218 93.8315,33.757 C93.4685,34.12 92.9955,34.318 92.4785,34.318 C91.9615,34.318 91.4885,34.12 91.1255,33.757 C90.6195,33.251 90.5755,32.481 90.5755,31.634 L90.5755,30.853 C90.5755,29.775 90.5755,28.961 91.1255,28.411 C91.4885,28.048 91.9725,27.85 92.4785,27.85 C92.9845,27.85 93.4685,28.048 93.8315,28.411 C94.3485,28.928 94.3815,29.742 94.3815,30.666 L94.3815,31.469 L94.3815,31.469 Z M102.1475,35 L102.1475,27.168 L97.8355,27.168 L97.8355,30.347 C97.8355,33.603 97.1425,34.252 96.1745,34.252 L95.9655,34.252 L95.9655,35 L96.3615,35 C97.8575,35 98.6495,33.9 98.6495,30.6 L98.6495,27.916 L101.3115,27.916 L101.3115,35 L102.1475,35 L102.1475,35 Z M109.5945,30.545 C109.5945,29.588 109.5395,28.598 108.8575,27.916 C108.3295,27.388 107.6255,27.102 106.8555,27.102 C106.0855,27.102 105.3815,27.388 104.8535,27.916 C104.1825,28.587 104.1165,29.544 104.1165,30.479 L104.1165,31.084 C104.1165,32.646 104.1385,33.537 104.8535,34.252 C105.3815,34.78 106.0745,35.066 106.8555,35.066 C107.6365,35.066 108.3295,34.78 108.8575,34.252 C109.5725,33.537 109.5945,32.646 109.5945,31.084 L109.5945,30.545 L109.5945,30.545 Z M108.7585,31.469 C108.7585,32.371 108.7475,33.218 108.2085,33.757 C107.8455,34.12 107.3725,34.318 106.8555,34.318 C106.3385,34.318 105.8655,34.12 105.5025,33.757 C104.9965,33.251 104.9525,32.481 104.9525,31.634 L104.9525,30.853 C104.9525,29.775 104.9525,28.961 105.5025,28.411 C105.8655,28.048 106.3495,27.85 106.8555,27.85 C107.3615,27.85 107.8455,28.048 108.2085,28.411 C108.7255,28.928 108.7585,29.742 108.7585,30.666 L108.7585,31.469 L108.7585,31.469 Z M116.3485,27.916 L116.3485,27.168 L111.6405,27.168 L111.6405,35 L112.4765,35 L112.4765,27.916 L116.3485,27.916 L116.3485,27.916 Z M123.4325,35 L123.4325,27.168 L122.6405,27.168 L118.6585,33.548 L118.6585,27.168 L117.8225,27.168 L117.8225,35 L118.6145,35 L122.5965,28.609 L122.5965,35 L123.4325,35 L123.4325,35 Z M131.3085,35 L131.3085,27.168 L130.5165,27.168 L126.5345,33.548 L126.5345,27.168 L125.6985,27.168 L125.6985,35 L126.4905,35 L130.4725,28.609 L130.4725,35 L131.3085,35 L131.3085,35 Z M130.1095,25.287 L129.4055,25.287 C129.3615,25.826 129.0425,26.101 128.5035,26.101 C127.9645,26.101 127.6455,25.826 127.6015,25.287 L126.8975,25.287 C126.9635,26.266 127.5905,26.673 128.5035,26.673 C129.4165,26.673 130.0435,26.266 130.1095,25.287 L130.1095,25.287 Z" id="ТЕПЛИЦА-СОЦИАЛЬНЫХ" fill="#888888" sketch:type="MSShapeGroup"></path>
        </g>
    </g>
</svg>