<svg width="640" height="499" viewBox="0 0 640 499" fill="none" xmlns="http://www.w3.org/2000/svg">
<g clip-path="url(#clip0)">
<path d="M392.044 344.222C387.697 344.222 384.131 340.652 384.131 336.302C384.131 331.951 387.697 328.381 392.044 328.381C396.558 328.381 399.511 331.282 399.957 336.19C400.124 338.142 399.456 340.039 398.062 341.489C396.558 343.274 394.329 344.222 392.044 344.222ZM392.044 329.999C388.533 329.999 385.691 332.843 385.691 336.357C385.691 339.871 388.533 342.716 392.044 342.716C393.883 342.716 395.722 341.935 396.948 340.597C398.007 339.425 398.564 337.975 398.397 336.469C398.062 332.286 395.778 329.999 392.044 329.999Z" fill="#E6DFD1"/>
<path d="M357.791 105.239C350.769 105.239 345.029 99.4936 345.029 92.4656C345.029 85.4375 350.769 79.6924 357.791 79.6924C365.202 79.6924 369.827 84.322 370.552 92.4098C370.831 95.5334 369.772 98.5454 367.543 101C365.091 103.677 361.413 105.239 357.791 105.239ZM357.791 81.2542C351.605 81.2542 346.59 86.2742 346.59 92.4656C346.59 98.657 351.605 103.677 357.791 103.677C361.023 103.677 364.255 102.283 366.428 99.8841C368.323 97.8203 369.27 95.1987 369.047 92.5214C368.379 85.2702 364.366 81.2542 357.791 81.2542Z" fill="#E6DFD1"/>
<path d="M365.739 412.383C363.398 416.454 358.996 415.673 356.265 412.606C354.649 410.765 353.367 408.924 351.138 407.753C347.405 405.745 343.169 405.801 339.38 407.53C338.488 407.92 339.269 409.259 340.16 408.869C344.173 407.084 349.076 407.53 352.476 410.486C354.482 412.215 355.596 414.948 358.048 416.175C361.392 417.849 365.293 416.343 367.132 413.219C367.522 412.271 366.184 411.49 365.739 412.383Z" fill="#E6DFD1"/>
<path d="M363.785 420.638C361.445 424.71 357.043 423.929 354.312 420.861C352.696 419.021 351.414 417.18 349.185 416.009C345.452 414.001 341.216 414.057 337.427 415.786C336.535 416.176 337.315 417.515 338.207 417.124C342.219 415.339 347.123 415.786 350.523 418.742C352.529 420.471 353.643 423.204 356.095 424.431C359.439 426.105 363.34 424.599 365.179 421.475C365.624 420.583 364.287 419.802 363.785 420.638Z" fill="#E6DFD1"/>
<path d="M406.645 352.923C401.685 358.39 396.725 363.912 391.71 369.378C391.041 370.103 392.156 371.219 392.825 370.493C397.784 365.027 402.744 359.505 407.759 354.039C408.428 353.314 407.314 352.198 406.645 352.923Z" fill="#E6DFD1"/>
<path d="M535.957 336.886C530.329 352.671 506.534 347.818 499.791 362.99C499.401 363.882 500.739 364.663 501.129 363.771C507.871 348.599 531.667 353.564 537.462 337.276C537.796 336.328 536.292 335.938 535.957 336.886Z" fill="#E6DFD1"/>
<path d="M541.364 348.487C535.735 364.272 511.94 359.42 505.197 374.591C504.807 375.484 506.145 376.265 506.535 375.372C513.278 360.201 537.073 365.165 542.868 348.878C543.203 347.929 541.698 347.539 541.364 348.487Z" fill="#E6DFD1"/>
<path d="M464.292 435.304C457.103 427.551 449.97 419.798 442.782 412.045C442.113 411.32 440.998 412.435 441.667 413.16C448.856 420.913 455.989 428.667 463.178 436.42C463.902 437.089 464.961 436.029 464.292 435.304Z" fill="#E6DFD1"/>
<path d="M322.07 282.223C320.287 284.621 318.448 287.02 316.665 289.418C316.052 290.199 317.389 290.98 318.002 290.199C319.786 287.801 321.625 285.402 323.408 283.004C323.965 282.223 322.628 281.442 322.07 282.223Z" fill="#E6DFD1"/>
<path d="M382.309 214.787C379.467 216.014 376.625 217.186 373.839 218.413C372.947 218.803 373.728 220.142 374.619 219.751C377.461 218.524 380.303 217.353 383.09 216.126C383.981 215.735 383.201 214.397 382.309 214.787Z" fill="#E6DFD1"/>
<path d="M386.771 219.584C382.815 221.369 378.858 223.098 374.902 224.883C374.01 225.274 374.79 226.612 375.682 226.222C379.638 224.437 383.595 222.708 387.551 220.923C388.443 220.532 387.663 219.194 386.771 219.584Z" fill="#E6DFD1"/>
<path d="M333.774 96.0913C332.102 98.1551 330.43 100.219 328.758 102.283C328.145 103.064 329.204 104.123 329.873 103.398C331.545 101.334 333.216 99.2707 334.888 97.2069C335.501 96.426 334.442 95.3104 333.774 96.0913Z" fill="#E6DFD1"/>
<path d="M236.813 25.9781C230.516 25.1972 224.441 27.4841 220.206 32.1695C219.537 32.8946 220.652 34.0102 221.321 33.2851C225.333 28.8786 230.906 26.8148 236.813 27.5399C237.76 27.6515 237.76 26.0897 236.813 25.9781Z" fill="#E6DFD1"/>
<path d="M239.483 30.9981C233.186 30.2173 227.111 32.5042 222.876 37.1895C222.207 37.9146 223.322 39.0302 223.991 38.3051C228.003 33.8986 233.576 31.8348 239.483 32.5599C240.486 32.6715 240.486 31.1097 239.483 30.9981Z" fill="#E6DFD1"/>
<path d="M101.542 428.382C91.5111 428.382 83.375 420.238 83.375 410.198C83.375 400.158 91.5111 392.015 101.542 392.015C112.074 392.015 118.706 398.596 119.709 410.143C120.099 414.549 118.594 418.844 115.418 422.302C111.963 426.095 106.724 428.382 101.542 428.382ZM101.542 393.576C92.4027 393.576 84.9353 401.051 84.9353 410.198C84.9353 419.346 92.4027 426.82 101.542 426.82C106.334 426.82 111.071 424.756 114.303 421.242C117.145 418.119 118.538 414.214 118.204 410.254C117.257 399.656 111.182 393.576 101.542 393.576Z" fill="#E6DFD1"/>
<path d="M94.9067 96.4461C92.6776 99.3466 90.4486 102.303 88.2195 105.203C87.6065 105.984 88.944 106.765 89.557 105.984C91.786 103.084 94.0151 100.128 96.2441 97.227C96.8571 96.3904 95.5197 95.6652 94.9067 96.4461Z" fill="#E6DFD1"/>
<path d="M98.0281 102.582L92.3441 110.837C91.7868 111.674 93.1242 112.455 93.6815 111.618C95.5762 108.885 97.4709 106.152 99.3656 103.363C99.9228 102.582 98.5854 101.801 98.0281 102.582Z" fill="#E6DFD1"/>
<path d="M116.692 39.1622C112.233 33.8632 107.72 28.5643 103.262 23.2654C102.593 22.4845 101.534 23.6 102.147 24.3809L115.577 40.2777C116.246 41.0029 117.305 39.8873 116.692 39.1622Z" fill="#E6DFD1"/>
<path d="M66.0958 474.399C59.6873 471.164 53.2231 467.985 46.8145 464.749C45.9229 464.303 45.1427 465.642 46.0344 466.088C52.4429 469.323 58.9071 472.503 65.3157 475.738C66.2073 476.184 66.9875 474.845 66.0958 474.399Z" fill="#E6DFD1"/>
<path d="M158.212 436.582C156.54 438.534 154.868 440.43 153.196 442.382C152.528 443.108 153.642 444.223 154.311 443.498C155.983 441.546 157.655 439.649 159.326 437.697C159.939 436.972 158.825 435.856 158.212 436.582Z" fill="#E6DFD1"/>
<path d="M41.4947 198.769C39.2656 210.873 23.7737 208.586 14.8575 209.59C8.50466 210.315 1.92895 213.383 0.0342512 219.965C-0.244381 220.913 1.26023 221.304 1.53886 220.356C4.88244 208.754 19.9286 211.543 28.9005 210.316C35.1976 209.423 41.7176 205.909 42.9435 199.16C43.1665 198.212 41.7176 197.821 41.4947 198.769Z" fill="#E6DFD1"/>
<path d="M45.397 206.523C43.1679 218.627 27.676 216.34 18.7598 217.344C12.407 218.069 5.83129 221.137 3.93659 227.718C3.65796 228.667 5.16257 229.057 5.4412 228.109C8.78479 216.507 23.8309 219.296 32.8028 218.069C39.0999 217.176 45.6199 213.662 46.8459 206.913C47.0131 205.965 45.5642 205.519 45.397 206.523Z" fill="#E6DFD1"/>
<path d="M446.14 24H112.855V369.85H446.14V24Z" fill="#FA7355"/>
<path d="M446.14 44.9841H112.855V47.8338H446.14V44.9841Z" fill="white"/>
<path d="M435.391 37.0827C432.412 34.1035 429.433 31.1243 426.583 28.2746C425.288 26.9793 423.345 28.9222 424.64 30.2176C427.619 33.1968 430.599 36.176 433.448 39.0257C434.614 40.321 436.686 38.2485 435.391 37.0827Z" fill="white"/>
<path d="M426.45 39.0257C429.429 36.0465 432.409 33.0673 435.258 30.2176C436.554 28.9222 434.611 26.9793 433.315 28.2746C430.336 31.2538 427.357 34.233 424.507 37.0827C423.212 38.2485 425.155 40.321 426.45 39.0257Z" fill="white"/>
<path d="M397.955 67.3931H243.941V78.5328H397.955V67.3931Z" fill="white"/>
<path d="M228.139 164.542H136.172V66.0979H228.139V164.542ZM139.022 161.692H225.29V68.818H139.022V161.692Z" fill="#FECA55"/>
<path d="M226.713 78.0146V163.117H137.596V114.543C139.409 113.895 141.223 113.506 143.166 113.118C152.88 111.434 163.113 113.118 171.533 118.299C174.771 120.372 178.139 124.517 181.896 125.423C185.522 126.33 189.02 123.61 191.351 121.149C197.569 114.413 200.159 104.828 205.341 97.3149C210.392 89.9316 216.999 83.714 224.641 79.1804C225.289 78.7918 226.066 78.4032 226.713 78.0146Z" fill="#FECA55"/>
<path d="M378.138 89.1545H339.667C337.853 89.1545 337.853 92.0043 339.667 92.0043H378.138C379.951 91.8747 379.951 89.1545 378.138 89.1545Z" fill="white"/>
<path d="M378.137 100.294H357.671C355.987 100.294 355.987 103.144 357.671 103.144H378.137C379.821 103.144 379.821 100.294 378.137 100.294Z" fill="white"/>
<path d="M378.137 113.636H363.5C362.075 113.636 362.075 116.485 363.5 116.485H378.137C379.562 116.485 379.562 113.636 378.137 113.636Z" fill="white"/>
<path d="M236.557 347.44H137.854C136.041 347.44 136.041 350.29 137.854 350.29H236.557C238.371 350.29 238.371 347.44 236.557 347.44Z" fill="white"/>
<path d="M292.257 113.636H246.274C244.849 113.636 244.849 116.485 246.274 116.485H292.257C293.682 116.485 293.682 113.636 292.257 113.636Z" fill="white"/>
<path d="M303.914 89.1545H246.532C244.719 89.1545 244.719 92.0043 246.532 92.0043H303.914C305.728 91.8747 305.728 89.1545 303.914 89.1545Z" fill="white"/>
<path d="M254.952 733.186C265.445 700.285 276.325 647.306 273.864 628.913L385.909 374.124L350.935 313.892L272.569 354.435C272.569 354.435 231.896 508.966 216.611 589.665C206.767 641.477 199.124 698.73 192.389 725.025C209.098 727.227 237.984 731.372 254.952 733.186Z" fill="#B47F5A"/>
<path d="M401.192 344.59C409.612 390.833 415.181 568.551 412.332 616.218C412.332 616.218 434.741 677.875 416.477 782.796H345.105C345.105 782.796 340.96 761.812 368.939 758.962C388.498 757.019 363.369 693.16 352.1 616.089C343.81 558.836 315.701 336.041 315.701 336.041L401.192 344.59Z" fill="#FFA79B"/>
<path d="M427.878 727.616C431.376 660.389 412.464 616.348 412.464 616.348C415.314 568.68 409.614 390.963 401.324 344.72L315.963 336.301C315.963 336.301 344.071 559.095 352.361 616.348C359.226 663.886 365.444 708.575 369.2 734.61C372.18 734.351 414.536 731.761 427.878 727.616Z" fill="#B47F5A"/>
<path d="M356.764 422.698L356.246 424.382C350.806 443.682 345.365 462.853 339.925 482.153C339.666 483.06 338.371 482.671 338.63 481.765C344.07 462.853 349.381 443.941 354.692 424.9C354.821 424.382 354.951 423.864 355.21 423.216C355.728 423.087 356.246 422.828 356.764 422.698Z" fill="black"/>
<path d="M381.506 415.704C373.087 418.553 364.667 421.533 356.248 424.382C355.73 424.512 355.211 424.771 354.693 424.9C354.823 424.382 354.952 423.864 355.212 423.217C355.73 422.957 356.248 422.828 356.766 422.698C364.926 419.849 372.957 417.129 381.118 414.279C381.895 414.02 382.284 415.315 381.506 415.704Z" fill="black"/>
<path d="M464.536 150.034C464.407 145.112 463.759 139.931 460.262 136.304C460.002 131.9 458.578 127.625 456.117 123.869C455.08 119.853 453.137 116.356 450.158 112.988C449.77 112.47 449.251 112.211 448.733 112.081C448.733 112.081 448.733 112.081 448.733 111.952C447.827 109.879 444.847 109.232 444.459 111.563C443.681 116.485 444.2 121.926 443.422 126.848C442.386 126.589 440.055 124.905 438.371 128.532C433.189 139.931 430.21 151.718 434.226 163.635L416.739 197.443C416.35 196.795 382.413 252.753 379.693 269.462C378.138 279.566 377.232 290.317 377.75 300.55C378.009 307.674 378.916 314.669 379.175 321.793C393.812 329.565 412.205 331.508 429.304 310.913C448.604 287.726 463.111 183.324 464.536 170.241C465.702 162.34 464.536 150.034 464.536 150.034Z" fill="#FFA79B"/>
<path d="M431.505 230.732C427.879 235.655 422.956 241.483 417.646 247.053C410.262 254.955 402.231 262.338 396.532 266.224C394.33 267.26 392.387 268.167 390.573 268.944C383.579 272.312 378.527 274.773 369.978 278.53C363.631 281.379 357.154 283.97 350.678 286.56V180.733C390.055 181.899 399.9 175.034 410.651 188.505C414.666 193.298 428.785 221.406 431.505 230.732Z" fill="white"/>
<path d="M417.774 247.053C411.946 253.271 405.728 259.229 400.547 263.374L400.158 214.541C405.987 225.292 411.816 236.173 417.774 247.053Z" fill="black"/>
<path d="M442.127 129.439C441.868 135.656 441.609 141.874 441.221 148.091C441.221 148.998 442.516 148.998 442.646 148.091C442.905 141.874 443.164 135.656 443.552 129.439C443.552 128.532 442.257 128.532 442.127 129.439Z" fill="#D24A43"/>
<path d="M449.38 113.247C448.992 112.47 447.696 113.118 448.214 113.895C451.712 120.501 452.359 127.755 450.157 134.879C449.898 135.786 451.194 136.045 451.453 135.268C453.784 127.884 453.137 120.112 449.38 113.247Z" fill="#D24A43"/>
<path d="M457.154 126.2C456.895 125.294 455.599 125.682 455.858 126.589C456.895 130.216 456.895 133.843 455.988 137.47C455.729 138.376 457.154 138.765 457.283 137.858C458.319 133.972 458.319 130.086 457.154 126.2Z" fill="#D24A43"/>
<path d="M459.742 138.506C459.742 139.672 459.742 140.708 459.742 141.874C459.742 142.781 461.167 142.781 461.167 141.874C461.167 140.708 461.167 139.672 461.167 138.506C461.167 137.599 459.742 137.599 459.742 138.506Z" fill="#D24A43"/>
<path d="M436.428 234.618C435.392 233.712 434.356 232.805 433.319 231.769C432.672 231.121 431.636 232.157 432.283 232.805C433.319 233.712 434.356 234.618 435.392 235.655C436.04 236.173 437.076 235.137 436.428 234.618Z" fill="#D24A43"/>
<path d="M272.439 354.435L273.605 284.488C257.414 267.649 280.341 211.691 280.341 211.691L350.158 180.863L375.028 189.93L389.536 195.241L399.769 198.997L399.898 214.411L400.287 263.245L401.064 344.591L272.439 354.435Z" fill="white"/>
<path d="M312.334 151.977C312.982 153.013 309.096 194.852 309.096 194.852L346.271 188.764L336.686 149.516L312.334 151.977Z" fill="#FFA79B"/>
<path d="M311.814 162.599C314.664 159.101 317.255 155.345 319.198 151.2L312.333 151.847C312.462 152.236 312.203 156.77 311.814 162.599Z" fill="black"/>
<path d="M203.787 245.24C203.787 245.24 170.886 214.929 147.312 195.111C146.534 191.225 145.369 187.469 143.555 183.712C141.483 179.567 125.939 165.578 121.923 162.987C119.851 161.692 117.131 163.894 117.778 166.096C117.908 166.614 120.498 173.997 125.162 177.754C126.068 180.992 126.587 184.101 126.587 184.101C120.499 178.66 115.706 172.184 112.338 164.671C111.302 162.339 107.934 163.246 107.157 165.319C106.121 168.298 105.732 170.889 106.121 173.609C105.473 175.034 105.084 176.588 104.825 178.142C102.623 182.287 101.716 186.562 101.975 190.707C98.3486 200.551 105.473 210.266 112.856 217.261C119.074 224.903 147.571 260.524 166.223 282.933C187.207 308.192 206.767 341.741 257.284 285.783C307.672 229.825 351.065 180.733 351.065 180.733C259.875 182.287 262.595 165.448 203.787 245.24Z" fill="#FFA79B"/>
<path d="M243.164 258.841C249.123 266.094 256.117 272.83 262.205 280.213C310.391 226.587 350.935 180.863 350.935 180.863C267.646 182.158 262.983 168.169 217.646 226.976C226.066 237.598 234.486 248.349 243.164 258.841Z" fill="white"/>
<path d="M280.989 257.286C277.233 260.783 273.476 264.281 269.85 267.778C269.202 268.426 270.238 269.333 270.886 268.814C274.642 265.317 278.399 261.82 282.026 258.322C282.673 257.675 281.637 256.638 280.989 257.286Z" fill="black"/>
<path d="M210.133 252.234C208.837 250.291 207.542 248.219 206.247 246.276C205.729 245.499 204.563 246.276 205.081 246.924C206.376 248.867 207.672 250.939 208.967 252.882C209.356 253.659 210.651 252.882 210.133 252.234Z" fill="#D24A43"/>
<path d="M120.239 192.391C114.798 187.857 111.042 182.158 109.099 175.422C108.84 174.516 107.545 174.904 107.804 175.811C109.876 182.806 113.762 188.764 119.332 193.427C119.98 193.945 120.886 192.909 120.239 192.391Z" fill="#D24A43"/>
<path d="M115.448 199.904C111.044 195.5 107.935 190.189 106.251 184.231C105.992 183.324 104.697 183.713 104.956 184.619C106.64 190.837 109.878 196.407 114.412 200.94C115.059 201.588 116.096 200.552 115.448 199.904Z" fill="#D24A43"/>
<path d="M111.171 206.64C107.674 202.754 105.342 198.35 103.917 193.298C103.658 192.391 102.363 192.78 102.622 193.686C104.047 198.868 106.637 203.531 110.135 207.676C110.782 208.194 111.819 207.287 111.171 206.64Z" fill="#D24A43"/>
<path d="M356.893 116.356C355.857 106.771 340.442 97.9626 328.914 97.574C323.862 97.4445 322.308 93.429 320.235 97.0559C315.054 105.994 298.215 134.879 299.64 143.04C302.231 157.418 319.976 159.102 330.987 152.754C341.997 146.407 358.318 130.086 356.893 116.356Z" fill="#FFA79B"/>
<path d="M305.857 117.263C307.152 115.32 309.873 115.19 311.556 116.615C312.075 117.133 312.075 118.04 311.556 118.558L311.427 118.688C311.556 118.817 311.686 118.947 311.816 119.206C312.852 120.631 310.391 121.926 309.484 120.501C309.484 120.501 309.354 120.501 309.484 120.631C310.391 121.537 309.484 123.221 308.189 122.833C305.857 122.185 304.562 119.335 305.857 117.263Z" fill="#FFA79B"/>
<path d="M319.588 104.828C320.365 105.735 321.271 106.771 322.049 107.677C323.214 108.973 321.271 111.045 319.976 109.62C319.199 108.714 318.292 107.678 317.515 106.771C316.479 105.475 318.422 103.532 319.588 104.828Z" fill="#697CCC"/>
<path d="M315.442 112.47C315.183 113.765 314.924 115.061 314.665 116.227C314.535 117.133 313.11 116.745 313.369 115.838C313.628 114.543 313.887 113.247 314.146 112.082C314.276 111.304 315.571 111.693 315.442 112.47Z" fill="black"/>
<path d="M304.821 134.361C306.505 134.75 308.189 134.232 309.225 132.807C309.743 132.03 310.909 132.807 310.391 133.584C308.966 135.527 306.634 136.304 304.432 135.786C303.525 135.397 303.914 134.102 304.821 134.361Z" fill="#D24A43"/>
<path d="M402.618 161.304C400.804 157.806 397.955 154.956 394.069 153.014C390.053 150.941 385.261 150.423 380.727 151.33C377.489 146.019 372.049 143.299 366.479 143.04C363.758 132.548 357.411 122.055 356.893 116.486C356.116 109.102 346.919 102.237 337.334 99.2579C335.132 95.3719 328.914 89.543 323.604 89.6725C321.92 89.6725 318.163 91.0974 318.681 97.4444C319.329 101.849 327.36 107.677 330.987 107.159C326.712 111.693 323.085 118.688 325.935 125.553C326.712 128.014 314.796 153.791 323.086 165.19C322.438 169.075 322.697 172.961 323.992 176.459C322.179 181.51 322.826 187.598 326.583 191.873C330.598 196.407 336.168 197.961 341.479 197.313C342.386 197.961 343.422 198.609 344.458 199.256C348.474 206.381 355.857 211.303 364.924 210.914C372.567 210.526 379.173 206.381 382.929 200.422C388.24 199.904 393.421 197.443 396.919 193.039C398.862 190.707 400.027 187.987 400.675 185.267C404.172 185.396 412.721 167.91 402.618 161.304Z" fill="#697CCC"/>
<path d="M338.5 135.915C339.277 130.475 333.578 124.128 326.065 125.423C323.086 130.604 319.848 135.656 316.609 140.708C318.682 143.558 324.381 146.796 329.174 146.019C334.614 145.112 337.593 141.744 338.5 135.915Z" fill="#FFA79B"/>
<path d="M323.474 134.62L328.526 132.418C329.303 132.03 330.08 133.325 329.173 133.584C327.489 134.361 325.805 135.009 324.122 135.786C323.344 136.175 322.697 134.879 323.474 134.62Z" fill="#D24A43"/>
</g>
<defs>
<clipPath id="clip0">
<rect width="640" height="499" fill="white"/>
</clipPath>
</defs>
</svg>

