<svg width="640" height="499" viewBox="0 0 640 499" fill="none" xmlns="http://www.w3.org/2000/svg">
<g clip-path="url(#clip0)">
<path d="M515.307 289.449C511.235 274.563 501.056 259.931 493.677 252.805C486.17 245.68 484.007 304.336 484.007 304.336L515.307 289.449Z" fill="#FFA79B"/>
<path d="M390.745 775.236C379.294 731.848 372.805 677.646 374.84 653.725C374.84 653.725 300.28 399.89 276.996 319.096C280.559 318.459 283.994 317.951 287.557 317.314C305.752 314.261 323.946 311.334 342.014 307.899C355.882 305.354 380.948 301.155 394.816 298.992C430.57 407.906 444.184 581.583 448.255 610.084C450.927 628.533 460.979 711.49 462.506 763.275C443.039 767.983 410.721 772.309 390.745 775.236Z" fill="#8DB8A8"/>
<path d="M145.054 755.641C165.666 679.681 183.606 639.729 183.606 639.729C190.349 583.109 228.393 370.753 228.393 370.753L233.737 326.093C251.677 323.167 269.49 320.241 287.43 317.314C305.625 314.261 323.82 311.334 341.887 307.899C343.923 307.517 345.831 307.135 347.867 306.754L377.768 362.356C377.768 362.356 296.21 564.406 273.18 637.312C257.403 687.188 226.484 745.208 212.361 780.198C193.276 774.217 163.757 763.148 145.054 755.641Z" fill="#8DB8A8"/>
<path d="M330.181 483.611C334.507 465.035 338.833 446.458 343.287 427.755C343.414 427.373 343.414 427.118 343.541 426.737C343.541 426.482 343.541 426.228 343.414 426.101C342.905 426.228 342.523 426.482 342.014 426.609C341.887 427.246 341.76 427.755 341.632 428.391C337.434 446.713 333.108 464.907 328.782 483.229C328.527 484.12 329.927 484.502 330.181 483.611Z" fill="black"/>
<path d="M341.503 428.391C342.012 428.137 342.649 428.009 343.158 427.755C348.12 425.974 352.955 424.065 357.917 422.284C358.808 421.902 358.426 420.502 357.535 420.884L343.285 426.228C342.776 426.355 342.394 426.61 341.885 426.737C341.758 427.246 341.631 427.755 341.503 428.391Z" fill="black"/>
<path d="M214.27 187.406C216.179 223.923 229.412 363.755 229.412 363.755L328.019 353.831L376.369 309.298L398.635 231.175L409.959 191.223C406.269 128.751 392.655 117.554 336.417 122.898C334.508 123.025 332.472 123.279 330.437 123.534C327.383 123.916 324.075 124.297 320.767 124.679C312.242 125.697 302.954 127.097 292.648 128.496C292.648 128.496 289.976 130.277 285.522 133.077C266.564 145.291 216.052 177.736 214.27 178.881C213.889 179.136 214.016 182.19 214.27 187.406Z" fill="#D24A43"/>
<path d="M232.083 194.404C251.804 240.973 260.074 266.674 280.178 312.988C223.049 321.258 217.45 236.774 232.083 194.404Z" fill="black"/>
<path d="M297.987 170.993H493.676V366.046H297.987V170.993Z" fill="#E6DFD1"/>
<path d="M297.987 200.13H493.676V203.057H297.987V200.13Z" fill="white"/>
<path d="M475.989 192.369C472.265 192.369 469.245 189.35 469.245 185.625C469.245 181.901 472.265 178.882 475.989 178.882C479.713 178.882 482.732 181.901 482.732 185.625C482.732 189.35 479.713 192.369 475.989 192.369Z" fill="#FECA55"/>
<path d="M456.014 192.369C452.29 192.369 449.271 189.35 449.271 185.625C449.271 181.901 452.29 178.882 456.014 178.882C459.739 178.882 462.758 181.901 462.758 185.625C462.758 189.35 459.739 192.369 456.014 192.369Z" fill="white"/>
<path d="M368.858 300.264H464.539C466.448 300.264 466.448 303.191 464.539 303.191H368.858C366.95 303.318 366.95 300.264 368.858 300.264Z" fill="black"/>
<path d="M368.858 316.678H464.539C466.448 316.678 466.448 319.604 464.539 319.604H368.858C366.95 319.732 366.95 316.678 368.858 316.678Z" fill="black"/>
<path d="M332.213 215.907H465.938V284.615H332.213V215.907Z" fill="#BAB5AB"/>
<path d="M339.973 338.944H374.836V353.449H339.973V338.944Z" fill="white"/>
<path d="M346.591 222.651C350.026 224.941 353.589 227.104 357.024 229.394C358.678 230.412 357.151 233.084 355.497 231.939C352.062 229.649 348.499 227.486 345.064 225.196C343.41 224.178 344.937 221.633 346.591 222.651Z" fill="white"/>
<path d="M473.066 307.008C469.376 308.026 464.541 303.446 468.104 300.01C472.175 296.193 488.461 279.271 493.551 276.981C516.453 266.929 519.252 303.064 518.362 310.698C516.962 323.676 511.364 335.764 502.839 345.433C502.585 346.197 496.35 351.668 493.296 353.831C491.006 355.358 487.316 353.704 486.807 350.905C484.135 351.795 477.519 347.978 478.919 344.034C477.901 343.398 475.102 342.507 474.466 340.471C473.575 337.927 474.338 335.382 475.483 332.837C474.72 332.455 474.084 332.074 473.448 331.31C469.631 327.112 475.738 322.277 480.318 315.915C483.754 311.08 484.899 304.591 488.08 301.537C487.062 301.155 486.171 300.774 485.281 300.138C481.845 303.318 477.774 305.736 473.066 307.008Z" fill="#FFA79B"/>
<path d="M477.262 331.056C484.642 325.203 490.495 317.951 494.694 309.553C495.075 308.662 496.475 309.426 495.966 310.316C491.64 318.841 485.66 326.094 478.28 332.074C477.517 332.71 476.499 331.692 477.262 331.056Z" fill="#D24A43"/>
<path d="M480.316 340.725C488.077 336.145 494.185 329.656 498.256 321.64C498.638 320.749 500.038 321.513 499.529 322.403C495.457 330.674 489.095 337.417 481.079 341.998C480.316 342.507 479.553 341.234 480.316 340.725Z" fill="#D24A43"/>
<path d="M488.714 347.469C494.313 343.779 498.893 339.071 502.328 333.219C502.837 332.328 504.11 333.091 503.601 333.982C500.038 339.962 495.331 345.051 489.478 348.741C488.714 349.25 487.951 347.978 488.714 347.469Z" fill="#D24A43"/>
<path d="M472.683 221.124C476.501 216.798 480.827 208.655 485.789 207.637C497.876 205.22 508.309 206.365 509.836 207.764C511.745 209.673 510.345 212.726 508.182 214.635C505.129 217.307 498.131 215.017 496.604 219.852C496.604 219.979 496.604 219.979 496.477 220.106C500.166 219.343 503.22 219.088 505.51 219.597C513.653 221.378 511.49 237.919 509.073 252.806C504.62 279.271 453.725 283.851 453.725 283.851C453.725 283.851 472.302 221.251 472.683 221.124Z" fill="#FFA79B"/>
<path d="M214.27 187.406C215.796 198.603 220.122 212.09 227.629 228.503C263.128 305.226 269.49 336.272 296.846 338.689C312.623 340.089 335.398 331.946 374.841 317.441C414.157 302.936 444.439 291.867 467.087 283.469C470.013 262.857 471.031 241.99 472.812 221.124C456.781 223.159 427.262 227.104 398.634 231.175C368.734 235.501 339.978 239.955 329.291 242.754L268.727 163.613L287.685 135.749L292.647 128.496C289.466 128.878 286.285 129.387 283.231 129.768C242.643 135.621 208.29 144.273 214.27 187.406Z" fill="#D24A43"/>
<path d="M318.218 253.441L325.725 245.935C326.361 245.298 327.506 246.316 326.743 246.953C324.198 249.497 321.78 251.915 319.236 254.459C318.6 255.223 317.582 254.078 318.218 253.441Z" fill="black"/>
<path d="M291.122 188.933C293.03 191.732 294.811 194.659 296.72 197.458C297.229 198.221 295.957 198.985 295.448 198.221C293.539 195.422 291.758 192.496 289.849 189.696C289.213 188.933 290.485 188.17 291.122 188.933Z" fill="black"/>
<path d="M505.383 233.084C506.4 231.43 507.291 229.648 508.309 227.994C508.818 227.104 510.09 227.867 509.581 228.758C508.563 230.412 507.673 232.193 506.655 233.847C506.273 234.738 505.001 233.974 505.383 233.084Z" fill="#D24A43"/>
<path d="M505.255 246.698C506.019 245.553 506.782 244.408 507.418 243.263C507.927 242.5 509.2 243.263 508.691 244.026C507.927 245.172 507.164 246.317 506.528 247.462C506.019 248.352 504.746 247.589 505.255 246.698Z" fill="#D24A43"/>
<path d="M504.11 256.113L506.146 253.441C506.782 252.678 508.055 253.441 507.418 254.205L505.383 256.877C504.746 257.64 503.474 256.877 504.11 256.113Z" fill="#D24A43"/>
<path d="M491.009 221.251C492.408 220.742 493.808 220.233 495.08 219.851C495.971 219.597 496.352 220.996 495.462 221.251C494.062 221.76 492.663 222.269 491.39 222.65C490.5 222.905 490.118 221.505 491.009 221.251Z" fill="#D24A43"/>
<path d="M285.263 131.041L299.641 76.457L334.631 86.3814C333.995 87.1449 331.195 117.3 329.414 136.131C324.325 135.749 292.516 131.55 285.263 131.041Z" fill="#FFA79B"/>
<path d="M310.838 82.5645C310.711 81.1649 310.711 79.8925 310.711 78.4929L334.631 86.3815C334.249 86.7633 333.231 96.5604 332.086 108.266C322.416 101.65 314.4 92.8706 310.838 82.5645Z" fill="black"/>
<path d="M272.667 58.5169C271.267 47.5747 286.154 33.8333 299.005 30.3979C304.603 28.8711 305.239 24.1633 308.547 27.5987C316.69 36.1235 342.774 62.0796 343.41 73.5308C344.3 90.1986 324.961 96.6877 311.092 92.4889C297.223 88.1629 274.703 74.1669 272.667 58.5169Z" fill="#FFA79B"/>
<path d="M302.822 20.0916C296.842 21.364 291.498 29.3798 290.099 34.342C280.302 40.0676 271.65 50.1192 272.795 58.644C274.194 69.0774 284.628 78.8745 295.57 85.3635C297.86 81.292 290.989 73.6578 291.371 68.3139C298.624 55.9721 297.351 51.0099 294.297 46.1749C298.496 45.7932 310.711 32.5607 310.329 27.5985C309.311 20.2189 304.604 19.7099 302.822 20.0916Z" fill="#322E28"/>
<path d="M280.176 83.0734C277.885 77.2205 282.72 68.5685 291.372 68.1868C296.08 73.149 300.915 77.9839 305.75 82.8189C304.223 86.5087 298.625 91.5981 293.154 91.9799C286.919 92.2343 282.593 89.4351 280.176 83.0734Z" fill="#FFA79B"/>
<path d="M286.535 78.2384C288.571 77.8567 290.479 77.6023 292.515 77.2206C293.406 77.0933 293.915 78.4929 292.897 78.6202C290.861 79.0019 288.953 79.2563 286.917 79.638C285.899 79.7653 285.517 78.3657 286.535 78.2384Z" fill="#D24A43"/>
<path d="M320.635 42.4851C321.653 43.6302 322.798 44.6481 323.816 45.7932C324.452 46.4294 323.434 47.5745 322.798 46.8111C321.78 45.666 320.635 44.6481 319.617 43.5029C318.854 42.8668 319.999 41.7217 320.635 42.4851Z" fill="black"/>
<path d="M308.42 53.6819C309.438 54.827 310.583 55.8449 311.601 56.99C312.237 57.6262 311.22 58.7713 310.583 58.0079C309.566 56.8627 308.42 55.8448 307.403 54.6997C306.766 54.0635 307.784 52.9184 308.42 53.6819Z" fill="black"/>
<path d="M322.289 58.008C323.306 57.6263 324.706 57.2446 325.342 56.2267C325.724 55.4633 325.597 54.4454 324.706 54.3182C323.815 54.1909 324.197 52.7913 325.088 52.9186C326.615 53.173 327.251 54.8271 326.996 56.2267C326.615 58.1352 324.452 58.8987 322.797 59.4076C321.78 59.7893 321.398 58.3897 322.289 58.008Z" fill="#D24A43"/>
<path d="M316.436 77.9838C317.454 79.5106 319.617 80.1468 321.398 79.3834C322.289 79.0017 323.052 80.2741 322.162 80.6558C319.617 81.8009 316.69 80.9102 315.164 78.62C314.655 77.9838 315.927 77.2204 316.436 77.9838Z" fill="#D24A43"/>
<path d="M283.227 129.769C283.991 130.914 284.627 131.932 285.518 133.077C286.281 133.968 286.917 134.858 287.681 135.749C293.025 141.856 299.895 146.564 307.784 148.982C316.436 151.526 326.36 150.763 332.722 143.765C338.066 137.912 339.211 129.896 336.412 122.898C334.503 123.025 319.49 123.407 319.49 123.407C310.965 124.425 302.822 126.97 292.643 128.497C289.462 128.878 286.408 129.26 283.227 129.769Z" fill="#FFA79B"/>
<path d="M302.184 50.3736L303.33 48.0833C304.22 46.302 306.765 47.8288 305.874 49.6101L304.729 51.9004C303.966 53.5545 301.294 52.1549 302.184 50.3736Z" fill="#322E28"/>
<path d="M315.925 38.6681C316.816 38.0319 317.707 37.3957 318.597 36.7595C319.234 36.2506 320.251 36.6323 320.633 37.2685C321.015 38.0319 320.76 38.7953 320.124 39.3042C319.234 39.9404 318.343 40.5766 317.452 41.2128C316.816 41.7217 315.798 41.34 315.416 40.7038C314.908 40.0676 315.162 39.177 315.925 38.6681Z" fill="#322E28"/>
<path d="M465.044 344.222C460.697 344.222 457.131 340.652 457.131 336.302C457.131 331.951 460.697 328.381 465.044 328.381C469.558 328.381 472.511 331.282 472.957 336.19C473.124 338.142 472.456 340.039 471.062 341.489C469.558 343.274 467.329 344.222 465.044 344.222ZM465.044 329.999C461.533 329.999 458.691 332.843 458.691 336.357C458.691 339.871 461.533 342.716 465.044 342.716C466.883 342.716 468.722 341.935 469.948 340.597C471.007 339.425 471.564 337.975 471.397 336.469C471.062 332.286 468.778 329.999 465.044 329.999Z" fill="#E6DFD1"/>
<path d="M430.791 105.239C423.769 105.239 418.029 99.4936 418.029 92.4656C418.029 85.4375 423.769 79.6924 430.791 79.6924C438.202 79.6924 442.827 84.322 443.552 92.4098C443.831 95.5334 442.772 98.5454 440.543 101C438.091 103.677 434.413 105.239 430.791 105.239ZM430.791 81.2542C424.605 81.2542 419.59 86.2742 419.59 92.4656C419.59 98.657 424.605 103.677 430.791 103.677C434.023 103.677 437.255 102.283 439.428 99.8841C441.323 97.8203 442.27 95.1987 442.047 92.5214C441.379 85.2702 437.366 81.2542 430.791 81.2542Z" fill="#E6DFD1"/>
<path d="M438.739 412.383C436.398 416.454 431.996 415.673 429.265 412.606C427.649 410.765 426.367 408.924 424.138 407.753C420.405 405.745 416.169 405.801 412.38 407.53C411.488 407.92 412.269 409.259 413.16 408.869C417.173 407.084 422.076 407.53 425.476 410.486C427.482 412.215 428.596 414.948 431.048 416.175C434.392 417.849 438.293 416.343 440.132 413.219C440.522 412.271 439.184 411.49 438.739 412.383Z" fill="#E6DFD1"/>
<path d="M436.785 420.638C434.445 424.71 430.043 423.929 427.312 420.861C425.696 419.021 424.414 417.18 422.185 416.009C418.452 414.001 414.216 414.057 410.427 415.786C409.535 416.176 410.315 417.515 411.207 417.124C415.219 415.339 420.123 415.786 423.523 418.742C425.529 420.471 426.643 423.204 429.095 424.431C432.439 426.105 436.34 424.599 438.179 421.475C438.624 420.583 437.287 419.802 436.785 420.638Z" fill="#E6DFD1"/>
<path d="M479.645 352.923C474.685 358.39 469.725 363.912 464.71 369.378C464.041 370.103 465.156 371.219 465.825 370.493C470.784 365.027 475.744 359.505 480.759 354.039C481.428 353.314 480.314 352.198 479.645 352.923Z" fill="#E6DFD1"/>
<path d="M608.957 336.886C603.329 352.671 579.534 347.818 572.791 362.99C572.401 363.882 573.739 364.663 574.129 363.771C580.871 348.599 604.667 353.564 610.462 337.276C610.796 336.328 609.292 335.938 608.957 336.886Z" fill="#E6DFD1"/>
<path d="M614.364 348.487C608.735 364.272 584.94 359.42 578.197 374.591C577.807 375.484 579.145 376.265 579.535 375.372C586.278 360.201 610.073 365.165 615.868 348.878C616.203 347.929 614.698 347.539 614.364 348.487Z" fill="#E6DFD1"/>
<path d="M537.292 435.304C530.103 427.551 522.97 419.798 515.782 412.045C515.113 411.32 513.998 412.435 514.667 413.16C521.856 420.913 528.989 428.667 536.178 436.42C536.902 437.089 537.961 436.029 537.292 435.304Z" fill="#E6DFD1"/>
<path d="M395.07 282.223C393.287 284.621 391.448 287.02 389.665 289.418C389.052 290.199 390.389 290.98 391.002 290.199C392.786 287.801 394.625 285.402 396.408 283.004C396.965 282.223 395.628 281.442 395.07 282.223Z" fill="#E6DFD1"/>
<path d="M455.309 214.787C452.467 216.014 449.625 217.186 446.839 218.413C445.947 218.803 446.728 220.142 447.619 219.751C450.461 218.524 453.303 217.353 456.09 216.126C456.981 215.735 456.201 214.397 455.309 214.787Z" fill="#E6DFD1"/>
<path d="M459.771 219.584C455.815 221.369 451.858 223.098 447.902 224.883C447.01 225.274 447.79 226.612 448.682 226.222C452.638 224.437 456.595 222.708 460.551 220.923C461.443 220.532 460.663 219.194 459.771 219.584Z" fill="#E6DFD1"/>
<path d="M406.774 96.0913C405.102 98.1551 403.43 100.219 401.758 102.283C401.145 103.064 402.204 104.123 402.873 103.398C404.545 101.334 406.216 99.2707 407.888 97.2069C408.501 96.426 407.442 95.3104 406.774 96.0913Z" fill="#E6DFD1"/>
<path d="M309.813 25.9781C303.516 25.1972 297.441 27.4841 293.206 32.1695C292.537 32.8946 293.652 34.0102 294.321 33.2851C298.333 28.8786 303.906 26.8148 309.813 27.5399C310.76 27.6515 310.76 26.0897 309.813 25.9781Z" fill="#E6DFD1"/>
<path d="M312.483 30.9981C306.186 30.2173 300.111 32.5042 295.876 37.1895C295.207 37.9146 296.322 39.0302 296.991 38.3051C301.003 33.8986 306.576 31.8348 312.483 32.5599C313.486 32.6715 313.486 31.1097 312.483 30.9981Z" fill="#E6DFD1"/>
<path d="M174.542 428.382C164.511 428.382 156.375 420.238 156.375 410.198C156.375 400.158 164.511 392.015 174.542 392.015C185.074 392.015 191.706 398.596 192.709 410.143C193.099 414.549 191.594 418.844 188.418 422.302C184.963 426.095 179.724 428.382 174.542 428.382ZM174.542 393.576C165.403 393.576 157.935 401.051 157.935 410.198C157.935 419.346 165.403 426.82 174.542 426.82C179.334 426.82 184.071 424.756 187.303 421.242C190.145 418.119 191.538 414.214 191.204 410.254C190.257 399.656 184.182 393.576 174.542 393.576Z" fill="#E6DFD1"/>
<path d="M167.907 96.4461C165.678 99.3466 163.449 102.303 161.22 105.203C160.607 105.984 161.944 106.765 162.557 105.984C164.786 103.084 167.015 100.128 169.244 97.227C169.857 96.3904 168.52 95.6652 167.907 96.4461Z" fill="#E6DFD1"/>
<path d="M171.028 102.582L165.344 110.837C164.787 111.674 166.124 112.455 166.681 111.618C168.576 108.885 170.471 106.152 172.366 103.363C172.923 102.582 171.585 101.801 171.028 102.582Z" fill="#E6DFD1"/>
<path d="M189.692 39.1622C185.233 33.8632 180.72 28.5643 176.262 23.2654C175.593 22.4845 174.534 23.6 175.147 24.3809L188.577 40.2777C189.246 41.0029 190.305 39.8873 189.692 39.1622Z" fill="#E6DFD1"/>
<path d="M139.096 474.399C132.687 471.164 126.223 467.985 119.815 464.749C118.923 464.303 118.143 465.642 119.034 466.088C125.443 469.323 131.907 472.503 138.316 475.738C139.207 476.184 139.987 474.845 139.096 474.399Z" fill="#E6DFD1"/>
<path d="M231.212 436.582C229.54 438.534 227.868 440.43 226.196 442.382C225.528 443.108 226.642 444.223 227.311 443.498C228.983 441.546 230.655 439.649 232.326 437.697C232.939 436.972 231.825 435.856 231.212 436.582Z" fill="#E6DFD1"/>
<path d="M114.495 198.769C112.266 210.873 96.7737 208.586 87.8575 209.59C81.5047 210.315 74.9289 213.383 73.0343 219.965C72.7556 220.913 74.2602 221.304 74.5389 220.356C77.8824 208.754 92.9286 211.543 101.901 210.316C108.198 209.423 114.718 205.909 115.944 199.16C116.166 198.212 114.718 197.821 114.495 198.769Z" fill="#E6DFD1"/>
<path d="M118.397 206.523C116.168 218.627 100.676 216.34 91.7598 217.344C85.407 218.069 78.8313 221.137 76.9366 227.718C76.658 228.667 78.1626 229.057 78.4412 228.109C81.7848 216.507 96.8309 219.296 105.803 218.069C112.1 217.176 118.62 213.662 119.846 206.913C120.013 205.965 118.564 205.519 118.397 206.523Z" fill="#E6DFD1"/>
</g>
<defs>
<clipPath id="clip0">
<rect width="640" height="499" fill="white"/>
</clipPath>
</defs>
</svg>

