<svg width="640" height="499" viewBox="0 0 640 499" fill="none" xmlns="http://www.w3.org/2000/svg">
<path d="M465.044 344.222C460.697 344.222 457.131 340.652 457.131 336.302C457.131 331.951 460.697 328.381 465.044 328.381C469.558 328.381 472.511 331.282 472.957 336.19C473.124 338.142 472.456 340.039 471.062 341.489C469.558 343.274 467.329 344.222 465.044 344.222ZM465.044 329.999C461.533 329.999 458.691 332.843 458.691 336.357C458.691 339.871 461.533 342.716 465.044 342.716C466.883 342.716 468.722 341.935 469.948 340.596C471.007 339.425 471.564 337.975 471.397 336.469C471.062 332.286 468.778 329.999 465.044 329.999Z" fill="#E6DFD1"/>
<path d="M430.791 105.239C423.769 105.239 418.029 99.4937 418.029 92.4656C418.029 85.4376 423.769 79.6924 430.791 79.6924C438.202 79.6924 442.827 84.322 443.552 92.4099C443.831 95.5334 442.772 98.5455 440.543 101C438.091 103.677 434.413 105.239 430.791 105.239ZM430.791 81.2542C424.605 81.2542 419.59 86.2743 419.59 92.4656C419.59 98.657 424.605 103.677 430.791 103.677C434.023 103.677 437.255 102.283 439.428 99.8841C441.323 97.8203 442.27 95.1988 442.047 92.5214C441.379 85.2703 437.366 81.2542 430.791 81.2542Z" fill="#E6DFD1"/>
<path d="M438.739 412.383C436.398 416.454 431.996 415.674 429.265 412.606C427.649 410.765 426.367 408.924 424.138 407.753C420.405 405.745 416.169 405.801 412.38 407.53C411.488 407.92 412.269 409.259 413.16 408.869C417.173 407.084 422.076 407.53 425.476 410.486C427.482 412.215 428.596 414.948 431.048 416.176C434.392 417.849 438.293 416.343 440.132 413.219C440.522 412.271 439.184 411.49 438.739 412.383Z" fill="#E6DFD1"/>
<path d="M436.785 420.638C434.445 424.71 430.043 423.929 427.312 420.861C425.696 419.021 424.414 417.18 422.185 416.009C418.452 414.001 414.216 414.057 410.427 415.786C409.535 416.176 410.315 417.515 411.207 417.124C415.219 415.339 420.123 415.786 423.523 418.742C425.529 420.471 426.643 423.204 429.095 424.431C432.439 426.104 436.34 424.598 438.179 421.475C438.624 420.582 437.287 419.802 436.785 420.638Z" fill="#E6DFD1"/>
<path d="M479.645 352.923C474.685 358.39 469.725 363.912 464.71 369.378C464.041 370.103 465.156 371.219 465.825 370.494C470.784 365.027 475.744 359.505 480.759 354.039C481.428 353.314 480.314 352.198 479.645 352.923Z" fill="#E6DFD1"/>
<path d="M608.957 336.886C603.329 352.671 579.534 347.818 572.791 362.99C572.401 363.882 573.739 364.663 574.129 363.771C580.871 348.599 604.667 353.564 610.462 337.276C610.796 336.328 609.292 335.938 608.957 336.886Z" fill="#E6DFD1"/>
<path d="M614.364 348.487C608.735 364.273 584.94 359.42 578.197 374.592C577.807 375.484 579.145 376.265 579.535 375.372C586.278 360.201 610.073 365.165 615.868 348.878C616.203 347.93 614.698 347.539 614.364 348.487Z" fill="#E6DFD1"/>
<path d="M537.292 435.304C530.103 427.551 522.97 419.798 515.782 412.045C515.113 411.32 513.998 412.435 514.667 413.16C521.856 420.913 528.989 428.667 536.178 436.42C536.902 437.089 537.961 436.029 537.292 435.304Z" fill="#E6DFD1"/>
<path d="M395.07 282.223C393.287 284.621 391.448 287.02 389.665 289.418C389.052 290.199 390.389 290.98 391.002 290.199C392.786 287.801 394.625 285.402 396.408 283.004C396.965 282.223 395.628 281.442 395.07 282.223Z" fill="#E6DFD1"/>
<path d="M455.309 214.787C452.467 216.014 449.625 217.186 446.839 218.413C445.947 218.803 446.728 220.142 447.619 219.751C450.461 218.524 453.303 217.353 456.09 216.126C456.981 215.735 456.201 214.397 455.309 214.787Z" fill="#E6DFD1"/>
<path d="M459.771 219.584C455.815 221.369 451.858 223.098 447.902 224.883C447.01 225.274 447.79 226.612 448.682 226.222C452.638 224.437 456.595 222.708 460.551 220.923C461.443 220.532 460.663 219.194 459.771 219.584Z" fill="#E6DFD1"/>
<path d="M406.774 96.0913C405.102 98.1551 403.43 100.219 401.758 102.283C401.145 103.064 402.204 104.123 402.873 103.398C404.545 101.334 406.216 99.2707 407.888 97.2069C408.501 96.426 407.442 95.3104 406.774 96.0913Z" fill="#E6DFD1"/>
<path d="M309.813 25.9781C303.516 25.1972 297.441 27.4841 293.206 32.1695C292.537 32.8946 293.652 34.0102 294.321 33.2851C298.333 28.8786 303.906 26.8148 309.813 27.5399C310.76 27.6515 310.76 26.0897 309.813 25.9781Z" fill="#E6DFD1"/>
<path d="M312.483 30.9981C306.186 30.2173 300.111 32.5042 295.876 37.1895C295.207 37.9146 296.322 39.0302 296.991 38.3051C301.003 33.8986 306.576 31.8348 312.483 32.5599C313.486 32.6715 313.486 31.1097 312.483 30.9981Z" fill="#E6DFD1"/>
<path d="M174.542 428.382C164.511 428.382 156.375 420.239 156.375 410.198C156.375 400.158 164.511 392.015 174.542 392.015C185.074 392.015 191.706 398.597 192.709 410.143C193.099 414.549 191.594 418.844 188.418 422.302C184.963 426.095 179.724 428.382 174.542 428.382ZM174.542 393.577C165.403 393.577 157.935 401.051 157.935 410.198C157.935 419.346 165.403 426.82 174.542 426.82C179.334 426.82 184.071 424.757 187.303 421.243C190.145 418.119 191.538 414.214 191.204 410.254C190.257 399.656 184.182 393.577 174.542 393.577Z" fill="#E6DFD1"/>
<path d="M167.907 96.4463C165.678 99.3467 163.449 102.303 161.22 105.203C160.607 105.984 161.944 106.765 162.557 105.984C164.786 103.084 167.015 100.128 169.244 97.2272C169.857 96.3905 168.52 95.6654 167.907 96.4463Z" fill="#E6DFD1"/>
<path d="M171.028 102.582L165.344 110.837C164.787 111.674 166.124 112.455 166.681 111.618C168.576 108.885 170.471 106.152 172.366 103.363C172.923 102.582 171.585 101.801 171.028 102.582Z" fill="#E6DFD1"/>
<path d="M189.692 39.1622C185.233 33.8632 180.72 28.5643 176.262 23.2654C175.593 22.4845 174.534 23.6 175.147 24.3809L188.577 40.2777C189.246 41.0029 190.305 39.8873 189.692 39.1622Z" fill="#E6DFD1"/>
<path d="M139.096 474.399C132.687 471.164 126.223 467.985 119.815 464.749C118.923 464.303 118.143 465.642 119.034 466.088C125.443 469.323 131.907 472.503 138.316 475.738C139.207 476.184 139.987 474.845 139.096 474.399Z" fill="#E6DFD1"/>
<path d="M231.212 436.582C229.54 438.534 227.868 440.43 226.196 442.383C225.528 443.108 226.642 444.223 227.311 443.498C228.983 441.546 230.655 439.649 232.326 437.697C232.939 436.972 231.825 435.857 231.212 436.582Z" fill="#E6DFD1"/>
<path d="M114.495 198.769C112.266 210.873 96.7737 208.586 87.8575 209.59C81.5047 210.315 74.9289 213.383 73.0343 219.965C72.7556 220.913 74.2602 221.304 74.5389 220.355C77.8824 208.754 92.9286 211.543 101.901 210.315C108.198 209.423 114.718 205.909 115.944 199.16C116.166 198.212 114.718 197.821 114.495 198.769Z" fill="#E6DFD1"/>
<path d="M118.397 206.523C116.168 218.627 100.676 216.34 91.7598 217.344C85.407 218.069 78.8313 221.137 76.9366 227.719C76.658 228.667 78.1626 229.057 78.4412 228.109C81.7848 216.507 96.8309 219.296 105.803 218.069C112.1 217.176 118.62 213.662 119.846 206.913C120.013 205.965 118.564 205.519 118.397 206.523Z" fill="#E6DFD1"/>
<path d="M325.921 273.412C325.308 273.923 324.695 274.332 323.878 274.638C321.528 275.66 319.28 276.477 316.93 277.192C305.692 281.994 293.432 283.731 281.376 282.505C271.568 288.431 259.716 290.679 248.58 288.431C242.654 295.174 234.379 299.363 225.592 302.121C224.775 303.143 223.958 304.267 223.242 305.289C218.543 312.134 209.756 310.499 205.772 305.595C202.707 304.982 200.152 303.041 198.722 299.772C198.416 299.056 198.211 298.137 198.007 297.32C195.453 297.115 192.898 296.502 190.344 295.583C189.833 295.378 189.425 295.174 188.914 295.072C177.88 296.094 166.744 294.255 156.322 289.35C149.579 286.183 149.784 274.945 156.322 271.778C158.366 270.756 160.511 269.734 162.555 268.713C162.759 268.61 162.861 268.508 163.065 268.406C162.759 268.508 162.452 268.61 162.146 268.61C161.839 268.713 161.431 268.815 161.022 268.917C144.062 273.514 127.102 278.112 110.143 282.71C104.523 284.242 98.1889 281.279 94 277.192V263.604C114.842 257.985 169.298 239.186 205.874 236.019C244.698 233.056 278.515 242.455 311.311 250.833C336.853 257.27 330.927 269.326 325.921 273.412Z" fill="#FFA79B"/>
<path d="M501.965 142.513H254.797V429.191H501.965V142.513Z" fill="#F3EFE7"/>
<path d="M444.079 300.094V245.883C444.079 212.136 416.722 184.78 382.976 184.78C349.23 184.78 321.873 212.136 321.873 245.883V300.094C321.873 333.84 349.23 361.197 382.976 361.197C416.722 361.197 444.079 333.84 444.079 300.094Z" fill="#D24A43"/>
<path d="M453.837 226.824H316.523V229.174H453.837C456.289 229.276 456.289 226.824 453.837 226.824Z" fill="white"/>
<path d="M453.837 248.177H316.523V250.527H453.837C456.289 250.527 456.289 248.177 453.837 248.177Z" fill="white"/>
<path d="M453.837 269.53H316.523V271.88H453.837C456.289 271.88 456.289 269.53 453.837 269.53Z" fill="white"/>
<path d="M455.063 290.883H317.749C316.523 290.883 316.523 293.233 316.523 293.233H453.837C456.289 293.233 456.289 290.883 455.063 290.883Z" fill="white"/>
<path d="M298.031 238.369C297.827 238.369 297.623 238.267 297.418 238.164L282.706 228.458C282.4 228.254 282.195 227.845 282.195 227.437C282.195 227.028 282.4 226.619 282.706 226.415L298.338 215.79C298.849 215.381 299.666 215.585 299.973 216.096C300.381 216.607 300.177 217.424 299.666 217.731L285.465 227.437L298.644 236.121C299.155 236.53 299.36 237.245 298.951 237.756C298.747 238.267 298.44 238.369 298.031 238.369Z" fill="white"/>
<path d="M467.221 305.493C466.813 305.493 466.506 305.289 466.2 304.982C465.791 304.471 465.996 303.654 466.506 303.347L480.708 293.641L467.528 284.957C467.017 284.548 466.813 283.833 467.221 283.322C467.63 282.812 468.345 282.607 468.856 283.016L483.568 292.722C483.875 292.926 484.079 293.335 484.079 293.744C484.079 294.152 483.875 294.561 483.568 294.765L467.937 305.391C467.63 305.391 467.426 305.493 467.221 305.493Z" fill="white"/>
<path d="M556.516 451.899C552.123 446.28 547.627 440.763 543.234 435.144C542.314 433.918 540.578 435.655 541.497 436.881C545.89 442.5 550.386 448.017 554.779 453.636C555.801 454.76 557.435 453.023 556.516 451.899Z" fill="#EBF4FF"/>
<path d="M412.967 346.054C422.673 366.385 404.589 376.5 402.239 378.134C408.369 404.085 392.227 410.93 372.508 414.302C346.251 420.432 319.177 422.169 297.211 422.475C236.727 423.292 187.585 407.661 94.2031 400.305V263.604L162.247 268.713H162.553L255.117 272.391C273.099 268.1 307.836 272.493 325.818 273.31C334.093 273.719 342.369 274.23 350.747 274.74C371.589 271.165 387.22 274.434 401.115 280.36C414.397 285.979 408.267 303.756 395.598 304.471L331.335 310.908C331.335 310.908 368.115 314.892 374.654 314.995C387.425 311.93 412.456 313.564 417.462 326.131C419.914 332.057 417.054 341.354 412.967 346.054Z" fill="#FFA79B"/>
<path d="M401.933 282.71C391.001 278.929 381.499 290.27 386.607 300.487C387.22 301.611 388.957 300.589 388.344 299.465C383.951 290.781 392.227 281.586 401.32 284.651C402.648 285.059 403.159 283.118 401.933 282.71Z" fill="#952C28"/>
<path d="M412.662 323.985C408.269 321.738 402.65 322.248 399.074 325.927C395.498 329.605 395.089 335.224 397.541 339.515C398.154 340.639 399.891 339.617 399.278 338.493C394.783 330.422 403.365 321.533 411.64 325.722C412.764 326.335 413.786 324.598 412.662 323.985Z" fill="#952C28"/>
<path d="M410.516 353.307C400.402 349.323 390.594 359.233 394.476 369.246C394.987 370.472 396.928 369.961 396.417 368.735C393.046 360.051 401.321 351.877 410.005 355.249C411.129 355.76 411.64 353.716 410.516 353.307Z" fill="#952C28"/>
<path d="M395.19 388.964C386.608 388.964 380.58 396.422 382.317 404.8C382.623 406.128 384.564 405.515 384.258 404.289C382.828 397.24 387.936 391.007 395.19 391.007C396.518 391.007 396.518 388.964 395.19 388.964Z" fill="#952C28"/>
<path d="M402.546 345.543C371.691 352.49 339.917 352.899 308.858 346.769C307.53 346.564 307.019 348.506 308.347 348.71C339.713 354.942 371.895 354.534 403.057 347.484C404.283 347.177 403.772 345.236 402.546 345.543Z" fill="#952C28"/>
<path d="M393.759 379.973C363.313 389.475 331.13 391.927 299.663 386.921C298.334 386.716 297.824 388.658 299.152 388.862C331.028 393.868 363.517 391.518 394.372 381.914C395.598 381.608 395.087 379.565 393.759 379.973Z" fill="#952C28"/>
<path d="M284.849 323.985C282.397 322.555 280.047 321.022 277.595 319.592C276.471 318.877 275.45 320.716 276.573 321.329C279.026 322.759 281.375 324.292 283.827 325.722C284.951 326.437 285.973 324.7 284.849 323.985Z" fill="#952C28"/>
<path d="M282.296 356.066C279.844 354.636 277.494 353.103 275.042 351.673C273.919 350.958 272.897 352.797 274.021 353.41C276.473 354.84 278.823 356.373 281.275 357.803C282.399 358.518 283.42 356.781 282.296 356.066Z" fill="#952C28"/>
<path d="M282.296 386.103C279.844 384.673 277.494 383.14 275.042 381.71C273.919 380.995 272.897 382.834 274.021 383.447C276.473 384.877 278.823 386.41 281.275 387.84C282.399 388.555 283.42 386.819 282.296 386.103Z" fill="#952C28"/>
<path d="M327.147 309.784C320.098 310.091 313.15 310.295 306.101 310.601C304.568 310.703 304.568 312.747 306.101 312.747C313.15 312.44 320.098 312.236 327.147 311.929C328.68 311.827 328.68 309.784 327.147 309.784Z" fill="#952C28"/>
<path d="M250.622 272.391C247.762 272.901 244.288 271.267 244.084 268.917C243.981 267.793 241.632 267.589 241.734 268.713C242.04 272.186 246.638 274.945 251.235 274.127C252.563 273.923 252.053 272.186 250.622 272.391Z" fill="#952C28"/>
<path d="M489.312 189.494C489.312 189.494 588.335 165.484 577.542 256.893C566.748 348.301 482.601 360.935 482.601 360.935" stroke="#F3EFE7" stroke-width="26"/>
<ellipse cx="379" cy="142.5" rx="124" ry="5.5" fill="#D8D8D8"/>
</svg>

