<svg width="640" height="499" viewBox="0 0 640 499" fill="none" xmlns="http://www.w3.org/2000/svg">
<g clip-path="url(#clip0)">
<path d="M465.044 344.222C460.697 344.222 457.131 340.652 457.131 336.302C457.131 331.951 460.697 328.381 465.044 328.381C469.558 328.381 472.511 331.282 472.957 336.19C473.124 338.142 472.456 340.039 471.062 341.489C469.558 343.274 467.329 344.222 465.044 344.222ZM465.044 329.999C461.533 329.999 458.691 332.843 458.691 336.357C458.691 339.871 461.533 342.716 465.044 342.716C466.883 342.716 468.722 341.935 469.948 340.597C471.007 339.425 471.564 337.975 471.397 336.469C471.062 332.286 468.778 329.999 465.044 329.999Z" fill="#E6DFD1"/>
<path d="M493.761 135.546C486.74 135.546 481 129.801 481 122.773C481 115.745 486.74 110 493.761 110C501.173 110 505.798 114.63 506.523 122.717C506.801 125.841 505.742 128.853 503.513 131.307C501.061 133.985 497.384 135.546 493.761 135.546ZM493.761 111.562C487.576 111.562 482.56 116.582 482.56 122.773C482.56 128.965 487.576 133.985 493.761 133.985C496.993 133.985 500.226 132.59 502.399 130.192C504.294 128.128 505.241 125.506 505.018 122.829C504.349 115.578 500.337 111.562 493.761 111.562Z" fill="#E6DFD1"/>
<path d="M438.739 412.383C436.398 416.454 431.996 415.673 429.265 412.606C427.649 410.765 426.367 408.924 424.138 407.753C420.405 405.745 416.169 405.801 412.38 407.53C411.488 407.92 412.269 409.259 413.16 408.869C417.173 407.084 422.076 407.53 425.476 410.486C427.482 412.215 428.596 414.948 431.048 416.175C434.392 417.849 438.293 416.343 440.132 413.219C440.522 412.271 439.184 411.49 438.739 412.383Z" fill="#E6DFD1"/>
<path d="M436.785 420.638C434.445 424.71 430.043 423.929 427.312 420.861C425.696 419.021 424.414 417.18 422.185 416.009C418.452 414.001 414.216 414.057 410.427 415.786C409.535 416.176 410.315 417.515 411.207 417.124C415.219 415.339 420.123 415.786 423.523 418.742C425.529 420.471 426.643 423.204 429.095 424.431C432.439 426.105 436.34 424.599 438.179 421.475C438.624 420.583 437.287 419.802 436.785 420.638Z" fill="#E6DFD1"/>
<path d="M479.645 352.923C474.685 358.39 469.725 363.912 464.71 369.378C464.041 370.103 465.156 371.219 465.825 370.493C470.784 365.027 475.744 359.505 480.759 354.039C481.428 353.314 480.314 352.198 479.645 352.923Z" fill="#E6DFD1"/>
<path d="M608.957 336.886C603.329 352.671 579.534 347.818 572.791 362.99C572.401 363.882 573.739 364.663 574.129 363.771C580.871 348.599 604.667 353.564 610.462 337.276C610.796 336.328 609.292 335.938 608.957 336.886Z" fill="#E6DFD1"/>
<path d="M614.364 348.487C608.735 364.272 584.94 359.42 578.197 374.591C577.807 375.484 579.145 376.265 579.535 375.372C586.278 360.201 610.073 365.165 615.868 348.878C616.203 347.929 614.698 347.539 614.364 348.487Z" fill="#E6DFD1"/>
<path d="M537.292 435.304C530.103 427.551 522.97 419.798 515.782 412.045C515.113 411.32 513.998 412.435 514.667 413.16C521.856 420.913 528.989 428.667 536.178 436.42C536.902 437.089 537.961 436.029 537.292 435.304Z" fill="#E6DFD1"/>
<path d="M395.07 282.223C393.287 284.621 391.448 287.02 389.665 289.418C389.052 290.199 390.389 290.98 391.002 290.199C392.786 287.801 394.625 285.402 396.408 283.004C396.965 282.223 395.628 281.442 395.07 282.223Z" fill="#E6DFD1"/>
<path d="M455.309 214.787C452.467 216.014 449.625 217.186 446.839 218.413C445.947 218.803 446.728 220.142 447.619 219.751C450.461 218.524 453.303 217.353 456.09 216.126C456.981 215.735 456.201 214.397 455.309 214.787Z" fill="#E6DFD1"/>
<path d="M459.771 219.584C455.815 221.369 451.858 223.098 447.902 224.883C447.01 225.274 447.79 226.612 448.682 226.222C452.638 224.437 456.595 222.708 460.551 220.923C461.443 220.532 460.663 219.194 459.771 219.584Z" fill="#E6DFD1"/>
<path d="M406.774 96.0913C405.102 98.1551 403.43 100.219 401.758 102.283C401.145 103.064 402.204 104.123 402.873 103.398C404.545 101.334 406.216 99.2707 407.888 97.2069C408.501 96.426 407.442 95.3104 406.774 96.0913Z" fill="#E6DFD1"/>
<path d="M309.813 25.9781C303.516 25.1972 297.441 27.4841 293.206 32.1695C292.537 32.8946 293.652 34.0102 294.321 33.2851C298.333 28.8786 303.906 26.8148 309.813 27.5399C310.76 27.6515 310.76 26.0897 309.813 25.9781Z" fill="#E6DFD1"/>
<path d="M312.483 30.9981C306.186 30.2173 300.111 32.5042 295.876 37.1895C295.207 37.9146 296.322 39.0302 296.991 38.3051C301.003 33.8986 306.576 31.8348 312.483 32.5599C313.486 32.6715 313.486 31.1097 312.483 30.9981Z" fill="#E6DFD1"/>
<path d="M174.542 428.382C164.511 428.382 156.375 420.238 156.375 410.198C156.375 400.158 164.511 392.015 174.542 392.015C185.074 392.015 191.706 398.596 192.709 410.143C193.099 414.549 191.594 418.844 188.418 422.302C184.963 426.095 179.724 428.382 174.542 428.382ZM174.542 393.576C165.403 393.576 157.935 401.051 157.935 410.198C157.935 419.346 165.403 426.82 174.542 426.82C179.334 426.82 184.071 424.756 187.303 421.242C190.145 418.119 191.538 414.214 191.204 410.254C190.257 399.656 184.182 393.576 174.542 393.576Z" fill="#E6DFD1"/>
<path d="M167.907 96.4463C165.678 99.3467 163.449 102.303 161.22 105.203C160.607 105.984 161.944 106.765 162.557 105.984C164.786 103.084 167.015 100.128 169.244 97.2272C169.857 96.3905 168.52 95.6654 167.907 96.4463Z" fill="#E6DFD1"/>
<path d="M171.028 102.582L165.344 110.837C164.787 111.674 166.124 112.455 166.681 111.618C168.576 108.885 170.471 106.152 172.366 103.363C172.923 102.582 171.585 101.801 171.028 102.582Z" fill="#E6DFD1"/>
<path d="M189.692 39.1622C185.233 33.8632 180.72 28.5643 176.262 23.2654C175.593 22.4845 174.534 23.6 175.147 24.3809L188.577 40.2777C189.246 41.0029 190.305 39.8873 189.692 39.1622Z" fill="#E6DFD1"/>
<path d="M139.096 474.399C132.687 471.164 126.223 467.985 119.815 464.749C118.923 464.303 118.143 465.642 119.034 466.088C125.443 469.323 131.907 472.503 138.316 475.738C139.207 476.184 139.987 474.845 139.096 474.399Z" fill="#E6DFD1"/>
<path d="M231.212 436.582C229.54 438.534 227.868 440.43 226.196 442.382C225.528 443.108 226.642 444.223 227.311 443.498C228.983 441.546 230.655 439.649 232.326 437.697C232.939 436.972 231.825 435.856 231.212 436.582Z" fill="#E6DFD1"/>
<path d="M114.495 198.769C112.266 210.873 96.7737 208.586 87.8575 209.59C81.5047 210.315 74.9289 213.383 73.0343 219.965C72.7556 220.913 74.2602 221.304 74.5389 220.355C77.8824 208.754 92.9286 211.543 101.901 210.315C108.198 209.423 114.718 205.909 115.944 199.16C116.166 198.212 114.718 197.821 114.495 198.769Z" fill="#E6DFD1"/>
<path d="M118.397 206.523C116.168 218.627 100.676 216.34 91.7598 217.344C85.407 218.069 78.8313 221.137 76.9366 227.718C76.658 228.667 78.1626 229.057 78.4412 228.109C81.7848 216.507 96.8309 219.296 105.803 218.069C112.1 217.176 118.62 213.662 119.846 206.913C120.013 205.965 118.564 205.519 118.397 206.523Z" fill="#E6DFD1"/>
<path d="M378.655 174.194C406.122 234.355 421.598 423.24 421.598 423.24L378.655 431.849L333.97 194.794L378.655 174.194Z" fill="#DACEB6"/>
<path d="M413.809 348.219C418.933 390.649 421.598 423.343 421.598 423.343L378.655 431.952L365.844 364.002C381.32 357.648 397.615 352.933 413.809 348.219Z" fill="#FFA79B"/>
<path d="M313.268 414.119C314.395 536.695 308.656 851.641 308.656 851.641H356.722C356.722 851.641 420.88 541.307 391.671 353.446C367.689 199.099 317.777 335.101 317.777 335.101L313.268 414.119Z" fill="#FFA79B"/>
<path d="M305.785 721.071C307.323 619.608 313.882 485.041 313.267 414.119L317.879 335.101C317.879 335.101 367.791 199.099 391.773 353.446C408.683 462.493 394.233 612.741 379.064 719.636C356.312 720.866 328.538 721.276 305.785 721.071Z" fill="#D24A43"/>
<path d="M223.898 362.567C230.764 416.374 195.304 648.919 195.304 648.919C195.304 648.919 163.225 725.683 154.103 851.641H257.104C257.104 851.641 260.588 827.556 235.376 821.817C210.164 816.077 205.552 806.956 245.728 708.465C285.903 609.974 344.219 324.749 344.219 324.749L223.898 362.567Z" fill="#FFA79B"/>
<path d="M253.108 727.938L176.549 708.977C186.285 670.237 195.304 648.919 195.304 648.919C195.304 648.919 230.765 416.374 223.899 362.567L344.117 324.749C344.117 324.749 299.945 612.536 259.872 711.027C257.515 716.971 255.26 722.608 253.108 727.938Z" fill="#D24A43"/>
<path d="M312.651 490.883C312.549 491.6 313.676 491.6 313.779 490.883C316.443 469.668 319.108 448.453 321.875 427.238C321.978 426.828 321.978 426.418 322.08 426.008C321.67 426.11 321.26 426.213 320.85 426.315C320.748 426.725 320.748 427.135 320.645 427.545C317.981 448.658 315.316 469.77 312.651 490.883Z" fill="black"/>
<path d="M320.645 427.545C321.055 427.443 321.465 427.34 321.875 427.238C326.896 426.008 331.816 424.675 336.838 423.446C337.555 423.241 337.248 422.113 336.53 422.318C331.713 423.548 326.896 424.778 322.08 426.008C321.67 426.11 321.26 426.213 320.85 426.315C320.747 426.828 320.645 427.135 320.645 427.545Z" fill="black"/>
<path d="M223.896 362.568L391.669 353.446C391.669 353.446 401.713 276.478 385.417 202.276C374.451 152.467 353.748 149.905 306.604 156.464C299.532 157.489 291.845 158.616 283.441 159.949C274.32 161.383 266.223 162.716 258.844 164.048C175.829 179.729 201.861 201.559 223.896 362.568Z" fill="#DACEB6"/>
<path d="M386.752 302.919C387.981 317.473 389.211 331.924 390.441 346.477C390.544 347.194 389.314 347.194 389.314 346.477C388.084 331.924 386.854 317.473 385.624 302.919C385.522 302.202 386.649 302.202 386.752 302.919Z" fill="white"/>
<path d="M253.207 186.288C301.274 213.755 325.359 241.222 325.359 241.222C325.052 241.529 357.335 106.04 369.121 99.2755C376.603 95.0735 398.946 92.9213 399.151 93.1262C399.151 93.1262 410.629 71.6037 411.449 71.5013C412.474 69.6565 415.959 69.349 416.881 72.0137C419.136 78.368 410.527 98.9681 408.169 103.068C414.934 116.289 412.167 132.584 400.073 142.628C397.921 192.437 390.234 296.565 363.075 318.6C326.999 347.809 225.638 253.315 225.638 253.315L253.207 186.288Z" fill="#DACEB6"/>
<path d="M400.175 142.526C399.561 157.386 398.433 177.064 396.383 197.972C376.091 198.484 356.106 192.54 341.142 178.396C350.981 142.013 362.87 102.76 369.121 99.2755C376.603 95.0735 398.946 92.9213 399.151 93.1262C399.151 93.1262 410.629 71.6037 411.449 71.5013C412.474 69.6565 415.959 69.349 416.881 72.0137C419.136 78.368 410.527 98.9681 408.169 103.068C415.036 116.289 412.269 132.584 400.175 142.526Z" fill="#FFA79B"/>
<path d="M320.234 241.119C321.772 236.814 323.309 232.51 324.846 228.103C324.949 227.796 325.051 227.386 325.256 227.078C330.278 212.935 335.402 198.791 340.424 184.648C340.629 183.931 339.604 183.623 339.297 184.341C334.275 198.484 329.253 212.525 324.129 226.668C324.026 226.976 323.924 227.386 323.719 227.693C322.181 231.998 320.644 236.405 319.004 240.812C318.799 241.529 319.927 241.836 320.234 241.119Z" fill="white"/>
<path d="M273.092 208.733L323.721 227.795L324.746 228.205C324.849 227.898 324.951 227.488 325.156 227.181L324.131 226.771L273.4 207.708C272.785 207.4 272.477 208.528 273.092 208.733Z" fill="white"/>
<path d="M394.744 131.662C395.359 129.1 396.487 126.742 398.024 124.59C398.741 123.668 399.561 122.745 400.381 121.925C401.304 121.106 402.738 120.388 403.558 119.466C404.481 118.441 403.558 116.699 403.353 115.264C403.148 113.931 403.046 112.599 403.046 111.267C403.046 109.012 403.456 106.757 404.071 104.502C404.481 104.502 404.891 104.502 405.301 104.605C403.866 109.422 403.968 114.341 405.608 119.158C405.711 119.363 405.608 119.671 405.301 119.773C400.484 122.335 397.204 126.64 395.872 131.867C395.667 132.687 394.539 132.379 394.744 131.662Z" fill="#D24A43"/>
<path d="M393.105 115.161C403.251 114.341 400.792 102.76 398.434 96.3033C398.229 95.5859 399.254 95.2784 399.562 95.9959C401.202 100.403 402.841 105.117 401.304 109.832C400.074 113.624 397 115.981 393.105 116.288C392.388 116.391 392.388 115.161 393.105 115.161Z" fill="#D24A43"/>
<path d="M384.495 116.801C389.209 116.698 391.362 112.291 391.259 108.192C391.157 105.117 389.927 102.043 388.697 99.2754C388.389 98.5579 389.517 98.2505 389.824 98.9679C391.464 103.067 393.309 107.679 391.977 112.189C390.952 115.571 388.082 118.031 384.495 118.031C383.675 117.928 383.675 116.801 384.495 116.801Z" fill="#D24A43"/>
<path d="M371.481 118.543C375.786 120.9 379.885 117.416 381.013 113.316C382.038 109.729 381.115 105.937 380.398 102.453C380.193 101.735 381.32 101.428 381.525 102.145C382.55 106.962 383.677 112.394 380.808 116.801C378.655 120.081 374.453 121.515 370.969 119.568C370.251 119.158 370.866 118.236 371.481 118.543Z" fill="#D24A43"/>
<path d="M371.069 108.192C370.966 107.474 372.094 107.167 372.196 107.884C372.401 109.114 372.606 110.344 372.811 111.574C372.914 112.291 371.889 112.599 371.684 111.881L371.479 110.754C371.479 110.652 371.479 110.652 371.479 110.549C371.376 109.729 371.274 109.012 371.069 108.192Z" fill="#D24A43"/>
<path d="M345.449 325.364C347.396 325.364 349.138 325.16 350.676 324.75C375.375 317.473 381.627 284.779 386.649 258.542C387.879 251.88 389.109 245.629 390.544 240.197C390.646 239.889 390.441 239.582 390.134 239.479C389.826 239.377 389.519 239.582 389.416 239.889C387.981 245.321 386.752 251.573 385.522 258.337C380.5 284.369 374.351 316.653 350.266 323.725C328.641 330.079 263.048 287.136 235.069 268.791C234.762 268.586 234.454 268.689 234.249 268.996C234.044 269.303 234.147 269.611 234.454 269.816C260.691 286.829 319.622 325.364 345.449 325.364Z" fill="white"/>
<path d="M283.441 159.846C291.743 158.514 299.532 157.386 306.604 156.361C307.116 157.181 307.526 158.001 307.731 159.026C307.936 160.051 307.936 161.076 307.731 161.896C308.243 169.89 302.094 178.191 293.588 180.549C279.854 184.341 265.916 175.527 258.947 163.843C266.223 162.613 274.422 161.281 283.441 159.846Z" fill="#FFA79B"/>
<path d="M302.606 74.0635C302.913 74.2684 303.323 74.4734 303.63 74.7809H303.733C313.879 73.6535 317.979 86.6695 309.78 92.2039C308.447 93.1262 306.398 91.2815 307.423 89.8466L307.525 89.7441C307.218 89.4367 307.013 89.0267 307.013 88.6168C307.115 85.0297 305.885 81.8526 303.528 79.3928C303.22 79.2904 302.913 79.1879 302.606 79.1879C302.196 79.0854 301.888 78.8804 301.683 78.5729C301.068 78.4704 300.556 78.163 300.351 77.3431C300.248 76.9331 300.146 76.6257 300.043 76.2157C299.736 74.5759 301.376 73.2436 302.606 74.0635Z" fill="#E64825"/>
<path d="M297.891 172.964L296.968 176.961C281.8 173.784 267.247 166.815 254.948 157.386C262.942 142.218 271.551 125.615 271.859 123.873L307.627 131.457L301.478 157.796L297.891 172.964Z" fill="#FFA79B"/>
<path d="M301.785 156.259L307.627 131.354L288.257 127.665C289.589 137.913 294.406 148.777 301.785 156.259Z" fill="black"/>
<path d="M260.073 89.6415C264.685 74.1658 303.528 66.9916 309.062 81.8524C313.162 93.0236 324.436 124.077 320.848 131.764C313.777 147.24 293.689 145.907 282.313 136.479C270.937 126.947 255.461 105.015 260.073 89.6415Z" fill="#FFA79B"/>
<path d="M218.975 157.796C220.307 154.926 223.177 153.184 226.047 153.389C224.612 146.932 226.867 139.861 232.913 136.171C238.858 132.584 246.237 134.019 251.156 138.426C253.001 128.382 256.896 119.056 263.045 110.959C259.765 103.682 258.126 96.0983 260.073 89.6415C264.582 74.7808 314.801 64.0195 308.242 80.3151C303.22 89.949 291.947 91.4863 282.313 93.0237C282.21 105.015 274.831 112.394 270.527 118.646C272.064 125 272.474 131.457 271.756 137.708C274.114 142.115 273.806 147.445 270.937 151.544C272.474 154.824 272.166 158.616 270.424 161.486C270.732 166.815 268.887 172.349 264.582 176.039C259.458 180.549 251.976 181.368 245.827 178.909C238.14 181.061 229.531 179.216 223.485 172.862C220.102 169.275 216.618 163.023 218.975 157.796Z" fill="#E64825"/>
<path d="M304.654 97.4306C305.167 98.353 305.679 99.2754 306.192 100.198C306.704 101.12 305.167 101.735 304.654 100.813C304.142 99.8904 303.63 98.968 303.117 98.0456C302.502 97.1232 304.142 96.5083 304.654 97.4306Z" fill="black"/>
<path d="M299.635 92.6138C300.659 92.1013 301.684 91.5889 302.709 91.0764C304.042 90.4615 304.964 92.5113 303.632 93.2287C302.607 93.7411 301.582 94.2536 300.557 94.766C299.225 95.3809 298.405 93.3312 299.635 92.6138Z" fill="#E64825"/>
<path d="M303.527 119.466C304.962 121.515 307.217 122.745 309.779 122.745C310.496 122.745 310.599 123.873 309.882 123.873C307.012 123.873 304.347 122.54 302.605 120.183C302.195 119.568 303.117 118.851 303.527 119.466Z" fill="#D24A43"/>
<path d="M263.865 112.701C264.48 107.064 271.859 102.247 278.828 105.63C280.468 111.574 282.21 117.518 284.055 123.462C281.288 125.717 274.831 127.46 270.424 125.307C265.402 122.95 263.25 118.851 263.865 112.701Z" fill="#FFA79B"/>
<path d="M272.68 113.521C274.525 114.751 276.369 116.083 278.214 117.313C278.829 117.723 278.112 118.646 277.497 118.236C277.394 118.133 277.189 118.031 277.087 118.031L276.984 117.928C275.345 116.801 273.602 115.571 271.962 114.444C271.348 114.034 272.065 113.111 272.68 113.521Z" fill="#D24A43"/>
<path d="M312.238 101.94C312.135 101.325 312.34 100.71 312.955 100.3C315.517 98.558 319.514 100.403 319.719 103.58C319.924 106.757 316.645 108.807 313.775 107.884C312.443 108.294 311.008 106.552 311.93 105.22C311.418 104.297 311.315 102.965 312.238 101.94Z" fill="#FFA79B"/>
<path d="M346.268 48.0312H371.48V57.0502H346.268V48.0312Z" fill="#D24A43"/>
<path d="M351.29 61.0472H371.48V70.0662H351.29V61.0472Z" fill="#D24A43"/>
<path d="M448.243 112.804L452.855 117.416C453.88 118.441 452.24 120.08 451.215 119.056L446.603 114.444C445.579 113.419 447.218 111.779 448.243 112.804Z" fill="#FECA55"/>
<path d="M451.012 42.3943C455.624 38.0898 460.236 33.7854 464.848 29.4809C465.975 28.456 467.512 30.0958 466.488 31.1207C461.876 35.4252 457.264 39.7297 452.652 44.0342C451.627 45.059 449.987 43.4192 451.012 42.3943Z" fill="#FECA55"/>
<path d="M358.771 28.251C364.1 32.5555 369.429 36.8601 374.861 41.2671C375.989 42.1894 374.349 43.8292 373.221 42.9069L357.131 29.8909C356.004 28.9685 357.643 27.3287 358.771 28.251Z" fill="#FECA55"/>
<path d="M465.154 59.1L474.275 54.4881C475.608 53.8731 476.735 55.8204 475.403 56.4353C472.328 57.9726 469.356 59.51 466.281 61.0473C464.949 61.6622 463.821 59.715 465.154 59.1Z" fill="#FECA55"/>
<path d="M387.879 104.912H445.169C445.784 104.912 446.297 104.4 446.297 103.785V46.4938C446.297 45.8789 445.784 45.3665 445.169 45.3665H387.879C387.264 45.3665 386.751 45.8789 386.751 46.4938V103.785C386.751 104.4 387.264 104.912 387.879 104.912ZM444.042 102.657H389.108V47.7237H444.042V102.657Z" fill="#003865"/>
<path d="M387.876 102.145V103.785H389.413L415.138 78.0602L416.778 76.4204L445.064 48.2362V46.4939H443.63C434.098 55.9228 424.669 65.3517 415.138 74.8831C414.625 75.3955 414.011 76.0105 413.498 76.5229C404.992 85.0294 396.485 93.6384 387.876 102.145Z" fill="#003865"/>
<path d="M387.877 47.4164V50.696C396.486 59.305 404.992 67.914 413.601 76.523C414.114 77.0354 414.728 77.6504 415.241 78.1628C423.747 86.6693 432.356 95.2783 440.863 103.887H444.143L416.983 76.6255L415.343 74.9857L387.877 47.4164Z" fill="#003865"/>
</g>
<defs>
<clipPath id="clip0">
<rect width="640" height="499" fill="white"/>
</clipPath>
</defs>
</svg>

