<svg width="640" height="499" viewBox="0 0 640 499" fill="none" xmlns="http://www.w3.org/2000/svg">
<g clip-path="url(#clip0)">
<path d="M539.854 333.832C535.541 333.289 532.448 329.302 532.992 324.986C533.535 320.669 537.519 317.572 541.832 318.115C546.31 318.678 548.879 321.925 548.708 326.851C548.63 328.809 547.73 330.607 546.167 331.872C544.451 333.455 542.121 334.117 539.854 333.832ZM541.63 319.72C538.146 319.282 534.972 321.749 534.533 325.236C534.094 328.722 536.559 331.9 540.042 332.338C541.867 332.567 543.789 332.022 545.172 330.847C546.369 329.817 547.103 328.448 547.125 326.933C547.316 322.74 545.334 320.186 541.63 319.72Z" fill="#E6DFD1"/>
<path d="M535.705 92.4421C528.738 91.5655 523.76 85.1488 524.638 78.1757C525.515 71.2026 531.927 66.219 538.894 67.0956C546.248 68.0209 550.259 73.1917 549.968 81.3067C549.854 84.4406 548.428 87.2969 545.91 89.4536C543.143 91.8039 539.298 92.8943 535.705 92.4421ZM538.699 68.6452C532.562 67.8729 526.959 72.2276 526.186 78.3705C525.413 84.5134 529.762 90.1203 535.9 90.8926C539.106 91.2961 542.487 90.316 544.943 88.2077C547.081 86.3965 548.348 83.9138 548.461 81.2295C548.703 73.9516 545.223 69.4661 538.699 68.6452Z" fill="#E6DFD1"/>
<path d="M505.247 398.175C502.416 401.923 498.146 400.599 495.82 397.214C494.446 395.186 493.404 393.2 491.339 391.759C487.885 389.301 483.676 388.827 479.7 390.07C478.767 390.346 479.374 391.772 480.307 391.496C484.511 390.226 489.321 391.281 492.324 394.638C494.099 396.604 494.864 399.455 497.143 400.979C500.252 403.056 504.31 402.049 506.525 399.179C507.03 398.287 505.801 397.346 505.247 398.175Z" fill="#E6DFD1"/>
<path d="M502.278 406.122C499.447 409.87 495.177 408.546 492.851 405.161C491.477 403.133 490.435 401.147 488.37 399.706C484.916 397.248 480.707 396.775 476.731 398.017C475.798 398.293 476.405 399.719 477.338 399.443C481.542 398.173 486.352 399.228 489.356 402.585C491.13 404.551 491.895 407.402 494.174 408.926C497.283 411.003 501.341 409.996 503.556 407.127C504.11 406.297 502.88 405.355 502.278 406.122Z" fill="#E6DFD1"/>
<path d="M273.245 269.124C267.642 273.928 262.031 278.788 256.373 283.585C255.619 284.221 256.585 285.467 257.339 284.831C262.943 280.027 268.553 275.167 274.212 270.37C274.966 269.734 273.999 268.488 273.245 269.124Z" fill="#E6DFD1"/>
<path d="M601.36 349.065C593.805 364.024 570.802 356.239 562.218 370.45C561.719 371.287 562.949 372.228 563.447 371.392C572.031 357.18 595.02 365.076 602.804 349.64C603.254 348.741 601.81 348.166 601.36 349.065Z" fill="#E6DFD1"/>
<path d="M591.819 438.161C585.654 429.571 579.545 420.988 573.381 412.398C572.808 411.595 571.563 412.563 572.136 413.366C578.3 421.956 584.409 430.539 590.574 439.129C591.209 439.884 592.392 438.964 591.819 438.161Z" fill="#E6DFD1"/>
<path d="M478.168 263.582C476.099 265.739 473.975 267.889 471.907 270.046C471.201 270.745 472.43 271.687 473.136 270.988C475.205 268.831 477.329 266.681 479.398 264.524C480.048 263.819 478.818 262.877 478.168 263.582Z" fill="#E6DFD1"/>
<path d="M546.356 204.194C543.383 205.057 540.417 205.865 537.5 206.734C536.566 207.01 537.173 208.436 538.106 208.16C541.079 207.297 544.045 206.49 546.963 205.62C547.897 205.344 547.29 203.918 546.356 204.194Z" fill="#E6DFD1"/>
<path d="M550.184 209.511C546.036 210.788 541.894 212.01 537.746 213.287C536.812 213.563 537.419 214.988 538.353 214.712C542.501 213.435 546.643 212.214 550.791 210.937C551.724 210.66 551.118 209.235 550.184 209.511Z" fill="#E6DFD1"/>
<path d="M513.018 80.3679C511.102 82.2068 509.185 84.0457 507.269 85.8847C506.563 86.5829 507.482 87.7666 508.236 87.1306C510.152 85.2917 512.068 83.4528 513.985 81.6138C514.69 80.9156 513.779 79.6766 513.018 80.3679Z" fill="#E6DFD1"/>
<path d="M349.623 71.2482C343.473 69.6873 337.161 71.198 332.374 75.318C331.62 75.9539 332.586 77.1999 333.34 76.564C337.871 72.6929 343.658 71.3409 349.428 72.7978C350.354 73.0268 350.549 71.4772 349.623 71.2482Z" fill="#E6DFD1"/>
<path d="M351.645 76.5623C345.494 75.0014 339.182 76.5121 334.395 80.6321C333.641 81.268 334.608 82.514 335.362 81.8781C339.893 78.007 345.68 76.655 351.45 78.1119C352.431 78.3478 352.626 76.7983 351.645 76.5623Z" fill="#E6DFD1"/>
<path d="M258.729 159.162C254.271 153.863 249.757 148.564 245.299 143.265C244.63 142.484 243.571 143.6 244.184 144.381L257.614 160.278C258.283 161.003 259.342 159.887 258.729 159.162Z" fill="#E6DFD1"/>
<path d="M183.495 232.769C181.266 244.873 165.774 242.586 156.857 243.59C150.505 244.315 143.929 247.383 142.034 253.965C141.756 254.913 143.26 255.304 143.539 254.355C146.882 242.754 161.929 245.543 170.901 244.315C177.198 243.423 183.718 239.909 184.944 233.16C185.166 232.212 183.718 231.821 183.495 232.769Z" fill="#E6DFD1"/>
<path d="M187.397 240.523C185.168 252.627 169.676 250.34 160.76 251.344C154.407 252.069 147.831 255.137 145.937 261.718C145.658 262.667 147.163 263.057 147.441 262.109C150.785 250.507 165.831 253.296 174.803 252.069C181.1 251.176 187.62 247.662 188.846 240.913C189.013 239.965 187.564 239.519 187.397 240.523Z" fill="#E6DFD1"/>
<mask id="mask0" mask-type="alpha" maskUnits="userSpaceOnUse" x="283" y="19" width="469" height="475">
<rect x="283" y="19" width="468.429" height="475" fill="white"/>
</mask>
<g mask="url(#mask0)">
<path d="M394.075 144.118C395.446 159.965 410.471 215.238 410.471 215.238L389.681 221.404C389.807 238.992 379.399 304.256 373.93 331.043C381.716 337.154 387.043 338.609 391.15 348.162C395.48 358.138 398.173 356.654 404.223 365.826C407.248 370.412 400.676 375.984 396.651 371.989C390.215 365.477 373.875 357.595 372.683 362.159C371.554 366.606 364.226 375.242 367.099 382.615C373.724 388.777 383.952 399.157 387.401 406.164C388.651 408.73 386.786 413.004 384.179 412.798C384.206 412.888 384.142 413.005 384.169 413.095C383.586 415.422 380.43 418.316 376.526 416.047C375.58 419.461 372.574 420.549 369.34 419.55C365.715 425.815 349.114 415.072 342.157 405.484C309.743 353.314 325.873 219.867 321.139 183.769C316.441 147.465 334.487 153.177 394.075 144.118Z" fill="#FFA79B"/>
<path d="M389.278 205.857L391.126 219.017C391.249 219.764 389.999 219.841 389.876 219.094C389.251 214.677 388.653 210.351 388.028 205.934C387.968 205.071 389.245 205.083 389.278 205.857Z" fill="black"/>
<path d="M345.99 398.276C351.053 406.761 358.559 413.249 367.701 417C368.374 417.29 368.128 418.44 367.365 418.177C357.989 414.3 350.134 407.622 344.901 398.893C344.507 398.226 345.597 397.609 345.99 398.276Z" fill="black"/>
<path d="M359.025 385.108C363.738 396.047 372.055 404.938 382.621 410.519C383.321 410.898 382.751 411.949 382.051 411.569C371.252 405.862 362.765 396.727 357.855 385.455C357.551 384.761 358.721 384.414 359.025 385.108Z" fill="black"/>
<path d="M351.937 391.91C357.653 401.279 365.569 408.82 375.228 413.984C375.928 414.364 375.359 415.414 374.658 415.035C364.793 409.834 356.617 402.076 350.847 392.527C350.48 391.951 351.543 391.244 351.937 391.91Z" fill="black"/>
<path d="M344.792 313.196C327.238 414.016 320.197 744.826 322.356 790.824L401.586 798.147C401.586 798.147 414.353 654.52 408.251 626.264C408.251 626.264 449.555 324.836 447.959 290.948L344.792 313.196Z" fill="#8DB8A8"/>
<path d="M603.415 783.502L524.937 794.955C508.884 761.348 475.935 668.601 464.482 623.917C455.095 587.401 399.803 337.885 394.828 303.527H513.954C515.08 309.535 516.019 315.167 516.958 320.518C519.117 333.473 520.619 344.55 521.651 354.219C522.308 359.851 523.153 367.455 524.374 376.561C533.292 446.027 555.821 600.637 555.821 600.637C566.617 615.281 603.415 783.502 603.415 783.502Z" fill="#8DB8A8"/>
<path d="M524.186 376.467C509.635 370.834 493.677 360.602 483.914 348.211C474.339 336.101 467.486 320.049 464.67 303.433H513.766C514.892 309.441 515.831 315.073 516.77 320.424C518.929 333.379 520.431 344.456 521.463 354.125C522.027 359.757 522.965 367.361 524.186 376.467Z" fill="black"/>
<path d="M428.997 467.055C424.491 445.745 419.985 424.342 415.479 403.033C415.385 402.563 415.291 402.094 415.197 401.625C415.667 401.719 416.042 401.906 416.512 402C416.605 402.47 416.699 402.939 416.793 403.315C421.205 424.436 425.711 445.558 430.123 466.679C430.311 467.524 429.184 467.806 428.997 467.055Z" fill="black"/>
<path d="M416.794 403.408C416.325 403.314 415.855 403.127 415.48 403.033L392.669 396.368C392.012 396.18 392.199 395.241 392.856 395.147C393.889 395.054 408.909 399.841 415.292 401.625C415.762 401.719 416.137 401.906 416.606 402C416.606 402.563 416.7 402.939 416.794 403.408Z" fill="black"/>
<path d="M568.21 249.362C555.256 250.77 542.207 252.084 529.159 253.023C526.53 253.211 523.996 253.399 521.367 253.586C521.274 274.989 521.18 296.299 521.086 317.702C496.679 317.42 472.272 316.294 447.864 315.261C424.302 314.229 400.646 313.196 377.084 313.29C366.288 313.29 355.587 313.384 344.791 313.196C344.697 301.65 344.604 260.815 344.604 249.362C340.661 250.019 317.262 249.362 317.262 249.362C316.98 245.138 317.262 213.694 317.262 209.563C317.074 197.547 317.262 188.817 317.262 176.707C317.261 164.598 320.547 155.207 326.649 148.076C329.701 144.51 334.856 139.929 339.793 136.714C356.221 126.016 360.656 126.294 376.802 120.849C387.222 117.376 398.487 117.845 409.189 118.972C411.629 119.253 414.164 119.535 416.605 119.816C426.461 120.943 436.412 122.351 446.175 123.759C455.468 125.073 464.762 126.575 474.055 128.171C489.169 130.706 504.189 133.522 519.115 136.714C524.559 137.84 543.334 143.097 550.093 155.113L550.187 155.207C554.129 162.247 556.57 170.039 558.26 178.112C561.357 192.662 563.141 207.588 565.112 222.42C566.239 231.338 567.272 240.35 568.21 249.362Z" fill="#B0DBCB"/>
<path d="M474.053 128.077C468.609 140.469 458.94 150.513 444.201 151.734C426.459 153.236 410.501 136.432 416.603 119.723C426.459 120.849 436.41 122.257 446.173 123.665C455.466 125.073 464.76 126.575 474.053 128.077Z" fill="#FFA79B"/>
<path d="M492.922 193.226C492.922 192.475 491.608 192.475 491.702 193.226C492.641 210.78 493.486 228.334 494.424 245.982C494.237 246.076 494.143 246.358 494.143 246.64C494.237 247.109 494.424 247.578 494.518 248.048C494.706 248.705 495.739 248.611 495.739 247.86C494.8 229.649 493.861 211.437 492.922 193.226Z" fill="white"/>
<path d="M356.993 148.448C356.148 154.456 355.304 160.464 354.459 166.472C354.365 167.223 355.491 167.598 355.679 166.753C356.524 160.745 357.369 154.738 358.214 148.73C358.307 147.979 357.087 147.697 356.993 148.448Z" fill="white"/>
<path d="M568.212 249.362C552.629 252.554 495.366 253.868 495.366 253.868V275.553C478.468 280.434 418.859 308.972 394.733 321.832C386.66 316.106 383.75 311.412 373.424 310.192C362.629 308.878 363.286 305.874 352.772 302.682C347.515 301.086 344.042 308.972 349.017 311.694C357.09 316.012 369.294 329.436 365.257 331.877C361.314 334.224 355.119 343.705 347.233 343.048C339.442 338.448 326.581 331.595 318.883 330.281C316.067 329.812 312.5 332.816 313.439 335.256C313.345 335.256 313.251 335.35 313.157 335.35C311.092 336.571 309.215 340.419 312.5 343.517C309.496 345.395 309.308 348.586 311.186 351.403C306.211 356.659 321.23 369.52 332.401 373.463C391.635 389.703 514.985 336.289 550.939 330.563C587.08 324.742 576.472 309.066 568.212 249.362Z" fill="#FFA79B"/>
<path d="M510.387 271.516L497.245 273.488C496.494 273.581 496.775 274.802 497.526 274.708C501.938 274.051 506.256 273.394 510.668 272.737C511.513 272.549 511.138 271.329 510.387 271.516Z" fill="black"/>
<path d="M338.225 367.737C328.65 365.296 320.295 359.945 314.099 352.247C313.63 351.684 312.597 352.247 313.067 352.905C319.45 360.79 328.087 366.422 337.943 368.957C338.694 369.145 338.976 367.924 338.225 367.737Z" fill="black"/>
<path d="M347.142 351.497C335.314 350.088 324.424 344.644 316.07 336.101C315.506 335.538 314.662 336.383 315.225 336.946C323.767 345.676 334.938 351.215 347.142 352.717C347.893 352.811 347.893 351.59 347.142 351.497Z" fill="black"/>
<path d="M342.636 360.227C332.028 357.41 322.547 351.966 314.849 344.174C314.286 343.611 313.441 344.456 314.004 345.019C321.796 352.998 331.558 358.631 342.354 361.447C343.011 361.635 343.387 360.414 342.636 360.227Z" fill="black"/>
<path d="M467.766 136.526L421.111 132.208L420.547 119.159L419.89 102.356L418.67 73.443H453.685C453.685 76.9163 467.766 136.526 467.766 136.526Z" fill="#FFA79B"/>
<path d="M442.327 102.219C442.542 100.917 442.63 99.7258 442.726 98.4155L419.788 104.152C420.119 104.536 420.397 113.778 420.663 124.816C430.172 119.288 438.281 111.622 442.327 102.219Z" fill="black"/>
<path d="M462.321 47.534C454.905 31.8571 412.568 30.5429 409.189 47.1585C406.654 59.7375 407.405 68.28 404.308 78.0429C401.773 86.116 399.708 94.3769 404.683 101.981C414.727 117.188 435.755 112.682 446.269 100.76C456.783 88.7445 469.644 63.0231 462.321 47.534Z" fill="#FFA79B"/>
<path d="M462.322 47.5339C457.628 37.4895 438.571 33.3591 424.584 35.9875C424.209 35.7998 423.833 35.5181 423.364 35.4243C421.111 34.5794 418.107 34.861 416.511 36.4569C413.507 35.3304 409.846 36.2691 408.156 39.367C405.81 43.5913 408.907 48.0972 408.907 48.3788C413.601 50.8195 420.548 51.5705 425.054 52.3215C432.094 53.6357 440.543 54.2928 446.081 53.8235C446.832 58.7049 446.363 71.3778 442.233 76.1654C436.412 82.9243 410.597 78.7 405.434 73.443C405.153 74.945 404.683 76.447 404.214 77.949C401.679 86.0221 399.614 94.283 404.589 101.887C414.634 117.094 435.661 112.588 446.175 100.666C456.783 88.7444 469.644 63.0231 462.322 47.5339Z" fill="#952C28"/>
<path d="M421.205 76.4469C419.891 76.5407 418.389 76.6346 417.075 76.1652C415.573 75.602 414.165 73.8184 415.479 72.3164C415.948 71.7532 415.104 70.8145 414.634 71.4716C413.414 72.8797 413.602 74.851 414.916 76.1652C416.606 77.855 419.046 77.855 421.299 77.6672C421.956 77.5734 421.956 76.353 421.205 76.4469Z" fill="black"/>
<path d="M432.939 86.4915C432.845 85.7405 431.625 85.7405 431.718 86.4915C432 89.5893 429.653 92.1239 426.555 92.03C425.804 92.03 425.804 93.2504 426.555 93.2504C430.31 93.3442 433.314 90.2464 432.939 86.4915Z" fill="white"/>
<path d="M417.449 63.7741C416.98 68.7494 412.286 72.5044 407.311 71.1901C402.242 69.8759 400.083 64.3374 402.054 59.7376C402.336 58.9866 401.303 58.4233 401.021 59.0805C398.675 64.4312 401.115 70.8147 406.935 72.3166C412.85 73.9125 418.106 69.5004 418.67 63.6803C418.764 63.0232 417.543 63.0231 417.449 63.7741Z" fill="#952C28"/>
<path d="M441.763 66.121C442.044 71.1901 438.008 75.5083 432.845 74.9451C427.682 74.3818 424.678 69.2188 425.992 64.3374C426.18 63.5864 425.053 63.117 424.865 63.868C423.363 69.5004 426.649 75.4145 432.657 76.0716C438.665 76.7287 443.265 71.6595 442.983 65.8393C442.983 65.1822 441.763 65.2761 441.763 66.121Z" fill="#952C28"/>
<path d="M425.335 65.6516C422.706 65.4639 420.172 65.37 417.637 65.1822C416.886 65.1822 416.886 66.4026 417.637 66.4026C420.172 66.5903 422.706 66.6842 425.335 66.872C425.335 66.4026 425.335 66.0271 425.335 65.6516Z" fill="#952C28"/>
<path d="M432.281 64.9005C432.188 66.027 432 67.1535 431.906 68.2799C431.812 69.4064 433.596 69.4064 433.69 68.2799C433.783 67.1535 433.971 66.027 434.065 64.9005C434.159 63.6801 432.375 63.6801 432.281 64.9005Z" fill="black"/>
<path d="M409.752 60.3946C409.658 61.5211 409.47 62.6476 409.377 63.7741C409.283 64.9006 411.066 64.9006 411.16 63.7741C411.254 62.6476 411.442 61.5211 411.536 60.3946C411.724 59.1743 409.94 59.1743 409.752 60.3946Z" fill="black"/>
<path d="M472.647 71.3778C471.051 65.4637 462.509 61.5211 455.656 66.2147C454.905 72.7859 453.966 79.357 452.934 85.9282C456.219 87.8995 463.354 88.6505 467.672 85.7404C472.647 82.4548 474.243 77.6673 472.647 71.3778Z" fill="#FFA79B"/>
<path d="M462.792 73.3491C461.009 75.0388 459.225 76.6347 457.535 78.3244C456.972 78.8877 457.817 79.6387 458.38 79.1693C458.474 79.0754 458.662 78.9815 458.756 78.8877C458.85 78.8877 458.85 78.7938 458.85 78.7938C460.445 77.2918 462.041 75.7898 463.637 74.2879C464.294 73.7246 463.355 72.8798 462.792 73.3491Z" fill="black"/>
<path d="M414.072 56.1703C412.852 55.7009 411.632 55.2315 410.411 54.7622C409.754 54.4805 409.097 55.0438 408.909 55.607C408.721 56.2641 409.191 56.9213 409.754 57.109C410.974 57.5784 412.195 58.0477 413.415 58.5171C414.072 58.7987 414.729 58.2355 414.917 57.6722C415.105 56.9212 414.729 56.358 414.072 56.1703Z" fill="black"/>
<path d="M433.784 55.1376C432.563 55.0438 431.343 55.0438 430.123 54.9499C428.527 54.856 428.527 57.2967 430.123 57.3906C431.343 57.4845 432.563 57.4845 433.784 57.5784C435.38 57.6722 435.38 55.1376 433.784 55.1376Z" fill="black"/>
</g>
<path d="M213.053 322.248C208.06 325.756 205.766 331.289 207.115 337.227C208.465 343.165 213.998 347.888 220.071 348.158C225.739 348.428 231.272 344.65 233.296 339.387C235.32 334.123 233.431 327.646 228.978 324.137C224.659 320.493 217.777 319.144 213.053 322.248Z" fill="#0EA36C"/>
<path d="M142.467 357.673C144.626 355.784 146.11 353.085 145.031 350.521C145.031 350.521 145.031 350.386 144.896 350.386C144.626 349.711 144.221 349.037 143.681 348.632C142.601 347.552 140.982 347.012 139.498 346.742C134.504 345.663 129.241 346.877 124.248 345.933C124.653 348.902 125.463 351.871 127.082 354.3C128.701 356.864 131.131 358.888 133.965 359.698C136.934 360.238 140.172 359.698 142.467 357.673Z" fill="#DACEB6"/>
<path d="M144.759 359.698C144.624 357.269 143.679 354.839 141.25 354.165H141.115C140.575 354.03 139.9 353.895 139.226 354.03C137.876 354.165 136.797 354.974 135.717 355.784C132.343 358.483 130.319 362.667 127.08 365.501C129.239 366.85 131.668 367.795 134.233 368.065C136.797 368.335 139.361 367.795 141.52 366.31C143.544 364.691 145.029 362.262 144.759 359.698Z" fill="#DACEB6"/>
<path d="M61.7739 428.455C64.7428 438.711 75.8088 447.348 85.9302 444.109L97.536 456.525C81.3418 465.971 59.4797 464.757 44.3651 453.556C29.2505 442.355 21.8282 421.707 26.2816 403.489C27.6311 398.36 32.1794 384.893 32.1794 371.655C29.2137 345.933 33.4696 343.74 36.6926 340.517C41.6774 335.533 52.795 331.918 63.3212 338.261C73.8474 344.604 75.1341 354.366 74.4594 366.647C73.9196 377.308 69.3312 387.294 65.5525 397.281C61.7739 407.267 58.805 418.198 61.7739 428.455Z" fill="#D24A43"/>
<path d="M82.9506 462.78C79.1466 460.798 76.7422 458.102 74.4529 454.421C72.2063 450.823 71.4396 445.664 70.9883 441.152C70.9883 441.152 74.1472 442.957 76.8549 443.859C79.5625 444.762 82.6613 444.762 82.6613 444.762C82.7857 446.436 82.5682 446.072 82.6613 447.562C82.8557 451.164 82.9278 454.233 82.9146 456.904C82.8965 458.459 82.8953 460.257 82.9506 462.78Z" fill="black"/>
<g opacity="0.3">
<g opacity="0.3">
<g opacity="0.3">
<path opacity="0.3" d="M83.2326 444.919C82.018 445.864 80.2636 444.514 78.7791 444.919C77.6995 445.189 77.1597 446.403 76.7549 447.618C75.8102 450.452 75.1355 453.421 75.8102 456.255C76.485 459.089 78.6442 461.788 81.4782 462.328C82.2879 462.463 83.2326 462.328 83.5025 461.653C83.7724 461.248 83.6374 460.843 83.6374 460.438C83.5025 455.445 83.3675 450.452 83.2326 445.459" fill="black"/>
</g>
</g>
</g>
<path d="M127.226 500.654L119.398 454.096L150.707 445.864C157.05 447.618 162.583 452.746 165.552 459.494C168.521 466.241 167.306 477.847 164.877 485C170.95 484.595 180.397 486.079 183.366 487.159C189.168 489.183 194.836 493.367 194.027 500.519L127.226 500.654Z" fill="#D24A43"/>
<path d="M134.774 500.654L126.947 454.096L158.256 445.864C164.599 447.618 170.132 452.746 173.101 459.494C176.07 466.241 174.855 477.847 172.426 485C178.499 484.595 187.945 486.079 190.914 487.159C196.717 489.183 202.385 493.501 201.576 500.654H134.774Z" fill="#B53730"/>
<path d="M231.004 405.783L255.565 384.056L260.019 393.502C260.019 393.502 235.997 434.797 231.814 434.258C227.63 433.718 203.609 424.406 203.609 424.406L194.162 413.745L208.467 384.056L231.004 405.783Z" fill="#D24A43"/>
<path d="M98.2102 500.654H174.323C173.918 482.975 161.098 485 161.098 485H143.554C153.136 479.601 155.97 465.836 155.97 465.836C174.323 460.843 189.033 439.116 189.033 439.116L203.338 409.561L204.012 420.223L210.625 406.728C216.833 382.841 198.075 348.024 198.075 348.024L212.784 348.428C212.784 340.601 203.203 340.601 196.32 338.982C189.303 337.362 191.867 328.321 191.867 328.321C191.867 328.321 208.331 330.345 214.943 322.518C221.556 314.69 218.182 303.624 218.182 303.624L194.296 306.458C191.057 302.815 179.181 297.417 171.489 299.441C163.797 301.465 149.492 312.531 146.928 318.739C144.364 324.947 143.284 344.65 141.935 361.519C140.585 378.388 130.059 389.454 120.477 400.115C110.896 410.776 99.9751 417.496 90.3935 428.967C87.4246 432.611 82.9607 439.521 82.2859 446.268C80.6665 464.082 85.3898 481.896 94.9714 496.335L98.2102 500.654Z" fill="#D24A43"/>
<path d="M204.824 396.606C204.824 397.146 205.228 487.159 205.228 487.159C205.228 487.159 222.232 488.508 224.661 500.654H194.027C194.027 500.654 175.269 445.459 169.466 440.735C163.663 436.012 154.352 431.829 154.352 431.829L162.854 428.185L157.051 420.763C157.051 420.763 159.75 423.866 163.258 418.873" fill="#D24A43"/>
<path d="M211.167 304.434C210.897 305.649 211.302 306.998 211.976 307.943C212.651 308.888 213.731 309.562 214.81 309.967C216.16 310.642 217.779 311.047 219.264 310.642C219.534 308.753 219.399 306.863 218.994 304.974C218.859 304.434 218.724 303.759 218.184 303.49C217.914 303.355 217.509 303.355 217.239 303.22C215.215 303.22 213.191 303.624 211.167 304.434Z" fill="black"/>
<path d="M250.438 389.993C253.137 386.62 255.566 383.516 257.995 381.896C260.559 380.142 263.663 378.927 266.767 379.197C269.871 379.332 272.974 380.952 274.594 383.651C276.078 386.35 275.808 390.128 273.514 392.288C271.625 393.907 269.196 394.582 266.767 394.582C265.552 394.582 264.068 394.312 263.123 393.502C262.178 392.693 261.638 390.803 262.448 389.319L259.614 394.312L250.438 389.993Z" fill="#D24A43"/>
<g opacity="0.3">
<g opacity="0.3">
<g opacity="0.3">
<path opacity="0.3" d="M204.822 423.327C207.251 422.922 209.816 422.652 212.245 422.247C212.785 422.112 213.324 422.112 213.729 421.707C214.404 421.032 214.269 420.088 213.999 419.143C212.11 411.586 209.276 404.163 205.362 397.416C204.687 406.458 204.418 415.499 204.687 424.541" fill="black"/>
</g>
</g>
</g>
<g opacity="0.3">
<g opacity="0.3">
<g opacity="0.3">
<path opacity="0.3" d="M145.442 334.798C145.577 338.982 146.252 343.705 148.681 347.079C151.11 350.453 155.428 352.882 159.612 352.207C164.74 351.397 168.384 346.539 169.463 341.411C170.543 336.283 169.328 331.154 168.249 326.026C168.519 330.75 168.788 335.608 167.169 340.061C165.55 344.515 161.501 348.428 156.778 348.428C153.539 348.428 150.435 346.539 148.546 343.84C146.521 341.276 145.307 338.037 145.442 334.798Z" fill="black"/>
</g>
</g>
</g>
<g opacity="0.3">
<g opacity="0.3">
<g opacity="0.3">
<path opacity="0.3" d="M139.508 356.66C141.802 369.211 154.892 378.253 166.363 384.056C177.834 389.859 190.52 392.827 203.34 394.312C205.904 394.582 208.333 394.852 210.897 394.717C212.382 394.582 214.271 394.042 214.541 392.423C214.811 390.803 212.922 389.724 211.437 389.184C194.838 382.706 178.509 375.284 162.854 366.782C155.702 363.003 148.55 358.82 140.722 357.2" fill="black"/>
</g>
</g>
</g>
<path d="M139.506 356.66C142.34 362.598 146.523 366.107 151.652 370.156C167.036 382.571 185.794 390.803 205.497 392.827C207.252 392.962 208.871 393.097 210.625 392.692C212.245 392.288 213.864 391.343 214.674 389.859C215.754 387.969 215.349 385.675 214.809 383.516C213.459 377.308 211.57 371.37 209.411 365.432C209.276 364.892 209.006 364.488 208.736 364.083C207.656 363.003 207.252 363.003 205.767 363.543C195.241 367.457 182.016 366.107 171.22 363.003C160.423 359.899 150.842 355.581 139.641 354.096L139.506 356.66Z" fill="#DACEB6"/>
<path d="M184.985 311.991C183.501 312.396 182.961 314.555 184.04 315.5C185.12 316.58 187.144 316.04 187.684 314.69C188.089 313.341 186.605 311.587 185.255 311.991" fill="black"/>
<path d="M176.619 313.611C176.349 313.746 175.944 313.341 175.674 312.531C175.405 311.722 175.405 310.642 175.809 309.427C176.214 308.213 176.889 307.403 177.564 306.863C178.239 306.458 178.778 306.324 178.913 306.593C179.318 307.133 178.239 308.348 177.699 310.102C177.294 311.857 177.294 313.476 176.619 313.611Z" fill="black"/>
<path d="M159.439 409.111L175.234 449.726" stroke="black" stroke-linecap="round"/>
<path d="M196.537 348.317L176.588 349.994" stroke="black" stroke-linecap="round"/>
<path d="M204.962 425.055C205.11 425.055 205.11 425.055 205.11 425.055L214.496 428.516L205.553 405.106C205.429 406.781 205.344 408.347 205.251 409.836C205.057 413.438 204.985 416.508 204.998 419.179C205.016 420.733 205.017 422.532 204.962 425.055Z" fill="black"/>
<mask id="path-72-inside-1" fill="white">
<path d="M216.967 348.304C218.173 346.543 218.829 344.465 218.853 342.331C218.877 340.197 218.268 338.104 217.103 336.316C215.937 334.529 214.268 333.127 212.306 332.288C210.344 331.449 208.177 331.211 206.079 331.604L206.252 332.525C208.167 332.166 210.146 332.384 211.937 333.15C213.729 333.916 215.254 335.196 216.318 336.828C217.382 338.46 217.938 340.372 217.916 342.32C217.894 344.269 217.295 346.167 216.194 347.775L216.967 348.304Z"/>
</mask>
<path d="M216.967 348.304C218.173 346.543 218.829 344.465 218.853 342.331C218.877 340.197 218.268 338.104 217.103 336.316C215.937 334.529 214.268 333.127 212.306 332.288C210.344 331.449 208.177 331.211 206.079 331.604L206.252 332.525C208.167 332.166 210.146 332.384 211.937 333.15C213.729 333.916 215.254 335.196 216.318 336.828C217.382 338.46 217.938 340.372 217.916 342.32C217.894 344.269 217.295 346.167 216.194 347.775L216.967 348.304Z" stroke="white" stroke-width="2" mask="url(#path-72-inside-1)"/>
<mask id="path-73-inside-2" fill="white">
<path d="M234.98 336.853C232.892 337.291 230.72 337.101 228.74 336.305C226.76 335.509 225.06 334.144 223.856 332.383C222.652 330.621 221.997 328.542 221.974 326.408C221.951 324.274 222.562 322.182 223.729 320.395L224.513 320.907C223.448 322.539 222.89 324.45 222.911 326.398C222.932 328.347 223.53 330.245 224.629 331.854C225.729 333.463 227.281 334.709 229.089 335.435C230.897 336.162 232.88 336.336 234.787 335.936L234.98 336.853Z"/>
</mask>
<path d="M234.98 336.853C232.892 337.291 230.72 337.101 228.74 336.305C226.76 335.509 225.06 334.144 223.856 332.383C222.652 330.621 221.997 328.542 221.974 326.408C221.951 324.274 222.562 322.182 223.729 320.395L224.513 320.907C223.448 322.539 222.89 324.45 222.911 326.398C222.932 328.347 223.53 330.245 224.629 331.854C225.729 333.463 227.281 334.709 229.089 335.435C230.897 336.162 232.88 336.336 234.787 335.936L234.98 336.853Z" stroke="white" stroke-width="2" mask="url(#path-73-inside-2)"/>
<path d="M163.952 309.831C163.952 309.831 169.367 340.517 162.147 346.384C154.926 352.25 144.998 345.03 144.998 345.03" stroke="black" stroke-linecap="round"/>
<mask id="path-75-inside-3" fill="white">
<path d="M144.636 485.96C149.938 483.183 153.919 478.415 155.704 472.703C157.489 466.991 156.932 460.804 154.155 455.503C151.379 450.202 146.61 446.221 140.898 444.435C135.186 442.65 128.999 443.207 123.698 445.984L124.037 446.631C129.167 443.944 135.153 443.405 140.68 445.132C146.207 446.86 150.822 450.712 153.508 455.842C156.195 460.971 156.734 466.958 155.007 472.485C153.279 478.012 149.427 482.626 144.298 485.313L144.636 485.96Z"/>
</mask>
<path d="M144.636 485.96C149.938 483.183 153.919 478.415 155.704 472.703C157.489 466.991 156.932 460.804 154.155 455.503C151.379 450.202 146.61 446.221 140.898 444.435C135.186 442.65 128.999 443.207 123.698 445.984L124.037 446.631C129.167 443.944 135.153 443.405 140.68 445.132C146.207 446.86 150.822 450.712 153.508 455.842C156.195 460.971 156.734 466.958 155.007 472.485C153.279 478.012 149.427 482.626 144.298 485.313L144.636 485.96Z" stroke="black" stroke-width="2" mask="url(#path-75-inside-3)"/>
<path d="M268.197 388.028C268.197 388.028 266.843 387.125 265.038 387.576C263.233 388.028 262.33 389.833 262.33 389.833" stroke="black" stroke-linecap="round"/>
<path d="M168.098 500.116C168.098 500.116 169.456 496.244 167.057 492.318C164.658 488.391 159.44 487.607 159.44 487.607" stroke="black" stroke-linecap="round"/>
<path d="M218.416 499.684C218.416 499.684 218.109 495.592 214.338 492.956C210.566 490.32 205.471 491.692 205.471 491.692" stroke="black" stroke-linecap="round"/>
</g>
<defs>
<clipPath id="clip0">
<rect width="640" height="499" fill="white"/>
</clipPath>
</defs>
</svg>

