<svg width="640" height="499" viewBox="0 0 640 499" fill="none" xmlns="http://www.w3.org/2000/svg">
<g clip-path="url(#clip0)">
<path d="M159.872 344.222C164.219 344.222 167.785 340.652 167.785 336.302C167.785 331.951 164.219 328.381 159.872 328.381C155.358 328.381 152.405 331.282 151.959 336.19C151.792 338.142 152.46 340.039 153.854 341.489C155.358 343.274 157.587 344.222 159.872 344.222ZM159.872 329.999C163.383 329.999 166.225 332.843 166.225 336.357C166.225 339.871 163.383 342.716 159.872 342.716C158.033 342.716 156.194 341.935 154.968 340.597C153.909 339.425 153.352 337.975 153.519 336.469C153.854 332.286 156.138 329.999 159.872 329.999Z" fill="#E6DFD1"/>
<path d="M194.125 105.239C201.147 105.239 206.887 99.4936 206.887 92.4656C206.887 85.4375 201.147 79.6924 194.125 79.6924C186.714 79.6924 182.089 84.322 181.364 92.4098C181.085 95.5334 182.144 98.5454 184.373 101C186.825 103.677 190.503 105.239 194.125 105.239ZM194.125 81.2542C200.311 81.2542 205.326 86.2742 205.326 92.4656C205.326 98.657 200.311 103.677 194.125 103.677C190.893 103.677 187.661 102.283 185.488 99.8841C183.593 97.8203 182.646 95.1987 182.869 92.5214C183.537 85.2702 187.55 81.2542 194.125 81.2542Z" fill="#E6DFD1"/>
<path d="M186.177 412.383C188.518 416.454 192.92 415.673 195.651 412.606C197.267 410.765 198.549 408.924 200.778 407.753C204.511 405.745 208.747 405.801 212.536 407.53C213.428 407.92 212.647 409.259 211.756 408.869C207.743 407.084 202.84 407.53 199.44 410.486C197.434 412.215 196.32 414.948 193.868 416.175C190.524 417.849 186.623 416.343 184.784 413.219C184.394 412.271 185.732 411.49 186.177 412.383Z" fill="#E6DFD1"/>
<path d="M188.131 420.638C190.471 424.71 194.873 423.929 197.604 420.861C199.22 419.021 200.502 417.18 202.731 416.009C206.464 414.001 210.7 414.057 214.489 415.786C215.381 416.176 214.601 417.515 213.709 417.124C209.697 415.339 204.793 415.786 201.393 418.742C199.387 420.471 198.273 423.204 195.821 424.431C192.477 426.105 188.576 424.599 186.737 421.475C186.292 420.583 187.629 419.802 188.131 420.638Z" fill="#E6DFD1"/>
<path d="M145.271 352.923C150.231 358.39 155.191 363.912 160.206 369.378C160.875 370.103 159.76 371.219 159.091 370.493C154.132 365.027 149.172 359.505 144.157 354.039C143.488 353.314 144.603 352.198 145.271 352.923Z" fill="#E6DFD1"/>
<path d="M15.9585 336.886C21.5869 352.671 45.3819 347.818 52.1248 362.99C52.5149 363.882 51.1775 364.663 50.7874 363.771C44.0445 348.599 20.2494 353.564 14.4539 337.276C14.1195 336.328 15.6242 335.938 15.9585 336.886Z" fill="#E6DFD1"/>
<path d="M10.5522 348.487C16.1806 364.272 39.9757 359.42 46.7185 374.591C47.1086 375.484 45.7712 376.265 45.3811 375.372C38.6382 360.201 14.8432 365.165 9.04767 348.878C8.71331 347.929 10.2179 347.539 10.5522 348.487Z" fill="#E6DFD1"/>
<path d="M87.6239 435.304C94.8127 427.551 101.946 419.798 109.134 412.045C109.803 411.32 110.918 412.435 110.249 413.16C103.06 420.913 95.9272 428.667 88.7385 436.42C88.014 437.089 86.9552 436.029 87.6239 435.304Z" fill="#E6DFD1"/>
<path d="M229.846 282.223C231.629 284.621 233.468 287.02 235.251 289.418C235.864 290.199 234.527 290.98 233.914 290.199C232.13 287.801 230.291 285.402 228.508 283.004C227.951 282.223 229.288 281.442 229.846 282.223Z" fill="#E6DFD1"/>
<path d="M169.607 214.787C172.449 216.014 175.291 217.186 178.077 218.413C178.969 218.803 178.188 220.142 177.297 219.751C174.455 218.524 171.613 217.353 168.826 216.126C167.935 215.735 168.715 214.397 169.607 214.787Z" fill="#E6DFD1"/>
<path d="M165.145 219.584C169.101 221.369 173.058 223.098 177.014 224.883C177.906 225.274 177.126 226.612 176.234 226.222C172.278 224.437 168.321 222.708 164.365 220.923C163.473 220.532 164.253 219.194 165.145 219.584Z" fill="#E6DFD1"/>
<path d="M218.142 96.0913C219.814 98.1551 221.486 100.219 223.158 102.283C223.771 103.064 222.712 104.123 222.043 103.398C220.371 101.334 218.7 99.2707 217.028 97.2069C216.415 96.426 217.474 95.3104 218.142 96.0913Z" fill="#E6DFD1"/>
<path d="M315.103 25.9781C321.4 25.1972 327.475 27.4841 331.71 32.1695C332.379 32.8946 331.264 34.0102 330.595 33.2851C326.583 28.8786 321.01 26.8148 315.103 27.5399C314.156 27.6515 314.156 26.0897 315.103 25.9781Z" fill="#E6DFD1"/>
<path d="M312.433 30.9981C318.73 30.2173 324.805 32.5042 329.04 37.1895C329.709 37.9146 328.594 39.0302 327.925 38.3051C323.913 33.8986 318.34 31.8348 312.433 32.5599C311.43 32.6715 311.43 31.1097 312.433 30.9981Z" fill="#E6DFD1"/>
<path d="M450.374 428.382C460.405 428.382 468.541 420.238 468.541 410.198C468.541 400.158 460.405 392.015 450.374 392.015C439.842 392.015 433.211 398.596 432.207 410.143C431.817 414.549 433.322 418.844 436.498 422.302C439.953 426.095 445.192 428.382 450.374 428.382ZM450.374 393.576C459.513 393.576 466.981 401.051 466.981 410.198C466.981 419.346 459.513 426.82 450.374 426.82C445.582 426.82 440.845 424.756 437.613 421.242C434.771 418.119 433.378 414.214 433.712 410.254C434.659 399.656 440.734 393.576 450.374 393.576Z" fill="#E6DFD1"/>
<path d="M457.009 96.4461C459.238 99.3466 461.467 102.303 463.696 105.203C464.309 105.984 462.972 106.765 462.359 105.984C460.13 103.084 457.901 100.128 455.672 97.227C455.059 96.3904 456.396 95.6652 457.009 96.4461Z" fill="#E6DFD1"/>
<path d="M453.888 102.582L459.572 110.837C460.129 111.674 458.792 112.455 458.235 111.618C456.34 108.885 454.445 106.152 452.55 103.363C451.993 102.582 453.331 101.801 453.888 102.582Z" fill="#E6DFD1"/>
<path d="M435.224 39.1622C439.683 33.8632 444.196 28.5643 448.654 23.2654C449.323 22.4845 450.382 23.6 449.769 24.3809L436.339 40.2777C435.67 41.0029 434.611 39.8873 435.224 39.1622Z" fill="#E6DFD1"/>
<path d="M485.82 474.399C492.229 471.164 498.693 467.985 505.101 464.749C505.993 464.303 506.773 465.642 505.882 466.088C499.473 469.323 493.009 472.503 486.6 475.738C485.709 476.184 484.929 474.845 485.82 474.399Z" fill="#E6DFD1"/>
<path d="M393.704 436.582C395.376 438.534 397.048 440.43 398.72 442.382C399.388 443.108 398.274 444.223 397.605 443.498C395.933 441.546 394.261 439.649 392.59 437.697C391.977 436.972 393.091 435.856 393.704 436.582Z" fill="#E6DFD1"/>
<path d="M510.421 198.769C512.65 210.873 528.142 208.586 537.059 209.59C543.411 210.315 549.987 213.383 551.882 219.965C552.16 220.913 550.656 221.304 550.377 220.356C547.034 208.754 531.987 211.543 523.016 210.316C516.718 209.423 510.198 205.909 508.972 199.16C508.75 198.212 510.198 197.821 510.421 198.769Z" fill="#E6DFD1"/>
<path d="M506.519 206.523C508.748 218.627 524.24 216.34 533.156 217.344C539.509 218.069 546.085 221.137 547.979 227.718C548.258 228.667 546.753 229.057 546.475 228.109C543.131 216.507 528.085 219.296 519.113 218.069C512.816 217.176 506.296 213.662 505.07 206.913C504.903 205.965 506.352 205.519 506.519 206.523Z" fill="#E6DFD1"/>
<path d="M351.871 100.159C351.767 99.5349 352.496 99.3268 352.912 99.5349C353.224 99.639 353.432 100.055 353.432 100.472C354.265 102.762 354.994 104.948 355.826 107.237C360.406 98.39 370.919 93.8101 380.599 97.6614C389.655 101.304 394.131 110.672 392.465 119.728C397.045 115.044 404.644 114.732 411.097 115.565C420.361 116.814 429.729 120.248 435.974 127.535C441.491 133.988 443.989 143.148 440.554 151.163C437.535 158.241 430.353 162.508 422.859 161.675C423.379 169.274 416.197 173.75 409.432 174.895C401.001 176.352 391.633 175.727 383.514 173.125C369.15 168.441 356.971 154.597 360.406 138.776C351.767 138.88 343.96 132.114 342.191 123.683C340.421 114.732 345.001 105.78 351.871 100.159Z" fill="#D24A43"/>
<path d="M285.565 806.709C285.148 802.129 284.732 797.237 284.316 792.032C278.071 711.572 264.435 464.988 261.833 360.484C261.833 360.484 261.729 356.008 261.729 356.112L343.542 346.536L355.304 681.803C370.605 714.591 373.936 764.033 372.686 810.56C365.921 810.56 303.78 805.98 285.565 806.709Z" fill="#0EA36C"/>
<path d="M351.142 359.13C371.231 359.963 391.32 360.587 411.409 361.524C418.487 361.836 425.982 362.461 433.476 362.461C432.747 366.208 402.562 594.161 393.402 652.762C417.655 686.799 437.639 716.672 455.959 747.17C436.495 765.177 412.658 798.902 386.428 817.95C373.105 800.255 292.229 690.858 293.061 643.394C288.69 552.838 284.318 462.177 279.842 371.621C279.009 371.725 278.177 371.829 277.344 371.829C268.497 371.829 262.147 364.647 261.731 356.216C261.731 356.007 261.731 355.799 261.731 355.591C291.5 356.84 321.269 357.985 351.142 359.13Z" fill="#0EA36C"/>
<path d="M273.284 431.263C277.031 433.866 280.779 436.468 284.526 439.07C284.942 439.382 285.463 439.694 285.879 440.007C285.879 439.486 285.879 438.862 285.775 438.341C285.358 438.029 284.838 437.717 284.422 437.405C280.883 435.011 277.448 432.616 273.909 430.118C273.284 429.598 272.556 430.743 273.284 431.263Z" fill="black"/>
<path d="M284.526 437.3C284.526 437.821 284.526 438.445 284.63 438.966C285.567 463.635 286.504 488.407 287.337 513.076C288.377 539.931 289.314 566.786 290.355 593.536C291.292 619.246 290.98 645.476 296.704 670.666C307.009 715.528 336.154 752.895 364.049 788.285C364.57 789.014 365.507 787.973 364.986 787.348C348.853 766.843 332.719 746.233 319.708 723.542C308.154 703.453 299.411 681.803 295.872 658.904C291.812 632.986 292.229 606.235 291.188 580.005C289.522 533.269 287.753 486.534 285.983 439.902C285.983 439.382 285.983 438.758 285.879 438.237C285.463 437.925 284.942 437.613 284.526 437.3Z" fill="black"/>
<path d="M253.925 197.69C253.613 223.4 256.319 249.422 257.568 275.027C258.921 302.09 260.274 329.049 261.627 356.112L261.731 360.588C276.408 360.692 291.917 361.004 306.593 361.004C348.749 361.108 390.801 363.71 432.956 364.335C442.22 315.205 449.818 265.451 454.19 215.593C456.376 190.82 452.004 166.463 430.458 151.267C420.049 143.98 408.287 140.962 396.109 140.233C393.507 140.025 390.801 139.817 388.198 139.817C384.659 139.713 381.016 139.713 377.477 139.921C373.21 140.025 368.838 140.337 364.674 140.65L336.363 142.627L325.537 143.356C324.809 143.46 324.08 143.46 323.352 143.46C313.047 144.085 302.638 144.605 292.646 146.999C282.341 149.393 271.828 154.389 265.062 162.716C256.943 172.605 254.029 184.783 253.925 197.69Z" fill="#FECA55"/>
<path d="M442.846 206.017C453.775 254.314 446.906 307.399 403.397 314.893C359.888 322.387 442.846 206.017 442.846 206.017Z" fill="black"/>
<path d="M277.871 229.124C280.889 215.177 283.908 201.229 286.822 187.281C287.031 186.448 288.28 186.761 288.175 187.593C285.573 199.772 282.971 211.95 280.265 224.232C277.975 235.162 271.938 250.879 281.618 259.83C282.242 260.455 281.306 261.392 280.681 260.767C271.73 252.44 275.685 239.325 277.871 229.124Z" fill="black"/>
<path d="M336.576 142.523L343.55 209.972C343.55 209.972 373.423 165.735 388.412 139.921C384.873 139.817 381.23 139.817 377.691 140.025C373.423 140.129 369.052 140.441 364.888 140.754L336.576 142.523Z" fill="#FFA79B"/>
<path d="M330.74 136.382C332.093 137.319 352.495 191.341 352.495 191.341L381.535 150.122L359.26 118.895L330.74 136.382Z" fill="#FFA79B"/>
<path d="M341.045 161.363C336.152 148.768 331.364 136.798 330.74 136.382L348.018 125.765C351.974 137.006 347.706 150.434 341.045 161.363Z" fill="black"/>
<path d="M341.254 64.3531C329.909 57.3792 307.53 66.9553 297.433 79.3418C293.062 84.7543 287.441 83.089 289.627 88.3974C295.039 101.513 313.567 145.125 322.727 149.185C341.15 157.2 357.284 140.441 359.366 123.059C361.552 105.78 357.388 74.3456 341.254 64.3531Z" fill="#FFA79B"/>
<path d="M284.316 78.4046C288.583 72.4716 300.137 70.598 306.174 71.4307C317.312 63.52 332.509 59.0442 341.252 64.3527C352.077 71.0144 357.49 87.2521 359.363 102.553C353.743 102.969 350.204 99.5345 344.166 97.3486C327.096 99.3263 313.46 90.4788 309.609 84.754C307.111 89.1257 294.1 93.081 288.688 90.1666C281.297 85.5867 282.963 80.2782 284.316 78.4046Z" fill="#D24A43"/>
<path d="M365.924 92.4572C360.72 87.0446 348.854 88.0855 344.066 97.3493C347.188 104.948 350.103 112.65 352.913 120.353C357.701 120.457 366.028 116.918 369.047 111.089C372.586 104.427 371.545 98.2861 365.924 92.4572Z" fill="#FFA79B"/>
<path d="M355.096 100.784C354.263 103.282 353.43 105.884 352.598 108.382C352.285 109.215 353.639 109.527 353.951 108.695C354.055 108.486 354.055 108.382 354.159 108.174C354.159 108.07 354.159 108.07 354.159 107.966C354.888 105.676 355.616 103.386 356.449 100.992C356.657 100.263 355.304 99.9512 355.096 100.784Z" fill="#952C28"/>
<path d="M322.307 102.241C323.139 103.178 323.868 104.219 324.701 105.156C325.533 106.196 323.868 107.237 323.035 106.301C322.203 105.364 321.474 104.323 320.641 103.386C319.809 102.345 321.474 101.2 322.307 102.241Z" fill="black"/>
<path d="M303.262 108.59C304.095 109.527 304.823 110.568 305.656 111.505C306.489 112.546 304.823 113.586 303.99 112.65C303.158 111.713 302.429 110.672 301.596 109.735C300.764 108.694 302.429 107.549 303.262 108.59Z" fill="black"/>
<path d="M310.857 118.999C311.482 118.375 312.419 119.312 311.794 119.936C310.441 121.289 312.002 122.955 313.46 123.163C314.917 123.371 316.374 122.642 317.727 122.018C318.56 121.602 319.184 122.851 318.456 123.163C316.27 124.204 313.564 125.245 311.378 123.683C309.816 122.642 309.4 120.457 310.857 118.999Z" fill="#952C28"/>
<path d="M316.898 98.2858C318.251 97.8695 319.604 97.349 320.958 96.9327C322.623 96.4123 323.352 99.0145 321.686 99.5349C320.333 99.9512 318.98 100.472 317.627 100.888C315.961 101.408 315.233 98.8063 316.898 98.2858Z" fill="#952C28"/>
<path d="M298.887 102.449C299.616 102.033 300.448 101.617 301.177 101.2C302.738 100.368 304.091 102.762 302.53 103.594C301.802 104.011 300.969 104.427 300.24 104.843C298.783 105.572 297.326 103.282 298.887 102.449Z" fill="#952C28"/>
<path d="M326.785 135.133C328.346 134.613 329.387 133.051 329.387 131.386C329.387 130.553 330.74 130.553 330.74 131.386C330.74 133.676 329.283 135.654 327.097 136.382C326.369 136.695 326.056 135.445 326.785 135.133Z" fill="#952C28"/>
<path d="M228.11 205.08C242.787 212.574 260.065 229.957 266.206 242.864C272.348 255.771 268.6 345.599 268.6 345.599C268.6 345.599 226.757 338.833 210.415 232.976C210.415 232.976 216.973 199.251 228.11 205.08Z" fill="#FECA55"/>
<path d="M238.725 248.485C233.416 256.604 225.297 260.767 216.346 262.953C214.16 253.898 207.915 246.195 206.249 235.162C206.249 235.162 216.97 199.251 228.212 205.08C234.041 208.099 240.39 212.679 246.219 217.987C246.531 228.604 244.658 239.429 238.725 248.485Z" fill="#FFA79B"/>
<path d="M269.533 313.228C269.221 331.235 268.596 345.6 268.596 345.6C268.596 345.6 258.396 343.934 246.009 329.466C257.979 331.548 262.663 319.682 269.533 313.228Z" fill="black"/>
<path d="M187.622 208.515C190.12 206.433 196.261 206.121 199.384 205.705C201.882 205.392 204.484 205.184 206.982 204.872C215.517 202.894 230.194 199.667 231.651 211.534C231.963 212.054 232.067 212.574 232.067 213.199C232.067 217.05 232.171 220.901 232.171 224.753C232.171 227.667 232.484 230.894 230.506 233.288C228.737 235.474 225.926 235.786 223.324 235.786C220.618 235.786 218.015 235.682 215.309 235.578C213.956 236.411 212.707 236.202 211.666 235.474C210.938 235.474 210.313 235.162 209.793 234.745C209.688 234.745 209.688 234.745 209.584 234.745C209.376 236.098 209.064 237.556 208.856 238.909C208.231 242.448 202.819 242.135 201.986 238.909C201.882 238.284 201.674 237.764 201.57 237.139C200.633 236.931 199.8 236.411 199.176 235.786C199.176 235.994 199.176 236.098 199.176 236.306C198.759 240.886 191.681 240.886 192.098 236.306C192.202 234.953 192.306 233.496 192.514 232.143C190.328 233.08 187.414 232.143 187.622 229.124C188.35 222.359 181.168 213.928 187.622 208.515ZM220.826 225.377C221.138 222.359 221.45 219.444 221.867 216.426C220.722 216.53 219.681 216.946 218.744 217.571C217.599 220.901 216.454 224.232 215.309 227.563C217.079 226.626 218.848 225.898 220.826 225.377Z" fill="#FFA79B"/>
<path d="M235.29 172.501C229.357 192.485 223.424 212.574 217.491 232.559C216.866 234.537 211.245 244.113 208.747 243.176C206.249 242.344 206.978 231.102 207.498 229.124C213.431 209.14 219.364 189.051 225.297 169.066C226.442 165.319 236.435 168.649 235.29 172.501Z" fill="#697CCC"/>
<path d="M232.065 173.645C234.147 174.478 236.124 175.207 238.206 176.039C238.831 176.248 239.351 176.976 239.143 177.705C237.477 183.326 235.708 188.946 234.043 194.567C233.522 196.233 230.92 195.504 231.44 193.839C233.002 188.634 234.563 183.43 236.124 178.225C234.563 177.601 232.898 176.976 231.336 176.352C229.671 175.623 230.399 173.021 232.065 173.645Z" fill="#697CCC"/>
<path d="M189.075 212.158C188.971 211.326 190.324 211.326 190.428 212.158C190.74 216.426 191.157 220.693 191.469 225.065C191.573 225.898 190.22 225.898 190.116 225.065C189.804 220.693 189.387 216.426 189.075 212.158Z" fill="#952C28"/>
<path d="M212.392 228.292C214.786 224.753 218.012 222.359 221.968 220.902C224.049 220.173 226.444 221.734 226.964 223.712C227.588 226.002 226.235 227.98 224.154 228.708C224.049 228.708 223.945 228.812 223.841 228.812C223.529 228.917 223.217 229.125 223.009 229.229C222.8 229.333 222.488 229.541 222.28 229.645C222.28 229.645 221.864 229.957 221.76 229.957C221.343 230.27 220.927 230.686 220.615 230.998C220.406 231.206 220.094 231.519 219.886 231.831C219.886 231.831 219.886 231.831 219.782 231.935C219.782 232.039 219.678 232.143 219.574 232.247C218.325 234.017 216.035 234.85 213.953 233.705C212.079 232.872 211.143 230.166 212.392 228.292Z" fill="#FFA79B"/>
<path d="M204.065 226.522C206.251 222.879 206.563 218.611 204.69 214.76C202.4 210.076 209.478 205.913 211.768 210.597C214.89 217.154 214.786 224.336 211.143 230.686C208.437 235.265 201.359 231.102 204.065 226.522Z" fill="#FFA79B"/>
<path d="M203.751 209.66C204.584 216.217 205.521 222.775 206.354 229.332C206.458 230.165 205.105 230.165 205.001 229.332C204.168 222.775 203.231 216.217 202.398 209.66C202.19 208.723 203.543 208.723 203.751 209.66Z" fill="#952C28"/>
<path d="M222.07 232.351C225.817 230.79 228.732 229.124 230.605 225.377C232.166 222.255 233.52 219.028 234.873 215.905C235.289 215.073 236.434 215.801 236.018 216.634C234.248 220.589 232.791 225.377 230.085 228.812C228.107 231.31 225.193 232.559 222.382 233.704C221.654 234.017 221.341 232.663 222.07 232.351Z" fill="#952C28"/>
<path d="M196.779 210.076C197.404 214.032 198.028 217.987 198.549 221.838C198.653 222.671 197.404 223.087 197.195 222.151C196.571 218.195 195.946 214.24 195.426 210.389C195.322 209.556 196.675 209.14 196.779 210.076Z" fill="#952C28"/>
<path d="M237.791 274.194C235.813 272.321 183.561 209.035 182.312 208.411C181.063 207.786 126 220.173 126 220.173L184.602 289.495L237.791 274.194Z" fill="#2252B2"/>
<path d="M137.971 212.158L164.825 206.953C169.926 206.017 172.111 213.823 167.011 214.864C158.06 216.634 149.108 218.299 140.156 220.068C135.056 221.109 132.87 213.199 137.971 212.158Z" fill="black"/>
<path d="M289.728 296.574C295.349 285.02 299.929 273.154 304.717 261.288C326.992 267.117 344.166 272.009 344.166 272.009C344.166 272.009 368.627 224.336 401.311 169.898C401.311 169.898 449.607 211.43 449.607 213.407C449.607 215.385 399.125 378.283 368.627 382.238C348.226 384.84 309.817 356.216 273.282 328.633C278.903 318.016 284.524 307.399 289.728 296.574Z" fill="#FECA55"/>
<path d="M220.717 243.176C225.609 243.697 231.958 240.782 238.62 242.031C245.177 247.236 280.775 255.146 301.073 260.351C301.593 282.521 292.537 325.614 270.367 326.446C242.159 305.213 215.408 285.124 199.379 281.272C197.089 280.752 220.717 243.176 220.717 243.176Z" fill="#FFA79B"/>
<path d="M166.8 258.477C164.302 255.979 165.863 252.336 167.945 251.711C166.696 249.005 167.945 244.217 170.651 244.946C170.651 244.946 169.09 241.719 172.212 238.805C176.48 236.41 188.658 242.864 197.818 247.34C203.126 246.715 223.736 246.091 224.36 248.277C226.234 247.548 228.42 247.236 230.606 247.34C242.159 245.674 249.237 257.957 246.531 268.053C244.866 274.194 240.286 279.087 234.665 281.481C236.226 283.666 233.936 294.387 230.71 293.451C194.903 283.458 190.324 294.804 167.632 266.492C163.157 261.912 164.51 258.893 166.8 258.477Z" fill="#FFA79B"/>
<path d="M307.424 263.057C320.539 265.763 333.758 268.574 346.873 271.28C347.289 271.384 347.81 271.488 348.226 271.592C356.865 273.362 365.401 275.131 374.04 277.005C374.873 277.213 375.289 275.86 374.456 275.652C365.921 273.882 357.386 272.113 348.851 270.343C348.434 270.239 347.914 270.135 347.497 270.031C334.278 267.22 321.059 264.514 307.736 261.808C306.903 261.6 306.591 262.953 307.424 263.057Z" fill="white"/>
<path d="M279.423 331.339C290.144 338.625 300.969 346.015 311.69 353.301C312.419 353.822 311.69 354.967 310.962 354.446C300.241 347.16 289.416 339.77 278.694 332.484C278.07 332.067 278.694 330.922 279.423 331.339Z" fill="white"/>
<path d="M346.872 271.28C347.289 271.384 347.809 271.488 348.225 271.592C348.434 271.176 348.642 270.76 348.85 270.343C359.363 249.005 369.876 227.563 380.389 206.225C380.805 205.496 379.556 204.768 379.244 205.496C368.627 227.043 358.114 248.485 347.497 270.031C347.289 270.447 347.08 270.864 346.872 271.28Z" fill="white"/>
<path d="M168.776 259.414C173.564 263.577 178.248 267.845 183.036 272.009C183.661 272.633 182.724 273.57 182.099 272.945C177.311 268.782 172.627 264.514 167.839 260.351C167.215 259.83 168.152 258.789 168.776 259.414Z" fill="#952C28"/>
<path d="M170.341 252.024C176.066 256.812 181.686 261.496 187.411 266.284C188.036 266.804 187.099 267.845 186.474 267.221C180.75 262.433 175.129 257.749 169.404 252.961C168.675 252.336 169.612 251.399 170.341 252.024Z" fill="#952C28"/>
<path d="M172.631 244.737C179.501 247.34 185.642 251.295 190.847 256.499C191.471 257.124 190.535 258.061 189.91 257.436C184.914 252.336 178.981 248.485 172.319 245.987C171.382 245.778 171.799 244.425 172.631 244.737Z" fill="#952C28"/>
<path d="M222.386 235.994C228.527 235.161 234.356 237.243 238.728 241.511C239.352 242.135 238.415 243.072 237.791 242.447C233.627 238.388 228.215 236.514 222.386 237.347C221.553 237.555 221.553 236.098 222.386 235.994Z" fill="#952C28"/>
</g>
<defs>
<clipPath id="clip0">
<rect width="640" height="499" fill="white"/>
</clipPath>
</defs>
</svg>

