<svg width="80" height="81" viewBox="0 0 80 81" fill="none" xmlns="http://www.w3.org/2000/svg">
<path d="M0 40.4453C0 18.3539 17.9086 0.445312 40 0.445312C62.0914 0.445312 80 18.3539 80 40.4453C80 62.5367 62.0914 80.4453 40 80.4453C17.9086 80.4453 0 62.5367 0 40.4453Z" fill="#F3EFE7"/>
<path d="M57.9424 48.3516L48.1999 47.4453H35.9038L24.5918 48.9878C20.4016 49.5592 16.7887 52.2204 15.0004 56.0526C15.0004 56.0526 22.378 70.8079 41.2321 70.8079C60.0861 70.8079 68.6934 56.4625 68.6934 56.4625C66.935 51.9409 62.7729 48.8009 57.9424 48.3516Z" fill="#FECA55"/>
<path d="M46.8293 31.4635C46.0422 31.6647 45.3214 31.8902 44.5343 32.0915C44.1965 32.1937 44.2474 32.7761 44.6305 32.6528C45.4176 32.4515 46.1384 32.226 46.9255 32.0248C47.3086 31.9015 47.2123 31.3402 46.8293 31.4635Z" fill="#D24A43"/>
<path d="M35.3431 56.4664L37.429 33.9856L51.6698 35.5047C51.474 35.8436 52.4022 47.7422 52.9689 55.1747C41.4902 59.54 38.4167 57.0811 35.3431 56.4664Z" fill="#FFA79B"/>
<path d="M42.1826 35.6113C42.0398 35.0762 41.9548 34.582 41.8613 34.0385L51.6705 35.5057C51.5479 35.6795 51.8074 39.5525 52.145 44.1752C47.9506 42.251 44.2536 39.3763 42.1826 35.6113Z" fill="#322E28"/>
<path d="M36.0836 19.2009C37.4046 15.0591 45.0044 12.6246 50.1629 13.5335C52.4152 13.9187 53.4255 12.3426 54.0348 14.1198C55.5231 18.5189 60.5148 32.1275 58.8367 36.3241C56.3815 42.4268 48.3988 41.5301 44.1471 37.7247C39.9165 33.8739 34.2065 25.1302 36.0836 19.2009Z" fill="#FFA79B"/>
<path d="M53.2406 10.4865C50.8944 9.94703 47.6533 11.9224 46.3282 13.4624C41.8786 13.8793 37.118 16.032 36.1085 19.2678C34.8722 23.2278 36.9663 28.4621 39.7924 32.5992C41.2873 31.5254 40.105 27.656 41.1303 25.8104C45.7723 22.6068 46.1438 20.6226 45.8582 18.3877C47.4204 18.9493 53.9818 16.2524 54.6712 14.4162C55.5356 11.6107 53.9399 10.6463 53.2406 10.4865Z" fill="#952C28"/>
<path d="M55.8717 21.4477C56.0445 22.026 56.2839 22.58 56.4567 23.1583C56.5779 23.4913 56.0241 23.7312 55.924 23.3527C55.7512 22.7744 55.5118 22.2204 55.339 21.6422C55.1723 21.288 55.7716 21.0692 55.8717 21.4477Z" fill="#322E28"/>
<path d="M49.65 23.417C49.8228 23.9952 50.0622 24.5492 50.235 25.1275C50.3562 25.4606 49.8024 25.7005 49.7023 25.322C49.5295 24.7437 49.2901 24.1897 49.1173 23.6114C48.9961 23.2784 49.5499 23.0385 49.65 23.417Z" fill="#322E28"/>
<path d="M53.8798 27.2673C54.3066 27.3001 54.8697 27.3964 55.2661 27.1385C55.5294 26.9292 55.6533 26.5445 55.3566 26.3509C55.0598 26.1574 55.4289 25.7209 55.7257 25.9144C56.2283 26.2591 56.1802 26.9558 55.8565 27.4135C55.4027 28.0318 54.5037 27.945 53.8286 27.8519C53.4017 27.819 53.4983 27.2556 53.8798 27.2673Z" fill="#322E28"/>
<path d="M48.4685 33.4313C48.5778 34.146 49.244 34.7328 50.0068 34.7562C50.3882 34.7679 50.449 35.3493 50.0676 35.3377C48.9688 35.3237 48.0724 34.5191 47.9085 33.4471C47.8327 33.1352 48.4138 33.074 48.4685 33.4313Z" fill="#322E28"/>
<path d="M47.9754 21.199L48.7652 20.5712C49.3794 20.0828 50.0337 21.0513 49.4195 21.5396L48.6297 22.1675C48.082 22.6315 47.3612 21.6873 47.9754 21.199Z" fill="#322E28"/>
<path d="M54.8266 19.3014C55.2503 19.2221 55.6741 19.1429 56.0978 19.0637C56.4096 18.9876 56.7094 19.2932 56.7398 19.5839C56.749 19.9201 56.5312 20.1505 56.2194 20.2266C55.7957 20.3058 55.3719 20.385 54.9482 20.4643C54.6364 20.5403 54.3366 20.2347 54.3062 19.944C54.2304 19.6321 54.4694 19.3563 54.8266 19.3014Z" fill="#322E28"/>
<path d="M41.1306 14.4889C39.2326 14.6504 37.2134 16.9519 36.6076 18.4459C33.2962 19.8591 30.2674 22.6855 30.2674 25.3504C30.2674 28.6613 26.9559 34.2333 31.1558 38.8363C33.7404 41.7031 40.5248 40.8552 42.7863 37.1809C45.4516 32.7798 41.494 28.2979 41.6556 27.4096C42.4229 24.8658 40.8075 22.4836 39.1114 21.03C40.4441 21.0704 43.069 18.6881 43.1498 17.1134C43.1094 14.8119 41.696 14.4081 41.1306 14.4889Z" fill="#952C28"/>
<path d="M41.9061 40.6068C41.3767 38.4275 39.5085 36.8086 37.4222 36.435C37.4222 35.7812 37.0797 35.1896 36.2389 35.034C33.8102 34.5981 31.7862 35.9368 31.1946 37.8982C27.4268 36.8397 23.2855 37.4312 20.4519 40.42C17.2447 43.8135 17.0578 48.7949 20.016 52.4063C23.0675 56.1112 29.1394 57.8858 33.7479 56.6404C37.0174 55.7687 39.3839 51.8771 37.827 49.1062C40.6606 47.2071 42.778 44.1871 41.9061 40.6068Z" fill="#952C28"/>
<path d="M37.5762 31.6093C37.0916 29.7116 38.9089 27.1678 41.655 27.3697C42.9069 29.1059 44.2395 30.8018 45.6126 32.4976C44.9664 33.5878 43.0684 34.9606 41.3319 34.8799C39.3127 34.7587 38.1012 33.6686 37.5762 31.6093Z" fill="#FFA79B"/>
<path d="M33.0731 48.9256L15.4695 48.6533C14.8516 48.6437 14.3425 49.137 14.3325 49.7549L14.1425 61.4936C14.1325 62.1116 14.6254 62.6203 15.2434 62.6298L32.847 62.9022C33.465 62.9118 33.974 62.4185 33.984 61.8006L34.174 50.0619C34.184 49.4439 33.6911 48.9352 33.0731 48.9256Z" fill="#8DB8A8"/>
<rect x="31.2949" y="50.6831" width="0.938413" height="17.6972" rx="0.469206" transform="rotate(58.2969 31.2949 50.6831)" fill="white"/>
<rect x="32.0352" y="59.5315" width="0.938413" height="17.6972" rx="0.469206" transform="rotate(120 32.0352 59.5315)" fill="white"/>
</svg>
