<svg width="80" height="81" viewBox="0 0 80 81" fill="none" xmlns="http://www.w3.org/2000/svg">
<path d="M0 40.4453C0 18.3539 17.9086 0.445312 40 0.445312C62.0914 0.445312 80 18.3539 80 40.4453C80 62.5367 62.0914 80.4453 40 80.4453C17.9086 80.4453 0 62.5367 0 40.4453Z" fill="#F3EFE7"/>
<path d="M62.3174 18.4453H18.001C16.8964 18.4453 16.001 19.3407 16.001 20.4453V64.6541C16.001 65.7587 16.8964 66.6541 18.001 66.6541H62.3174C63.422 66.6541 64.3174 65.7587 64.3174 64.6541V20.4453C64.3174 19.3407 63.422 18.4453 62.3174 18.4453Z" fill="#8DB8A8"/>
<path d="M64.3164 25.6465H16V26.3698H64.3164V25.6465Z" fill="white"/>
<path d="M20.3662 23.7277C21.2857 23.7277 22.0312 22.9815 22.0312 22.061C22.0312 21.1405 21.2857 20.3943 20.3662 20.3943C19.4466 20.3943 18.7012 21.1405 18.7012 22.061C18.7012 22.9815 19.4466 23.7277 20.3662 23.7277Z" fill="#FECA55"/>
<path d="M25.2988 23.7277C26.2184 23.7277 26.9638 22.9815 26.9638 22.061C26.9638 21.1405 26.2184 20.3943 25.2988 20.3943C24.3792 20.3943 23.6338 21.1405 23.6338 22.061C23.6338 22.9815 24.3792 23.7277 25.2988 23.7277Z" fill="white"/>
<path d="M46.8184 50.3955H23.1942C22.723 50.3955 22.723 51.1188 23.1942 51.1188H46.8184C47.2896 51.1502 47.2896 50.3955 46.8184 50.3955Z" fill="white"/>
<path d="M46.8184 54.4519H23.1942C22.723 54.4519 22.723 55.1752 23.1942 55.1752H46.8184C47.2896 55.2066 47.2896 54.4519 46.8184 54.4519Z" fill="white"/>
<path d="M55.8659 29.5461H22.8486V46.5277H55.8659V29.5461Z" fill="white"/>
<path d="M53.9495 59.9556H45.3418V63.5406H53.9495V59.9556Z" fill="white"/>
<path d="M52.3164 31.2126C51.4682 31.7786 50.5886 32.3132 49.7403 32.8793C49.332 33.1309 49.7089 33.7913 50.1173 33.5082C50.9655 32.9422 51.8451 32.4076 52.6933 31.8415C53.1017 31.59 52.7248 30.961 52.3164 31.2126Z" fill="white"/>
<path d="M30.5625 39.7047C26.3806 39.7047 25.2917 43.5564 23 46.4453H56C56 46.4453 54.625 33.4453 49.125 33.4453C43.625 33.4453 43.625 42.5936 39.5 42.5936C35.375 42.5936 34.6875 39.7047 30.5625 39.7047Z" fill="#D24A43"/>
</svg>
