<svg width="188" height="39" viewBox="0 0 188 39" fill="none" xmlns="http://www.w3.org/2000/svg">
<path d="M31.8975 23.1959C31.2206 19.8502 29.1901 16.9825 26.2892 15.0707C23.3884 13.1589 19.9073 12.4897 16.523 13.2544C16.3296 13.2544 16.1363 13.35 16.0396 13.35C16.6197 14.0192 17.0065 14.6883 17.3933 15.453C23.0016 14.4971 28.4165 18.1296 29.5768 23.6738C30.157 26.4459 29.5768 29.2181 28.0297 31.5122C26.4826 33.8064 24.0652 35.4314 21.3578 36.005C18.5536 36.5785 15.7495 36.005 13.4288 34.4755C11.3982 33.1373 9.85109 31.2255 9.17422 28.9313H8.59405C7.91719 28.9313 7.24033 28.8357 6.66016 28.7401C8.11058 34.5711 13.3321 38.5859 19.2305 38.5859C20.1007 38.5859 20.971 38.4903 21.8412 38.2992C28.9 36.8653 33.3479 30.0784 31.8975 23.1959ZM16.2329 8.6661C13.9123 8.6661 12.0751 6.75429 12.0751 4.55571C12.0751 2.26153 14.009 0.445313 16.2329 0.445313C18.4569 0.445313 20.3908 2.35712 20.3908 4.55571C20.3908 6.75429 18.5536 8.6661 16.2329 8.6661ZM16.2329 1.68799C14.6858 1.68799 13.3321 2.93067 13.3321 4.55571C13.3321 6.08515 14.5891 7.42342 16.2329 7.42342C17.7801 7.42342 19.1338 6.18074 19.1338 4.55571C19.0371 2.93067 17.7801 1.68799 16.2329 1.68799Z" fill="#52586A"/>
<path d="M8.59379 27.7842C4.6293 27.7842 1.05159 25.0121 0.181333 20.9973C-0.785616 16.4089 2.21192 11.9162 6.85328 11.0559C9.07726 10.5779 11.3979 11.0559 13.2351 12.2985C15.169 13.5412 16.4261 15.453 16.9095 17.6516C17.8765 22.24 14.879 26.7327 10.2376 27.593C9.75412 27.7842 9.17395 27.7842 8.59379 27.7842ZM8.59379 13.2545C8.20701 13.2545 7.72353 13.2545 7.33675 13.35C4.04913 14.0192 1.82515 17.2693 2.5987 20.5193C3.27557 23.7694 6.56319 25.8724 9.85082 25.2033C13.1384 24.5341 15.3624 21.2841 14.5889 18.034C14.2988 16.4089 13.3318 15.0707 11.9781 14.2104C11.0112 13.6368 9.75412 13.2545 8.59379 13.2545Z" fill="#52586A"/>
<path d="M12.8486 16.7909C12.6552 16.4085 12.3651 16.0262 11.9783 15.7394C9.17419 17.6512 7.33699 20.7101 6.85352 24.0558C7.24029 24.2469 7.72377 24.3425 8.20724 24.3425C8.69072 21.2836 10.3345 18.5115 12.8486 16.7909Z" fill="#52586A"/>
<path d="M38.666 18.4176H40.9867V25.8737H41.1801L48.819 18.4176H52.1066L43.6942 26.3516L52.6868 35.6239H49.2058L41.0834 27.0208H40.89V35.6239H38.5693V18.4176H38.666ZM54.524 18.4176H56.8447V35.6239H54.524V18.4176ZM61.1959 32.0871C61.5827 32.7562 62.1629 33.1386 62.8397 33.5209C63.5166 33.8077 64.1935 33.9989 64.8703 33.9989C65.2571 33.9989 65.6439 33.9033 66.0307 33.8077C66.4174 33.7121 66.8042 33.5209 67.191 33.2342L68.0613 32.3738C68.3513 32.0871 68.3513 31.6091 68.3513 31.1312C68.3513 30.462 68.158 29.9841 67.6745 29.6017C67.2877 29.2194 66.7075 28.9326 66.1274 28.7414C65.4505 28.5502 64.7736 28.2635 64.0968 28.0723C63.3232 27.8811 62.6464 27.5943 62.0662 27.1164C61.3893 26.734 60.9058 26.1605 60.5191 25.5869C60.1323 24.9178 59.8422 24.0575 59.8422 22.9104C59.8422 22.4324 59.9389 21.8589 60.1323 21.2853C60.3257 20.7118 60.7125 20.2339 61.1959 19.7559C61.6794 19.2779 62.2596 18.8956 63.0331 18.6088C63.8067 18.322 64.6769 18.1309 65.7406 18.1309C66.7075 18.1309 67.5778 18.2264 68.448 18.5132C69.3183 18.8 70.0919 19.2779 70.7687 20.0427L68.8348 21.7633C68.5447 21.2853 68.158 20.903 67.5778 20.7118C66.9976 20.425 66.4175 20.3294 65.7406 20.3294C65.0637 20.3294 64.5802 20.425 64.0968 20.6162C63.71 20.8074 63.3232 20.9986 63.0331 21.2853C62.743 21.5721 62.5497 21.8589 62.453 22.1457C62.3563 22.4324 62.2596 22.7192 62.2596 23.006C62.2596 23.7707 62.453 24.2487 62.9364 24.7266C63.3232 25.109 63.9034 25.3957 64.4836 25.6825C65.1604 25.9693 65.8373 26.1605 66.5141 26.3516C67.2877 26.5428 67.9646 26.8296 68.5447 27.212C69.2216 27.5943 69.7051 28.0723 70.0919 28.6458C70.4786 29.2194 70.7687 30.0797 70.7687 31.1312C70.7687 31.9915 70.5753 32.6606 70.2852 33.3298C69.9952 33.9989 69.5117 34.5724 69.0282 35.0504C68.448 35.5283 67.8679 35.8151 67.0943 36.1019C66.3208 36.3887 65.5472 36.4842 64.7736 36.4842C63.6133 36.4842 62.6464 36.2931 61.5827 35.9107C60.6158 35.5283 59.7455 34.9548 59.1653 34.0945L61.1959 32.0871ZM73.6696 18.4176H75.9902V33.4253H83.9192V35.6239H73.6696V18.4176ZM93.1052 36.1019C91.7515 36.1019 90.5912 35.9107 89.4308 35.4327C88.2705 34.9548 87.4002 34.3813 86.53 33.5209C85.7564 32.7562 85.0796 31.8003 84.6928 30.6532C84.2093 29.5061 84.0159 28.359 84.0159 27.1164C84.0159 25.8737 84.2093 24.631 84.6928 23.5795C85.1763 22.4324 85.7564 21.5721 86.53 20.7118C87.3035 19.9471 88.2705 19.2779 89.4308 18.8C90.5912 18.322 91.7515 18.1309 93.1052 18.1309C94.459 18.1309 95.6193 18.322 96.7796 18.8C97.94 19.2779 98.8102 19.8515 99.6805 20.7118C100.454 21.4765 101.131 22.4324 101.518 23.5795C102.001 24.7266 102.195 25.8737 102.195 27.1164C102.195 28.359 102.001 29.6017 101.518 30.6532C101.034 31.8003 100.454 32.6606 99.6805 33.5209C98.9069 34.2857 97.94 34.9548 96.7796 35.4327C95.6193 35.8151 94.3623 36.1019 93.1052 36.1019ZM93.1052 33.9033C94.0722 33.9033 95.0391 33.7121 95.8127 33.3298C96.5862 32.9474 97.2631 32.4694 97.8433 31.8959C98.4234 31.3224 98.8102 30.5576 99.197 29.6973C99.4871 28.837 99.6805 27.9767 99.6805 27.0208C99.6805 26.0649 99.4871 25.2046 99.197 24.3442C98.9069 23.4839 98.4234 22.8148 97.8433 22.1457C97.2631 21.5721 96.5862 20.9986 95.8127 20.7118C95.0391 20.3294 94.0722 20.1383 93.1052 20.1383C92.1383 20.1383 91.1713 20.3294 90.3978 20.7118C89.6242 21.0942 88.9473 21.5721 88.3672 22.1457C87.787 22.7192 87.4002 23.4839 87.0135 24.3442C86.7234 25.2046 86.53 26.0649 86.53 27.0208C86.53 27.9767 86.7234 28.837 87.0135 29.6973C87.3035 30.5576 87.787 31.2268 88.3672 31.8959C88.9473 32.4694 89.6242 33.043 90.3978 33.3298C91.1713 33.7121 92.0416 33.9033 93.1052 33.9033ZM104.128 18.4176H110.22C111.381 18.4176 112.251 18.6088 112.928 18.8956C113.605 19.1824 114.185 19.5647 114.668 20.0427C115.055 20.5206 115.345 20.9986 115.538 21.5721C115.732 22.1457 115.829 22.7192 115.829 23.1972C115.829 23.7707 115.732 24.2487 115.538 24.8222C115.345 25.3001 115.055 25.7781 114.668 26.1605C114.281 26.5428 113.895 26.9252 113.314 27.212C112.734 27.4987 112.154 27.6899 111.574 27.6899L116.505 35.5283H113.605L109.157 27.9767H106.546V35.5283H104.225V18.4176H104.128ZM106.546 26.0649H109.64C110.124 26.0649 110.51 26.0649 110.994 25.9693C111.477 25.8737 111.864 25.7781 112.154 25.5869C112.541 25.3957 112.831 25.109 113.024 24.7266C113.218 24.3442 113.314 23.8663 113.314 23.2927C113.314 22.7192 113.218 22.2413 113.024 21.8589C112.831 21.4765 112.541 21.1898 112.154 20.9986C111.767 20.8074 111.381 20.7118 110.994 20.6162C110.51 20.5206 110.124 20.5206 109.64 20.5206H106.546V26.0649ZM127.142 36.1019C125.788 36.1019 124.628 35.9107 123.467 35.4327C122.307 34.9548 121.437 34.3813 120.567 33.5209C119.793 32.7562 119.116 31.8003 118.729 30.6532C118.246 29.5061 118.052 28.359 118.052 27.1164C118.052 25.8737 118.246 24.631 118.729 23.5795C119.213 22.4324 119.793 21.5721 120.567 20.7118C121.34 19.9471 122.307 19.2779 123.467 18.8C124.628 18.322 125.788 18.1309 127.142 18.1309C128.496 18.1309 129.656 18.322 130.816 18.8C131.977 19.2779 132.847 19.8515 133.717 20.7118C134.491 21.4765 135.167 22.4324 135.554 23.5795C136.038 24.7266 136.231 25.8737 136.231 27.1164C136.231 28.359 136.038 29.6017 135.554 30.6532C135.071 31.8003 134.491 32.6606 133.717 33.5209C132.944 34.2857 131.977 34.9548 130.816 35.4327C129.656 35.8151 128.496 36.1019 127.142 36.1019ZM127.142 33.9033C128.109 33.9033 129.076 33.7121 129.849 33.3298C130.623 32.9474 131.3 32.4694 131.88 31.8959C132.46 31.3224 132.847 30.5576 133.234 29.6973C133.524 28.837 133.717 27.9767 133.717 27.0208C133.717 26.0649 133.524 25.2046 133.234 24.3442C132.944 23.4839 132.46 22.8148 131.88 22.1457C131.3 21.5721 130.623 20.9986 129.849 20.7118C129.076 20.3294 128.109 20.1383 127.142 20.1383C126.175 20.1383 125.208 20.3294 124.434 20.7118C123.661 21.0942 122.984 21.5721 122.404 22.1457C121.824 22.7192 121.437 23.4839 121.05 24.3442C120.76 25.2046 120.567 26.0649 120.567 27.0208C120.567 27.9767 120.76 28.837 121.05 29.6973C121.34 30.5576 121.824 31.2268 122.404 31.8959C122.984 32.4694 123.661 33.043 124.434 33.3298C125.208 33.7121 126.175 33.9033 127.142 33.9033ZM138.552 18.4176H144.644C145.901 18.4176 146.964 18.5132 147.835 18.8C148.705 19.0868 149.575 19.4691 150.252 19.9471C150.929 20.425 151.509 20.903 151.992 21.5721C152.476 22.1457 152.766 22.8148 153.056 23.3883C153.346 24.0575 153.54 24.631 153.636 25.3001C153.733 25.9693 153.83 26.5428 153.83 27.0208C153.83 28.1679 153.636 29.2194 153.249 30.1753C152.863 31.2268 152.282 32.0871 151.412 32.9474C150.639 33.7121 149.575 34.3812 148.415 34.8592C147.254 35.3372 145.901 35.6239 144.257 35.6239H138.552V18.4176ZM140.872 33.4253H143.87C144.837 33.4253 145.804 33.3298 146.674 33.043C147.544 32.7562 148.318 32.3739 148.995 31.8003C149.672 31.2268 150.155 30.5576 150.542 29.7929C150.929 29.0282 151.122 28.0723 151.122 27.0208C151.122 26.4472 151.025 25.8737 150.832 25.109C150.639 24.3442 150.349 23.6751 149.768 23.006C149.285 22.3368 148.608 21.7633 147.738 21.2853C146.868 20.8074 145.707 20.6162 144.257 20.6162H140.679V33.4253H140.872Z" fill="#52586A"/>
<path d="M158.278 35.8145C157.794 35.8145 157.407 35.6233 157.117 35.3366C156.827 35.0498 156.634 34.6674 156.634 34.1895C156.634 33.7115 156.827 33.3292 157.117 33.0424C157.407 32.7556 157.794 32.5645 158.278 32.5645C158.761 32.5645 159.148 32.7556 159.438 33.0424C159.728 33.3292 159.921 33.7115 159.921 34.1895C159.921 34.6674 159.728 35.0498 159.438 35.3366C159.051 35.6233 158.761 35.8145 158.278 35.8145Z" fill="#52586A"/>
<path d="M164.562 18.4169H166.883V35.6232H164.562V18.4169ZM178.68 36.1011C177.326 36.1011 176.166 35.91 175.006 35.432C173.845 34.9541 172.975 34.3805 172.105 33.5202C171.331 32.7555 170.654 31.7996 170.267 30.6525C169.784 29.5054 169.591 28.3583 169.591 27.1156C169.591 25.873 169.784 24.6303 170.267 23.5788C170.751 22.4317 171.331 21.5714 172.105 20.7111C172.878 19.9463 173.845 19.2772 175.006 18.7993C176.166 18.3213 177.326 18.1301 178.68 18.1301C180.034 18.1301 181.194 18.3213 182.354 18.7993C183.515 19.2772 184.385 19.8508 185.255 20.7111C186.029 21.4758 186.706 22.4317 187.092 23.5788C187.576 24.7259 187.769 25.873 187.769 27.1156C187.769 28.3583 187.576 29.601 187.092 30.6525C186.609 31.7996 186.029 32.6599 185.255 33.5202C184.482 34.2849 183.515 34.9541 182.354 35.432C181.291 35.8144 180.034 36.1011 178.68 36.1011ZM178.68 33.9026C179.647 33.9026 180.614 33.7114 181.387 33.329C182.161 32.9467 182.838 32.4687 183.418 31.8952C183.998 31.3216 184.385 30.5569 184.772 29.6966C185.062 28.8363 185.255 27.976 185.255 27.02C185.255 26.0641 185.062 25.2038 184.772 24.3435C184.482 23.4832 183.998 22.8141 183.418 22.1449C182.838 21.5714 182.161 20.9978 181.387 20.7111C180.614 20.3287 179.647 20.1375 178.68 20.1375C177.713 20.1375 176.746 20.3287 175.972 20.7111C175.199 21.0934 174.522 21.5714 173.942 22.1449C173.362 22.7185 172.975 23.4832 172.588 24.3435C172.298 25.2038 172.105 26.0641 172.105 27.02C172.105 27.976 172.298 28.8363 172.588 29.6966C172.878 30.5569 173.362 31.226 173.942 31.8952C174.522 32.4687 175.199 33.0422 175.972 33.329C176.843 33.7114 177.713 33.9026 178.68 33.9026Z" fill="#52586A"/>
</svg>
