<svg width="80" height="81" viewBox="0 0 80 81" fill="none" xmlns="http://www.w3.org/2000/svg">
<path d="M0 40.4453C0 18.3539 17.9086 0.445312 40 0.445312C62.0914 0.445312 80 18.3539 80 40.4453C80 62.5367 62.0914 80.4453 40 80.4453C17.9086 80.4453 0 62.5367 0 40.4453Z" fill="#F3EFE7"/>
<path d="M49 48.3516L52.1211 44.4453L65.7929 55.3693C66.8716 56.2312 67.0473 57.8043 66.1854 58.883C65.3236 59.9617 63.7504 60.1374 62.6718 59.2755L49 48.3516Z" fill="#FECA55"/>
<circle cx="38.1903" cy="36.6358" r="17.5" transform="rotate(-51.3746 38.1903 36.6358)" fill="#FECA55" stroke="#F3EFE7" stroke-width="2"/>
<circle cx="38.1895" cy="36.6359" r="12.5" transform="rotate(-51.3746 38.1895 36.6359)" fill="white"/>
<path d="M50.3568 23.3994C48.1335 27.5199 41.8805 37.6405 39.6572 41.7611C37.7303 39.3303 35.8034 36.8994 33.8765 34.4686C33.7283 34.2907 33.4318 34.3796 33.3429 34.5279L20.4475 53.5596C20.2104 53.945 20.8033 54.2711 21.0404 53.9153C25.2499 47.7196 29.4594 41.4943 33.6393 35.2986C35.5662 37.7294 37.4931 40.1899 39.4496 42.6208C39.5978 42.7987 39.8943 42.7394 39.9832 42.5615C42.2955 38.2927 48.6078 28.0239 50.9497 23.7551C51.1572 23.3401 50.5643 22.9843 50.3568 23.3994Z" fill="#8DB8A8"/>
<path d="M21.0712 55.3054C22.215 55.3054 23.1423 54.3781 23.1423 53.2342C23.1423 52.0904 22.215 51.1631 21.0712 51.1631C19.9273 51.1631 19 52.0904 19 53.2342C19 54.3781 19.9273 55.3054 21.0712 55.3054Z" fill="#D24A43"/>
<path d="M33.2137 36.5876C34.3576 36.5876 35.2849 35.6603 35.2849 34.5165C35.2849 33.3726 34.3576 32.4453 33.2137 32.4453C32.0699 32.4453 31.1426 33.3726 31.1426 34.5165C31.1426 35.6603 32.0699 36.5876 33.2137 36.5876Z" fill="#D24A43"/>
<path d="M39.2137 43.5876C40.3576 43.5876 41.2849 42.6603 41.2849 41.5165C41.2849 40.3726 40.3576 39.4453 39.2137 39.4453C38.0699 39.4453 37.1426 40.3726 37.1426 41.5165C37.1426 42.6603 38.0699 43.5876 39.2137 43.5876Z" fill="#FECA55"/>
<path d="M51.0712 24.5876C52.215 24.5876 53.1423 23.6603 53.1423 22.5165C53.1423 21.3726 52.215 20.4453 51.0712 20.4453C49.9273 20.4453 49 21.3726 49 22.5165C49 23.6603 49.9273 24.5876 51.0712 24.5876Z" fill="#39B54A"/>
</svg>
