<svg width="80" height="81" viewBox="0 0 80 81" fill="none" xmlns="http://www.w3.org/2000/svg">
<path d="M0 40.4453C0 18.3539 17.9086 0.445312 40 0.445312C62.0914 0.445312 80 18.3539 80 40.4453C80 62.5367 62.0914 80.4453 40 80.4453C17.9086 80.4453 0 62.5367 0 40.4453Z" fill="#F3EFE7"/>
<path d="M21.2129 58.3847L16 62.7635C16 62.7635 22.6212 75.3089 39.3485 74.9605C56.0758 74.612 62 62.0665 62 62.0665L59.8159 59.6255C57.436 56.9656 54.0358 55.4453 50.4666 55.4453H29.282C26.3303 55.4453 23.4731 56.4861 21.2129 58.3847Z" fill="#FECA55"/>
<path d="M48.535 46.7609C48.3258 47.1 48.8233 53.7484 49.3627 60.3289C49.9021 66.9094 29.9931 61.6 29.9931 61.6L31.0908 43.7886L48.535 46.7609Z" fill="#FFA79B"/>
<path d="M49.2207 58.758C48.7995 52.6439 48.3534 46.8866 48.5618 46.5486L39.2323 45.2351C39.8161 50.6115 44.2432 55.4469 49.2207 58.758Z" fill="black"/>
<path d="M30.0736 18.3135C33.4287 13.3517 44.7162 13.3142 51.4591 16.6736C54.4034 18.0931 56.4139 16.4221 56.5645 19.0357C56.9327 25.4245 58.7241 45.3828 54.858 50.2202C49.2411 57.2605 38.6784 52.789 34.256 45.9859C29.8336 39.1829 25.3068 25.4045 30.0736 18.3135Z" fill="#FFA79B"/>
<path d="M56.9593 13.8035C53.944 12.1543 48.7502 13.3989 46.3741 14.8591C40.0912 13.5643 32.7611 14.4454 30.221 18.2444C27.0207 22.9544 28.0006 30.7736 30.2927 37.4223C32.7739 36.5889 33.5519 34.5304 35.5957 32.4925C43.1697 30.2593 43.3715 24.1917 43.8131 21.0841C45.7308 22.4398 55.7776 21.6191 57.4219 19.4317C59.655 16.2898 57.8887 14.3697 56.9593 13.8035Z" fill="#952C28"/>
<path d="M25.4262 34.804C26.5017 31.6332 31.6651 29.9257 35.4976 32.913C35.6439 36.6412 36.0161 40.3204 36.3464 44.0675C34.317 44.9777 30.1997 44.9895 27.7353 43.1154C24.999 40.889 24.2251 38.1782 25.4262 34.804Z" fill="#FFA79B"/>
<path d="M29.46 35.962C30.5312 36.8925 31.6436 37.7559 32.7147 38.6863C33.1655 39.0536 32.5003 39.6628 32.0908 39.2283C31.0197 38.2979 29.9073 37.4345 28.8362 36.5041C28.3854 36.1367 29.0093 35.5947 29.46 35.962Z" fill="#322E28"/>
<path d="M43.7997 43.3118C44.1025 44.2361 45.1178 44.9478 46.0831 44.7968C46.601 44.7428 46.8748 45.5569 46.3155 45.6781C44.8323 45.8831 43.3528 44.9809 42.9753 43.5487C42.83 42.9978 43.6545 42.7609 43.7997 43.3118Z" fill="#322E28"/>
<path d="M51.2158 35.8483C51.8703 36.0598 52.6673 36.3581 53.347 36.2107C54.0979 36.1067 54.786 35.3095 54.1274 34.6277C53.7121 34.1877 54.3456 33.6379 54.7609 34.078C55.5622 34.8467 55.4027 36.0593 54.5426 36.6582C53.4854 37.4177 52.0926 37.1308 50.9682 36.7267C50.4271 36.4907 50.6746 35.6123 51.2158 35.8483Z" fill="#322E28"/>
<path d="M55.7608 26.1504C56.0157 26.2124 56.1996 26.2312 56.4545 26.2933C57.5453 26.5848 57.1356 28.1993 56.0449 27.9078C55.79 27.8457 55.6061 27.8269 55.3512 27.7649C54.1476 27.4978 54.6283 25.9266 55.7608 26.1504Z" fill="#322E28"/>
<path d="M45.7879 25.8655C46.0847 25.8598 46.3816 25.8541 46.7913 25.8239C47.2722 25.837 47.6861 26.2756 47.6902 26.7443C47.6944 27.2131 47.3014 27.5332 46.8205 27.5201C46.5237 27.5257 46.2268 27.5314 45.8171 27.5616C45.3363 27.5485 44.9224 27.1099 44.9182 26.6412C44.9141 26.1724 45.3363 25.9634 45.7879 25.8655Z" fill="#322E28"/>
<path d="M46.4352 29.049C46.4981 29.7422 46.6323 30.4787 46.6532 31.2399C46.6868 31.8216 45.8352 31.7707 45.8017 31.189C45.7388 30.4958 45.6046 29.7593 45.5837 28.9982C45.4369 28.441 46.4017 28.4673 46.4352 29.049Z" fill="#322E28"/>
<path d="M56.0299 28.9992C56.0928 29.6924 56.227 30.4289 56.248 31.19C56.2815 31.7717 55.4299 31.7209 55.3964 31.1392C55.3335 30.446 55.1994 29.7095 55.1784 28.9484C55.0316 28.3912 55.9964 28.4175 56.0299 28.9992Z" fill="#322E28"/>
<rect x="16" y="52.4453" width="15" height="15" rx="2" fill="#8DB8A8"/>
<path d="M19 59.2447L22.587 63.4661L28.1667 55.4453" stroke="white" stroke-width="1.5" stroke-linecap="round"/>
</svg>
