<svg width="80" height="81" viewBox="0 0 80 81" fill="none" xmlns="http://www.w3.org/2000/svg">
<path d="M0 40.4453C0 18.3539 17.9086 0.445312 40 0.445312C62.0914 0.445312 80 18.3539 80 40.4453C80 62.5367 62.0914 80.4453 40 80.4453C17.9086 80.4453 0 62.5367 0 40.4453Z" fill="#F3EFE7"/>
<rect x="16.8457" y="26.5735" width="46.3077" height="28.6667" rx="1.10256" fill="#FECA55"/>
<rect x="21" y="30.4453" width="38" height="21" rx="1.10256" fill="white"/>
<line x1="67.5644" y1="58.5479" x2="12.4362" y2="58.5479" stroke="#322E28" stroke-width="2.20513" stroke-linecap="round"/>
<path d="M44.8333 40.2717C45.3519 40.5711 45.3519 41.3195 44.8333 41.6189L37.4167 45.9009C36.8981 46.2003 36.25 45.8261 36.25 45.2273L36.25 36.6633C36.25 36.0646 36.8981 35.6904 37.4167 35.9897L44.8333 40.2717Z" fill="#D24A43"/>
<circle cx="48.6854" cy="27.1311" r="8.6112" transform="rotate(-146.759 48.6854 27.1311)" fill="#8DB8A8" stroke="#F3EFE7" stroke-width="1.10256"/>
<mask id="path-7-inside-1" fill="white">
<path d="M57.2563 30.3706C57.7701 29.0112 57.9532 27.5491 57.7905 26.105C57.6277 24.6609 57.1238 23.2762 56.3203 22.0652C55.5169 20.8543 54.4369 19.8519 53.1695 19.1407C51.9022 18.4295 50.4839 18.03 49.0316 17.9751L48.6856 27.131L57.2563 30.3706Z"/>
</mask>
<path d="M57.2563 30.3706C57.7701 29.0112 57.9532 27.5491 57.7905 26.105C57.6277 24.6609 57.1238 23.2762 56.3203 22.0652C55.5169 20.8543 54.4369 19.8519 53.1695 19.1407C51.9022 18.4295 50.4839 18.03 49.0316 17.9751L48.6856 27.131L57.2563 30.3706Z" fill="#D24A43" stroke="#F3EFE7" stroke-width="2.20513" mask="url(#path-7-inside-1)"/>
<circle cx="28" cy="22.4453" r="2" fill="#FECA55"/>
<circle cx="21" cy="22.4453" r="2" fill="#D24A43"/>
</svg>
