<svg width="80" height="81" viewBox="0 0 80 81" fill="none" xmlns="http://www.w3.org/2000/svg">
<path d="M0 40.4453C0 18.3539 17.9086 0.445312 40 0.445312C62.0914 0.445312 80 18.3539 80 40.4453C80 62.5367 62.0914 80.4453 40 80.4453C17.9086 80.4453 0 62.5367 0 40.4453Z" fill="#F3EFE7"/>
<line x1="40" y1="51.4453" x2="40" y2="57.4453" stroke="#322E28" stroke-width="2" stroke-linecap="round"/>
<rect x="19" y="25.4453" width="42" height="26" rx="1" fill="#FECA55"/>
<line x1="48" y1="58.4453" x2="32" y2="58.4453" stroke="#322E28" stroke-width="2" stroke-linecap="round"/>
<rect x="53.625" y="44.4453" width="13.75" height="17.5" rx="1.375" fill="#D24A43" stroke="#F3EFE7" stroke-width="1.25"/>
<circle cx="36" cy="20.4453" r="2" fill="#8DB8A8"/>
<circle cx="29" cy="20.4453" r="2" fill="#FECA55"/>
<circle cx="60.5" cy="57.9453" r="1.5" fill="white"/>
<circle cx="22" cy="20.4453" r="2" fill="#D24A43"/>
<rect x="42" y="31.4453" width="2" height="19" rx="1" transform="rotate(90 42 31.4453)" fill="white"/>
<rect x="42" y="35.4453" width="2" height="19" rx="1" transform="rotate(90 42 35.4453)" fill="white"/>
<rect x="42" y="39.4453" width="2" height="19" rx="1" transform="rotate(90 42 39.4453)" fill="white"/>
</svg>
