<svg width="80" height="81" viewBox="0 0 80 81" fill="none" xmlns="http://www.w3.org/2000/svg">
<path d="M0 40.4453C0 18.3539 17.9086 0.445312 40 0.445312C62.0914 0.445312 80 18.3539 80 40.4453C80 62.5367 62.0914 80.4453 40 80.4453C17.9086 80.4453 0 62.5367 0 40.4453Z" fill="#F3EFE7"/>
<circle cx="38.3499" cy="38.7958" r="26.6306" transform="rotate(-51.3746 38.3499 38.7958)" fill="#8DB8A8" stroke="#F3EFE7" stroke-width="2.53126"/>
<path d="M54.8838 54.9607L58.2529 50.7442L68.6023 59.0135C69.7667 59.9439 69.9564 61.642 69.026 62.8063C68.0957 63.9707 66.3976 64.1604 65.2332 63.2301L54.8838 54.9607Z" fill="#8DB8A8"/>
<circle cx="38.3492" cy="38.7958" r="19.2159" transform="rotate(-51.3746 38.3492 38.7958)" fill="#F3EFE7"/>
<path d="M27.9873 56.7629L30.9439 35.4736L46.5754 37.1411C46.3604 37.5131 47.3792 50.5737 48.0013 58.7321C45.8055 58.9422 39.68 61.774 27.9873 56.7629Z" fill="#FFA79B"/>
<path d="M36.1611 37.258C36.0042 36.6706 35.9109 36.1282 35.8083 35.5315L46.5755 37.1421C46.4409 37.3328 46.7258 41.584 47.0963 46.6582C42.4923 44.5461 38.4343 41.3906 36.1611 37.258Z" fill="#322E28"/>
<path d="M29.4664 19.245C30.9164 14.6988 39.2584 12.0265 44.9206 13.0242C47.3929 13.447 48.5019 11.717 49.1706 13.6677C50.8043 18.4964 56.2835 33.434 54.4415 38.0405C51.7465 44.7391 42.9842 43.7549 38.3173 39.5779C33.6736 35.3509 27.406 25.7534 29.4664 19.245Z" fill="#FFA79B"/>
<path d="M48.2984 9.6795C45.7231 9.0873 42.1655 11.2555 40.711 12.946C35.8268 13.4036 30.6013 15.7665 29.4932 19.3184C28.1362 23.665 30.4348 29.4105 33.5369 33.9517C35.1778 32.773 33.88 28.5257 35.0055 26.4998C40.1008 22.9834 40.5085 20.8054 40.1951 18.3523C41.9098 18.9687 49.112 16.0085 49.8687 13.993C50.8176 10.9134 49.0661 9.85484 48.2984 9.6795Z" fill="#952C28"/>
<path d="M27.9245 30.2442C28.0961 27.5312 31.5704 25.0206 35.03 26.4496C35.9682 29.2545 36.9796 32.0326 37.9909 34.8108C36.7189 35.9791 33.596 36.9534 31.3827 36.1048C28.8936 35.067 27.7099 33.18 27.9245 30.2442Z" fill="#FFA79B"/>
<path d="M31.2991 29.5096C32.1664 29.7314 32.9606 29.9798 33.8279 30.2016C34.2001 30.3142 34.1439 30.9559 33.7219 30.8201C32.8546 30.5983 32.0603 30.3498 31.193 30.1281C30.771 29.9922 30.877 29.3737 31.2991 29.5096Z" fill="#D24A43"/>
<path d="M51.1871 21.7122C51.3768 22.347 51.6396 22.955 51.8293 23.5898C51.9623 23.9554 51.3544 24.2187 51.2446 23.8033C51.0549 23.1685 50.7921 22.5604 50.6025 21.9256C50.4195 21.5369 51.0773 21.2968 51.1871 21.7122Z" fill="#322E28"/>
<path d="M44.358 23.8728C44.5477 24.5076 44.8105 25.1157 45.0002 25.7505C45.1332 26.116 44.5253 26.3793 44.4155 25.9639C44.2258 25.3291 43.963 24.721 43.7733 24.0863C43.6403 23.7207 44.2482 23.4574 44.358 23.8728Z" fill="#322E28"/>
<path d="M49.0001 28.0995C49.4686 28.1355 50.0867 28.2412 50.5218 27.9582C50.8108 27.7285 50.9468 27.3061 50.6211 27.0937C50.2954 26.8813 50.7005 26.4021 51.0262 26.6145C51.578 26.9929 51.5252 27.7576 51.1699 28.26C50.6718 28.9387 49.6849 28.8434 48.9439 28.7412C48.4754 28.7051 48.5814 28.0866 49.0001 28.0995Z" fill="#D24A43"/>
<path d="M43.0604 34.8648C43.1804 35.6493 43.9116 36.2934 44.749 36.3191C45.1676 36.3319 45.2344 36.9701 44.8157 36.9573C43.6096 36.942 42.6257 36.0588 42.4457 34.8821C42.3625 34.5398 43.0004 34.4726 43.0604 34.8648Z" fill="#D24A43"/>
<path d="M42.5187 21.4383L43.3856 20.7491C44.0599 20.2131 44.778 21.2761 44.1038 21.8121L43.2369 22.5013C42.6357 23.0106 41.8445 21.9743 42.5187 21.4383Z" fill="#322E28"/>
<path d="M50.0403 19.3557C50.5055 19.2687 50.9706 19.1818 51.4357 19.0948C51.7779 19.0113 52.107 19.3467 52.1404 19.6658C52.1505 20.0348 51.9114 20.2878 51.5692 20.3713C51.1041 20.4582 50.639 20.5452 50.1738 20.6321C49.8316 20.7156 49.5025 20.3802 49.4691 20.0611C49.3859 19.7188 49.6483 19.416 50.0403 19.3557Z" fill="#322E28"/>
<path d="M27.2931 49.4453L48.7216 51.1583L49.9121 55.7263C49.9121 55.7263 47.5312 61.4363 36.8169 60.2943C26.1026 59.1523 24.9121 52.8713 24.9121 52.8713L27.2931 49.4453Z" fill="#FECA55"/>
</svg>
