<svg width="156" height="54" viewBox="0 0 156 54" fill="none" xmlns="http://www.w3.org/2000/svg">
<path d="M65.0604 38.5239C64.8107 38.5988 64.5359 38.6742 64.2611 38.6742C63.7863 38.6742 63.3869 38.4737 63.3869 37.7994V33.5023C63.3869 29.8794 61.238 28.2556 57.8402 28.2556C55.9154 28.2556 54.1911 28.7301 53.2421 29.0549V31.5037C54.3168 31.0289 55.7898 30.5793 57.5649 30.5793C59.6127 30.5793 60.7119 31.6286 60.7119 33.1278V33.551C59.7624 33.3513 58.6134 33.2013 57.5889 33.2013C55.0907 33.2013 52.2423 34.1503 52.2423 37.2236C52.2423 39.6975 54.266 40.8968 56.4394 40.8968C58.3134 40.8968 59.788 40.2979 60.9622 39.3478C61.3872 40.3223 62.2614 40.7471 63.3609 40.7471C63.9608 40.7471 64.5605 40.6474 65.0601 40.4477V38.5229L65.0604 38.5239ZM60.7135 37.4C59.7637 38.3491 58.5144 38.8241 57.2403 38.8241C56.0411 38.8241 54.9921 38.2248 54.9921 37.0501C54.9921 35.5525 56.5907 35.0772 58.1145 35.0772C58.9641 35.0772 59.9885 35.2269 60.713 35.3766L60.7135 37.4ZM72.6313 40.8976C74.1551 40.8976 75.4543 40.6228 76.6039 40.0731V37.5987C75.654 38.148 74.3797 38.5229 73.1058 38.5229C70.9573 38.5229 68.8835 37.2985 68.8835 34.5759C68.8835 31.7521 71.0324 30.6279 73.1555 30.6279C74.3799 30.6279 75.6043 31.0022 76.4785 31.627V29.1795C75.4295 28.555 74.1302 28.2556 72.7813 28.2556C69.5829 28.2556 66.1602 30.2045 66.1602 34.6764C66.1602 38.9484 69.4342 40.8973 72.6324 40.8973L72.6313 40.8976ZM83.6241 33.2024C81.1256 33.2024 78.2774 34.1514 78.2774 37.2249C78.2774 39.6986 80.3011 40.8976 82.4745 40.8976C84.3485 40.8976 85.8229 40.2982 86.997 39.3486C87.4221 40.3217 88.2963 40.7468 89.3958 40.7468C89.9952 40.7468 90.5948 40.6463 91.0945 40.4474V38.5231C90.8458 38.598 90.5705 38.6734 90.2951 38.6734C89.8219 38.6734 89.4209 38.4729 89.4209 37.7986V33.5023C89.4209 29.8799 87.2735 28.2559 83.8756 28.2559C81.9519 28.2559 80.2279 28.7304 79.2783 29.0552V31.504C80.353 31.0292 81.8265 30.5796 83.6003 30.5796C85.6488 30.5796 86.7484 31.6288 86.7484 33.128V33.5526C85.7988 33.3521 84.6498 33.2024 83.6254 33.2024H83.6241ZM86.7471 37.4C85.7962 38.3491 84.5469 38.8241 83.2728 38.8241C82.0735 38.8241 81.0245 38.2248 81.0245 37.0501C81.0245 35.5525 82.6232 35.0772 84.147 35.0772C84.9966 35.0772 86.021 35.2269 86.7455 35.3766V37.4003L86.7471 37.4ZM92.1927 34.577C92.1927 38.0243 94.5158 40.8976 98.139 40.8976C100.387 40.8976 101.812 39.8483 102.736 38.6742V40.5728H105.135V23.0838H102.461V30.1294C101.637 29.1803 100.238 28.2553 98.139 28.2553C94.5161 28.2553 92.1927 31.1295 92.1927 34.577ZM102.436 33.1024V36.0257C101.861 37.349 100.487 38.5493 98.6132 38.5493C96.4647 38.5493 94.8906 36.9239 94.8906 34.5767C94.8906 32.2269 96.4647 30.6025 98.6132 30.6025C100.487 30.6025 101.861 31.8021 102.436 33.101V33.1024ZM114.529 40.8978C116.203 40.8978 117.727 40.5984 118.826 40.0731V37.774C117.802 38.274 116.478 38.6228 115.028 38.6228C112.83 38.6228 110.731 37.7232 110.431 35.5744H119.45C120.225 32.1017 118.576 28.254 113.804 28.254C111.031 28.254 107.733 30.2277 107.733 34.5751C107.733 38.7971 110.856 40.8957 114.529 40.8957V40.8978ZM113.93 30.4788C116.553 30.4788 117.203 32.5281 117.053 33.5772H110.407C110.507 31.5534 112.131 30.4788 113.93 30.4788ZM138.364 33.1521V40.5733H141.038V33.0773C141.038 30.6039 139.663 28.2556 136.49 28.2556C134.742 28.2556 133.343 29.1298 132.293 30.1793C131.594 29.0049 130.344 28.2556 128.545 28.2556C126.596 28.2556 125.198 29.3549 124.548 30.0794V28.5804H122.174V40.5714H124.848V32.4766C125.473 31.6772 126.572 30.6277 128.021 30.6277C129.47 30.6277 130.395 31.6021 130.395 33.1513V40.5714H133.068V33.0773C133.068 32.8027 133.043 32.5276 133.018 32.2531C133.643 31.5035 134.667 30.6293 135.991 30.6293C137.441 30.6293 138.364 31.6032 138.364 33.1521ZM155.629 28.5807H152.832L149.259 37.6246L145.211 28.5807H142.363L148.059 40.673L147.809 41.2726C147.111 43.1467 146.136 44.0708 144.837 44.0708C144.438 44.0708 144.013 44.0208 143.612 43.896V46.1689C144.138 46.294 144.662 46.3688 145.187 46.3688C147.01 46.3688 148.709 45.3201 150.008 42.1974L155.629 28.5807ZM55.7794 11.6301C56.4536 10.6557 57.6026 9.63152 59.1272 9.63152C60.7258 9.63152 61.9254 10.5557 61.9254 12.5048V19.5753H64.5987V12.1546C64.5987 9.30644 62.675 7.25785 59.6517 7.25785C58.0276 7.25785 56.6535 8.00639 55.7791 8.90517V2.08574H53.1057V19.5747H55.7791L55.7794 11.6301ZM69.2709 15.9275C69.2709 18.7254 71.0701 19.8747 73.3932 19.8747C74.5679 19.8747 75.7169 19.6747 76.6164 19.3502V17.0516C75.8668 17.3511 75.0672 17.5262 74.1931 17.5262C72.6425 17.5262 71.918 17.0022 71.918 15.4276V9.93093H76.2654V7.58267H71.9183V3.31067L69.2701 3.96029V7.58267H67.1215V9.93146H69.2698V15.9278L69.2709 15.9275ZM82.3615 11.4799C82.9859 10.6805 84.0852 9.63098 85.5347 9.63098C86.9837 9.63098 87.9078 10.6054 87.9078 12.1546V19.5747H90.5812V12.0798C90.5812 11.8049 90.5571 11.5299 90.5325 11.2553C91.1573 10.5057 92.1814 9.63152 93.5053 9.63152C94.9548 9.63152 95.8792 10.6059 95.8792 12.1551V19.5753H98.5525V12.08C98.5525 9.60639 97.1785 7.25812 94.0052 7.25812C92.2563 7.25812 90.8571 8.1323 89.808 9.18186C89.1084 8.00746 87.8592 7.25812 86.06 7.25812C84.1112 7.25812 82.7125 8.3574 82.0628 9.08188V7.58293H79.6894V19.5755H82.3628V11.4799H82.3615ZM102.462 2.08574H105.136V19.5747H102.462V2.08574ZM21.4387 0L0.5 2.19562V40.5741L21.4387 53.0329L42.3774 40.5741V2.19562L21.6584 0.0221888L21.4387 0ZM39.6388 39.0163L21.4387 49.8455L3.23857 39.0163V23.2864L21.3612 34.0717L21.3911 36.0265L8.95899 28.6275L8.94081 30.525L21.4218 38.0264L21.4539 40.033L8.97636 32.61L8.95819 34.5075L21.4392 42.0089L34.0397 34.4695V32.5634L34.0237 32.5723V26.3747L39.6377 23.0217V39.0163H39.6388ZM39.6238 20.9807L34.6439 23.9157L32.3456 25.2698L21.3841 18.7481L21.366 20.6457L30.7355 26.2169L30.6526 26.2658L30.4505 26.3856L29.1192 27.17L21.3841 22.567L21.3662 24.4651L27.4721 28.0955L26.0312 29.059L25.9965 29.0803L21.3841 26.3626L21.3662 28.2602L24.3925 30.0422L21.3096 31.893L3.28027 21.1755L21.336 10.3218V10.3236L39.6238 20.9807ZM39.638 19.0719L21.3414 8.28469V8.28201L21.3392 8.28362L21.3366 8.28228V8.28495L3.23937 19.0609V4.66231L21.4395 2.75408L39.6391 4.66204V19.0714L39.638 19.0719Z" fill="#322E28"/>
</svg>
