<svg width="90" height="49" viewBox="0 0 90 49" fill="none" xmlns="http://www.w3.org/2000/svg">
<g opacity="0.5">
<path d="M41.261 13.9197V18.4458H40.7194V13.9197H39.25V13.4429H42.7295V13.9205L41.261 13.9197Z" fill="#322E28"/>
<path d="M43.9975 18.4458V13.4429H47.1487V13.9205H44.5399V15.684H46.7602V16.1624H44.5399V17.9689H47.1487V18.4458H43.9975Z" fill="#322E28"/>
<path d="M51.449 18.4458V13.9197H49.0463V18.4458H48.5047V13.4429H51.9937V18.4458H51.449Z" fill="#322E28"/>
<path d="M56.6683 18.4458V13.9197H54.9428V15.6316C54.9428 17.7422 54.4297 18.4458 53.4599 18.4458H53.2062V17.9682H53.3418C53.969 17.9682 54.4178 17.5539 54.4178 15.473V13.4429H57.2122V18.4458H56.6683Z" fill="#322E28"/>
<path d="M61.9637 18.4458V14.3622L59.3826 18.4458H58.8695V13.4429H59.4111V17.5187L61.9922 13.4429H62.5053V18.4458H61.9637Z" fill="#322E28"/>
<path d="M67.7222 19.6551V18.4458H64.1649V13.4429H64.7042V17.9689H67.1069V13.4429H67.6485V17.9689H68.2551V19.6559L67.7222 19.6551Z" fill="#322E28"/>
<path d="M72.8567 18.4458L72.4506 17.3147H70.2303L69.8267 18.4458H69.2494L71.1177 13.4429H71.5736L73.4339 18.4458H72.8567ZM71.35 14.2082L70.3985 16.8503H72.2952L71.35 14.2082Z" fill="#322E28"/>
<path d="M41.3474 27.3689C41.1069 27.3717 40.8683 27.3272 40.6456 27.2379C40.4228 27.1487 40.2204 27.0165 40.0501 26.8491C39.5743 26.3801 39.5743 25.886 39.5743 24.8253C39.5743 23.7645 39.5743 23.2712 40.0501 22.8007C40.2205 22.6334 40.423 22.5013 40.6457 22.4121C40.8684 22.3228 41.107 22.2782 41.3474 22.2808C42.2601 22.2808 42.9333 22.828 43.1086 23.7708H42.5535C42.4179 23.1587 41.9826 22.7545 41.3482 22.7545C41.1856 22.7527 41.0243 22.7829 40.8737 22.8433C40.7231 22.9037 40.5863 22.9931 40.4712 23.1063C40.154 23.4291 40.1151 23.7739 40.1151 24.8214C40.1151 25.8688 40.1508 26.212 40.4712 26.5356C40.5863 26.6488 40.7231 26.7382 40.8737 26.7986C41.0243 26.859 41.1856 26.8892 41.3482 26.8874C41.9826 26.8874 42.4322 26.4864 42.5678 25.8751H43.1094C42.9444 26.821 42.253 27.3689 41.3474 27.3689Z" fill="#322E28"/>
<path d="M47.9488 24.8253C47.9488 25.8227 47.9338 26.3887 47.473 26.8491C47.1257 27.1825 46.6601 27.369 46.1754 27.369C45.6906 27.369 45.225 27.1825 44.8777 26.8491C44.4146 26.3926 44.4019 25.8227 44.4019 24.8253V24.4344C44.4019 23.8372 44.4447 23.2251 44.8777 22.7967C45.225 22.4634 45.6906 22.2769 46.1754 22.2769C46.6601 22.2769 47.1257 22.4634 47.473 22.7967C47.9147 23.2322 47.9488 23.8653 47.9488 24.4766V24.8253ZM47.4064 24.5579C47.4064 23.9677 47.385 23.4471 47.0504 23.1172C46.9353 23.0035 46.7986 22.9133 46.6482 22.8517C46.4977 22.7901 46.3363 22.7584 46.1734 22.7584C46.0104 22.7584 45.8491 22.7901 45.6986 22.8517C45.5481 22.9133 45.4114 23.0035 45.2964 23.1172C44.9395 23.4682 44.9395 23.9888 44.9395 24.6807V25.1786C44.9395 25.7203 44.9681 26.2128 45.2964 26.5356C45.4114 26.6494 45.5481 26.7396 45.6986 26.8012C45.8491 26.8628 46.0104 26.8944 46.1734 26.8944C46.3363 26.8944 46.4977 26.8628 46.6482 26.8012C46.7986 26.7396 46.9353 26.6494 47.0504 26.5356C47.3993 26.1917 47.4064 25.65 47.4064 25.0738V24.5579Z" fill="#322E28"/>
<path d="M53.0095 28.536V27.3267H49.4515V22.3238H49.9931V26.8491H52.3958V22.3223H52.9382V26.8491H53.544V28.536H53.0095Z" fill="#322E28"/>
<path d="M57.9489 27.3267V23.2431L55.3678 27.3267H54.8548V22.3238H55.3964V26.4004L57.9767 22.3238H58.4905V27.3267H57.9489Z" fill="#322E28"/>
<path d="M63.307 27.3267L62.9002 26.1956H60.6799L60.2739 27.3267H59.6958L61.564 22.3238H62.02L63.8811 27.3267H63.307ZM61.8003 23.0891L60.8488 25.7313H62.7456L61.8003 23.0891Z" fill="#322E28"/>
<path d="M68.2392 27.3267V22.8007H66.5137V24.5157C66.5137 26.6263 66.0007 27.3299 65.0309 27.3299H64.774V26.8491H64.9095C65.5368 26.8491 65.9864 26.4348 65.9864 24.3539V22.3215H68.7808V27.3244L68.2392 27.3267Z" fill="#322E28"/>
<path d="M72.3436 27.3267H70.4405V22.3238H70.9821V24.3836H72.3436C73.2952 24.3836 73.9121 24.9746 73.9121 25.8595C73.9121 26.7444 73.2849 27.3267 72.3436 27.3267ZM72.2944 24.8597H70.9821V26.8491H72.2944C72.9716 26.8491 73.3641 26.4833 73.3641 25.8579C73.3641 25.2325 72.9716 24.8597 72.2944 24.8597Z" fill="#322E28"/>
<path d="M78.1695 27.3267V25.0426H75.7597V27.3267H75.2173V22.3238H75.7597V24.5665H78.1695V22.3223H78.7111V27.3252L78.1695 27.3267Z" fill="#322E28"/>
<path d="M82.2747 27.3267H80.3716V22.3238H80.9132V24.3836H82.2755C83.2271 24.3836 83.8432 24.9746 83.8432 25.8595C83.8432 26.7444 83.2152 27.3267 82.2747 27.3267ZM80.9124 24.8597V26.8491H82.2287C82.9059 26.8491 83.2976 26.4833 83.2976 25.8579C83.2976 25.2325 82.9019 24.8597 82.2287 24.8597H80.9124ZM84.5243 27.3267V22.3238H85.0659V27.3267H84.5243Z" fill="#322E28"/>
<path d="M89.3725 27.3267L88.1387 25.2255L86.8985 27.3267H86.2847L87.8397 24.762L86.3846 22.3223H87.0127L88.1387 24.2976L89.2655 22.3223H89.8927L88.4313 24.762L89.9998 27.3267H89.3725Z" fill="#322E28"/>
<path d="M41.261 31.4307V35.956H40.7194V31.4307H39.25V30.9531H42.7295V31.4307H41.261Z" fill="#322E28"/>
<path d="M43.9975 35.956V30.9531H47.1487V31.4307H44.5399V33.1958H46.7602V33.6734H44.5399V35.4799H47.1487V35.956H43.9975Z" fill="#322E28"/>
<path d="M51.284 35.956L50.0502 33.8555L48.81 35.956H48.1962L49.7512 33.3904L48.2961 30.9531H48.9242L50.0502 32.9284L51.177 30.9531H51.8042L50.3428 33.392L51.9113 35.956H51.284Z" fill="#322E28"/>
<path d="M56.0783 35.956V33.6734H53.6685V35.956H53.1269V30.9531H53.6685V33.1958H56.0783V30.9531H56.6199V35.956H56.0783Z" fill="#322E28"/>
<path d="M61.683 33.4545C61.683 34.4527 61.6679 35.0179 61.2072 35.4791C60.8599 35.8125 60.3943 35.999 59.9095 35.999C59.4248 35.999 58.9592 35.8125 58.6118 35.4791C58.1479 35.0218 58.1361 34.4527 58.1361 33.4545V33.0683C58.1361 32.4703 58.1789 31.8591 58.6118 31.4268C58.9592 31.0934 59.4248 30.9069 59.9095 30.9069C60.3943 30.9069 60.8599 31.0934 61.2072 31.4268C61.6489 31.8622 61.683 32.4954 61.683 33.1074V33.4545ZM61.1406 33.1872C61.1406 32.597 61.12 32.0764 60.7846 31.7465C60.6695 31.6328 60.5328 31.5425 60.3823 31.4809C60.2318 31.4194 60.0705 31.3877 59.9075 31.3877C59.7446 31.3877 59.5833 31.4194 59.4328 31.4809C59.2823 31.5425 59.1456 31.6328 59.0305 31.7465C58.6737 32.0975 58.6737 32.6181 58.6737 33.3099V33.8094C58.6737 34.3503 58.7022 34.842 59.0305 35.1657C59.1456 35.2794 59.2823 35.3696 59.4328 35.4312C59.5833 35.4928 59.7446 35.5245 59.9075 35.5245C60.0705 35.5245 60.2318 35.4928 60.3823 35.4312C60.5328 35.3696 60.6695 35.2794 60.7846 35.1657C61.1343 34.8209 61.1406 34.2792 61.1406 33.7039V33.1872Z" fill="#322E28"/>
<path d="M66.0522 35.956V31.4307H64.3267V33.1457C64.3267 35.2563 63.8137 35.9599 62.8439 35.9599H62.5878V35.4823H62.7226C63.3498 35.4823 63.7994 35.0672 63.7994 32.987V30.9531H66.5938V35.956H66.0522Z" fill="#322E28"/>
<path d="M71.6593 33.4545C71.6593 34.4527 71.645 35.0179 71.1835 35.4791C70.8362 35.8125 70.3706 35.999 69.8858 35.999C69.4011 35.999 68.9354 35.8125 68.5881 35.4791C68.1242 35.0218 68.1123 34.4527 68.1123 33.4545V33.0683C68.1123 32.4703 68.1544 31.8591 68.5881 31.4268C68.9354 31.0934 69.4011 30.9069 69.8858 30.9069C70.3706 30.9069 70.8362 31.0934 71.1835 31.4268C71.6252 31.8622 71.6593 32.4954 71.6593 33.1074V33.4545ZM71.1177 33.1872C71.1177 32.597 71.0963 32.0764 70.7608 31.7465C70.6458 31.6328 70.5091 31.5425 70.3586 31.4809C70.2081 31.4194 70.0468 31.3877 69.8838 31.3877C69.7209 31.3877 69.5595 31.4194 69.409 31.4809C69.2586 31.5425 69.1219 31.6328 69.0068 31.7465C68.6508 32.0975 68.6508 32.6181 68.6508 33.3099V33.8094C68.6508 34.3503 68.6793 34.842 69.0068 35.1657C69.1219 35.2794 69.2586 35.3696 69.409 35.4312C69.5595 35.4928 69.7209 35.5245 69.8838 35.5245C70.0468 35.5245 70.2081 35.4928 70.3586 35.4312C70.5091 35.3696 70.6458 35.2794 70.7608 35.1657C71.1105 34.8209 71.1177 34.2792 71.1177 33.7039V33.1872Z" fill="#322E28"/>
<path d="M73.7368 31.4307V35.956H73.1952V30.9531H76.2466V31.4307H73.7368Z" fill="#322E28"/>
<path d="M80.6134 35.956V31.8739L78.0323 35.956H77.5185V30.9531H78.0601V35.0296L80.6428 30.9531H81.1566V35.956H80.6134Z" fill="#322E28"/>
<path d="M85.9081 35.956V31.8739L83.3278 35.956H82.8139V30.9531H83.3555V35.0296L85.9366 30.9531H86.4497V35.956H85.9081ZM84.6322 30.6404C84.0398 30.6404 83.6338 30.3808 83.591 29.7547H84.047C84.0755 30.0994 84.2849 30.2745 84.6322 30.2745C84.9795 30.2745 85.1873 30.0994 85.2166 29.7547H85.6733C85.6305 30.3769 85.2237 30.6404 84.6322 30.6404Z" fill="#322E28"/>
<path d="M3.76215 9.0942C3.76197 9.32528 3.70011 9.55222 3.58282 9.75216L7.13948 11.7796C7.25626 11.5794 7.4244 11.4131 7.62696 11.2975C7.82952 11.1818 8.05935 11.121 8.29331 11.121C8.52727 11.121 8.7571 11.1818 8.95966 11.2975C9.16222 11.4131 9.33035 11.5794 9.44714 11.7796L13.0038 9.75061C12.8861 9.55082 12.8241 9.3238 12.8241 9.09265C12.8241 8.8615 12.8861 8.63448 13.0038 8.4347L12.06 7.89481C11.9014 8.16175 11.7977 8.45696 11.7548 8.76354C11.7118 9.07012 11.7306 9.38205 11.8099 9.68147L9.98905 10.7255C9.53682 10.2878 8.92886 10.0426 8.29567 10.0426C7.66247 10.0426 7.05451 10.2878 6.60228 10.7255L4.77991 9.68303C4.88387 9.29509 4.88387 8.88711 4.77991 8.49917L6.59835 7.46291C6.86242 7.71878 7.18234 7.9115 7.53354 8.02628C7.88475 8.14106 8.25792 8.17484 8.6244 8.12504C8.99088 8.07524 9.34094 7.94318 9.64772 7.73899C9.95449 7.5348 10.2098 7.26391 10.3941 6.94711L9.45028 6.40723C9.3335 6.60745 9.16536 6.77375 8.9628 6.88938C8.76024 7.00502 8.53041 7.0659 8.29645 7.0659C8.06249 7.0659 7.83266 7.00502 7.6301 6.88938C7.42754 6.77375 7.25941 6.60745 7.14262 6.40723L3.58203 8.43547C3.70016 8.63539 3.76232 8.86274 3.76215 9.0942Z" fill="#322E28"/>
<path d="M12.055 3.59994L12.9988 3.06006C13.1156 3.26063 13.2839 3.42725 13.4867 3.54311C13.6894 3.65897 13.9196 3.71997 14.1538 3.71997C14.3881 3.71997 14.6182 3.65897 14.821 3.54311C15.0238 3.42725 15.1921 3.26063 15.3088 3.06006L16.2527 3.59994C15.9353 4.14125 15.4171 4.53935 14.8078 4.71V6.78408C15.4166 6.95452 15.9344 7.35202 16.2519 7.89258L15.3081 8.43246C15.1913 8.23224 15.0231 8.06594 14.8206 7.9503C14.618 7.83467 14.3882 7.77379 14.1542 7.77379C13.9203 7.77379 13.6904 7.83467 13.4879 7.9503C13.2853 8.06594 13.1172 8.23224 13.0004 8.43246L12.0566 7.89258C12.3737 7.35188 12.8912 6.95411 13.4998 6.7833V4.70922C12.8909 4.5384 12.3728 4.14068 12.055 3.59994ZM17.9209 4.54765C17.7061 4.91133 17.5929 5.32482 17.5929 5.74587C17.5929 6.16692 17.7061 6.58042 17.9209 6.9441L18.8647 6.40422C18.747 6.20429 18.685 5.97714 18.685 5.74587C18.685 5.5146 18.747 5.28746 18.8647 5.08753L17.9209 4.54765ZM9.62464 5.74704C9.6248 5.97816 9.56292 6.20518 9.44531 6.40499L10.3891 6.9441C10.6038 6.58051 10.7169 6.16716 10.7169 5.74626C10.7169 5.32536 10.6038 4.91201 10.3891 4.54842L9.44531 5.09219C9.56239 5.29108 9.62424 5.51697 9.62464 5.74704Z" fill="#322E28"/>
<path d="M17.5913 12.4332C17.5918 12.0132 17.7046 11.6007 17.9185 11.2377L18.8624 11.7776C18.745 11.9774 18.6831 12.2044 18.6831 12.4355C18.6831 12.6666 18.745 12.8936 18.8624 13.0935L17.9185 13.6334C17.7036 13.2691 17.5906 12.8548 17.5913 12.4332ZM14.1558 10.408C13.9218 10.4081 13.692 10.3473 13.4894 10.2316C13.2868 10.116 13.1187 9.9496 13.002 9.74931L9.44531 11.7783C9.56294 11.9783 9.6249 12.2054 9.6249 12.4367C9.6249 12.6679 9.56294 12.8951 9.44531 13.095L10.3891 13.6349C10.709 13.0956 10.799 12.453 10.6393 11.8482L12.4593 10.8104C12.7497 11.0895 13.106 11.2927 13.4959 11.4016V15.4091L14.1542 15.7843L14.8118 15.4091V11.3977C15.4206 11.2271 15.9385 10.8293 16.2558 10.2884L15.312 9.74854C15.1951 9.94926 15.0267 10.1159 14.8236 10.2318C14.6206 10.3476 14.3902 10.4084 14.1558 10.408Z" fill="#322E28"/>
<path d="M0.324245 14.584L1.26807 15.1238C1.3847 14.9231 1.55291 14.7563 1.75571 14.6402C1.95851 14.5242 2.18872 14.4631 2.42308 14.4631C2.65745 14.4631 2.88766 14.5242 3.09046 14.6402C3.29326 14.7563 3.46147 14.9231 3.57809 15.1238L4.52192 14.584C4.20471 14.0424 3.68652 13.644 3.07708 13.4731V11.3998C3.46859 11.2913 3.82616 11.0872 4.11686 10.8063L5.9353 11.8442C5.85578 12.1442 5.83693 12.4568 5.87985 12.764C5.92277 13.0713 6.02661 13.3671 6.18542 13.6347L7.12925 13.0909C7.01161 12.8911 6.94964 12.6641 6.94964 12.433C6.94964 12.2018 7.01161 11.9748 7.12925 11.775L3.57259 9.74756C3.45586 9.94797 3.2877 10.1144 3.08506 10.2302C2.88242 10.346 2.65246 10.4069 2.41836 10.4069C2.18427 10.4069 1.95431 10.346 1.75167 10.2302C1.54903 10.1144 1.38087 9.94797 1.26414 9.74756L0.320313 10.2874C0.638139 10.8304 1.15792 11.2295 1.76909 11.3998V13.4739C1.15978 13.6445 0.641608 14.0427 0.324245 14.584Z" fill="#322E28"/>
<path d="M4.85463 15.7814C4.8545 16.2029 4.74104 16.6168 4.52586 16.9808L3.58203 16.4409C3.69974 16.241 3.76174 16.0139 3.76174 15.7826C3.76174 15.5513 3.69974 15.3242 3.58203 15.1242L4.52586 14.5844C4.74088 14.9476 4.85434 15.3607 4.85463 15.7814ZM8.29016 17.8081C8.52434 17.8081 8.75439 17.869 8.9571 17.9848C9.15982 18.1006 9.32803 18.2671 9.44478 18.4676L14.1553 15.7814L13.4969 15.4062L9.98669 17.4104C9.72233 17.1548 9.40221 16.9624 9.05089 16.8479C8.69956 16.7335 8.32636 16.7 7.95991 16.7501C7.59346 16.8002 7.2435 16.9325 6.93686 17.1369C6.63022 17.3413 6.37505 17.6124 6.19093 17.9293L7.13476 18.4692C7.25137 18.2683 7.41962 18.1013 7.6225 17.9853C7.82538 17.8692 8.0557 17.8081 8.29016 17.8081ZM8.29016 14.836C8.71622 14.8354 9.13462 14.7241 9.50336 14.5134C9.8721 14.3026 10.1782 13.9997 10.391 13.6351L9.44714 13.0952C9.33035 13.2954 9.16222 13.4617 8.95966 13.5774C8.7571 13.693 8.52727 13.7539 8.29331 13.7539C8.05935 13.7539 7.82951 13.693 7.62696 13.5774C7.4244 13.4617 7.25626 13.2954 7.13948 13.0952L6.19565 13.639C6.4083 14.002 6.71362 14.3035 7.08115 14.5136C7.44867 14.7236 7.86554 14.8348 8.29016 14.836Z" fill="#322E28"/>
<path d="M1.09307 15.7803C1.09298 15.5498 1.15458 15.3233 1.27161 15.1239L0.32778 14.584C0.113109 14.9477 0 15.3612 0 15.7822C0 16.2032 0.113109 16.6167 0.32778 16.9804L1.27161 16.4367C1.1544 16.2373 1.0928 16.0108 1.09307 15.7803Z" fill="#322E28"/>
<path d="M7.13942 19.7837L3.58355 21.8119C3.46703 21.6108 3.29877 21.4436 3.09581 21.3274C2.89284 21.2111 2.66238 21.1499 2.42775 21.1499C2.19312 21.1499 1.96265 21.2111 1.75969 21.3274C1.55673 21.4436 1.38847 21.6108 1.27195 21.8119L0.328125 21.2721C0.51198 20.9548 0.767023 20.6834 1.07366 20.4786C1.3803 20.2739 1.73038 20.1413 2.09699 20.0911C2.46361 20.0408 2.83702 20.0742 3.18852 20.1887C3.54003 20.3032 3.86028 20.4958 4.12467 20.7516L5.94469 19.7146C5.78563 19.1099 5.87526 18.4676 6.19402 17.9279L7.13785 18.4678C7.02022 18.6677 6.95826 18.8949 6.95826 19.1261C6.95826 19.3574 7.02022 19.5845 7.13785 19.7845L7.13942 19.7837ZM2.42814 18.1804C2.85387 18.18 3.27201 18.0691 3.64061 17.8587C4.00921 17.6483 4.3153 17.3459 4.52816 16.9818L3.58433 16.438C3.4676 16.638 3.29957 16.8042 3.09715 16.9197C2.89474 17.0353 2.66508 17.0961 2.43129 17.0961C2.1975 17.0961 1.96784 17.0353 1.76542 16.9197C1.56301 16.8042 1.39497 16.638 1.27825 16.438L0.334417 16.9779C0.546308 17.3418 0.851205 17.6443 1.21863 17.8554C1.58605 18.0664 2.00312 18.1785 2.42814 18.1804Z" fill="#322E28"/>
<path d="M26.5446 13.4728V11.3988C27.1537 11.2278 27.6716 10.8294 27.9886 10.2879L27.0448 9.74805C26.9282 9.94882 26.76 10.1156 26.5572 10.2316C26.3544 10.3477 26.1241 10.4087 25.8898 10.4087C25.6554 10.4087 25.4252 10.3477 25.2224 10.2316C25.0196 10.1156 24.8514 9.94882 24.7348 9.74805L21.1797 11.7763C21.2973 11.9762 21.3593 12.2034 21.3593 12.4346C21.3593 12.6659 21.2973 12.893 21.1797 13.093L22.1235 13.6329C22.283 13.3655 22.3873 13.0697 22.4305 12.7624C22.4737 12.4551 22.4549 12.1424 22.3752 11.8423L24.1921 10.803C24.4827 11.0833 24.84 11.287 25.2311 11.3957V13.4705C24.6222 13.6411 24.1043 14.0389 23.787 14.5798L24.7308 15.1197C24.8476 14.9193 25.0157 14.7528 25.2184 14.637C25.421 14.5213 25.651 14.4603 25.8851 14.4603C26.1192 14.4603 26.3491 14.5213 26.5518 14.637C26.7544 14.7528 26.9226 14.9193 27.0393 15.1197L27.9831 14.5798C27.6666 14.0409 27.151 13.6442 26.5446 13.4728Z" fill="#322E28"/>
<path d="M27.2145 15.78C27.2143 16.011 27.1525 16.238 27.0352 16.4379L27.979 16.9778C28.1938 16.614 28.307 16.2003 28.307 15.7792C28.307 15.358 28.1938 14.9444 27.979 14.5806L27.0352 15.1204C27.1527 15.3209 27.2145 15.5484 27.2145 15.78Z" fill="#322E28"/>
<path d="M24.7311 16.4343L23.7872 16.9742C23.5724 16.6105 23.4592 16.197 23.4592 15.7759C23.4592 15.3549 23.5724 14.9414 23.7872 14.5777L24.7311 15.1176C24.6134 15.3175 24.5513 15.5447 24.5513 15.7759C24.5513 16.0072 24.6134 16.2344 24.7311 16.4343ZM18.3248 17.4022L14.8114 15.4011L14.1562 15.7779L18.866 18.4633C18.9825 18.2625 19.1506 18.0957 19.3533 17.9796C19.5561 17.8636 19.7862 17.8025 20.0206 17.8025C20.2549 17.8025 20.4851 17.8636 20.6878 17.9796C20.8905 18.0957 21.0587 18.2625 21.1752 18.4633L22.119 17.9234C21.802 17.382 21.2841 16.9836 20.675 16.8126V14.737C21.283 14.5663 21.8002 14.1692 22.1174 13.6292L21.1736 13.0894C21.0567 13.2892 20.8886 13.4552 20.6862 13.5706C20.4838 13.6859 20.2543 13.7467 20.0206 13.7467C19.7869 13.7467 19.5573 13.6859 19.3549 13.5706C19.1525 13.4552 18.9844 13.2892 18.8675 13.0894L17.9237 13.6292C18.241 14.1692 18.7581 14.5663 19.3662 14.737V16.8126C18.9747 16.9204 18.6168 17.123 18.3248 17.4022Z" fill="#322E28"/>
<path d="M27.9855 21.2713L27.0417 21.8112C26.9249 21.6108 26.7568 21.4443 26.5541 21.3285C26.3515 21.2128 26.1215 21.1518 25.8874 21.1518C25.6534 21.1518 25.4234 21.2128 25.2208 21.3285C25.0181 21.4443 24.85 21.6108 24.7332 21.8112L21.1758 19.7829C21.2934 19.583 21.3554 19.3558 21.3554 19.1246C21.3554 18.8933 21.2934 18.6662 21.1758 18.4662L22.1196 17.9264C22.2784 18.1932 22.3822 18.4884 22.4251 18.795C22.4681 19.1016 22.4492 19.4136 22.3697 19.713L24.1913 20.7516C24.4556 20.4965 24.7755 20.3044 25.1265 20.1903C25.4775 20.0761 25.8503 20.0428 26.2164 20.0928C26.5825 20.1429 26.9321 20.2751 27.2385 20.4792C27.5448 20.6834 27.7998 20.954 27.9839 21.2705L27.9855 21.2713ZM25.8847 18.1773C26.3106 18.1769 26.7289 18.0659 27.0977 17.8554C27.4664 17.6448 27.7726 17.3422 27.9855 16.9779L27.0417 16.438C26.9248 16.6382 26.7566 16.8045 26.5539 16.9201C26.3513 17.0357 26.1215 17.0966 25.8874 17.0966C25.6534 17.0966 25.4236 17.0357 25.221 16.9201C25.0183 16.8045 24.8501 16.6382 24.7332 16.438L23.7894 16.9779C24.0017 17.3417 24.3071 17.6441 24.675 17.8547C25.0428 18.0654 25.4603 18.1769 25.8855 18.178L25.8847 18.1773Z" fill="#322E28"/>
<path d="M14.155 20.0716C13.522 20.0715 12.914 20.3163 12.4616 20.7537L10.6408 19.7159C10.7447 19.3282 10.7447 18.9205 10.6408 18.5328L14.155 16.5279L17.6684 18.5297C17.5888 18.8299 17.57 19.1427 17.6132 19.4502C17.6564 19.7576 17.7607 20.0535 17.9201 20.321L18.8639 19.7811C18.7462 19.5812 18.6842 19.354 18.6842 19.1228C18.6842 18.8915 18.7462 18.6644 18.8639 18.4644L14.155 15.7798L9.44531 18.4668C9.56294 18.6667 9.6249 18.8939 9.6249 19.1251C9.6249 19.3564 9.56294 19.5835 9.44531 19.7835L13.0028 21.8117C13.1195 21.6113 13.2877 21.4448 13.4903 21.3291C13.6929 21.2133 13.9229 21.1524 14.157 21.1524C14.3911 21.1524 14.621 21.2133 14.8237 21.3291C15.0263 21.4448 15.1945 21.6113 15.3112 21.8117L16.255 21.2679C16.0418 20.9043 15.7356 20.6024 15.367 20.3924C14.9985 20.1825 14.5805 20.0718 14.155 20.0716Z" fill="#322E28"/>
<path d="M22.1199 24.6167L21.1761 25.1605C21.0595 24.9597 20.8914 24.7928 20.6887 24.6768C20.4859 24.5608 20.2558 24.4997 20.0214 24.4997C19.7871 24.4997 19.557 24.5608 19.3542 24.6768C19.1515 24.7928 18.9833 24.9597 18.8668 25.1605L17.923 24.6206C18.1353 24.2556 18.4414 23.9523 18.8103 23.7414C19.1792 23.5305 19.5979 23.4195 20.0242 23.4195C20.4504 23.4195 20.8692 23.5305 21.2381 23.7414C21.607 23.9523 21.9131 24.2556 22.1254 24.6206L22.1199 24.6167ZM24.5495 22.4696C24.5492 22.2387 24.6111 22.0119 24.7288 21.8124L21.1713 19.7842C21.0544 19.984 20.8864 20.15 20.684 20.2654C20.4816 20.3808 20.252 20.4415 20.0183 20.4415C19.7846 20.4415 19.555 20.3808 19.3526 20.2654C19.1502 20.15 18.9821 19.984 18.8653 19.7842L17.9214 20.3241C18.1058 20.6405 18.3612 20.9111 18.6678 21.115C18.9745 21.319 19.3244 21.4509 19.6906 21.5006C20.0569 21.5503 20.4298 21.5165 20.7808 21.4019C21.1318 21.2872 21.4516 21.0947 21.7156 20.8391L23.5348 21.8769C23.4553 22.1772 23.4365 22.49 23.4794 22.7975C23.5223 23.105 23.6261 23.4011 23.785 23.669L24.7288 23.1252C24.6122 22.9259 24.5506 22.6998 24.5502 22.4696H24.5495ZM15.4879 22.4696C15.488 22.7007 15.4262 22.9277 15.3086 23.1276L16.2524 23.6674C16.4678 23.3038 16.5813 22.8901 16.5813 22.4688C16.5813 22.0475 16.4678 21.6339 16.2524 21.2702L15.3086 21.814C15.4276 22.0134 15.4909 22.2404 15.4919 22.4719L15.4879 22.4696Z" fill="#322E28"/>
<path d="M8.28988 23.4136C7.86329 23.414 7.44435 23.5254 7.07526 23.7367C6.70617 23.9479 6.39996 24.2515 6.1875 24.6169L7.13133 25.1567C7.24784 24.9556 7.4161 24.7884 7.61907 24.6722C7.82203 24.5559 8.05249 24.4947 8.28712 24.4947C8.52175 24.4947 8.75222 24.5559 8.95518 24.6722C9.15815 24.7884 9.32641 24.9556 9.44292 25.1567L10.3867 24.6169C10.1746 24.2524 9.86927 23.9494 9.50125 23.7382C9.13324 23.5271 8.7155 23.4151 8.28988 23.4136Z" fill="#322E28"/>
<path d="M4.52507 23.6698C4.74056 23.3053 4.85427 22.8909 4.85463 22.4688C4.85318 22.2693 4.82676 22.0708 4.77597 21.8777L6.59678 20.8399C7.04927 21.2777 7.65749 21.5229 8.29095 21.5229C8.9244 21.5229 9.53262 21.2777 9.98512 20.8399L11.8051 21.8769C11.7255 22.1771 11.7067 22.4898 11.7496 22.7972C11.7925 23.1045 11.8964 23.4005 12.0552 23.6682L12.9991 23.1283C12.8814 22.9284 12.8194 22.7013 12.8194 22.47C12.8194 22.2387 12.8814 22.0116 12.9991 21.8116L9.44399 19.7842C9.3271 19.984 9.15901 20.15 8.95662 20.2654C8.75422 20.3808 8.52464 20.4415 8.29095 20.4415C8.05725 20.4415 7.82768 20.3808 7.62528 20.2654C7.42288 20.15 7.25479 19.984 7.1379 19.7842L3.58203 21.8132C3.69974 22.0131 3.76174 22.2403 3.76174 22.4715C3.76174 22.7028 3.69974 22.93 3.58203 23.1299L4.52507 23.6698Z" fill="#322E28"/>
<path d="M17.9175 6.9432L18.8613 6.40332C18.9781 6.60389 19.1463 6.77051 19.3491 6.88637C19.5519 7.00223 19.782 7.06323 20.0163 7.06323C20.2506 7.06323 20.4807 7.00223 20.6835 6.88637C20.8863 6.77051 21.0545 6.60389 21.1713 6.40332L24.7272 8.43079C24.6095 8.63057 24.5475 8.85759 24.5475 9.08874C24.5475 9.31989 24.6095 9.54692 24.7272 9.7467L21.1721 11.7749C21.0555 11.5742 20.8873 11.4074 20.6845 11.2913C20.4817 11.1753 20.2515 11.1142 20.0171 11.1142C19.7827 11.1142 19.5525 11.1753 19.3497 11.2913C19.1469 11.4074 18.9787 11.5742 18.8621 11.7749L17.9183 11.2358C18.1022 10.9188 18.3573 10.6475 18.6639 10.443C18.9705 10.2384 19.3205 10.1059 19.687 10.0558C20.0535 10.0056 20.4267 10.039 20.7781 10.1535C21.1295 10.268 21.4497 10.4605 21.714 10.7162L23.5332 9.67912C23.4821 9.48662 23.4557 9.28853 23.4546 9.08952C23.4557 8.88949 23.4821 8.69037 23.5332 8.49682L21.7148 7.46133C21.4506 7.71744 21.1305 7.91032 20.7791 8.02516C20.4276 8.13999 20.0542 8.17373 19.6875 8.12376C19.3208 8.0738 18.9705 7.94148 18.6637 7.73696C18.3569 7.53244 18.1016 7.26116 17.9175 6.94398V6.9432ZM15.4918 9.09263C15.4916 9.3237 15.4298 9.55063 15.3125 9.75058L16.2563 10.2905C16.4712 9.92679 16.5844 9.51329 16.5844 9.09224C16.5844 8.67119 16.4712 8.25769 16.2563 7.89401L15.3125 8.4339C15.4302 8.63395 15.4921 8.86125 15.4918 9.09263Z" fill="#322E28"/>
<path d="M6.19141 4.55099C6.4038 4.18614 6.70984 3.88306 7.07868 3.6723C7.44751 3.46155 7.8661 3.35057 8.29221 3.35057C8.71833 3.35057 9.13691 3.46155 9.50574 3.6723C9.87458 3.88306 10.1806 4.18614 10.393 4.55099L9.44919 5.09476C9.33256 4.89433 9.16448 4.72783 8.96191 4.61205C8.75933 4.49627 8.52941 4.4353 8.29536 4.4353C8.0613 4.4353 7.83139 4.49627 7.62881 4.61205C7.42623 4.72783 7.25815 4.89433 7.14153 5.09476L6.19141 4.55099ZM12.0565 1.20605C11.8413 1.56946 11.7278 1.98288 11.7278 2.40389C11.7278 2.8249 11.8413 3.23833 12.0565 3.60173L13.0003 3.06185C12.8826 2.86192 12.8206 2.63477 12.8206 2.4035C12.8206 2.17223 12.8826 1.94509 13.0003 1.74516L12.0565 1.20605Z" fill="#322E28"/>
<path d="M13.004 1.74342C13.1208 1.54337 13.2888 1.37721 13.4912 1.26168C13.6936 1.14615 13.9233 1.08532 14.1571 1.08532C14.3909 1.08532 14.6205 1.14615 14.8229 1.26168C15.0253 1.37721 15.1934 1.54337 15.3101 1.74342L16.2539 1.19966C16.0415 0.83516 15.7356 0.532393 15.367 0.321865C14.9984 0.111337 14.5801 0.000488281 14.1543 0.000488281C13.7285 0.000488281 13.3102 0.111337 12.9416 0.321865C12.573 0.532393 12.2671 0.83516 12.0547 1.19966L13.004 1.74342Z" fill="#322E28"/>
<path d="M1.27041 8.43296C1.38714 8.23255 1.5553 8.06608 1.75794 7.95032C1.96058 7.83456 2.19054 7.77361 2.42463 7.77361C2.65872 7.77361 2.88868 7.83456 3.09132 7.95032C3.29396 8.06608 3.46212 8.23255 3.57885 8.43296L7.13551 6.40393C7.01788 6.20398 6.95592 5.97684 6.95592 5.74559C6.95592 5.51434 7.01788 5.2872 7.13551 5.08724L6.19168 4.54736C5.87225 5.08677 5.78231 5.72924 5.94157 6.33402L4.11605 7.37417C3.85172 7.11921 3.53182 6.92737 3.18085 6.81334C2.82988 6.6993 2.45715 6.66609 2.09118 6.71625C1.72522 6.7664 1.37572 6.8986 1.06946 7.10271C0.763192 7.30682 0.508274 7.57744 0.324219 7.89385L1.27041 8.43296Z" fill="#322E28"/>
<path d="M1.09251 9.09286C1.09269 8.86178 1.15454 8.63484 1.27184 8.4349L0.328009 7.89502C0.11319 8.25884 0 8.67247 0 9.09363C0 9.5148 0.11319 9.92842 0.328009 10.2922L1.27184 9.74848C1.15494 9.54923 1.0931 9.32314 1.09251 9.09286Z" fill="#322E28"/>
<path d="M25.8855 6.69C25.2523 6.68973 24.6442 6.93491 24.1921 7.37281L22.3713 6.335C22.4507 6.03551 22.4693 5.72347 22.4261 5.41685C22.3829 5.11022 22.2787 4.81506 22.1196 4.54834L21.1758 5.08822C21.2932 5.28825 21.355 5.51536 21.355 5.74657C21.355 5.97777 21.2932 6.20488 21.1758 6.40491L24.7317 8.43238C24.8485 8.23234 25.0166 8.06621 25.2191 7.9507C25.4216 7.83519 25.6513 7.77438 25.8851 7.77438C26.1189 7.77438 26.3486 7.83519 26.5511 7.9507C26.7536 8.06621 26.9217 8.23234 27.0385 8.43238L27.9824 7.8925C27.7702 7.52815 27.4648 7.22527 27.0968 7.01422C26.7288 6.80317 26.311 6.69136 25.8855 6.69Z" fill="#322E28"/>
<path d="M27.2176 9.09246C27.2179 9.32325 27.1563 9.55 27.0391 9.74964L27.9829 10.2895C28.1977 9.92584 28.3109 9.51234 28.3109 9.09129C28.3109 8.67024 28.1977 8.25675 27.9829 7.89307L27.0391 8.43295C27.1567 8.63326 27.2184 8.86087 27.2176 9.09246Z" fill="#322E28"/>
<path d="M22.1214 4.54435L21.1776 5.08424C21.0607 4.88438 20.8926 4.71842 20.6902 4.60304C20.4878 4.48765 20.2582 4.42691 20.0245 4.42691C19.7908 4.42691 19.5613 4.48765 19.3589 4.60304C19.1565 4.71842 18.9884 4.88438 18.8715 5.08424L17.9277 4.54435C18.1401 4.17986 18.446 3.87709 18.8146 3.66656C19.1832 3.45603 19.6015 3.34518 20.0273 3.34518C20.4531 3.34518 20.8714 3.45603 21.24 3.66656C21.6086 3.87709 21.9145 4.17986 22.1269 4.54435H22.1214ZM15.4949 2.40036C15.495 2.63087 15.4334 2.85731 15.3164 3.05677L16.2602 3.59665C16.4751 3.23297 16.5883 2.81947 16.5883 2.39842C16.5883 1.97737 16.4751 1.56388 16.2602 1.2002L15.3164 1.74396C15.4336 1.94335 15.4952 2.16983 15.4949 2.40036Z" fill="#322E28"/>
<path d="M21.1758 26.4714C21.2934 26.2716 21.3554 26.0446 21.3554 25.8134C21.3554 25.5823 21.2934 25.3553 21.1758 25.1555L22.1196 24.6117C22.3349 24.9754 22.4484 25.3891 22.4484 25.8103C22.4484 26.2316 22.3349 26.6453 22.1196 27.009L21.1758 26.4714ZM27.9879 23.6663L27.044 23.1265C26.9273 23.3269 26.7591 23.4933 26.5565 23.6091C26.3539 23.7249 26.1239 23.7858 25.8898 23.7858C25.6557 23.7858 25.4258 23.7249 25.2231 23.6091C25.0205 23.4933 24.8523 23.3269 24.7356 23.1265L23.7918 23.6702C24.0042 24.0349 24.3102 24.3378 24.679 24.5484C25.0477 24.7591 25.4662 24.87 25.8922 24.87C26.3182 24.87 26.7366 24.7591 27.1054 24.5484C27.4741 24.3378 27.7801 24.0349 27.9926 23.6702L27.9879 23.6663Z" fill="#322E28"/>
<path d="M27.2145 22.4677C27.2143 22.6987 27.1525 22.9257 27.0352 23.1256L27.979 23.6655C28.1938 23.3018 28.307 22.8883 28.307 22.4673C28.307 22.0462 28.1938 21.6327 27.979 21.269L27.0352 21.8089C27.1529 22.009 27.2147 22.2363 27.2145 22.4677Z" fill="#322E28"/>
<path d="M0.325818 23.6703L1.26965 23.1304C1.38664 23.3299 1.55468 23.4955 1.75691 23.6106C1.95915 23.7257 2.18848 23.7864 2.4219 23.7864C2.65533 23.7864 2.88466 23.7257 3.08689 23.6106C3.28913 23.4955 3.45717 23.3299 3.57416 23.1304L4.51799 23.6703C4.30533 24.0342 3.99941 24.3364 3.63098 24.5465C3.26255 24.7567 2.8446 24.8673 2.41915 24.8673C1.9937 24.8673 1.57575 24.7567 1.20732 24.5465C0.838894 24.3364 0.53297 24.0342 0.320312 23.6703H0.325818ZM6.95621 25.8135C6.95586 25.5834 7.0169 25.3572 7.13318 25.1578L6.18935 24.618C5.97476 24.9817 5.86169 25.3952 5.86169 25.8162C5.86169 26.2372 5.97476 26.6507 6.18935 27.0144L7.13318 26.4706C7.01625 26.2709 6.95493 26.0442 6.95542 25.8135H6.95621Z" fill="#322E28"/>
<path d="M1.09373 22.467C1.09336 22.2368 1.15469 22.0106 1.27148 21.8114L0.327656 21.2715C0.113063 21.6352 0 22.0487 0 22.4697C0 22.8907 0.113063 23.3042 0.327656 23.6679L1.27148 23.1281C1.15403 22.9271 1.09269 22.699 1.09373 22.467Z" fill="#322E28"/>
<path d="M27.7002 35.4121H14.8146V29.5309L18.3256 27.5275C18.5897 27.7829 18.9094 27.9752 19.2604 28.0897C19.6113 28.2043 19.9842 28.2379 20.3503 28.1881C20.7165 28.1383 21.0663 28.0064 21.3728 27.8025C21.6794 27.5986 21.9346 27.3281 22.119 27.0117L21.1752 26.4679C21.0884 26.6188 20.9722 26.7513 20.8333 26.8577C20.6944 26.9641 20.5356 27.0422 20.366 27.0878C20.1964 27.1333 20.0194 27.1452 19.8451 27.1228C19.6708 27.1004 19.5027 27.0443 19.3505 26.9575C19.1983 26.8707 19.065 26.755 18.9583 26.6171C18.8515 26.4792 18.7735 26.3218 18.7286 26.154C18.6837 25.9862 18.6728 25.8113 18.6967 25.6393C18.7205 25.4673 18.7786 25.3017 18.8675 25.152L17.9237 24.6121C17.7653 24.8791 17.6617 25.1744 17.6189 25.4809C17.5762 25.7875 17.595 26.0994 17.6744 26.3988L14.8177 28.0301V24.7768C15.4262 24.6062 15.9437 24.2087 16.261 23.6683L15.3171 23.1284C15.2004 23.3288 15.0323 23.4953 14.8296 23.6111C14.627 23.7268 14.397 23.7878 14.1629 23.7878C13.9288 23.7878 13.6989 23.7268 13.4962 23.6111C13.2936 23.4953 13.1254 23.3288 13.0087 23.1284L12.0649 23.6683C12.3824 24.2089 12.9002 24.6064 13.5089 24.7768V28.0316L10.6523 26.4003C10.7031 26.2078 10.7295 26.0097 10.7309 25.8107C10.7308 25.3908 10.6182 24.9783 10.4045 24.6152L9.46069 25.1551C9.63748 25.4573 9.68546 25.8166 9.59408 26.1537C9.50271 26.4909 9.27946 26.7784 8.97344 26.953C8.66743 27.1276 8.30372 27.175 7.96232 27.0848C7.62093 26.9945 7.32982 26.774 7.15303 26.4718L6.2092 27.0156C6.39435 27.3292 6.64937 27.5971 6.95492 27.7989C7.26047 28.0008 7.60853 28.1313 7.97273 28.1806C8.33693 28.2298 8.7077 28.1965 9.05695 28.0832C9.40619 27.97 9.72474 27.7796 9.98845 27.5267L13.5011 29.5309V35.4121H0.613875C0.497685 35.4121 0.386254 35.4577 0.304096 35.5388C0.221937 35.62 0.175781 35.73 0.175781 35.8448C0.175781 35.9595 0.221937 36.0696 0.304096 36.1507C0.386254 36.2319 0.497685 36.2774 0.613875 36.2774H13.4767C13.3917 36.7925 13.1344 37.2645 12.746 37.6182C11.9131 38.3896 10.432 38.7298 8.46259 38.6024C7.65785 38.5416 6.8485 38.5868 6.05583 38.7368C6.01537 38.7372 5.97535 38.7451 5.93785 38.7601L5.92763 38.7648C3.67188 39.2658 2.78153 40.6788 2.61794 41.632C2.60383 41.7167 2.6243 41.8036 2.67486 41.8734C2.72542 41.9433 2.80196 41.9906 2.88771 42.0048C2.90591 42.0079 2.92432 42.0094 2.94277 42.0095C3.02039 42.0093 3.09541 41.9819 3.15458 41.9323C3.21374 41.8827 3.25322 41.814 3.26603 41.7384C3.27862 41.6677 3.47682 40.6043 4.74076 39.8834C4.62986 40.1941 4.60076 40.5359 4.57245 40.8824C4.53233 41.3787 4.48593 41.9412 4.18312 42.5556C4.16172 42.5942 4.14848 42.6366 4.14419 42.6804C4.13991 42.7242 4.14467 42.7684 4.15819 42.8103C4.17171 42.8522 4.19371 42.8909 4.22285 42.9242C4.252 42.9574 4.28767 42.9845 4.32772 43.0037C4.36777 43.0229 4.41135 43.0339 4.45583 43.036C4.50031 43.0381 4.54475 43.0312 4.58646 43.0158C4.62818 43.0004 4.66629 42.9768 4.69849 42.9465C4.73069 42.9161 4.75631 42.8796 4.7738 42.8391C5.13088 42.1152 5.18358 41.4603 5.22684 40.9344C5.29133 40.1483 5.32672 39.7133 6.16594 39.3684C6.48853 39.3046 6.81519 39.2628 7.14359 39.2433C6.7637 39.7039 6.67954 40.3401 6.59303 40.9997C6.47033 41.9505 6.31774 43.1328 5.29684 44.3275C5.26885 44.3604 5.24769 44.3984 5.23458 44.4394C5.22146 44.4804 5.21665 44.5235 5.22041 44.5663C5.22417 44.6091 5.23643 44.6508 5.2565 44.6889C5.27656 44.727 5.30403 44.7609 5.33734 44.7885C5.37065 44.8162 5.40915 44.8371 5.45064 44.85C5.49212 44.863 5.53579 44.8677 5.57913 44.864C5.62248 44.8603 5.66466 44.8482 5.70327 44.8284C5.74188 44.8086 5.77615 44.7814 5.80414 44.7485C6.9509 43.4085 7.11764 42.1198 7.25056 41.0843C7.39764 39.9455 7.50618 39.4297 8.46574 39.2542C10.6279 39.3855 12.219 38.997 13.1959 38.0928C13.2965 37.9977 13.3909 37.8963 13.4783 37.7891C13.2093 38.5605 12.6571 39.4367 11.5222 40.3813C10.9407 40.858 10.3168 41.2818 9.65811 41.6475C8.64035 42.2418 7.90495 42.6713 7.6391 44.1597C7.62401 44.2445 7.64362 44.3317 7.69362 44.4022C7.74362 44.4727 7.81991 44.5207 7.90573 44.5357C7.92464 44.5394 7.94388 44.5412 7.96315 44.5411C8.04033 44.541 8.11498 44.5139 8.17396 44.4648C8.23294 44.4156 8.27248 44.3475 8.28563 44.2724C8.49877 43.0776 9.02968 42.7685 9.9916 42.206L10.27 42.0429C10.0537 42.5486 9.9444 43.0528 9.84216 43.5188C9.6062 44.6064 9.40485 45.5385 8.1118 46.3791C8.05228 46.4171 8.00685 46.4732 7.98233 46.539C7.95782 46.6047 7.95553 46.6765 7.97582 46.7436C7.99611 46.8107 8.03788 46.8695 8.09487 46.9112C8.15186 46.9529 8.221 46.9753 8.29192 46.9749C8.35558 46.9746 8.41782 46.9562 8.47124 46.922C9.99395 45.9363 10.2449 44.7757 10.4879 43.6548C10.5154 43.5258 10.5429 43.3992 10.5728 43.2718C10.642 43.6159 10.7427 43.9546 10.8403 44.2817C11.0565 45.0049 11.2799 45.7529 11.1549 46.4567C11.1398 46.5415 11.1594 46.6287 11.2094 46.6992C11.2594 46.7697 11.3357 46.8177 11.4215 46.8327C11.4405 46.8358 11.4597 46.8373 11.4789 46.8374C11.5561 46.8374 11.6309 46.8106 11.69 46.7615C11.7491 46.7125 11.7888 46.6445 11.8022 46.5694C11.954 45.7149 11.7086 44.8922 11.471 44.096C11.1085 42.8819 10.7954 41.8332 11.95 40.8707C12.9175 40.0636 13.5018 39.2899 13.855 38.5807C13.9289 39.4297 14.0288 40.177 14.1311 40.849C14.367 42.3901 13.9738 42.8632 13.5286 43.4124C13.0834 43.9616 12.5698 44.5823 12.6634 46.1639C12.6684 46.2464 12.7052 46.324 12.7661 46.3808C12.8271 46.4375 12.9076 46.4691 12.9914 46.4692H13.0111C13.098 46.464 13.1793 46.4249 13.2372 46.3605C13.295 46.2961 13.3245 46.2117 13.3194 46.1258C13.2407 44.7959 13.6253 44.3221 14.0359 43.821C14.2004 43.6308 14.3493 43.428 14.4811 43.2143C14.6824 45.001 14.4976 46.3744 12.908 48.579C12.8575 48.649 12.8373 48.736 12.8518 48.8208C12.8662 48.9056 12.9142 48.9812 12.9851 49.0311C13.056 49.0809 13.1441 49.1009 13.2299 49.0866C13.3158 49.0724 13.3924 49.025 13.4429 48.955C15.6042 45.9549 15.3415 44.312 14.9066 41.5924C14.7619 40.6889 14.592 39.6465 14.4913 38.3756C14.8515 39.1175 15.3415 39.6736 15.8001 40.191C16.9578 41.4976 17.9575 42.6255 16.4883 46.3954C16.457 46.4756 16.4592 46.5649 16.4944 46.6435C16.5297 46.7221 16.5951 46.7838 16.6763 46.8148C16.714 46.829 16.7539 46.8364 16.7942 46.8366C16.8608 46.8366 16.9258 46.8167 16.9807 46.7796C17.0356 46.7424 17.0778 46.6897 17.1018 46.6284C17.8608 44.6817 17.9898 43.3441 17.79 42.3327C18.2414 42.9137 18.5372 43.7022 18.3775 45.1898C18.3728 45.2321 18.3766 45.2749 18.3887 45.3158C18.4008 45.3567 18.4209 45.3948 18.448 45.428C18.475 45.4612 18.5084 45.4888 18.5462 45.5093C18.5841 45.5297 18.6256 45.5425 18.6685 45.5471H18.7039C18.7849 45.547 18.863 45.5174 18.9232 45.4639C18.9835 45.4104 19.0216 45.3369 19.0303 45.2573C19.084 44.7972 19.0898 44.3328 19.0476 43.8715C19.4684 44.298 19.9285 44.6949 20.3116 44.9086C20.3876 44.9505 20.4773 44.9611 20.5611 44.938C20.645 44.9148 20.7162 44.8598 20.7591 44.785C20.7804 44.7479 20.794 44.707 20.7992 44.6647C20.8044 44.6224 20.8011 44.5795 20.7895 44.5384C20.7779 44.4973 20.7582 44.4589 20.7315 44.4254C20.7048 44.3919 20.6717 44.3639 20.634 44.343C19.9513 43.9632 18.8762 42.7894 18.5104 42.2185C18.5053 42.2103 18.4995 42.2025 18.4931 42.1952C18.2163 41.7671 17.8773 41.4479 17.5493 41.1465C17.3093 40.9341 17.0865 40.7035 16.8831 40.4567C16.88 40.4531 16.8765 40.4497 16.8729 40.4466C16.6857 40.2089 16.4875 39.9805 16.2901 39.7614C15.8127 39.2231 15.3266 38.6739 14.9994 37.9181C15.697 38.5209 16.7604 38.7454 17.9009 38.872H17.9119C19.5211 39.0468 19.7531 40.1926 20.0221 41.5209C20.1346 42.0748 20.251 42.6496 20.4822 43.1522C20.5185 43.2304 20.5848 43.2911 20.6664 43.3211C20.7481 43.351 20.8384 43.3477 20.9176 43.3118C20.9967 43.276 21.0583 43.2105 21.0886 43.1299C21.1189 43.0493 21.1155 42.96 21.0792 42.8819C20.8802 42.4515 20.7764 41.9388 20.6663 41.3966C20.6049 41.096 20.5412 40.7884 20.4594 40.4862C20.7363 40.6276 21.0242 40.7433 21.3105 40.8567C22.0639 41.1558 22.7144 41.4137 22.992 42.081C23.0168 42.1406 23.0589 42.1916 23.1131 42.2274C23.1674 42.2633 23.2312 42.2823 23.2964 42.2822C23.3388 42.2822 23.3808 42.274 23.4199 42.2581C23.5005 42.2254 23.5646 42.1624 23.5983 42.0831C23.6319 42.0037 23.6322 41.9144 23.5992 41.8347C23.217 40.9134 22.3715 40.5779 21.5543 40.2539C20.9015 39.9952 20.2856 39.7506 19.8916 39.2247C19.8428 39.1594 19.7901 39.0957 19.7343 39.0343C21.7957 39.22 23.7754 39.5711 24.3268 41.5776C24.3453 41.6462 24.3861 41.7068 24.4429 41.7502C24.4998 41.7936 24.5695 41.8173 24.6414 41.8176C24.6706 41.8175 24.6997 41.8135 24.7279 41.806C24.8118 41.7831 24.8832 41.7283 24.9263 41.6537C24.9695 41.579 24.981 41.4905 24.9584 41.4075C24.2277 38.7438 21.511 38.5247 19.1145 38.3305C16.655 38.1317 15.078 37.9126 14.8515 36.2728H27.7002C27.8164 36.2728 27.9278 36.2272 28.01 36.1461C28.0921 36.0649 28.1383 35.9549 28.1383 35.8401C28.1383 35.7253 28.0921 35.6153 28.01 35.5341C27.9278 35.453 27.8164 35.4074 27.7002 35.4074V35.4121Z" fill="#322E28"/>
</g>
</svg>
