<svg width="125" height="36" viewBox="0 0 125 36" fill="none" xmlns="http://www.w3.org/2000/svg">
<path d="M3.12964 15.1142L0 21.0224H30.8288L33.9592 15.1142H3.12964Z" fill="url(#paint0_linear)"/>
<path d="M30.8293 21.0232H0L3.1299 15.1149H33.9595L30.8293 21.0232Z" fill="url(#paint1_linear)"/>
<g opacity="0.300003">
<g opacity="0.300003">
<path opacity="0.300003" d="M7.13311 21.025H17.966L26.8139 15.1167H15.9818L7.13311 21.025Z" fill="#07A279"/>
</g>
</g>
<path d="M30.8218 21.0267L33.9519 15.1185L22.57 21.0267H30.8218Z" fill="url(#paint2_linear)"/>
<path d="M3.1299 15.1149L0 21.0232L11.3812 15.1149H3.1299Z" fill="url(#paint3_linear)"/>
<path d="M15.2189 0.135838C14.7016 0.135838 14.2803 0.5515 14.2803 1.06052V5.58114L22.4108 0.135838H15.2189Z" fill="url(#paint4_linear)"/>
<path d="M14.2697 5.57851V1.05814C14.2697 0.549123 14.6911 0.133461 15.2086 0.133461H22.4005L14.2697 5.57851Z" fill="url(#paint5_linear)"/>
<path d="M23.364 6.04578C22.848 6.04578 22.4259 6.46221 22.4259 6.97123V11.4908L30.5569 6.04578H23.364Z" fill="url(#paint6_linear)"/>
<path d="M22.4155 11.4916V6.97204C22.4155 6.46277 22.8377 6.04686 23.3536 6.04686H30.5466L22.4155 11.4916Z" fill="url(#paint7_linear)"/>
<path d="M22.4155 11.4916L30.5461 6.04686L22.4155 10.2676V11.4916Z" fill="url(#paint8_linear)"/>
<path d="M14.2699 5.5802L22.4007 0.135154L14.2699 4.35611V5.5802Z" fill="url(#paint9_linear)"/>
<path d="M11.5381 36.0006H18.7296C19.2458 36.0006 19.6689 35.5831 19.6689 35.0754L19.6684 30.5558L11.5381 36.0006Z" fill="url(#paint10_linear)"/>
<path d="M19.6579 30.556L19.6584 35.0756C19.6584 35.5834 19.235 36.0006 18.7187 36.0006H11.5276L19.6579 30.556Z" fill="url(#paint11_linear)"/>
<path d="M3.39956 30.0935H10.5912C11.1085 30.0935 11.5306 29.6778 11.5306 29.1688L11.5301 24.6487L3.39956 30.0935Z" fill="url(#paint12_linear)"/>
<path d="M11.5055 24.6505L11.506 29.1706C11.506 29.6796 11.0839 30.0953 10.5666 30.0953H3.37495L11.5055 24.6505Z" fill="url(#paint13_linear)"/>
<path d="M11.5055 24.6505L3.37495 30.0953L11.5055 25.8746V24.6505Z" fill="url(#paint14_linear)"/>
<path d="M0.517772 14.7679C0.232648 14.9592 0 15.3919 0 15.7303V21.0224L21.9121 6.39116C22.197 6.20037 22.4307 5.76792 22.4307 5.42908V0.136667L0.517772 14.7679Z" fill="url(#paint15_linear)"/>
<path d="M12.0454 29.7461C11.7607 29.9361 11.5276 30.3688 11.5276 30.7081L11.5281 36.0006L33.44 21.369C33.7259 21.1785 33.9588 20.745 33.9588 20.4069V15.115L12.0454 29.7461Z" fill="url(#paint16_linear)"/>
<path d="M3.91785 23.8393C3.63247 24.0296 3.39956 24.4628 3.39956 24.8011V30.0935L30.0448 12.3013C30.3299 12.112 30.5639 11.6783 30.5639 11.3402V6.04755L3.91785 23.8393Z" fill="url(#paint17_linear)"/>
<g opacity="0.300003">
<g opacity="0.300003">
<g opacity="0.300003">
<g opacity="0.300003">
<g opacity="0.300003">
<path opacity="0.300003" d="M16.0099 21.5265L26.7717 14.3402H17.9241L7.16123 21.5265H16.0099Z" fill="url(#paint18_linear)"/>
</g>
</g>
</g>
</g>
</g>
<g opacity="0.149994">
<g opacity="0.149994">
<g opacity="0.149994">
<g opacity="0.149994">
<g opacity="0.149994">
<path opacity="0.149994" d="M33.9579 20.2705V14.9786L24.152 21.5257H32.9996L33.4391 21.2326C33.725 21.0421 33.9579 20.6086 33.9579 20.2705Z" fill="url(#paint19_linear)"/>
</g>
</g>
</g>
</g>
</g>
<g opacity="0.199997">
<g opacity="0.199997">
<g opacity="0.199997">
<g opacity="0.199997">
<g opacity="0.199997">
<path opacity="0.199997" d="M30.5759 11.2025V5.91031L20.77 12.4581H29.6187L30.0571 12.1638C30.342 11.9743 30.5759 11.5408 30.5759 11.2025Z" fill="url(#paint20_linear)"/>
</g>
</g>
</g>
</g>
</g>
<g opacity="0.300003">
<g opacity="0.300003">
<g opacity="0.300003">
<g opacity="0.300003">
<g opacity="0.300003">
<path opacity="0.300003" d="M22.4163 5.29267V2.29761e-06L12.6104 6.54754H21.4583L21.898 6.25449C22.1831 6.06371 22.4163 5.63126 22.4163 5.29267Z" fill="url(#paint21_linear)"/>
</g>
</g>
</g>
</g>
</g>
<g opacity="0.149994">
<g opacity="0.149994">
<g opacity="0.149994">
<g opacity="0.149994">
<g opacity="0.149994">
<path opacity="0.149994" d="M0 15.5928V20.8849L9.80484 14.3374H0.957218L0.51803 14.6307C0.233165 14.8217 0 15.2545 0 15.5928Z" fill="url(#paint22_linear)"/>
</g>
</g>
</g>
</g>
</g>
<g opacity="0.199997">
<g opacity="0.199997">
<g opacity="0.199997">
<g opacity="0.199997">
<g opacity="0.199997">
<path opacity="0.199997" d="M3.37847 24.661V29.9534L13.1841 23.4061H4.33673L3.89702 23.6991C3.61138 23.8894 3.37847 24.3226 3.37847 24.661Z" fill="url(#paint23_linear)"/>
</g>
</g>
</g>
</g>
</g>
<g opacity="0.149994">
<g opacity="0.149994">
<g opacity="0.149994">
<g opacity="0.149994">
<g opacity="0.149994">
<path opacity="0.149994" d="M11.5346 30.5683V35.8604L21.34 29.3126H12.4913L12.0519 29.6062C11.767 29.7965 11.5346 30.2289 11.5346 30.5683Z" fill="url(#paint24_linear)"/>
</g>
</g>
</g>
</g>
</g>
<path d="M0.51803 14.6307C0.232648 14.8217 0 15.2545 0 15.5928V20.8849L22.3821 0.0327402L0.51803 14.6307Z" fill="url(#paint25_linear)"/>
<path d="M12.0454 29.6088C11.7607 29.7991 11.5276 30.2316 11.5276 30.5709L11.5281 35.8631L33.9102 15.0106L12.0454 29.6088Z" fill="url(#paint26_linear)"/>
<path d="M3.89702 23.6991C3.61138 23.8894 3.37847 24.3226 3.37847 24.661V29.9534L25.7606 9.10093L3.89702 23.6991Z" fill="url(#paint27_linear)"/>
<path d="M19.6614 30.415L11.5311 35.8595L19.6614 31.6391V30.415Z" fill="url(#paint28_linear)"/>
<g clip-path="url(#clip0)">
<path d="M48.9415 20.2466V10.6824H47.0744V20.2466H48.9415ZM57.3194 12.348V10.6824H50.4553V12.348H52.9538V20.2466H54.8209V12.348H57.3194ZM62.1183 17.2242V15.5988H57.981V17.2242H62.1183ZM69.5975 18.2316C69.5975 17.4794 69.2751 16.9958 68.6034 16.6466C69.2079 16.2973 69.49 15.8271 69.49 15.1689C69.49 14.0003 68.6437 13.248 67.3273 13.248H63.8751V20.2466H67.4482C68.7646 20.2466 69.5975 19.4674 69.5975 18.2316ZM66.9109 14.5376C67.4616 14.5376 67.7572 14.8063 67.7572 15.2764C67.7572 15.76 67.4616 16.0421 66.9109 16.0421H65.6079V14.5376H66.9109ZM67.8646 18.1376C67.8646 18.6346 67.5422 18.957 66.9915 18.957H65.6079V17.3182H66.9915C67.5422 17.3182 67.8646 17.6271 67.8646 18.1376ZM76.8367 16.7406C76.8367 15.4779 76.6755 14.6988 76.0442 14.0271C75.6009 13.557 74.9024 13.1674 73.8681 13.1674C72.8337 13.1674 72.1487 13.5704 71.7054 14.0271C71.074 14.6988 70.9128 15.4779 70.9128 16.7406C70.9128 18.0033 71.074 18.7958 71.7054 19.4674C72.1487 19.9242 72.8337 20.3271 73.8681 20.3271C74.9024 20.3271 75.6009 19.9242 76.0442 19.4674C76.689 18.8092 76.8367 18.0033 76.8367 16.7406ZM75.0904 16.7406C75.0904 17.466 75.0501 18.0973 74.6875 18.4466C74.486 18.648 74.2173 18.7555 73.8681 18.7555C73.5322 18.7555 73.2636 18.648 73.0621 18.4466C72.6994 18.0973 72.6591 17.466 72.6591 16.7406C72.6591 16.0286 72.6994 15.3973 73.0621 15.048C73.2636 14.8466 73.5322 14.7391 73.8681 14.7391C74.2173 14.7391 74.486 14.8466 74.6875 15.048C75.0501 15.3973 75.0904 16.0286 75.0904 16.7406ZM83.9486 20.2466V13.248H78.8307V16.0824C78.8307 18.5943 78.253 18.7018 77.662 18.7018H77.4471V20.2466H78.2799C79.7038 20.2466 80.5232 19.4674 80.5232 16.4719V14.7928H82.2023V20.2466H83.9486ZM91.542 16.7406C91.542 15.4779 91.3808 14.6988 90.7495 14.0271C90.3062 13.557 89.6077 13.1674 88.5733 13.1674C87.539 13.1674 86.8539 13.5704 86.4107 14.0271C85.7793 14.6988 85.6181 15.4779 85.6181 16.7406C85.6181 18.0033 85.7793 18.7958 86.4107 19.4674C86.8539 19.9242 87.539 20.3271 88.5733 20.3271C89.6077 20.3271 90.3062 19.9242 90.7495 19.4674C91.3942 18.8092 91.542 18.0033 91.542 16.7406ZM89.7957 16.7406C89.7957 17.466 89.7554 18.0973 89.3927 18.4466C89.1912 18.648 88.9226 18.7555 88.5733 18.7555C88.2375 18.7555 87.9689 18.648 87.7674 18.4466C87.4047 18.0973 87.3644 17.466 87.3644 16.7406C87.3644 16.0286 87.4047 15.3973 87.7674 15.048C87.9689 14.8466 88.2375 14.7391 88.5733 14.7391C88.9226 14.7391 89.1912 14.8466 89.3927 15.048C89.7554 15.3973 89.7957 16.0286 89.7957 16.7406ZM98.9565 20.2466V13.248H97.1968V15.8943H94.9535V13.248H93.1938V20.2466H94.9535V17.4391H97.1968V20.2466H98.9565ZM105.773 14.7928V13.248H99.9435V14.7928H101.999V20.2466H103.758V14.7928H105.773ZM112.586 17.2913V16.5525C112.586 14.5645 111.485 13.1674 109.537 13.1674C107.723 13.1674 106.488 14.457 106.488 16.7406C106.488 19.5749 108.073 20.3271 109.725 20.3271C110.988 20.3271 111.673 19.951 112.385 19.2257L111.323 18.1913C110.88 18.6212 110.504 18.8495 109.738 18.8495C108.744 18.8495 108.207 18.2048 108.207 17.2913H112.586ZM110.867 16.0958H108.207C108.22 15.7868 108.247 15.5988 108.368 15.3436C108.556 14.9271 108.946 14.6182 109.537 14.6182C110.128 14.6182 110.517 14.9271 110.706 15.3436C110.826 15.5988 110.853 15.7868 110.867 16.0958ZM111.807 12.1063V10.4271H110.316V12.1063H111.807ZM108.838 12.1063V10.4271H107.347V12.1063H108.838ZM120.053 16.7406C120.053 15.5719 119.999 14.4839 119.327 13.7988C118.938 13.3958 118.32 13.1674 117.635 13.1674C116.883 13.1674 116.372 13.3689 115.889 13.9063V13.248H114.196V22.8122H115.942V19.6286C116.386 20.1391 116.923 20.3271 117.635 20.3271C118.32 20.3271 118.938 20.0988 119.327 19.6958C119.999 19.0107 120.053 17.9092 120.053 16.7406ZM118.307 16.7406C118.307 17.8689 118.172 18.7555 117.124 18.7555C116.077 18.7555 115.942 17.8689 115.942 16.7406C115.942 15.6122 116.077 14.7391 117.124 14.7391C118.172 14.7391 118.307 15.6122 118.307 16.7406Z" fill="black"/>
<path d="M48.6852 29.0376V26.1999H46.4128V29.0376H46.9837V26.698H48.1143V29.0376H48.6852ZM51.7662 29.0376V26.1999H49.8241V27.3809C49.8241 28.4779 49.533 28.5339 49.2867 28.5339H49.1972V29.0376H49.4658C50.02 29.0376 50.3726 28.7242 50.3726 27.5208V26.698H51.1953V29.0376H51.7662ZM54.7643 29.0376V27.1402C54.7643 26.5021 54.3781 26.1663 53.5946 26.1663C53.1188 26.1663 52.8446 26.2671 52.5815 26.5805L52.9509 26.9331C53.1132 26.7316 53.2699 26.6533 53.5722 26.6533C54.0199 26.6533 54.1934 26.8212 54.1934 27.185V27.3865H53.449C52.7942 27.3865 52.464 27.7279 52.464 28.2036C52.464 28.4443 52.5423 28.6626 52.6878 28.8137C52.8614 28.9872 53.0964 29.0712 53.449 29.0712C53.8017 29.0712 53.9975 28.9872 54.2046 28.7801V29.0376H54.7643ZM54.1934 28.0133C54.1934 28.2148 54.1599 28.3492 54.0703 28.4331C53.9192 28.573 53.7569 28.5954 53.5554 28.5954C53.1804 28.5954 53.0181 28.4555 53.0181 28.1924C53.0181 27.9294 53.1916 27.7839 53.5386 27.7839H54.1934V28.0133ZM57.5377 26.698V26.1999H55.1982V26.698H56.0993V29.0376H56.6702V26.698H57.5377ZM60.6751 27.6104C60.6751 28.2036 60.3896 28.5451 59.8355 28.5563V26.6757C60.4232 26.6924 60.6751 27.0339 60.6751 27.6104ZM59.8355 30.185V29.0656C60.6975 29.0208 61.246 28.5507 61.246 27.6048C61.246 26.6645 60.7087 26.2167 59.8355 26.1663V25.0525H59.2646V26.1663C58.3915 26.2167 57.8542 26.6645 57.8542 27.6048C57.8542 28.5507 58.4027 29.0208 59.2646 29.0656V30.185H59.8355ZM58.4251 27.6104C58.4251 27.0339 58.677 26.6924 59.2646 26.6757V28.5563C58.7105 28.5451 58.4251 28.2036 58.4251 27.6104ZM64.2127 27.616C64.2127 27.1402 64.1456 26.782 63.8769 26.5021C63.6922 26.3119 63.4123 26.1663 63.0261 26.1663C62.64 26.1663 62.3657 26.3119 62.181 26.5021C61.9123 26.782 61.8452 27.1402 61.8452 27.616C61.8452 28.0973 61.9123 28.4555 62.181 28.7354C62.3657 28.9257 62.64 29.0712 63.0261 29.0712C63.4123 29.0712 63.6922 28.9257 63.8769 28.7354C64.1456 28.4555 64.2127 28.0973 64.2127 27.616ZM63.6418 27.616C63.6418 27.9238 63.6194 28.2204 63.4459 28.3939C63.3396 28.5003 63.1941 28.5619 63.0261 28.5619C62.8582 28.5619 62.7183 28.5003 62.612 28.3939C62.4385 28.2204 62.4161 27.9238 62.4161 27.616C62.4161 27.3081 62.4385 27.0115 62.612 26.838C62.7183 26.7316 62.8582 26.6757 63.0261 26.6757C63.1941 26.6757 63.3396 26.7316 63.4459 26.838C63.6194 27.0115 63.6418 27.3081 63.6418 27.616ZM67.3085 27.616C67.3085 27.1514 67.2637 26.698 66.9894 26.4182C66.8327 26.2615 66.5865 26.1663 66.2954 26.1663C65.9932 26.1663 65.7581 26.2447 65.5454 26.5021V26.1999H64.9857V30.185H65.5566V28.7466C65.7637 28.9984 65.9988 29.0712 66.301 29.0712C66.5921 29.0712 66.8327 28.976 66.9894 28.8193C67.2637 28.5395 67.3085 28.0805 67.3085 27.616ZM66.7376 27.616C66.7376 28.1197 66.6648 28.5619 66.1499 28.5619C65.6294 28.5619 65.5566 28.1197 65.5566 27.616C65.5566 27.1122 65.6294 26.6757 66.1499 26.6757C66.6648 26.6757 66.7376 27.1122 66.7376 27.616ZM70.9003 29.0376V26.1999H70.3406L69.4954 27.8902L68.6447 26.1999H68.0794V29.0376H68.6503V27.2186L69.3163 28.5171H69.6745L70.3294 27.2186V29.0376H70.9003ZM73.9002 29.0376V27.1402C73.9002 26.5021 73.514 26.1663 72.7305 26.1663C72.2547 26.1663 71.9805 26.2671 71.7174 26.5805L72.0868 26.9331C72.2491 26.7316 72.4058 26.6533 72.7081 26.6533C73.1558 26.6533 73.3293 26.8212 73.3293 27.185V27.3865H72.5849C71.9301 27.3865 71.5999 27.7279 71.5999 28.2036C71.5999 28.4443 71.6782 28.6626 71.8237 28.8137C71.9972 28.9872 72.2323 29.0712 72.5849 29.0712C72.9375 29.0712 73.1334 28.9872 73.3405 28.7801V29.0376H73.9002ZM73.3293 28.0133C73.3293 28.2148 73.2958 28.3492 73.2062 28.4331C73.0551 28.573 72.8928 28.5954 72.6913 28.5954C72.3163 28.5954 72.154 28.4555 72.154 28.1924C72.154 27.9294 72.3275 27.7839 72.6745 27.7839H73.3293V28.0133ZM78.3975 29.0376V26.1999H76.1251V29.0376H76.696V26.698H77.8266V29.0376H78.3975ZM81.5121 27.616C81.5121 27.1402 81.4449 26.782 81.1763 26.5021C80.9916 26.3119 80.7117 26.1663 80.3255 26.1663C79.9393 26.1663 79.6651 26.3119 79.4804 26.5021C79.2117 26.782 79.1445 27.1402 79.1445 27.616C79.1445 28.0973 79.2117 28.4555 79.4804 28.7354C79.6651 28.9257 79.9393 29.0712 80.3255 29.0712C80.7117 29.0712 80.9916 28.9257 81.1763 28.7354C81.4449 28.4555 81.5121 28.0973 81.5121 27.616ZM80.9412 27.616C80.9412 27.9238 80.9188 28.2204 80.7453 28.3939C80.6389 28.5003 80.4934 28.5619 80.3255 28.5619C80.1576 28.5619 80.0177 28.5003 79.9113 28.3939C79.7378 28.2204 79.7154 27.9238 79.7154 27.616C79.7154 27.3081 79.7378 27.0115 79.9113 26.838C80.0177 26.7316 80.1576 26.6757 80.3255 26.6757C80.4934 26.6757 80.6389 26.7316 80.7453 26.838C80.9188 27.0115 80.9412 27.3081 80.9412 27.616ZM85.106 29.0376V26.1999H84.5463L83.7011 27.8902L82.8504 26.1999H82.2851V29.0376H82.856V27.2186L83.522 28.5171H83.8802L84.5351 27.2186V29.0376H85.106ZM88.2515 27.616C88.2515 27.1402 88.1843 26.782 87.9156 26.5021C87.7309 26.3119 87.4511 26.1663 87.0649 26.1663C86.6787 26.1663 86.4044 26.3119 86.2197 26.5021C85.9511 26.782 85.8839 27.1402 85.8839 27.616C85.8839 28.0973 85.9511 28.4555 86.2197 28.7354C86.4044 28.9257 86.6787 29.0712 87.0649 29.0712C87.4511 29.0712 87.7309 28.9257 87.9156 28.7354C88.1843 28.4555 88.2515 28.0973 88.2515 27.616ZM87.6806 27.616C87.6806 27.9238 87.6582 28.2204 87.4847 28.3939C87.3783 28.5003 87.2328 28.5619 87.0649 28.5619C86.897 28.5619 86.7571 28.5003 86.6507 28.3939C86.4772 28.2204 86.4548 27.9238 86.4548 27.616C86.4548 27.3081 86.4772 27.0115 86.6507 26.838C86.7571 26.7316 86.897 26.6757 87.0649 26.6757C87.2328 26.6757 87.3783 26.7316 87.4847 26.838C87.6582 27.0115 87.6806 27.3081 87.6806 27.616ZM93.0599 29.7652V28.5395H92.6569V26.1999H92.086V28.5395H91.1289V26.1999H90.558V28.5395H89.5954V26.1999H89.0245V29.0376H92.517V29.7652H93.0599ZM96.0268 29.0376V26.1999H95.4559L94.2413 28.1253V26.1999H93.6704V29.0376H94.2413L95.4559 27.0842V29.0376H96.0268ZM101.172 29.0376V25.0525H100.562V26.7596H98.9498V25.0525H98.3453V29.0376H98.9498V27.2969H100.562V29.0376H101.172ZM102.831 29.0376V25.0525H102.226V29.0376H102.831ZM105.21 29.0376L103.536 26.9331L105.07 25.0525H104.325L102.836 26.9499L104.443 29.0376H105.21ZM108.373 27.0451C108.373 26.2111 108.362 25.8137 107.97 25.4219C107.713 25.1645 107.377 25.0189 106.94 25.0189C106.504 25.0189 106.168 25.1645 105.911 25.4219C105.519 25.8137 105.508 26.2111 105.508 27.0451C105.508 27.879 105.519 28.2764 105.911 28.6682C106.168 28.9257 106.504 29.0712 106.94 29.0712C107.377 29.0712 107.713 28.9257 107.97 28.6682C108.362 28.2764 108.373 27.879 108.373 27.0451ZM107.769 27.0451C107.769 27.8342 107.735 28.0749 107.534 28.282C107.383 28.4387 107.181 28.5339 106.94 28.5339C106.7 28.5339 106.498 28.4387 106.347 28.282C106.151 28.0693 106.112 27.8342 106.112 27.0451C106.112 26.2559 106.151 26.0152 106.347 25.8025C106.498 25.6458 106.7 25.5563 106.94 25.5563C107.181 25.5563 107.383 25.6458 107.534 25.8025C107.735 26.0096 107.769 26.2559 107.769 27.0451Z" fill="black"/>
</g>
<defs>
<linearGradient id="paint0_linear" x1="-0.000174745" y1="18.0682" x2="29.1049" y2="18.0682" gradientUnits="userSpaceOnUse">
<stop stop-color="#C4AE2B"/>
<stop offset="0.0452979" stop-color="#C4AE2B"/>
<stop offset="0.175497" stop-color="#C4AE2B"/>
<stop offset="0.540301" stop-color="#259747"/>
<stop offset="1" stop-color="#1B4274"/>
</linearGradient>
<linearGradient id="paint1_linear" x1="-5.24814" y1="18.0689" x2="32.0107" y2="18.0689" gradientUnits="userSpaceOnUse">
<stop stop-color="#9D3D2A"/>
<stop offset="0.198929" stop-color="#259747"/>
<stop offset="0.5" stop-color="#259747"/>
<stop offset="0.742494" stop-color="#259747"/>
<stop offset="1" stop-color="#1B4274"/>
</linearGradient>
<linearGradient id="paint2_linear" x1="0.202992" y1="18.0725" x2="30.0797" y2="18.0725" gradientUnits="userSpaceOnUse">
<stop stop-color="#C03038"/>
<stop offset="0.198929" stop-color="#50B548"/>
<stop offset="0.5" stop-color="#50B548"/>
<stop offset="0.742494" stop-color="#50B548"/>
<stop offset="1" stop-color="#108689"/>
</linearGradient>
<linearGradient id="paint3_linear" x1="1.25433" y1="18.0692" x2="48.6029" y2="18.0692" gradientUnits="userSpaceOnUse">
<stop stop-color="#C03038"/>
<stop offset="0.198929" stop-color="#50B548"/>
<stop offset="0.5" stop-color="#50B548"/>
<stop offset="0.742494" stop-color="#50B548"/>
<stop offset="1" stop-color="#108689"/>
</linearGradient>
<linearGradient id="paint4_linear" x1="-2.54612" y1="2.85852" x2="17.9578" y2="2.85852" gradientUnits="userSpaceOnUse">
<stop stop-color="#A5CD3D"/>
<stop offset="1" stop-color="#BA3E26"/>
</linearGradient>
<linearGradient id="paint5_linear" x1="18.8736" y1="2.85602" x2="-12.3123" y2="2.85602" gradientUnits="userSpaceOnUse">
<stop stop-color="#9D3D2A"/>
<stop offset="0.263896" stop-color="#259747"/>
<stop offset="0.663293" stop-color="#259747"/>
<stop offset="0.826592" stop-color="#259747"/>
<stop offset="1" stop-color="#1B4274"/>
</linearGradient>
<linearGradient id="paint6_linear" x1="2.05935" y1="8.76836" x2="27.1773" y2="8.76836" gradientUnits="userSpaceOnUse">
<stop stop-color="#83C341"/>
<stop offset="1" stop-color="#259747"/>
</linearGradient>
<linearGradient id="paint7_linear" x1="-9.83688" y1="8.76918" x2="30.2213" y2="8.76918" gradientUnits="userSpaceOnUse">
<stop stop-color="#9D3D2A"/>
<stop offset="0.198929" stop-color="#259747"/>
<stop offset="0.5" stop-color="#259747"/>
<stop offset="0.742494" stop-color="#259747"/>
<stop offset="1" stop-color="#1B4274"/>
</linearGradient>
<linearGradient id="paint8_linear" x1="-2.62014" y1="8.76893" x2="32.5307" y2="8.76893" gradientUnits="userSpaceOnUse">
<stop stop-color="#C03038"/>
<stop offset="0.198929" stop-color="#50B548"/>
<stop offset="0.5" stop-color="#50B548"/>
<stop offset="0.742494" stop-color="#50B548"/>
<stop offset="1" stop-color="#108689"/>
</linearGradient>
<linearGradient id="paint9_linear" x1="23.2731" y1="2.85771" x2="-9.37482" y2="2.85772" gradientUnits="userSpaceOnUse">
<stop stop-color="#C03038"/>
<stop offset="0.198929" stop-color="#50B548"/>
<stop offset="0.5" stop-color="#50B548"/>
<stop offset="0.742494" stop-color="#50B548"/>
<stop offset="1" stop-color="#108689"/>
</linearGradient>
<linearGradient id="paint10_linear" x1="6.7529" y1="33.2782" x2="33.0869" y2="33.2782" gradientUnits="userSpaceOnUse">
<stop stop-color="#3D63AD"/>
<stop offset="1" stop-color="#1B4274"/>
</linearGradient>
<linearGradient id="paint11_linear" x1="41.4877" y1="33.2785" x2="12.6184" y2="33.2785" gradientUnits="userSpaceOnUse">
<stop stop-color="#9D3D2A"/>
<stop offset="0.198929" stop-color="#259747"/>
<stop offset="0.5" stop-color="#259747"/>
<stop offset="0.742494" stop-color="#259747"/>
<stop offset="1" stop-color="#1B4274"/>
</linearGradient>
<linearGradient id="paint12_linear" x1="3.39953" y1="27.3711" x2="35.9489" y2="27.3711" gradientUnits="userSpaceOnUse">
<stop stop-color="#83C341"/>
<stop offset="1" stop-color="#259747"/>
</linearGradient>
<linearGradient id="paint13_linear" x1="36.3101" y1="27.3728" x2="1.73157" y2="27.3728" gradientUnits="userSpaceOnUse">
<stop stop-color="#9D3D2A"/>
<stop offset="0.198929" stop-color="#259747"/>
<stop offset="0.5" stop-color="#259747"/>
<stop offset="0.742494" stop-color="#259747"/>
<stop offset="1" stop-color="#1B4274"/>
</linearGradient>
<linearGradient id="paint14_linear" x1="36.5414" y1="27.3728" x2="1.39049" y2="27.3728" gradientUnits="userSpaceOnUse">
<stop stop-color="#C03038"/>
<stop offset="0.198929" stop-color="#50B548"/>
<stop offset="0.5" stop-color="#50B548"/>
<stop offset="0.742494" stop-color="#50B548"/>
<stop offset="1" stop-color="#108689"/>
</linearGradient>
<linearGradient id="paint15_linear" x1="-2.98136" y1="20.0035" x2="23.1993" y2="2.0574" gradientUnits="userSpaceOnUse">
<stop stop-color="#FCE930"/>
<stop offset="1" stop-color="#ED2A2A"/>
</linearGradient>
<linearGradient id="paint16_linear" x1="7.67901" y1="35.5577" x2="33.8594" y2="17.6118" gradientUnits="userSpaceOnUse">
<stop stop-color="#33C4F3"/>
<stop offset="1" stop-color="#108689"/>
</linearGradient>
<linearGradient id="paint17_linear" x1="2.35102" y1="27.7829" x2="28.5316" y2="9.83685" gradientUnits="userSpaceOnUse">
<stop stop-color="#E3E331"/>
<stop offset="1" stop-color="#50B548"/>
</linearGradient>
<linearGradient id="paint18_linear" x1="-4.81786" y1="17.9334" x2="24.8115" y2="17.9334" gradientUnits="userSpaceOnUse">
<stop stop-color="#E3E331"/>
<stop offset="1" stop-color="#50B548"/>
</linearGradient>
<linearGradient id="paint19_linear" x1="18.1622" y1="18.2522" x2="32.9778" y2="18.2522" gradientUnits="userSpaceOnUse">
<stop stop-color="#33C4F3"/>
<stop offset="1" stop-color="#108689"/>
</linearGradient>
<linearGradient id="paint20_linear" x1="14.78" y1="9.18412" x2="29.5959" y2="9.18412" gradientUnits="userSpaceOnUse">
<stop stop-color="#E3E331"/>
<stop offset="1" stop-color="#50B548"/>
</linearGradient>
<linearGradient id="paint21_linear" x1="6.62047" y1="3.2738" x2="21.436" y2="3.2738" gradientUnits="userSpaceOnUse">
<stop stop-color="#FCE930"/>
<stop offset="1" stop-color="#ED2A2A"/>
</linearGradient>
<linearGradient id="paint22_linear" x1="15.7941" y1="17.6111" x2="0.980093" y2="17.6111" gradientUnits="userSpaceOnUse">
<stop stop-color="#FCE930"/>
<stop offset="1" stop-color="#ED2A2A"/>
</linearGradient>
<linearGradient id="paint23_linear" x1="19.174" y1="26.6797" x2="4.35863" y2="26.6797" gradientUnits="userSpaceOnUse">
<stop stop-color="#E3E331"/>
<stop offset="1" stop-color="#50B548"/>
</linearGradient>
<linearGradient id="paint24_linear" x1="27.3295" y1="32.5866" x2="12.5146" y2="32.5866" gradientUnits="userSpaceOnUse">
<stop stop-color="#33C4F3"/>
<stop offset="1" stop-color="#108689"/>
</linearGradient>
<linearGradient id="paint25_linear" x1="-2.36061" y1="20.8585" x2="16.5772" y2="5.05336" gradientUnits="userSpaceOnUse">
<stop stop-color="#FFDF2C"/>
<stop offset="1" stop-color="#F3762D"/>
</linearGradient>
<linearGradient id="paint26_linear" x1="6.2661" y1="35.9317" x2="28.1441" y2="19.9718" gradientUnits="userSpaceOnUse">
<stop stop-color="#75EBFB"/>
<stop offset="1" stop-color="#1995A3"/>
</linearGradient>
<linearGradient id="paint27_linear" x1="-0.344163" y1="28.8715" x2="22.2425" y2="12.3621" gradientUnits="userSpaceOnUse">
<stop stop-color="#F7FE05"/>
<stop offset="1" stop-color="#65BC46"/>
</linearGradient>
<linearGradient id="paint28_linear" x1="45.8551" y1="33.1375" x2="10.7042" y2="33.1375" gradientUnits="userSpaceOnUse">
<stop stop-color="#C03038"/>
<stop offset="0.198929" stop-color="#50B548"/>
<stop offset="0.5" stop-color="#50B548"/>
<stop offset="0.742494" stop-color="#50B548"/>
<stop offset="1" stop-color="#108689"/>
</linearGradient>
<clipPath id="clip0">
<rect width="75" height="23.5075" fill="white" transform="translate(45.9594 6.24655)"/>
</clipPath>
</defs>
</svg>
