<svg width="20" height="20" viewBox="0 0 20 20" fill="none" xmlns="http://www.w3.org/2000/svg">
<path d="M15 2.5H5C4.33696 2.5 3.70107 2.76339 3.23223 3.23223C2.76339 3.70107 2.5 4.33696 2.5 5V15C2.5 15.663 2.76339 16.2989 3.23223 16.7678C3.70107 17.2366 4.33696 17.5 5 17.5H15C15.663 17.5 16.2989 17.2366 16.7678 16.7678C17.2366 16.2989 17.5 15.663 17.5 15V5C17.5 4.33696 17.2366 3.70107 16.7678 3.23223C16.2989 2.76339 15.663 2.5 15 2.5ZM15.8333 15C15.8333 15.221 15.7455 15.433 15.5893 15.5893C15.433 15.7455 15.221 15.8333 15 15.8333H5C4.77899 15.8333 4.56702 15.7455 4.41074 15.5893C4.25446 15.433 4.16667 15.221 4.16667 15V5C4.16667 4.77899 4.25446 4.56702 4.41074 4.41074C4.56702 4.25446 4.77899 4.16667 5 4.16667H15C15.221 4.16667 15.433 4.25446 15.5893 4.41074C15.7455 4.56702 15.8333 4.77899 15.8333 5V15Z" fill="#474F62"/>
<path d="M12.251 6.99165L9.10097 11.1583L7.74264 9.39998C7.60671 9.22538 7.407 9.11193 7.18742 9.08458C6.96785 9.05723 6.74641 9.11823 6.5718 9.25415C6.3972 9.39007 6.28375 9.58979 6.2564 9.80937C6.22905 10.0289 6.29005 10.2504 6.42597 10.425L8.45097 13.0167C8.52945 13.116 8.62952 13.1961 8.74359 13.251C8.85766 13.3058 8.98273 13.334 9.10931 13.3333C9.23657 13.333 9.36207 13.3036 9.47619 13.2472C9.59031 13.1909 9.69001 13.1092 9.76764 13.0083L13.576 8.00832C13.7108 7.83151 13.7698 7.60838 13.7402 7.38803C13.7105 7.16767 13.5945 6.96814 13.4176 6.83332C13.2408 6.6985 13.0177 6.63944 12.7973 6.66913C12.577 6.69883 12.3775 6.81484 12.2426 6.99165H12.251Z" fill="#474F62"/>
</svg>
