<svg width="20" height="20" viewBox="0 0 20 20" fill="none" xmlns="http://www.w3.org/2000/svg">
<path d="M15 2.5H5C4.33696 2.5 3.70107 2.76339 3.23223 3.23223C2.76339 3.70107 2.5 4.33696 2.5 5V15C2.5 15.663 2.76339 16.2989 3.23223 16.7678C3.70107 17.2366 4.33696 17.5 5 17.5H15C15.663 17.5 16.2989 17.2366 16.7678 16.7678C17.2366 16.2989 17.5 15.663 17.5 15V5C17.5 4.33696 17.2366 3.70107 16.7678 3.23223C16.2989 2.76339 15.663 2.5 15 2.5ZM15.8333 15C15.8333 15.221 15.7455 15.433 15.5893 15.5893C15.433 15.7455 15.221 15.8333 15 15.8333H5C4.77899 15.8333 4.56702 15.7455 4.41074 15.5893C4.25446 15.433 4.16667 15.221 4.16667 15V5C4.16667 4.77899 4.25446 4.56702 4.41074 4.41074C4.56702 4.25446 4.77899 4.16667 5 4.16667H15C15.221 4.16667 15.433 4.25446 15.5893 4.41074C15.7455 4.56702 15.8333 4.77899 15.8333 5V15Z" fill="#474F62"/>
</svg>
