<svg width="80" height="81" viewBox="0 0 80 81" fill="none" xmlns="http://www.w3.org/2000/svg">
<path d="M0 40.5C0 18.4086 17.9086 0.5 40 0.5C62.0914 0.5 80 18.4086 80 40.5C80 62.5914 62.0914 80.5 40 80.5C17.9086 80.5 0 62.5914 0 40.5Z" />
<rect width="24" height="24" transform="matrix(-1 4.37114e-08 4.37114e-08 1 76 16.5)" fill="#DD625C"/>
<rect width="24" height="24" transform="matrix(-1 4.37114e-08 4.37114e-08 1 28 40.5)" fill="#D24A43"/>
<rect width="24" height="24" transform="matrix(-1 4.37114e-08 4.37114e-08 1 52 40.5)" fill="#C83029"/>
<rect width="24" height="24" transform="matrix(-1 4.37114e-08 4.37114e-08 1 52 16.5)" fill="#D24A43"/>
<path opacity="0.6" d="M12.0063 52.5C11.8731 54.7667 13.8715 56.5 16.0032 56.5C18.1348 56.5 20 54.6333 20 52.5C20 50.3667 18.1348 48.5 16.0032 48.5C13.8715 48.5 12.2728 49.8333 12.0063 52.5Z" fill="white"/>
<path opacity="0.6" d="M60.0063 28.5C59.8731 30.7667 61.8715 32.5 64.0032 32.5C66.1348 32.5 68 30.6333 68 28.5C68 26.3667 66.1348 24.5 64.0032 24.5C61.8715 24.5 60.2728 25.8333 60.0063 28.5Z" fill="white"/>
<path opacity="0.6" d="M40 48.5063C37.7333 48.3731 36 50.3715 36 52.5032C36 54.6348 37.8667 56.5 40 56.5C42.1333 56.5 44 54.6348 44 52.5032C44 50.3715 42.6667 48.7728 40 48.5063Z" fill="white"/>
<path opacity="0.6" d="M40 24.5063C37.7333 24.3731 36 26.3715 36 28.5032C36 30.6348 37.8667 32.5 40 32.5C42.1333 32.5 44 30.6348 44 28.5032C44 26.3715 42.6667 24.7728 40 24.5063Z" fill="white"/>
</svg>
