<svg width="80" height="81" viewBox="0 0 80 81" fill="none" xmlns="http://www.w3.org/2000/svg">
<path d="M0 40.5C0 18.4086 17.9086 0.5 40 0.5C62.0914 0.5 80 18.4086 80 40.5C80 62.5914 62.0914 80.5 40 80.5C17.9086 80.5 0 62.5914 0 40.5Z"/>
<rect x="28" y="40.5" width="24" height="24" transform="rotate(90 28 40.5)" fill="#FEDB8B"/>
<rect x="76" y="40.4998" width="24" height="24" transform="rotate(90 76 40.4998)" fill="#FEBF30"/>
<rect x="52" y="40.4998" width="24" height="24" transform="rotate(90 52 40.4998)" fill="#FECA55"/>
<rect x="76" y="16.4998" width="24" height="24" transform="rotate(90 76 16.4998)" fill="#FECA55"/>
<path opacity="0.6" d="M19.9937 52.5C20.1269 54.7667 18.1285 56.5 15.9968 56.5C13.8652 56.5 12 54.6333 12 52.5C12 50.3667 13.8652 48.5 15.9968 48.5C18.1285 48.5 19.7272 49.8333 19.9937 52.5Z" fill="white"/>
<path opacity="0.6" d="M40 56.4934C37.7333 56.6267 36 54.6283 36 52.4966C36 50.365 37.8667 48.4998 40 48.4998C42.1333 48.4998 44 50.365 44 52.4966C44 54.6283 42.6667 56.227 40 56.4934Z" fill="white"/>
<path opacity="0.6" d="M67.9842 52.4998C68.1172 54.7664 66.1212 56.4998 63.9921 56.4998C61.863 56.4998 60 54.6331 60 52.4998C60 50.3664 61.863 48.4998 63.9921 48.4998C66.1212 48.4998 67.718 49.8331 67.9842 52.4998Z" fill="white"/>
<path opacity="0.6" d="M67.9937 28.4998C68.1269 30.7664 66.1285 32.4998 63.9968 32.4998C61.8652 32.4998 60 30.6331 60 28.4998C60 26.3664 61.8652 24.4998 63.9968 24.4998C66.1285 24.4998 67.7272 25.8331 67.9937 28.4998Z" fill="white"/>
</svg>
