<svg width="590" height="580" viewBox="0 0 590 580" fill="none" xmlns="http://www.w3.org/2000/svg">
<path d="M490.962 109.802C488.932 109.802 486.902 109.046 485.33 107.52C482.125 104.41 482.048 99.2917 485.159 96.0873L495.214 85.7309C498.325 82.5308 503.444 82.4539 506.649 85.5643C509.854 88.6703 509.93 93.793 506.82 96.9931L496.765 107.35C495.179 108.982 493.073 109.802 490.962 109.802Z" fill="#96E2E7"/>
<path d="M107.282 123.495C105.256 123.495 103.222 122.739 101.654 121.214C98.4491 118.103 98.3722 112.985 101.483 109.781L111.538 99.4242C114.649 96.2242 119.768 96.1473 122.973 99.2576C126.173 102.368 126.25 107.486 123.14 110.686L113.085 121.043C111.499 122.675 109.393 123.495 107.282 123.495Z" fill="#FBC12C"/>
<path d="M92.4782 232.918C90.7416 233.646 88.9131 233.652 87.4191 232.763L5.61915 184.056C2.68723 182.31 2.15166 177.781 4.42695 173.942C6.70173 170.098 10.9221 168.399 13.8536 170.141L95.657 218.846C98.5884 220.588 99.121 225.123 96.8457 228.962C95.7294 230.847 94.1481 232.217 92.4782 232.918Z" fill="#FFA79B"/>
<path d="M580.478 183.987C578.742 183.258 576.913 183.253 575.419 184.141L493.619 232.848C490.687 234.594 490.152 239.123 492.427 242.963C494.702 246.806 498.922 248.505 501.854 246.763L583.657 198.058C586.588 196.316 587.121 191.782 584.846 187.942C583.729 186.057 582.148 184.687 580.478 183.987Z" fill="#FBC12C"/>
<path d="M371.309 108.583C370.07 108.332 368.813 107.798 367.657 106.973C364.098 104.442 362.816 100.142 364.792 97.3724L420.326 19.4621C422.302 16.6924 426.785 16.4961 430.343 19.0274C433.902 21.5587 435.184 25.8586 433.208 28.6282L377.674 106.539C376.343 108.404 373.87 109.102 371.309 108.583Z" fill="#59D9AA"/>
<path d="M319.187 155.233C317.772 155.233 316.345 154.866 315.042 154.088L314.935 154.024C311.106 151.734 309.854 146.77 312.149 142.937C314.439 139.101 319.405 137.857 323.238 140.147L323.344 140.212C327.178 142.502 328.425 147.466 326.135 151.299C324.618 153.832 321.939 155.233 319.187 155.233Z" fill="#FBC12C"/>
<path d="M199.45 123.166C196.872 123.878 194.308 123.355 192.835 121.568L131.396 47.0716C129.21 44.4199 130.249 39.9931 133.715 37.1807C137.184 34.3672 141.768 34.232 143.954 36.8838L205.394 111.38C207.58 114.031 206.541 118.462 203.075 121.274C201.945 122.192 200.696 122.823 199.45 123.166Z" fill="#96E2E7"/>
<path d="M168.095 160.234C165.352 160.234 162.672 158.837 161.155 156.316C158.856 152.488 160.096 147.519 163.92 145.22L164.031 145.156C167.86 142.858 172.825 144.092 175.124 147.92C177.428 151.749 176.188 156.713 172.36 159.016L172.253 159.08C170.949 159.862 169.514 160.234 168.095 160.234Z" fill="#FB7D75"/>
<path d="M346 44.4981C346 33.7296 337.492 25 327 25C316.505 25 308 33.7296 308 44.4981C308 55.2667 316.505 64 327 64C337.492 64 346 55.2667 346 44.4981Z" fill="#FBC12C"/>
<path d="M445.394 437.349C445.394 425.006 435.681 415 423.699 415C411.713 415 402 425.006 402 437.349C402 449.692 411.713 459.698 423.699 459.698C435.681 459.698 445.394 449.692 445.394 437.349Z" fill="#96E2E7"/>
<path d="M476.931 458.99C476.598 456.988 477.015 454.861 478.258 453.06C480.801 449.388 485.837 448.473 489.508 451.017L501.373 459.237C505.04 461.781 505.96 466.818 503.417 470.489C500.874 474.161 495.838 475.076 492.167 472.533L480.302 464.312C478.432 463.016 477.277 461.072 476.931 458.99Z" fill="#FBC12C"/>
<path d="M299.898 400.577C295.491 400.258 291.721 402.733 291.477 406.106L284.563 501.608C284.319 504.981 287.693 507.976 292.1 508.295C296.507 508.614 300.277 506.136 300.522 502.764L307.435 407.261C307.679 403.888 304.305 400.896 299.898 400.577Z" fill="#96E2E7"/>
<path d="M278.115 542.265H277.991C273.526 542.265 269.902 545.888 269.902 550.353C269.902 554.818 273.522 558.437 277.991 558.437H278.115C282.581 558.437 286.2 554.818 286.2 550.353C286.2 545.888 282.581 542.265 278.115 542.265Z" fill="#96E2E7"/>
<path d="M333.115 552.27C333.103 552.27 333.09 552.27 333.081 552.27H332.953C328.488 552.287 324.885 555.922 324.902 560.387C324.924 564.843 328.539 568.437 332.987 568.437H333.026H333.15C337.615 568.419 341.217 564.784 341.2 560.319C341.183 555.867 337.564 552.27 333.115 552.27Z" fill="#FBC12C"/>
<path d="M476.966 529.725L466.282 521.812C463.513 519.758 459.639 521.841 459.728 525.334L460.075 538.805C460.11 540.193 459.475 541.509 458.376 542.327L447.703 550.253C444.934 552.31 445.676 556.714 448.958 557.708L461.615 561.534C462.917 561.928 463.949 562.954 464.368 564.273L468.455 577.085C469.514 580.41 473.848 581.05 475.786 578.17L483.262 567.062C484.034 565.919 485.306 565.234 486.663 565.234L499.863 565.227C503.288 565.224 505.224 561.214 503.138 558.441L495.102 547.751C494.274 546.648 494.029 545.202 494.449 543.883L498.522 531.062C499.576 527.737 496.438 524.62 493.212 525.787L480.77 530.287C479.491 530.75 478.068 530.54 476.966 529.725Z" fill="#DFF0E4"/>
<path d="M341.071 400.437C336.612 400.437 332.998 403.337 332.998 406.916C332.998 457.092 357.939 491.014 378.86 510.638C401.612 531.97 424.317 541.344 425.273 541.734C429.25 543.354 434.11 542.077 436.124 538.881C438.138 535.693 436.555 531.799 432.582 530.176C432.241 530.035 411.281 521.265 390.671 501.774C363.115 475.719 349.145 443.804 349.145 406.916C349.145 403.337 345.53 400.437 341.071 400.437Z" fill="#FFA79B"/>
<path d="M184.802 485.047L193.956 472.866C196.333 469.708 201.18 470.735 202.162 474.604L205.946 489.522C206.335 491.056 207.432 492.297 208.879 492.837L222.914 498.072C226.555 499.428 227.108 504.511 223.853 506.669L211.295 514.999C210.003 515.859 209.201 517.319 209.149 518.905L208.669 534.32C208.548 538.317 204.04 540.433 201.047 537.899L189.5 528.131C188.309 527.125 186.716 526.786 185.242 527.228L170.909 531.521C167.192 532.634 163.852 528.859 165.259 525.134L170.681 510.764C171.24 509.285 171.058 507.615 170.195 506.301L161.815 493.541C159.642 490.23 162.083 485.784 165.949 486.013L180.844 486.903C182.379 486.995 183.859 486.3 184.802 485.047Z" fill="#FBC12C"/>
<path d="M250.887 400.437C246.407 400.437 242.775 402.884 242.775 405.903C242.775 428.134 235.444 448.473 220.988 466.353C218.844 469.005 220.298 472.325 224.233 473.769C228.169 475.214 233.095 474.235 235.238 471.585C251.002 452.078 258.998 429.98 258.998 405.903C258.998 402.884 255.367 400.437 250.887 400.437Z" fill="#FBC12C"/>
<path d="M178.805 426.923C178.805 417.024 171.015 409 161.4 409C151.79 409 144 417.024 144 426.923C144 436.827 151.79 444.85 161.4 444.85C171.015 444.85 178.805 436.827 178.805 426.923Z" fill="#59D9AA"/>
<path d="M85.805 473.923C85.805 464.024 78.015 456 68.4004 456C58.79 456 51 464.024 51 473.923C51 483.822 58.79 491.85 68.4004 491.85C78.015 491.85 85.805 483.822 85.805 473.923Z" fill="#96E2E7"/>
<path d="M143.086 568.525C141.057 568.525 139.027 567.765 137.454 566.24C134.249 563.129 134.172 558.011 137.288 554.807L147.338 544.454C150.449 541.25 155.568 541.173 158.773 544.283C161.978 547.394 162.055 552.512 158.944 555.717L148.889 566.069C147.304 567.705 145.197 568.525 143.086 568.525Z" fill="#FFA79B"/>
<path d="M268.932 17.9272C268.932 8.02368 261.142 0 251.532 0C241.917 0 234.127 8.02368 234.127 17.9272C234.127 27.8265 241.917 35.8502 251.532 35.8502C261.142 35.8502 268.932 27.8265 268.932 17.9272Z" fill="#FFA79B"/>
<path d="M444.809 141.927C444.809 132.028 437.015 124 427.405 124C417.794 124 410 132.028 410 141.927C410 151.827 417.794 159.85 427.405 159.85C437.015 159.85 444.809 151.827 444.809 141.927Z" fill="#FFA79B"/>
<path d="M191.392 35.8164C189.362 35.8164 187.332 35.0602 185.759 33.5307C182.555 30.4203 182.478 25.3062 185.589 22.1018L195.643 11.7454C198.754 8.54104 203.873 8.46414 207.074 11.5745C210.279 14.6848 210.356 19.8032 207.245 23.0076L197.194 33.364C195.609 34.9961 193.498 35.8164 191.392 35.8164Z" fill="#FFA79B"/>
<path d="M262.497 136.908L250.318 143.482C247.16 145.188 243.468 142.433 244.071 138.821L246.396 124.897C246.636 123.463 246.174 122.001 245.159 120.985L235.305 111.122C232.749 108.565 234.159 104.109 237.692 103.582L251.307 101.55C252.711 101.341 253.922 100.438 254.549 99.1317L260.64 86.4632C262.22 83.1789 266.782 83.1789 268.362 86.4632L274.451 99.1317C275.079 100.438 276.291 101.341 277.693 101.55L291.31 103.582C294.841 104.109 296.25 108.565 293.695 111.122L283.843 120.985C282.828 122.001 282.364 123.463 282.604 124.897L284.929 138.821C285.534 142.433 281.842 145.188 278.684 143.482L266.504 136.908C265.249 136.23 263.751 136.23 262.497 136.908Z" fill="#FBC12C"/>
</svg>
