<svg width="556" height="396" viewBox="0 0 556 396" fill="none" xmlns="http://www.w3.org/2000/svg">
<g clip-path="url(#clip0)">
<rect width="556" height="397" fill="#FBF8F4"/>
<path d="M64.6626 195.284H0V352.887H64.6626V195.284Z" fill="#EFEBE3"/>
<path d="M146.536 222.846H81.873V352.888H146.536V222.846Z" fill="#EFEBE3"/>
<path d="M228.458 110.047H163.795V352.936H228.458V110.047Z" fill="#EFEBE3"/>
<path d="M310.331 195.284H245.668V352.887H310.331V195.284Z" fill="#EFEBE3"/>
<path d="M392.204 156.522H327.541V352.887H392.204V156.522Z" fill="#EFEBE3"/>
<path d="M474.127 195.284H409.465V352.887H474.127V195.284Z" fill="#EFEBE3"/>
<path d="M556 228.004H491.338V352.887H556V228.004Z" fill="#EFEBE3"/>
<line x1="235.301" y1="85.399" x2="186.301" y2="122.399" stroke="#FECA55"/>
<path d="M460.26 40.2852H442.459V58.0695H460.26V40.2852Z" fill="#EFEBE3"/>
<path d="M113.59 155.342C113.295 155.342 113 155.097 113 154.753V37.6315C113 37.3368 113.246 37.042 113.59 37.042H466.407C466.702 37.042 466.997 37.2876 466.997 37.6315V97.0764C466.997 97.3712 466.751 97.666 466.407 97.666C466.112 97.666 465.817 97.4203 465.817 97.0764V38.1719H114.18V154.753C114.18 155.048 113.934 155.342 113.59 155.342Z" fill="#DACEB6"/>
<path d="M457.16 55.1211L446.44 44.4112C445.899 43.8708 445.113 44.706 445.604 45.2464L456.324 55.9563C456.865 56.4476 457.701 55.6616 457.16 55.1211Z" fill="#575552"/>
<path d="M446.44 55.9569L457.16 45.247C457.701 44.7066 456.865 43.9206 456.324 44.4118L445.604 55.1217C445.113 55.6622 445.899 56.4482 446.44 55.9569Z" fill="#575552"/>
<path d="M466.409 66.2236H113.592V67.5501H466.409V66.2236Z" fill="#DACEB6"/>
<path d="M284.711 195.038H192.758V269.664H284.711V195.038Z" fill="#DACEB6"/>
<path d="M254.292 215.509C263.522 196.372 272.725 177.277 281.996 158.167C282.314 157.495 283.305 158.136 282.946 158.781C273.716 177.918 264.513 197.013 255.242 216.122C254.924 216.794 253.933 216.154 254.292 215.509Z" fill="#DACEB6"/>
<path d="M247.143 208.843H205.002V214.591H247.143V208.843Z" fill="white"/>
<path d="M277.877 224.907H254.814V208.253H277.877V224.907ZM255.945 223.777H276.746V209.432H255.945V223.777Z" fill="white"/>
<path d="M247.143 219.16H205.002V224.908H247.143V219.16Z" fill="white"/>
<path d="M244.831 230.065H205.541C204.804 230.065 204.804 231.195 205.541 231.195H244.782C245.568 231.245 245.568 230.065 244.831 230.065Z" fill="white"/>
<path d="M229.194 244.019H205.541C204.804 244.019 204.804 245.149 205.541 245.149H229.194C229.931 245.198 229.931 244.019 229.194 244.019Z" fill="#EFEBE3"/>
<mask id="mask0" mask-type="alpha" maskUnits="userSpaceOnUse" x="176" y="30" width="366" height="366">
<rect x="176.998" y="30" width="365" height="366" fill="#C4C4C4"/>
</mask>
<g mask="url(#mask0)">
<path d="M362.095 21.1777C348.632 23.196 335.777 33.6318 329.67 51.7468C322.18 73.9968 324.913 99.8403 320.054 123.124C317.726 134.249 313.643 144.931 306.76 151.33C299.439 158.123 290.329 158.911 281.961 156.794C263.977 152.167 249.671 133.855 232.565 125.585C215.492 117.365 196.631 119.038 179.761 127.505C163.768 135.529 151.395 147.691 139.113 164.527C136.009 168.809 133.006 173.239 130.104 177.867C129.767 178.408 130.307 179.245 130.678 178.703C154.431 140.849 186.576 113.427 222.949 123.222C232.194 125.733 240.663 131.197 248.929 137.596C256.521 143.454 264.011 149.903 272.143 154.185C286.077 161.471 303.488 161.963 313.677 143.897C323.563 126.373 323.327 102.203 325.149 80.8884C326.229 68.3359 328.186 55.4388 333.348 44.9537C337.498 36.5361 343.504 30.3337 350.083 26.5433C362.095 21.1777 362.095 21.1777 362.095 21.1777Z" fill="#D24A43"/>
</g>
<path d="M290.514 157.506C290.563 161.141 288.006 163.107 284.908 163.107C281.811 163.107 279.303 160.601 279.303 157.506C279.303 154.411 281.221 151.758 284.859 151.66C287.957 151.561 290.465 154.411 290.514 157.506Z" fill="#D24A43"/>
<path d="M113.098 184.135C113.147 188.753 109.902 191.258 105.968 191.258C102.034 191.258 98.8379 188.065 98.8379 184.135C98.8379 180.204 101.247 176.864 105.87 176.716C109.803 176.569 113.049 180.204 113.098 184.135Z" fill="#D24A43"/>
<path d="M480.561 395.823H279.877C278.916 395.823 278.916 396.806 279.877 396.806H480.561C481.49 396.806 481.49 395.823 480.561 395.823Z" fill="#81766F"/>
<path d="M332.607 383.295C336.59 386.439 341.016 388.994 345.786 390.91C349.425 392.334 353.162 393.415 356.948 394.349C357.489 390.959 358.767 382.902 359.751 372.732C352.08 371.995 344.458 370.865 336.787 370.521C337.426 378.873 336.836 381.133 332.607 383.295Z" fill="#FE9587"/>
<path d="M335.608 381.037C334.87 381.971 333.838 382.707 332.412 383.395C325.38 386.883 314.119 384.673 314.119 396.07H356.703C356.703 396.07 357.342 392.435 358.178 386.49C344.656 387.227 345.295 382.462 335.608 381.037Z" fill="#81766F"/>
<path d="M338.017 190.714C331.231 229.673 328.477 357.602 329.313 375.386L359.948 378.236C359.948 378.236 364.865 322.721 362.505 311.815C362.505 311.815 378.486 195.283 377.896 182.215L338.017 190.714Z" fill="#B47F5A"/>
<path d="M416.595 383.445C416.398 383.543 416.251 383.592 416.054 383.69C423.774 387.719 432.625 390.126 441.28 390.47C440.837 386.294 439.903 380.792 438.428 372.538C430.511 371.801 417.923 363.204 410.006 362.909C412.415 365.857 421.168 381.234 416.595 383.445Z" fill="#FE9587"/>
<path d="M433.462 384.868C430.659 384.77 427.905 384.18 425.299 383.296C422.693 382.412 420.431 381.036 417.874 380.741C417.874 382.019 417.48 383.001 416.595 383.394C409.367 386.882 397.713 384.671 397.713 396.069H441.624C441.624 392.974 441.231 389.289 440.297 383.591C438.232 384.524 435.92 384.966 433.462 384.868Z" fill="#81766F"/>
<path d="M438.086 372.488L407.697 376.91C401.501 363.94 388.765 328.076 384.291 310.783C380.652 296.635 359.262 200.196 357.344 186.932H403.419C403.862 189.241 404.206 191.451 404.55 193.515C405.386 198.526 405.976 202.8 406.369 206.534C406.615 208.695 406.959 211.643 407.402 215.18C410.844 242.004 419.548 301.793 419.548 301.793C423.826 307.492 438.086 372.488 438.086 372.488Z" fill="#B47F5A"/>
<path d="M370.57 250.208C368.849 241.955 367.079 233.701 365.358 225.448C365.309 225.251 365.309 225.104 365.26 224.907C365.407 224.956 365.604 225.006 365.751 225.055C365.801 225.251 365.85 225.399 365.85 225.595C367.571 233.75 369.292 241.906 371.013 250.061C371.111 250.356 370.62 250.503 370.57 250.208Z" fill="black"/>
<path d="M365.851 225.595C365.703 225.546 365.506 225.497 365.31 225.448L356.459 222.893C356.213 222.795 356.262 222.451 356.508 222.451C356.901 222.402 362.704 224.269 365.162 224.957C365.31 225.006 365.506 225.055 365.654 225.104C365.801 225.251 365.851 225.399 365.851 225.595Z" fill="black"/>
<path d="M406.367 206.532L336.049 204.764C336.049 190.468 335.115 163.496 334.968 150.576C334.918 146.596 334.968 143.943 335.115 143.452L342.835 133.037L360.292 131.268L363.439 130.924L374.798 129.794C374.798 129.794 375.29 129.647 376.126 129.401C381.485 127.879 401.843 123.015 404.253 135.395C404.548 136.869 404.793 138.588 405.039 140.603C405.285 142.961 405.531 145.712 405.728 148.66C406.072 153.965 406.269 159.959 406.416 166.1C406.76 185.85 406.367 206.532 406.367 206.532Z" fill="#B0DBCB"/>
<path d="M387.732 51.093C389.797 49.57 391.813 47.9979 393.829 46.4258C385.765 39.5479 379.52 34.5859 379.52 34.5859L369.439 46.0819C370.865 48.7839 373.668 53.402 377.012 58.6587C380.307 55.8584 384.29 53.6476 387.732 51.093Z" fill="#FE9587"/>
<path d="M412.074 135.593C410.107 139.621 407.993 143.945 405.681 148.661C405.632 148.808 405.534 148.956 405.485 149.103L401.453 146.548L375.784 130.385L374.801 129.747C374.801 129.747 375.243 128.911 376.079 127.487C376.128 127.389 376.178 127.339 376.227 127.241C378.046 124.097 381.439 118.3 385.176 112.208C389.995 104.298 395.453 95.7501 398.797 91.6233C398.797 91.6233 385.176 71.6282 376.178 57.3811C379.177 54.8264 389.061 45.836 391.077 44.0674C401.895 53.2052 417.532 66.9119 425.154 76.3936C435.087 88.7739 431.104 96.5361 412.074 135.593Z" fill="#B0DBCB"/>
<path d="M404.402 89.9045C402.976 90.1993 401.55 90.4941 400.075 90.7888C399.731 90.838 399.878 91.4275 400.222 91.3293C401.648 91.0345 403.074 90.7397 404.55 90.4449C404.894 90.3958 404.746 89.8554 404.402 89.9045Z" fill="black"/>
<path d="M350.654 64.4555C352.966 58.6092 354.834 53.4508 355.719 50.5031L344.065 40.874C344.065 40.874 339.738 45.9833 333.936 53.2052C339.148 57.4793 344.852 61.0656 350.654 64.4555Z" fill="#FE9587"/>
<path d="M363.439 130.925C362.603 129.894 361.521 128.567 360.292 127.142C353.456 118.938 341.852 105.33 336.049 100.171C336.049 100.171 345.343 78.2601 351.342 62.7847C345.785 59.2966 340.18 55.9068 334.967 51.9766C326.313 62.7356 313.823 78.9479 308.266 89.6086C300.743 104.003 306.742 110.979 334.967 150.577C336.59 152.836 338.311 155.244 340.081 157.749L364.176 135.15L365.75 133.676C365.701 133.676 364.865 132.645 363.439 130.925Z" fill="#B0DBCB"/>
<path d="M335.458 98.943C334.966 98.2552 334.523 97.6165 334.031 96.9287C333.835 96.634 333.343 96.9287 333.54 97.2235C334.031 97.9113 334.474 98.55 334.966 99.2378C335.163 99.5325 335.654 99.2378 335.458 98.943Z" fill="black"/>
<path d="M348.196 52.5661C348.442 53.2538 349.376 53.7451 350.064 53.4995C350.212 53.4504 350.409 53.4012 350.556 53.303L350.605 53.5977C350.654 53.9908 350.802 54.3347 351.048 54.5803C350.851 55.8576 350.556 57.135 350.163 58.3632C350.064 58.7071 350.064 59.051 350.212 59.3457C352.13 56.4472 354.49 53.7943 355.818 50.5518C355.965 50.2079 356.162 49.864 356.358 49.5201C356.358 49.471 356.358 49.4219 356.358 49.4219C359.161 43.723 358.03 26.7738 355.719 27.7073C353.261 28.6898 353.801 30.8515 353.949 32.9148C353.261 33.0622 351.589 34.4378 351.392 34.6834C351.097 34.0448 350.802 33.4552 350.507 32.8657C352.179 30.2619 353.261 27.3142 353.752 24.1701C354.047 22.2049 351.097 21.3698 350.753 23.2857C350.605 23.2857 350.458 23.2857 350.359 23.3349C346.573 25.8404 344.164 28.9355 343.229 33.1605C342.295 37.4838 342.098 41.8561 342.197 46.2777C342.049 47.8498 341.852 49.471 341.705 51.0431C341.607 51.8783 342.148 52.3695 342.787 52.5169C343.229 52.9591 343.918 53.1065 344.508 52.8608C344.754 52.8117 345 52.7134 345.196 52.5661C345.344 52.7134 345.491 52.9099 345.688 53.0573C346.573 53.8434 347.704 53.5486 348.196 52.5661Z" fill="#FE9587"/>
<path d="M349.325 32.2765C349.227 33.1608 349.129 34.0451 349.03 34.9785C348.981 35.3224 349.571 35.3224 349.62 34.9785C349.719 34.0942 349.817 33.2099 349.915 32.2765C349.915 31.9326 349.325 31.9326 349.325 32.2765Z" fill="black"/>
<path d="M347.654 33.9963C347.408 33.3576 348.047 32.8172 348.342 32.1786C348.735 31.3925 348.932 30.5573 349.08 29.673C349.129 29.3291 348.588 29.1326 348.539 29.5257C348.293 31.0486 347.752 32.3751 346.818 33.5542C346.719 33.6524 346.67 33.8489 346.818 33.9472C347.801 34.8315 348.195 36.0106 347.949 37.337C347.85 37.6809 348.44 37.8283 348.49 37.4844C348.637 36.8949 348.637 36.3053 348.539 35.7158C348.391 35.028 347.9 34.635 347.654 33.9963Z" fill="black"/>
<path d="M375.34 27.461C375.438 35.9111 369.488 40.5291 362.26 40.5291C355.031 40.5291 349.18 34.6829 349.18 27.461C349.18 20.2392 353.654 14.0982 362.112 13.8034C369.341 13.5578 375.241 20.2392 375.34 27.461Z" fill="#D24A43"/>
<path d="M385.911 4.17491C383.354 6.58219 380.797 8.98946 378.191 11.3967C377.65 11.888 378.486 12.7232 379.027 12.2319C381.584 9.82463 384.141 7.41736 386.747 5.01009C387.239 4.46968 386.452 3.6345 385.911 4.17491Z" fill="#D24A43"/>
<path d="M349.131 15.4261L345.098 11.3976C344.558 10.8572 343.771 11.6923 344.263 12.2327L348.295 16.2612C348.836 16.7525 349.622 15.9173 349.131 15.4261Z" fill="#D24A43"/>
<path d="M388.812 17.0463C386.304 17.4394 383.845 17.8324 381.337 18.2254C380.6 18.3237 380.895 19.4536 381.632 19.3554C384.14 18.9623 386.599 18.5693 389.107 18.1763C389.844 18.0289 389.549 16.9481 388.812 17.0463Z" fill="#D24A43"/>
<path d="M380.451 37.4346C380.5 37.238 380.549 37.0415 380.5 36.7959C380.008 34.9782 379.565 33.1113 379.074 31.2936C379.123 26.4299 376.566 21.6153 372.091 17.3903C370.665 16.0639 369.682 17.4886 370.813 19.3063C371.55 21.3206 372.583 23.0892 374.058 24.6613C374.058 24.8578 373.271 30.9497 373.271 33.9465C373.271 34.3395 367.666 37.0907 366.338 39.6453C366.485 42.986 368.305 45.9828 371.501 47.7514C372.681 48.3901 373.566 47.0637 372.976 46.1302C373.075 46.0811 373.173 45.9828 373.271 45.8846C374.058 46.0811 374.992 45.4916 374.697 44.509C374.697 44.4599 374.648 44.4107 374.648 44.3616C375.337 44.3616 376.025 43.7721 375.877 42.986C376.074 42.986 376.32 42.8878 376.468 42.7895L376.517 42.8386C377.058 43.4282 378.287 43.1825 378.434 42.3474C378.631 41.1192 378.68 39.891 378.68 38.7119C379.467 39.2032 380.795 38.6136 380.451 37.4346Z" fill="#FE9587"/>
<path d="M351.096 22.8926C350.702 22.8435 348.736 24.563 348.244 25.2999C348.047 25.5947 348.047 25.9386 348.145 26.1842C347.654 26.7738 347.113 27.3633 346.523 27.9037C345.441 28.8863 347.064 30.5075 348.145 29.5249C349.768 28.0511 351.145 26.3807 352.325 24.563C352.915 23.6296 351.981 22.7944 351.096 22.8926Z" fill="#FE9587"/>
<path d="M376.177 127.584C373.177 122.524 367.572 112.944 367.326 112.108L356.262 115.547L359.507 124.587L361.376 129.844L362.851 133.921L370.374 132.3C371.997 130.433 374.062 128.959 376.177 127.584Z" fill="#FE9587"/>
<path d="M365.408 112.698L356.262 115.548L359.261 123.899C362.31 120.853 364.916 116.923 365.408 112.698Z" fill="black"/>
<path d="M377.552 107.981C378.29 102.282 366.783 94.2746 362.85 98.3031C359.85 101.3 352.081 108.129 351.736 112.698C351.294 118.691 358.424 121.246 363.538 119.821C368.554 118.446 376.765 113.582 377.552 107.981Z" fill="#FE9587"/>
<path d="M374.455 113.484C376.077 111.814 377.307 109.947 377.553 107.982C378.044 104.346 373.52 99.7774 369.144 98.0088C369.095 97.8614 368.996 97.7632 368.898 97.6158C368.406 96.9771 367.521 96.535 366.833 96.6824C366.194 95.8472 365.013 95.405 363.981 95.9946C362.555 96.7315 362.604 98.5492 362.555 98.6475C363.44 100.17 365.21 101.644 366.341 102.676C368.062 104.297 370.275 106.017 371.898 106.901C371.799 106.95 369.193 111.814 374.455 113.484Z" fill="black"/>
<path d="M375.586 116.972C376.226 115.056 374.554 112.403 371.8 112.502C370.423 114.221 368.948 115.842 367.473 117.513C368.014 118.643 369.882 120.117 371.603 120.117C373.619 120.067 374.898 119.036 375.586 116.972Z" fill="#FE9587"/>
<path d="M360.637 133.381C359.113 131.121 359.703 128.714 360.244 127.142C362.407 127.338 373.963 127.387 376.225 127.289C376.225 127.338 374.553 133.086 369.98 135.199C367.177 136.525 362.161 135.641 360.637 133.381Z" fill="#FE9587"/>
<path d="M372.832 116.481L370.963 116.334C370.619 116.285 370.619 116.874 370.963 116.923L372.832 117.071C373.225 117.071 373.225 116.481 372.832 116.481Z" fill="black"/>
<path d="M359.163 108.473C358.622 108.227 358.032 107.982 357.687 107.49C357.392 107.048 357.392 106.311 357.982 106.115C358.327 106.017 358.179 105.476 357.835 105.574C357.146 105.771 356.802 106.508 356.95 107.196C357.097 108.129 358.081 108.62 358.867 108.964C359.212 109.112 359.507 108.62 359.163 108.473Z" fill="black"/>
<path d="M360.292 113.533C359.85 113.926 359.161 114.024 358.62 113.778C358.276 113.631 357.981 114.122 358.325 114.27C359.161 114.614 359.997 114.515 360.686 113.926C360.981 113.68 360.587 113.287 360.292 113.533Z" fill="black"/>
<path d="M367.274 106.116C367.176 105.919 367.078 105.723 366.979 105.526C366.635 104.887 365.652 105.428 365.996 106.116C366.094 106.312 366.193 106.509 366.291 106.705C366.586 107.344 367.569 106.754 367.274 106.116Z" fill="black"/>
<path d="M361.374 100.712C361.03 100.564 360.686 100.417 360.391 100.27C360.096 100.171 359.752 100.171 359.604 100.466C359.456 100.712 359.506 101.105 359.801 101.252C360.145 101.4 360.489 101.547 360.784 101.694C361.079 101.793 361.423 101.793 361.571 101.498C361.718 101.301 361.669 100.859 361.374 100.712Z" fill="black"/>
<path d="M365.26 107.539C364.867 107.834 364.523 108.129 364.129 108.473C363.834 108.718 364.277 109.111 364.523 108.866C364.916 108.571 365.26 108.276 365.654 107.932C365.949 107.736 365.506 107.294 365.26 107.539Z" fill="black"/>
<path d="M359.852 102.233C359.459 102.528 359.114 102.823 358.721 103.166C358.426 103.412 358.868 103.805 359.114 103.56C359.508 103.265 359.852 102.97 360.245 102.626C360.54 102.38 360.147 101.987 359.852 102.233Z" fill="black"/>
<path d="M84.3414 383.686C81.686 382.311 89.3078 364.084 96.2904 346.251C87.6851 345.71 79.0307 345.514 70.4745 344.679C66.4423 366.049 62.4102 393.07 62.4102 396.263C62.4102 396.263 91.1764 387.174 84.3414 383.686Z" fill="#FFA79B"/>
<path d="M68.3105 350.525C73.6212 350.426 95.7983 351.261 98.7487 351.36C100.961 342.222 104.305 325.617 105.682 317.904C108.19 303.558 120.778 200.438 122.598 187.174H79.1286C78.7352 189.483 78.2435 191.644 78.0468 193.757C77.6534 197.785 77.3584 201.667 77.0634 205.449C74.3097 240.674 74.4572 268.137 75.834 320.949C74.0638 325.961 70.6217 337.751 68.3105 350.525Z" fill="#D24A43"/>
<path d="M84.3414 383.685C84.2922 383.636 84.1938 383.587 84.1447 383.538C81.7843 384.618 79.2274 385.011 76.4245 384.717C72.2448 384.274 68.2126 383.046 64.0329 383.341C63.0494 390.121 62.4102 395.034 62.4102 396.262H94.0776C94.9136 387.566 91.1764 387.173 84.3414 383.685Z" fill="#575552"/>
<path d="M155.444 382.605C152.838 380.198 154.411 363.888 155.837 346.447C147.38 346.742 138.971 346.889 130.562 346.595C131.693 368.211 134.496 396.312 134.496 396.312H174.671C175.359 383.441 162.623 389.238 155.444 382.605Z" fill="#FFA79B"/>
<path d="M127.858 352.146C137.84 352.44 148.264 352.293 156.919 352.44C157.755 334.754 157.656 325.174 157.214 314.808C155.788 282.777 147.969 233.894 143.15 204.712C142.265 199.357 141.478 194.641 140.839 190.858L96.0426 184.472C95.4525 197.54 130.365 325.322 130.365 325.322C129.775 330.48 128.398 341.092 127.858 352.146Z" fill="#D24A43"/>
<path d="M155.888 382.998C152.937 383.833 149.938 384.374 146.84 384.521C142.217 384.767 137.743 383.588 133.219 383.195C133.907 390.957 134.448 396.263 134.448 396.263H174.623C175.36 383.686 163.165 388.992 155.888 382.998Z" fill="#575552"/>
<path d="M111.682 256.642C110.502 251.09 109.322 245.49 108.142 239.938C108.092 239.742 108.043 239.545 107.994 239.349C108.191 239.349 108.388 239.398 108.584 239.447C108.633 239.643 108.683 239.84 108.683 240.036C109.863 245.539 110.994 251.041 112.174 256.543C112.321 256.838 111.78 256.986 111.682 256.642Z" fill="black"/>
<path d="M108.779 239.985C108.583 239.936 108.386 239.936 108.189 239.887C103.223 239.248 98.2071 238.659 93.2406 238.02C92.8964 237.971 92.8964 237.382 93.2406 237.431C98.1579 238.02 103.124 238.659 108.042 239.248C108.238 239.248 108.435 239.297 108.632 239.347C108.681 239.592 108.73 239.789 108.779 239.985Z" fill="black"/>
<path d="M125.449 113.433C125.105 113.777 121.958 130.726 121.958 130.726L107.943 124.192L116.106 109.798L125.449 113.433Z" fill="#FFA79B"/>
<path d="M124.267 118.591C124.808 115.791 125.299 113.58 125.447 113.482L122.005 112.155C121.857 114.513 122.595 117.117 124.267 118.591Z" fill="black"/>
<path d="M111.78 94.469C113.256 90.7844 120.287 89.0649 124.959 90.1949C126.975 90.6861 128.008 89.3106 128.45 90.9809C129.532 95.0585 132.974 108.372 131.45 111.418C128.794 116.773 121.615 115.496 118.025 111.762C114.337 107.979 109.715 99.7257 111.78 94.469Z" fill="#FFA79B"/>
<path d="M127.908 87.5911C125.843 86.9524 122.745 88.5736 121.417 89.8509C117.336 89.9492 112.91 91.6196 111.779 94.469C110.402 98.0062 101.207 105.179 103.666 111.811C105.19 115.938 115.664 120.458 119.598 117.461C124.269 113.924 122.401 102.329 122.941 101.445C124.81 99.0379 124.122 95.8937 122.991 93.6338C124.367 94.2233 128.203 92.8478 128.941 91.1774C129.875 88.7701 128.547 87.7876 127.908 87.5911Z" fill="#697CCC"/>
<path d="M116.893 104.196C117.188 101.936 120.188 100.07 122.991 101.445C123.581 103.803 124.269 106.161 125.007 108.52C123.876 109.404 121.27 110.043 119.5 109.207C117.434 108.274 116.598 106.604 116.893 104.196Z" fill="#FFA79B"/>
<path d="M131.842 100.511C131.547 99.627 130.515 99.2339 129.679 99.627C129.384 99.7743 129.334 100.167 129.482 100.364C129.482 100.413 129.531 100.413 129.531 100.413C129.433 100.462 129.384 100.511 129.285 100.56C128.744 101.003 129.531 101.789 130.072 101.346C130.072 101.346 130.121 101.346 130.072 101.396C129.63 101.69 129.777 102.427 130.367 102.427C131.301 102.427 132.137 101.445 131.842 100.511Z" fill="#FFA79B"/>
<path d="M127.761 94.0759C127.318 94.3706 126.876 94.6654 126.482 94.9111C125.843 95.3041 126.433 96.2866 127.072 95.8936C127.515 95.5988 127.958 95.3041 128.351 95.0584C128.99 94.6654 128.4 93.6337 127.761 94.0759Z" fill="#697CCC"/>
<path d="M128.596 97.5643C128.547 98.1047 128.497 98.596 128.448 99.1364C128.399 99.4803 128.989 99.4803 129.038 99.1364C129.087 98.596 129.137 98.1047 129.186 97.5643C129.186 97.1713 128.645 97.1713 128.596 97.5643Z" fill="black"/>
<path d="M130.366 107.34C129.678 107.34 129.039 106.898 128.793 106.259C128.645 105.915 128.104 106.063 128.252 106.407C128.596 107.291 129.432 107.93 130.366 107.93C130.71 107.93 130.71 107.34 130.366 107.34Z" fill="#D24A43"/>
<path d="M122.99 105.376L121.269 103.951C120.974 103.705 120.581 104.098 120.876 104.344C121.466 104.835 122.007 105.277 122.597 105.769C122.843 106.014 123.236 105.572 122.99 105.376Z" fill="#D24A43"/>
<path d="M143.153 204.761C144.186 191.939 145.12 172.681 145.858 157.598C147.333 125.862 135.876 123.897 115.223 124.044C86.0635 124.24 84.5883 123.307 81.2445 148.362C78.8842 166.294 77.4582 193.02 77.0156 205.4C81.3429 205.695 132.04 204.565 143.153 204.761Z" fill="#DACEB6"/>
<path d="M127.516 165.508C125.353 170.568 125.648 176.66 127.566 182.015C129.287 186.879 132.483 190.465 136.613 191.89C134.45 185.65 131.844 179.558 129.926 173.319C129.09 170.765 128.303 168.161 127.516 165.508Z" fill="black"/>
<path d="M138.383 140.207L154.02 136.915C154.02 136.915 166.51 161.774 165.821 162.019C165.084 162.314 150.873 166.343 150.43 166.048C150.037 165.753 138.383 140.207 138.383 140.207Z" fill="#DACEB6"/>
<path d="M154.07 136.866C159.676 135.294 169.166 133.133 169.166 133.133C169.166 133.133 171.92 126.304 175.362 121.489C175.952 120.654 180.87 118.296 181.706 117.952C190.163 114.906 184.558 138.979 184.558 138.979C184.558 138.979 163.02 157.795 162.725 157.353C162.381 156.96 154.07 136.866 154.07 136.866Z" fill="#FFA79B"/>
<path d="M174.427 130.283C174.378 128.268 174.033 126.451 173.296 124.584C173.788 123.552 174.181 122.471 174.427 121.292C174.574 120.604 173.788 119.868 173.148 120.359C171.919 121.292 170.985 122.373 170.395 123.65C170.345 123.7 170.296 123.749 170.296 123.847C168.821 126.893 168.182 130.037 168.378 133.476C168.428 133.967 168.723 134.213 169.116 134.262C169.46 134.508 169.903 134.508 170.198 134.262C170.493 134.802 171.329 135.048 171.673 134.36C171.87 134.016 172.017 133.722 172.165 133.378C172.361 133.28 172.509 133.132 172.607 132.837C172.804 132.346 173.001 131.757 173.148 131.118C173.689 131.265 174.427 130.921 174.427 130.283Z" fill="#FFA79B"/>
<path d="M173.248 125.666C173.1 125.322 172.608 125.617 172.756 125.961C173.444 127.484 173.788 129.105 173.838 130.775C173.838 131.119 174.428 131.168 174.428 130.775C174.329 129.007 173.936 127.287 173.248 125.666Z" fill="#D24A43"/>
<path d="M196.308 123.011C196.407 130.184 191.342 134.114 185.195 134.114C179.049 134.114 174.082 129.152 174.082 123.011C174.082 116.87 177.868 111.663 185.048 111.417C191.194 111.221 196.21 116.87 196.308 123.011Z" fill="#D24A43"/>
<path d="M181.063 96.237C180.916 95.5001 179.834 95.844 179.932 96.5318C180.522 99.3812 181.063 102.28 181.653 105.129C181.801 105.866 182.882 105.571 182.784 104.834C182.243 101.985 181.653 99.1355 181.063 96.237Z" fill="#D24A43"/>
<path d="M199.995 101.199C197.979 103.459 195.913 105.768 193.897 108.028C193.406 108.569 194.192 109.404 194.733 108.863L200.831 102.035C201.273 101.494 200.487 100.659 199.995 101.199Z" fill="#D24A43"/>
<path d="M170.442 116.281C169.311 115.593 168.131 114.954 167 114.267C166.361 113.874 165.771 114.905 166.41 115.249C167.541 115.937 168.721 116.576 169.852 117.263C170.491 117.656 171.082 116.674 170.442 116.281Z" fill="#D24A43"/>
<path d="M149.791 199.161C154.462 194.15 159.084 189.09 163.264 183.686C163.117 181.966 162.822 180.787 162.822 180.787C162.822 180.787 157.363 163.494 149.742 141.141C142.562 120.114 138.481 123.602 115.222 123.995C115.222 123.995 115.124 125.42 115.025 127.876C129.777 149.935 141.628 173.909 149.791 199.161Z" fill="#DACEB6"/>
<path d="M195.326 125.027C195.376 123.7 194.294 122.767 193.654 123.258C193.802 122.227 191.835 120.802 191.245 121.834C191.048 120.998 189.868 120.311 188.59 121.981C187.852 122.914 187.213 125.567 186.869 127.09C186.574 127.532 183.574 130.038 182.689 130.824C181.607 131.02 181.656 125.027 181.705 123.848C181.804 121.932 180.181 120.704 179.689 121.834C178.804 123.799 177.772 126.894 177.624 129.055C177.526 130.038 177.034 134.312 174.379 137.554C171.084 140.207 167.298 143.597 163.561 147.085C164.052 157.697 165.527 168.161 167.888 178.478C176.493 166.442 184.656 152.489 188.344 144.629C188.688 144.285 193.163 137.948 193.31 137.8C195.228 135.147 196.851 131.07 197.047 127.483C196.9 126.059 196.211 124.536 195.326 125.027Z" fill="#FFA79B"/>
<path d="M188.392 130.726C188.146 130.972 187.703 130.628 187.949 130.382C190.014 128.27 191.047 125.519 190.85 122.62C190.801 122.276 191.391 122.178 191.44 122.571C191.588 125.568 190.555 128.515 188.392 130.726Z" fill="#D24A43"/>
<path d="M190.852 131.807C192.475 129.449 193.262 126.796 193.114 123.996C193.114 123.603 193.655 123.652 193.704 124.045C193.803 126.993 192.967 129.744 191.344 132.151C191.147 132.446 190.656 132.102 190.852 131.807Z" fill="#D24A43"/>
<path d="M192.768 133.134C194.145 130.825 194.981 128.368 195.226 125.666C195.276 125.273 195.816 125.371 195.816 125.764C195.571 128.565 194.735 131.119 193.259 133.478C193.014 133.821 192.571 133.478 192.768 133.134Z" fill="#D24A43"/>
<path d="M166.903 143.941C160.51 149.739 153.872 156.273 149.889 160.055C141.775 167.818 142.464 200.144 142.464 200.144C149.495 204.664 158.543 199.554 181.95 164.526C176.983 159.269 170.935 149.935 166.903 143.941Z" fill="#DACEB6"/>
<path d="M177.425 132.297C177.376 131.953 176.835 131.904 176.835 132.297C177.032 134.41 174.77 136.178 173.491 137.603C172.114 139.126 170.787 140.649 169.41 142.172C169.164 142.467 169.557 142.86 169.803 142.565C171.524 140.6 173.245 138.684 174.966 136.719C176.147 135.49 177.573 134.164 177.425 132.297Z" fill="#D24A43"/>
<path d="M155.494 157.501C155.248 156.911 155.002 156.272 154.756 155.683C154.658 155.486 154.609 155.29 154.51 155.093C152.543 150.18 150.576 145.268 148.609 140.355C148.462 140.011 149.052 139.864 149.15 140.207C151.068 145.022 152.986 149.886 154.953 154.7C155.051 154.897 155.1 155.093 155.199 155.29C155.494 155.978 155.74 156.665 156.035 157.402C156.182 157.697 155.641 157.844 155.494 157.501Z" fill="white"/>
<path d="M158.888 151.851C157.659 152.981 156.429 154.111 155.2 155.241L154.758 155.634C154.659 155.437 154.61 155.241 154.512 155.044C154.659 154.897 154.807 154.799 154.954 154.651C156.134 153.57 157.315 152.49 158.446 151.409C158.79 151.212 159.183 151.605 158.888 151.851Z" fill="white"/>
<path d="M206.144 395.869H49.2329C48.4953 395.869 48.4953 396.999 49.2329 396.999H206.144C206.882 396.999 206.882 395.869 206.144 395.869Z" fill="#81766F"/>
<path d="M259.038 93.9322H212.668C212.373 93.9322 212.078 93.6866 212.078 93.3427V61.9499C212.078 61.6551 212.324 61.3604 212.668 61.3604H259.038C259.333 61.3604 259.628 61.606 259.628 61.9499V93.3427C259.579 93.6375 259.333 93.9322 259.038 93.9322Z" fill="#FECA55"/>
<path d="M274.577 77.8679L265.972 69.8601C265.431 69.3688 264.595 70.1548 265.136 70.6953C266.415 71.9235 267.742 73.1025 269.021 74.3307C269.611 74.8711 272.856 77.1802 272.905 77.9662C273.053 79.1453 270.693 80.3735 269.857 81.1104C268.283 82.4368 266.71 83.7142 265.185 85.0406C264.595 85.5319 265.431 86.318 266.021 85.8758C268.873 83.5177 271.725 81.1104 274.528 78.7522C274.823 78.5066 274.774 78.0645 274.577 77.8679Z" fill="#697CCC"/>
<path d="M197.325 77.8679L205.931 69.8601C206.472 69.3688 207.308 70.1548 206.767 70.6953C205.488 71.9235 204.161 73.1025 202.882 74.3307C202.292 74.8711 199.047 77.1802 198.997 77.9662C198.85 79.1453 201.21 80.3735 202.046 81.1104C203.62 82.4368 205.193 83.7142 206.718 85.0406C207.308 85.5319 206.472 86.318 205.882 85.8758C203.03 83.5177 200.178 81.1104 197.375 78.7522C197.129 78.5066 197.129 78.0645 197.325 77.8679Z" fill="#697CCC"/>
<path d="M255.598 64.6523H216.309V68.8774H255.598V64.6523Z" fill="white"/>
<path d="M251.365 70.9404H216.895C216.157 70.9404 216.157 72.0704 216.895 72.0704H251.365C252.103 72.1195 252.103 70.9404 251.365 70.9404Z" fill="white"/>
<path d="M255.201 80.9141H243.301V88.7745H255.201V80.9141Z" fill="white"/>
<path d="M218.961 56.9883H212.077C211.339 56.9883 211.339 58.1182 212.077 58.1182H218.961C219.698 58.1182 219.698 56.9883 218.961 56.9883Z" fill="#FF5950"/>
</g>
<defs>
<clipPath id="clip0">
<rect width="556" height="397" fill="white"/>
</clipPath>
</defs>
</svg>
