<svg width="1026" height="638" viewBox="0 0 1026 638" fill="none" xmlns="http://www.w3.org/2000/svg">
<path d="M820.73 432.519C814.825 432.519 809.98 427.67 809.98 421.76C809.98 415.849 814.825 411 820.73 411C826.862 411 830.874 414.94 831.48 421.608C831.707 424.26 830.798 426.836 828.906 428.806C826.862 431.231 823.834 432.519 820.73 432.519ZM820.73 413.197C815.961 413.197 812.1 417.062 812.1 421.835C812.1 426.609 815.961 430.473 820.73 430.473C823.228 430.473 825.726 429.412 827.392 427.594C828.83 426.003 829.587 424.033 829.36 421.987C828.906 416.304 825.802 413.197 820.73 413.197Z" fill="#E6DFD1"/>
<path d="M137.936 572.656C124.31 572.656 113.258 561.593 113.258 547.954C113.258 534.316 124.31 523.253 137.936 523.253C152.244 523.253 161.252 532.194 162.615 547.879C163.145 553.864 161.101 559.699 156.786 564.397C152.092 569.549 144.976 572.656 137.936 572.656ZM137.936 525.375C125.521 525.375 115.377 535.528 115.377 547.954C115.377 560.381 125.521 570.534 137.936 570.534C144.447 570.534 150.881 567.731 155.272 562.957C159.132 558.714 161.025 553.41 160.571 548.03C159.284 533.634 151.033 525.375 137.936 525.375Z" fill="#E6DFD1"/>
<path d="M774.197 107.875C764.658 107.875 756.861 100.071 756.861 90.5235C756.861 80.9763 764.658 73.1719 774.197 73.1719C784.265 73.1719 790.548 79.4609 791.532 90.4477C791.911 94.6909 790.472 98.7825 787.444 102.116C784.114 105.753 779.117 107.875 774.197 107.875ZM774.197 75.2935C765.794 75.2935 758.981 82.1129 758.981 90.5235C758.981 98.9341 765.794 105.753 774.197 105.753C778.587 105.753 782.978 103.859 785.93 100.601C788.504 97.7975 789.791 94.2363 789.488 90.5992C788.58 80.749 783.129 75.2935 774.197 75.2935Z" fill="#E6DFD1"/>
<path d="M128.924 121.742C125.896 125.682 122.868 129.698 119.84 133.638C119.008 134.698 120.824 135.759 121.657 134.698C124.685 130.758 127.713 126.742 130.741 122.802C131.574 121.666 129.757 120.681 128.924 121.742Z" fill="#E6DFD1"/>
<path d="M133.164 130.076L125.443 141.29C124.686 142.427 126.502 143.488 127.259 142.351C129.833 138.638 132.407 134.925 134.981 131.137C135.738 130.076 133.921 129.015 133.164 130.076Z" fill="#E6DFD1"/>
<path d="M158.518 43.9241C152.462 36.7258 146.33 29.5275 140.274 22.3293C139.365 21.2685 137.927 22.7839 138.76 23.8447L157.004 45.4395C157.912 46.4245 159.351 44.9091 158.518 43.9241Z" fill="#E6DFD1"/>
<path d="M784.994 525.111C781.814 530.642 775.834 529.581 772.125 525.414C769.929 522.914 768.188 520.413 765.16 518.822C760.088 516.094 754.335 516.17 749.187 518.519C747.976 519.049 749.036 520.868 750.247 520.337C755.697 517.913 762.359 518.519 766.977 522.535C769.702 524.884 771.216 528.596 774.547 530.263C779.089 532.536 784.388 530.491 786.886 526.247C787.416 524.959 785.599 523.899 784.994 525.111Z" fill="#E6DFD1"/>
<path d="M782.341 536.326C779.162 541.857 773.182 540.796 769.472 536.629C767.277 534.128 765.536 531.628 762.508 530.037C757.436 527.309 751.683 527.385 746.535 529.734C745.324 530.264 746.383 532.082 747.595 531.552C753.045 529.127 759.707 529.734 764.325 533.749C767.05 536.098 768.564 539.811 771.895 541.478C776.437 543.751 781.736 541.705 784.234 537.462C784.839 536.25 783.023 535.189 782.341 536.326Z" fill="#E6DFD1"/>
<path d="M840.564 444.339C833.827 451.765 827.089 459.266 820.276 466.692C819.368 467.677 820.882 469.192 821.79 468.207C828.528 460.782 835.265 453.28 842.078 445.855C842.986 444.87 841.472 443.354 840.564 444.339Z" fill="#E6DFD1"/>
<path d="M1016.23 422.553C1008.58 443.996 976.256 437.404 967.096 458.014C966.566 459.226 968.383 460.287 968.913 459.075C978.072 438.465 1010.4 445.209 1018.27 423.084C1018.72 421.796 1016.68 421.265 1016.23 422.553Z" fill="#E6DFD1"/>
<path d="M1023.57 438.313C1015.92 459.756 983.599 453.164 974.44 473.774C973.91 474.986 975.726 476.047 976.256 474.835C985.416 454.225 1017.74 460.969 1025.61 438.843C1026.07 437.555 1024.02 437.025 1023.57 438.313Z" fill="#E6DFD1"/>
<path d="M918.874 556.248C909.109 545.716 899.419 535.184 889.654 524.652C888.745 523.667 887.231 525.182 888.139 526.167C897.905 536.699 907.595 547.232 917.36 557.764C918.344 558.673 919.782 557.233 918.874 556.248Z" fill="#E6DFD1"/>
<path d="M725.676 348.297C723.253 351.555 720.755 354.813 718.332 358.071C717.5 359.132 719.317 360.193 720.149 359.132C722.572 355.874 725.07 352.616 727.492 349.358C728.249 348.297 726.433 347.236 725.676 348.297Z" fill="#E6DFD1"/>
<path d="M807.504 256.69C803.644 258.357 799.783 259.948 795.998 261.615C794.787 262.145 795.846 263.964 797.058 263.433C800.918 261.766 804.779 260.175 808.564 258.508C809.775 257.978 808.716 256.159 807.504 256.69Z" fill="#E6DFD1"/>
<path d="M813.565 263.206C808.191 265.631 802.816 267.98 797.441 270.405C796.23 270.935 797.29 272.753 798.501 272.223C803.876 269.798 809.25 267.449 814.625 265.025C815.836 264.494 814.777 262.676 813.565 263.206Z" fill="#E6DFD1"/>
<path d="M89.7871 635.167C81.0816 630.772 72.3003 626.453 63.5947 622.059C62.3835 621.452 61.3236 623.271 62.5349 623.877C71.2405 628.272 80.0217 632.591 88.7273 636.986C89.9385 637.592 90.9984 635.773 89.7871 635.167Z" fill="#E6DFD1"/>
<path d="M214.919 583.794C212.648 586.446 210.377 589.023 208.106 591.675C207.198 592.66 208.712 594.175 209.62 593.19C211.891 590.538 214.162 587.962 216.433 585.31C217.266 584.325 215.752 582.809 214.919 583.794Z" fill="#E6DFD1"/>
<path d="M741.573 95.4484C739.302 98.2519 737.031 101.055 734.76 103.859C733.927 104.92 735.365 106.359 736.274 105.374C738.545 102.571 740.816 99.7673 743.087 96.9638C743.919 95.903 742.481 94.3876 741.573 95.4484Z" fill="#E6DFD1"/>
<path d="M609.856 0.20443C601.302 -0.856365 593.051 2.25025 587.298 8.61502C586.389 9.60004 587.903 11.1155 588.812 10.1304C594.262 4.14452 601.832 1.34099 609.856 2.32602C611.143 2.47756 611.143 0.355972 609.856 0.20443Z" fill="#E6DFD1"/>
<path d="M613.484 7.02377C604.929 5.96297 596.678 9.06959 590.925 15.4344C590.016 16.4194 591.53 17.9348 592.439 16.9498C597.889 10.9639 605.459 8.16033 613.484 9.14536C614.846 9.2969 614.846 7.17531 613.484 7.02377Z" fill="#E6DFD1"/>
<path d="M56.3679 260.741C53.3399 277.183 32.2951 274.076 20.1829 275.44C11.553 276.425 2.62035 280.593 0.0465281 289.534C-0.331976 290.822 1.71194 291.352 2.09045 290.064C6.63249 274.304 27.0717 278.092 39.2595 276.425C47.8137 275.213 56.6707 270.439 58.3361 261.271C58.6389 259.983 56.6707 259.453 56.3679 260.741Z" fill="#E6DFD1"/>
<path d="M61.6687 271.273C58.6406 287.716 37.5958 284.609 25.4837 285.973C16.8538 286.958 7.92114 291.126 5.34731 300.067C4.96881 301.355 7.01272 301.885 7.39123 300.597C11.9333 284.837 32.3725 288.625 44.5603 286.958C53.1145 285.746 61.9715 280.972 63.6369 271.804C63.864 270.516 61.8958 269.91 61.6687 271.273Z" fill="#E6DFD1"/>
</svg>
