<svg width="519" height="422" viewBox="0 0 519 422" fill="none" xmlns="http://www.w3.org/2000/svg">
<rect width="527" height="468" transform="translate(-8.5 0.0146484)" fill="#FBF8F4"/>
<path d="M385.336 51.9297H103.734V211.143H385.336V51.9297Z" fill="#E6DFD1"/>
<path d="M168.418 187.806C155.423 174.785 142.469 161.806 129.474 148.785C128.925 148.235 128.123 149.081 128.63 149.63C141.625 162.651 154.579 175.63 167.575 188.651C168.123 189.159 168.967 188.356 168.418 187.806Z" fill="white"/>
<path d="M129.474 188.652C142.469 175.631 155.423 162.652 168.418 149.631C168.967 149.081 168.123 148.278 167.575 148.785C154.579 161.806 141.625 174.785 128.63 187.806C128.123 188.356 128.925 189.159 129.474 188.652Z" fill="white"/>
<path d="M121.286 152.632C120.948 152.632 120.695 152.378 120.695 152.04V142.19C120.695 141.851 120.948 141.598 121.286 141.598H131.286C131.623 141.598 131.877 141.851 131.877 142.19C131.877 142.528 131.623 142.781 131.286 142.781H121.877V152.04C121.835 152.378 121.581 152.632 121.286 152.632Z" fill="#C7C9BC"/>
<path d="M176.18 152.759C175.842 152.759 175.589 152.505 175.589 152.167V142.739H166.349C166.011 142.739 165.758 142.486 165.758 142.148C165.758 141.809 166.011 141.556 166.349 141.556H176.18C176.517 141.556 176.77 141.809 176.77 142.148V152.167C176.728 152.505 176.475 152.759 176.18 152.759Z" fill="#C7C9BC"/>
<path d="M131.16 195.458H121.329C120.991 195.458 120.738 195.204 120.738 194.866V184.847C120.738 184.509 120.991 184.255 121.329 184.255C121.667 184.255 121.92 184.509 121.92 184.847V194.274H131.16C131.498 194.274 131.751 194.528 131.751 194.866C131.751 195.204 131.498 195.458 131.16 195.458Z" fill="#C7C9BC"/>
<path d="M371.452 169.416H316.516V198.291H371.452V169.416Z" fill="#FFA79B"/>
<path d="M378.543 63.7244C376.265 61.4415 373.986 59.1586 371.708 56.8757C371.159 56.3261 370.358 57.1716 370.864 57.7212C373.143 60.0041 375.421 62.287 377.699 64.57C378.248 65.0773 379.092 64.274 378.543 63.7244Z" fill="#FFA79B"/>
<path d="M371.748 64.5284C374.027 62.2455 376.305 59.9625 378.584 57.6796C379.132 57.13 378.289 56.3268 377.74 56.8341C375.462 59.117 373.183 61.3999 370.905 63.6829C370.356 64.2747 371.2 65.078 371.748 64.5284Z" fill="#FFA79B"/>
<path d="M385.336 68.248H103.734V69.4318H385.336V68.248Z" fill="white"/>
<path d="M371.452 77.2109H316.516V106.086H371.452V77.2109Z" fill="white"/>
<path d="M371.452 77.2109H316.516V106.086H371.452V77.2109Z" fill="white"/>
<path d="M306.306 77.2109H208.332V140.034H306.306V77.2109Z" fill="#FBF8F4"/>
<path d="M291.711 85.9204C282.512 88.5838 279.854 98.3497 275.761 105.833C273.187 110.525 269.052 115.387 263.314 115.641C258.546 115.852 255.044 112.343 252.006 109.172C246.648 103.507 240.825 98.9415 232.47 100.463C224.749 101.901 219.222 108.623 218.504 116.359C218.42 117.12 219.601 117.12 219.686 116.359C220.614 106.213 230.403 99.1529 240.318 101.985C248.167 104.226 251.247 112.681 258.42 115.852C265.044 118.811 271.584 114.457 275.255 109.003C280.276 101.478 282.133 89.9366 292.048 87.0618C292.765 86.8082 292.428 85.709 291.711 85.9204Z" fill="white"/>
<path d="M190.401 104.141H121.456C120.697 104.141 120.697 105.324 121.456 105.324H190.401C191.118 105.324 191.118 104.141 190.401 104.141Z" fill="#9299AB"/>
<path d="M190.401 114.668H121.456C120.697 114.668 120.697 115.852 121.456 115.852H190.401C191.118 115.852 191.118 114.668 190.401 114.668Z" fill="#9299AB"/>
<path d="M190.401 125.998H121.456C120.697 125.998 120.697 127.182 121.456 127.182H190.401C191.118 127.14 191.118 125.998 190.401 125.998Z" fill="#9299AB"/>
<path d="M165.462 88.541H120.863V96.3621H165.462V88.541Z" fill="#FFA79B"/>
<path d="M367.486 81.2275H357.57V89.7251H367.486V81.2275Z" fill="#FECA55"/>
<path d="M222.132 116.528C222.301 118.304 220.698 119.741 218.925 119.741C217.153 119.741 215.719 118.304 215.719 116.528C215.719 114.753 217.153 113.315 218.925 113.315C220.698 113.315 221.921 114.372 222.132 116.528Z" fill="#FFA79B"/>
<path d="M264.788 116.866C264.957 118.642 263.354 120.079 261.582 120.079C259.81 120.079 258.375 118.642 258.375 116.866C258.375 115.091 259.81 113.653 261.582 113.653C263.354 113.653 264.62 114.71 264.788 116.866Z" fill="#FFA79B"/>
<path d="M237.066 100.971C237.235 102.746 235.631 104.184 233.859 104.184C232.087 104.184 230.652 102.746 230.652 100.971C230.652 99.1952 232.087 97.7578 233.859 97.7578C235.631 97.7578 236.897 98.8147 237.066 100.971Z" fill="#FFA79B"/>
<path d="M289.089 90.2745C289.258 92.0501 287.655 93.4875 285.883 93.4875C284.11 93.4875 282.676 92.0501 282.676 90.2745C282.676 88.4989 284.11 87.0615 285.883 87.0615C287.655 87.0615 288.878 88.1607 289.089 90.2745Z" fill="#FFA79B"/>
<path d="M250.865 180.154H220.781V201.8H250.865V180.154Z" fill="#FECA55"/>
<path d="M235.97 192.583C235.843 192.583 235.716 192.541 235.632 192.456L222.763 182.648C222.51 182.437 222.468 182.099 222.636 181.845C222.847 181.591 223.185 181.549 223.438 181.718L235.927 191.23L248.121 181.591C248.375 181.38 248.754 181.422 248.923 181.676C249.134 181.93 249.092 182.31 248.839 182.479L236.265 192.372C236.223 192.541 236.096 192.583 235.97 192.583Z" fill="white"/>
<path d="M255.25 178.674V185.1C255.25 185.861 256.431 185.861 256.431 185.1V178.674C256.431 177.913 255.25 177.913 255.25 178.674Z" fill="white"/>
<path d="M363.732 178.083H340.062C339.302 178.083 339.302 179.267 340.062 179.267H363.732C364.492 179.267 364.492 178.083 363.732 178.083Z" fill="white"/>
<path d="M363.732 185.101H340.062C339.302 185.101 339.302 186.284 340.062 186.284H363.732C364.492 186.284 364.492 185.101 363.732 185.101Z" fill="white"/>
<path d="M170.95 86.1733C170.908 86.1733 170.866 86.1733 170.824 86.1733C170.528 86.0887 170.317 85.7928 170.402 85.4546C170.697 84.3131 171.034 83.1716 171.414 82.0302C171.499 81.7342 171.836 81.5651 172.174 81.6497C172.469 81.7342 172.638 82.0725 172.553 82.4107C172.174 83.5098 171.836 84.609 171.583 85.7505C171.414 86.0042 171.203 86.1733 170.95 86.1733Z" fill="#D24A43"/>
<path d="M254.916 86.1308C254.663 86.1308 254.409 85.9617 254.367 85.7081C253.777 83.552 253.017 81.4381 252.047 79.4934C251.92 79.1975 252.047 78.8593 252.342 78.7324C252.637 78.6056 252.975 78.7324 253.101 79.0284C254.072 81.0576 254.874 83.2137 255.464 85.4544C255.549 85.7503 255.38 86.0885 255.042 86.1731C255.042 86.1308 255 86.1308 254.916 86.1308ZM174.621 76.6186C174.537 76.6186 174.452 76.5763 174.326 76.5341C174.03 76.365 173.946 76.0268 174.073 75.7308C175.17 73.7016 176.435 71.7991 177.828 70.0235C178.039 69.7698 178.376 69.7276 178.63 69.9389C178.883 70.1503 178.925 70.4885 178.714 70.7422C177.364 72.4755 176.098 74.3357 175.043 76.2804C175.043 76.4918 174.832 76.6186 174.621 76.6186ZM249.177 73.9975C249.009 73.9975 248.798 73.9129 248.713 73.7438C247.447 71.9682 245.971 70.2349 244.41 68.7129C244.199 68.5016 244.156 68.1211 244.41 67.8674C244.621 67.656 245 67.6137 245.253 67.8674C246.899 69.4739 248.376 71.2495 249.684 73.0674C249.853 73.3211 249.81 73.7015 249.557 73.8707C249.388 73.9552 249.304 73.9975 249.177 73.9975ZM183.018 66.0918C182.849 66.0918 182.68 66.0072 182.596 65.8804C182.385 65.6268 182.427 65.2463 182.638 65.0349C184.326 63.5552 186.224 62.2024 188.165 61.0186C188.461 60.8495 188.798 60.9341 188.967 61.23C189.136 61.5259 189.051 61.8642 188.756 62.0333C186.857 63.1747 185.043 64.4853 183.397 65.9227C183.271 66.0495 183.144 66.0918 183.018 66.0918ZM239.599 64.5276C239.473 64.5276 239.346 64.4853 239.262 64.4007C237.49 63.1324 235.549 61.991 233.566 60.9763C233.27 60.8495 233.144 60.469 233.313 60.1731C233.439 59.8772 233.819 59.7503 234.114 59.9194C236.182 60.9341 238.165 62.1178 239.979 63.4284C240.232 63.5975 240.317 63.978 240.106 64.2316C239.979 64.443 239.81 64.5276 239.599 64.5276ZM194.494 59.1585C194.241 59.1585 194.03 59.0316 193.946 58.778C193.819 58.482 193.988 58.1438 194.283 58.017C196.351 57.1715 198.545 56.495 200.823 55.9877C201.119 55.9032 201.456 56.1146 201.541 56.4105C201.625 56.7064 201.414 57.0446 201.119 57.1292C198.925 57.6365 196.815 58.3129 194.748 59.1162C194.663 59.1585 194.579 59.1585 194.494 59.1585ZM227.574 58.5243C227.532 58.5243 227.448 58.5243 227.405 58.482C225.296 57.8056 223.144 57.2138 220.95 56.791C220.612 56.7487 220.444 56.4105 220.486 56.1146C220.528 55.7764 220.865 55.6072 221.161 55.6495C223.397 56.0723 225.633 56.6642 227.785 57.3406C228.081 57.4251 228.249 57.7633 228.165 58.1016C228.038 58.3552 227.827 58.5243 227.574 58.5243ZM207.617 56.1146C207.321 56.1146 207.068 55.9032 207.026 55.565C206.984 55.2268 207.237 54.9731 207.574 54.9308C209.811 54.7617 212.131 54.7194 214.41 54.804C214.747 54.804 214.958 55.0999 214.958 55.4381C214.958 55.7764 214.705 56.03 214.325 55.9877C212.089 55.8609 209.853 55.9032 207.659 56.0723C207.659 56.1146 207.617 56.1146 207.617 56.1146Z" fill="#D24A43"/>
<path d="M256.435 96.3191C256.14 96.3191 255.844 96.0654 255.844 95.7695C255.802 94.628 255.718 93.4443 255.634 92.3028C255.591 91.9646 255.845 91.711 256.14 91.6687C256.477 91.6264 256.731 91.8801 256.773 92.176C256.899 93.3597 256.984 94.5435 257.026 95.7272C257.026 96.0654 256.773 96.3191 256.435 96.3191Z" fill="#D24A43"/>
<path d="M258.547 98.4756C257.956 99.3212 257.323 100.209 256.732 101.054C256.142 100.336 255.551 99.5748 255.002 98.8561C254.538 98.2643 253.694 99.1098 254.159 99.7017C254.876 100.632 255.635 101.52 256.353 102.45C256.606 102.788 257.07 102.619 257.281 102.323C258.04 101.224 258.8 100.167 259.559 99.0675C259.981 98.4756 258.969 97.8838 258.547 98.4756Z" fill="#D24A43"/>
<path d="M336.6 210.593C332.296 202.899 327.992 195.162 323.688 187.468C322.971 186.157 320.946 187.341 321.663 188.651C325.967 196.346 330.271 204.082 334.574 211.777C335.292 213.087 337.317 211.904 336.6 210.593Z" fill="#D24A43"/>
<path d="M336.095 214.568C333.521 228.434 330.905 242.343 328.331 256.21C328.036 257.69 330.314 258.324 330.567 256.844C333.141 242.978 335.757 229.069 338.331 215.202C338.626 213.722 336.39 213.088 336.095 214.568Z" fill="#D24A43"/>
<path d="M340.356 265.595H317.191V262.382C317.191 257.732 320.947 254.012 325.546 254.012H332.001C336.643 254.012 340.356 257.774 340.356 262.382V265.595Z" fill="#D24A43"/>
<path d="M341.199 212.918C341.41 215.286 339.3 217.188 336.937 217.188C334.575 217.188 332.676 215.286 332.676 212.918C332.676 210.551 334.575 208.648 336.937 208.648C339.3 208.648 340.988 210.044 341.199 212.918Z" fill="#D24A43"/>
<path d="M324.28 189.413H276.77V186.2C276.77 181.549 280.525 177.829 285.124 177.829H315.883C320.524 177.829 324.238 181.592 324.238 186.2V189.413H324.28Z" fill="#D24A43"/>
<path d="M295.305 215.822L295.306 215.819C295.346 215.695 295.414 215.636 295.489 215.603C295.576 215.566 295.694 215.557 295.812 215.589C295.931 215.621 296.008 215.684 296.042 215.737C296.067 215.774 296.092 215.837 296.047 215.963L296.045 215.969L296.043 215.976C293.532 223.65 291.022 231.333 288.511 239.017C286.001 246.701 283.49 254.384 280.98 262.058L280.978 262.061C280.938 262.188 280.87 262.246 280.799 262.277C280.717 262.314 280.605 262.323 280.491 262.291C280.375 262.259 280.296 262.198 280.258 262.14C280.229 262.095 280.203 262.027 280.243 261.902C282.753 254.229 285.264 246.546 287.774 238.863L287.776 238.856C290.286 231.174 292.796 223.493 295.305 215.822Z" fill="#322E28" stroke="#322E28"/>
<path d="M251.792 261.867H280.146C280.275 261.867 280.34 261.912 280.38 261.96C280.43 262.02 280.469 262.118 280.469 262.239C280.469 262.36 280.43 262.464 280.375 262.532C280.33 262.588 280.26 262.636 280.135 262.643H251.792C251.65 262.643 251.576 262.593 251.531 262.54C251.477 262.477 251.438 262.375 251.438 262.255C251.438 262.135 251.477 262.033 251.531 261.97C251.576 261.917 251.65 261.867 251.792 261.867Z" fill="#322E28" stroke="#322E28"/>
<path d="M256.815 234.86H239.727V257.394H256.815V234.86Z" fill="#EBF5F1"/>
<path d="M262.426 239.427C261.118 237.059 258.206 238.412 256.097 237.778C255 237.44 254.536 239.131 255.633 239.469C256.772 239.807 259.008 239.342 259.894 239.723C262.088 240.737 261.202 249.7 260.907 251.349C260.358 254.604 257.616 254.435 255.042 254.266C253.903 254.181 253.903 255.957 255.042 256.041C257.194 256.168 259.599 256.253 261.371 254.773C263.438 253.082 263.649 241.667 262.426 239.427Z" fill="#EBF5F1"/>
<path d="M246.391 224.249C244.872 226.151 244.661 228.773 246.054 230.802C246.476 231.436 247.488 230.844 247.066 230.21C246.012 228.646 246.012 226.574 247.235 225.095C247.699 224.503 246.855 223.699 246.391 224.249Z" fill="#E6DFD1"/>
<path d="M249.007 224.249C247.446 226.151 247.277 228.773 248.67 230.802C249.092 231.436 250.104 230.844 249.682 230.21C248.627 228.646 248.627 226.574 249.851 225.095C250.315 224.503 249.471 223.699 249.007 224.249Z" fill="#E6DFD1"/>
<path d="M279.009 213.046C271.414 215.455 266.393 221.966 266.013 229.956C265.971 230.717 267.152 230.717 267.194 229.956C267.532 222.515 272.258 216.428 279.346 214.187C280.021 213.976 279.726 212.834 279.009 213.046Z" fill="#D24A43"/>
<path d="M279.473 223.022C276.182 223.994 273.904 227.038 273.946 230.463C273.946 231.224 275.127 231.224 275.127 230.463C275.127 227.546 276.984 224.967 279.811 224.121C280.528 223.91 280.191 222.811 279.473 223.022Z" fill="#D24A43"/>
<path d="M275.844 204.167C263.988 206.154 255.76 216.681 256.562 228.687C256.604 229.448 257.785 229.448 257.743 228.687C256.984 217.146 264.832 207.211 276.182 205.309C276.857 205.182 276.562 204.04 275.844 204.167Z" fill="#D24A43"/>
<path d="M283.565 230.463C283.649 231.393 282.805 232.112 281.919 232.112C280.991 232.112 280.273 231.351 280.273 230.463C280.273 229.533 281.033 228.814 281.919 228.814C282.847 228.814 283.48 229.364 283.565 230.463Z" fill="#D24A43"/>
<path d="M402.046 138.258C400.738 138.258 399.684 137.202 399.684 135.891C399.684 134.58 400.738 133.523 402.046 133.523C403.397 133.523 404.283 134.411 404.409 135.849C404.451 136.441 404.24 137.032 403.819 137.497C403.397 137.962 402.764 138.258 402.046 138.258ZM402.046 134.665C401.371 134.665 400.823 135.215 400.823 135.891C400.823 136.567 401.371 137.117 402.046 137.117C402.384 137.117 402.764 136.948 402.975 136.694C403.101 136.525 403.27 136.271 403.228 135.933C403.186 135.088 402.806 134.665 402.046 134.665Z" fill="#D24A43"/>
<path d="M410.105 145.995C408.797 145.995 407.742 144.938 407.742 143.627C407.742 142.317 408.797 141.26 410.105 141.26C411.455 141.26 412.341 142.148 412.468 143.585C412.51 144.177 412.299 144.769 411.877 145.234C411.455 145.699 410.78 145.995 410.105 145.995ZM410.105 142.401C409.43 142.401 408.881 142.951 408.881 143.627C408.881 144.304 409.43 144.853 410.105 144.853C410.443 144.853 410.822 144.684 411.033 144.431C411.16 144.261 411.329 144.008 411.287 143.67C411.244 142.824 410.865 142.401 410.105 142.401Z" fill="#D24A43"/>
<path d="M425.631 164.639H237.531V109.976H425.631V164.639ZM238.713 163.455H424.492V111.159H238.713V163.455Z" fill="#003865"/>
<path d="M333.438 133.017H253.312V145.615H320.949C325.084 141.387 329.261 137.202 333.438 133.017Z" fill="#575552"/>
<path d="M345.802 133.017H341.161C336.984 137.202 332.807 141.387 328.672 145.615H333.271C337.448 141.387 341.625 137.202 345.802 133.017Z" fill="#575552"/>
<path d="M358.498 133.017H353.857C349.679 137.202 345.502 141.387 341.367 145.615H345.924C350.144 141.387 354.321 137.202 358.498 133.017Z" fill="#575552"/>
<path d="M371.202 133.017H366.687C362.468 137.202 358.29 141.387 354.113 145.615H358.628L371.202 133.017Z" fill="#575552"/>
<path d="M383.901 133.017H379.386C375.167 137.202 370.99 141.387 366.812 145.615H371.327L383.901 133.017Z" fill="#575552"/>
<path d="M396.14 134.412V133.017H392.385C388.25 137.202 384.072 141.387 379.938 145.615H384.959C388.672 141.852 392.385 138.132 396.14 134.412Z" fill="#575552"/>
<path d="M392.719 145.615H396.136V142.19C394.997 143.332 393.858 144.473 392.719 145.615Z" fill="#575552"/>
<path d="M366.94 121.687H293.902V126.76H366.94V121.687Z" fill="#9299AB"/>
<path d="M413.605 120.122C412.129 118.558 410.61 116.994 409.133 115.429C408.626 114.88 407.783 115.725 408.289 116.275C409.766 117.839 411.285 119.403 412.761 120.968C413.31 121.475 414.112 120.672 413.605 120.122Z" fill="#D24A43"/>
<path d="M409.004 120.841C410.565 119.361 412.126 117.839 413.687 116.359C414.236 115.852 413.392 115.007 412.844 115.514C411.282 116.994 409.721 118.515 408.16 119.995C407.654 120.545 408.498 121.348 409.004 120.841Z" fill="#D24A43"/>
<path d="M410.779 134.327C407.361 137.751 403.943 141.218 400.526 144.642C399.977 145.192 400.821 145.995 401.37 145.488C404.787 142.063 408.205 138.597 411.623 135.172C412.129 134.623 411.327 133.777 410.779 134.327Z" fill="#D24A43"/>
<path d="M393.186 259.254C392.975 257.817 393.186 256.379 393.608 255.026H347.785C345.296 258.028 345.549 260.438 347.785 262.425H394.705C393.903 261.664 393.354 260.607 393.186 259.254Z" fill="#E6DFD1"/>
<path d="M384.789 250.883C384.916 250.46 385.084 250.038 385.253 249.657H347.785C346.097 251.391 346.182 253.335 347.785 255.407H386.097C385 254.223 384.283 252.743 384.789 250.883Z" fill="#E6DFD1"/>
<path d="M386.349 255.153H347.446C347.277 255.153 347.109 255.069 347.024 254.942C346.011 253.758 345.168 251.856 346.982 249.319C347.109 249.15 347.277 249.065 347.446 249.065H386.011C386.349 249.065 386.602 249.319 386.602 249.657C386.602 249.996 386.349 250.249 386.011 250.249H347.741C346.855 251.644 346.813 252.828 347.699 253.969H386.306C386.644 253.969 386.897 254.223 386.897 254.561C386.897 254.9 386.686 255.153 386.349 255.153Z" fill="#C7C9BC"/>
<path d="M394.955 262.848H347.192C347.023 262.848 346.812 262.763 346.728 262.594C344.955 260.142 344.955 257.521 346.728 254.815C346.854 254.646 347.023 254.562 347.234 254.562H394.575C394.913 254.562 395.166 254.815 395.166 255.153C395.166 255.492 394.913 255.745 394.575 255.745H347.529C346.263 257.859 346.263 259.804 347.529 261.706H394.997C395.335 261.706 395.588 261.96 395.588 262.298C395.588 262.636 395.293 262.848 394.955 262.848Z" fill="#C7C9BC"/>
<path d="M390.189 256.76H348.164C347.784 256.76 347.784 257.352 348.164 257.352H390.189C390.568 257.352 390.568 256.76 390.189 256.76Z" fill="white"/>
<path d="M386.307 258.662H365.843C365.464 258.662 365.464 259.254 365.843 259.254H386.307C386.645 259.212 386.645 258.662 386.307 258.662Z" fill="white"/>
<path d="M226.732 328.545C203.357 356.955 210.952 420.75 210.952 420.75H267.618C267.618 420.75 267.322 406.714 248.926 404.938C230.53 403.163 245.424 385.618 268.799 330.025L226.732 328.545Z" fill="#FFA79B"/>
<path d="M248.925 404.896C237.744 403.839 238.841 396.906 246.731 379.107C234.706 379.277 222.681 378.346 210.698 376.782C208.462 399.907 210.951 420.707 210.951 420.707H267.617C267.617 420.707 267.322 406.672 248.925 404.896Z" fill="#E6DFD1"/>
<path d="M316.899 405.699C293.439 400.71 298.587 387.943 292.637 348.245C286.562 307.533 284.663 300.05 252.174 296.964C245.676 313.663 239.431 330.489 235.043 347.822C243.44 347.442 248.629 347.061 248.629 347.061C248.629 347.061 247.448 353.614 277.068 420.707H331.878C331.878 420.707 333.945 409.292 316.899 405.699Z" fill="#FFA79B"/>
<path d="M316.903 405.699C299.603 402.021 297.873 394.116 295.764 374.288C284.456 378.22 272.853 381.221 260.996 382.997C264.962 392.763 270.194 405.108 277.072 420.75H331.882C331.882 420.708 333.949 409.293 316.903 405.699Z" fill="#E6DFD1"/>
<path d="M210.277 294.385C199.771 293.793 189.644 293.793 180.109 293.202C179.476 289.608 178.969 284.028 178.547 277.897C156.733 278.532 134.919 280.18 113.189 282.167C112.767 286.057 112.388 290.073 112.134 294.216C107.662 362.112 167.83 348.668 201.332 348.668C219.18 348.668 234.581 347.95 242.64 347.484C247.45 330.912 251.163 313.959 255.931 297.387C245.045 296.076 230.404 295.569 210.277 294.385Z" fill="#FECA55"/>
<path d="M316.899 405.699C310.823 404.431 306.646 402.613 303.734 399.907C300.232 401.683 296.772 403.501 293.144 405.065C286.477 407.982 279.684 409.715 272.469 410.223C273.903 413.562 275.422 417.029 277.068 420.749H331.878C331.878 420.707 333.945 409.293 316.899 405.699Z" fill="#575552"/>
<path d="M248.927 404.896C246.269 404.642 244.286 404.05 242.935 403.078C239.56 404.981 236.142 406.798 232.345 407.855C225.087 409.842 217.535 409.631 210.066 409.546C210.404 416.437 210.91 420.75 210.91 420.75H267.577C267.619 420.707 267.323 406.672 248.927 404.896Z" fill="#575552"/>
<mask id="path-75-inside-1" fill="white">
<path d="M253.271 361.097C252.005 357.25 250.739 353.403 249.474 349.556C249.347 349.217 248.798 349.344 248.925 349.725C250.191 353.572 251.457 357.419 252.723 361.266C252.849 361.604 253.398 361.435 253.271 361.097Z"/>
</mask>
<path d="M253.271 361.097C252.005 357.25 250.739 353.403 249.474 349.556C249.347 349.217 248.798 349.344 248.925 349.725C250.191 353.572 251.457 357.419 252.723 361.266C252.849 361.604 253.398 361.435 253.271 361.097Z" fill="#322E28"/>
<path d="M253.271 361.097L252.321 361.41L252.327 361.429L252.335 361.448L253.271 361.097ZM249.474 349.556L250.424 349.243L250.417 349.224L250.41 349.205L249.474 349.556ZM248.925 349.725L249.875 349.412L249.874 349.409L248.925 349.725ZM252.723 361.266L251.773 361.579L251.779 361.598L251.786 361.617L252.723 361.266ZM254.221 360.785C253.588 358.861 252.955 356.937 252.322 355.014C251.689 353.09 251.056 351.167 250.424 349.243L248.524 349.868C249.157 351.792 249.79 353.715 250.422 355.639C251.055 357.562 251.688 359.486 252.321 361.41L254.221 360.785ZM250.41 349.205C250.13 348.458 249.374 348.262 248.844 348.405C248.568 348.479 248.27 348.659 248.079 348.981C247.876 349.323 247.866 349.709 247.976 350.04L249.874 349.409C249.921 349.55 249.932 349.777 249.8 350C249.681 350.201 249.503 350.299 249.365 350.336C249.109 350.405 248.69 350.315 248.537 349.906L250.41 349.205ZM247.975 350.037C248.608 351.961 249.241 353.884 249.874 355.808C250.507 357.732 251.14 359.655 251.773 361.579L253.672 360.954C253.04 359.03 252.407 357.106 251.774 355.183C251.141 353.259 250.508 351.336 249.875 349.412L247.975 350.037ZM251.786 361.617C252.085 362.417 252.894 362.543 253.386 362.391C253.642 362.312 253.924 362.139 254.109 361.836C254.313 361.503 254.342 361.106 254.208 360.747L252.335 361.448C252.263 361.257 252.271 361.008 252.404 360.791C252.518 360.605 252.678 360.516 252.797 360.48C252.918 360.442 253.077 360.433 253.245 360.499C253.436 360.574 253.589 360.729 253.659 360.916L251.786 361.617Z" fill="#322E28" mask="url(#path-75-inside-1)"/>
<path d="M234.033 308.464C222.472 307.956 210.953 307.28 199.435 306.434C193.654 306.012 187.916 305.504 182.177 304.997C179.435 304.743 176.692 304.532 173.949 304.194C171.376 303.898 168.717 303.391 166.439 302.038C161.755 299.205 160.658 293.371 159.815 288.382C159.772 288.002 159.182 288.171 159.266 288.552C159.983 292.737 160.785 297.303 163.739 300.558C166.988 304.109 171.924 304.617 176.439 305.082C188.717 306.265 200.996 307.28 213.316 308.041C220.236 308.464 227.156 308.844 234.076 309.14C234.371 309.056 234.371 308.464 234.033 308.464Z" fill="white"/>
<path d="M138.884 332.561C138.673 332.054 137.745 331.335 137.365 330.955C136.859 330.405 136.394 329.856 135.888 329.264C134.833 328.038 133.863 326.727 132.935 325.417C129.432 320.428 126.732 314.932 124.918 309.14C124.875 308.971 124.707 308.886 124.538 308.929C121.753 309.436 119.011 309.901 116.226 310.408C115.846 310.493 116.015 311.043 116.395 310.958C119.053 310.493 121.753 309.986 124.411 309.521C126.141 314.89 128.589 320.005 131.711 324.656C133.23 326.938 134.918 329.095 136.774 331.166C137.238 331.673 138.04 332.265 138.209 332.942C138.377 333.618 137.998 334.548 137.871 335.225C137.491 337 137.112 338.776 136.732 340.594C136.648 340.974 137.238 341.101 137.28 340.763C137.618 339.072 137.998 337.381 138.335 335.69C138.546 334.802 139.179 333.407 138.884 332.561Z" fill="white"/>
<path d="M178.251 293.413L173.863 292.99C173.483 292.948 173.483 293.54 173.863 293.582L178.251 294.005C178.589 294.005 178.589 293.456 178.251 293.413Z" fill="white"/>
<path d="M183.483 194.063C182.765 194.147 163.905 210.466 163.905 210.466L154.031 190.385L176.267 181.507L183.483 194.063Z" fill="#FFA79B"/>
<path d="M180.702 190.326L182.757 193.921C182.693 193.965 182.624 194.014 182.552 194.067C182.22 194.31 181.774 194.658 181.243 195.084C180.342 195.807 179.181 196.768 177.886 197.854C177.777 195.315 178.95 192.52 180.702 190.326Z" fill="#322E28" stroke="#322E28"/>
<path d="M171.669 161.341C174.917 156.563 185.424 156.394 191.584 159.523C194.284 160.876 196.183 159.269 196.267 161.721C196.478 167.851 197.069 187.721 193.947 191.568C188.504 198.333 178.799 194.189 174.875 187.763C170.951 181.295 167.069 168.105 171.669 161.341Z" fill="#FFA79B"/>
<path d="M186.675 158.364L186.87 158.404L187.039 158.299C188.093 157.641 189.8 156.996 191.58 156.709C193.37 156.42 195.129 156.511 196.353 157.207C196.685 157.408 197.187 157.89 197.389 158.639C197.586 159.368 197.521 160.432 196.578 161.854C196.249 162.282 195.675 162.678 194.922 163.006C194.169 163.334 193.278 163.576 192.373 163.716C191.469 163.856 190.567 163.892 189.795 163.817C189.008 163.74 188.42 163.554 188.085 163.307L186.945 162.464L187.304 163.835C188.217 167.33 188.122 171.797 184.943 174.353L184.925 174.367L184.909 174.383C184.769 174.518 184.677 174.691 184.611 174.85C184.544 175.015 184.489 175.205 184.443 175.406C184.349 175.806 184.272 176.311 184.191 176.868C184.181 176.937 184.171 177.006 184.16 177.077C184.002 178.168 183.809 179.49 183.438 180.876C182.65 183.823 181.079 186.973 177.414 188.618L177.413 188.619C174.369 189.994 170.41 189.464 167.075 187.772C163.731 186.076 161.187 183.304 160.815 180.387L160.815 180.387L160.815 180.382C160.146 175.487 162.129 171.971 164.711 169.083C165.861 167.798 167.118 166.649 168.314 165.556C168.469 165.415 168.622 165.275 168.774 165.135C170.088 163.93 171.317 162.767 172.125 161.581C173.264 159.916 175.426 158.807 178.092 158.269C180.746 157.734 183.821 157.784 186.675 158.364Z" fill="#322E28" stroke="#322E28"/>
<path d="M185.759 185.438C183.903 186.326 179.979 186.41 177.743 184.635C175.169 182.648 174.536 180.027 175.717 176.729C176.561 174.404 179.515 172.882 182.426 173.474C183.143 173.643 183.903 173.897 184.578 174.362C184.789 174.488 185 174.658 185.169 174.784C185.295 178.378 185.506 181.887 185.759 185.438Z" fill="#FFA79B"/>
<path d="M198.376 177.237C198.249 175.884 196.899 175.038 195.633 175.292C195.211 175.376 195 175.926 195.127 176.307C195.127 176.349 195.169 176.391 195.169 176.391C195.042 176.433 194.916 176.476 194.789 176.518C193.861 176.983 194.747 178.336 195.633 177.871C195.633 177.871 195.717 177.871 195.633 177.913C194.916 178.167 194.873 179.308 195.675 179.477C197.025 179.816 198.502 178.716 198.376 177.237Z" fill="#FFA79B"/>
<mask id="path-86-inside-2" fill="white">
<path d="M183.861 180.661L181.16 177.913C180.865 177.617 180.401 178.082 180.696 178.378C181.582 179.308 182.51 180.238 183.397 181.126C183.65 181.422 184.156 180.957 183.861 180.661Z"/>
</mask>
<path d="M183.861 180.661L181.16 177.913C180.865 177.617 180.401 178.082 180.696 178.378C181.582 179.308 182.51 180.238 183.397 181.126C183.65 181.422 184.156 180.957 183.861 180.661Z" fill="#322E28"/>
<path d="M183.861 180.661L183.147 181.362L183.153 181.368L183.861 180.661ZM181.16 177.913L181.874 177.212L181.868 177.207L181.16 177.913ZM180.696 178.378L181.42 177.688L181.412 177.68L181.404 177.672L180.696 178.378ZM183.397 181.126L184.156 180.476L184.131 180.447L184.104 180.42L183.397 181.126ZM184.574 179.96L181.874 177.212L180.447 178.614L183.147 181.362L184.574 179.96ZM181.868 177.207C181.591 176.929 181.219 176.792 180.84 176.823C180.489 176.852 180.199 177.017 179.999 177.217C179.799 177.418 179.634 177.708 179.606 178.058C179.575 178.436 179.711 178.807 179.988 179.085L181.404 177.672C181.534 177.802 181.617 178.004 181.599 178.221C181.584 178.409 181.498 178.546 181.415 178.63C181.331 178.714 181.193 178.8 181.003 178.816C180.785 178.834 180.582 178.749 180.452 178.62L181.868 177.207ZM179.972 179.068C180.868 180.008 181.804 180.946 182.689 181.833L184.104 180.42C183.217 179.53 182.297 178.609 181.42 177.688L179.972 179.068ZM182.637 181.776C182.917 182.104 183.315 182.249 183.701 182.216C184.049 182.187 184.333 182.023 184.526 181.838C184.721 181.651 184.898 181.372 184.941 181.022C184.988 180.636 184.859 180.246 184.568 179.955L183.153 181.368C183.01 181.224 182.928 181.004 182.956 180.778C182.979 180.589 183.069 180.464 183.142 180.394C183.215 180.324 183.343 180.24 183.534 180.223C183.763 180.204 184.002 180.296 184.156 180.476L182.637 181.776Z" fill="#322E28" mask="url(#path-86-inside-2)"/>
<mask id="path-88-inside-3" fill="white">
<path d="M193.566 184.424C193.102 184.255 192.596 184.086 192.132 183.917C191.71 183.79 191.541 184.424 191.963 184.551C192.427 184.72 192.934 184.889 193.398 185.059C193.82 185.185 193.988 184.551 193.566 184.424Z"/>
</mask>
<path d="M193.566 184.424C193.102 184.255 192.596 184.086 192.132 183.917C191.71 183.79 191.541 184.424 191.963 184.551C192.427 184.72 192.934 184.889 193.398 185.059C193.82 185.185 193.988 184.551 193.566 184.424Z" fill="#322E28"/>
<path d="M193.566 184.424L193.224 185.364L193.251 185.374L193.279 185.382L193.566 184.424ZM192.132 183.917L192.474 182.977L192.447 182.968L192.42 182.959L192.132 183.917ZM191.963 184.551L192.305 183.612L192.279 183.602L192.251 183.594L191.963 184.551ZM193.398 185.059L193.055 185.998L193.082 186.008L193.11 186.016L193.398 185.059ZM193.909 183.485C193.669 183.397 193.42 183.311 193.178 183.226C192.934 183.141 192.699 183.059 192.474 182.977L191.79 184.857C192.029 184.944 192.279 185.031 192.52 185.115C192.764 185.2 193 185.282 193.224 185.364L193.909 183.485ZM192.42 182.959C192.057 182.85 191.663 182.89 191.332 183.101C191.022 183.298 190.841 183.595 190.765 183.882C190.61 184.463 190.855 185.262 191.675 185.509L192.251 183.594C192.402 183.639 192.56 183.757 192.65 183.941C192.73 184.104 192.732 184.268 192.697 184.396C192.663 184.524 192.577 184.679 192.405 184.789C192.211 184.912 191.996 184.92 191.844 184.875L192.42 182.959ZM191.621 185.491C191.861 185.578 192.11 185.665 192.351 185.749C192.595 185.834 192.831 185.916 193.055 185.998L193.74 184.119C193.5 184.032 193.251 183.945 193.01 183.861C192.766 183.776 192.53 183.693 192.305 183.612L191.621 185.491ZM193.11 186.016C193.473 186.125 193.867 186.085 194.198 185.875C194.507 185.678 194.689 185.38 194.765 185.094C194.92 184.512 194.675 183.713 193.854 183.467L193.279 185.382C193.127 185.337 192.969 185.218 192.88 185.035C192.799 184.871 192.798 184.708 192.832 184.579C192.866 184.451 192.953 184.296 193.125 184.187C193.319 184.063 193.533 184.055 193.686 184.101L193.11 186.016Z" fill="#322E28" mask="url(#path-88-inside-3)"/>
<mask id="path-90-inside-4" fill="white">
<path d="M194.328 172.037C194.202 172.798 194.033 173.517 193.906 174.278C193.822 174.7 194.455 174.869 194.539 174.447C194.666 173.686 194.834 172.967 194.961 172.206C195.045 171.783 194.412 171.614 194.328 172.037Z"/>
</mask>
<path d="M194.328 172.037C194.202 172.798 194.033 173.517 193.906 174.278C193.822 174.7 194.455 174.869 194.539 174.447C194.666 173.686 194.834 172.967 194.961 172.206C195.045 171.783 194.412 171.614 194.328 172.037Z" fill="#322E28"/>
<path d="M194.328 172.037L193.347 171.841L193.344 171.857L193.342 171.873L194.328 172.037ZM193.906 174.278L194.887 174.473L194.89 174.457L194.893 174.442L193.906 174.278ZM194.539 174.447L195.52 174.642L195.523 174.627L195.526 174.611L194.539 174.447ZM194.961 172.206L193.98 172.01L193.977 172.026L193.975 172.042L194.961 172.206ZM193.342 171.873C193.281 172.235 193.211 172.589 193.136 172.961C193.063 173.329 192.986 173.715 192.92 174.113L194.893 174.442C194.953 174.08 195.023 173.725 195.098 173.353C195.171 172.985 195.248 172.6 195.315 172.201L193.342 171.873ZM192.926 174.082C192.759 174.916 193.345 175.497 193.901 175.645C194.181 175.72 194.531 175.716 194.861 175.542C195.217 175.353 195.445 175.019 195.52 174.642L193.558 174.251C193.591 174.086 193.708 173.889 193.925 173.774C194.114 173.674 194.296 173.681 194.417 173.713C194.541 173.746 194.674 173.823 194.773 173.963C194.884 174.12 194.919 174.311 194.887 174.473L192.926 174.082ZM195.526 174.611C195.586 174.249 195.656 173.894 195.731 173.522C195.804 173.154 195.881 172.769 195.947 172.37L193.975 172.042C193.914 172.404 193.844 172.758 193.769 173.131C193.696 173.498 193.619 173.884 193.553 174.283L195.526 174.611ZM195.942 172.402C196.108 171.567 195.522 170.987 194.966 170.838C194.686 170.763 194.336 170.767 194.007 170.942C193.65 171.13 193.423 171.465 193.347 171.841L195.309 172.233C195.276 172.398 195.159 172.595 194.942 172.709C194.753 172.81 194.571 172.803 194.45 172.77C194.326 172.737 194.193 172.66 194.094 172.521C193.983 172.364 193.948 172.173 193.98 172.01L195.942 172.402Z" fill="#322E28" mask="url(#path-90-inside-4)"/>
<path d="M194.646 169.777L194.656 169.775L194.665 169.772C194.698 169.764 194.716 169.765 194.725 169.767C194.735 169.769 194.746 169.773 194.758 169.782C194.787 169.802 194.824 169.848 194.842 169.914C194.86 169.981 194.849 170.024 194.843 170.037C194.841 170.041 194.839 170.043 194.836 170.045C194.833 170.048 194.817 170.059 194.777 170.067L194.777 170.067L194.767 170.069C194.564 170.114 194.363 170.17 194.177 170.222L194.172 170.223C193.98 170.277 193.802 170.326 193.627 170.365L193.606 170.37L193.585 170.376C193.551 170.387 193.532 170.386 193.526 170.385C193.52 170.384 193.513 170.382 193.505 170.376C193.484 170.362 193.45 170.324 193.432 170.259C193.414 170.195 193.423 170.145 193.434 170.122C193.439 170.112 193.444 170.105 193.452 170.099C193.459 170.093 193.478 170.081 193.515 170.071C193.715 170.026 193.913 169.971 194.096 169.92L194.102 169.918C194.294 169.865 194.472 169.816 194.646 169.777Z" fill="#322E28" stroke="#322E28"/>
<path d="M197.954 172.291L196.097 177.11C195.929 177.491 195.296 177.321 195.464 176.941C195.675 176.434 195.844 175.926 196.055 175.419C192.975 175.123 188.291 174.7 184.621 174.362C183.946 173.939 183.186 173.643 182.469 173.474C186.435 173.855 192.511 174.362 196.308 174.743C196.646 173.855 196.983 172.967 197.321 172.079C197.448 171.699 198.08 171.868 197.954 172.291Z" fill="white"/>
<path d="M162.768 285C168.168 284.746 173.569 284.365 178.97 283.9C177.62 268.47 177.113 245.175 177.113 245.175L170.194 205.943C170.194 205.943 170.067 187.806 160.953 188.398C143.358 189.539 118.506 223.572 112.684 286.691C129.392 286.226 146.101 285.803 162.768 285Z" fill="#EBF5F1"/>
<path d="M149.857 247.289C145.469 270.076 168.254 277.263 175.68 276.248C177.705 275.952 179.73 275.529 181.713 275.022C180.49 258.112 180.026 234.521 180.026 234.521L177.283 217.399C172.557 220.19 168.127 223.614 164.119 227.377C158.254 232.873 151.081 240.905 149.857 247.289Z" fill="#088054"/>
<path d="M259.94 245.766C258.759 241.877 252.556 243.314 249.097 243.949C249.181 243.737 250.531 243.103 250.573 242.849C252.092 242.723 253.611 242.258 255.004 241.497C256.649 240.609 257.029 238.284 255.426 238.072C248.59 237.142 243.021 238.072 241.544 238.368C238.253 239.002 235.13 240.186 232.135 241.708C231.755 241.877 231.46 242.131 231.249 242.384C221.375 241.497 210.152 241.962 201.46 242.68C200.827 253.123 200.911 263.649 202.388 273.965C215.552 270.498 229.223 266.482 237.324 264.03C240.742 264.072 244.202 263.988 247.62 263.734C251.67 263.438 256.058 262.677 258.126 258.703C259.139 256.801 259.265 254.56 259.476 252.488C259.772 250.417 260.531 247.796 259.94 245.766Z" fill="#FFA79B"/>
<path d="M205.427 242.385C194.878 243.061 186.861 244.245 186.861 244.245C178.971 196.811 174.92 190.469 162.262 188.524C162.262 188.524 155.596 193.302 155.005 226.827C154.414 260.352 155.891 280.095 169.477 280.518C175.553 280.729 191.207 277.009 206.692 272.824C206.102 262.677 205.722 252.531 205.427 242.385Z" fill="#EBF5F1"/>
<path d="M185.594 244.245C184.328 244.541 183.062 244.837 181.796 245.133C181.416 245.217 181.585 245.767 181.965 245.683C183.231 245.387 184.496 245.091 185.762 244.795C186.142 244.71 185.973 244.161 185.594 244.245Z" fill="white"/>
<path d="M154.455 226.151C154.413 231.266 154.413 236.381 154.371 241.497C154.371 241.877 154.962 241.877 154.962 241.497C155.004 236.381 155.004 231.266 155.046 226.151C155.046 225.77 154.455 225.77 154.455 226.151Z" fill="#088054"/>
<path d="M258.249 248.008C257.785 248.303 257.321 248.557 256.899 248.853C256.562 249.064 256.857 249.572 257.194 249.36L258.545 248.515C258.882 248.303 258.587 247.796 258.249 248.008Z" fill="#D24A43"/>
<path d="M258.21 252.066C257.746 252.362 257.282 252.616 256.86 252.912C256.522 253.123 256.818 253.63 257.155 253.419L258.506 252.573C258.801 252.362 258.506 251.855 258.21 252.066Z" fill="#D24A43"/>
<path d="M257.241 257.308C256.777 257.604 256.313 257.858 255.891 258.154C255.554 258.365 255.849 258.873 256.187 258.661L257.537 257.816C257.832 257.647 257.537 257.139 257.241 257.308Z" fill="#D24A43"/>
<path d="M151.965 197.318C152.007 198.037 151.375 198.586 150.699 198.586C150.024 198.586 149.434 197.995 149.434 197.318C149.434 196.642 150.024 196.05 150.699 196.05C151.375 196.05 151.881 196.473 151.965 197.318Z" fill="white"/>
<path d="M171.418 197.318C171.461 198.037 170.828 198.586 170.153 198.586C169.477 198.586 168.887 197.995 168.887 197.318C168.887 196.642 169.477 196.05 170.153 196.05C170.828 196.05 171.334 196.473 171.418 197.318Z" fill="white"/>
<path d="M132.517 216.047C132.559 216.766 131.926 217.315 131.251 217.315C131.124 217.315 130.998 217.315 130.871 217.273C131.251 216.512 131.673 215.751 132.053 215.032C132.348 215.244 132.474 215.582 132.517 216.047Z" fill="white"/>
<path d="M151.965 216.047C152.007 216.765 151.375 217.315 150.699 217.315C150.024 217.315 149.434 216.723 149.434 216.047C149.434 215.328 150.024 214.778 150.699 214.778C151.375 214.778 151.881 215.201 151.965 216.047Z" fill="white"/>
<path d="M171.418 216.047C171.461 216.765 170.828 217.315 170.153 217.315C169.477 217.315 168.887 216.723 168.887 216.047C168.887 215.328 169.477 214.778 170.153 214.778C170.828 214.778 171.334 215.201 171.418 216.047Z" fill="white"/>
<path d="M132.516 234.775C132.558 235.494 131.925 236.044 131.25 236.044C130.575 236.044 129.984 235.452 129.984 234.775C129.984 234.099 130.575 233.507 131.25 233.507C131.925 233.507 132.474 233.93 132.516 234.775Z" fill="white"/>
<path d="M151.965 234.775C152.007 235.494 151.375 236.044 150.699 236.044C150.024 236.044 149.434 235.452 149.434 234.775C149.434 234.099 150.024 233.507 150.699 233.507C151.375 233.507 151.881 233.93 151.965 234.775Z" fill="white"/>
<path d="M171.418 234.775C171.461 235.494 170.828 236.044 170.153 236.044C169.477 236.044 168.887 235.452 168.887 234.775C168.887 234.099 169.477 233.507 170.153 233.507C170.828 233.507 171.334 233.93 171.418 234.775Z" fill="white"/>
<path d="M132.516 253.504C132.558 254.222 131.925 254.772 131.25 254.772C130.575 254.772 129.984 254.18 129.984 253.504C129.984 252.785 130.575 252.235 131.25 252.235C131.925 252.235 132.474 252.658 132.516 253.504Z" fill="white"/>
<path d="M171.418 253.504C171.461 254.222 170.828 254.772 170.153 254.772C169.477 254.772 168.887 254.18 168.887 253.504C168.887 252.785 169.477 252.235 170.153 252.235C170.828 252.235 171.334 252.658 171.418 253.504Z" fill="white"/>
<path d="M190.868 253.504C190.91 254.222 190.277 254.772 189.602 254.772C188.884 254.772 188.336 254.18 188.336 253.504C188.336 252.785 188.927 252.235 189.602 252.235C190.277 252.235 190.783 252.658 190.868 253.504Z" fill="white"/>
<path d="M132.516 272.232C132.558 272.951 131.925 273.5 131.25 273.5C130.575 273.5 129.984 272.909 129.984 272.232C129.984 271.513 130.575 270.964 131.25 270.964C131.925 270.964 132.474 271.387 132.516 272.232Z" fill="white"/>
<path d="M151.965 272.232C152.007 272.951 151.375 273.5 150.699 273.5C150.024 273.5 149.434 272.909 149.434 272.232C149.434 271.513 150.024 270.964 150.699 270.964C151.375 270.964 151.881 271.387 151.965 272.232Z" fill="white"/>
<path d="M171.418 272.232C171.461 272.951 170.828 273.5 170.153 273.5C169.477 273.5 168.887 272.909 168.887 272.232C168.887 271.513 169.477 270.964 170.153 270.964C170.828 270.964 171.334 271.387 171.418 272.232Z" fill="white"/>
<path d="M190.868 272.232C190.91 272.951 190.277 273.5 189.602 273.5C188.884 273.5 188.336 272.909 188.336 272.232C188.336 271.513 188.927 270.964 189.602 270.964C190.277 270.964 190.783 271.387 190.868 272.232Z" fill="white"/>
<path d="M240.359 264.115V419.566C240.359 422.187 244.452 422.187 244.452 419.566V264.115H240.359Z" fill="#EBF5F1"/>
<path d="M395.379 265.849V419.524C395.379 422.145 399.472 422.145 399.472 419.524V265.765C398.122 265.849 396.729 265.891 395.379 265.849Z" fill="#EBF5F1"/>
<path d="M411.836 262.763H227.407C224.791 262.763 224.791 266.863 227.407 266.863H411.836C414.452 266.863 414.452 262.763 411.836 262.763Z" fill="#EBF5F1"/>
<path d="M114.281 347.485C113.268 337.846 112.255 328.249 111.243 318.61C111.032 316.75 108.12 316.75 108.331 318.61C109.344 328.249 110.357 337.846 111.369 347.485C111.538 349.345 114.492 349.345 114.281 347.485Z" fill="#EBF5F1"/>
<path d="M150.948 348.373C150.61 348.542 150.188 348.669 149.682 348.669C149.598 348.669 149.471 348.669 149.387 348.669V415.085C149.387 416.987 152.298 416.987 152.298 415.085V348.288C151.876 348.33 151.412 348.33 150.948 348.373Z" fill="#EBF5F1"/>
<path d="M180.021 412.252C173.439 403.205 162.975 397.371 151.751 396.948C140.106 396.525 128.714 402.19 121.667 411.406C120.528 412.886 122.638 414.915 123.777 413.436C130.19 405.023 140.275 399.738 150.908 399.865C161.372 399.992 171.372 405.361 177.49 413.774C178.629 415.296 181.118 413.774 180.021 412.252Z" fill="#EBF5F1"/>
<path d="M127.109 414.873C127.447 418.594 124.113 421.595 120.4 421.595C116.687 421.595 113.691 418.594 113.691 414.873C113.691 411.153 116.687 408.151 120.4 408.151C124.113 408.151 126.729 410.392 127.109 414.873Z" fill="#575552"/>
<path d="M122.806 414.874C122.933 416.184 121.709 417.283 120.401 417.283C119.051 417.283 117.996 416.184 117.996 414.874C117.996 413.521 119.093 412.464 120.401 412.464C121.751 412.464 122.68 413.267 122.806 414.874Z" fill="white"/>
<path d="M157.406 414.873C157.743 418.594 154.41 421.595 150.697 421.595C146.984 421.595 143.988 418.594 143.988 414.873C143.988 411.153 146.984 408.151 150.697 408.151C154.368 408.151 157.026 410.392 157.406 414.873Z" fill="#575552"/>
<path d="M184.871 414.873C185.208 418.594 181.875 421.595 178.162 421.595C174.449 421.595 171.453 418.594 171.453 414.873C171.453 411.153 174.449 408.151 178.162 408.151C181.833 408.151 184.449 410.392 184.871 414.873Z" fill="#575552"/>
<path d="M112.721 320.555C109.261 291.046 105.801 261.537 102.341 231.986C102.088 229.914 100.78 228.223 98.544 228.181C96.6875 228.181 94.4934 229.956 94.7466 231.986C98.2065 261.495 101.666 291.003 105.126 320.555C105.379 322.626 106.687 324.317 108.924 324.36C110.822 324.36 112.974 322.584 112.721 320.555Z" fill="#575552"/>
<path d="M190.612 346.386H114.241C109.347 346.386 109.347 353.995 114.241 353.995H190.57C195.506 353.995 195.506 346.386 190.612 346.386Z" fill="#575552"/>
<path d="M153.06 414.874C153.187 416.184 151.963 417.283 150.655 417.283C149.347 417.283 148.25 416.184 148.25 414.874C148.25 413.521 149.347 412.464 150.655 412.464C151.963 412.464 152.891 413.267 153.06 414.874Z" fill="white"/>
<path d="M180.357 414.874C180.483 416.184 179.26 417.283 177.952 417.283C176.644 417.283 175.547 416.184 175.547 414.874C175.547 413.521 176.644 412.464 177.952 412.464C179.26 412.464 180.23 413.267 180.357 414.874Z" fill="white"/>
</svg>
