<svg width="344" height="303" viewBox="0 0 344 303" fill="none" xmlns="http://www.w3.org/2000/svg">
<g clip-path="url(#clip0)">
<path d="M1.43475 247.553H314.232C315.235 247.553 315.235 249.057 314.232 249.057H1.43475C0.432007 249.12 0.432007 247.553 1.43475 247.553Z" fill="#BAB5AB"/>
<path d="M186.568 65.8537L145.517 61.2783L96.0689 80.4575C96.0689 80.4575 94.5648 211.578 97.5731 210.826C100.644 210.074 211.449 203.931 211.449 201.612C211.449 199.293 218.719 139.499 218.719 139.499L186.568 65.8537Z" fill="#FECA55"/>
<path d="M223.422 80.4574C239.904 111.106 244.479 120.32 244.479 120.32L295.369 75.1299C295.495 68.0474 296.623 60.7768 299.318 54.2584C302.702 46.1731 307.966 45.1076 313.607 38.7772C316.866 35.0793 320.752 40.0934 317.493 43.7914L314.171 47.8027C314.108 49.8083 312.98 55.0732 312.73 57.0789C318.182 51.8767 325.452 44.2928 332.471 41.0336C334.414 40.1561 336.232 40.8455 337.297 42.1618C338.927 42.3498 340.243 43.7287 340.619 45.2956C342.186 46.4865 343.063 48.9309 341.684 50.9992C342.75 52.1274 343.314 53.757 342.562 55.5119C342.499 55.6373 342.436 55.7 342.436 55.8253C342.875 56.2641 342.311 57.831 342.75 58.5831C344.692 62.0304 339.052 75.8193 328.586 82.7138C325.515 89.859 319.122 94.4971 318.621 94.6224C307.528 109.54 269.11 162.69 250.371 180.114C229.125 199.92 211.639 175.1 197.475 129.91C183.311 84.6568 180.616 69.3636 180.616 69.3636L144.204 61.717C190.393 58.9592 206.876 49.7457 223.422 80.4574Z" fill="#FFA79B"/>
<path d="M144.019 61.654L144.896 61.8421L169.589 67.0443L180.431 69.3006C180.431 69.3006 183.126 84.6565 197.29 129.847C198.23 132.792 199.171 135.676 200.111 138.433C212.457 127.904 225.18 117.813 238.027 107.847C234.768 101.642 230.068 92.7418 223.362 80.3318C210.64 56.7026 197.98 56.7652 171.595 59.2096C164.011 59.8991 155.363 60.8392 145.21 61.466C144.834 61.5913 144.458 61.5914 144.019 61.654Z" fill="#FECA55"/>
<path d="M198.413 86.1612C199.541 98.5713 200.669 110.981 201.86 123.391C201.923 123.893 201.108 123.893 201.108 123.391C199.98 110.981 198.852 98.5713 197.661 86.1612C197.661 85.6598 198.413 85.6598 198.413 86.1612Z" fill="white"/>
<path d="M241.784 126.712C242.286 125.208 242.787 123.641 243.289 122.136C243.414 121.698 244.166 121.886 244.041 122.324C243.539 123.829 243.038 125.396 242.536 126.9C242.411 127.401 241.659 127.213 241.784 126.712Z" fill="#952C28"/>
<path d="M321.566 58.7704C325.89 54.195 330.278 49.5569 334.602 44.9814C334.915 44.6054 335.479 45.1695 335.166 45.5455C330.842 50.121 326.455 54.7591 322.13 59.3345C321.754 59.6479 321.253 59.0838 321.566 58.7704Z" fill="#952C28"/>
<path d="M326.514 63.7211C330.463 59.2083 334.474 54.6329 338.422 50.1201C338.736 49.744 339.3 50.3082 338.986 50.6842C335.038 55.197 331.027 59.7724 327.078 64.2851C326.765 64.5985 326.201 64.0344 326.514 63.7211Z" fill="#952C28"/>
<path d="M330.529 68.6739C333.725 65.1012 336.859 61.5287 340.055 57.956C340.368 57.58 340.932 58.1441 340.619 58.5202C337.423 62.0928 334.289 65.6654 331.093 69.238C330.717 69.614 330.153 69.0499 330.529 68.6739Z" fill="#952C28"/>
<path d="M310.414 74.0645C312.294 69.8651 312.67 65.2897 311.605 60.7769C311.479 60.2755 312.231 60.0875 312.357 60.5889C313.485 65.2897 313.046 70.0531 311.103 74.4405C310.915 74.9419 310.226 74.5032 310.414 74.0645Z" fill="#952C28"/>
<path d="M173.592 180.617C187.066 180.178 200.604 179.677 214.078 178.674C212.699 190.52 211.509 200.673 211.509 201.614C211.509 203.933 100.704 210.075 97.6329 210.827C96.6928 211.078 96.1914 199.107 95.9407 182.372C121.824 181.996 147.708 181.494 173.592 180.617Z" fill="#E64825"/>
<path d="M120.761 185.316C74.6342 176.416 15.5343 158.678 13.8421 202.615C12.15 246.489 69.4324 248.745 133.295 248.62C197.096 248.432 200.48 248.432 211.448 261.03C221.663 272.813 231.064 282.591 243.223 271.622L205.682 212.643C205.619 212.706 143.887 189.829 120.761 185.316Z" fill="#E64825"/>
<path d="M81.9019 182.371C77.3268 183.813 72.7517 184.064 67.9886 183.437C60.5932 182.497 54.2006 179.237 49.8136 174.161C61.6587 174.098 75.3213 176.229 89.1719 178.924C87.1037 180.616 83.9074 181.745 81.9019 182.371Z" fill="#322E28"/>
<path d="M194.401 208.569C201.232 211.014 205.619 212.643 205.619 212.643L243.16 271.622C230.939 282.591 221.601 272.751 211.385 261.03C205.87 254.7 202.298 251.566 192.208 249.999C194.903 236.523 195.216 222.421 194.401 208.569Z" fill="#322E28"/>
<path d="M127.527 233.013C127.527 233.013 137.618 226.495 150.967 218.222C152.784 233.452 154.602 248.683 157.359 263.725C142.005 268.614 138.808 272.5 134.045 281.337C126.587 295.252 119.505 307.035 104.151 299.388L127.527 233.013Z" fill="#FFA79B"/>
<path d="M147.709 220.227C166.511 208.506 193.711 192.022 207.624 185.879C252.685 166.011 308.84 134.484 321.876 176.666C334.912 218.848 276.626 234.956 211.071 250.249C183.119 256.767 166.448 260.716 155.919 264.163C152.41 249.685 148.775 235.144 147.709 220.227Z" fill="#E64825"/>
<path d="M127.526 233.012C127.526 233.012 132.665 229.691 140.436 224.802C139.622 229.44 138.243 234.015 137.804 238.779C137.428 243.479 138.556 247.804 140.374 252.129C142.692 257.582 145.638 262.596 146.578 267.924C139.935 271.308 137.365 275.069 133.981 281.336C126.523 295.251 119.441 307.034 104.086 299.387L127.526 233.012Z" fill="#322E28"/>
<path d="M152.033 217.092C172.402 206.875 193.711 198.602 215.646 192.334C216.147 192.209 216.335 192.961 215.834 193.086C193.961 199.354 172.715 207.628 152.41 217.781C151.971 217.969 151.595 217.342 152.033 217.092Z" fill="white"/>
<path d="M76.1986 192.147C101.205 191.708 126.148 193.651 150.778 197.913C157.86 199.166 164.88 200.545 171.836 202.175C172.338 202.3 172.087 203.052 171.648 202.927C147.269 197.286 122.325 193.964 97.3191 193.087C90.2998 192.836 83.2179 192.773 76.1986 192.899C75.6972 192.961 75.6972 192.147 76.1986 192.147Z" fill="white"/>
<path d="M241.589 180.239C251.303 177.23 261.08 174.222 270.794 171.276C271.296 171.151 271.484 171.84 270.982 172.028C261.268 175.036 251.491 178.045 241.777 180.991C241.338 181.116 241.15 180.427 241.589 180.239Z" fill="white"/>
<path d="M145.58 61.2783C117.566 63.9734 81.9679 59.7741 77.7061 85.409C73.5071 111.107 70.4362 122.952 68.4933 141.38C66.5505 159.807 59.6565 181.994 82.6573 184.313C105.658 186.632 158.554 190.832 158.554 190.832L168.895 162.815C168.895 162.815 125.964 147.459 112.176 143.26L114.871 88.0414L145.58 61.2783Z" fill="#FFA79B"/>
<path d="M69.5565 132.731C83.9712 133.044 98.3858 133.671 112.55 136.053L114.869 88.105L133.796 71.5583L144.889 61.8434L145.202 61.5927L145.578 61.2793C139.311 61.9061 132.668 62.1568 126.087 62.4702C103.212 63.5984 81.0256 65.4787 77.7667 85.4726C74.1943 106.845 71.4367 118.691 69.5565 132.731Z" fill="#FECA55"/>
<path d="M113.303 96.5665C113.303 96.0651 114.055 96.0651 114.055 96.5665C113.992 108.475 113.929 120.321 113.867 132.23C113.867 132.731 113.115 132.731 113.115 132.23C113.177 120.321 113.24 108.412 113.303 96.5665Z" fill="white"/>
<path d="M104.531 143.262C106.349 143.262 108.103 143.199 109.921 143.199C110.422 143.199 110.422 143.951 109.921 143.951C108.103 143.951 106.349 144.014 104.531 144.014C104.03 144.014 104.03 143.262 104.531 143.262Z" fill="#952C28"/>
<path d="M148.471 67.669C143.082 66.3528 137.817 64.8486 132.49 63.3443L144.147 35.8291L164.578 44.9173C164.202 45.2307 160.943 58.5809 158.374 69.4867C155.052 68.8599 151.73 68.4212 148.471 67.669Z" fill="#FFA79B"/>
<path d="M150.348 40.5323C150.41 39.7175 150.473 38.9027 150.661 38.0879L164.512 44.9823C164.261 45.1704 162.757 51.062 161.065 58.1445C155.8 53.193 151.664 47.1761 150.348 40.5323Z" fill="black"/>
<path d="M128.412 22.23C128.537 15.1475 139.129 7.87696 147.527 6.87413C151.162 6.43539 152.039 3.48957 153.794 5.93397C158.118 12.0763 172.22 30.6914 171.593 37.9619C170.653 48.5543 157.868 50.9361 149.532 46.9874C141.134 43.0388 128.224 32.2583 128.412 22.23Z" fill="#FFA79B"/>
<path d="M127.976 23.7963C126.848 21.9787 127.412 19.7223 128.916 18.4687C128.979 18.4061 128.979 18.4061 129.041 18.3434C128.54 14.8335 131.11 12.013 134.243 11.6996C134.619 10.8222 135.309 10.1327 136.249 9.69396C136.374 9.3179 136.5 9.00452 136.75 8.75381C137.314 8.18972 138.004 7.93902 138.756 7.93902C139.257 6.37209 140.135 4.99318 141.639 4.24106C142.579 3.73964 143.644 3.865 144.459 4.30374C146.276 2.42343 148.533 0.856516 150.789 0.731162C151.729 0.668486 153.609 1.10722 154.424 3.42627C155.364 3.36359 156.241 3.865 156.68 4.86783C157.307 6.37208 156.555 7.93902 155.364 8.87917C154.674 9.44326 153.672 9.8193 152.732 9.75663C149.849 12.9532 142.015 18.4688 140.135 18.4061C141.576 21.728 143.205 29.3745 139.257 30.064C138.505 33.3859 142.203 38.8388 140.385 41.1578C136.374 37.8986 132.614 33.95 130.42 29.6879C130.358 29.6879 130.232 29.6879 130.107 29.6879C127.287 29.0612 126.409 25.8019 127.976 23.7963Z" fill="#952C28"/>
<path d="M131.61 38.2132C130.669 34.4526 134.367 29.6265 139.694 30.1279C142.138 33.5751 144.645 36.9597 147.215 40.2816C145.961 42.4126 142.138 44.9824 138.754 44.7317C134.931 44.3556 132.612 42.2246 131.61 38.2132Z" fill="#FFA79B"/>
<path d="M137.376 35.7049C138.88 35.8929 140.384 36.0182 141.888 36.2063C142.389 36.269 142.264 36.9584 141.763 36.9584C141.637 36.9584 141.575 36.9584 141.449 36.9584C141.387 36.9584 141.386 36.9584 141.324 36.9584C139.945 36.8331 138.629 36.645 137.25 36.5197C136.749 36.3943 136.874 35.6422 137.376 35.7049Z" fill="#952C28"/>
<path d="M149.594 22.7308C150.033 23.2322 150.535 23.7963 150.973 24.2977C151.475 24.8618 152.227 23.9844 151.725 23.4829C151.287 22.9815 150.785 22.4174 150.347 21.916C149.908 21.3519 149.156 22.1667 149.594 22.7308Z" fill="black"/>
<path d="M156.673 16.9017C157.111 17.4031 157.613 17.9672 158.051 18.4686C158.553 19.0327 159.305 18.1553 158.803 17.6538C158.365 17.1524 157.863 16.5883 157.425 16.0869C156.986 15.5228 156.234 16.3376 156.673 16.9017Z" fill="black"/>
<path d="M161.001 22.4191C160.563 22.6072 160.813 23.2966 161.252 23.1086C162.255 22.7325 162.756 23.9234 162.505 24.7382C162.255 25.553 161.565 26.117 160.939 26.6811C160.563 26.9945 161.001 27.6213 161.377 27.3079C162.38 26.4304 163.571 25.3023 163.258 23.798C163.132 22.7325 162.004 22.0431 161.001 22.4191Z" fill="#952C28"/>
<path d="M147.843 18.7019C147.429 19.4366 147.063 20.0964 146.649 20.8311C146.14 21.7155 147.507 22.3733 148.016 21.4889C148.43 20.7543 148.796 20.0944 149.21 19.3598C149.657 18.4891 148.29 17.8312 147.843 18.7019Z" fill="#952C28"/>
<path d="M155.561 12.6492C155.096 12.8018 154.631 12.9544 154.108 13.0839C153.178 13.3892 153.554 14.8197 154.461 14.5727C154.926 14.4201 155.391 14.2674 155.915 14.1379C156.845 13.8327 156.492 12.3439 155.561 12.6492Z" fill="#952C28"/>
<path d="M165.56 35.3263C164.424 34.5169 162.975 34.6574 162.119 35.5659C161.652 36.0328 160.916 35.0968 161.383 34.6299C162.657 33.3764 164.457 33.2313 166.114 34.3005C166.697 34.7535 166.192 35.6574 165.56 35.3263Z" fill="#952C28"/>
<path d="M126.031 62.4669C127.911 66.0395 130.606 69.1106 133.802 71.555C137.312 74.2501 141.511 76.1305 146.211 76.8826C155.236 78.3242 165.389 74.5008 169.651 67.0423C170.904 64.7859 171.656 62.2162 171.656 59.333C164.073 60.0225 155.424 60.9626 145.271 61.5894L145.647 61.276C139.317 61.8401 132.674 62.0908 126.031 62.4669Z" fill="#FFA79B"/>
<path d="M155.422 192.081L231.506 189.512L254.883 126.584L178.799 129.091L155.422 192.081Z" fill="#322E28"/>
<path d="M127.341 191.455L230.876 187.945C231.879 187.883 231.941 189.449 230.939 189.449L127.404 192.959C126.401 193.022 126.339 191.518 127.341 191.455Z" fill="#322E28"/>
<path d="M214.453 162.122C214.704 162.122 214.892 162.122 215.143 162.059C216.96 161.871 218.59 160.869 219.78 159.302C220.971 157.735 221.598 155.729 221.473 153.723C221.347 151.655 220.407 149.837 218.84 148.647C214.892 145.638 211.445 146.077 208.437 150.026C207.246 151.592 206.744 153.535 206.995 155.541C207.246 157.484 208.249 159.239 209.878 160.43C211.32 161.558 212.886 162.122 214.453 162.122ZM214.077 148.333C215.268 148.333 216.521 148.897 217.963 149.963C220.658 152.031 220.407 155.98 218.59 158.424C217.649 159.678 216.396 160.43 214.955 160.555C213.576 160.681 212.134 160.242 210.818 159.302C208.249 157.359 207.747 153.661 209.69 151.091C211.132 149.211 212.51 148.333 214.077 148.333Z" fill="white"/>
<path d="M165.825 169.582C170.337 157.172 174.787 144.825 179.299 132.415C179.487 131.976 180.177 132.164 180.051 132.603C175.539 145.013 171.089 157.36 166.577 169.77C166.389 170.209 165.699 170.021 165.825 169.582Z" fill="white"/>
<path d="M188.889 113.421C189.641 115.74 190.393 118.059 191.145 120.316C191.458 121.256 189.954 121.632 189.641 120.754C188.889 118.435 188.136 116.116 187.384 113.86C187.071 112.92 188.575 112.481 188.889 113.421Z" fill="#2252B2"/>
<path d="M168.271 108.409L176.669 122.009C177.171 122.824 175.855 123.639 175.353 122.762C172.533 118.249 169.775 113.736 166.955 109.161C166.454 108.346 167.77 107.594 168.271 108.409Z" fill="#2252B2"/>
<path d="M155.856 140.624C159.366 141.313 162.813 142.003 166.323 142.692C167.263 142.88 166.887 144.384 165.884 144.196C162.374 143.507 158.927 142.817 155.418 142.128C154.478 141.94 154.854 140.436 155.856 140.624Z" fill="#2252B2"/>
</g>
<defs>
<clipPath id="clip0">
<rect width="343" height="302" fill="white" transform="matrix(-1 0 0 1 343.5 0.0146484)"/>
</clipPath>
</defs>
</svg>
