<svg width="17" height="16" viewBox="0 0 17 16" fill="none" xmlns="http://www.w3.org/2000/svg">
<path fill-rule="evenodd" clip-rule="evenodd" d="M7.49886 11.3332C7.3282 11.3332 7.15753 11.2678 7.02753 11.1378C6.76686 10.8772 6.76686 10.4558 7.02753 10.1952L9.23086 7.99184L7.11086 5.79651C6.85553 5.53117 6.86286 5.10917 7.12753 4.85384C7.39286 4.59851 7.81486 4.60584 8.0702 4.86984L10.6449 7.53651C10.8975 7.79851 10.8942 8.21384 10.6369 8.47117L7.9702 11.1378C7.8402 11.2678 7.66953 11.3332 7.49886 11.3332Z" fill="#BAB5AB"/>
<mask id="mask0" mask-type="alpha" maskUnits="userSpaceOnUse" x="6" y="4" width="5" height="8">
<path fill-rule="evenodd" clip-rule="evenodd" d="M7.49886 11.3332C7.3282 11.3332 7.15753 11.2678 7.02753 11.1378C6.76686 10.8772 6.76686 10.4558 7.02753 10.1952L9.23086 7.99184L7.11086 5.79651C6.85553 5.53117 6.86286 5.10917 7.12753 4.85384C7.39286 4.59851 7.81486 4.60584 8.0702 4.86984L10.6449 7.53651C10.8975 7.79851 10.8942 8.21384 10.6369 8.47117L7.9702 11.1378C7.8402 11.2678 7.66953 11.3332 7.49886 11.3332Z" fill="white"/>
</mask>
<g mask="url(#mask0)">
<rect x="0.5" width="16" height="16" fill="#BAB5AB"/>
</g>
</svg>
