<svg width="16" height="16" viewBox="0 0 16 16" fill="none" xmlns="http://www.w3.org/2000/svg">
<path fill-rule="evenodd" clip-rule="evenodd" d="M6.57494 11.9999C6.39094 11.9999 6.21494 11.9239 6.08894 11.7899L2.84694 8.33725C2.59427 8.06925 2.60827 7.64725 2.87627 7.39525C3.14494 7.14325 3.56694 7.15658 3.81827 7.42458L6.56827 10.3519L12.1736 4.21725C12.4229 3.94458 12.8443 3.92658 13.1163 4.17458C13.3876 4.42258 13.4063 4.84458 13.1583 5.11591L7.06694 11.7826C6.94227 11.9199 6.76494 11.9986 6.5796 11.9999H6.57494Z" fill="#BAB5AB"/>
<mask id="mask0" mask-type="alpha" maskUnits="userSpaceOnUse" x="2" y="4" width="12" height="8">
<path fill-rule="evenodd" clip-rule="evenodd" d="M6.57494 11.9999C6.39094 11.9999 6.21494 11.9239 6.08894 11.7899L2.84694 8.33725C2.59427 8.06925 2.60827 7.64725 2.87627 7.39525C3.14494 7.14325 3.56694 7.15658 3.81827 7.42458L6.56827 10.3519L12.1736 4.21725C12.4229 3.94458 12.8443 3.92658 13.1163 4.17458C13.3876 4.42258 13.4063 4.84458 13.1583 5.11591L7.06694 11.7826C6.94227 11.9199 6.76494 11.9986 6.5796 11.9999H6.57494Z" fill="white"/>
</mask>
<g mask="url(#mask0)">
</g>
</svg>
