<svg width="16" height="16" viewBox="0 0 16 16" fill="none" xmlns="http://www.w3.org/2000/svg">
<path fill-rule="evenodd" clip-rule="evenodd" d="M3.33268 8.66634H11.2427L8.82068 11.573C8.58468 11.8557 8.62335 12.2763 8.90601 12.5117C9.18935 12.7477 9.60935 12.709 9.84535 12.4263L13.1787 8.42634C13.2047 8.39501 13.2173 8.35834 13.2367 8.32368C13.2527 8.29568 13.272 8.27168 13.284 8.24101C13.314 8.16434 13.332 8.08368 13.332 8.00234C13.332 8.00168 13.3327 8.00034 13.3327 7.99967C13.3327 7.99901 13.332 7.99767 13.332 7.99701C13.332 7.91567 13.314 7.83501 13.284 7.75834C13.272 7.72767 13.2527 7.70367 13.2367 7.67567C13.2173 7.64101 13.2047 7.60434 13.1787 7.57301L9.84535 3.57301C9.71268 3.41501 9.52335 3.33301 9.33268 3.33301C9.18202 3.33301 9.03068 3.38367 8.90601 3.48767C8.62335 3.72301 8.58468 4.14367 8.82068 4.42634L11.2427 7.33301H3.33268C2.96468 7.33301 2.66602 7.63167 2.66602 7.99967C2.66602 8.36768 2.96468 8.66634 3.33268 8.66634Z" fill="#0EA36C"/>
<mask id="mask0" mask-type="alpha" maskUnits="userSpaceOnUse" x="2" y="3" width="12" height="10">
<path fill-rule="evenodd" clip-rule="evenodd" d="M3.33268 8.66634H11.2427L8.82068 11.573C8.58468 11.8557 8.62335 12.2763 8.90601 12.5117C9.18935 12.7477 9.60935 12.709 9.84535 12.4263L13.1787 8.42634C13.2047 8.39501 13.2173 8.35834 13.2367 8.32368C13.2527 8.29568 13.272 8.27168 13.284 8.24101C13.314 8.16434 13.332 8.08368 13.332 8.00234C13.332 8.00168 13.3327 8.00034 13.3327 7.99967C13.3327 7.99901 13.332 7.99767 13.332 7.99701C13.332 7.91567 13.314 7.83501 13.284 7.75834C13.272 7.72767 13.2527 7.70367 13.2367 7.67567C13.2173 7.64101 13.2047 7.60434 13.1787 7.57301L9.84535 3.57301C9.71268 3.41501 9.52335 3.33301 9.33268 3.33301C9.18202 3.33301 9.03068 3.38367 8.90601 3.48767C8.62335 3.72301 8.58468 4.14367 8.82068 4.42634L11.2427 7.33301H3.33268C2.96468 7.33301 2.66602 7.63167 2.66602 7.99967C2.66602 8.36768 2.96468 8.66634 3.33268 8.66634Z" fill="white"/>
</mask>
<g mask="url(#mask0)">
</g>
</svg>
