<svg width="300" height="283" viewBox="0 0 300 283" fill="none" xmlns="http://www.w3.org/2000/svg">
<path opacity="0.6" d="M55.1053 174.46C84.6934 137.396 131.425 118.384 178.485 124.264L181.959 124.698C228.74 130.544 268.713 161.208 286.48 204.877C304.246 248.547 297.034 298.407 267.62 335.252L265.436 337.988C235.848 375.052 189.116 394.064 142.057 388.184L138.583 387.75C91.8017 381.904 51.8287 351.24 34.0622 307.571C16.2958 263.901 23.5083 214.041 52.9213 177.196L55.1053 174.46Z" fill="white"/>
<path d="M85.2935 83.5988C81.8989 84.1776 78.6373 81.859 78.0568 78.4544C77.4763 75.0498 79.7853 71.7814 83.1799 71.2027C86.7051 70.6016 89.3987 72.478 90.4017 76.2597C90.7928 77.7652 90.5236 79.3382 89.629 80.6586C88.6921 82.2557 87.0778 83.2945 85.2935 83.5988ZM83.3957 72.4684C80.6539 72.9359 78.814 75.5404 79.2828 78.2903C79.7517 81.0401 82.3508 82.8878 85.0926 82.4203C86.5287 82.1754 87.8607 81.3194 88.6396 80.1086C89.3102 79.051 89.5519 77.842 89.2204 76.6857C88.4011 73.4566 86.3116 71.9713 83.3957 72.4684Z" fill="#E6DFD1"/>
<rect width="17" height="17" transform="matrix(-0.948362 0.317192 0.317192 0.948362 40.1221 112.146)" fill="#026D49"/>
<path d="M247.903 83.5998C246.346 93.0734 232.842 92.5451 230.614 101.775C230.487 102.317 231.295 102.635 231.422 102.093C233.65 92.8629 247.165 93.4544 248.765 83.6806C248.857 83.1119 247.995 83.0311 247.903 83.5998Z" fill="#E6DFD1"/>
<path d="M252.034 89.9765C250.381 98.8908 236.906 98.5345 234.587 107.227C234.454 107.738 235.258 108.028 235.391 107.517C237.71 98.8246 251.194 99.2402 252.893 90.0434C252.991 89.5083 252.131 89.4413 252.034 89.9765Z" fill="#E6DFD1"/>
<path d="M286.564 144.569C290.959 140.016 295.356 135.495 299.751 130.942C300.163 130.518 299.458 129.891 299.047 130.314C294.651 134.868 290.255 139.388 285.859 143.942C285.484 144.397 286.153 144.993 286.564 144.569Z" fill="#E6DFD1"/>
</svg>
