<svg width="272" height="36" viewBox="0 0 272 36" fill="none" xmlns="http://www.w3.org/2000/svg">
<path d="M44.9875 18.1144C41.9615 16.4717 40.8285 12.634 42.4737 9.59951C44.1189 6.56503 47.9516 5.42309 50.9775 7.06582C54.1199 8.77174 55.0792 11.911 53.5335 15.503C52.9117 16.9278 51.729 17.9978 50.2108 18.4827C48.4884 19.159 46.578 18.9779 44.9875 18.1144ZM50.3659 8.19401C47.9218 6.86719 44.8677 7.77719 43.5389 10.2281C42.2101 12.679 43.1129 15.7372 45.5569 17.0641C46.8372 17.7591 48.4127 17.9094 49.7723 17.439C50.9524 17.0222 51.8887 16.2214 52.3418 15.1078C53.6909 12.0636 52.9651 9.60508 50.3659 8.19401Z" fill="#BAB5AB"/>
<rect x="13.8564" y="19.7412" width="12.4409" height="12.4409" transform="rotate(-7.142 13.8564 19.7412)" fill="#FA7355"/>
<g clip-path="url(#clip0)">
<path d="M250.726 16.322C248.873 19.5543 245.388 18.9344 243.226 16.4991C241.947 15.0379 240.932 13.5768 239.167 12.6469C236.212 11.0529 232.859 11.0972 229.859 12.4698C229.153 12.7797 229.77 13.8424 230.476 13.5325C233.653 12.1156 237.535 12.4698 240.226 14.8166C241.814 16.1892 242.697 18.3588 244.638 19.3329C247.285 20.6612 250.373 19.4657 251.829 16.9862C252.138 16.2334 251.079 15.6135 250.726 16.322Z" fill="#BAB5AB"/>
<path d="M249.179 22.8756C247.326 26.1079 243.841 25.488 241.679 23.0528C240.4 21.5916 239.385 20.1304 237.621 19.2006C234.665 17.6066 231.312 17.6509 228.312 19.0235C227.606 19.3335 228.223 20.3961 228.929 20.0862C232.106 18.6693 235.988 19.0235 238.679 21.3702C240.268 22.7428 241.15 24.9124 243.091 25.8866C245.738 27.2149 248.826 26.0194 250.282 23.5398C250.635 22.8314 249.576 22.2115 249.179 22.8756Z" fill="#BAB5AB"/>
</g>
<defs>
<clipPath id="clip0">
<rect width="23.8849" height="35" fill="white" transform="translate(228 0.445312)"/>
</clipPath>
</defs>
</svg>
