<svg width="211" height="63" viewBox="0 0 211 63" fill="none" xmlns="http://www.w3.org/2000/svg">
<path d="M65.0604 47.9692C64.8107 48.0441 64.5359 48.1195 64.2611 48.1195C63.7863 48.1195 63.3869 47.919 63.3869 47.2448V42.9476C63.3869 39.3247 61.238 37.7009 57.8402 37.7009C55.9154 37.7009 54.1911 38.1754 53.2421 38.5003V40.949C54.3168 40.4743 55.7898 40.0246 57.5649 40.0246C59.6127 40.0246 60.7119 41.0739 60.7119 42.5731V42.9963C59.7624 42.7966 58.6134 42.6466 57.5889 42.6466C55.0907 42.6466 52.2423 43.5956 52.2423 46.6689C52.2423 49.1428 54.266 50.3421 56.4394 50.3421C58.3134 50.3421 59.788 49.7433 60.9622 48.7932C61.3872 49.7676 62.2614 50.1924 63.3609 50.1924C63.9608 50.1924 64.5605 50.0927 65.0601 49.893V47.9682L65.0604 47.9692ZM60.7135 46.8454C59.7637 47.7944 58.5144 48.2694 57.2403 48.2694C56.0411 48.2694 54.9921 47.6701 54.9921 46.4954C54.9921 44.9978 56.5907 44.5225 58.1145 44.5225C58.9641 44.5225 59.9885 44.6722 60.713 44.8219L60.7135 46.8454ZM72.6313 50.3429C74.1551 50.3429 75.4543 50.0681 76.6039 49.5184V47.044C75.654 47.5934 74.3797 47.9682 73.1058 47.9682C70.9573 47.9682 68.8835 46.7438 68.8835 44.0212C68.8835 41.1974 71.0324 40.0733 73.1555 40.0733C74.3799 40.0733 75.6043 40.4475 76.4785 41.0723V38.6248C75.4295 38.0003 74.1302 37.7009 72.7813 37.7009C69.5829 37.7009 66.1602 39.6498 66.1602 44.1218C66.1602 48.3938 69.4342 50.3426 72.6324 50.3426L72.6313 50.3429ZM83.6241 42.6477C81.1256 42.6477 78.2774 43.5967 78.2774 46.6703C78.2774 49.1439 80.3011 50.3429 82.4745 50.3429C84.3485 50.3429 85.8229 49.7435 86.997 48.794C87.4221 49.7671 88.2963 50.1921 89.3958 50.1921C89.9952 50.1921 90.5948 50.0916 91.0945 49.8927V47.9684C90.8458 48.0433 90.5705 48.1187 90.2951 48.1187C89.8219 48.1187 89.4209 47.9182 89.4209 47.244V42.9476C89.4209 39.3252 87.2735 37.7012 83.8756 37.7012C81.9519 37.7012 80.2279 38.1757 79.2783 38.5005V40.9493C80.353 40.4745 81.8265 40.0249 83.6003 40.0249C85.6488 40.0249 86.7484 41.0741 86.7484 42.5734V42.9979C85.7988 42.7974 84.6498 42.6477 83.6254 42.6477H83.6241ZM86.7471 46.8454C85.7962 47.7944 84.5469 48.2694 83.2728 48.2694C82.0735 48.2694 81.0245 47.6701 81.0245 46.4954C81.0245 44.9978 82.6232 44.5225 84.147 44.5225C84.9966 44.5225 86.021 44.6722 86.7455 44.8219V46.8456L86.7471 46.8454ZM92.1927 44.0223C92.1927 47.4696 94.5158 50.3429 98.139 50.3429C100.387 50.3429 101.812 49.2936 102.736 48.1195V50.0181H105.135V32.5291H102.461V39.5747C101.637 38.6256 100.238 37.7007 98.139 37.7007C94.5161 37.7007 92.1927 40.5748 92.1927 44.0223ZM102.436 42.5477V45.471C101.861 46.7943 100.487 47.9946 98.6132 47.9946C96.4647 47.9946 94.8906 46.3692 94.8906 44.022C94.8906 41.6722 96.4647 40.0479 98.6132 40.0479C100.487 40.0479 101.861 41.2474 102.436 42.5464V42.5477ZM114.529 50.3432C116.203 50.3432 117.727 50.0437 118.826 49.5184V47.2194C117.802 47.7193 116.478 48.0681 115.028 48.0681C112.83 48.0681 110.731 47.1686 110.431 45.0197H119.45C120.225 41.5471 118.576 37.6993 113.804 37.6993C111.031 37.6993 107.733 39.673 107.733 44.0204C107.733 48.2424 110.856 50.341 114.529 50.341V50.3432ZM113.93 39.9241C116.553 39.9241 117.203 41.9735 117.053 43.0225H110.407C110.507 40.9988 112.131 39.9241 113.93 39.9241ZM138.364 42.5974V50.0186H141.038V42.5226C141.038 40.0492 139.663 37.7009 136.49 37.7009C134.742 37.7009 133.343 38.5751 132.293 39.6247C131.594 38.4503 130.344 37.7009 128.545 37.7009C126.596 37.7009 125.198 38.8002 124.548 39.5247V38.0257H122.174V50.0167H124.848V41.9219C125.473 41.1225 126.572 40.073 128.021 40.073C129.47 40.073 130.395 41.0474 130.395 42.5966V50.0167H133.068V42.5226C133.068 42.248 133.043 41.9729 133.018 41.6984C133.643 40.9488 134.667 40.0746 135.991 40.0746C137.441 40.0746 138.364 41.0485 138.364 42.5974ZM155.629 38.026H152.832L149.259 47.0699L145.211 38.026H142.363L148.059 50.1183L147.809 50.718C147.111 52.592 146.136 53.5161 144.837 53.5161C144.438 53.5161 144.013 53.4662 143.612 53.3413V55.6142C144.138 55.7393 144.662 55.8142 145.187 55.8142C147.01 55.8142 148.709 54.7654 150.008 51.6427L155.629 38.026ZM55.7794 21.0754C56.4536 20.101 57.6026 19.0768 59.1272 19.0768C60.7258 19.0768 61.9254 20.001 61.9254 21.9501V29.0206H64.5987V21.5999C64.5987 18.7517 62.675 16.7032 59.6517 16.7032C58.0276 16.7032 56.6535 17.4517 55.7791 18.3505V11.5311H53.1057V29.0201H55.7791L55.7794 21.0754ZM69.2709 25.3728C69.2709 28.1707 71.0701 29.32 73.3932 29.32C74.5679 29.32 75.7169 29.12 76.6164 28.7955V26.497C75.8668 26.7964 75.0672 26.9715 74.1931 26.9715C72.6425 26.9715 71.918 26.4475 71.918 24.8729V19.3762H76.2654V17.028H71.9183V12.756L69.2701 13.4056V17.028H67.1215V19.3768H69.2698V25.3731L69.2709 25.3728ZM82.3615 20.9252C82.9859 20.1258 84.0852 19.0763 85.5347 19.0763C86.9837 19.0763 87.9078 20.0507 87.9078 21.5999V29.0201H90.5812V21.5251C90.5812 21.2503 90.5571 20.9752 90.5325 20.7006C91.1573 19.951 92.1814 19.0768 93.5053 19.0768C94.9548 19.0768 95.8792 20.0513 95.8792 21.6005V29.0206H98.5525V21.5253C98.5525 19.0517 97.1785 16.7034 94.0052 16.7034C92.2563 16.7034 90.8571 17.5776 89.808 18.6272C89.1084 17.4528 87.8592 16.7034 86.06 16.7034C84.1112 16.7034 82.7125 17.8027 82.0628 18.5272V17.0282H79.6894V29.0209H82.3628V20.9252H82.3615ZM102.462 11.5311H105.136V29.0201H102.462V11.5311ZM21.4387 9.44531L0.5 11.6409V50.0194L21.4387 62.4783L42.3774 50.0194V11.6409L21.6584 9.4675L21.4387 9.44531ZM39.6388 48.4617L21.4387 59.2908L3.23857 48.4617V32.7317L21.3612 43.517L21.3911 45.4718L8.95899 38.0728L8.94081 39.9703L21.4218 47.4717L21.4539 49.4783L8.97636 42.0553L8.95819 43.9528L21.4392 51.4542L34.0397 43.9148V42.0088L34.0237 42.0176V35.82L39.6377 32.4671V48.4617H39.6388ZM39.6238 30.426L34.6439 33.361L32.3456 34.7151L21.3841 28.1935L21.366 30.091L30.7355 35.6622L30.6526 35.7112L30.4505 35.8309L29.1192 36.6153L21.3841 32.0123L21.3662 33.9104L27.4721 37.5408L26.0312 38.5043L25.9965 38.5257L21.3841 35.8079L21.3662 37.7055L24.3925 39.4875L21.3096 41.3383L3.28027 30.6209L21.336 19.7671V19.769L39.6238 30.426ZM39.638 28.5172L21.3414 17.73V17.7273L21.3392 17.7289L21.3366 17.7276V17.7303L3.23937 28.5062V14.1076L21.4395 12.1994L39.6391 14.1074V28.5167L39.638 28.5172Z" fill="#52586A"/>
</svg>
