<svg width="71" height="40" viewBox="0 0 71 40" fill="none" xmlns="http://www.w3.org/2000/svg">
<path d="M56.8087 31.6356C55.2734 28.5537 56.548 24.7607 59.6367 23.2198C62.7254 21.6789 66.5195 22.9433 68.0548 26.0251C69.6492 29.2255 68.6333 32.3468 65.306 34.4014C63.9791 35.2114 62.3965 35.4089 60.8749 34.9348C59.0763 34.5001 57.6157 33.2555 56.8087 31.6356ZM66.9065 26.598C65.6664 24.1088 62.643 23.1013 60.1483 24.3459C57.6535 25.5905 56.6378 28.613 57.8779 31.1022C58.5274 32.4061 59.7314 33.4333 61.1148 33.8284C62.3204 34.1643 63.5468 34.0458 64.5569 33.3939C67.4087 31.6752 68.2253 29.2452 66.9065 26.598Z" fill="#BAB5AB"/>
<path d="M18.0354 32.233C12.4029 30.6525 6.73074 29.0919 1.07853 27.4719C0.327541 27.2546 -0.0707693 28.4399 0.68022 28.6572C6.31275 30.2377 11.9849 31.7984 17.6371 33.4183C18.3881 33.6356 18.7864 32.4503 18.0354 32.233Z" fill="#BAB5AB"/>
<rect x="30.2842" y="0.414551" width="12.4409" height="12.4409" transform="rotate(27.8796 30.2842 0.414551)" fill="#FA7355"/>
</svg>
