<svg width="226" height="176" viewBox="0 0 226 176" fill="none" xmlns="http://www.w3.org/2000/svg">
<path d="M61.6155 27.3596L11.9756 102.916L63.1591 102.348L165.689 101.21C165.689 101.21 146.109 74.9684 126.61 58.3947C124.254 56.3636 121.898 54.5762 119.624 52.8701L108.331 47.9142L61.6155 27.3596Z" fill="#FA7355"/>
<path d="M129.941 85.3676C135.547 83.174 141.478 81.8741 147.49 82.1178C148.384 82.1178 149.359 82.1991 150.252 82.2803C159.352 92.6795 165.689 101.129 165.689 101.129L109.224 101.779C114.018 94.2231 121.655 88.6173 129.941 85.3676Z" fill="#A04835"/>
<path d="M130.177 43.5281C129.855 43.7755 127.799 50.1689 125.808 56.5129C123.817 62.8568 107.386 51.2058 107.386 51.2058L115.144 34.8927L130.177 43.5281Z" fill="#FFA79B"/>
<path d="M126.215 55.1757C128.146 49.2874 129.919 43.726 130.241 43.4785L122.066 39.1034C120.566 44.353 122.845 50.3881 126.215 55.1757Z" fill="black"/>
<path d="M123.385 10.9437C128.366 7.42544 138.825 11.1732 143.794 16.5763C145.982 18.8912 148.474 18.0015 147.626 20.4974C145.55 26.5986 139.661 45.8733 134.254 49.1038C126.394 53.8087 118.311 46.0851 116.791 38.2375C115.272 30.39 116.293 15.981 123.385 10.9437Z" fill="#FFA79B"/>
<path d="M149.7 15.7286C147.542 13.1859 142.287 12.6122 139.547 13.1798C134.244 9.87681 127.157 8.2517 123.385 10.9436C118.662 14.2638 116.62 21.8759 116.229 28.8353C118.829 28.8868 120.322 27.2285 122.973 26.0119C130.794 26.4586 133.265 20.8729 134.842 18.1249C136.099 20.028 145.667 22.616 148.006 21.1267C151.248 18.9446 150.343 16.5663 149.7 15.7286Z" fill="#952C28"/>
<path d="M112.913 24.5183C115.109 21.9094 120.538 22.0423 122.958 26.1258C121.682 29.6666 120.634 33.2373 119.522 36.8575C117.297 37.0292 113.479 35.6592 111.906 33.0772C110.214 30.0741 110.523 27.2756 112.913 24.5183Z" fill="#FFA79B"/>
<path d="M116.191 26.9183C116.838 28.1622 117.551 29.3565 118.199 30.6003C118.481 31.1008 117.624 31.4519 117.406 30.9019C116.758 29.6581 116.046 28.4637 115.398 27.2199C115.116 26.7194 115.909 26.4178 116.191 26.9183Z" fill="#D24A43"/>
<path d="M126.906 38.8693C126.836 39.8451 127.514 40.861 128.475 41.045C128.98 41.1693 128.925 42.0311 128.355 41.9564C126.889 41.6482 125.85 40.2951 126.044 38.8141C126.119 38.2445 126.981 38.2997 126.906 38.8693Z" fill="#D24A43"/>
<path d="M136.445 34.6164C136.969 35.0329 137.593 35.5782 138.277 35.6679C139.01 35.822 139.946 35.3076 139.595 34.4504C139.378 33.9004 140.17 33.5988 140.388 34.1488C140.838 35.1349 140.233 36.2143 139.212 36.4859C137.949 36.8416 136.77 36.1077 135.884 35.3541C135.473 34.9525 136.034 34.2149 136.445 34.6164Z" fill="#D24A43"/>
<path d="M144.143 27.1671C144.356 27.3109 144.519 27.3903 144.732 27.5341C145.633 28.1738 144.641 29.5501 143.74 28.9104C143.528 28.7666 143.364 28.6872 143.151 28.5434C142.136 27.8888 143.178 26.5769 144.143 27.1671Z" fill="#952C28"/>
<path d="M134.967 23.356C135.244 23.4503 135.522 23.5446 135.913 23.6539C136.354 23.8276 136.571 24.3776 136.398 24.8184C136.224 25.2591 135.738 25.4272 135.298 25.2535C135.02 25.1591 134.743 25.0648 134.352 24.9555C133.911 24.7818 133.693 24.2318 133.867 23.7911C134.041 23.3504 134.511 23.2962 134.967 23.356Z" fill="#952C28"/>
<path d="M134.435 26.5308C134.231 27.1994 134.077 27.9324 133.809 28.6505C133.62 29.2051 132.853 28.8727 133.041 28.318C133.245 27.6494 133.399 26.9164 133.667 26.1984C133.742 25.6288 134.623 25.9762 134.435 26.5308Z" fill="black"/>
<path d="M143.378 29.9058C143.175 30.5744 143.02 31.3074 142.752 32.0255C142.564 32.5801 141.796 32.2477 141.985 31.693C142.188 31.0244 142.343 30.2914 142.611 29.5734C142.685 29.0038 143.567 29.3512 143.378 29.9058Z" fill="black"/>
<path d="M119.044 54.827L70.6229 56.0456L56.8115 99.0236C63.2297 103.979 83.2969 125.347 93.4524 136.314L93.5337 136.314C103.689 136.802 113.032 141.433 119.45 149.395C120.425 150.532 119.45 152.726 117.907 151.994C115.144 150.776 109.945 149.151 109.864 149.476C114.088 152.482 116.607 155.163 120.019 159.225C121.725 161.256 124.894 165.318 124.081 167.837C123.594 169.381 122.538 169.787 121.4 169.624C122.944 171.655 120.019 174.743 116.444 172.387C116.851 173.768 114.576 176.611 111.001 174.255C111.001 175.149 109.132 177.505 105.07 174.418C100.196 170.762 96.0522 168 94.9148 166.781C89.7964 164.506 81.9971 157.275 77.8536 152.807C70.2167 148.745 61.3611 143.87 54.8616 140.295C-2.33395 109.504 1.56575 99.6735 5.5467 92.1991C9.52765 84.7247 23.7453 59.9453 44.2187 36.1409C63.7985 13.5551 81.7533 19.9734 119.044 54.827Z" fill="#FFA79B"/>
<path d="M44.2186 36.3034C23.7452 60.1078 6.68405 85.0496 2.7031 92.6053C-1.27784 100.08 -8.83352 111.454 48.3621 142.245C52.5867 144.52 57.7051 147.364 62.9047 150.126C69.5667 144.683 82.9719 137.696 89.9589 132.577C81.8345 123.884 70.2979 111.616 62.661 104.304C60.2237 101.948 58.1926 100.161 56.8114 99.1048L70.6229 56.1268L108.157 55.1519L118.963 54.9082C114.819 51.0085 110.839 47.4338 107.101 44.2653C77.6911 18.9172 61.6048 16.1549 44.2186 36.3034Z" fill="#FA7355"/>
<path d="M108.157 156.057C113.52 158.819 117.907 162.962 121.075 168.081C121.4 168.568 120.588 168.974 120.344 168.487C117.257 163.45 112.951 159.469 107.751 156.788C107.183 156.544 107.589 155.813 108.157 156.057Z" fill="#D24A43"/>
<path d="M104.177 160.444C108.889 163.125 112.951 166.618 116.282 170.924C116.607 171.331 116.038 171.98 115.632 171.574C112.382 167.35 108.32 163.856 103.689 161.256C103.202 160.931 103.689 160.2 104.177 160.444Z" fill="#D24A43"/>
<path d="M98.8957 163.612C103.283 165.968 107.101 169.137 110.107 173.199C110.432 173.687 109.701 174.093 109.376 173.605C106.451 169.706 102.795 166.618 98.4895 164.344C97.9208 164.1 98.4082 163.287 98.8957 163.612Z" fill="#D24A43"/>
<path d="M48.8496 94.6365C51.4494 95.8551 53.968 97.155 56.5678 98.3737C57.0553 98.6174 56.649 99.3486 56.1616 99.1049C53.5618 97.8862 51.0432 96.5863 48.4434 95.3677C47.8747 95.124 48.3622 94.3927 48.8496 94.6365Z" fill="white"/>
<path d="M75.9038 60.5953L60.2238 90.4118C59.9801 90.8992 59.1676 90.493 59.4926 90.0056L75.1726 60.1891C75.4164 59.7016 76.1476 60.1079 75.9038 60.5953Z" fill="white"/>
<path d="M107.264 44.1841L107.751 49.8711L108.239 55.152L109.295 66.4448C109.295 66.4448 121.319 62.2201 126.113 60.3515C123.756 58.3204 121.4 56.5331 119.126 54.827C114.901 50.9273 110.92 47.3526 107.264 44.1841Z" fill="#FFA79B"/>
</svg>
