<svg width="648" height="384" viewBox="0 0 648 384" fill="none" xmlns="http://www.w3.org/2000/svg">
<path d="M664.338 22.9225H78.8336V473.434H664.338V22.9225Z" fill="#FBF8F4"/>
<g clip-path="url(#clip0)">
<path d="M329.421 336.995C331.627 328.919 337.143 320.982 341.142 317.117C345.211 313.251 346.383 345.07 346.383 345.07L329.421 336.995Z" fill="#FFA79B"/>
<path d="M396.924 600.521C403.129 576.984 406.646 547.581 405.543 534.605C405.543 534.605 445.948 396.906 458.566 353.077C456.635 352.732 454.774 352.456 452.843 352.111C442.983 350.454 433.123 348.867 423.332 347.003C415.816 345.623 402.233 343.345 394.717 342.172C375.342 401.254 367.964 495.469 365.758 510.93C364.31 520.939 358.863 565.941 358.035 594.033C368.585 596.587 386.098 598.933 396.924 600.521Z" fill="#8DB8A8"/>
<path d="M530.068 589.892C518.898 548.685 509.175 527.012 509.175 527.012C505.521 496.298 484.905 381.1 484.905 381.1L482.009 356.873C472.287 355.286 462.633 353.698 452.911 352.111C443.051 350.454 433.191 348.867 423.4 347.003C422.297 346.796 421.263 346.589 420.159 346.382L403.956 376.545C403.956 376.545 448.154 486.152 460.634 525.701C469.184 552.758 485.939 584.232 493.592 603.213C503.935 599.969 519.932 593.964 530.068 589.892Z" fill="#8DB8A8"/>
<path d="M492.559 281.639C491.524 301.448 484.353 377.304 484.353 377.304L430.916 371.92L404.715 347.762L392.648 305.383L386.512 283.71C388.511 249.82 395.889 243.746 426.365 246.645C427.4 246.714 428.503 246.852 429.606 246.99C431.261 247.197 433.054 247.404 434.846 247.611C439.466 248.163 444.5 248.923 450.085 249.682C450.085 249.682 451.533 250.648 453.946 252.167C464.22 258.793 491.593 276.393 492.559 277.015C492.765 277.153 492.696 278.809 492.559 281.639Z" fill="#39B54A"/>
<path d="M482.906 285.435C472.219 310.697 467.737 324.64 456.843 349.764C487.802 354.25 490.836 308.42 482.906 285.435Z" fill="black"/>
<path d="M447.191 272.736H341.144V378.546H447.191V272.736Z" fill="#E6DFD1"/>
<path d="M447.191 288.541H341.144V290.129H447.191V288.541Z" fill="white"/>
<path d="M350.728 284.331C352.747 284.331 354.383 282.693 354.383 280.673C354.383 278.653 352.747 277.015 350.728 277.015C348.71 277.015 347.074 278.653 347.074 280.673C347.074 282.693 348.71 284.331 350.728 284.331Z" fill="#FECA55"/>
<path d="M361.554 284.331C363.572 284.331 365.208 282.693 365.208 280.673C365.208 278.653 363.572 277.015 361.554 277.015C359.535 277.015 357.899 278.653 357.899 280.673C357.899 282.693 359.535 284.331 361.554 284.331Z" fill="white"/>
<path d="M408.785 342.862H356.933C355.899 342.862 355.899 344.449 356.933 344.449H408.785C409.819 344.518 409.819 342.862 408.785 342.862Z" fill="black"/>
<path d="M408.785 351.766H356.933C355.899 351.766 355.899 353.353 356.933 353.353H408.785C409.819 353.422 409.819 351.766 408.785 351.766Z" fill="black"/>
<path d="M428.644 297.1H356.176V334.372H428.644V297.1Z" fill="#BAB5AB"/>
<path d="M424.438 363.845H405.545V371.713H424.438V363.845Z" fill="white"/>
<path d="M420.852 300.758C418.991 302.001 417.06 303.174 415.198 304.417C414.302 304.969 415.129 306.418 416.026 305.797C417.887 304.555 419.818 303.381 421.68 302.139C422.576 301.587 421.749 300.206 420.852 300.758Z" fill="white"/>
<path d="M352.313 346.52C354.312 347.072 356.932 344.587 355.002 342.724C352.795 340.653 343.97 331.473 341.212 330.231C328.8 324.778 327.283 344.38 327.766 348.522C328.525 355.562 331.558 362.119 336.178 367.365C336.316 367.779 339.695 370.747 341.349 371.92C342.591 372.748 344.59 371.851 344.866 370.333C346.314 370.816 349.899 368.745 349.141 366.605C349.693 366.26 351.21 365.777 351.554 364.673C352.037 363.292 351.623 361.912 351.003 360.531C351.416 360.324 351.761 360.117 352.106 359.703C354.174 357.425 350.865 354.803 348.382 351.351C346.521 348.729 345.9 345.209 344.176 343.552C344.728 343.345 345.211 343.138 345.693 342.793C347.555 344.518 349.762 345.83 352.313 346.52Z" fill="#FFA79B"/>
<path d="M350.038 359.565C346.039 356.39 342.867 352.456 340.592 347.9C340.385 347.417 339.626 347.831 339.902 348.315C342.247 352.939 345.487 356.873 349.487 360.117C349.9 360.462 350.452 359.91 350.038 359.565Z" fill="#D24A43"/>
<path d="M348.384 364.811C344.178 362.326 340.868 358.806 338.662 354.457C338.455 353.974 337.697 354.388 337.972 354.871C340.179 359.358 343.626 363.016 347.97 365.501C348.384 365.777 348.798 365.087 348.384 364.811Z" fill="#D24A43"/>
<path d="M343.832 368.469C340.798 366.467 338.316 363.913 336.454 360.738C336.179 360.255 335.489 360.669 335.765 361.152C337.696 364.397 340.247 367.157 343.419 369.159C343.832 369.435 344.246 368.745 343.832 368.469Z" fill="#D24A43"/>
<path d="M352.52 299.93C350.451 297.583 348.107 293.166 345.418 292.614C338.867 291.302 333.213 291.924 332.386 292.683C331.352 293.718 332.11 295.375 333.282 296.41C334.937 297.859 338.729 296.617 339.557 299.24C339.557 299.309 339.557 299.309 339.626 299.378C337.626 298.964 335.971 298.826 334.73 299.102C330.317 300.068 331.49 309.041 332.8 317.117C335.213 331.473 362.793 333.958 362.793 333.958C362.793 333.958 352.727 299.999 352.52 299.93Z" fill="#FFA79B"/>
<path d="M492.559 281.639C491.732 287.713 489.387 295.029 485.319 303.933C466.082 345.554 462.634 362.395 447.81 363.706C439.26 364.466 426.918 360.048 405.543 352.18C384.237 344.311 367.826 338.306 355.553 333.751C353.967 322.569 353.416 311.25 352.45 299.93C361.138 301.034 377.135 303.174 392.649 305.383C408.852 307.729 424.435 310.145 430.227 311.664L463.048 268.732L452.774 253.616L450.085 249.682C451.809 249.889 453.533 250.165 455.188 250.372C477.183 253.547 495.8 258.241 492.559 281.639Z" fill="#39B54A"/>
<path d="M436.227 317.462L432.159 313.389C431.814 313.044 431.194 313.596 431.607 313.941C432.986 315.322 434.296 316.633 435.675 318.014C436.02 318.428 436.572 317.807 436.227 317.462Z" fill="black"/>
<path d="M450.912 282.467C449.877 283.986 448.912 285.573 447.878 287.092C447.602 287.506 448.292 287.92 448.567 287.506C449.602 285.988 450.567 284.4 451.601 282.882C451.946 282.467 451.257 282.053 450.912 282.467Z" fill="black"/>
<path d="M334.799 306.418C334.248 305.521 333.765 304.554 333.213 303.657C332.938 303.174 332.248 303.588 332.524 304.071C333.076 304.969 333.558 305.935 334.11 306.832C334.317 307.315 335.006 306.901 334.799 306.418Z" fill="#D24A43"/>
<path d="M334.869 313.804C334.455 313.182 334.041 312.561 333.697 311.94C333.421 311.526 332.731 311.94 333.007 312.354C333.421 312.975 333.834 313.596 334.179 314.218C334.455 314.701 335.145 314.287 334.869 313.804Z" fill="#D24A43"/>
<path d="M335.489 318.911L334.386 317.462C334.041 317.047 333.351 317.462 333.696 317.876L334.799 319.325C335.144 319.739 335.833 319.325 335.489 318.911Z" fill="#D24A43"/>
<path d="M342.589 299.999C341.831 299.723 341.073 299.447 340.383 299.24C339.9 299.102 339.694 299.861 340.176 299.999C340.935 300.275 341.693 300.551 342.383 300.758C342.865 300.896 343.072 300.137 342.589 299.999Z" fill="#D24A43"/>
<path d="M454.085 251.063L446.294 221.452L427.332 226.836C427.677 227.25 429.194 243.608 430.159 253.823C432.917 253.616 450.155 251.339 454.085 251.063Z" fill="#FFA79B"/>
<path d="M440.226 224.765C440.295 224.006 440.295 223.316 440.295 222.557L427.332 226.836C427.539 227.043 428.091 232.358 428.711 238.708C433.951 235.119 438.295 230.356 440.226 224.765Z" fill="black"/>
<path d="M460.912 211.72C461.67 205.784 453.603 198.33 446.639 196.466C443.605 195.638 443.26 193.084 441.467 194.948C437.054 199.572 422.919 213.653 422.575 219.865C422.092 228.907 432.573 232.427 440.088 230.149C447.604 227.802 459.808 220.21 460.912 211.72Z" fill="#FFA79B"/>
<path d="M444.57 190.875C447.81 191.566 450.706 195.914 451.465 198.606C456.774 201.712 461.463 207.165 460.842 211.789C460.084 217.449 454.43 222.764 448.5 226.284C447.259 224.075 450.982 219.934 450.775 217.035C446.845 210.34 447.535 207.648 449.189 205.025C446.914 204.818 440.295 197.64 440.502 194.948C441.053 190.944 443.604 190.668 444.57 190.875Z" fill="#322E28"/>
<path d="M456.842 225.041C458.083 221.866 455.463 217.173 450.775 216.966C448.223 219.658 445.603 222.28 442.983 224.903C443.811 226.905 446.844 229.666 449.809 229.873C453.188 230.011 455.532 228.492 456.842 225.041Z" fill="#FFA79B"/>
<path d="M453.396 222.419C452.293 222.211 451.258 222.073 450.155 221.866C449.672 221.797 449.397 222.557 449.948 222.626C451.051 222.833 452.086 222.971 453.189 223.178C453.74 223.247 453.947 222.488 453.396 222.419Z" fill="#D24A43"/>
<path d="M434.917 203.023C434.366 203.644 433.745 204.197 433.193 204.818C432.849 205.163 433.4 205.784 433.745 205.37C434.297 204.749 434.917 204.197 435.469 203.575C435.882 203.23 435.262 202.609 434.917 203.023Z" fill="black"/>
<path d="M441.536 209.097C440.985 209.718 440.364 210.271 439.812 210.892C439.468 211.237 440.019 211.858 440.364 211.444C440.916 210.823 441.536 210.271 442.088 209.649C442.433 209.304 441.881 208.683 441.536 209.097Z" fill="black"/>
<path d="M434.02 211.444C433.469 211.237 432.71 211.03 432.366 210.478C432.159 210.064 432.228 209.511 432.71 209.442C433.193 209.373 432.986 208.614 432.504 208.683C431.676 208.821 431.331 209.718 431.469 210.478C431.676 211.513 432.848 211.927 433.745 212.203C434.296 212.41 434.503 211.651 434.02 211.444Z" fill="#D24A43"/>
<path d="M437.192 222.28C436.64 223.109 435.468 223.454 434.503 223.04C434.02 222.833 433.607 223.523 434.089 223.73C435.468 224.351 437.054 223.868 437.881 222.625C438.157 222.28 437.468 221.866 437.192 222.28Z" fill="#D24A43"/>
<path d="M455.188 250.372C454.775 250.994 454.43 251.546 453.947 252.167C453.534 252.65 453.189 253.133 452.775 253.616C449.879 256.929 446.156 259.483 441.881 260.795C437.192 262.175 431.814 261.761 428.366 257.965C425.471 254.79 424.85 250.441 426.367 246.645C427.401 246.714 435.537 246.921 435.537 246.921C440.157 247.473 444.57 248.854 450.086 249.682C451.81 249.889 453.465 250.096 455.188 250.372Z" fill="#FFA79B"/>
<path d="M444.915 207.303L444.294 206.06C443.812 205.094 442.433 205.922 442.915 206.889L443.536 208.131C443.95 209.028 445.398 208.269 444.915 207.303Z" fill="#322E28"/>
<path d="M437.469 200.953C436.986 200.608 436.503 200.262 436.021 199.917C435.676 199.641 435.124 199.848 434.917 200.193C434.711 200.608 434.848 201.022 435.193 201.298C435.676 201.643 436.158 201.988 436.641 202.333C436.986 202.609 437.538 202.402 437.744 202.057C438.02 201.712 437.882 201.229 437.469 200.953Z" fill="#322E28"/>
</g>
<path d="M253.243 109.478H120.721V265.724H253.243V109.478Z" fill="white"/>
<path d="M126.714 257.754C126.529 257.754 126.405 257.693 126.22 257.569C125.911 257.322 125.849 256.828 126.158 256.519L244.47 117.263C244.717 116.954 245.211 116.892 245.52 117.201C245.829 117.448 245.891 117.943 245.582 118.251L127.27 257.507C127.147 257.693 126.961 257.754 126.714 257.754Z" fill="#39B54A"/>
<path d="M245.026 257.754C244.841 257.754 244.594 257.693 244.47 257.507L126.158 118.252C125.911 117.943 125.911 117.51 126.22 117.201C126.529 116.954 126.961 116.954 127.27 117.263L245.582 256.519C245.829 256.828 245.829 257.26 245.52 257.569C245.335 257.693 245.211 257.754 245.026 257.754Z" fill="#39B54A"/>
<path d="M388.607 65.7371H257.135V74.9425H388.607V65.7371Z" fill="#D8D8D8"/>
<path d="M160.385 57.7054H120.721V86.2485H160.385V57.7054Z" fill="#D8D8D8"/>
<path opacity="0.5" d="M664.338 46.1523H78.8335V47.5733H664.338V46.1523Z" fill="#0EA36C"/>
<path d="M574.693 78.0316H446.249C445.322 78.0316 445.322 79.4526 446.249 79.4526H574.693C575.619 79.5144 575.619 78.0316 574.693 78.0316Z" fill="#BEBEBE"/>
<path d="M574.693 101.447H446.249C445.322 101.447 445.322 102.868 446.249 102.868H574.693C575.619 102.93 575.619 101.447 574.693 101.447Z" fill="#BEBEBE"/>
<path d="M547.262 124.862H446.125C445.384 124.862 445.384 126.283 446.125 126.283H547.262C548.003 126.283 548.003 124.862 547.262 124.862Z" fill="#BEBEBE"/>
<path d="M547.262 148.277H446.125C445.384 148.277 445.384 149.698 446.125 149.698H547.262C548.003 149.698 548.003 148.277 547.262 148.277Z" fill="#BEBEBE"/>
<path d="M547.262 171.631H446.125C445.384 171.631 445.384 173.052 446.125 173.052H547.262C548.003 173.113 548.003 171.631 547.262 171.631Z" fill="#BEBEBE"/>
<path d="M439.02 72.2242H427.405V81.6768H439.02V72.2242Z" fill="#BEBEBE"/>
<path d="M298.22 265.971H272.086C271.16 265.971 271.16 267.392 272.086 267.392H298.22C299.147 267.392 299.147 265.971 298.22 265.971Z" fill="#D8D8D8"/>
<path d="M298.22 276.845H272.086C271.16 276.845 271.16 278.266 272.086 278.266H298.22C299.147 278.328 299.147 276.845 298.22 276.845Z" fill="#D8D8D8"/>
<path d="M298.22 288.46H272.086C271.16 288.46 271.16 289.881 272.086 289.881H298.22C299.147 289.881 299.147 288.46 298.22 288.46Z" fill="#D8D8D8"/>
<path d="M310.082 380.144H211.417V312.864H310.082V380.144ZM212.838 378.661H308.599V314.346H212.838V378.661Z" fill="#BEBEBE"/>
<path opacity="0.3" d="M588.841 122.7C576.237 122.7 565.982 132.956 565.982 145.559C565.982 158.162 576.237 168.418 588.841 168.418C601.444 168.418 611.7 158.162 611.7 145.559C611.7 131.04 603.359 122.7 588.841 122.7ZM588.841 169.839C575.434 169.839 564.561 158.966 564.561 145.559C564.561 132.152 575.434 121.279 588.841 121.279C604.286 121.279 613.121 130.114 613.121 145.559C613.121 158.904 602.247 169.839 588.841 169.839Z" fill="#39B54A"/>
<path d="M683.08 284.565L548.1 344.124L606.213 475.825L741.193 416.265L683.08 284.565Z" fill="#EBD6C5"/>
<path d="M605.83 476.77L605.522 476.091L547.138 343.754L547.818 343.445L683.428 283.579L683.737 284.259L742.121 416.595L741.441 416.904L605.83 476.77ZM549.053 344.496L606.572 474.855L740.205 415.854L682.687 285.494L549.053 344.496Z" fill="white"/>
<path d="M680.952 303.879L565.021 355.033L568.737 363.455L684.668 312.301L680.952 303.879Z" fill="white"/>
<path d="M687.244 318.007L571.313 369.161L575.029 377.583L690.96 326.429L687.244 318.007Z" fill="white"/>
<path d="M699.507 345.885L583.576 397.04L606.621 449.268L722.552 398.113L699.507 345.885Z" fill="white"/>
<path d="M660.534 346.183L577.331 382.896L581.047 391.318L664.25 354.605L660.534 346.183Z" fill="white"/>
<path d="M566.105 341.839C562.213 340.233 558.32 338.626 554.366 337.02C553.501 336.649 553.007 338.009 553.872 338.379C557.764 339.986 561.657 341.592 565.611 343.198C566.476 343.569 566.97 342.21 566.105 341.839Z" fill="#952C28"/>
<path d="M558.259 346.226C559.865 342.333 561.471 338.441 563.078 334.487C563.448 333.622 562.089 333.128 561.718 333.993C560.112 337.885 558.506 341.777 556.899 345.731C556.529 346.596 557.888 347.09 558.259 346.226Z" fill="#952C28"/>
<path d="M689.174 362.66C680.154 366.366 678.177 376.622 676.323 385.148C675.149 390.647 673.667 396.763 669.342 400.717C664.399 405.289 657.356 405.103 651.055 405.103C641.787 405.165 633.385 407.142 625.971 412.95C618.805 418.51 613.924 426.48 612.194 435.376C612.009 436.303 613.491 436.427 613.615 435.562C615.53 425.43 622.017 416.595 630.852 411.405C634.868 409.058 639.316 407.451 643.95 406.895C649.139 406.277 654.329 406.895 659.519 406.339C668.662 405.227 673.914 399.358 676.385 390.832C679.103 381.503 679.227 368.343 689.668 364.019C690.595 363.586 690.039 362.289 689.174 362.66Z" fill="white"/>
<path opacity="0.3" d="M609.875 282.436L533.462 254.126L532.303 257.255L608.716 285.564L609.875 282.436Z" fill="#D24A43"/>
<path opacity="0.3" d="M606.525 291.45L530.111 263.14L528.952 266.268L605.366 294.578L606.525 291.45Z" fill="#39B54A"/>
<path opacity="0.3" d="M603.195 300.406L526.782 272.096L525.623 275.224L602.036 303.534L603.195 300.406Z" fill="#39B54A"/>
<path d="M594.743 322.701L568.499 312.978L563.734 325.839L589.978 335.562L594.743 322.701Z" fill="white"/>
<path opacity="0.3" d="M556.282 299.58L526.379 311.072L520.943 296.924C520.634 296.059 519.275 296.553 519.583 297.418C521.19 301.866 525.7 313.234 525.7 313.234L556.838 300.94C557.641 300.569 557.147 299.21 556.282 299.58Z" fill="#39B54A"/>
<path d="M693.375 270.172H596.193V181.639H693.437V270.172H693.375ZM597.614 268.69H691.954V183.122H597.614V268.69Z" fill="#B7B4B4"/>
<path d="M670.022 199.556C665.388 208.144 660.693 216.731 656.059 225.319C652.043 220.253 648.027 215.187 644.012 210.121C643.703 209.75 643.085 209.935 642.9 210.244L616.025 249.908C615.53 250.711 616.766 251.391 617.26 250.649C626.033 237.737 634.806 224.763 643.517 211.851C647.533 216.917 651.549 222.045 655.627 227.111C655.935 227.481 656.553 227.358 656.739 226.987C661.558 218.091 666.377 209.194 671.257 200.297C671.69 199.433 670.454 198.691 670.022 199.556Z" fill="#D8D8D8"/>
<path d="M617.322 252.503C619.13 252.503 620.596 251.037 620.596 249.229C620.596 247.42 619.13 245.954 617.322 245.954C615.513 245.954 614.047 247.42 614.047 249.229C614.047 251.037 615.513 252.503 617.322 252.503Z" fill="#D8D8D8"/>
<path d="M643.517 215.125C645.326 215.125 646.792 213.659 646.792 211.851C646.792 210.042 645.326 208.576 643.517 208.576C641.709 208.576 640.243 210.042 640.243 211.851C640.243 213.659 641.709 215.125 643.517 215.125Z" fill="#D8D8D8"/>
<path d="M614.233 196.652V219.882C614.233 220.809 615.654 220.809 615.654 219.882V196.652C615.654 195.726 614.233 195.726 614.233 196.652Z" fill="#D24A43"/>
<path d="M670.454 251.823H630.173C629.246 251.823 629.246 253.244 630.173 253.244H670.454C671.381 253.244 671.381 251.823 670.454 251.823Z" fill="#D24A43"/>
<path d="M130.987 255.16C130.493 255.592 124.623 277.957 124.623 277.957L106.521 267.825L118.878 249.352L130.987 255.16Z" fill="#FFA79B"/>
<path d="M128.948 261.955C129.998 258.248 130.802 255.345 130.987 255.221L126.477 253.059C126.168 256.21 126.848 259.855 128.948 261.955Z" fill="#E64825"/>
<path d="M83.9711 325.714C83.9711 325.714 91.6938 314.593 118.322 405.042C144.95 495.49 152.672 489.682 126.539 535.648C100.405 581.613 113.503 579.204 122.214 581.119C130.925 583.034 129.937 594.155 129.937 594.155H81.5616C84.4653 547.263 103.309 493.08 103.309 493.08C103.309 493.08 82.9826 454.405 66.0544 417.151C49.1263 379.896 64.1392 338.317 64.1392 338.317L83.9711 325.714Z" fill="#FFA79B"/>
<path d="M85.9481 559.804C95.4007 559.619 104.915 559.743 114.368 559.928C116.777 553.873 120.669 545.965 126.539 535.648C152.672 489.682 144.95 495.49 118.322 405.042C91.7556 314.593 83.9711 325.714 83.9711 325.714L64.1392 338.317C64.1392 338.317 49.1263 379.896 66.0544 417.151C82.9826 454.405 103.309 493.08 103.309 493.08C103.309 493.08 92.4969 524.218 85.9481 559.804Z" fill="#0EA36C"/>
<path d="M116.901 325.714C116.901 325.714 124.624 314.593 151.251 405.042C177.879 495.49 185.602 489.682 159.468 535.648C133.335 581.613 146.432 579.204 155.144 581.119C163.855 583.034 162.866 594.155 162.866 594.155H114.491C117.395 547.263 136.238 493.08 136.238 493.08C136.238 493.08 115.912 454.405 98.9842 417.151C82.056 379.896 86.875 385.21 97.0689 338.317L116.901 325.714Z" fill="#FFA79B"/>
<path d="M136.238 493.08C136.238 493.08 125.365 524.404 118.816 560.052C128.207 560.299 137.536 560.608 146.927 560.855C149.274 554.677 153.29 546.521 159.468 535.648C185.602 489.682 177.879 495.49 151.251 405.042C124.623 314.593 116.901 325.714 116.901 325.714L97.0688 338.317C86.9366 385.21 82.0559 379.896 98.984 417.151C115.912 454.343 136.238 493.08 136.238 493.08Z" fill="#0EA36C"/>
<path d="M124.129 265.724L151.19 272.52C151.19 272.52 155.514 313.172 147.792 319.412L146.803 362.968L58.27 343.136L80.5114 252.688L124.129 265.724Z" fill="#FECA55"/>
<path d="M144.641 153.899C127.404 163.97 91.5085 186.582 86.9367 196.59C81.6235 208.205 77.237 269.616 78.2255 273.508L117.889 270.111L122.708 214.013L159.036 174.781C154.279 167.738 149.336 160.881 144.641 153.899Z" fill="#FECA55"/>
<path d="M167.562 152.355C167.562 147.042 167.562 141.728 167.562 136.477C167.562 135.056 166.45 136.106 165.029 136.477C156.997 138.763 150.881 143.149 149.274 151.181C147.483 152.169 145.259 153.467 142.664 155.011C147.236 162.425 152.054 169.715 157.059 176.82L164.164 169.159C170.342 162.054 168.365 154.455 167.562 152.355Z" fill="#FFA79B"/>
<path d="M121.534 213.766C120.669 214.136 119.743 214.507 118.878 214.878C118.445 215.063 118.631 215.743 119.063 215.557C119.928 215.187 120.855 214.816 121.72 214.445C122.152 214.26 121.967 213.58 121.534 213.766Z" fill="white"/>
<path d="M162.125 139.937C159.036 141.296 156.255 143.149 153.846 145.497C153.537 145.806 154.031 146.362 154.34 145.991C156.688 143.705 159.406 141.852 162.434 140.555C162.928 140.369 162.557 139.751 162.125 139.937Z" fill="black"/>
<path d="M173.06 85.8778C173.06 87.9784 171.33 89.7083 169.23 89.7083C167.129 89.7083 165.399 87.9784 165.399 85.8778C165.399 83.7772 167.129 82.0474 169.23 82.0474C171.33 82.0474 173.06 83.1594 173.06 85.8778Z" fill="#D24A43"/>
<path d="M186.22 85.8778C186.22 87.9784 184.49 89.7083 182.389 89.7083C180.289 89.7083 178.559 87.9784 178.559 85.8778C178.559 83.7772 180.289 82.0474 182.389 82.0474C184.552 82.0474 186.22 83.1594 186.22 85.8778Z" fill="#FECA55"/>
<path d="M199.75 85.8778C199.75 87.9784 198.02 89.7083 195.919 89.7083C193.819 89.7083 192.089 87.9784 192.089 85.8778C192.089 83.7772 193.819 82.0474 195.919 82.0474C198.082 82.0474 199.75 83.1594 199.75 85.8778Z" fill="#39B54A"/>
<path d="M365.881 92.5503H165.276V169.098H365.881V92.5503Z" fill="#EBD6C5"/>
<path d="M354.636 99.6552H287.047V133.264H354.636V99.6552Z" fill="white"/>
<path d="M354.884 147.35H306.014V161.746H354.884V147.35Z" fill="white"/>
<path d="M300.763 147.35H276.235V161.746H300.763V147.35Z" fill="white"/>
<path d="M258.628 103.918H177.817C176.891 103.918 176.891 105.339 177.817 105.339H258.566C259.555 105.401 259.555 103.918 258.628 103.918Z" fill="white"/>
<path d="M258.628 114.112H177.817C176.891 114.112 176.891 115.533 177.817 115.533H258.566C259.555 115.533 259.555 114.112 258.628 114.112Z" fill="white"/>
<path d="M240.402 126.159H177.694C176.952 126.159 176.952 127.58 177.694 127.58H240.402C241.082 127.642 241.082 126.159 240.402 126.159Z" fill="white"/>
<path d="M387.195 132.461L386.145 133.512L385.095 132.461L371.07 118.437C370.391 117.757 371.441 116.769 372.121 117.387L387.195 132.461Z" fill="#D24A43"/>
<path d="M387.195 132.461L386.145 133.511L372.121 147.474C371.441 148.154 370.452 147.103 371.07 146.424L386.083 131.411L387.195 132.461Z" fill="#D24A43"/>
<path d="M349.879 126.963C331.221 119.302 312.501 111.641 293.843 104.042C292.978 103.671 292.608 105.092 293.473 105.463C312.131 113.124 330.85 120.785 349.508 128.384C350.312 128.693 350.682 127.272 349.879 126.963Z" fill="#BEBEBE"/>
<path d="M294.09 128.507C312.687 120.723 331.345 112.876 349.941 105.092C350.806 104.721 350.065 103.486 349.261 103.795C330.665 111.579 312.007 119.425 293.411 127.21C292.484 127.58 293.225 128.878 294.09 128.507Z" fill="#BEBEBE"/>
<path d="M207.596 183.307C197.526 202.769 176.211 245.46 176.211 245.46C176.211 245.46 135.929 266.96 126.044 276.412L139.884 331.46C139.884 331.46 193.263 287.595 202.283 278.08C214.948 264.797 225.08 212.221 230.579 191.524C222.98 188.682 215.381 185.717 207.596 183.307Z" fill="#FECA55"/>
<path d="M176.335 246.634C175.902 248.363 175.531 250.093 175.099 251.823C174.975 252.256 175.717 252.441 175.779 252.009C176.211 250.279 176.582 248.549 177.014 246.819C177.138 246.386 176.458 246.201 176.335 246.634Z" fill="white"/>
<path d="M253.068 168.727C245.283 167.121 231.753 170.457 231.073 170.21C230.394 168.233 230.641 167.43 232.124 166.75C234.842 165.391 237.066 163.29 238.549 160.572C239.352 159.089 237.931 156.618 236.078 157.359C232.371 158.904 228.664 160.448 225.019 161.993C224.833 162.055 224.648 162.178 224.524 162.302C222.177 163.228 221.126 163.599 219.458 165.02C216.555 167.553 214.33 170.58 212.662 174.04C212.045 174.967 209.82 179.106 206.731 185.037C211.056 187.509 215.999 188.868 220.632 190.474C223.783 191.586 226.934 192.636 230.147 193.563C231.629 187.694 232.865 183.802 233.668 183.184C237.251 180.589 240.773 179.292 244.789 177.562C249.422 175.585 251.461 174.287 254.18 172.496C255.415 171.692 254.55 169.036 253.068 168.727Z" fill="#FFA79B"/>
<path d="M253.253 170.457C249.113 172.743 244.542 173.731 239.784 173.422C239.29 173.361 239.29 174.102 239.784 174.164C244.603 174.473 249.361 173.422 253.623 171.075C254.056 170.889 253.685 170.271 253.253 170.457Z" fill="black"/>
<path d="M165.955 138.825C162.681 140.74 157.553 143.953 155.329 147.165C152.981 150.563 152.549 154.703 152.61 158.78C152.672 161.066 155.514 161.499 156.564 160.078C157.059 160.263 157.553 160.263 158.047 159.954C158.85 159.892 159.53 159.398 159.654 158.595C161.383 156.865 162.557 154.764 162.743 152.17C162.99 149.575 162.619 148.216 164.72 146.239C166.079 145.003 166.944 144.262 167.376 142.47C167.871 140.616 167.685 137.836 165.955 138.825Z" fill="#FFA79B"/>
<path d="M163.793 147.103C164.102 146.794 163.608 146.238 163.299 146.609L160.086 149.76C159.962 149.884 159.962 150.069 160.024 150.192C161.631 152.911 161.816 156.062 160.518 158.965C160.333 159.398 160.951 159.769 161.136 159.336C162.001 157.421 162.31 155.382 162.001 153.343C161.878 152.725 161.692 152.046 161.507 151.428C161.445 151.243 161.013 150.501 161.013 150.316C160.951 149.204 163.113 147.721 163.793 147.103Z" fill="black"/>
<path d="M105.471 235.884C105.471 230.57 113.379 224.886 119.743 223.96C122.523 223.589 123.141 221.303 124.5 223.157C127.898 227.728 138.771 242.556 138.462 247.128C137.845 255.159 128.268 257.136 121.905 254.294C115.418 251.514 105.533 243.483 105.471 235.884Z" fill="#FFA79B"/>
<path d="M122.152 219.326C119.248 219.573 116.159 223.095 115.233 225.381C110.166 227.543 105.533 231.868 105.533 235.945C105.533 241.011 100.467 249.537 106.892 256.58C110.846 260.967 121.225 259.67 124.685 254.047C128.763 247.313 122.708 240.455 122.955 239.096C124.129 235.204 121.658 231.559 119.063 229.335C121.102 229.397 125.118 225.751 125.241 223.342C125.179 219.82 123.017 219.203 122.152 219.326Z" fill="#E64825"/>
<path d="M116.715 245.521C115.974 242.618 118.754 238.725 122.955 239.034C124.871 241.691 126.909 244.286 129.01 246.881C128.021 248.549 125.118 250.649 122.461 250.526C119.372 250.34 117.518 248.672 116.715 245.521Z" fill="#FFA79B"/>
<path d="M133.458 233.474C132.655 232.486 131.172 232.547 130.307 233.474C130.06 233.783 130.122 234.277 130.431 234.524C130.493 234.524 130.493 234.524 130.554 234.586C130.493 234.71 130.431 234.772 130.369 234.895C129.937 235.76 131.296 236.316 131.728 235.451C131.728 235.451 131.79 235.451 131.728 235.513C131.296 236.069 131.914 236.934 132.593 236.687C133.767 236.131 134.323 234.524 133.458 233.474Z" fill="#FFA79B"/>
<path d="M123.388 263.809C122.337 259.484 118.63 256.272 114.491 255.53C114.491 254.233 113.812 253.059 112.143 252.75C107.324 251.885 103.309 254.542 102.135 258.434C94.6592 256.333 86.4423 257.507 80.8201 263.438C74.4566 270.172 74.086 280.057 79.9552 287.224C86.0098 294.576 98.0572 298.098 107.201 295.626C113.688 293.897 118.383 286.174 115.294 280.675C120.916 276.907 125.118 270.914 123.388 263.809Z" fill="#E64825"/>
<path d="M124.006 244.224C123.079 244.348 122.152 244.409 121.225 244.533C120.793 244.595 120.731 245.336 121.225 245.274C122.152 245.151 123.079 245.089 124.006 244.965C124.438 244.904 124.5 244.162 124.006 244.224Z" fill="#E64825"/>
<path d="M129.937 233.412L128.516 231.621C128.207 231.25 127.713 231.744 128.022 232.115C128.516 232.733 129.01 233.351 129.442 233.907C129.751 234.277 130.246 233.783 129.937 233.412Z" fill="#E64825"/>
<path d="M135.188 242.556C134.57 242.865 133.829 242.618 133.52 242.062C133.273 241.691 132.655 242 132.902 242.432C133.458 243.359 134.632 243.668 135.559 243.236C135.991 242.988 135.62 242.371 135.188 242.556Z" fill="#E64825"/>
<path d="M126.539 229.335L125.983 230.447C125.55 231.25 126.848 231.991 127.218 231.188L127.774 230.076C128.207 229.211 126.971 228.47 126.539 229.335Z" fill="#E64825"/>
<path d="M516.494 354.072L522.734 383.171C522.92 384.098 524.341 383.789 524.155 382.862L517.915 353.763C517.73 352.836 516.309 353.145 516.494 354.072Z" fill="#D24A43"/>
<path d="M62.2759 215.866C61.2256 225.381 40.2817 221.427 43.5561 233.536C43.8032 234.463 45.2242 234.03 44.9771 233.165C42.9383 225.69 53.4411 225.01 57.9512 223.033C61.0403 221.674 63.3262 219.388 63.6969 215.928C63.8822 214.94 62.3995 214.94 62.2759 215.866Z" fill="#E6DFD1"/>
<path d="M65.1796 223.095C64.1293 232.609 43.1854 228.655 46.4598 240.764C46.7069 241.691 48.1279 241.259 47.8808 240.394C45.842 232.918 56.3448 232.239 60.8549 230.262C63.944 228.902 66.2299 226.616 66.6006 223.157C66.7859 222.168 65.3032 222.168 65.1796 223.095Z" fill="#E6DFD1"/>
<path d="M66.6624 81.3061C64.7472 77.1667 62.7702 73.0891 60.8549 68.9498C60.4843 68.0848 59.1868 68.8262 59.6193 69.6911C61.5345 73.8305 63.5116 77.9081 65.4268 82.0475C65.7975 82.9124 67.0949 82.171 66.6624 81.3061Z" fill="#E6DFD1"/>
<defs>
<clipPath id="clip0">
<rect width="410" height="320" fill="white" transform="matrix(-1 0 0 1 622 178)"/>
</clipPath>
</defs>
</svg>
