<svg width="322" height="29" viewBox="0 0 322 29" fill="none" xmlns="http://www.w3.org/2000/svg">
<g clip-path="url(#clip0)">
<circle cx="261.652" cy="18.1157" r="8.59399" transform="rotate(-89.5219 261.652 18.1157)" fill="#FA7355"/>
<path d="M282.737 3.83938C288.089 10.291 293.397 16.7402 298.749 23.1918C299.247 23.795 300.176 22.9582 299.678 22.3549C294.326 15.9033 289.017 9.45411 283.665 3.00251C283.121 2.44112 282.239 3.23615 282.737 3.83938Z" fill="#BAB5AB"/>
<path d="M61.9885 14.2642C56.356 12.6838 50.6839 11.1231 45.0317 9.50316C44.2807 9.28585 43.8824 10.4712 44.6333 10.6885C50.2659 12.2689 55.938 13.8296 61.5902 15.4496C62.3412 15.6669 62.7395 14.4816 61.9885 14.2642Z" fill="#BAB5AB"/>
</g>
<defs>
<clipPath id="clip0">
<rect width="24.9474" height="320" fill="white" transform="translate(0.901367 25.3921) rotate(-89.5219)"/>
</clipPath>
</defs>
</svg>
