<svg width="429" height="283" viewBox="0 0 429 283" fill="none" xmlns="http://www.w3.org/2000/svg">
<path opacity="0.6" d="M42.7639 131.981C83.4902 80.964 147.814 54.7944 212.589 62.8888L217.37 63.4862C281.762 71.5327 336.783 113.74 361.237 173.848C385.692 233.956 375.764 302.587 335.279 353.301L332.273 357.067C291.546 408.084 227.222 434.253 162.447 426.159L157.666 425.561C93.2745 417.515 38.2538 375.308 13.7993 315.2C-10.6552 255.091 -0.727657 186.461 39.7577 135.746L42.7639 131.981Z" fill="white"/>
<path d="M351.403 18.8996C349.846 28.3732 336.342 27.8449 334.114 37.0748C333.987 37.6172 334.795 37.9349 334.922 37.3926C337.15 28.1627 350.665 28.7542 352.265 18.9804C352.357 18.4117 351.495 18.3309 351.403 18.8996Z" fill="#E6DFD1"/>
<path d="M355.534 25.2763C353.881 34.1906 340.406 33.8343 338.087 42.5267C337.954 43.0374 338.758 43.3275 338.891 42.8168C341.21 34.1244 354.694 34.54 356.393 25.3432C356.491 24.8081 355.631 24.7411 355.534 25.2763Z" fill="#E6DFD1"/>
<path d="M143.793 14.8986C140.399 15.4774 137.137 13.1588 136.557 9.75422C135.976 6.34965 138.285 3.08125 141.68 2.50246C145.205 1.90141 147.899 3.77784 148.902 7.55953C149.293 9.06496 149.024 10.638 148.129 11.9584C147.192 13.5555 145.578 14.5943 143.793 14.8986ZM141.896 3.76824C139.154 4.23573 137.314 6.84024 137.783 9.59008C138.252 12.3399 140.851 14.1876 143.593 13.7201C145.029 13.4752 146.361 12.6192 147.14 11.4084C147.81 10.3508 148.052 9.14178 147.72 7.98554C146.901 4.75644 144.812 3.27108 141.896 3.76824Z" fill="#E6DFD1"/>
<rect width="17" height="17" transform="matrix(-0.948362 0.317192 0.317192 0.948362 98.6221 43.4453)" fill="#026D49"/>
<path d="M390.064 79.8692C394.459 75.3156 398.856 70.7953 403.251 66.2417C403.663 65.818 402.958 65.1904 402.547 65.6141C398.151 70.1677 393.755 74.688 389.359 79.2416C388.984 79.6967 389.653 80.2929 390.064 79.8692Z" fill="#E6DFD1"/>
<circle cx="388.39" cy="40.3342" r="11.6982" transform="rotate(28.8259 388.39 40.3342)" fill="#026D49"/>
</svg>
