<svg width="276" height="75" viewBox="0 0 276 75" fill="none" xmlns="http://www.w3.org/2000/svg">
<path d="M61.2935 13.3034C57.8989 13.8821 54.6373 11.5636 54.0568 8.159C53.4763 4.75444 55.7853 1.48603 59.1799 0.907242C62.7051 0.306192 65.3987 2.18262 66.4017 5.96431C66.7928 7.46974 66.5236 9.04283 65.629 10.3632C64.6921 11.9603 63.0778 12.9991 61.2935 13.3034ZM59.3957 2.17303C56.6539 2.64051 54.814 5.24502 55.2828 7.99487C55.7517 10.7447 58.3508 12.5924 61.0926 12.1249C62.5287 11.88 63.8607 11.024 64.6396 9.81322C65.3102 8.75561 65.5519 7.54657 65.2204 6.39032C64.4011 3.16122 62.3116 1.67586 59.3957 2.17303Z" fill="#E6DFD1"/>
<rect width="17" height="17" transform="matrix(-0.948362 0.317192 0.317192 0.948362 16.1221 41.8501)" fill="#026D49"/>
<path d="M223.903 13.3044C222.346 22.778 208.842 22.2497 206.614 31.4796C206.487 32.0219 207.295 32.3397 207.422 31.7974C209.65 22.5675 223.165 23.159 224.765 13.3852C224.857 12.8164 223.995 12.7357 223.903 13.3044Z" fill="#E6DFD1"/>
<path d="M228.034 19.6811C226.381 28.5954 212.906 28.2391 210.587 36.9315C210.454 37.4422 211.258 37.7323 211.391 37.2215C213.71 28.5292 227.194 28.9448 228.893 19.748C228.991 19.2129 228.131 19.1459 228.034 19.6811Z" fill="#E6DFD1"/>
<path d="M262.564 74.274C266.959 69.7204 271.356 65.2001 275.751 60.6465C276.163 60.2228 275.458 59.5952 275.047 60.0189C270.651 64.5725 266.255 69.0928 261.859 73.6464C261.484 74.1015 262.153 74.6977 262.564 74.274Z" fill="#E6DFD1"/>
</svg>
