<svg width="20" height="20" viewBox="0 0 20 20" fill="none" xmlns="http://www.w3.org/2000/svg">
<rect width="20" height="20" rx="10" fill="white"/>
<rect width="6" height="6" transform="matrix(-1 4.37114e-08 4.37114e-08 1 19 4)" fill="#DD625C"/>
<rect width="6" height="6" transform="matrix(-1 4.37114e-08 4.37114e-08 1 7 10)" fill="#D24A43"/>
<rect width="6" height="6" transform="matrix(-1 4.37114e-08 4.37114e-08 1 13 10)" fill="#C83029"/>
<rect width="6" height="6" transform="matrix(-1 4.37114e-08 4.37114e-08 1 13 4)" fill="#D24A43"/>
<path opacity="0.6" d="M3.00158 13C2.96827 13.5667 3.46788 14 4.00079 14C4.5337 14 5 13.5333 5 13C5 12.4667 4.5337 12 4.00079 12C3.46788 12 3.06819 12.3333 3.00158 13Z" fill="white"/>
<path opacity="0.6" d="M15.0016 7C14.9683 7.56667 15.4679 8 16.0008 8C16.5337 8 17 7.53333 17 7C17 6.46667 16.5337 6 16.0008 6C15.4679 6 15.0682 6.33333 15.0016 7Z" fill="white"/>
<path opacity="0.6" d="M10 12.0016C9.43333 11.9683 9 12.4679 9 13.0008C9 13.5337 9.46667 14 10 14C10.5333 14 11 13.5337 11 13.0008C11 12.4679 10.6667 12.0682 10 12.0016Z" fill="white"/>
<path opacity="0.6" d="M10 6.00158C9.43333 5.96827 9 6.46788 9 7.00079C9 7.5337 9.46667 8 10 8C10.5333 8 11 7.5337 11 7.00079C11 6.46788 10.6667 6.06819 10 6.00158Z" fill="white"/>
</svg>
