<svg width="150" height="40" viewBox="0 0 150 40" fill="none" xmlns="http://www.w3.org/2000/svg">
<path d="M34.2591 10.7895L28.0106 4.32095C25.6035 1.81895 22.4025 0.445312 18.997 0.445312C15.595 0.445312 12.394 1.81895 9.98039 4.32095L3.73799 10.7895C1.32479 13.2864 5.79882e-07 16.6042 5.79882e-07 20.1306C5.79882e-07 23.6566 1.32441 26.9732 3.73799 29.4701L9.98039 35.9371C12.394 38.4438 15.595 39.8163 18.997 39.8163C22.3079 39.8163 25.4526 38.5029 27.8407 36.1226L27.8567 36.11L27.8689 36.0934L34.2587 29.4705C36.6723 26.9736 37.9998 23.657 37.9998 20.131C38.0001 16.6042 36.6727 13.2864 34.2591 10.7895ZM30.1038 24.811L23.7706 31.3689C22.5841 32.5524 20.9648 33.2804 19.195 33.2804C17.3747 33.2804 15.7269 32.5166 14.5309 31.2843L17.6095 28.085C18.0146 28.5079 18.5767 28.7713 19.195 28.7713C19.8133 28.7713 20.375 28.5079 20.7763 28.085L27.0282 21.6216C27.4269 21.2023 27.6811 20.6188 27.6811 19.9798C27.6811 19.3345 27.4269 18.7574 27.0282 18.3412C26.6205 17.9235 26.0618 17.6601 25.437 17.6601C24.8221 17.6601 24.2635 17.9235 23.8584 18.3412L17.6095 24.8114C16.4143 26.0437 14.7665 26.8142 12.9496 26.8142C11.1288 26.8142 9.48141 26.0437 8.28583 24.8114C7.09025 23.5728 6.35565 21.8657 6.35565 19.9798C6.35565 18.0955 7.08987 16.3888 8.28583 15.1483L14.5313 8.68125C15.7272 7.44737 17.375 6.67177 19.1954 6.67177C21.0123 6.67177 22.6632 7.44737 23.8588 8.68125L20.7767 11.8659C20.3754 11.4482 19.8137 11.1899 19.1954 11.1899C18.5771 11.1899 18.015 11.4482 17.6099 11.8659L11.3645 18.3408C10.9628 18.757 10.7116 19.3341 10.7116 19.9794C10.7116 20.6184 10.9628 21.2019 11.3645 21.6212C11.7692 22.0405 12.3278 22.2976 12.9496 22.2976C13.5706 22.2976 14.1262 22.0409 14.5309 21.6212L20.7763 15.1479C21.9757 13.914 23.6201 13.1467 25.437 13.1467C27.2574 13.1467 28.9083 13.914 30.1038 15.1479C31.2964 16.3884 32.0371 18.0951 32.0371 19.9794C32.0374 21.8653 31.2964 23.572 30.1038 24.811Z" fill="#52586A"/>
<path d="M127.56 29.8062C126.791 29.8062 126.166 29.1558 126.166 28.3593V10.4311C126.166 9.62952 126.791 8.98267 127.56 8.98267C128.335 8.98267 128.962 9.62992 128.962 10.4311V28.3593C128.962 29.1558 128.335 29.8062 127.56 29.8062Z" fill="#52586A"/>
<path d="M79.7027 25.6667C79.1342 25.1954 78.3156 25.2828 77.8542 25.8683C76.5956 27.4809 73.4854 27.0907 72.6725 26.7462C71.5085 26.2553 70.9183 25.2474 70.9183 23.7548V13.9374H77.1014C77.8698 13.9374 78.4946 13.2886 78.4946 12.4905C78.4946 11.6889 77.8702 11.0401 77.1014 11.0401H70.9183V3.70025C70.9183 2.94591 70.3315 2.3396 69.6034 2.3396C68.8817 2.3396 68.2949 2.94591 68.2949 3.70025V23.7548C68.2949 26.3431 69.5281 28.3521 71.6776 29.2592C72.362 29.5486 73.4383 29.773 74.6213 29.773C76.4857 29.773 78.6014 29.2301 79.8942 27.5785C80.3522 26.9931 80.2644 26.1415 79.7027 25.6667Z" fill="#52586A"/>
<path d="M58.2102 29.8856C57.783 29.8856 57.3501 29.8596 56.9013 29.8014C52.3257 29.1963 49.5918 27.021 49.5918 23.9749C49.5918 23.1785 50.217 22.5281 50.9918 22.5281C51.7606 22.5281 52.3919 23.1781 52.3919 23.9749C52.3919 25.3765 54.3 26.5372 57.2472 26.9206C60.222 27.3139 62.3126 25.7891 62.6166 24.5891C62.7895 23.8903 62.7234 23.2336 62.4255 22.7395C62.099 22.193 61.4967 21.8221 60.6393 21.6402C54.6702 20.5461 50.7129 19.5331 50.1413 15.6284C49.9342 14.2043 50.3298 12.8075 51.2582 11.6878C52.5549 10.1208 54.7922 9.22473 57.4034 9.22473C62.199 9.22473 65.2966 11.4472 65.2966 14.8886C65.2966 15.6902 64.6692 16.3406 63.897 16.3406C63.1217 16.3406 62.4973 15.6906 62.4973 14.8886C62.4973 12.8484 59.7542 12.1236 57.4037 12.1236C55.6396 12.1236 54.1366 12.6701 53.3803 13.5756C52.9817 14.0598 52.8251 14.6063 52.9099 15.1929C53.1231 16.6449 54.4098 17.5485 61.1478 18.7839L61.1858 18.7906C63.2384 19.2331 64.2865 20.3465 64.801 21.2111C65.5136 22.3946 65.6956 23.8513 65.3186 25.3273C64.7129 27.7136 61.9607 29.8856 58.2102 29.8856Z" fill="#52586A"/>
<path d="M90.445 29.8861C84.9213 29.8861 80.4365 25.2498 80.4365 19.5533C80.4365 13.8587 84.9217 9.22559 90.445 9.22559C95.4729 9.22559 99.741 13.1126 100.368 18.2611C100.45 18.9454 100.092 19.4836 99.8725 19.7419C99.5179 20.1549 99.0691 20.3824 98.6047 20.3824H83.283C83.6812 24.0923 86.7382 26.9861 90.4447 26.9861C92.927 26.9861 95.4124 25.666 96.4796 23.7801C96.8721 23.0907 97.7257 22.8565 98.3942 23.2632C99.0626 23.6695 99.2888 24.5541 98.8966 25.2467C97.3278 28.0199 93.9288 29.8861 90.445 29.8861ZM83.5216 17.4788H97.362C96.4898 14.356 93.6871 12.1237 90.445 12.1237C87.1654 12.124 84.3942 14.3886 83.5216 17.4788Z" fill="#52586A"/>
<path d="M112.96 9.22567C110.144 9.22567 107.6 10.4434 105.788 12.3911V10.6501C105.788 9.84536 105.158 9.20007 104.389 9.20007C103.614 9.20007 102.992 9.84536 102.992 10.6501V35.4756C102.992 36.2721 103.614 36.9229 104.389 36.9229C105.158 36.9229 105.788 36.2725 105.788 35.4756V26.72C107.599 28.6708 110.144 29.8866 112.96 29.8866C118.461 29.8866 122.931 25.2503 122.931 19.5538C122.931 13.8588 118.461 9.22567 112.96 9.22567ZM112.96 26.9865C109.002 26.9865 105.788 23.6507 105.788 19.5538C105.788 15.4588 109.002 12.1245 112.96 12.1245C116.914 12.1245 120.134 15.4588 120.134 19.5538C120.134 23.6503 116.914 26.9865 112.96 26.9865Z" fill="#52586A"/>
<path d="M147.518 29.7305C146.14 29.7305 144.79 29.1065 143.51 27.8742C142.55 26.9443 136.495 20.5894 136.235 20.3198C135.972 20.0434 135.827 19.6725 135.833 19.2875C135.833 18.9036 135.984 18.5363 136.254 18.265L144.615 9.79206C145.173 9.22631 146.058 9.24245 146.598 9.81332C147.138 10.3842 147.129 11.2976 146.573 11.8649L139.217 19.317C141.018 21.206 144.727 25.0785 145.418 25.7549C146.184 26.4864 146.918 26.8506 147.568 26.8309C147.762 26.8277 148.205 26.8277 148.606 26.8277C149.379 26.8277 150 27.4813 150 28.2809C150 29.0805 149.373 29.7148 148.597 29.7246C148.229 29.7246 147.828 29.7179 147.652 29.7313C147.605 29.7305 147.562 29.7305 147.518 29.7305Z" fill="#52586A"/>
<path d="M133.982 29.7951C133.209 29.7951 132.582 29.151 132.582 28.3482V3.69162C132.582 2.89358 133.209 2.24475 133.982 2.24475C134.757 2.24475 135.382 2.89318 135.382 3.69162V28.3482C135.382 29.151 134.757 29.7951 133.982 29.7951Z" fill="#52586A"/>
<path fill-rule="evenodd" clip-rule="evenodd" d="M127.598 6.0535C128.59 6.0535 129.39 5.22592 129.39 4.1952C129.39 3.17432 128.59 2.34045 127.598 2.34045C126.609 2.34045 125.803 3.17432 125.803 4.1952C125.803 5.22592 126.609 6.0535 127.598 6.0535Z" fill="#52586A"/>
</svg>
