<svg width="272" height="348" viewBox="0 0 272 348" fill="none" xmlns="http://www.w3.org/2000/svg">
<circle r="15.5" transform="matrix(-1 0 0 1 15.5 284.493)" fill="#026D49"/>
<path d="M119.159 308.87C121.014 312.102 124.501 311.482 126.665 309.047C127.945 307.586 128.96 306.125 130.726 305.195C133.684 303.601 137.039 303.645 140.042 305.018C140.748 305.328 140.13 306.39 139.423 306.08C136.245 304.663 132.36 305.018 129.667 307.364C128.077 308.737 127.194 310.907 125.252 311.881C122.603 313.209 119.512 312.014 118.056 309.534C117.747 308.781 118.806 308.161 119.159 308.87Z" fill="white"/>
<path d="M120.706 315.424C122.56 318.656 126.048 318.036 128.211 315.601C129.492 314.139 130.507 312.678 132.273 311.748C135.231 310.154 138.586 310.199 141.588 311.571C142.295 311.881 141.677 312.944 140.97 312.634C137.792 311.217 133.907 311.571 131.214 313.918C129.624 315.291 128.741 317.46 126.799 318.434C124.15 319.763 121.059 318.567 119.602 316.088C119.249 315.379 120.309 314.759 120.706 315.424Z" fill="white"/>
<path d="M56.1682 326.644C61.8633 320.489 67.5144 314.335 73.2095 308.18C73.7393 307.604 74.6223 308.49 74.0925 309.066C68.3973 315.22 62.7463 321.375 57.0511 327.53C56.4772 328.061 55.6384 327.22 56.1682 326.644Z" fill="white"/>
<path d="M199.408 333.445L216.191 349.355L223.721 340.746C224.166 340.214 224.937 340.917 224.492 341.449C222.193 344.183 216.048 351.063 216.048 351.063L198.662 334.263C198.229 333.792 198.933 332.958 199.408 333.445Z" fill="white"/>
<path d="M247.588 12.0316C250.601 10.3657 251.704 6.51873 250.033 3.49603C248.362 0.473331 244.518 -0.639987 241.504 1.02586C238.375 2.75577 237.441 5.90283 239.016 9.48391C239.65 10.9043 240.842 11.9656 242.365 12.4393C244.094 13.1027 246.003 12.9072 247.588 12.0316ZM242.126 2.14967C244.56 0.804177 247.623 1.69137 248.972 4.13278C250.322 6.57419 249.444 9.63977 247.009 10.9853C245.734 11.69 244.159 11.8523 242.795 11.3921C241.611 10.984 240.668 10.1901 240.205 9.07968C238.831 6.04509 239.537 3.58058 242.126 2.14967Z" fill="white"/>
<path d="M254.006 41.9594C259.544 43.8563 265.104 45.7921 270.68 47.6677C271.422 47.9152 271.078 49.1174 270.336 48.8699C264.798 46.9729 259.238 45.0372 253.662 43.1616C252.92 42.9141 253.264 41.7119 254.006 41.9594Z" fill="white"/>
<rect width="17" height="17" transform="matrix(-0.883932 0.467616 0.467616 0.883932 197.026 3.99316)" fill="#026D49"/>
<path d="M250.863 286.307C253.991 295.384 267.214 292.593 270.961 301.317C271.178 301.831 270.434 302.28 270.218 301.767C266.471 293.042 253.247 295.897 250.027 286.531C249.841 285.986 250.677 285.761 250.863 286.307Z" fill="white"/>
<path d="M247.863 293.287C250.991 301.797 264.214 299.181 267.961 307.36C268.178 307.841 267.434 308.262 267.218 307.781C263.471 299.602 250.247 302.278 247.027 293.498C246.841 292.986 247.677 292.776 247.863 293.287Z" fill="white"/>
</svg>
