<svg width="600" height="385" viewBox="0 0 600 385" fill="none" xmlns="http://www.w3.org/2000/svg">
<path d="M516 28.4453H61V397.445H516V28.4453Z" fill="#FBF8F4"/>
<g clip-path="url(#clip0)">
<path d="M255.915 272.632C257.629 266.36 261.914 260.194 265.021 257.192C268.182 254.19 269.092 278.905 269.092 278.905L255.915 272.632Z" fill="#FFA79B"/>
<path d="M308.356 477.325C313.177 459.043 315.909 436.204 315.051 426.125C315.051 426.125 346.441 319.168 356.244 285.124C354.744 284.856 353.298 284.642 351.798 284.374C344.138 283.087 336.478 281.854 328.871 280.406C323.033 279.334 312.48 277.565 306.642 276.653C291.59 322.546 285.858 395.727 284.144 407.736C283.019 415.509 278.787 450.465 278.145 472.285C286.34 474.269 299.946 476.092 308.356 477.325Z" fill="#8DB8A8"/>
<path d="M411.791 469.068C403.114 437.062 395.561 420.227 395.561 420.227C392.722 396.37 376.706 306.891 376.706 306.891L374.456 288.073C366.903 286.84 359.404 285.607 351.851 284.374C344.191 283.087 336.531 281.854 328.925 280.406C328.068 280.245 327.264 280.085 326.407 279.924L313.819 303.352C313.819 303.352 348.155 388.489 357.851 419.209C364.493 440.225 377.509 464.672 383.455 479.416C391.49 476.896 403.917 472.232 411.791 469.068Z" fill="#8DB8A8"/>
<path d="M333.853 354.445C332.032 346.618 330.21 338.79 328.336 330.909C328.282 330.749 328.282 330.641 328.229 330.48C328.229 330.373 328.229 330.266 328.282 330.212C328.496 330.266 328.657 330.373 328.871 330.427C328.925 330.695 328.978 330.909 329.032 331.177C330.8 338.898 332.621 346.564 334.442 354.284C334.549 354.66 333.96 354.821 333.853 354.445Z" fill="black"/>
<path d="M329.086 331.177C328.872 331.07 328.604 331.017 328.39 330.909C326.301 330.159 324.265 329.355 322.176 328.604C321.801 328.443 321.962 327.854 322.337 328.014L328.336 330.266C328.551 330.32 328.711 330.427 328.926 330.481C328.979 330.695 329.033 330.909 329.086 331.177Z" fill="black"/>
<path d="M382.652 229.635C381.849 245.022 376.278 303.942 376.278 303.942L334.764 299.76L314.409 280.995L305.035 248.077L300.268 231.243C301.821 204.919 307.553 200.202 331.229 202.453C332.032 202.507 332.889 202.614 333.746 202.721C335.032 202.882 336.425 203.043 337.817 203.204C341.406 203.633 345.317 204.222 349.655 204.812C349.655 204.812 350.78 205.563 352.655 206.742C360.636 211.889 381.902 225.56 382.652 226.043C382.813 226.15 382.759 227.437 382.652 229.635Z" fill="#39B54A"/>
<path d="M375.153 232.583C366.851 252.206 363.369 263.035 354.905 282.55C378.956 286.035 381.313 250.436 375.153 232.583Z" fill="black"/>
<path d="M347.407 222.719H265.022V304.907H347.407V222.719Z" fill="#E6DFD1"/>
<path d="M347.407 234.996H265.022V236.229H347.407V234.996Z" fill="white"/>
<path d="M272.468 231.725C274.036 231.725 275.307 230.453 275.307 228.884C275.307 227.315 274.036 226.042 272.468 226.042C270.9 226.042 269.629 227.315 269.629 228.884C269.629 230.453 270.9 231.725 272.468 231.725Z" fill="#FECA55"/>
<path d="M280.878 231.725C282.446 231.725 283.717 230.453 283.717 228.884C283.717 227.315 282.446 226.042 280.878 226.042C279.31 226.042 278.039 227.315 278.039 228.884C278.039 230.453 279.31 231.725 280.878 231.725Z" fill="white"/>
<path d="M317.571 277.188H277.289C276.486 277.188 276.486 278.422 277.289 278.422H317.571C318.374 278.475 318.374 277.188 317.571 277.188Z" fill="black"/>
<path d="M317.571 284.104H277.289C276.486 284.104 276.486 285.338 277.289 285.338H317.571C318.374 285.391 318.374 284.104 317.571 284.104Z" fill="black"/>
<path d="M332.997 241.644H276.699V270.595H332.997V241.644Z" fill="#BAB5AB"/>
<path d="M329.73 293.487H315.053V299.599H329.73V293.487Z" fill="white"/>
<path d="M326.945 244.486C325.499 245.451 323.999 246.362 322.553 247.327C321.856 247.756 322.499 248.882 323.196 248.399C324.642 247.434 326.142 246.523 327.588 245.558C328.284 245.129 327.642 244.057 326.945 244.486Z" fill="white"/>
<path d="M273.7 280.031C275.253 280.46 277.289 278.53 275.789 277.082C274.075 275.474 267.218 268.344 265.076 267.379C255.434 263.143 254.255 278.369 254.63 281.586C255.219 287.054 257.576 292.147 261.165 296.222C261.272 296.544 263.897 298.849 265.183 299.76C266.147 300.404 267.7 299.707 267.915 298.527C269.039 298.903 271.825 297.294 271.236 295.632C271.664 295.364 272.843 294.989 273.111 294.131C273.485 293.059 273.164 291.987 272.682 290.914C273.003 290.754 273.271 290.593 273.539 290.271C275.146 288.502 272.575 286.465 270.646 283.784C269.2 281.747 268.718 279.012 267.379 277.726C267.807 277.565 268.182 277.404 268.557 277.136C270.004 278.476 271.718 279.495 273.7 280.031Z" fill="#FFA79B"/>
<path d="M271.932 290.164C268.825 287.698 266.361 284.642 264.594 281.103C264.433 280.728 263.844 281.05 264.058 281.425C265.879 285.017 268.397 288.073 271.504 290.593C271.825 290.861 272.254 290.432 271.932 290.164Z" fill="#D24A43"/>
<path d="M270.647 294.238C267.38 292.308 264.809 289.574 263.095 286.196C262.934 285.821 262.345 286.142 262.559 286.518C264.273 290.003 266.951 292.844 270.326 294.774C270.647 294.989 270.969 294.452 270.647 294.238Z" fill="#D24A43"/>
<path d="M267.111 297.079C264.754 295.524 262.826 293.541 261.379 291.075C261.165 290.699 260.629 291.021 260.844 291.396C262.343 293.916 264.325 296.06 266.789 297.615C267.111 297.83 267.432 297.294 267.111 297.079Z" fill="#D24A43"/>
<path d="M273.861 243.844C272.254 242.021 270.433 238.59 268.344 238.161C263.255 237.142 258.862 237.625 258.22 238.214C257.416 239.019 258.005 240.305 258.916 241.109C260.202 242.235 263.148 241.27 263.79 243.308C263.79 243.361 263.79 243.361 263.844 243.415C262.291 243.093 261.005 242.986 260.041 243.2C256.613 243.951 257.523 250.92 258.541 257.193C260.416 268.345 281.842 270.275 281.842 270.275C281.842 270.275 274.022 243.897 273.861 243.844Z" fill="#FFA79B"/>
<path d="M382.654 229.636C382.011 234.353 380.19 240.036 377.029 246.952C362.084 279.281 359.406 292.362 347.889 293.381C341.247 293.97 331.659 290.539 315.053 284.427C298.502 278.316 285.753 273.651 276.218 270.113C274.986 261.428 274.558 252.635 273.808 243.843C280.557 244.701 292.984 246.363 305.037 248.078C317.625 249.901 329.73 251.777 334.23 252.957L359.727 219.61L351.746 207.869L349.657 204.813C350.996 204.974 352.335 205.188 353.621 205.349C370.708 207.815 385.171 211.461 382.654 229.636Z" fill="#39B54A"/>
<path d="M338.891 257.461L335.731 254.298C335.463 254.03 334.981 254.459 335.302 254.727C336.373 255.799 337.391 256.818 338.462 257.89C338.73 258.211 339.159 257.729 338.891 257.461Z" fill="black"/>
<path d="M350.298 230.279C349.495 231.458 348.745 232.691 347.941 233.871C347.727 234.192 348.263 234.514 348.477 234.192C349.28 233.013 350.03 231.78 350.834 230.6C351.102 230.279 350.566 229.957 350.298 230.279Z" fill="black"/>
<path d="M260.095 248.882C259.666 248.185 259.291 247.435 258.863 246.738C258.648 246.362 258.113 246.684 258.327 247.059C258.756 247.756 259.13 248.507 259.559 249.204C259.72 249.579 260.255 249.257 260.095 248.882Z" fill="#D24A43"/>
<path d="M260.148 254.619C259.827 254.136 259.505 253.654 259.238 253.171C259.023 252.85 258.488 253.171 258.702 253.493C259.023 253.976 259.345 254.458 259.613 254.941C259.827 255.316 260.363 254.994 260.148 254.619Z" fill="#D24A43"/>
<path d="M260.63 258.586L259.773 257.46C259.505 257.138 258.969 257.46 259.237 257.782L260.094 258.907C260.362 259.229 260.898 258.907 260.63 258.586Z" fill="#D24A43"/>
<path d="M266.146 243.897C265.557 243.682 264.967 243.468 264.432 243.307C264.057 243.2 263.896 243.789 264.271 243.897C264.86 244.111 265.449 244.326 265.985 244.486C266.36 244.594 266.521 244.004 266.146 243.897Z" fill="#D24A43"/>
<path d="M352.763 205.884L346.71 182.885L331.979 187.067C332.247 187.388 333.426 200.094 334.176 208.029C336.318 207.868 349.71 206.099 352.763 205.884Z" fill="#FFA79B"/>
<path d="M341.996 185.459C342.05 184.869 342.05 184.333 342.05 183.743L331.979 187.067C332.14 187.228 332.569 191.356 333.051 196.288C337.122 193.501 340.496 189.801 341.996 185.459Z" fill="black"/>
<path d="M358.067 175.326C358.656 170.715 352.389 164.925 346.978 163.477C344.622 162.834 344.354 160.85 342.961 162.298C339.533 165.89 328.552 176.827 328.284 181.652C327.909 188.675 336.051 191.409 341.89 189.64C347.728 187.817 357.21 181.92 358.067 175.326Z" fill="#FFA79B"/>
<path d="M345.371 159.135C347.889 159.671 350.138 163.048 350.728 165.139C354.852 167.552 358.495 171.787 358.013 175.379C357.423 179.776 353.031 183.904 348.424 186.638C347.46 184.922 350.353 181.706 350.192 179.454C347.139 174.253 347.674 172.163 348.96 170.125C347.192 169.965 342.05 164.389 342.211 162.298C342.639 159.188 344.621 158.974 345.371 159.135Z" fill="#322E28"/>
<path d="M354.905 185.673C355.87 183.207 353.834 179.561 350.192 179.4C348.21 181.491 346.174 183.529 344.139 185.566C344.781 187.121 347.138 189.265 349.442 189.426C352.066 189.533 353.888 188.354 354.905 185.673Z" fill="#FFA79B"/>
<path d="M352.227 183.636C351.37 183.475 350.567 183.368 349.71 183.207C349.335 183.153 349.121 183.743 349.549 183.797C350.406 183.958 351.21 184.065 352.067 184.226C352.495 184.279 352.656 183.69 352.227 183.636Z" fill="#D24A43"/>
<path d="M337.872 168.571C337.444 169.054 336.962 169.483 336.533 169.965C336.265 170.233 336.694 170.716 336.962 170.394C337.39 169.911 337.872 169.483 338.301 169C338.622 168.732 338.14 168.249 337.872 168.571Z" fill="black"/>
<path d="M343.015 173.288C342.586 173.771 342.104 174.2 341.676 174.682C341.408 174.95 341.836 175.433 342.104 175.111C342.533 174.629 343.015 174.2 343.443 173.717C343.711 173.449 343.283 172.967 343.015 173.288Z" fill="black"/>
<path d="M337.176 175.111C336.747 174.95 336.158 174.79 335.89 174.361C335.73 174.039 335.783 173.61 336.158 173.557C336.533 173.503 336.372 172.913 335.997 172.967C335.355 173.074 335.087 173.771 335.194 174.361C335.355 175.165 336.265 175.487 336.962 175.701C337.39 175.862 337.551 175.272 337.176 175.111Z" fill="#D24A43"/>
<path d="M339.64 183.529C339.212 184.172 338.301 184.44 337.551 184.118C337.176 183.958 336.855 184.494 337.23 184.655C338.301 185.137 339.533 184.762 340.176 183.797C340.39 183.529 339.854 183.207 339.64 183.529Z" fill="#D24A43"/>
<path d="M353.621 205.349C353.299 205.831 353.031 206.26 352.656 206.743C352.335 207.118 352.067 207.493 351.746 207.868C349.496 210.442 346.603 212.426 343.282 213.444C339.64 214.516 335.462 214.195 332.783 211.246C330.534 208.78 330.052 205.402 331.23 202.454C332.033 202.507 338.354 202.668 338.354 202.668C341.943 203.097 345.371 204.169 349.657 204.813C350.996 204.973 352.281 205.134 353.621 205.349Z" fill="#FFA79B"/>
<path d="M345.64 171.895L345.158 170.93C344.783 170.179 343.711 170.823 344.086 171.573L344.568 172.538C344.89 173.235 346.015 172.645 345.64 171.895Z" fill="#322E28"/>
<path d="M339.854 166.963C339.479 166.695 339.104 166.427 338.729 166.158C338.462 165.944 338.033 166.105 337.872 166.373C337.712 166.695 337.819 167.016 338.087 167.231C338.462 167.499 338.837 167.767 339.212 168.035C339.479 168.249 339.908 168.088 340.069 167.82C340.283 167.552 340.176 167.177 339.854 166.963Z" fill="#322E28"/>
</g>
<path d="M196.737 95.9097H93.7852V217.273H196.737V95.9097Z" fill="white"/>
<path d="M98.4413 211.083C98.2973 211.083 98.2013 211.035 98.0573 210.939C97.8174 210.747 97.7694 210.363 98.0093 210.123L189.922 101.957C190.114 101.717 190.498 101.669 190.738 101.909C190.978 102.101 191.026 102.485 190.786 102.725L98.8733 210.891C98.7773 211.035 98.6333 211.083 98.4413 211.083Z" fill="#39B54A"/>
<path d="M190.353 211.083C190.209 211.083 190.017 211.035 189.921 210.891L98.0086 102.725C97.8166 102.485 97.8166 102.149 98.0566 101.909C98.2966 101.717 98.6326 101.717 98.8725 101.957L190.785 210.123C190.977 210.363 190.977 210.699 190.737 210.939C190.593 211.035 190.497 211.083 190.353 211.083Z" fill="#39B54A"/>
<path d="M301.897 61.9336H199.761V69.0839H301.897V61.9336Z" fill="#D8D8D8"/>
<path d="M124.599 55.6953H93.7852V77.866H124.599V55.6953Z" fill="#D8D8D8"/>
<path opacity="0.5" d="M516.103 46.7222H61.2432V47.8259H516.103V46.7222Z" fill="#0EA36C"/>
<path d="M446.461 71.4839H346.677C345.957 71.4839 345.957 72.5876 346.677 72.5876H446.461C447.181 72.6356 447.181 71.4839 446.461 71.4839Z" fill="#BEBEBE"/>
<path d="M446.461 89.6714H346.677C345.957 89.6714 345.957 90.7751 346.677 90.7751H446.461C447.181 90.8231 447.181 89.6714 446.461 89.6714Z" fill="#BEBEBE"/>
<path d="M425.15 107.859H346.58C346.004 107.859 346.004 108.963 346.58 108.963H425.15C425.726 108.963 425.726 107.859 425.15 107.859Z" fill="#BEBEBE"/>
<path d="M425.15 126.046H346.58C346.004 126.046 346.004 127.15 346.58 127.15H425.15C425.726 127.15 425.726 126.046 425.15 126.046Z" fill="#BEBEBE"/>
<path d="M425.15 144.186H346.58C346.004 144.186 346.004 145.29 346.58 145.29H425.15C425.726 145.338 425.726 144.186 425.15 144.186Z" fill="#BEBEBE"/>
<path d="M341.06 66.9727H332.037V74.3149H341.06V66.9727Z" fill="#BEBEBE"/>
<path d="M235.805 324.863C231.198 331.149 223.902 335.132 216.175 335.708C207.488 336.38 200.528 331.965 193.281 327.79C187.233 324.335 179.698 320.784 172.642 323.087C167.219 324.863 162.995 330.045 163.955 335.852C164.051 336.572 165.155 336.284 165.059 335.564C164.339 331.149 167.075 327.166 170.866 325.103C174.85 322.895 179.65 323.279 183.873 324.623C191.505 327.022 197.6 332.493 205.04 335.276C216.463 339.499 229.662 335.228 236.813 325.487C237.197 324.863 236.237 324.287 235.805 324.863Z" fill="white"/>
<path d="M236.381 337.868C231.774 344.155 224.478 348.138 216.751 348.713C208.064 349.385 201.104 344.97 193.857 340.795C187.809 337.34 180.274 333.789 173.219 336.092C167.795 337.868 163.571 343.051 164.531 348.857C164.627 349.577 165.731 349.289 165.635 348.569C164.915 344.155 167.651 340.172 171.443 338.108C175.426 335.901 180.226 336.284 184.45 337.628C192.081 340.028 198.176 345.498 205.616 348.282C217.039 352.505 230.238 348.234 237.389 338.492C237.773 337.82 236.765 337.244 236.381 337.868Z" fill="white"/>
<path d="M231.678 217.465H211.376C210.656 217.465 210.656 218.569 211.376 218.569H231.678C232.398 218.569 232.398 217.465 231.678 217.465Z" fill="#D8D8D8"/>
<path d="M231.678 225.911H211.376C210.656 225.911 210.656 227.014 211.376 227.014H231.678C232.398 227.062 232.398 225.911 231.678 225.911Z" fill="#D8D8D8"/>
<path d="M231.678 234.933H211.376C210.656 234.933 210.656 236.036 211.376 236.036H231.678C232.398 236.036 232.398 234.933 231.678 234.933Z" fill="#D8D8D8"/>
<path d="M240.893 306.148H164.243V253.888H240.893V306.148ZM165.347 304.996H239.741V255.04H165.347V304.996Z" fill="#BEBEBE"/>
<path opacity="0.3" d="M457.451 106.18C447.66 106.18 439.693 114.146 439.693 123.936C439.693 133.725 447.66 141.691 457.451 141.691C467.243 141.691 475.21 133.725 475.21 123.936C475.21 112.658 468.73 106.18 457.451 106.18ZM457.451 142.795C447.036 142.795 438.589 134.349 438.589 123.936C438.589 113.522 447.036 105.076 457.451 105.076C469.45 105.076 476.314 111.939 476.314 123.936C476.314 134.301 467.867 142.795 457.451 142.795Z" fill="#39B54A"/>
<path d="M461.824 320.684L394.729 333.958L403.7 379.292L470.795 366.019L461.824 320.684Z" fill="#D24A43"/>
<path d="M407.439 374.531C407.295 374.531 407.151 374.483 407.007 374.339C406.815 374.099 406.815 373.763 407.007 373.523L457.643 325.583C457.883 325.391 458.219 325.391 458.459 325.583C458.651 325.823 458.651 326.159 458.459 326.399L407.823 374.339C407.679 374.483 407.535 374.531 407.439 374.531Z" fill="white"/>
<path d="M465.083 363.59C465.035 363.59 464.939 363.59 464.891 363.542L400.192 337.484C399.904 337.388 399.76 337.052 399.856 336.764C399.952 336.477 400.288 336.333 400.576 336.429L465.275 362.486C465.563 362.582 465.707 362.918 465.611 363.206C465.515 363.446 465.323 363.59 465.083 363.59Z" fill="white"/>
<path d="M426.253 323.087L394.527 329.374C393.808 329.518 394.048 330.621 394.767 330.477L426.493 324.191C427.213 324.047 426.973 322.943 426.253 323.087Z" fill="#697CCC"/>
<path d="M425.486 319.009L393.761 325.295C393.041 325.439 393.281 326.543 394.001 326.399L425.726 320.112C426.398 319.968 426.158 318.865 425.486 319.009Z" fill="#697CCC"/>
<path d="M392.08 334.7L383.249 336.428C382.529 336.572 382.769 337.676 383.489 337.532L392.32 335.804C393.04 335.66 392.8 334.556 392.08 334.7Z" fill="#697CCC"/>
<path d="M392.416 338.972L375.186 342.379C373.794 342.667 374.034 343.771 375.426 343.483L392.656 340.076C394 339.788 393.808 338.684 392.416 338.972Z" fill="#697CCC"/>
<path d="M530.663 231.907L425.802 278.17L470.948 380.468L575.809 334.205L530.663 231.907Z" fill="#EBD6C5"/>
<path d="M470.65 381.202L470.41 380.674L425.054 277.882L425.582 277.642L530.933 231.142L531.173 231.669L576.53 334.461L576.002 334.701L470.65 381.202ZM426.542 278.458L471.226 379.714L575.042 333.885L530.357 232.629L426.542 278.458Z" fill="white"/>
<path d="M529.009 246.91L438.946 286.644L441.833 293.185L531.896 253.451L529.009 246.91Z" fill="white"/>
<path d="M533.898 257.884L443.835 297.618L446.722 304.159L536.785 264.426L533.898 257.884Z" fill="white"/>
<path d="M543.424 279.538L453.361 319.272L471.265 359.84L561.328 320.106L543.424 279.538Z" fill="white"/>
<path d="M513.148 279.769L448.51 308.286L451.397 314.827L516.035 286.31L513.148 279.769Z" fill="white"/>
<path d="M439.789 276.395C436.765 275.148 433.741 273.9 430.67 272.652C429.998 272.364 429.614 273.42 430.286 273.708C433.309 274.956 436.333 276.203 439.405 277.451C440.077 277.739 440.461 276.683 439.789 276.395Z" fill="#952C28"/>
<path d="M433.693 279.803C434.941 276.779 436.189 273.756 437.437 270.685C437.725 270.013 436.669 269.629 436.381 270.301C435.133 273.324 433.885 276.347 432.637 279.419C432.349 280.09 433.405 280.474 433.693 279.803Z" fill="#952C28"/>
<path d="M535.397 292.567C528.389 295.447 526.853 303.413 525.413 310.035C524.502 314.306 523.35 319.057 519.99 322.128C516.15 325.679 510.679 325.535 505.783 325.535C498.584 325.583 492.056 327.119 486.297 331.63C480.729 335.949 476.937 342.139 475.593 349.05C475.45 349.769 476.601 349.865 476.697 349.194C478.185 341.324 483.225 334.461 490.088 330.43C493.208 328.607 496.664 327.359 500.264 326.927C504.295 326.447 508.327 326.927 512.359 326.495C519.462 325.631 523.542 321.072 525.461 314.45C527.573 307.204 527.669 296.982 535.781 293.623C536.501 293.287 536.069 292.279 535.397 292.567Z" fill="white"/>
<path d="M502.903 350.969L533.861 348.042L537.892 379.81L530.309 373.62L510.391 397.758L489.992 380.914L509.911 356.776L502.903 350.969Z" fill="#697CCC"/>
<path d="M520.565 333.309L551.859 359.127C552.435 359.607 553.155 358.743 552.579 358.263L521.285 332.445C520.757 331.965 520.037 332.829 520.565 333.309Z" fill="#697CCC"/>
<path d="M549.67 403.469L445.856 347.837L409.103 416.401L512.916 472.033L549.67 403.469Z" fill="#FECA55"/>
<path d="M475.259 416.377C475.019 416.377 474.827 416.233 474.731 416.041L446.701 354.568C446.557 354.28 446.701 353.944 446.989 353.8C447.277 353.656 447.613 353.8 447.757 354.088L475.595 415.177L544.085 404.428C544.373 404.38 544.661 404.572 544.709 404.908C544.757 405.196 544.565 405.484 544.229 405.532L475.307 416.377C475.307 416.377 475.307 416.377 475.259 416.377Z" fill="white"/>
<path opacity="0.3" d="M473.792 230.253L414.429 208.264L413.528 210.694L472.891 232.683L473.792 230.253Z" fill="#D24A43"/>
<path opacity="0.3" d="M471.189 237.255L411.826 215.266L410.926 217.696L470.289 239.685L471.189 237.255Z" fill="#39B54A"/>
<path opacity="0.3" d="M468.603 244.211L409.24 222.222L408.34 224.652L467.703 246.641L468.603 244.211Z" fill="#39B54A"/>
<path d="M462.036 261.53L441.648 253.978L437.947 263.967L458.335 271.519L462.036 261.53Z" fill="white"/>
<path opacity="0.3" d="M432.157 243.57L408.927 252.496L404.703 241.507C404.463 240.835 403.408 241.219 403.648 241.891C404.895 245.346 408.399 254.176 408.399 254.176L432.589 244.626C433.213 244.338 432.829 243.282 432.157 243.57Z" fill="#39B54A"/>
<path d="M538.66 220.728H463.162V151.96H538.708V220.728H538.66ZM464.266 219.576H537.556V153.112H464.266V219.576Z" fill="#B7B4B4"/>
<path d="M520.517 165.877C516.917 172.548 513.27 179.218 509.67 185.888C506.55 181.953 503.43 178.018 500.311 174.083C500.071 173.795 499.591 173.939 499.447 174.179L478.568 204.988C478.184 205.612 479.144 206.139 479.528 205.564C486.344 195.534 493.159 185.456 499.927 175.427C503.047 179.362 506.166 183.345 509.334 187.28C509.574 187.568 510.054 187.472 510.198 187.184C513.942 180.274 517.685 173.363 521.477 166.453C521.813 165.781 520.853 165.205 520.517 165.877Z" fill="#D8D8D8"/>
<path d="M479.577 207.004C480.982 207.004 482.121 205.865 482.121 204.46C482.121 203.056 480.982 201.917 479.577 201.917C478.172 201.917 477.033 203.056 477.033 204.46C477.033 205.865 478.172 207.004 479.577 207.004Z" fill="#D8D8D8"/>
<path d="M499.927 177.97C501.331 177.97 502.47 176.831 502.47 175.427C502.47 174.022 501.331 172.883 499.927 172.883C498.522 172.883 497.383 174.022 497.383 175.427C497.383 176.831 498.522 177.97 499.927 177.97Z" fill="#D8D8D8"/>
<path d="M509.334 189.824C510.739 189.824 511.878 188.685 511.878 187.28C511.878 185.876 510.739 184.737 509.334 184.737C507.929 184.737 506.79 185.876 506.79 187.28C506.79 188.685 507.929 189.824 509.334 189.824Z" fill="#D8D8D8"/>
<path d="M520.518 168.421C521.923 168.421 523.062 167.282 523.062 165.877C523.062 164.473 521.923 163.334 520.518 163.334C519.114 163.334 517.975 164.473 517.975 165.877C517.975 167.282 519.114 168.421 520.518 168.421Z" fill="#D8D8D8"/>
<path d="M477.177 163.621V181.665C477.177 182.385 478.281 182.385 478.281 181.665V163.621C478.281 162.902 477.177 162.902 477.177 163.621Z" fill="#D24A43"/>
<path d="M520.853 206.476H489.559C488.84 206.476 488.84 207.579 489.559 207.579H520.853C521.573 207.579 521.573 206.476 520.853 206.476Z" fill="#D24A43"/>
<path d="M542.836 148.122H533.236V157.719H542.836V148.122Z" fill="#FECA55"/>
<path d="M101.76 209.067C101.376 209.403 96.8168 226.775 96.8168 226.775L82.7539 218.905L92.3531 204.556L101.76 209.067Z" fill="#FFA79B"/>
<path d="M100.177 214.346C100.993 211.467 101.617 209.211 101.761 209.115L98.2572 207.436C98.0172 209.883 98.5452 212.714 100.177 214.346Z" fill="#E64825"/>
<path d="M65.2347 263.871C65.2347 263.871 71.2342 255.233 91.9206 325.488C112.607 395.743 118.606 391.232 98.304 426.936C78.0017 462.639 88.1769 460.768 94.9443 462.255C101.712 463.743 100.944 472.381 100.944 472.381H63.3629C65.6187 435.957 80.2575 393.872 80.2575 393.872C80.2575 393.872 64.4668 363.831 51.3158 334.894C38.1649 305.957 49.8279 273.66 49.8279 273.66L65.2347 263.871Z" fill="#FFA79B"/>
<path d="M66.7706 445.699C74.114 445.555 81.5054 445.651 88.8488 445.795C90.7207 441.092 93.7444 434.95 98.304 426.936C118.606 391.232 112.607 395.743 91.9206 325.488C71.2822 255.233 65.2347 263.871 65.2347 263.871L49.8279 273.66C49.8279 273.66 38.1649 305.957 51.3158 334.894C64.4668 363.831 80.2575 393.872 80.2575 393.872C80.2575 393.872 71.8582 418.058 66.7706 445.699Z" fill="#0EA36C"/>
<path d="M90.818 263.871C90.818 263.871 96.8176 255.233 117.504 325.488C138.19 395.743 144.19 391.232 123.887 426.936C103.585 462.639 113.76 460.768 120.528 462.255C127.295 463.743 126.527 472.381 126.527 472.381H88.9462C91.202 435.957 105.841 393.872 105.841 393.872C105.841 393.872 90.0501 363.831 76.8992 334.894C63.7482 305.957 67.4919 310.084 75.4113 273.66L90.818 263.871Z" fill="#FFA79B"/>
<path d="M105.84 393.872C105.84 393.872 97.3931 418.202 92.3055 445.891C99.6009 446.083 106.848 446.323 114.144 446.515C115.968 441.716 119.087 435.382 123.887 426.936C144.189 391.232 138.19 395.743 117.504 325.488C96.8172 255.233 90.8177 263.871 90.8177 263.871L75.4109 273.66C67.5395 310.084 63.7478 305.957 76.8988 334.894C90.0497 363.783 105.84 393.872 105.84 393.872Z" fill="#0EA36C"/>
<path d="M105.169 400.59C105.073 400.782 104.977 400.974 104.881 401.166C104.737 400.974 104.641 400.782 104.497 400.638C101.33 395.983 98.2578 391.28 95.282 386.481C81.5071 364.31 69.94 340.844 60.6288 316.466C60.5328 316.226 60.4368 315.986 60.3408 315.746L61.0608 316.034C61.1568 316.274 61.2527 316.514 61.3487 316.754C63.7485 322.992 66.2443 329.183 68.9321 335.277C78.8673 357.88 90.8664 379.571 104.737 400.014C104.929 400.254 105.025 400.446 105.169 400.59Z" fill="black"/>
<path d="M61.3963 316.802C61.1563 316.706 60.9163 316.61 60.6764 316.514C57.7006 315.267 54.7728 314.019 51.8451 312.771C51.5091 312.627 51.7971 312.147 52.133 312.291C54.9168 313.443 57.6526 314.643 60.4364 315.794L61.1563 316.082C61.2043 316.322 61.3003 316.562 61.3963 316.802Z" fill="black"/>
<path d="M96.4315 217.274L117.454 222.552C117.454 222.552 120.814 254.129 114.814 258.976L114.046 292.807L45.2676 277.403L62.5462 207.148L96.4315 217.274Z" fill="#FECA55"/>
<path d="M112.368 130.414C98.9768 138.236 71.091 155.799 67.5393 163.574C63.4117 172.595 60.0039 220.296 60.7719 223.319L91.5854 220.68L95.3291 177.106L123.551 146.634C119.855 141.163 116.015 135.836 112.368 130.414Z" fill="#FECA55"/>
<path d="M130.174 129.214C130.174 125.087 130.174 120.96 130.174 116.881C130.174 115.778 129.311 116.593 128.207 116.881C121.967 118.657 117.216 122.064 115.968 128.303C114.576 129.07 112.848 130.078 110.832 131.278C114.384 137.036 118.127 142.699 122.015 148.218L127.535 142.267C132.334 136.749 130.798 130.846 130.174 129.214Z" fill="#FFA79B"/>
<path d="M94.4162 176.915C93.7442 177.203 93.0243 177.491 92.3524 177.779C92.0164 177.923 92.1604 178.451 92.4963 178.307C93.1683 178.019 93.8882 177.731 94.5602 177.443C94.8962 177.299 94.7522 176.771 94.4162 176.915Z" fill="white"/>
<path d="M125.95 119.569C123.55 120.624 121.39 122.064 119.518 123.888C119.278 124.128 119.662 124.559 119.902 124.272C121.726 122.496 123.838 121.056 126.19 120.049C126.574 119.905 126.286 119.425 125.95 119.569Z" fill="black"/>
<path d="M134.446 77.5793C134.446 79.2109 133.102 80.5546 131.47 80.5546C129.838 80.5546 128.494 79.2109 128.494 77.5793C128.494 75.9477 129.838 74.604 131.47 74.604C133.102 74.604 134.446 75.4678 134.446 77.5793Z" fill="#D24A43"/>
<path d="M144.669 77.5793C144.669 79.2109 143.325 80.5546 141.694 80.5546C140.062 80.5546 138.718 79.2109 138.718 77.5793C138.718 75.9477 140.062 74.604 141.694 74.604C143.373 74.604 144.669 75.4678 144.669 77.5793Z" fill="#FECA55"/>
<path d="M155.18 77.5793C155.18 79.2109 153.836 80.5546 152.204 80.5546C150.572 80.5546 149.229 79.2109 149.229 77.5793C149.229 75.9477 150.572 74.604 152.204 74.604C153.884 74.604 155.18 75.4678 155.18 77.5793Z" fill="#39B54A"/>
<path d="M284.242 82.7622H128.398V142.22H284.242V82.7622Z" fill="#EBD6C5"/>
<path d="M275.507 88.2812H222.999V114.387H275.507V88.2812Z" fill="white"/>
<path d="M275.699 125.328H237.734V136.509H275.699V125.328Z" fill="white"/>
<path d="M233.654 125.328H214.6V136.509H233.654V125.328Z" fill="white"/>
<path d="M200.92 91.5918H138.142C137.422 91.5918 137.422 92.6955 138.142 92.6955H200.872C201.64 92.7435 201.64 91.5918 200.92 91.5918Z" fill="white"/>
<path d="M200.92 99.5107H138.142C137.422 99.5107 137.422 100.614 138.142 100.614H200.872C201.64 100.614 201.64 99.5107 200.92 99.5107Z" fill="white"/>
<path d="M186.761 108.868H138.045C137.469 108.868 137.469 109.972 138.045 109.972H186.761C187.289 110.02 187.289 108.868 186.761 108.868Z" fill="white"/>
<path d="M300.8 113.762L299.984 114.578L299.169 113.762L288.273 102.869C287.745 102.341 288.561 101.573 289.089 102.053L300.8 113.762Z" fill="#D24A43"/>
<path d="M300.801 113.763L299.985 114.578L289.089 125.424C288.561 125.952 287.794 125.136 288.273 124.608L299.937 112.947L300.801 113.763Z" fill="#D24A43"/>
<path d="M271.811 109.492C257.317 103.541 242.774 97.5907 228.279 91.6881C227.607 91.4002 227.319 92.5039 227.991 92.7918C242.486 98.7424 257.029 104.693 271.523 110.596C272.147 110.836 272.435 109.732 271.811 109.492Z" fill="#BEBEBE"/>
<path d="M228.471 110.692C242.918 104.645 257.412 98.5504 271.859 92.5039C272.531 92.216 271.955 91.2562 271.331 91.4961C256.885 97.5427 242.39 103.637 227.943 109.684C227.223 109.972 227.799 110.979 228.471 110.692Z" fill="#BEBEBE"/>
<path d="M161.276 153.257C153.452 168.374 136.894 201.534 136.894 201.534C136.894 201.534 105.6 218.234 97.9209 225.576L108.672 268.334C108.672 268.334 150.141 234.262 157.148 226.872C166.987 216.554 174.859 175.716 179.13 159.64C173.227 157.432 167.323 155.129 161.276 153.257Z" fill="#FECA55"/>
<path d="M136.989 202.445C136.653 203.789 136.365 205.132 136.029 206.476C135.933 206.812 136.509 206.956 136.557 206.62C136.893 205.276 137.181 203.933 137.517 202.589C137.613 202.253 137.085 202.109 136.989 202.445Z" fill="white"/>
<path d="M196.602 141.932C190.554 140.684 180.043 143.275 179.515 143.084C178.987 141.548 179.179 140.924 180.331 140.396C182.443 139.34 184.171 137.709 185.323 135.597C185.946 134.446 184.843 132.526 183.403 133.102C180.523 134.302 177.643 135.501 174.811 136.701C174.667 136.749 174.523 136.845 174.427 136.941C172.604 137.661 171.788 137.949 170.492 139.053C168.236 141.02 166.508 143.371 165.212 146.059C164.732 146.779 163.004 149.994 160.604 154.601C163.964 156.52 167.804 157.576 171.404 158.824C173.851 159.688 176.299 160.503 178.795 161.223C179.947 156.664 180.907 153.641 181.531 153.161C184.315 151.146 187.05 150.138 190.17 148.794C193.77 147.259 195.354 146.251 197.466 144.859C198.425 144.235 197.754 142.172 196.602 141.932Z" fill="#FFA79B"/>
<path d="M196.744 143.276C193.529 145.052 189.977 145.82 186.281 145.58C185.897 145.532 185.897 146.107 186.281 146.155C190.025 146.395 193.721 145.58 197.032 143.756C197.368 143.612 197.08 143.132 196.744 143.276Z" fill="black"/>
<path d="M128.926 118.705C126.382 120.193 122.399 122.688 120.671 125.184C118.847 127.823 118.511 131.038 118.559 134.206C118.607 135.981 120.815 136.317 121.631 135.213C122.015 135.357 122.399 135.357 122.783 135.117C123.407 135.069 123.935 134.686 124.031 134.062C125.374 132.718 126.286 131.086 126.43 129.071C126.622 127.055 126.334 126 127.966 124.464C129.022 123.504 129.694 122.928 130.03 121.537C130.414 120.097 130.27 117.938 128.926 118.705Z" fill="#FFA79B"/>
<path d="M127.245 125.136C127.485 124.896 127.101 124.464 126.861 124.752L124.366 127.199C124.27 127.295 124.27 127.439 124.318 127.535C125.566 129.647 125.71 132.094 124.702 134.35C124.558 134.685 125.038 134.973 125.182 134.637C125.854 133.15 126.094 131.566 125.854 129.983C125.758 129.503 125.614 128.975 125.47 128.495C125.422 128.351 125.086 127.775 125.086 127.631C125.038 126.767 126.717 125.616 127.245 125.136Z" fill="black"/>
<path d="M81.9375 194.094C81.9375 189.967 88.081 185.552 93.0246 184.833C95.1844 184.545 95.6644 182.769 96.7203 184.209C99.3601 187.76 107.807 199.277 107.567 202.828C107.087 209.067 99.6481 210.602 94.7045 208.395C89.6649 206.235 81.9855 199.997 81.9375 194.094Z" fill="#FFA79B"/>
<path d="M94.8965 181.234C92.6407 181.426 90.2409 184.161 89.5209 185.937C85.5852 187.616 81.9855 190.975 81.9855 194.143C81.9855 198.078 78.0498 204.7 83.0414 210.171C86.1132 213.578 94.1765 212.57 96.8643 208.203C100.032 202.973 95.3285 197.646 95.5204 196.59C96.4324 193.567 94.5125 190.736 92.4967 189.008C94.0806 189.056 97.2003 186.225 97.2963 184.353C97.2483 181.618 95.5684 181.138 94.8965 181.234Z" fill="#E64825"/>
<path d="M90.672 201.581C90.0961 199.326 92.2559 196.302 95.5197 196.542C97.0075 198.606 98.5914 200.621 100.223 202.637C99.4553 203.932 97.1995 205.564 95.1357 205.468C92.7359 205.324 91.296 204.028 90.672 201.581Z" fill="#FFA79B"/>
<path d="M103.68 192.223C103.056 191.455 101.904 191.503 101.232 192.223C101.04 192.463 101.088 192.846 101.328 193.038C101.376 193.038 101.376 193.038 101.424 193.086C101.376 193.182 101.328 193.23 101.28 193.326C100.944 193.998 102 194.43 102.336 193.758C102.336 193.758 102.384 193.758 102.336 193.806C102 194.238 102.48 194.91 103.008 194.718C103.92 194.286 104.351 193.038 103.68 192.223Z" fill="#FFA79B"/>
<path d="M95.8561 215.786C95.0401 212.426 92.1603 209.931 88.9446 209.355C88.9446 208.347 88.4167 207.436 87.1208 207.196C83.3771 206.524 80.2573 208.587 79.3454 211.611C73.5378 209.979 67.1544 210.891 62.7867 215.498C57.8431 220.728 57.5551 228.407 62.1148 233.973C66.8184 239.684 76.1776 242.419 83.2811 240.5C88.3207 239.156 91.9684 233.157 89.5686 228.886C93.9362 225.959 97.1999 221.304 95.8561 215.786Z" fill="#E64825"/>
<path d="M96.3354 200.573C95.6154 200.669 94.8955 200.717 94.1756 200.813C93.8396 200.861 93.7916 201.437 94.1756 201.389C94.8955 201.293 95.6154 201.245 96.3354 201.149C96.6714 201.101 96.7194 200.525 96.3354 200.573Z" fill="#E64825"/>
<path d="M100.944 192.175L99.8398 190.783C99.5999 190.495 99.2159 190.879 99.4559 191.167C99.8398 191.647 100.224 192.127 100.56 192.559C100.8 192.847 101.184 192.463 100.944 192.175Z" fill="#E64825"/>
<path d="M105.023 199.277C104.544 199.517 103.968 199.325 103.728 198.893C103.536 198.605 103.056 198.845 103.248 199.181C103.68 199.901 104.592 200.141 105.311 199.805C105.647 199.613 105.359 199.133 105.023 199.277Z" fill="#E64825"/>
<path d="M98.3044 189.008L97.8724 189.872C97.5365 190.496 98.5444 191.071 98.8324 190.448L99.2643 189.584C99.6003 188.912 98.6404 188.336 98.3044 189.008Z" fill="#E64825"/>
<path d="M401.247 285.897L406.095 308.499C406.239 309.219 407.343 308.979 407.199 308.259L402.351 285.657C402.207 284.937 401.103 285.177 401.247 285.897Z" fill="#D24A43"/>
<path d="M406.767 311.474L407.199 313.538C407.199 313.586 408.302 313.346 408.302 313.298L407.871 311.234C407.871 311.186 406.767 311.426 406.767 311.474Z" fill="#D24A43"/>
<path d="M535.253 83.0496C531.078 83.0496 527.67 79.6424 527.67 75.4674C527.67 71.2924 531.078 67.8853 535.253 67.8853C540.005 67.8853 542.837 70.7166 542.837 75.4674C542.837 79.6424 539.429 83.0496 535.253 83.0496ZM535.253 68.989C531.702 68.989 528.774 71.8683 528.774 75.4674C528.774 79.0186 531.654 81.9459 535.253 81.9459C538.805 81.9459 541.733 79.0666 541.733 75.4674C541.685 69.8048 537.653 68.989 535.253 68.989Z" fill="#E6DFD1"/>
<path d="M231.005 404.285C226.83 397.71 222.702 391.184 218.526 384.61C218.142 383.986 217.183 384.562 217.567 385.185C221.742 391.76 225.87 398.286 230.045 404.861C230.429 405.484 231.389 404.909 231.005 404.285Z" fill="#E6DFD1"/>
<path d="M532.709 105.556C530.405 110.787 528.149 116.065 525.845 121.296C525.557 121.968 526.517 122.544 526.805 121.872C529.109 116.641 531.365 111.362 533.669 106.132C533.957 105.46 532.997 104.884 532.709 105.556Z" fill="#E6DFD1"/>
<path d="M538.372 107.859C536.164 112.754 533.956 117.697 531.749 122.592C531.461 123.263 532.421 123.839 532.709 123.167C534.916 118.273 537.124 113.33 539.332 108.435C539.668 107.763 538.66 107.187 538.372 107.859Z" fill="#E6DFD1"/>
<path d="M48.3799 178.546C47.5639 185.936 31.2932 182.865 33.837 192.271C34.029 192.991 35.1329 192.655 34.941 191.983C33.3571 186.176 41.5164 185.649 45.0201 184.113C47.42 183.057 49.1958 181.282 49.4838 178.594C49.6278 177.826 48.4759 177.826 48.3799 178.546Z" fill="#E6DFD1"/>
<path d="M50.6357 184.161C49.8198 191.552 33.5491 188.48 36.0929 197.886C36.2849 198.606 37.3888 198.27 37.1968 197.598C35.6129 191.792 43.7723 191.264 47.276 189.728C49.6758 188.672 51.4517 186.897 51.7396 184.209C51.8836 183.442 50.7317 183.442 50.6357 184.161Z" fill="#E6DFD1"/>
<path d="M51.7874 74.0275C50.2995 70.8123 48.7636 67.6451 47.2757 64.4298C46.9877 63.758 45.9798 64.3339 46.3158 65.0057C47.8037 68.2209 49.3396 71.3882 50.8274 74.6034C51.1154 75.2752 52.1233 74.6994 51.7874 74.0275Z" fill="#E6DFD1"/>
<path d="M564.482 251.825C561.651 253.121 558.819 254.417 555.987 255.712C555.315 256 555.891 257.008 556.563 256.672C559.395 255.376 562.227 254.081 565.058 252.785C565.73 252.497 565.154 251.537 564.482 251.825Z" fill="#E6DFD1"/>
<path d="M564.098 259.215C561.65 259.791 559.203 260.367 556.755 260.943C556.035 261.087 556.371 262.19 557.043 262.046C559.491 261.471 561.938 260.895 564.386 260.319C565.106 260.127 564.818 259.071 564.098 259.215Z" fill="#E6DFD1"/>
<defs>
<clipPath id="clip0">
<rect width="318.516" height="248.558" fill="white" transform="matrix(-1 0 0 1 483.212 149.134)"/>
</clipPath>
</defs>
</svg>

