<svg width="77" height="54" viewBox="0 0 77 54" fill="none" xmlns="http://www.w3.org/2000/svg">
<circle cx="9.45239" cy="44.8513" r="8.59399" fill="#FA7355"/>
<path d="M40.9626 5.322C39.1096 8.5543 35.6243 7.93441 33.4626 5.49912C32.1832 4.03794 31.1685 2.57676 29.4038 1.64692C26.4479 0.052908 23.0949 0.0971753 20.0949 1.4698C19.389 1.77974 20.0067 2.84243 20.7126 2.53248C23.889 1.11558 27.7714 1.46982 30.4626 3.81656C32.0508 5.18918 32.9332 7.35878 34.8743 8.3329C37.5214 9.66124 40.6096 8.46574 42.0655 5.98617C42.3744 5.23344 41.3155 4.61355 40.9626 5.322Z" fill="#BAB5AB"/>
<path d="M39.4156 11.8756C37.5627 15.1079 34.0774 14.488 31.9156 12.0528C30.6362 10.5916 29.6216 9.13044 27.8569 8.20061C24.901 6.60661 21.548 6.6509 18.548 8.02351C17.8422 8.33345 18.4598 9.3961 19.1657 9.08616C22.3422 7.66927 26.2245 8.02351 28.9157 10.3702C30.5039 11.7428 31.3862 13.9124 33.3274 14.8866C35.9745 16.2149 39.0627 15.0194 40.5186 12.5398C40.8715 11.8314 39.8127 11.2115 39.4156 11.8756Z" fill="#BAB5AB"/>
<path d="M76.7839 44.4521C71.0928 38.2975 65.4457 32.1428 59.7546 25.9881C59.2252 25.4125 58.3428 26.2981 58.8722 26.8737C64.5634 33.0284 70.2104 39.183 75.9016 45.3377C76.4751 45.869 77.3133 45.0278 76.7839 44.4521Z" fill="#BAB5AB"/>
</svg>
