<svg width="617" height="385" viewBox="0 0 617 385" fill="none" xmlns="http://www.w3.org/2000/svg">
<g clip-path="url(#clip0)">
<path d="M616.863 -1.94678H0.524414V564.829H616.863V-1.94678Z" fill="white"/>
<path d="M541.45 209.67H389.967V316.259H541.45V209.67Z" fill="#FBF8F4"/>
<path d="M538.711 253.812H513.628C512.861 253.812 512.861 255.017 513.628 255.017H538.711C539.532 255.017 539.532 253.812 538.711 253.812Z" fill="#D24A43"/>
<path d="M538.711 261.753H513.628C512.861 261.753 512.861 262.958 513.628 262.958H538.711C539.532 262.958 539.532 261.753 538.711 261.753Z" fill="#D24A43"/>
<path d="M538.711 269.694H513.628C512.861 269.694 512.861 270.899 513.628 270.899H538.711C539.532 270.953 539.532 269.694 538.711 269.694Z" fill="#D24A43"/>
<path d="M503.826 251.566C503.497 251.566 503.224 251.293 503.224 250.964V239.956C503.224 239.627 503.497 239.354 503.826 239.354H514.834C515.163 239.354 515.436 239.627 515.436 239.956C515.436 240.285 515.163 240.558 514.834 240.558H504.428V250.964C504.428 251.293 504.155 251.566 503.826 251.566Z" fill="#BEBEBE"/>
<path d="M514.834 299.871H503.826C503.497 299.871 503.224 299.597 503.224 299.268V288.26C503.224 287.932 503.497 287.658 503.826 287.658C504.155 287.658 504.428 287.932 504.428 288.26V298.666H514.834C515.163 298.666 515.436 298.94 515.436 299.268C515.436 299.597 515.217 299.871 514.834 299.871Z" fill="#BEBEBE"/>
<path d="M549.721 299.871H538.713C538.384 299.871 538.11 299.597 538.11 299.268C538.11 298.94 538.384 298.666 538.713 298.666H549.118V288.26C549.118 287.932 549.392 287.658 549.721 287.658C550.049 287.658 550.323 287.932 550.323 288.26V299.268C550.323 299.597 550.104 299.871 549.721 299.871Z" fill="#BEBEBE"/>
<path d="M549.721 251.566C549.392 251.566 549.118 251.293 549.118 250.964V240.558H538.713C538.384 240.558 538.11 240.285 538.11 239.956C538.11 239.627 538.384 239.354 538.713 239.354H549.721C550.049 239.354 550.323 239.627 550.323 239.956V250.964C550.323 251.293 550.104 251.566 549.721 251.566Z" fill="#BEBEBE"/>
<path d="M563.521 306.716H464.997C464.668 306.716 464.395 306.442 464.395 306.113V229.002C464.395 228.674 464.668 228.4 464.997 228.4H563.521C563.85 228.4 564.124 228.674 564.124 229.002V306.113C564.124 306.442 563.85 306.716 563.521 306.716ZM465.599 305.511H562.919V229.605H465.599V305.511Z" fill="#BEBEBE"/>
<path d="M232.735 122.701H159.294V182.67H232.735V122.701Z" fill="#EBD6C5"/>
<path d="M167.835 172.593C167.671 172.593 167.562 172.539 167.452 172.429C167.178 172.21 167.178 171.827 167.397 171.553L185.744 150.139C185.908 149.92 186.182 149.865 186.456 149.975L208.636 158.957L224.902 133.052C225.066 132.778 225.449 132.669 225.723 132.833C225.997 132.997 226.107 133.381 225.942 133.655L209.403 159.997C209.239 160.271 208.91 160.326 208.636 160.216L186.401 151.18L168.328 172.265C168.164 172.539 168 172.593 167.835 172.593Z" fill="white"/>
<path d="M245.6 109.224H225.392V129.433H245.6V109.224Z" fill="#FECA55"/>
<path d="M568.241 299.076H557.589V309.728H568.241V299.076Z" fill="#FECA55"/>
<path d="M183.5 150.577C183.39 149.098 184.704 147.893 186.183 147.893C187.662 147.893 188.867 149.098 188.867 150.577C188.867 152.055 187.662 153.26 186.183 153.26C184.704 153.26 183.664 152.384 183.5 150.577Z" fill="white"/>
<path d="M164.989 172.155C164.879 170.677 166.194 169.472 167.672 169.472C169.151 169.472 170.356 170.677 170.356 172.155C170.356 173.634 169.151 174.839 167.672 174.839C166.194 174.839 165.153 173.908 164.989 172.155Z" fill="white"/>
<path d="M222.711 133.435C222.602 131.957 223.916 130.752 225.395 130.752C226.874 130.752 228.079 131.957 228.079 133.435C228.079 134.914 226.874 136.119 225.395 136.119C223.916 136.119 222.821 135.243 222.711 133.435Z" fill="white"/>
<path opacity="0.3" d="M260.665 86.1177H222.712C221.945 86.1177 221.945 87.3225 222.712 87.3225H260.665C261.431 87.3225 261.431 86.1177 260.665 86.1177Z" fill="#E6DFD1"/>
<path opacity="0.3" d="M252.286 92.0327H222.712C221.945 92.0327 221.945 93.2376 222.712 93.2376H252.286C253.107 93.2376 253.107 92.0327 252.286 92.0327Z" fill="#E6DFD1"/>
<path d="M152.557 128.507V181.739C152.557 182.506 153.761 182.506 153.761 181.739V128.507C153.761 127.74 152.557 127.74 152.557 128.507Z" fill="#E6DFD1"/>
<path d="M231.306 124.34L241.11 114.536C241.657 113.989 240.781 113.113 240.233 113.66L230.43 123.463C229.883 124.011 230.759 124.887 231.306 124.34Z" fill="white"/>
<path d="M230.43 114.536L240.233 124.34C240.781 124.887 241.657 124.011 241.11 123.463L231.306 113.66C230.759 113.113 229.883 113.989 230.43 114.536Z" fill="white"/>
<path d="M174.243 127.904H164.44C163.674 127.904 163.674 129.109 164.44 129.109H174.243C175.065 129.164 175.065 127.904 174.243 127.904Z" fill="white"/>
<path d="M174.243 131.902H164.44C163.674 131.902 163.674 133.107 164.44 133.107H174.243C175.065 133.107 175.065 131.902 174.243 131.902Z" fill="white"/>
<path d="M218.26 211.148H88.793V303.539H218.26V211.148Z" fill="#FBF8F4"/>
<path d="M162.149 226.185H105.144V283.19H162.149V226.185Z" fill="white"/>
<path d="M154.677 274.951C140.931 261.15 127.185 247.349 113.438 233.547C112.891 233 112.014 233.876 112.562 234.424C126.308 248.225 140.055 262.026 153.801 275.827C154.403 276.375 155.28 275.553 154.677 274.951Z" fill="#39B54A"/>
<path d="M113.384 275.772C127.185 262.026 140.986 248.28 154.787 234.534C155.335 233.986 154.458 233.11 153.911 233.657C140.11 247.404 126.308 261.15 112.507 274.896C111.96 275.444 112.836 276.32 113.384 275.772Z" fill="#39B54A"/>
<path d="M202.268 250.361H176.583C175.816 250.361 175.816 252.852 176.583 252.852H202.268C203.035 252.852 203.035 250.361 202.268 250.361Z" fill="white"/>
<path d="M202.268 265.53H176.583C175.816 265.53 175.816 268.021 176.583 268.021H202.268C203.035 268.021 203.035 265.53 202.268 265.53Z" fill="white"/>
<path d="M202.268 280.7H176.583C175.816 280.7 175.816 283.19 176.583 283.19H202.268C203.035 283.19 203.035 280.7 202.268 280.7Z" fill="white"/>
<path d="M78.8804 272.541C78.7161 272.541 78.5518 272.486 78.4422 272.377L63.7649 256.878C63.5458 256.659 63.5458 256.276 63.7649 256.057L78.4422 239.353C78.6613 239.079 79.0447 239.079 79.3185 239.298C79.5923 239.517 79.5923 239.901 79.3733 240.174L65.0793 256.495L79.3733 271.61C79.5923 271.829 79.5923 272.267 79.3733 272.486C79.209 272.486 79.0447 272.541 78.8804 272.541Z" fill="#E6DFD1"/>
<path d="M200.461 233.493H175.98V240.229H200.461V233.493Z" fill="white"/>
<path d="M198.778 397.114C180.321 397.114 168.711 385.504 166.958 365.35C166.301 357.627 168.93 350.125 174.407 344.155C180.54 337.474 189.632 333.476 198.778 333.476C216.358 333.476 230.597 347.77 230.597 365.295C230.652 382.82 216.358 397.114 198.778 397.114ZM168.163 365.24C169.861 384.737 181.033 395.909 198.778 395.909C215.646 395.909 229.392 382.163 229.392 365.295C229.392 348.427 215.646 334.68 198.778 334.68C189.96 334.68 181.198 338.514 175.338 344.976C170.08 350.672 167.561 357.901 168.163 365.24Z" fill="#E6DFD1"/>
<path d="M519.077 150.114C509.041 150.114 502.728 143.801 501.776 132.843C501.418 128.644 502.848 124.565 505.825 121.319C509.161 117.686 514.104 115.512 519.077 115.512C528.635 115.512 536.378 123.284 536.378 132.813C536.408 142.342 528.635 150.114 519.077 150.114ZM502.431 132.784C503.354 143.385 509.429 149.459 519.077 149.459C528.248 149.459 535.723 141.985 535.723 132.813C535.723 123.642 528.248 116.167 519.077 116.167C514.282 116.167 509.518 118.252 506.332 121.766C503.473 124.863 502.103 128.793 502.431 132.784Z" fill="#E6DFD1"/>
<path d="M568.231 381.637C566.205 386.457 564.124 391.331 562.097 396.151C561.824 396.862 562.755 397.465 563.138 396.753C563.467 396.15 563.85 395.548 564.179 394.946C564.343 394.727 564.288 394.507 564.179 394.343C565.876 390.29 567.629 386.293 569.327 382.24C569.6 381.528 568.505 380.871 568.231 381.637Z" fill="#DEE7FF"/>
<path d="M95.3253 325.612C95.5992 334.319 83.0029 331.526 77.8549 332.293C73.8022 332.896 69.5852 335.962 70.1876 340.508C70.2972 341.275 71.502 341.275 71.3925 340.508C70.7901 335.798 75.719 333.553 79.6622 333.388C82.8386 333.224 86.0698 333.827 89.1915 333.224C92.9704 332.512 96.6397 329.774 96.5302 325.612C96.5302 324.845 95.3253 324.845 95.3253 325.612Z" fill="#E6DFD1"/>
<path d="M97.1876 332.348C97.4615 341.055 84.8652 338.262 79.7172 339.029C75.6645 339.631 71.4475 342.698 72.0499 347.244C72.1595 348.011 73.3643 348.011 73.2548 347.244C72.6524 342.534 77.5813 340.289 81.5245 340.124C84.7009 339.96 87.9321 340.562 91.0538 339.96C94.8327 339.248 98.502 336.51 98.3925 332.348C98.3925 331.581 97.1329 331.581 97.1876 332.348Z" fill="#E6DFD1"/>
<path d="M560.893 193.952C557.881 197.074 554.869 200.141 551.857 203.263C551.309 203.81 552.186 204.687 552.733 204.139C555.745 201.017 558.758 197.95 561.77 194.829C562.317 194.226 561.441 193.35 560.893 193.952Z" fill="#E6DFD1"/>
<path d="M556.567 189.627C554.705 192.037 552.788 194.446 550.926 196.911C550.433 197.513 551.2 198.335 551.802 197.787C552.131 197.459 552.405 197.185 552.733 196.856C552.898 196.692 552.953 196.528 552.898 196.363C554.431 194.446 555.91 192.475 557.443 190.558C557.936 189.901 557.06 189.025 556.567 189.627Z" fill="#E6DFD1"/>
<path d="M114.596 148.586C110.982 143.931 107.367 139.331 103.752 134.676C103.259 134.073 102.383 134.949 102.876 135.552C106.491 140.207 110.105 144.807 113.72 149.463C114.213 150.065 115.089 149.189 114.596 148.586Z" fill="#E6DFD1"/>
<path d="M119.361 144.971C116.294 140.7 113.227 136.428 110.161 132.101C109.722 131.444 108.627 132.101 109.12 132.704C112.187 136.975 115.254 141.247 118.321 145.574C118.759 146.231 119.799 145.629 119.361 144.971Z" fill="#E6DFD1"/>
<path d="M134.154 197.787C132.019 196.253 129.883 194.72 127.747 193.187C127.09 192.748 126.487 193.789 127.144 194.227C129.28 195.761 131.416 197.294 133.552 198.827C134.154 199.32 134.757 198.28 134.154 197.787Z" fill="#E6DFD1"/>
<path d="M534.441 85.1331C533.181 87.0499 531.867 88.9667 530.607 90.8288C530.224 91.4312 531.1 92.0884 531.593 91.5955C531.921 91.2122 532.305 90.8288 532.633 90.4454C532.798 90.2264 532.852 90.0073 532.743 89.843C533.674 88.4739 534.55 87.1047 535.481 85.7355C535.974 85.0783 534.879 84.4759 534.441 85.1331Z" fill="#E6DFD1"/>
<path d="M319.266 116.394C317.842 114.531 316.418 112.724 314.995 110.862C314.502 110.26 313.625 111.136 314.118 111.738C315.542 113.6 316.966 115.408 318.39 117.27C318.883 117.872 319.704 116.996 319.266 116.394Z" fill="#E6DFD1"/>
<path d="M324.25 115.901C322.607 113.656 320.964 111.41 319.375 109.165C318.937 108.508 317.842 109.165 318.335 109.767C319.978 112.013 321.621 114.258 323.209 116.503C323.647 117.161 324.688 116.558 324.25 115.901Z" fill="#E6DFD1"/>
<path d="M439.914 49.4799C439.805 48.7131 438.6 49.0417 438.709 49.8084L440.462 62.0761C440.571 62.8428 441.776 62.5142 441.667 61.7475C441.064 57.64 440.516 53.5326 439.914 49.4799Z" fill="#E6DFD1"/>
<path d="M445.062 50.0277C444.898 49.261 443.747 49.5896 443.857 50.3563C444.459 53.6423 445.007 56.8735 445.609 60.1595C445.774 60.9262 446.924 60.5976 446.814 59.8309C446.212 56.5449 445.664 53.3137 445.062 50.0277Z" fill="#E6DFD1"/>
<path d="M204.113 88.8903C201.21 94.3122 194.365 85.6591 190.695 85.4948C188.121 85.3853 185.657 87.2473 186.095 89.9309C186.204 90.6976 187.409 90.369 187.3 89.6023C186.916 87.2473 189.819 86.4258 191.571 86.8092C192.667 87.083 193.762 87.9045 194.693 88.5617C196.117 89.6023 197.486 90.8619 199.239 91.3548C201.539 92.012 204.003 91.6286 205.208 89.438C205.537 88.8356 204.496 88.1784 204.113 88.8903Z" fill="#E6DFD1"/>
<path d="M542.472 345.838C539.57 351.259 532.724 342.606 529.055 342.442C526.481 342.333 524.016 344.195 524.454 346.878C524.564 347.645 525.769 347.316 525.659 346.55C525.276 344.195 528.178 343.373 529.931 343.756C531.026 344.03 532.121 344.852 533.052 345.509C534.476 346.55 535.846 347.809 537.598 348.302C539.898 348.959 542.363 348.576 543.568 346.385C543.896 345.783 542.856 345.126 542.472 345.838Z" fill="#E6DFD1"/>
<path d="M204.389 95.4084C201.487 100.83 194.641 92.1772 190.972 92.0129C188.398 91.9034 185.933 93.7654 186.371 96.449C186.481 97.2157 187.686 96.8871 187.576 96.1204C187.193 93.7654 190.095 92.9439 191.848 93.3273C192.943 93.6011 194.038 94.4226 194.969 95.0798C196.393 96.1204 197.763 97.38 199.515 97.8729C201.815 98.5301 204.28 98.1467 205.485 95.9561C205.813 95.2989 204.773 94.6964 204.389 95.4084Z" fill="#E6DFD1"/>
<path d="M542.749 352.356C539.846 357.778 533 349.124 529.331 348.96C526.757 348.851 524.292 350.713 524.731 353.396C524.84 354.163 526.045 353.834 525.935 353.068C525.552 350.713 528.455 349.891 530.207 350.275C531.303 350.548 532.398 351.37 533.329 352.027C534.753 353.068 536.122 354.327 537.874 354.82C540.175 355.477 542.639 355.094 543.844 352.903C544.173 352.246 543.132 351.644 542.749 352.356Z" fill="#E6DFD1"/>
<path d="M147.76 112.549C146.939 111.125 146.117 109.701 145.296 108.277C144.912 107.62 143.872 108.222 144.255 108.88C145.077 110.304 145.898 111.727 146.72 113.151C147.103 113.863 148.144 113.261 147.76 112.549Z" fill="#E6DFD1"/>
<path d="M300.038 238.696L230.868 235.027L262.687 408.252C250.639 415.262 232.62 440.674 218.107 463.566C230.43 473.588 243.848 482.242 255.458 493.03C270.026 475.177 289.249 444.508 304.309 422.985C329.995 386.182 318.987 313.343 300.038 238.696Z" fill="#0EA36C"/>
<path d="M219.859 440.072C219.421 441.824 219.586 469.098 222.16 498.781C233.934 497.467 245.709 496.481 257.484 495.112C257.812 482.735 260.77 463.129 263.946 430.269C270.682 361.099 274.352 227.086 272.49 227.689C270.628 228.291 207.592 239.956 207.592 239.956C207.592 287.055 220.462 437.607 219.859 440.072Z" fill="#0EA36C"/>
<path d="M266.521 398.614C265.206 422.109 263.016 445.494 259.949 468.824C259.894 469.208 259.292 469.208 259.346 468.824C261.044 455.68 262.523 442.482 263.673 429.283C265.754 405.843 266.959 382.348 267.342 358.854C267.671 338.043 267.287 317.177 266.247 296.365C266.247 296.146 266.247 295.927 266.192 295.708C266.411 295.653 266.575 295.599 266.794 295.544C266.794 295.763 266.794 295.982 266.849 296.201C267.397 306.826 267.726 317.45 267.945 328.075C268.273 351.57 267.835 375.119 266.521 398.614Z" fill="black"/>
<path d="M281.691 291.984C276.762 293.353 271.779 294.777 266.85 296.146C266.631 296.201 266.466 296.256 266.247 296.31C266.247 296.091 266.247 295.872 266.192 295.653C266.411 295.598 266.576 295.544 266.795 295.489C271.724 294.12 276.598 292.751 281.527 291.327C281.91 291.327 282.075 291.874 281.691 291.984Z" fill="black"/>
<path d="M257.54 143.622C292.372 146.087 309.623 142.417 311.211 166.952C313.073 195.76 317.455 249.211 315.647 249.157C313.785 249.102 209.784 246.583 209.784 246.583L203.705 176.646L257.54 143.622Z" fill="#FA7355"/>
<path d="M267.234 161.476C266.03 163.448 264.77 165.419 263.565 167.391C258.362 159.724 253.214 152.002 248.012 144.334C247.792 144.006 247.245 144.334 247.464 144.663C252.721 152.495 257.979 160.326 263.291 168.158C263.401 168.322 263.675 168.377 263.839 168.158L267.782 161.86C267.946 161.476 267.454 161.148 267.234 161.476Z" fill="black"/>
<path d="M275.503 149.264C274.791 154.576 274.025 159.888 273.313 165.201C271.998 163.832 270.684 162.408 269.37 161.038C269.096 160.765 268.658 161.203 268.931 161.477L273.313 166.132C273.477 166.296 273.806 166.241 273.806 166.022L276.106 149.483C276.161 149.045 275.558 148.88 275.503 149.264Z" fill="black"/>
<path d="M268 163.612C267.288 184.368 266.631 205.125 265.919 225.826C265.7 231.796 265.535 237.765 265.316 243.735C265.316 244.118 265.919 244.118 265.919 243.735C266.631 222.978 267.288 202.222 268 181.52C268.219 175.551 268.383 169.581 268.602 163.612C268.602 163.228 268 163.228 268 163.612Z" fill="black"/>
<path d="M224.571 291.052C227.09 285.411 229.664 279.825 232.184 274.184L214.987 221.718L257.595 143.622C208.141 140.007 203.322 137.378 185.961 177.796C168.6 218.213 161.426 216.68 190.561 261.917C201.953 279.661 221.176 301.677 219.916 300.527C221.285 297.35 222.873 294.174 224.571 291.052Z" fill="#FFA79B"/>
<path d="M195.491 248.992C203.213 243.844 211.263 239.299 219.095 234.37L225.757 223.261L247.998 187.368L257.541 143.622C208.087 140.008 203.267 137.379 185.906 177.796C169.422 216.187 162.138 216.735 186.399 255.51C189.411 253.264 192.424 251.073 195.491 248.992Z" fill="#FA7355"/>
<path d="M215.033 226.063L179.975 249.2L186.37 258.89L221.428 235.753L215.033 226.063Z" fill="#FA7355"/>
<path d="M215.863 230.59C214.603 227.797 213.398 225.004 212.139 222.21C212.029 221.937 211.865 221.608 211.755 221.334C210.331 218.213 208.962 215.036 207.538 211.914C207.374 211.586 207.922 211.257 208.086 211.586C209.4 214.543 210.715 217.501 212.029 220.403C212.139 220.677 212.303 221.006 212.412 221.279C213.727 224.292 215.096 227.249 216.41 230.206C216.52 230.644 216.027 230.973 215.863 230.59Z" fill="black"/>
<path d="M220.585 235.579C219.983 233.717 219.38 231.909 218.723 230.047C218.614 229.664 218.011 229.828 218.121 230.212C218.723 232.074 219.326 233.881 219.983 235.743C220.092 236.126 220.695 235.962 220.585 235.579Z" fill="black"/>
<path d="M224.515 179.713L212.357 221.335L212.084 222.211C211.974 221.937 211.81 221.609 211.7 221.335C211.81 221.061 211.864 220.732 211.974 220.459C215.972 206.822 219.915 193.185 223.913 179.548C224.023 179.22 224.625 179.384 224.515 179.713Z" fill="black"/>
<path d="M212.414 231.521C203.213 236.505 194.067 241.488 184.866 246.472C184.538 246.636 184.812 247.184 185.195 247.02C194.396 242.036 203.542 237.052 212.742 232.069C213.071 231.85 212.797 231.302 212.414 231.521Z" fill="black"/>
<path d="M262.469 128.944C262.085 129.656 254.309 137.378 248.832 143.184L268.165 159.066L279.775 137.926L262.469 128.944Z" fill="#FFA79B"/>
<path d="M261.318 109.722C265.918 102.438 286.948 104.3 287.66 112.789C288.153 119.142 289.523 136.722 286.565 140.172C280.705 147.072 270.573 143.567 266.083 137.05C261.537 130.423 256.772 116.951 261.318 109.722Z" fill="#FFA79B"/>
<path d="M270.246 123.742C267.891 120.401 267.563 115.691 267.398 111.693C267.344 109.831 267.289 107.805 267.398 105.833C264.715 106.545 262.524 107.805 261.319 109.667C256.719 116.896 261.538 130.424 266.084 136.995C270.575 143.513 280.707 147.018 286.567 140.117C288.045 138.365 288.429 132.943 288.429 127.192C281.857 128.342 274.354 129.657 270.246 123.742Z" fill="#322E28"/>
<path d="M273.422 111.967C279.282 113.227 285.854 111.693 287.332 111.31C292.754 107.312 289.852 100.685 279.336 103.478C271.669 102.438 261.976 103.095 259.402 109.886C253.815 117.499 259.128 119.47 260.661 125.002C262.742 124.344 263.071 121.387 265.535 120.839C269.095 119.963 270.519 118.868 273.422 111.967Z" fill="#322E28"/>
<path d="M281.089 124.947C281.746 125.057 282.458 125.221 283.116 125.057C283.882 124.893 284.704 124.071 284.156 123.25C283.937 122.921 284.43 122.538 284.649 122.866C285.142 123.633 284.978 124.619 284.211 125.166C283.28 125.878 282.075 125.714 280.98 125.55C280.596 125.495 280.706 124.893 281.089 124.947Z" fill="#322E28"/>
<path d="M277.693 119.032C277.803 119.58 277.967 120.127 278.077 120.675C278.186 121.223 277.31 121.332 277.2 120.785C277.091 120.237 276.927 119.689 276.817 119.142C276.708 118.539 277.584 118.484 277.693 119.032Z" fill="#322E28"/>
<path d="M286.895 118.156C287.004 118.703 287.169 119.251 287.278 119.799C287.388 120.346 286.511 120.456 286.402 119.908C286.292 119.361 286.128 118.813 286.018 118.265C285.854 117.663 286.73 117.553 286.895 118.156Z" fill="#322E28"/>
<path d="M275.831 115.855C276.434 115.745 277.036 115.636 277.639 115.526C278.405 115.362 278.57 116.621 277.803 116.731C277.201 116.84 276.598 116.95 275.996 117.059C275.229 117.224 275.065 115.964 275.831 115.855Z" fill="#322E28"/>
<path d="M284.924 114.98C285.527 114.871 286.129 114.761 286.732 114.651C287.498 114.487 287.663 115.747 286.896 115.856C286.293 115.966 285.691 116.075 285.089 116.185C284.322 116.349 284.158 115.144 284.924 114.98Z" fill="#322E28"/>
<path d="M275.778 131.3C276.216 132.559 277.257 133.49 278.516 133.874C278.9 133.983 278.79 134.586 278.407 134.476C276.928 134.038 275.723 132.998 275.175 131.519C275.066 131.19 275.614 130.971 275.778 131.3Z" fill="white"/>
<path d="M256.937 122.318C258.087 119.47 262.578 118.046 265.645 120.839C265.59 124.125 265.645 127.466 265.754 130.752C264.002 131.519 260.442 131.464 258.47 129.766C256.225 127.795 255.732 125.385 256.937 122.318Z" fill="#FFA79B"/>
<path d="M261.264 123.577C262.03 124.508 262.797 125.439 263.564 126.315C263.838 126.644 263.345 126.972 263.071 126.698C263.016 126.644 262.961 126.589 262.907 126.534L262.852 126.479C262.14 125.658 261.428 124.782 260.771 123.96C260.497 123.631 260.99 123.248 261.264 123.577Z" fill="#322E28"/>
<path d="M395.005 230.262L394.622 226.812L388.598 169.526L353.274 164.05L338.377 161.75L336.46 162.407L330.874 164.378L298.836 175.605L300.643 219.747L304.97 315.752L400.646 316.355C396.429 287.876 394.841 259.069 395.005 230.262Z" fill="#FECA55"/>
<path d="M317.84 266.901C321.126 259.507 323.262 251.731 324.85 243.79C317.292 246.692 309.68 249.376 302.067 252.114L303.656 287.986C309.516 281.852 314.335 274.842 317.84 266.901Z" fill="black"/>
<path d="M353.545 309.729H316.25L304.968 315.808C304.968 315.808 308.473 388.866 314.771 430.871C320.85 471.508 323.972 491.498 325.176 503.108C325.176 503.108 352.067 505.956 363.075 506.504C363.294 490.348 362.856 470.632 360.063 454.749L353.545 309.729Z" fill="#697CCC"/>
<path d="M400.973 309.729H348.507C357.762 360.661 374.083 447.411 374.083 447.411C373.152 456.831 378.793 483.557 383.941 505.134L422.441 501.246C422.441 501.246 420.634 480.051 419.374 463.293C416.91 430.488 408.476 363.18 400.973 309.729Z" fill="#697CCC"/>
<path d="M303.05 274.623L304.912 315.807L400.588 316.41C398.562 302.554 397.138 288.588 396.262 274.623H303.05Z" fill="#697CCC"/>
<path d="M354.585 336.016C354.64 336.399 353.983 336.399 353.983 336.016C352.997 326.103 352.066 316.136 351.08 306.223C351.08 306.004 351.025 305.84 351.025 305.621C351.244 305.566 351.409 305.566 351.628 305.511C351.628 305.73 351.683 305.895 351.683 306.114C352.668 316.081 353.599 326.049 354.585 336.016Z" fill="black"/>
<path d="M361.924 304.416L351.683 306.114L351.08 306.223C351.08 306.004 351.025 305.84 351.025 305.621C351.244 305.566 351.409 305.566 351.628 305.511C355.023 304.964 358.364 304.416 361.76 303.813C362.143 303.813 362.307 304.361 361.924 304.416Z" fill="black"/>
<path d="M416.362 307.59C408.969 304.469 400.042 302.388 400.042 302.388C400.042 302.388 399.111 212.407 394.51 182.121C389.91 151.781 370.578 162.186 338.375 161.803C338.375 161.803 351.409 182.833 352.669 182.395C353.874 182.011 379.45 314.436 379.45 314.436L419.758 314.82C419.758 311.095 418.334 308.467 416.362 307.59Z" fill="#FFA79B"/>
<path d="M397.962 226.429C396.812 226.538 395.716 226.648 394.566 226.757C383.722 227.853 372.879 229.112 362.09 230.481C357.325 204.303 353.163 182.232 352.615 182.397C352.287 182.506 350.918 180.863 349.22 178.454C345.824 173.689 340.895 165.912 339.088 162.955C338.924 162.681 338.759 162.462 338.65 162.243C338.431 161.914 338.321 161.75 338.321 161.75C343.579 161.805 348.508 161.586 353.108 161.312C376.493 159.833 390.623 156.711 394.457 182.068C396.045 192.145 397.195 208.739 397.962 226.429Z" fill="#FECA55"/>
<path d="M363.732 186.066C363.568 190.119 363.403 194.227 363.294 198.279C363.294 198.663 363.896 198.663 363.896 198.279C364.061 194.227 364.225 190.119 364.334 186.066C364.389 185.683 363.732 185.683 363.732 186.066Z" fill="black"/>
<path d="M399.823 270.515C399.823 270.132 399.221 270.132 399.221 270.515C399.275 278.182 399.33 285.795 399.385 293.462C399.385 293.845 399.987 293.845 399.987 293.462C399.933 285.795 399.878 278.182 399.823 270.515Z" fill="white"/>
<path d="M402.671 310.494C399.001 309.235 394.839 308.961 391.06 308.304C390.677 308.249 390.513 308.851 390.896 308.906C393.908 309.399 396.92 309.892 399.932 310.44C402.89 310.987 406.723 312.302 406.614 315.971C406.614 316.354 407.216 316.354 407.216 315.971C407.271 313.178 405.08 311.316 402.671 310.494Z" fill="black"/>
<path d="M417.677 314.602C416.307 312.904 414.172 312.247 412.2 311.37C409.681 310.275 407.107 309.18 404.588 308.139C404.204 307.975 403.93 308.523 404.259 308.687C406.614 309.673 408.969 310.713 411.324 311.699C413.35 312.575 415.76 313.287 417.184 315.04C417.512 315.314 417.95 314.876 417.677 314.602Z" fill="#D24A43"/>
<path d="M419.375 314.656C418.171 309.672 413.077 307.92 408.696 306.66C408.313 306.551 408.148 307.153 408.532 307.263C412.694 308.467 417.623 310.111 418.773 314.82C418.882 315.204 419.43 315.039 419.375 314.656Z" fill="#D24A43"/>
<path d="M357.983 197.074C350.48 200.141 344.948 206.22 342.648 213.996C342.539 214.434 342.593 214.818 342.758 215.092C342.703 215.366 342.648 215.639 342.593 215.968C342.32 217.885 345.222 218.706 345.551 216.789C345.66 216.077 345.825 215.42 345.989 214.763C346.427 214.818 346.865 214.708 347.194 214.325C347.358 214.106 347.577 213.887 347.741 213.668C348.399 214.161 349.439 214.215 350.042 213.339C353.218 208.684 356.449 204.029 359.626 199.319C360.447 198.278 359.242 196.581 357.983 197.074Z" fill="#FFA79B"/>
<path d="M387.393 190.337H355.136V220.13H387.393V190.337Z" fill="#E6DFD1"/>
<path d="M381.476 214.928L363.075 196.526C362.527 195.979 361.651 196.855 362.199 197.403L380.545 215.749C381.148 216.352 382.024 215.476 381.476 214.928Z" fill="black"/>
<path d="M363.075 215.749L381.422 197.403C381.97 196.855 381.094 195.979 380.546 196.526L362.254 214.928C361.652 215.476 362.528 216.352 363.075 215.749Z" fill="black"/>
<path d="M372.879 204.741C374.084 201.674 372.003 201.236 369.21 201.236C367.019 201.291 350.863 205.343 347.029 210.217L311.869 223.361L311.212 215.585L313.512 185.846L340.019 162.188C296.371 165.473 282.077 164.652 278.024 182.999C273.971 201.345 268.44 271.939 288.429 275.608C307.488 279.113 338.321 249.813 349.439 236.45C355.792 233.822 373.591 222.868 370.469 218.213C372.55 215.639 373.153 213.942 372.441 210.71C374.248 209.889 373.646 205.124 372.879 204.741Z" fill="#FFA79B"/>
<path d="M340.02 162.188L339.144 162.954L332.189 169.198L313.514 185.846L312.144 217.72C308.311 218.487 304.477 219.144 300.644 219.802C291.881 221.225 283.009 222.376 274.137 223.142C274.465 206.439 276.382 190.447 278.025 182.999C281.804 166.021 294.291 165.419 330.601 162.845C332.518 162.735 334.489 162.571 336.515 162.407C337.227 162.352 337.994 162.297 338.761 162.242C339.144 162.242 339.582 162.242 340.02 162.188Z" fill="#FECA55"/>
<path d="M310.063 187.928C310.008 187.545 309.406 187.545 309.461 187.928C310.063 195.267 310.665 202.605 311.323 209.944C311.377 210.328 311.98 210.328 311.925 209.944C311.268 202.605 310.665 195.267 310.063 187.928Z" fill="black"/>
<path d="M309.953 223.581C308.584 224.238 307.215 224.95 305.846 225.607C305.517 225.771 305.791 226.319 306.174 226.155L310.282 224.128C310.61 223.909 310.337 223.416 309.953 223.581Z" fill="black"/>
<path d="M371.839 204.796C368.827 206.165 365.815 207.589 362.803 208.958C362.419 209.123 362.748 209.67 363.131 209.506C366.143 208.137 369.156 206.713 372.168 205.344C372.496 205.179 372.168 204.632 371.839 204.796Z" fill="black"/>
<path d="M371.565 210.546C369.484 211.97 367.348 213.394 365.267 214.763C364.938 214.982 365.267 215.53 365.596 215.311C367.677 213.887 369.813 212.463 371.894 211.094C372.222 210.875 371.894 210.327 371.565 210.546Z" fill="black"/>
<path d="M369.212 218.926C367.788 219.912 366.364 220.843 364.94 221.829C364.611 222.048 364.94 222.596 365.268 222.376C366.692 221.391 368.116 220.46 369.54 219.474C369.869 219.2 369.54 218.707 369.212 218.926Z" fill="black"/>
<path d="M353.822 205.453C353.548 205.727 353.329 205.946 353.055 206.22C352.782 206.494 353.22 206.932 353.494 206.658C353.767 206.384 353.986 206.165 354.26 205.891C354.534 205.563 354.096 205.125 353.822 205.453Z" fill="black"/>
<path d="M348.123 178.343L348.342 177.741L353.106 164.104L334.541 158.08C334.431 158.463 332.898 161.311 331.474 163.501C335.307 170.292 340.948 176.755 348.123 178.343Z" fill="#FFA79B"/>
<path d="M353.272 164.104C353.217 163.283 353.217 162.406 353.217 161.585C353.217 161.475 353.217 161.42 353.217 161.366C348.617 161.64 343.688 161.859 338.43 161.804L336.513 162.461C334.487 162.625 332.515 162.735 330.599 162.899C330.708 163.392 330.763 163.94 330.872 164.433C331.201 166.021 331.639 167.609 332.187 169.197C334.104 174.783 337.444 179.877 344.016 179.986C344.181 179.986 344.29 179.986 344.4 179.986C346.207 179.931 347.905 179.439 349.329 178.453C350.534 177.631 351.519 176.481 352.231 175.057C353.874 171.607 353.436 167.828 353.272 164.104Z" fill="#FFA79B"/>
<path d="M348.561 176.975L353.052 164.05L342.975 160.983C343.139 166.569 345.056 172.648 348.561 176.975Z" fill="#E64825"/>
<path d="M330.161 139.294C333.502 131.353 354.532 129.71 356.613 137.925C358.201 144.114 362.418 161.201 360.118 165.089C355.463 172.866 344.893 171.114 339.416 165.418C333.885 159.667 326.875 147.181 330.161 139.294Z" fill="#FFA79B"/>
<path d="M352.615 128.561L352.56 128.506C350.424 126.918 348.069 127.466 346.81 129.054C344.893 128.068 342.866 128.89 341.223 130.368C337.773 128.835 334.049 130.587 332.735 133.709C332.57 133.819 332.461 133.873 332.297 133.983C330.215 133.764 328.189 135.133 328.134 137.378C328.134 137.652 328.134 137.871 328.189 138.145C326.875 138.309 325.67 139.186 325.506 140.664C325.451 141.102 325.506 141.541 325.67 141.924C324.848 142.581 324.355 143.512 324.355 144.553C324.355 145.539 324.794 146.36 325.451 146.962C325.122 147.51 324.848 148.113 324.848 148.825C324.739 150.632 325.889 152.439 327.806 152.713C328.353 152.768 328.901 152.713 329.394 152.549C329.887 152.494 330.27 152.33 330.654 152.056C331.201 152.768 331.694 153.534 332.078 154.411C333.994 153.425 333.885 150.468 336.185 149.482C338.814 148.386 340.183 147.346 341.443 143.348C342.812 142.581 343.633 141.102 343.524 139.569C345.276 140.391 347.303 140.993 349.11 139.952C349.657 139.624 350.096 139.186 350.424 138.638C352.779 138.967 355.682 138.638 356.941 136.502C357.27 135.954 357.379 135.407 357.379 134.804C359.132 131.518 357.325 128.342 352.615 128.561Z" fill="#E64825"/>
<path d="M353.764 152.932C354.422 152.932 355.188 152.932 355.791 152.658C356.503 152.329 357.16 151.398 356.503 150.686C356.229 150.413 356.667 149.92 356.941 150.248C357.543 150.905 357.543 151.946 356.941 152.603C356.174 153.479 354.915 153.534 353.819 153.534C353.381 153.534 353.381 152.932 353.764 152.932Z" fill="#E64825"/>
<path d="M347.903 145.758C348.122 146.306 348.341 146.799 348.56 147.346C348.78 147.894 347.903 148.113 347.684 147.62C347.465 147.072 347.246 146.58 347.027 146.032C346.808 145.429 347.684 145.21 347.903 145.758Z" fill="#E64825"/>
<path d="M356.774 143.347C356.993 143.895 357.213 144.388 357.432 144.936C357.651 145.483 356.774 145.702 356.555 145.209C356.336 144.662 356.117 144.169 355.898 143.621C355.679 143.074 356.555 142.8 356.774 143.347Z" fill="#E64825"/>
<path d="M345.549 142.91C346.151 142.691 346.699 142.472 347.301 142.253C348.068 141.979 348.397 143.129 347.685 143.403C347.082 143.622 346.535 143.841 345.932 144.06C345.165 144.334 344.782 143.184 345.549 142.91Z" fill="#E64825"/>
<path d="M354.312 140.554C354.914 140.335 355.462 140.116 356.064 139.897C356.831 139.623 357.16 140.774 356.448 141.047C355.845 141.266 355.298 141.486 354.695 141.705C353.929 141.978 353.6 140.828 354.312 140.554Z" fill="#E64825"/>
<path d="M348.014 158.19C348.671 159.34 349.821 160.106 351.135 160.271C351.519 160.325 351.519 160.928 351.135 160.873C349.602 160.709 348.233 159.887 347.466 158.518C347.302 158.135 347.849 157.861 348.014 158.19Z" fill="#E64825"/>
<path d="M327.97 152.439C328.628 149.482 332.79 147.291 336.35 149.482C336.842 152.768 337.5 155.999 338.157 159.23C336.569 160.271 333.064 160.818 330.818 159.449C328.135 157.971 327.258 155.67 327.97 152.439Z" fill="#FFA79B"/>
<path d="M332.405 152.932C333.336 153.699 334.212 154.466 335.143 155.287C335.472 155.561 335.034 155.944 334.705 155.725C334.65 155.671 334.596 155.616 334.486 155.561L334.431 155.506C333.61 154.794 332.788 154.082 331.912 153.37C331.693 153.151 332.076 152.713 332.405 152.932Z" fill="#E64825"/>
<path opacity="0.3" d="M361.095 76.7397H303.05V79.2815H361.095V76.7397Z" fill="#D24A43"/>
<path opacity="0.23" d="M353.219 84.1538H303.05V86.3938H353.219V84.1538Z" fill="#39B54A"/>
<path opacity="0.23" d="M353.22 92.001H303.051V94.2409H353.22V92.001Z" fill="#39B54A"/>
<path d="M422.622 79.8744C422.457 78.0124 424.1 76.5337 425.962 76.5337C427.824 76.5337 429.303 78.0124 429.303 79.8744C429.303 81.7365 427.824 83.2152 425.962 83.2152C424.155 83.2699 422.841 82.1198 422.622 79.8744Z" fill="#D8D8D8"/>
<path d="M381.547 93.9491C381.383 92.0871 383.026 90.6084 384.888 90.6084C386.75 90.6084 388.229 92.0871 388.229 93.9491C388.229 95.8112 386.75 97.2899 384.888 97.2899C383.026 97.2899 381.712 96.1946 381.547 93.9491Z" fill="#D8D8D8"/>
<path d="M453.017 94.1684C452.853 92.3063 454.496 90.8276 456.358 90.8276C458.22 90.8276 459.699 92.3063 459.699 94.1684C459.699 96.0304 458.22 97.5091 456.358 97.5091C454.496 97.5091 453.236 96.4138 453.017 94.1684Z" fill="#D8D8D8"/>
<path d="M501.597 55.394C501.433 53.5319 503.076 52.0532 504.938 52.0532C506.8 52.0532 508.279 53.5319 508.279 55.394C508.279 57.256 506.8 58.7347 504.938 58.7347C503.076 58.7895 501.762 57.6394 501.597 55.394Z" fill="#D8D8D8"/>
<path d="M523.831 69.0854C523.666 67.2233 525.309 65.7446 527.171 65.7446C529.034 65.7446 530.512 67.2233 530.512 69.0854C530.512 70.9474 529.034 72.4261 527.171 72.4261C525.309 72.4261 523.995 71.3308 523.831 69.0854Z" fill="#D8D8D8"/>
<path d="M456.577 95.209C456.467 95.209 456.412 95.209 456.303 95.1542L425.908 80.5864L385.435 94.6065C385.107 94.7161 384.778 94.5518 384.669 94.2232C384.559 93.8946 384.723 93.566 385.052 93.4565L425.743 79.3815C425.908 79.3268 426.072 79.3268 426.181 79.3815L456.412 93.8946L504.442 54.9558C504.661 54.7915 504.935 54.7915 505.154 54.901L527.17 68.976C527.444 69.1403 527.554 69.5236 527.335 69.7975C527.17 70.0713 526.787 70.1808 526.513 69.9618L504.826 56.1059L456.796 94.9899C456.85 95.1542 456.741 95.209 456.577 95.209Z" fill="#D8D8D8"/>
<path d="M360.009 315.205H280.434L263.292 264.108C262.909 262.958 263.785 261.753 264.99 261.753H337.062C340.075 261.753 342.703 263.67 343.689 266.518L360.009 315.205Z" fill="#322E28"/>
<path d="M385.038 313.343H354.04C353.273 313.343 353.273 314.548 354.04 314.548H385.038C385.804 314.603 385.804 313.343 385.038 313.343Z" fill="black"/>
<path d="M351.027 303.156C347.03 291.491 342.977 279.771 338.979 268.106C338.76 267.449 337.719 267.722 337.938 268.38C341.936 280.045 345.989 291.765 349.987 303.43C350.151 304.087 351.247 303.813 351.027 303.156Z" fill="white"/>
<path d="M304.203 279.607C302.888 282.016 301.574 284.426 300.26 286.836C299.931 287.438 300.862 287.986 301.191 287.383C302.505 284.974 303.819 282.564 305.134 280.154C305.462 279.552 304.531 279.004 304.203 279.607Z" fill="white"/>
<path d="M304.751 284.973C303.82 286.781 302.944 288.643 302.013 290.45C301.684 291.052 302.67 291.655 302.944 290.998C303.875 289.19 304.751 287.328 305.682 285.521C306.011 284.864 305.079 284.316 304.751 284.973Z" fill="white"/>
<path d="M556.072 314.603H174.187C171.832 314.603 171.832 318.272 174.187 318.272H556.072C558.427 318.272 558.427 314.603 556.072 314.603Z" fill="#BEBEBE"/>
<path d="M411.049 172.923C396.371 205.071 388.102 306.005 388.102 306.005L411.049 310.605L434.927 183.931L411.049 172.923Z" fill="#39B54A"/>
<path d="M392.264 265.917C389.525 288.59 388.102 306.06 388.102 306.06L411.049 310.66L417.894 274.35C409.625 270.955 400.917 268.436 392.264 265.917Z" fill="#FFA79B"/>
<path d="M445.992 301.131C445.389 366.631 448.456 534.927 448.456 534.927H422.771C422.771 534.927 388.487 369.095 404.095 268.709C416.911 186.231 443.582 258.906 443.582 258.906L445.992 301.131Z" fill="#FFA79B"/>
<path d="M449.989 465.155C449.167 410.937 445.662 339.029 445.991 301.131L443.526 258.906C443.526 258.906 416.855 186.231 404.04 268.709C395.003 326.98 402.726 407.267 410.831 464.389C422.989 465.046 437.831 465.265 449.989 465.155Z" fill="#FECA55"/>
<path d="M493.746 273.582C490.076 302.334 509.026 426.599 509.026 426.599C509.026 426.599 526.167 467.618 531.042 534.926H476.001C476.001 534.926 474.139 522.056 487.612 518.989C501.084 515.922 503.549 511.048 482.081 458.418C460.612 405.787 429.45 253.373 429.45 253.373L493.746 273.582Z" fill="#FFA79B"/>
<path d="M478.139 468.823L519.05 458.692C513.847 437.99 509.027 426.599 509.027 426.599C509.027 426.599 490.078 302.334 493.748 273.582L429.507 253.373C429.507 253.373 453.111 407.157 474.525 459.787C475.784 462.963 476.989 465.976 478.139 468.823Z" fill="#FECA55"/>
<path d="M446.32 342.15C446.375 342.533 445.772 342.533 445.717 342.15C444.293 330.813 442.869 319.477 441.391 308.14C441.336 307.921 441.336 307.702 441.281 307.483C441.5 307.538 441.719 307.592 441.938 307.647C441.993 307.866 441.993 308.085 442.048 308.304C443.472 319.586 444.896 330.868 446.32 342.15Z" fill="black"/>
<path d="M442.047 308.304C441.828 308.249 441.609 308.194 441.39 308.14C438.706 307.482 436.078 306.77 433.394 306.113C433.011 306.004 433.175 305.401 433.558 305.511C436.132 306.168 438.706 306.825 441.28 307.482C441.499 307.537 441.718 307.592 441.937 307.647C441.992 307.921 442.047 308.085 442.047 308.304Z" fill="black"/>
<path d="M493.747 273.582L404.095 268.708C404.095 268.708 398.728 227.579 407.436 187.928C413.296 161.312 424.359 159.943 449.551 163.448C453.33 163.995 457.437 164.598 461.928 165.31C466.802 166.076 471.129 166.788 475.072 167.5C519.433 175.88 505.522 187.545 493.747 273.582Z" fill="#39B54A"/>
<path d="M406.723 241.708C406.066 249.485 405.408 257.207 404.751 264.984C404.697 265.367 405.354 265.367 405.354 264.984C406.011 257.207 406.668 249.485 407.325 241.708C407.38 241.325 406.778 241.325 406.723 241.708Z" fill="black"/>
<path d="M478.083 179.385C452.397 194.062 439.527 208.74 439.527 208.74C439.692 208.904 422.44 136.503 416.142 132.889C412.144 130.643 400.205 129.493 400.096 129.603C400.096 129.603 393.962 118.102 393.524 118.047C392.976 117.061 391.114 116.897 390.621 118.321C389.416 121.716 394.017 132.724 395.276 134.915C391.662 141.98 393.14 150.688 399.603 156.055C400.753 182.671 404.86 238.314 419.373 250.088C438.651 265.697 492.815 215.202 492.815 215.202L478.083 179.385Z" fill="#39B54A"/>
<path d="M399.548 156C399.877 163.941 400.479 174.456 401.574 185.628C412.418 185.902 423.098 182.726 431.093 175.168C425.836 155.726 419.483 134.751 416.142 132.889C412.144 130.643 400.205 129.493 400.096 129.603C400.096 129.603 393.962 118.102 393.524 118.047C392.976 117.061 391.114 116.897 390.621 118.321C389.416 121.716 394.017 132.724 395.276 134.915C391.607 141.98 393.086 150.688 399.548 156Z" fill="#FFA79B"/>
<path d="M442.265 208.686C441.444 206.386 440.622 204.086 439.801 201.731C439.746 201.567 439.691 201.347 439.582 201.183C436.898 193.625 434.16 186.068 431.476 178.51C431.367 178.127 431.914 177.962 432.079 178.346C434.762 185.903 437.446 193.406 440.184 200.964C440.239 201.128 440.294 201.347 440.403 201.512C441.225 203.812 442.046 206.167 442.922 208.522C443.032 208.905 442.429 209.069 442.265 208.686Z" fill="black"/>
<path d="M467.458 191.379L440.403 201.566L439.856 201.785C439.801 201.62 439.746 201.401 439.637 201.237L440.184 201.018L467.294 190.831C467.622 190.667 467.787 191.27 467.458 191.379Z" fill="black"/>
<path d="M402.449 150.195C402.12 148.826 401.518 147.566 400.696 146.416C400.313 145.923 399.875 145.43 399.437 144.992C398.944 144.554 398.177 144.17 397.739 143.678C397.246 143.13 397.739 142.199 397.848 141.432C397.958 140.72 398.013 140.008 398.013 139.296C398.013 138.091 397.794 136.886 397.465 135.682C397.246 135.682 397.027 135.682 396.808 135.736C397.575 138.31 397.52 140.939 396.644 143.513C396.589 143.623 396.644 143.787 396.808 143.842C399.382 145.211 401.134 147.511 401.846 150.304C401.956 150.742 402.558 150.578 402.449 150.195Z" fill="black"/>
<path d="M403.328 141.378C397.907 140.94 399.221 134.751 400.481 131.301C400.59 130.918 400.042 130.753 399.878 131.137C399.002 133.492 398.126 136.011 398.947 138.53C399.604 140.556 401.247 141.816 403.328 141.98C403.712 142.035 403.712 141.378 403.328 141.378Z" fill="black"/>
<path d="M407.928 142.254C405.408 142.2 404.258 139.845 404.313 137.654C404.368 136.011 405.025 134.368 405.682 132.889C405.847 132.506 405.244 132.342 405.08 132.725C404.204 134.916 403.218 137.38 403.93 139.79C404.477 141.597 406.011 142.912 407.928 142.912C408.366 142.857 408.366 142.254 407.928 142.254Z" fill="black"/>
<path d="M414.882 143.185C412.582 144.445 410.391 142.583 409.789 140.392C409.241 138.475 409.734 136.449 410.117 134.587C410.227 134.204 409.624 134.039 409.515 134.423C408.967 136.997 408.365 139.899 409.898 142.254C411.048 144.007 413.294 144.774 415.156 143.733C415.539 143.514 415.21 143.021 414.882 143.185Z" fill="black"/>
<path d="M415.103 137.654C415.158 137.271 414.555 137.106 414.5 137.49C414.391 138.147 414.281 138.804 414.172 139.461C414.117 139.845 414.665 140.009 414.774 139.626L414.884 139.023C414.884 138.968 414.884 138.968 414.884 138.914C414.939 138.475 414.993 138.092 415.103 137.654Z" fill="black"/>
<path d="M428.794 253.703C427.753 253.703 426.822 253.594 426.001 253.375C412.802 249.486 409.462 232.016 406.778 217.996C406.121 214.436 405.464 211.095 404.697 208.193C404.642 208.028 404.752 207.864 404.916 207.809C405.08 207.754 405.245 207.864 405.299 208.028C406.066 210.931 406.723 214.272 407.38 217.886C410.064 231.797 413.35 249.048 426.22 252.827C437.776 256.223 472.826 233.275 487.777 223.472C487.942 223.363 488.106 223.418 488.215 223.582C488.325 223.746 488.27 223.91 488.106 224.02C474.086 233.111 442.595 253.703 428.794 253.703Z" fill="black"/>
<path d="M461.927 165.255C457.491 164.543 453.329 163.941 449.55 163.393C449.276 163.831 449.057 164.269 448.947 164.817C448.838 165.365 448.838 165.912 448.947 166.35C448.674 170.622 451.96 175.058 456.505 176.318C463.844 178.344 471.292 173.634 475.016 167.391C471.128 166.734 466.746 166.022 461.927 165.255Z" fill="#FFA79B"/>
<path d="M451.685 119.416C451.52 119.525 451.301 119.635 451.137 119.799H451.082C445.66 119.197 443.47 126.152 447.851 129.109C448.563 129.602 449.658 128.616 449.111 127.85L449.056 127.795C449.22 127.631 449.33 127.412 449.33 127.193C449.275 125.276 449.932 123.578 451.192 122.264C451.356 122.209 451.52 122.154 451.685 122.154C451.904 122.099 452.068 121.99 452.178 121.825C452.506 121.771 452.78 121.606 452.89 121.168C452.944 120.949 452.999 120.785 453.054 120.566C453.218 119.69 452.342 118.978 451.685 119.416Z" fill="#322E28"/>
<path d="M454.205 172.266L454.698 174.402C462.803 172.704 470.58 168.98 477.152 163.942C472.88 155.836 468.28 146.964 468.115 146.033L449.002 150.086L452.288 164.161L454.205 172.266Z" fill="#FFA79B"/>
<path d="M452.124 163.338L449.002 150.03L459.353 148.059C458.641 153.535 456.067 159.34 452.124 163.338Z" fill="#322E28"/>
<path d="M474.413 127.741C471.948 119.471 451.192 115.637 448.235 123.579C446.044 129.548 440.02 146.142 441.937 150.25C445.715 158.519 456.45 157.807 462.529 152.769C468.608 147.676 476.877 135.956 474.413 127.741Z" fill="#FFA79B"/>
<path d="M496.374 164.16C495.662 162.627 494.129 161.696 492.595 161.805C493.362 158.355 492.157 154.576 488.926 152.604C485.749 150.688 481.806 151.454 479.177 153.809C478.192 148.442 476.11 143.458 472.825 139.132C474.577 135.243 475.453 131.191 474.413 127.74C472.003 119.799 445.168 114.049 448.673 122.757C451.356 127.905 457.38 128.726 462.528 129.548C462.583 135.955 466.526 139.899 468.827 143.239C468.005 146.635 467.786 150.085 468.169 153.426C466.91 155.781 467.074 158.629 468.608 160.819C467.786 162.572 467.95 164.598 468.881 166.132C468.717 168.979 469.703 171.937 472.003 173.908C474.741 176.318 478.739 176.756 482.025 175.442C486.133 176.592 490.733 175.606 493.964 172.211C495.772 170.294 497.634 166.953 496.374 164.16Z" fill="#322E28"/>
<path d="M450.589 131.903C450.316 132.395 450.042 132.888 449.768 133.381C449.494 133.874 450.316 134.203 450.589 133.71C450.863 133.217 451.137 132.724 451.411 132.231C451.74 131.738 450.863 131.41 450.589 131.903Z" fill="#322E28"/>
<path d="M453.273 129.329C452.725 129.055 452.178 128.781 451.63 128.507C450.918 128.179 450.425 129.274 451.137 129.658C451.685 129.931 452.232 130.205 452.78 130.479C453.492 130.808 453.93 129.712 453.273 129.329Z" fill="#322E28"/>
<path d="M451.191 143.677C450.425 144.773 449.22 145.43 447.851 145.43C447.467 145.43 447.412 146.032 447.796 146.032C449.329 146.032 450.753 145.32 451.684 144.061C451.903 143.732 451.41 143.349 451.191 143.677Z" fill="#322E28"/>
<path d="M472.387 140.063C472.058 137.05 468.115 134.476 464.391 136.284C463.514 139.46 462.583 142.637 461.598 145.813C463.076 147.018 466.527 147.949 468.882 146.799C471.565 145.539 472.715 143.349 472.387 140.063Z" fill="#FFA79B"/>
<path d="M467.677 140.501C466.691 141.158 465.705 141.87 464.719 142.528C464.391 142.747 464.774 143.239 465.103 143.02C465.157 142.966 465.267 142.911 465.322 142.911L465.376 142.856C466.253 142.254 467.184 141.596 468.06 140.994C468.389 140.775 468.005 140.282 467.677 140.501Z" fill="#322E28"/>
<path d="M446.538 134.312C446.593 133.983 446.483 133.654 446.155 133.435C444.785 132.504 442.65 133.49 442.54 135.188C442.431 136.886 444.183 137.981 445.717 137.488C446.428 137.707 447.195 136.776 446.702 136.064C446.976 135.571 447.031 134.859 446.538 134.312Z" fill="#FFA79B"/>
<path opacity="0.3" d="M373.865 140.117L371.401 142.582C370.853 143.129 371.73 144.006 372.277 143.458L374.742 140.994C375.289 140.446 374.413 139.57 373.865 140.117Z" fill="#39B54A"/>
<path opacity="0.3" d="M372.386 102.492C369.922 100.192 367.457 97.892 364.993 95.5918C364.39 95.0442 363.569 95.9204 364.116 96.4681C366.581 98.7683 369.045 101.068 371.51 103.369C372.058 103.916 372.934 103.04 372.386 102.492Z" fill="#39B54A"/>
<path opacity="0.3" d="M421.677 94.9347C418.829 97.2349 415.981 99.5351 413.078 101.89C412.476 102.383 413.352 103.259 413.955 102.766L422.553 95.811C423.155 95.3181 422.279 94.4418 421.677 94.9347Z" fill="#39B54A"/>
<path opacity="0.3" d="M364.829 111.419L359.955 108.954C359.243 108.626 358.64 109.666 359.352 109.995C360.995 110.817 362.584 111.638 364.227 112.459C364.939 112.788 365.541 111.748 364.829 111.419Z" fill="#39B54A"/>
<path d="M406.122 135.9H375.508C375.179 135.9 374.905 135.626 374.905 135.297V104.683C374.905 104.354 375.179 104.081 375.508 104.081H406.122C406.451 104.081 406.724 104.354 406.724 104.683V135.297C406.724 135.626 406.451 135.9 406.122 135.9ZM376.11 134.695H405.465V105.34H376.11V134.695Z" fill="#BAB5AB"/>
<path d="M406.121 134.421V135.297H405.3L391.553 121.551L390.677 120.675L375.562 105.614V104.683H376.328C381.422 109.722 386.46 114.76 391.553 119.853C391.827 120.127 392.156 120.456 392.43 120.73C396.975 125.275 401.521 129.876 406.121 134.421Z" fill="#BAB5AB"/>
<path d="M406.123 105.176V106.928C401.523 111.529 396.977 116.129 392.377 120.729C392.103 121.003 391.775 121.332 391.501 121.606C386.955 126.151 382.355 130.752 377.809 135.352H376.057L390.57 120.784L391.446 119.908L406.123 105.176Z" fill="#BAB5AB"/>
<path d="M399.55 268.331C399.499 267.947 398.897 267.941 398.948 268.325C399.473 275.669 399.998 283.014 400.579 290.359C400.629 290.743 401.232 290.749 401.181 290.365C400.601 283.02 400.076 275.676 399.55 268.331Z" fill="black"/>
<path d="M511.475 220.546C511.475 221.582 510.622 222.434 509.586 222.434C508.55 222.434 507.697 221.582 507.697 220.546C507.697 219.51 508.55 218.657 509.586 218.657C510.622 218.657 511.475 219.206 511.475 220.546Z" fill="#D24A43"/>
<path d="M517.965 220.546C517.965 221.582 517.112 222.434 516.076 222.434C515.041 222.434 514.188 221.582 514.188 220.546C514.188 219.51 515.041 218.657 516.076 218.657C517.143 218.657 517.965 219.206 517.965 220.546Z" fill="#FECA55"/>
<path d="M524.637 220.546C524.637 221.582 523.784 222.434 522.748 222.434C521.712 222.434 520.859 221.582 520.859 220.546C520.859 219.51 521.712 218.657 522.748 218.657C523.815 218.657 524.637 219.206 524.637 220.546Z" fill="#39B54A"/>
<path d="M488.772 222.786C481.026 227.671 477.139 230.637 469.361 235.446C476.992 242.58 486.563 230.597 488.772 222.786Z" fill="black"/>
</g>
<defs>
<clipPath id="clip0">
<rect width="616.339" height="566.776" fill="white" transform="translate(0.524414 -1.94678)"/>
</clipPath>
</defs>
</svg>
