<svg width="20" height="20" viewBox="0 0 20 20" fill="none" xmlns="http://www.w3.org/2000/svg">
<rect width="20" height="20" rx="10" fill="#F3EFE7"/>
<rect x="7" y="10" width="6" height="6" transform="rotate(90 7 10)" fill="#FFCD5E"/>
<rect x="19" y="10" width="6" height="6" transform="rotate(90 19 10)" fill="#F2AD12"/>
<rect x="13" y="10" width="6" height="6" transform="rotate(90 13 10)" fill="#FFBC26"/>
<rect x="19" y="4" width="6" height="6" transform="rotate(90 19 4)" fill="#FFBC26"/>
<path opacity="0.6" d="M4.99842 13C5.03173 13.5667 4.53212 14 3.99921 14C3.4663 14 3 13.5333 3 13C3 12.4667 3.4663 12 3.99921 12C4.53212 12 4.93181 12.3333 4.99842 13Z" fill="white"/>
<path opacity="0.6" d="M10 13.9984C9.43333 14.0317 9 13.5321 9 12.9992C9 12.4663 9.46667 12 10 12C10.5333 12 11 12.4663 11 12.9992C11 13.5321 10.6667 13.9318 10 13.9984Z" fill="white"/>
<path opacity="0.6" d="M16.996 13C17.0293 13.5667 16.5303 14 15.998 14C15.4657 14 15 13.5333 15 13C15 12.4667 15.4657 12 15.998 12C16.5303 12 16.9295 12.3333 16.996 13Z" fill="white"/>
<path opacity="0.6" d="M16.9984 7C17.0317 7.56667 16.5321 8 15.9992 8C15.4663 8 15 7.53333 15 7C15 6.46667 15.4663 6 15.9992 6C16.5321 6 16.9318 6.33333 16.9984 7Z" fill="white"/>
</svg>
