<svg width="383" height="276" viewBox="0 0 383 276" fill="none" xmlns="http://www.w3.org/2000/svg">
<path d="M305.903 18.4543C304.346 27.9279 290.842 27.3996 288.614 36.6295C288.487 37.1718 289.295 37.4896 289.422 36.9473C291.65 27.7174 305.165 28.3089 306.765 18.5351C306.857 17.9663 305.995 17.8856 305.903 18.4543Z" fill="#E6DFD1"/>
<path d="M310.034 24.831C308.381 33.7453 294.906 33.389 292.587 42.0814C292.454 42.5921 293.258 42.8822 293.391 42.3715C295.71 33.6791 309.194 34.0947 310.893 24.8979C310.991 24.3628 310.131 24.2958 310.034 24.831Z" fill="#E6DFD1"/>
<path d="M98.2935 14.4533C94.8989 15.032 91.6373 12.7135 91.0568 9.30891C90.4763 5.90434 92.7853 2.63593 96.1799 2.05714C99.7051 1.45609 102.399 3.33253 103.402 7.11421C103.793 8.61965 103.524 10.1927 102.629 11.5131C101.692 13.1102 100.078 14.149 98.2935 14.4533ZM96.3957 3.32293C93.6539 3.79041 91.814 6.39493 92.2828 9.14477C92.7517 11.8946 95.3508 13.7423 98.0926 13.2748C99.5287 13.0299 100.861 12.1739 101.64 10.9631C102.31 9.90552 102.552 8.69647 102.22 7.54023C101.401 4.31112 99.3116 2.82576 96.3957 3.32293Z" fill="#E6DFD1"/>
<rect width="17" height="17" transform="matrix(-0.948362 0.317192 0.317192 0.948362 53.1221 43)" fill="#026D49"/>
<path d="M344.565 79.4239C348.96 74.8703 353.357 70.35 357.752 65.7964C358.163 65.3727 357.458 64.7451 357.047 65.1688C352.652 69.7224 348.255 74.2427 343.86 78.7963C343.484 79.2514 344.154 79.8476 344.565 79.4239Z" fill="#E6DFD1"/>
<circle cx="342.889" cy="39.8889" r="11.6982" transform="rotate(28.8259 342.889 39.8889)" fill="#026D49"/>
</svg>