<svg width="434" height="77" viewBox="0 0 434 77" fill="none" xmlns="http://www.w3.org/2000/svg">
<circle r="15.5" transform="matrix(-1 0 0 1 89.5 67.5)" fill="#026D49"/>
<path d="M43.2584 11.5207C45.1126 14.753 48.6004 14.1331 50.7637 11.6978C52.044 10.2367 53.0594 8.77549 54.8253 7.84565C57.7833 6.25164 61.1386 6.29591 64.1407 7.66853C64.8471 7.97847 64.229 9.04116 63.5226 8.73121C60.3439 7.31431 56.4588 7.66855 53.7658 10.0153C52.1764 11.3879 51.2935 13.5575 49.3509 14.5316C46.702 15.86 43.6116 14.6645 42.1547 12.1849C41.8456 11.4322 42.9052 10.8123 43.2584 11.5207Z" fill="white"/>
<path d="M44.8058 18.0741C46.66 21.3064 50.1478 20.6865 52.311 18.2513C53.5914 16.7901 54.6068 15.3289 56.3727 14.3991C59.3307 12.8051 62.686 12.8494 65.6881 14.222C66.3945 14.5319 65.7764 15.5946 65.07 15.2846C61.8913 13.8678 58.0062 14.222 55.3131 16.5687C53.7238 17.9413 52.8408 20.1109 50.8983 21.085C48.2494 22.4134 45.159 21.2179 43.7021 18.7383C43.3489 18.0299 44.4084 17.41 44.8058 18.0741Z" fill="white"/>
<path d="M0.238489 35.8784C5.93366 29.7237 11.5847 23.5691 17.2798 17.4144C17.8096 16.8388 18.6926 17.7243 18.1628 18.2999C12.4676 24.4546 6.81663 30.6093 1.12146 36.764C0.547529 37.2953 -0.291294 36.454 0.238489 35.8784Z" fill="white"/>
<path d="M427.731 64.575C431.174 64.575 434 61.7412 434 58.2875C434 54.8338 431.174 52 427.731 52C424.155 52 421.815 54.3025 421.462 58.199C421.329 59.7487 421.859 61.2542 422.963 62.4054C424.155 63.8223 425.921 64.575 427.731 64.575ZM427.731 53.2841C430.512 53.2841 432.764 55.5423 432.764 58.3318C432.764 61.1213 430.512 63.3795 427.731 63.3795C426.274 63.3795 424.817 62.7596 423.846 61.6969C423.007 60.7671 422.566 59.6159 422.698 58.4203C422.963 55.0995 424.773 53.2841 427.731 53.2841Z" fill="white"/>
<path d="M416.164 77.4825C420.093 81.8218 424.022 86.2053 427.996 90.5446C428.525 91.1202 427.642 92.0058 427.113 91.4301C423.183 87.0909 419.254 82.7073 415.281 78.3681C414.751 77.7924 415.634 76.9069 416.164 77.4825Z" fill="white"/>
<path d="M287.863 69.3136C290.991 78.3906 304.214 75.6001 307.961 84.3243C308.178 84.8375 307.434 85.2866 307.218 84.7734C303.471 76.0492 290.247 78.9038 287.027 69.5381C286.841 68.9928 287.677 68.7683 287.863 69.3136Z" fill="white"/>
<path d="M284.863 76.294C287.991 84.8037 301.214 82.1876 304.961 90.3666C305.178 90.8477 304.434 91.2687 304.218 90.7875C300.471 82.6086 287.247 85.2848 284.027 76.5045C283.841 75.9933 284.677 75.7828 284.863 76.294Z" fill="white"/>
<path d="M137.689 69.2254L159.101 77.452L162.994 67.3236C163.215 66.7044 164.189 67.0582 163.968 67.6774C162.817 70.8619 159.588 79 159.588 79L137.291 70.1984C136.716 69.9331 137.07 68.96 137.689 69.2254Z" fill="white"/>
<rect width="17" height="17" transform="matrix(-0.883932 0.467616 0.467616 0.883932 396.039 0.0118408)" fill="#026D49"/>
</svg>
