<svg width="1066" height="119" viewBox="0 0 1066 119" fill="none" xmlns="http://www.w3.org/2000/svg">
<rect width="48.546" height="48.546" transform="matrix(0.929007 0.370061 -0.37006 0.929008 1000.78 51.7889)" fill="#F3EFE7"/>
<path d="M1061.37 20.5304C1059.61 30.1388 1047.33 28.3234 1040.27 29.1204C1035.24 29.696 1030.03 32.1313 1028.53 37.3561C1028.31 38.1089 1029.5 38.4188 1029.72 37.6661C1032.37 28.4562 1044.29 30.6701 1051.4 29.696C1056.38 28.9875 1061.55 26.198 1062.52 20.8404C1062.7 20.0876 1061.55 19.7777 1061.37 20.5304Z" fill="#E6DFD1"/>
<path d="M1064.47 26.6853C1062.7 36.2937 1050.43 34.4783 1043.36 35.2753C1038.33 35.8509 1033.12 38.2862 1031.62 43.5111C1031.4 44.2638 1032.59 44.5737 1032.81 43.821C1035.46 34.6111 1047.38 36.8251 1054.49 35.8509C1059.48 35.1425 1064.64 32.353 1065.61 26.9953C1065.75 26.2426 1064.6 25.8883 1064.47 26.6853Z" fill="#E6DFD1"/>
<circle cx="57.5" cy="28" r="28" fill="#F3EFE7"/>
<path d="M37.477 101.67C34.242 107.417 28.157 106.315 24.3828 101.985C22.1491 99.3872 20.3775 96.7894 17.2965 95.1363C12.1358 92.3024 6.28191 92.3811 1.04421 94.8214C-0.188189 95.3724 0.89018 97.2618 2.12258 96.7107C7.66838 94.1917 14.4466 94.8214 19.1451 98.9936C21.918 101.434 23.4585 105.291 26.8476 107.023C31.4691 109.385 36.8608 107.259 39.4027 102.851C39.9418 101.513 38.0932 100.411 37.477 101.67Z" fill="#E6DFD1"/>
<path d="M37.452 113.67C34.2191 119.417 28.1382 118.315 24.3666 113.985C22.1344 111.387 20.364 108.789 17.2851 107.136C12.1279 104.302 6.27799 104.381 1.04384 106.821C-0.187722 107.372 0.889915 109.262 2.12148 108.711C7.66352 106.192 14.4371 106.821 19.1324 110.994C21.9035 113.434 23.4429 117.291 26.8297 119.023C31.4481 121.385 36.8362 119.259 39.3763 114.851C39.9921 113.591 38.1447 112.489 37.452 113.67Z" fill="#E6DFD1"/>
</svg>
