<svg width="507" height="89" viewBox="0 0 507 89" fill="none" xmlns="http://www.w3.org/2000/svg">
<circle r="15.5" transform="matrix(-1 0 0 1 16 28.2617)" fill="#026D49"/>
<path d="M116.259 12.2824C118.113 15.5147 121.601 14.8949 123.764 12.4596C125.044 10.9984 126.06 9.53721 127.826 8.60737C130.784 7.01336 134.139 7.05762 137.141 8.43025C137.848 8.74019 137.229 9.80288 136.523 9.49293C133.344 8.07603 129.459 8.43027 126.766 10.777C125.177 12.1496 124.294 14.3192 122.351 15.2934C119.702 16.6217 116.612 15.4262 115.155 12.9466C114.846 12.1939 115.906 11.574 116.259 12.2824Z" fill="white"/>
<path d="M117.806 18.8361C119.66 22.0684 123.148 21.4485 125.311 19.0132C126.591 17.5521 127.607 16.0909 129.373 15.1611C132.331 13.5671 135.686 13.6114 138.688 14.984C139.394 15.2939 138.776 16.3566 138.07 16.0466C134.891 14.6297 131.006 14.984 128.313 17.3307C126.724 18.7033 125.841 20.8729 123.898 21.847C121.249 23.1753 118.159 21.9798 116.702 19.5003C116.349 18.7918 117.408 18.1719 117.806 18.8361Z" fill="white"/>
<path d="M73.2385 36.6404C78.9337 30.4857 84.5847 24.331 90.2798 18.1763C90.8096 17.6007 91.6926 18.4863 91.1628 19.0619C85.4676 25.2166 79.8166 31.3713 74.1215 37.5259C73.5475 38.0573 72.7087 37.216 73.2385 36.6404Z" fill="white"/>
<path d="M500.731 65.3368C504.174 65.3368 507 62.5031 507 59.0494C507 55.5957 504.174 52.7618 500.731 52.7618C497.155 52.7618 494.815 55.0643 494.462 58.9608C494.329 60.5105 494.859 62.016 495.963 63.1672C497.155 64.5841 498.921 65.3368 500.731 65.3368ZM500.731 54.0459C503.512 54.0459 505.764 56.3041 505.764 59.0936C505.764 61.8832 503.512 64.1414 500.731 64.1414C499.274 64.1414 497.817 63.5214 496.846 62.4588C496.007 61.5289 495.566 60.3777 495.698 59.1822C495.963 55.8613 497.773 54.0459 500.731 54.0459Z" fill="white"/>
<path d="M489.164 78.2443C493.093 82.5836 497.022 86.9671 500.996 91.3064C501.526 91.882 500.643 92.7676 500.113 92.192C496.184 87.8527 492.254 83.4692 488.281 79.1299C487.751 78.5543 488.634 77.6687 489.164 78.2443Z" fill="white"/>
<path d="M360.863 70.0754C363.991 79.1524 377.214 76.362 380.961 85.0862C381.178 85.5994 380.434 86.0484 380.218 85.5352C376.471 76.811 363.247 79.6656 360.027 70.2999C359.841 69.7547 360.677 69.5301 360.863 70.0754Z" fill="white"/>
<path d="M357.863 77.0558C360.991 85.5655 374.214 82.9495 377.961 91.1284C378.178 91.6095 377.434 92.0305 377.218 91.5494C373.471 83.3704 360.247 86.0466 357.027 77.2663C356.841 76.7551 357.677 76.5446 357.863 77.0558Z" fill="white"/>
<path d="M210.689 80.5263L232.101 89.2613L235.994 78.5069C236.215 77.8495 237.189 78.2252 236.968 78.8826C235.817 82.2639 232.588 90.905 232.588 90.905L210.291 81.5595C209.716 81.2777 210.07 80.2445 210.689 80.5263Z" fill="white"/>
<rect width="17" height="17" transform="matrix(-0.883932 0.467616 0.467616 0.883932 469.039 0.773682)" fill="#026D49"/>
</svg>
