<svg width="435" height="92" viewBox="0 0 435 92" fill="none" xmlns="http://www.w3.org/2000/svg">
<circle cx="345" cy="67.5" r="15.5" fill="#FA7355"/>
<path d="M391.242 11.5207C389.387 14.753 385.9 14.1331 383.736 11.6978C382.456 10.2366 381.441 8.77543 379.675 7.84559C376.717 6.25158 373.361 6.29584 370.359 7.66847C369.653 7.97841 370.271 9.0411 370.977 8.73115C374.156 7.31425 378.041 7.66849 380.734 10.0152C382.324 11.3878 383.207 13.5575 385.149 14.5316C387.798 15.8599 390.888 14.6644 392.345 12.1848C392.654 11.4321 391.595 10.8122 391.242 11.5207Z" fill="#BAB5AB"/>
<path d="M389.694 18.0742C387.84 21.3065 384.352 20.6866 382.189 18.2513C380.909 16.7902 379.893 15.329 378.127 14.3992C375.169 12.8052 371.814 12.8494 368.812 14.2221C368.106 14.532 368.724 15.5947 369.43 15.2847C372.609 13.8678 376.494 14.2221 379.187 16.5688C380.776 17.9414 381.659 20.111 383.602 21.0851C386.251 22.4134 389.341 21.2179 390.798 18.7384C391.151 18.0299 390.092 17.41 389.694 18.0742Z" fill="#BAB5AB"/>
<path d="M434.261 35.8785C428.566 29.7238 422.915 23.5691 417.22 17.4144C416.69 16.8388 415.807 17.7244 416.337 18.3C422.032 24.4547 427.683 30.6094 433.378 36.764C433.952 37.2954 434.791 36.4541 434.261 35.8785Z" fill="#BAB5AB"/>
<path d="M6.7691 64.575C3.32551 64.575 0.5 61.7412 0.5 58.2875C0.5 54.8338 3.32551 52 6.7691 52C10.3451 52 12.685 54.3025 13.0382 58.199C13.1707 59.7487 12.6409 61.2542 11.5371 62.4054C10.3451 63.8223 8.5792 64.575 6.7691 64.575ZM6.7691 53.2841C3.98774 53.2841 1.73618 55.5423 1.73618 58.3318C1.73618 61.1213 3.98774 63.3795 6.7691 63.3795C8.22601 63.3795 9.68291 62.7596 10.6542 61.6969C11.493 60.7671 11.9345 59.6159 11.8021 58.4203C11.5372 55.0995 9.72706 53.2841 6.7691 53.2841Z" fill="#BAB5AB"/>
<path d="M18.3362 77.4825C14.407 81.8218 10.4778 86.2053 6.50442 90.5446C5.97464 91.1202 6.85761 92.0058 7.38739 91.4301C11.3166 87.0909 15.2458 82.7073 19.2192 78.3681C19.749 77.7924 18.866 76.9069 18.3362 77.4825Z" fill="#BAB5AB"/>
<path d="M146.637 69.3136C143.509 78.3906 130.286 75.6001 126.539 84.3243C126.322 84.8375 127.066 85.2866 127.282 84.7734C131.029 76.0492 144.253 78.9038 147.473 69.5381C147.659 68.9928 146.823 68.7683 146.637 69.3136Z" fill="#BAB5AB"/>
<path d="M149.637 76.294C146.509 84.8037 133.286 82.1876 129.539 90.3666C129.322 90.8477 130.066 91.2687 130.282 90.7875C134.029 82.6086 147.253 85.2848 150.473 76.5045C150.659 75.9933 149.823 75.7828 149.637 76.294Z" fill="#BAB5AB"/>
<path d="M296.811 69.2254L275.399 77.452L271.506 67.3236C271.285 66.7044 270.311 67.0582 270.532 67.6774C271.683 70.8619 274.912 79 274.912 79L297.209 70.1984C297.784 69.9331 297.43 68.96 296.811 69.2254Z" fill="#BAB5AB"/>
<rect x="38.4614" y="0.0118408" width="17" height="17" transform="rotate(27.8796 38.4614 0.0118408)" fill="#FA7355"/>
</svg>
