<svg width="80" height="81" viewBox="0 0 80 81" fill="none" xmlns="http://www.w3.org/2000/svg">
<path d="M0 40.4453C0 18.3539 17.9086 0.445312 40 0.445312C62.0914 0.445312 80 18.3539 80 40.4453C80 62.5367 62.0914 80.4453 40 80.4453C17.9086 80.4453 0 62.5367 0 40.4453Z" fill="#F3EFE7"/>
<mask id="mask0" mask-type="alpha" maskUnits="userSpaceOnUse" x="14" y="14" width="53" height="53">
<circle cx="40.4596" cy="40.905" r="26" transform="rotate(-52.4442 40.4596 40.905)" fill="#C4C4C4"/>
</mask>
<g mask="url(#mask0)">
<path d="M89.5851 -4.41178C99.9897 18.7704 103.287 25.5194 103.287 25.5194L54.4781 34.8666C50.3226 31.7871 45.612 29.2043 40.6394 27.8633C34.453 26.224 31.4931 28.7973 25.3183 29.2451C21.7272 29.4859 22.9001 33.9669 26.4912 33.7261L30.2915 33.5885C31.4804 34.4449 35.03 36.135 36.3025 36.8825C30.8644 37.7236 23.2388 38.5568 18.228 41.1696C16.8553 41.9038 16.4455 43.2628 16.7331 44.4653C16.1167 45.4923 16.3291 46.8678 17.0687 47.7829C17.0607 49.2199 18.0851 50.8157 19.896 50.9381C20.0748 52.057 20.767 53.1087 22.1176 53.4544C22.2181 53.4739 22.2822 53.4655 22.3548 53.5213C22.4135 53.9706 23.5716 54.3414 23.8117 54.9301C24.9423 57.589 35.4345 60.4607 44.0837 57.4703C49.5865 58.8726 55.1165 57.2363 55.4122 57.0018C68.9842 57.2192 116.849 58.6344 135.276 55.5414C156.196 52.0572 149.612 30.8887 129.759 2.57727C109.869 -25.7621 102.216 -34.1284 102.216 -34.1284L113.996 -58.6103C91.8416 -33.0993 79.1721 -27.6582 89.5851 -4.41178Z" fill="#FFA79B"/>
<path d="M33.3496 42.7488C28.7764 43.2158 24.139 43.6912 19.5659 44.1582C19.2087 44.1722 19.2842 44.7498 19.6413 44.7358C24.2145 44.2688 28.8519 43.7934 33.4251 43.3264C33.7738 43.2482 33.6705 42.7069 33.3496 42.7488Z" fill="#952C28"/>
<path d="M34.0111 47.8209C29.6416 48.0981 25.2078 48.3837 20.8383 48.6609C20.4812 48.6749 20.5566 49.2525 20.9138 49.2385C25.2833 48.9612 29.717 48.6756 34.0866 48.3984C34.4074 48.3565 34.332 47.7789 34.0111 47.8209Z" fill="#952C28"/>
<path d="M35.0918 52.3453C31.6012 52.6055 28.1385 52.8295 24.6479 53.0898C24.2907 53.1039 24.3662 53.6814 24.7234 53.6674C28.214 53.4071 31.6767 53.1831 35.1673 52.9228C35.5523 52.8725 35.4768 52.2949 35.0918 52.3453Z" fill="#952C28"/>
<path d="M47.1667 43.0984C43.8991 42.3178 41.0833 40.4992 38.9454 37.874C38.7109 37.5783 38.2673 37.9299 38.5018 38.2257C40.7207 40.9708 43.6732 42.8368 47.0776 43.6648C47.4515 43.7791 47.5044 43.1848 47.1667 43.0984Z" fill="#952C28"/>
</g>
<rect x="61.3359" y="30.1582" width="7.41903" height="30.2181" transform="rotate(4.21453 61.3359 30.1582)" fill="#FECA55"/>
<path d="M30.8359 33.4453L35.5 36.4453L33.731 63.2803L31 66.9453L28.8965 62.9627L30.8359 33.4453Z" fill="#8DB8A8"/>
<path d="M28.8965 62.9628L33.7309 63.2803L30.9999 66.9453L28.8965 62.9628Z" fill="#897E76"/>
<path d="M32.1191 15.4453L36.9536 15.763L36.1997 27.2373L31.0002 28.4451L32.1191 15.4453Z" fill="#8DB8A8"/>
<path d="M26.4961 69.1089C29.2213 69.0822 31.9717 68.8406 34.0919 66.9168C34.7535 66.3165 34.8455 65.7668 35.7933 65.5977C37.8467 65.2315 40.012 65.3783 42.0892 65.2664C42.2085 65.26 43.2725 65.3601 43.1916 64.8649C43.0864 64.2213 42.4837 63.5765 42.0828 63.1189C41.8776 62.8847 40.3671 61.817 41.0632 61.5386" stroke="#952C28" stroke-width="0.5" stroke-linecap="round" stroke-linejoin="round"/>
</svg>
