<svg width="435" height="91" viewBox="0 0 435 91" fill="none" xmlns="http://www.w3.org/2000/svg">
<circle cx="312" cy="11.5" r="11.5" fill="#FA7355"/>
<path d="M299.242 55.8767C297.387 59.109 293.9 58.4891 291.736 56.0538C290.456 54.5926 289.441 53.1314 287.675 52.2016C284.717 50.6076 281.361 50.6519 278.359 52.0245C277.653 52.3344 278.271 53.3971 278.977 53.0872C282.156 51.6703 286.041 52.0245 288.734 54.3712C290.324 55.7439 291.207 57.9135 293.149 58.8876C295.798 60.2159 298.888 59.0204 300.345 56.5409C300.654 55.7881 299.595 55.1682 299.242 55.8767Z" fill="#BAB5AB"/>
<path d="M297.694 62.4302C295.84 65.6625 292.352 65.0426 290.189 62.6073C288.909 61.1462 287.893 59.685 286.127 58.7552C283.169 57.1612 279.814 57.2055 276.812 58.5781C276.106 58.888 276.724 59.9507 277.43 59.6407C280.609 58.2238 284.494 58.5781 287.187 60.9248C288.776 62.2974 289.659 64.467 291.602 65.4411C294.251 66.7694 297.341 65.5739 298.798 63.0944C299.151 62.3859 298.092 61.766 297.694 62.4302Z" fill="#BAB5AB"/>
<path d="M434.262 31.8785C428.566 25.7238 422.915 19.5691 417.22 13.4144C416.69 12.8388 415.807 13.7244 416.337 14.3C422.032 20.4547 427.683 26.6094 433.379 32.764C433.952 33.2954 434.791 32.4541 434.262 31.8785Z" fill="#BAB5AB"/>
<path d="M46.7229 21.907C50.1302 21.4088 53.336 23.804 53.8357 27.2213C54.3354 30.6387 51.9496 33.8515 48.5422 34.3497C45.0038 34.8671 42.3554 32.9274 41.4422 29.123C41.087 27.6087 41.3934 26.0424 42.3189 24.7436C43.2934 23.1692 44.9318 22.1689 46.7229 21.907ZM48.3564 33.0791C51.1085 32.6767 53.0097 30.1166 52.6061 27.3564C52.2025 24.5962 49.6479 22.6875 46.8958 23.0899C45.4543 23.3007 44.1024 24.1249 43.2951 25.3169C42.5996 26.3583 42.3293 27.5613 42.6333 28.7251C43.3759 31.9727 45.4296 33.5071 48.3564 33.0791Z" fill="#BAB5AB"/>
<path d="M3.81375 27.4087C7.07383 22.5467 10.3275 17.6408 13.6312 12.7723C14.0722 12.1261 13.0704 11.3776 12.6294 12.0238C9.36937 16.8859 6.11571 21.7918 2.81195 26.6602C2.37102 27.3065 3.37282 28.055 3.81375 27.4087Z" fill="#BAB5AB"/>
<path d="M146.637 65.3136C143.51 74.3906 130.287 71.6001 126.539 80.3243C126.323 80.8375 127.066 81.2866 127.283 80.7734C131.03 72.0492 144.253 74.9038 147.473 65.5381C147.659 64.9928 146.823 64.7683 146.637 65.3136Z" fill="#BAB5AB"/>
<path d="M149.637 72.294C146.51 80.8037 133.287 78.1876 129.539 86.3666C129.323 86.8477 130.066 87.2687 130.283 86.7875C134.03 78.6086 147.253 81.2848 150.473 72.5045C150.659 71.9933 149.823 71.7828 149.637 72.294Z" fill="#BAB5AB"/>
<path d="M424.811 67.2254L403.399 75.452L399.506 65.3236C399.285 64.7044 398.311 65.0582 398.532 65.6774C399.683 68.8619 402.912 77 402.912 77L425.209 68.1984C425.784 67.9331 425.43 66.96 424.811 67.2254Z" fill="#BAB5AB"/>
<rect x="51.9521" y="55.2327" width="25.457" height="25.457" transform="rotate(58.6136 51.9521 55.2327)" fill="#FA7355"/>
</svg>
