<svg width="445" height="285" viewBox="0 0 445 285" fill="none" xmlns="http://www.w3.org/2000/svg">
<g clip-path="url(#clip0)">
<path d="M97.0267 61.7265C34.7909 113.471 87.2642 283.795 87.2642 283.795H344.75C344.75 283.795 308.14 277.327 275.192 235.285C242.244 193.243 336.208 194.321 344.75 140.421C353.292 86.5204 336.208 74.6625 275.192 42.3223C214.176 9.98209 159.262 9.98219 97.0267 61.7265Z" fill="white"/>
<path d="M304.738 227.076C301.848 227.076 299.477 224.698 299.477 221.799C299.477 218.901 301.848 216.523 304.738 216.523C307.739 216.523 309.703 218.455 310 221.725C310.111 223.026 309.666 224.289 308.74 225.255C307.739 226.444 306.257 227.076 304.738 227.076ZM304.738 217.6C302.404 217.6 300.514 219.495 300.514 221.837C300.514 224.178 302.404 226.073 304.738 226.073C305.961 226.073 307.184 225.552 307.999 224.661C308.703 223.88 309.073 222.914 308.962 221.911C308.74 219.124 307.221 217.6 304.738 217.6Z" fill="#E6DFD1"/>
<path d="M281.963 67.865C277.294 67.865 273.478 64.0376 273.478 59.3555C273.478 54.6734 277.294 50.8459 281.963 50.8459C286.891 50.8459 289.966 53.9302 290.448 59.3183C290.633 61.3992 289.929 63.4059 288.447 65.0409C286.817 66.8245 284.371 67.865 281.963 67.865ZM281.963 51.8864C277.85 51.8864 274.515 55.2308 274.515 59.3555C274.515 63.4802 277.85 66.8245 281.963 66.8245C284.112 66.8245 286.261 65.8955 287.706 64.2977C288.966 62.9228 289.596 61.1763 289.447 59.3926C289.003 54.5619 286.335 51.8864 281.963 51.8864Z" fill="#E6DFD1"/>
<path d="M314.446 232.873C311.149 236.515 307.851 240.194 304.516 243.835C304.071 244.318 304.812 245.061 305.257 244.578C308.555 240.937 311.853 237.258 315.187 233.616C315.632 233.133 314.891 232.39 314.446 232.873Z" fill="#E6DFD1"/>
<path d="M400.428 222.189C396.686 232.705 380.864 229.472 376.381 239.579C376.122 240.174 377.011 240.694 377.27 240.1C381.754 229.992 397.575 233.299 401.429 222.449C401.651 221.817 400.651 221.557 400.428 222.189Z" fill="#E6DFD1"/>
<path d="M404.023 229.918C400.281 240.434 384.459 237.201 379.976 247.308C379.716 247.903 380.606 248.423 380.865 247.829C385.348 237.721 401.17 241.028 405.023 230.178C405.246 229.546 404.245 229.286 404.023 229.918Z" fill="#E6DFD1"/>
<path d="M352.777 287.755C347.998 282.59 343.255 277.425 338.475 272.26C338.03 271.777 337.289 272.52 337.734 273.003C342.514 278.168 347.256 283.333 352.036 288.498C352.518 288.944 353.222 288.238 352.777 287.755Z" fill="#E6DFD1"/>
<path d="M258.212 185.772C257.027 187.37 255.804 188.968 254.618 190.566C254.21 191.086 255.1 191.606 255.507 191.086C256.693 189.488 257.916 187.89 259.102 186.292C259.472 185.772 258.583 185.252 258.212 185.772Z" fill="#E6DFD1"/>
<path d="M298.266 140.846C296.376 141.664 294.487 142.444 292.634 143.262C292.041 143.522 292.56 144.414 293.153 144.154C295.042 143.336 296.932 142.556 298.785 141.738C299.378 141.478 298.859 140.586 298.266 140.846Z" fill="#E6DFD1"/>
<path d="M301.232 144.042C298.602 145.231 295.971 146.383 293.34 147.572C292.747 147.832 293.266 148.724 293.859 148.464C296.489 147.275 299.12 146.123 301.751 144.934C302.344 144.674 301.825 143.782 301.232 144.042Z" fill="#E6DFD1"/>
<path d="M265.993 61.771C264.882 63.1459 263.77 64.5208 262.659 65.8957C262.251 66.416 262.955 67.122 263.4 66.6389C264.511 65.264 265.623 63.8891 266.734 62.5142C267.142 61.994 266.438 61.2508 265.993 61.771Z" fill="#E6DFD1"/>
<path d="M241.523 15.0614C237.336 14.5412 233.297 16.0647 230.481 19.1861C230.036 19.6692 230.777 20.4124 231.222 19.9293C233.89 16.9937 237.595 15.6188 241.523 16.1019C242.153 16.1762 242.153 15.1358 241.523 15.0614Z" fill="#E6DFD1"/>
<path d="M243.298 18.4059C239.111 17.8857 235.072 19.4092 232.256 22.5306C231.812 23.0137 232.553 23.7569 232.997 23.2738C235.665 20.3382 239.371 18.9633 243.298 19.4464C243.965 19.5207 243.965 18.4802 243.298 18.4059Z" fill="#E6DFD1"/>
<path d="M111.579 283.144C104.91 283.144 99.5 277.718 99.5 271.03C99.5 264.341 104.91 258.916 111.579 258.916C118.582 258.916 122.992 263.301 123.659 270.993C123.918 273.928 122.918 276.79 120.806 279.093C118.508 281.62 115.025 283.144 111.579 283.144ZM111.579 259.956C105.503 259.956 100.537 264.936 100.537 271.03C100.537 277.124 105.503 282.103 111.579 282.103C114.766 282.103 117.915 280.728 120.065 278.387C121.954 276.306 122.881 273.705 122.658 271.067C122.028 264.007 117.99 259.956 111.579 259.956Z" fill="#E6DFD1"/>
<path d="M107.167 62.0076C105.685 63.9399 104.203 65.9093 102.721 67.8416C102.313 68.3618 103.202 68.8821 103.61 68.3618C105.092 66.4295 106.574 64.4601 108.056 62.5278C108.464 61.9704 107.575 61.4873 107.167 62.0076Z" fill="#E6DFD1"/>
<path d="M109.243 66.0951L105.464 71.5947C105.093 72.1521 105.982 72.6724 106.353 72.115C107.613 70.2942 108.872 68.4733 110.132 66.6154C110.503 66.0951 109.613 65.5749 109.243 66.0951Z" fill="#E6DFD1"/>
<path d="M121.653 23.8447C118.688 20.3145 115.687 16.7843 112.723 13.2542C112.278 12.734 111.574 13.4771 111.982 13.9974L120.912 24.5879C121.356 25.0709 122.06 24.3277 121.653 23.8447Z" fill="#E6DFD1"/>
<path d="M71.6529 130.175C70.1708 138.239 59.87 136.715 53.9414 137.384C49.7174 137.867 45.3451 139.911 44.0853 144.296C43.9 144.928 44.9004 145.188 45.0857 144.556C47.3089 136.827 57.3133 138.685 63.2789 137.867C67.4659 137.273 71.8011 134.932 72.6163 130.435C72.7645 129.804 71.8011 129.544 71.6529 130.175Z" fill="#E6DFD1"/>
<path d="M74.2476 135.341C72.7655 143.404 62.4647 141.881 56.5362 142.549C52.3121 143.033 47.9398 145.076 46.68 149.461C46.4947 150.093 47.4952 150.353 47.6804 149.721C49.9036 141.992 59.908 143.85 65.8736 143.033C70.0606 142.438 74.3959 140.097 75.211 135.601C75.3222 134.969 74.3588 134.672 74.2476 135.341Z" fill="#E6DFD1"/>
<mask id="mask0" mask-type="alpha" maskUnits="userSpaceOnUse" x="76" y="17" width="261" height="296">
<rect width="260.299" height="295.033" transform="matrix(-1 0 0 1 336.559 17.4114)" fill="#C4C4C4"/>
</mask>
<g mask="url(#mask0)">
<path d="M299.67 173.856C297.314 165.225 291.424 156.741 287.153 152.61C282.809 148.479 281.557 182.488 281.557 182.488L299.67 173.856Z" fill="#FFA79B"/>
<path d="M227.589 455.514C220.962 430.358 217.207 398.932 218.385 385.063C218.385 385.063 175.239 237.89 161.765 191.045C163.827 190.676 165.815 190.381 167.876 190.012C178.405 188.242 188.934 186.545 199.389 184.553C207.415 183.078 221.919 180.644 229.945 179.389C250.634 242.537 258.513 343.235 260.869 359.759C262.415 370.456 268.232 418.555 269.115 448.58C257.85 451.309 239.148 453.817 227.589 455.514Z" fill="#E64825"/>
<path d="M85.4117 444.153C97.3395 400.112 107.721 376.948 107.721 376.948C111.623 344.12 133.638 220.996 133.638 220.996L136.731 195.103C147.112 193.406 157.42 191.709 167.802 190.012C178.331 188.242 188.86 186.545 199.315 184.553C200.493 184.332 201.597 184.111 202.775 183.889L220.078 216.127C220.078 216.127 172.882 333.276 159.556 375.546C150.426 404.465 132.534 438.104 124.361 458.391C113.317 454.924 96.2351 448.506 85.4117 444.153Z" fill="#E64825"/>
<path d="M192.541 286.431C195.045 275.661 197.548 264.89 200.125 254.046C200.199 253.824 200.199 253.677 200.272 253.456C200.272 253.308 200.272 253.16 200.199 253.087C199.904 253.16 199.683 253.308 199.389 253.382C199.315 253.751 199.242 254.046 199.168 254.415C196.738 265.038 194.235 275.587 191.732 286.21C191.584 286.726 192.394 286.948 192.541 286.431Z" fill="black"/>
<path d="M199.093 254.415C199.388 254.267 199.756 254.193 200.051 254.046C202.922 253.013 205.72 251.906 208.591 250.874C209.107 250.652 208.886 249.841 208.371 250.062L200.124 253.16C199.83 253.234 199.609 253.382 199.314 253.456C199.241 253.751 199.167 254.046 199.093 254.415Z" fill="black"/>
<path d="M125.466 114.692C126.571 135.864 134.228 216.939 134.228 216.939L191.29 211.184L219.269 185.365L232.154 140.069L238.707 116.905C236.572 80.6836 228.694 74.1917 196.15 77.2901C195.045 77.3639 193.867 77.5114 192.689 77.6589C190.922 77.8802 189.008 78.1016 187.093 78.3229C182.16 78.913 176.785 79.7245 170.822 80.536C170.822 80.536 169.275 81.5688 166.698 83.1918C155.728 90.2738 126.497 109.085 125.466 109.749C125.246 109.897 125.319 111.667 125.466 114.692Z" fill="#39B54A"/>
<path d="M135.775 118.75C147.187 145.75 151.973 160.651 163.606 187.504C130.547 192.299 127.308 143.315 135.775 118.75Z" fill="black"/>
<path d="M173.912 115.509H287.152V228.6H173.912V115.509Z" fill="#E6DFD1"/>
<path d="M173.912 132.403H287.152V134.1H173.912V132.403Z" fill="white"/>
<path d="M276.917 127.903C274.762 127.903 273.015 126.152 273.015 123.993C273.015 121.834 274.762 120.083 276.917 120.083C279.072 120.083 280.819 121.834 280.819 123.993C280.819 126.152 279.072 127.903 276.917 127.903Z" fill="#FECA55"/>
<path d="M265.357 127.903C263.202 127.903 261.455 126.152 261.455 123.993C261.455 121.834 263.202 120.083 265.357 120.083C267.513 120.083 269.26 121.834 269.26 123.993C269.26 126.152 267.513 127.903 265.357 127.903Z" fill="white"/>
<path d="M214.923 190.46H270.292C271.396 190.46 271.396 192.157 270.292 192.157H214.923C213.819 192.231 213.819 190.46 214.923 190.46Z" fill="black"/>
<path d="M214.923 199.977H270.292C271.396 199.977 271.396 201.674 270.292 201.674H214.923C213.819 201.747 213.819 199.977 214.923 199.977Z" fill="black"/>
<path d="M193.716 141.551H271.1V181.387H193.716V141.551Z" fill="#BAB5AB"/>
<path d="M198.21 212.887H218.384V221.297H198.21V212.887Z" fill="white"/>
<path d="M202.036 145.46C204.024 146.788 206.085 148.042 208.073 149.37C209.03 149.96 208.147 151.509 207.19 150.845C205.202 149.517 203.14 148.263 201.152 146.935C200.195 146.345 201.078 144.87 202.036 145.46Z" fill="white"/>
<path d="M275.225 184.037C273.09 184.627 270.292 181.971 272.353 179.979C274.709 177.766 284.134 167.955 287.079 166.627C300.332 160.799 301.952 181.75 301.437 186.176C300.627 193.701 297.387 200.709 292.454 206.316C292.307 206.758 288.699 209.93 286.932 211.185C285.606 212.07 283.471 211.111 283.177 209.488C281.63 210.004 277.802 207.791 278.612 205.504C278.023 205.135 276.403 204.619 276.035 203.439C275.519 201.963 275.961 200.488 276.624 199.012C276.182 198.791 275.814 198.57 275.446 198.127C273.237 195.693 276.771 192.889 279.422 189.201C281.41 186.397 282.072 182.635 283.913 180.865C283.324 180.643 282.809 180.422 282.293 180.053C280.305 181.897 277.949 183.299 275.225 184.037Z" fill="#FFA79B"/>
<path d="M277.657 197.979C281.927 194.586 285.314 190.381 287.744 185.512C287.965 184.996 288.775 185.438 288.48 185.955C285.977 190.897 282.516 195.102 278.246 198.57C277.804 198.938 277.215 198.348 277.657 197.979Z" fill="#E37E71"/>
<path d="M279.421 203.586C283.912 200.93 287.446 197.168 289.803 192.52C290.023 192.004 290.833 192.446 290.539 192.963C288.183 197.758 284.501 201.668 279.863 204.324C279.421 204.619 278.979 203.881 279.421 203.586Z" fill="#E37E71"/>
<path d="M284.282 207.496C287.522 205.356 290.172 202.627 292.16 199.233C292.455 198.717 293.191 199.16 292.897 199.676C290.835 203.143 288.111 206.094 284.724 208.233C284.282 208.529 283.84 207.791 284.282 207.496Z" fill="#E37E71"/>
<path d="M275.003 134.242C277.212 131.734 279.715 127.012 282.587 126.422C289.582 125.02 295.619 125.684 296.503 126.496C297.607 127.602 296.797 129.373 295.545 130.479C293.778 132.029 289.729 130.701 288.845 133.504C288.845 133.578 288.845 133.578 288.772 133.652C290.907 133.209 292.674 133.061 293.999 133.356C298.711 134.389 297.46 143.98 296.061 152.611C293.484 167.955 264.032 170.611 264.032 170.611C264.032 170.611 274.782 134.316 275.003 134.242Z" fill="#FFA79B"/>
<path d="M125.464 114.692C126.348 121.184 128.851 129.004 133.195 138.52C153.737 183.004 157.419 201.004 173.249 202.406C182.379 203.217 195.558 198.496 218.383 190.086C241.134 181.676 258.658 175.258 271.764 170.389C273.457 158.438 274.046 146.34 275.077 134.241C265.8 135.422 248.718 137.709 232.152 140.069C214.849 142.577 198.209 145.159 192.024 146.782L156.977 100.897L167.948 84.7411L170.819 80.5361C168.979 80.7574 167.138 81.0525 165.371 81.2738C141.883 84.6673 122.004 89.6837 125.464 114.692Z" fill="#39B54A"/>
<path d="M185.619 152.979L189.963 148.627C190.331 148.258 190.993 148.848 190.552 149.217C189.079 150.692 187.68 152.094 186.208 153.569C185.839 154.012 185.25 153.348 185.619 152.979Z" fill="black"/>
<path d="M169.937 115.577C171.042 117.2 172.072 118.897 173.177 120.52C173.471 120.963 172.735 121.405 172.441 120.963C171.336 119.34 170.305 117.643 169.201 116.02C168.833 115.577 169.569 115.135 169.937 115.577Z" fill="black"/>
<path d="M293.925 141.176C294.514 140.217 295.029 139.184 295.618 138.225C295.913 137.708 296.649 138.151 296.355 138.667C295.766 139.626 295.25 140.659 294.661 141.618C294.44 142.135 293.704 141.692 293.925 141.176Z" fill="#E37E71"/>
<path d="M293.851 149.07C294.293 148.406 294.735 147.742 295.103 147.078C295.397 146.635 296.134 147.078 295.839 147.521C295.397 148.185 294.955 148.849 294.587 149.513C294.293 150.029 293.557 149.586 293.851 149.07Z" fill="#E37E71"/>
<path d="M293.19 154.528L294.368 152.979C294.737 152.537 295.473 152.979 295.105 153.422L293.927 154.971C293.559 155.414 292.822 154.971 293.19 154.528Z" fill="#E37E71"/>
<path d="M285.607 134.315C286.417 134.02 287.227 133.725 287.963 133.504C288.479 133.356 288.7 134.168 288.184 134.315C287.374 134.61 286.564 134.905 285.828 135.127C285.313 135.274 285.092 134.463 285.607 134.315Z" fill="#E37E71"/>
<path d="M166.55 82.0118L174.87 50.364L195.118 56.1182C194.75 56.5608 193.13 74.0445 192.099 84.9626C189.154 84.7413 170.747 82.3068 166.55 82.0118Z" fill="#FFA79B"/>
<path d="M181.35 53.9049C181.276 53.0934 181.276 52.3557 181.276 51.5442L195.118 56.118C194.897 56.3393 194.308 62.0197 193.646 68.8066C188.05 64.9705 183.411 59.8803 181.35 53.9049Z" fill="black"/>
<path d="M165.372 81.2739C165.813 81.9378 166.181 82.528 166.697 83.192C167.139 83.7084 167.507 84.2248 167.949 84.7412C171.041 88.2822 175.017 91.0117 179.582 92.4133C184.589 93.8887 190.332 93.4461 194.013 89.3887C197.105 85.9952 197.768 81.3477 196.148 77.2903C195.044 77.3641 186.356 77.5854 186.356 77.5854C181.423 78.1755 176.71 79.6509 170.82 80.5362C168.979 80.7575 167.212 80.9788 165.372 81.2739Z" fill="#FFA79B"/>
<path d="M168.612 30.4343C170.259 24.2542 181.245 20.1321 188.882 21.0974C192.216 21.5017 193.589 19.1135 194.609 21.6809C197.104 28.0376 205.394 47.674 203.226 53.9604C200.052 63.1028 188.269 62.3582 181.758 57.0721C175.275 51.7177 166.274 39.2807 168.612 30.4343Z" fill="#FFA79B"/>
<path d="M193.187 16.3995C189.704 15.7751 185.085 18.9099 183.248 21.2678C176.744 22.1996 169.907 25.704 168.653 30.5307C167.118 36.4375 170.562 43.9779 175.003 49.8536C177.122 48.1686 175.113 42.5683 176.488 39.783C183.077 34.7431 183.483 31.8011 182.906 28.538C185.239 29.251 194.682 24.8179 195.564 22.0706C196.635 17.8865 194.225 16.584 193.187 16.3995Z" fill="#322E28"/>
<path d="M167.255 45.2582C167.31 41.6156 171.796 38.028 176.515 39.7146C177.951 43.4077 179.482 47.0602 181.014 50.7128C179.387 52.3598 175.273 53.868 172.258 52.8768C168.862 51.6504 167.157 49.2019 167.255 45.2582Z" fill="#FFA79B"/>
<path d="M171.722 44.0532C172.896 44.2933 173.974 44.574 175.149 44.8141C175.654 44.9406 175.62 45.8032 175.047 45.6489C173.872 45.4088 172.794 45.1281 171.62 44.888C171.046 44.7337 171.148 43.8989 171.722 44.0532Z" fill="#E37E71"/>
<path d="M197.825 32.3153C198.119 33.1525 198.51 33.9493 198.804 34.7866C199.006 35.2672 198.21 35.6594 198.036 35.1105C197.741 34.2732 197.351 33.4764 197.056 32.6392C196.787 32.1307 197.651 31.7664 197.825 32.3153Z" fill="black"/>
<path d="M188.827 35.6551C189.121 36.4924 189.512 37.2892 189.806 38.1264C190.008 38.607 189.212 38.9992 189.038 38.4503C188.743 37.6131 188.353 36.8163 188.058 35.979C187.857 35.4984 188.653 35.1062 188.827 35.6551Z" fill="black"/>
<path d="M195.309 41.0093C195.938 41.027 196.772 41.128 197.336 40.7207C197.707 40.3943 197.862 39.8201 197.413 39.5571C196.964 39.294 197.475 38.6261 197.924 38.8892C198.686 39.3596 198.665 40.3866 198.222 41.0823C197.599 42.0234 196.273 41.9604 195.275 41.8719C194.646 41.8543 194.749 41.0195 195.309 41.0093Z" fill="#E37E71"/>
<path d="M187.799 50.4536C188.01 51.4957 189.029 52.3101 190.151 52.2898C190.712 52.2796 190.842 53.1295 190.281 53.1397C188.667 53.1981 187.294 52.0802 186.978 50.5169C186.845 50.0641 187.694 49.9325 187.799 50.4536Z" fill="#E37E71"/>
<path d="M186.21 32.5158L187.325 31.5367C188.192 30.7752 189.221 32.1512 188.354 32.9127L187.239 33.8918C186.467 34.6129 185.342 33.2774 186.21 32.5158Z" fill="#322E28"/>
<path d="M196.136 29.236C196.753 29.0892 197.37 28.9424 197.986 28.7956C198.438 28.6615 198.9 29.089 198.965 29.5139C199.003 30.0072 198.699 30.3614 198.247 30.4955C197.63 30.6423 197.014 30.7891 196.397 30.9359C195.945 31.0701 195.483 30.6426 195.418 30.2176C195.285 29.7648 195.616 29.3424 196.136 29.236Z" fill="#322E28"/>
<path fill-rule="evenodd" clip-rule="evenodd" d="M153.639 145.882C154.188 145.882 154.705 145.668 155.094 145.279C155.482 144.891 155.697 144.374 155.697 143.824V138.857L152.184 142.369C151.795 142.758 151.581 143.274 151.581 143.824C151.581 144.959 152.504 145.882 153.639 145.882ZM157.459 142.081L161.039 138.502H157.459V142.081ZM158.76 144.788C158.924 144.952 159.104 145.099 159.297 145.229L164.187 140.339C164.058 140.146 163.91 139.967 163.746 139.802L162.989 139.045L158.003 144.03L158.76 144.787V144.788ZM161.253 145.82H164.778V142.295C164.778 142.278 164.776 142.261 164.776 142.243L161.201 145.818C161.218 145.818 161.236 145.82 161.253 145.82ZM164.84 134.681C164.84 133.547 163.917 132.624 162.782 132.624C162.233 132.624 161.716 132.838 161.327 133.226L157.814 136.739L162.782 136.739C163.332 136.739 163.849 136.525 164.237 136.136C164.626 135.748 164.84 135.231 164.84 134.681ZM150.937 141.123L153.559 138.502H152.965V138.502C152.416 138.502 151.899 138.716 151.51 139.105L150.263 137.858C150.985 137.136 151.944 136.739 152.965 136.739V134.008L155.696 134.007C155.696 132.987 156.094 132.027 156.815 131.306L158.062 132.553C157.674 132.942 157.46 133.458 157.46 134.008H157.459V134.601L160.081 131.98C160.803 131.258 161.763 130.861 162.782 130.861C164.889 130.861 166.604 132.574 166.604 134.681C166.604 135.702 166.206 136.661 165.484 137.383C165.202 137.664 164.877 137.901 164.519 138.083L164.992 138.556C165.991 139.555 166.541 140.882 166.541 142.295V147.583H161.253C159.841 147.583 158.513 147.033 157.514 146.034L157.041 145.561C156.86 145.917 156.624 146.242 156.34 146.526C155.618 147.248 154.659 147.645 153.639 147.645C151.532 147.645 149.818 145.931 149.818 143.825C149.818 142.804 150.216 141.845 150.937 141.123Z" fill="white"/>
</g>
<line x1="46.6572" y1="283.945" x2="368.368" y2="283.945" stroke="#E6DFD1"/>
</g>
<defs>
<clipPath id="clip0">
<rect width="445" height="284" fill="white" transform="translate(0 0.445312)"/>
</clipPath>
</defs>
</svg>
