<svg width="22" height="22" viewBox="0 0 22 22" fill="none" xmlns="http://www.w3.org/2000/svg">
<rect x="1.5" y="1.5" width="19.5" height="19.5" rx="9.75" fill="#0EA36C"/>
<path fill-rule="evenodd" clip-rule="evenodd" d="M13.8821 14.547C13.6315 14.5472 13.3958 14.4495 13.2185 14.2722C13.0412 14.0949 12.9435 13.8592 12.9435 13.6085V11.3426L14.5458 12.9448C14.723 13.1221 14.8207 13.3577 14.8207 13.6085C14.8207 14.126 14.3998 14.547 13.8821 14.547ZM12.1396 12.8134L10.5068 11.1807H12.1396V12.8134ZM11.5462 14.0479C11.4716 14.1228 11.3896 14.1902 11.3014 14.2493L9.07091 12.0187C9.12972 11.9309 9.19718 11.8489 9.27232 11.774L9.61761 11.4285L11.8917 13.7025L11.5462 14.0478V14.0479ZM10.4093 14.5189H8.80131V12.9109C8.80131 12.903 8.80231 12.8953 8.80249 12.8873L10.4328 14.5178C10.425 14.5178 10.4171 14.5189 10.4093 14.5189ZM8.77309 9.43801C8.77309 8.92051 9.19417 8.49957 9.71165 8.49957C9.96227 8.49957 10.1981 8.59704 10.3753 8.77436L11.9776 10.3767L9.71174 10.3765C9.46103 10.3767 9.2253 10.2791 9.048 10.1018C8.87069 9.92443 8.77309 9.68877 8.77309 9.43801ZM15.1144 12.3765L13.9186 11.1807H14.1893V11.181C14.44 11.181 14.6758 11.2785 14.8531 11.4558L15.422 10.887C15.0927 10.5579 14.655 10.3767 14.1896 10.3767V9.13071L12.9436 9.13044C12.9436 8.66502 12.7625 8.22747 12.4333 7.89819L11.8645 8.46715C12.0419 8.64447 12.1394 8.88013 12.1394 9.13089H12.1397V9.40139L10.9437 8.20567C10.6147 7.87657 10.1768 7.69531 9.71165 7.69531C8.75064 7.69522 7.96875 8.47688 7.96875 9.43792C7.96875 9.90344 8.15007 10.3411 8.47929 10.6702C8.60788 10.7987 8.7564 10.9066 8.91936 10.9898L8.70371 11.2053C8.24813 11.661 7.99733 12.2666 7.99714 12.9109V15.3231H10.4093C11.0535 15.3231 11.6592 15.072 12.1147 14.6164L12.3304 14.4009C12.4129 14.5629 12.5207 14.7114 12.6499 14.841C12.9792 15.1701 13.4168 15.3514 13.8822 15.3516C14.8431 15.3515 15.6248 14.5697 15.625 13.6088C15.625 13.1433 15.4436 12.7056 15.1144 12.3765Z" fill="white"/>
<rect x="1.5" y="1.5" width="19.5" height="19.5" rx="9.75" stroke="#FBF8F4" stroke-width="2"/>
</svg>
