<svg width="12" height="14" viewBox="0 0 12 14" fill="none" xmlns="http://www.w3.org/2000/svg">
<path d="M5.625 8.18134H8.25" stroke="#BAB5AB" stroke-linecap="round" stroke-linejoin="round"/>
<path d="M5.625 10.4313H8.25" stroke="#BAB5AB" stroke-linecap="round" stroke-linejoin="round"/>
<path d="M4.125 7.99384C4.22855 7.99384 4.3125 8.07778 4.3125 8.18134C4.3125 8.28489 4.22855 8.36884 4.125 8.36884C4.02145 8.36884 3.9375 8.28489 3.9375 8.18134C3.9375 8.07778 4.02145 7.99384 4.125 7.99384" stroke="#BAB5AB" stroke-linecap="round" stroke-linejoin="round"/>
<path d="M5.625 5.93134H8.25" stroke="#BAB5AB" stroke-linecap="round" stroke-linejoin="round"/>
<path d="M4.125 5.74384C4.22855 5.74384 4.3125 5.82778 4.3125 5.93134C4.3125 6.03489 4.22855 6.11884 4.125 6.11884C4.02145 6.11884 3.9375 6.03489 3.9375 5.93134C3.9375 5.82778 4.02145 5.74384 4.125 5.74384" stroke="#BAB5AB" stroke-linecap="round" stroke-linejoin="round"/>
<path d="M4.125 10.2438C4.22855 10.2438 4.3125 10.3278 4.3125 10.4313C4.3125 10.5349 4.22855 10.6188 4.125 10.6188C4.02145 10.6188 3.9375 10.5349 3.9375 10.4313C3.9375 10.3278 4.02145 10.2438 4.125 10.2438" stroke="#BAB5AB" stroke-linecap="round" stroke-linejoin="round"/>
<path fill-rule="evenodd" clip-rule="evenodd" d="M7.875 3.30634H9.75C10.1642 3.30634 10.5 3.64212 10.5 4.05634V11.9313C10.5 12.3455 10.1642 12.6813 9.75 12.6813H2.25C1.83579 12.6813 1.5 12.3455 1.5 11.9313V4.05634C1.5 3.64212 1.83579 3.30634 2.25 3.30634H4.125C4.125 2.2708 4.96447 1.43134 6 1.43134C7.03553 1.43134 7.875 2.2708 7.875 3.30634Z" stroke="#BAB5AB" stroke-linecap="round" stroke-linejoin="round"/>
<path d="M6 2.93134C6.10355 2.93134 6.1875 3.01528 6.1875 3.11884C6.1875 3.22239 6.10355 3.30634 6 3.30634C5.89645 3.30634 5.8125 3.22239 5.8125 3.11884C5.8125 3.01528 5.89645 2.93134 6 2.93134" stroke="#BAB5AB" stroke-linecap="round" stroke-linejoin="round"/>
</svg>
