<svg width="24" height="24" viewBox="0 0 24 24" fill="none" xmlns="http://www.w3.org/2000/svg">
<rect width="24" height="24" rx="12" fill="#81766F"/>
<path fill-rule="evenodd" clip-rule="evenodd" d="M12.0359 5.59998C10.2977 5.59998 10.0796 5.60758 9.39689 5.63864C8.71555 5.66984 8.25048 5.77771 7.84354 5.93598C7.42261 6.09945 7.06554 6.31812 6.7098 6.67399C6.35379 7.02972 6.13513 7.38679 5.97112 7.8076C5.81246 8.21467 5.70445 8.67987 5.67379 9.36095C5.64325 10.0436 5.63525 10.2619 5.63525 12C5.63525 13.7382 5.64299 13.9557 5.67392 14.6383C5.70525 15.3197 5.81312 15.7847 5.97126 16.1917C6.13486 16.6126 6.35353 16.9697 6.7094 17.3254C7.065 17.6814 7.42207 17.9006 7.84274 18.0641C8.24995 18.2224 8.71515 18.3302 9.39636 18.3614C10.079 18.3925 10.297 18.4001 12.0351 18.4001C13.7733 18.4001 13.9908 18.3925 14.6735 18.3614C15.3548 18.3302 15.8204 18.2224 16.2276 18.0641C16.6484 17.9006 17.005 17.6814 17.3606 17.3254C17.7166 16.9697 17.9352 16.6126 18.0993 16.1918C18.2566 15.7847 18.3646 15.3195 18.3966 14.6385C18.4273 13.9558 18.4353 13.7382 18.4353 12C18.4353 10.2619 18.4273 10.0438 18.3966 9.36108C18.3646 8.67974 18.2566 8.21467 18.0993 7.80773C17.9352 7.38679 17.7166 7.02972 17.3606 6.67399C17.0046 6.31798 16.6486 6.09931 16.2272 5.93598C15.8192 5.77771 15.3539 5.66984 14.6725 5.63864C13.9899 5.60758 13.7725 5.59998 12.0339 5.59998H12.0359ZM11.4617 6.7533C11.6321 6.75304 11.8222 6.7533 12.0358 6.7533C13.7446 6.7533 13.9472 6.75944 14.622 6.7901C15.246 6.81864 15.5847 6.9229 15.8103 7.01051C16.1089 7.12651 16.3219 7.26517 16.5457 7.48918C16.7697 7.71318 16.9084 7.92651 17.0247 8.22518C17.1123 8.45052 17.2167 8.78919 17.2451 9.4132C17.2757 10.0879 17.2824 10.2905 17.2824 11.9986C17.2824 13.7066 17.2757 13.9092 17.2451 14.5839C17.2165 15.2079 17.1123 15.5466 17.0247 15.7719C16.9087 16.0706 16.7697 16.2833 16.5457 16.5071C16.3217 16.7311 16.1091 16.8698 15.8103 16.9858C15.5849 17.0738 15.246 17.1778 14.622 17.2063C13.9473 17.237 13.7446 17.2437 12.0358 17.2437C10.3269 17.2437 10.1243 17.237 9.44965 17.2063C8.82565 17.1775 8.48698 17.0733 8.26124 16.9857C7.96257 16.8697 7.74924 16.731 7.52523 16.507C7.30123 16.283 7.16256 16.0702 7.04629 15.7714C6.95869 15.5461 6.85429 15.2074 6.82589 14.5834C6.79523 13.9087 6.78909 13.706 6.78909 11.997C6.78909 10.2879 6.79523 10.0863 6.82589 9.4116C6.85443 8.78759 6.95869 8.44892 7.04629 8.22332C7.1623 7.92465 7.30123 7.71131 7.52523 7.48731C7.74924 7.26331 7.96257 7.12464 8.26124 7.00837C8.48684 6.92037 8.82565 6.81637 9.44965 6.7877C10.0401 6.76104 10.2689 6.75304 11.4617 6.7517V6.7533ZM15.4517 7.81605C15.0277 7.81605 14.6837 8.15965 14.6837 8.58379C14.6837 9.00779 15.0277 9.3518 15.4517 9.3518C15.8757 9.3518 16.2197 9.00779 16.2197 8.58379C16.2197 8.15979 15.8757 7.81578 15.4517 7.81578V7.81605ZM12.0356 8.71332C10.2205 8.71332 8.74891 10.1849 8.74891 12C8.74891 13.8151 10.2205 15.2861 12.0356 15.2861C13.8507 15.2861 15.3218 13.8151 15.3218 12C15.3218 10.1849 13.8506 8.71332 12.0355 8.71332H12.0356ZM12.0359 9.8667C13.2141 9.8667 14.1693 10.8218 14.1693 12.0001C14.1693 13.1782 13.2141 14.1334 12.0359 14.1334C10.8577 14.1334 9.90258 13.1782 9.90258 12.0001C9.90258 10.8218 10.8577 9.8667 12.0359 9.8667Z" fill="white"/>
</svg>
