<svg width="40" height="41" viewBox="0 0 40 41" fill="none" xmlns="http://www.w3.org/2000/svg">
<rect y="0.818359" width="40" height="40" rx="20" fill="#0EA36C"/>
<path fill-rule="evenodd" clip-rule="evenodd" d="M16.839 29.151C24.2192 29.151 28.4889 23.2907 28.4889 17.7294C28.4889 17.5762 29.538 16.6554 29.9872 14.7357C30.0788 14.3461 29.7081 14.0388 29.3587 14.2023C28.4624 14.6232 27.5529 14.2898 27.1577 13.8107C25.638 12.1159 23.0968 12.0347 21.4804 13.6284C20.4385 14.6565 19.9964 16.1877 20.3193 17.6492C16.9062 17.8981 14.5626 16.244 12.6355 13.9763C12.387 13.6815 11.9256 13.8367 11.8736 14.2263C11.5885 16.395 11.4988 21.6678 16.6078 24.6959C15.7206 26.0001 13.984 26.7698 12.0509 27.1C11.6231 27.174 11.5212 27.7802 11.9123 27.9761C13.4442 28.7469 15.1278 29.15 16.839 29.1479" fill="white"/>
</svg>
