<svg width="25" height="24" viewBox="0 0 25 24" fill="none" xmlns="http://www.w3.org/2000/svg">
<rect x="0.5" width="24" height="24" rx="12" fill="#575552"/>
<path fill-rule="evenodd" clip-rule="evenodd" d="M12.5359 5.59961C10.7977 5.59961 10.5796 5.60721 9.89689 5.63828C9.21555 5.66948 8.75048 5.77734 8.34354 5.93561C7.92261 6.09908 7.56554 6.31775 7.2098 6.67362C6.85379 7.02936 6.63513 7.38643 6.47112 7.80723C6.31246 8.2143 6.20445 8.67951 6.17379 9.36058C6.14325 10.0433 6.13525 10.2615 6.13525 11.9997C6.13525 13.7378 6.14299 13.9553 6.17392 14.638C6.20525 15.3193 6.31312 15.7844 6.47126 16.1913C6.63486 16.6123 6.85353 16.9693 7.2094 17.3251C7.565 17.6811 7.92207 17.9003 8.34274 18.0637C8.74995 18.222 9.21515 18.3299 9.89636 18.3611C10.579 18.3921 10.797 18.3997 12.5351 18.3997C14.2733 18.3997 14.4908 18.3921 15.1735 18.3611C15.8548 18.3299 16.3204 18.222 16.7276 18.0637C17.1484 17.9003 17.505 17.6811 17.8606 17.3251C18.2166 16.9693 18.4352 16.6123 18.5993 16.1915C18.7566 15.7844 18.8646 15.3192 18.8966 14.6381C18.9273 13.9554 18.9353 13.7378 18.9353 11.9997C18.9353 10.2615 18.9273 10.0434 18.8966 9.36072C18.8646 8.67937 18.7566 8.2143 18.5993 7.80737C18.4352 7.38643 18.2166 7.02936 17.8606 6.67362C17.5046 6.31762 17.1486 6.09895 16.7272 5.93561C16.3192 5.77734 15.8539 5.66948 15.1725 5.63828C14.4899 5.60721 14.2725 5.59961 12.5339 5.59961H12.5359ZM11.9617 6.75294C12.1321 6.75267 12.3222 6.75294 12.5358 6.75294C14.2446 6.75294 14.4472 6.75907 15.122 6.78974C15.746 6.81827 16.0847 6.92254 16.3103 7.01014C16.6089 7.12614 16.8219 7.26481 17.0457 7.48881C17.2697 7.71281 17.4084 7.92615 17.5247 8.22482C17.6123 8.45015 17.7167 8.78882 17.7451 9.41283C17.7757 10.0875 17.7824 10.2902 17.7824 11.9982C17.7824 13.7062 17.7757 13.9089 17.7451 14.5836C17.7165 15.2076 17.6123 15.5462 17.5247 15.7716C17.4087 16.0702 17.2697 16.2829 17.0457 16.5068C16.8217 16.7308 16.6091 16.8694 16.3103 16.9854C16.0849 17.0734 15.746 17.1774 15.122 17.206C14.4473 17.2366 14.2446 17.2433 12.5358 17.2433C10.8269 17.2433 10.6243 17.2366 9.94965 17.206C9.32565 17.1772 8.98698 17.0729 8.76124 16.9853C8.46257 16.8693 8.24924 16.7306 8.02523 16.5066C7.80123 16.2826 7.66256 16.0698 7.54629 15.771C7.45869 15.5457 7.35429 15.207 7.32589 14.583C7.29523 13.9083 7.28909 13.7057 7.28909 11.9966C7.28909 10.2875 7.29523 10.0859 7.32589 9.41123C7.35443 8.78722 7.45869 8.44855 7.54629 8.22295C7.6623 7.92428 7.80123 7.71095 8.02523 7.48694C8.24924 7.26294 8.46257 7.12427 8.76124 7.00801C8.98684 6.92 9.32565 6.816 9.94965 6.78734C10.5401 6.76067 10.7689 6.75267 11.9617 6.75134V6.75294ZM15.9517 7.81568C15.5277 7.81568 15.1837 8.15929 15.1837 8.58342C15.1837 9.00743 15.5277 9.35143 15.9517 9.35143C16.3757 9.35143 16.7197 9.00743 16.7197 8.58342C16.7197 8.15942 16.3757 7.81542 15.9517 7.81542V7.81568ZM12.5356 8.71296C10.7205 8.71296 9.24891 10.1846 9.24891 11.9997C9.24891 13.8147 10.7205 15.2857 12.5356 15.2857C14.3507 15.2857 15.8218 13.8147 15.8218 11.9997C15.8218 10.1846 14.3506 8.71296 12.5355 8.71296H12.5356ZM12.5359 9.86634C13.7141 9.86634 14.6693 10.8214 14.6693 11.9997C14.6693 13.1778 13.7141 14.133 12.5359 14.133C11.3577 14.133 10.4026 13.1778 10.4026 11.9997C10.4026 10.8214 11.3577 9.86634 12.5359 9.86634Z" fill="white"/>
</svg>
