<svg width="20" height="20" viewBox="0 0 20 20" fill="none" xmlns="http://www.w3.org/2000/svg">
<g clip-path="url(#clip0)">
<path d="M0 4C0 1.79086 1.79086 0 4 0H16C18.2091 0 20 1.79086 20 4V16C20 18.2091 18.2091 20 16 20H4C1.79086 20 0 18.2091 0 16V4Z" fill="white"/>
</g>
<path d="M4 2H16V-2H4V2ZM18 4V16H22V4H18ZM16 18H4V22H16V18ZM2 16V4H-2V16H2ZM4 18C2.89543 18 2 17.1046 2 16H-2C-2 19.3137 0.686291 22 4 22V18ZM18 16C18 17.1046 17.1046 18 16 18V22C19.3137 22 22 19.3137 22 16H18ZM16 2C17.1046 2 18 2.89543 18 4H22C22 0.686292 19.3137 -2 16 -2V2ZM4 -2C0.686292 -2 -2 0.686291 -2 4H2C2 2.89543 2.89543 2 4 2V-2Z" fill="#E6DFD1"/>
<defs>
<clipPath id="clip0">
<path d="M0 4C0 1.79086 1.79086 0 4 0H16C18.2091 0 20 1.79086 20 4V16C20 18.2091 18.2091 20 16 20H4C1.79086 20 0 18.2091 0 16V4Z" fill="white"/>
</clipPath>
</defs>
</svg>
