<svg width="16" height="17" viewBox="0 0 16 17" fill="none" xmlns="http://www.w3.org/2000/svg">
<path fill-rule="evenodd" clip-rule="evenodd" d="M12 2.50031H4C2.89667 2.50031 2 3.39697 2 4.50031V12.5003C2 13.603 2.89667 14.5003 4 14.5003H12C13.1027 14.5003 14 13.603 14 12.5003V4.50031C14 3.39697 13.1027 2.50031 12 2.50031Z" fill="#0EA36C"/>
<path d="M12 2.50031H4C2.89667 2.50031 2 3.39697 2 4.50031V12.5003C2 13.603 2.89667 14.5003 4 14.5003H12C13.1027 14.5003 14 13.603 14 12.5003V4.50031C14 3.39697 13.1027 2.50031 12 2.50031" stroke="#0EA36C"/>
<path fill-rule="evenodd" clip-rule="evenodd" d="M10.8637 6.90366L7.81832 10.9037C7.69298 11.0683 7.49898 11.1657 7.29232 11.167H7.28765C7.08298 11.167 6.88965 11.0723 6.76298 10.911L5.14165 8.83966C4.91498 8.55033 4.96565 8.13099 5.25565 7.90433C5.54565 7.67699 5.96432 7.72766 6.19165 8.01833L7.28032 9.40899L9.80298 6.09633C10.0257 5.80366 10.4443 5.74633 10.7377 5.96966C11.0303 6.19299 11.087 6.61099 10.8637 6.90366Z" fill="white"/>
</svg>
