<svg width="21" height="20" viewBox="0 0 21 20" fill="none" xmlns="http://www.w3.org/2000/svg">
<path opacity="0.3" fill-rule="evenodd" clip-rule="evenodd" d="M10.5 20.0005C16.0228 20.0005 20.5 15.5233 20.5 10.0005C20.5 4.47764 16.0228 0.000488281 10.5 0.000488281C4.97715 0.000488281 0.5 4.47764 0.5 10.0005C0.5 15.5233 4.97715 20.0005 10.5 20.0005ZM8.66667 14.5838C8.90988 14.5838 9.02103 14.4756 9.15536 14.3448L9.16667 14.3338L10.3678 13.1659L12.8667 15.0121C13.3265 15.2658 13.6585 15.1344 13.773 14.5851L15.4134 6.85486C15.5814 6.18151 15.1567 5.87611 14.7168 6.07585L5.0843 9.7901C4.42679 10.0538 4.43062 10.4206 4.96445 10.5841L7.43637 11.3556L13.1591 7.74521C13.4293 7.58138 13.6772 7.66946 13.4737 7.85007L8.8369 12.0344L8.83683 12.0344L8.83683 12.0345L8.83667 12.0347L8.83681 12.0348L8.66667 14.5838Z" fill="#575552"/>
</svg>
