<svg width="13" height="13" viewBox="0 0 13 13" fill="none" xmlns="http://www.w3.org/2000/svg">
<path d="M9.23145 2.92017L6.49645 5.65517C6.4262 5.72551 6.33086 5.76504 6.23145 5.76504C6.13203 5.76504 6.03669 5.72551 5.96645 5.65517L5.10645 4.79517" stroke="#897E76" stroke-linecap="round" stroke-linejoin="round"/>
<path d="M2.58995 6.87158L0.606445 9.29558L2.48145 9.67058L3.23145 11.9206L5.22645 8.75458" stroke="#897E76" stroke-linecap="round" stroke-linejoin="round"/>
<path d="M9.8721 6.87158L11.8556 9.29558L9.9806 9.67058L9.2306 11.9206L7.2356 8.75458" stroke="#897E76" stroke-linecap="round" stroke-linejoin="round"/>
<path d="M9.98115 5.0638L10.4032 6.1718C10.4662 6.3365 10.4058 6.52288 10.2582 6.6193L9.26515 7.2693L8.95515 8.4143C8.90907 8.58444 8.75071 8.69951 8.57465 8.6908L7.39015 8.6318L6.46665 9.3758C6.3291 9.48631 6.1332 9.48631 5.99565 9.3758L5.07215 8.6303L3.88765 8.6893C3.7116 8.69801 3.55324 8.58294 3.50715 8.4128L3.19715 7.2678L2.20415 6.6178C2.05648 6.52138 1.99609 6.335 2.05915 6.1703L2.48115 5.0638L2.05915 3.9553C1.99493 3.78988 2.05544 3.6021 2.20415 3.5053L3.19715 2.8553L3.50715 1.7103C3.55324 1.54016 3.7116 1.42508 3.88765 1.4338L5.07215 1.4953L5.99565 0.753296C6.1332 0.642781 6.3291 0.642781 6.46665 0.753296L7.39015 1.4953" stroke="#897E76" stroke-linecap="round" stroke-linejoin="round"/>
</svg>
