<svg width="16" height="16" viewBox="0 0 16 16" fill="none" xmlns="http://www.w3.org/2000/svg">
<path fill-rule="evenodd" clip-rule="evenodd" d="M11.7083 13.9707C11.6023 13.9707 11.4963 13.946 11.3997 13.8953L8.00035 12.1193L4.60102 13.8953C4.37568 14.0127 4.10368 13.992 3.90035 13.8427C3.69502 13.6933 3.59302 13.4407 3.63568 13.1907L4.28368 9.43865L1.53702 6.78198C1.35368 6.60532 1.28835 6.33998 1.36635 6.09798C1.44368 5.85598 1.65302 5.67998 1.90435 5.64332L5.70502 5.09132L7.40302 1.67398C7.62835 1.22065 8.37235 1.22065 8.59768 1.67398L10.2957 5.09132L14.0963 5.64332C14.3477 5.67998 14.557 5.85598 14.6343 6.09798C14.7123 6.33998 14.647 6.60532 14.4637 6.78198L11.717 9.43865L12.365 13.1907C12.4077 13.4407 12.3057 13.6933 12.1003 13.8427C11.985 13.928 11.847 13.9707 11.7083 13.9707Z" fill="#E64825"/>
<path fill-rule="evenodd" clip-rule="evenodd" d="M8.0011 10.6995C8.1071 10.6995 8.2131 10.7248 8.30976 10.7748L10.8224 12.0881L10.3444 9.3168C10.3064 9.09946 10.3791 8.87813 10.5378 8.72413L12.5618 6.7668L9.75976 6.3588C9.5431 6.32746 9.35576 6.19213 9.25843 5.99613L8.0011 3.4668L6.74376 5.99613C6.64643 6.19213 6.4591 6.32746 6.24243 6.3588L3.44043 6.7668L5.46443 8.72413C5.6231 8.87813 5.69576 9.09946 5.65776 9.3168L5.17976 12.0881L7.69243 10.7748C7.7891 10.7248 7.8951 10.6995 8.0011 10.6995Z" fill="#E64825"/>
</svg>
