<svg width="32" height="32" viewBox="0 0 32 32" fill="none" xmlns="http://www.w3.org/2000/svg">
<path fill-rule="evenodd" clip-rule="evenodd" d="M23.626 27.0577C22.7094 27.0584 21.8477 26.701 21.1992 26.0528C20.5508 25.4043 20.1935 24.5421 20.1935 23.6254V15.3386L26.0534 21.198C26.7011 21.8465 27.0584 22.7083 27.0584 23.6254C27.0584 25.518 25.5191 27.0577 23.626 27.0577ZM17.2533 20.7174L11.2819 14.7466H17.2533V20.7174ZM15.0833 25.2324C14.8104 25.5061 14.5106 25.7528 14.1881 25.9688L6.03077 17.8114C6.24583 17.4902 6.49253 17.1904 6.76734 16.9162L8.03012 15.6529L16.3467 23.9691L15.0833 25.2318V25.2324ZM10.9253 26.9548H5.04478V21.0742C5.04478 21.0454 5.04845 21.017 5.04912 20.9879L11.0115 26.9509C10.9827 26.9509 10.954 26.9548 10.9253 26.9548ZM4.9416 8.3733C4.9416 6.48072 6.48152 4.9413 8.37403 4.9413C9.29057 4.9413 10.153 5.29773 10.8011 5.94623L16.6609 11.8063L8.37437 11.8056C7.45749 11.8063 6.59538 11.4492 5.94696 10.8007C5.29854 10.1522 4.9416 9.29036 4.9416 8.3733ZM28.1325 19.1198L23.7595 14.7466H24.7495V14.7476C25.6664 14.7476 26.5285 15.1043 27.1769 15.7525L29.2574 13.6724C28.0534 12.4688 26.4527 11.8063 24.7505 11.8063V7.24945L20.1939 7.24847C20.1939 5.54635 19.5314 3.94616 18.3274 2.74194L16.2472 4.82271C16.896 5.47121 17.2526 6.33305 17.2526 7.2501H17.2536V8.23936L12.8799 3.86645C11.6766 2.66288 10.0752 2 8.37403 2C4.85947 1.99967 2 4.85832 2 8.37298C2 10.0754 2.66311 11.6759 3.86713 12.8795C4.33739 13.3496 4.88053 13.7441 5.4765 14.0484L4.68785 14.8365C3.02172 16.503 2.10451 18.718 2.10384 21.0742V29.8958H10.9253C13.2813 29.8958 15.4963 28.9778 17.1625 27.3116L17.9511 26.5232C18.253 27.1158 18.6472 27.6589 19.1197 28.1329C20.3241 29.3365 21.9244 29.9993 23.6263 30C27.1405 29.9997 29.9993 27.1407 30 23.6264C30 21.9239 29.3366 20.3234 28.1325 19.1198Z" fill="white"/>
</svg>
