<svg width="16" height="16" viewBox="0 0 16 16" fill="none" xmlns="http://www.w3.org/2000/svg">
<path fill-rule="evenodd" clip-rule="evenodd" d="M8.00016 10.6667C7.26505 10.6667 6.66683 10.0684 6.66683 9.33333C6.66683 8.59822 7.26505 8 8.00016 8C8.73527 8 9.3335 8.59822 9.3335 9.33333C9.3335 10.0684 8.73527 10.6667 8.00016 10.6667ZM8.00016 6.66667C6.52969 6.66667 5.3335 7.86286 5.3335 9.33333C5.3335 10.8038 6.52969 12 8.00016 12C9.47064 12 10.6668 10.8038 10.6668 9.33333C10.6668 7.86286 9.47064 6.66667 8.00016 6.66667ZM13.3335 12C13.3335 12.3673 13.0348 12.6667 12.6668 12.6667H3.3335C2.9655 12.6667 2.66683 12.3673 2.66683 12V6.66667C2.66683 6.29933 2.9655 6 3.3335 6H12.6668C13.0348 6 13.3335 6.29933 13.3335 6.66667V12ZM6.00016 3.66667C6.00016 3.48267 6.22516 3.33333 6.50016 3.33333H9.50016C9.77516 3.33333 10.0002 3.48267 10.0002 3.66667V4.66667H6.00016V3.66667ZM12.6668 4.66667H11.3335V3.66667C11.3335 2.748 10.5862 2 9.66683 2H6.3335C5.41416 2 4.66683 2.748 4.66683 3.66667V4.66667H3.3335C2.23083 4.66667 1.3335 5.564 1.3335 6.66667V12C1.3335 13.1027 2.23083 14 3.3335 14H12.6668C13.7695 14 14.6668 13.1027 14.6668 12V6.66667C14.6668 5.564 13.7695 4.66667 12.6668 4.66667Z" fill="#81766F"/>
<ellipse cx="12.0002" cy="7.33366" rx="0.666667" ry="0.666667" fill="#81766F"/>
</svg>
