<svg width="24" height="24" viewBox="0 0 24 24" fill="none" xmlns="http://www.w3.org/2000/svg">
<rect width="24" height="24" rx="12" fill="#81766F"/>
<path fill-rule="evenodd" clip-rule="evenodd" d="M16.4027 15.3456C16.0084 15.8642 15.4259 16.2737 14.6688 16.5642C13.9211 16.8528 13.0252 17 12.0042 17C10.7792 17 9.75184 16.8001 8.94953 16.4053C8.37645 16.1187 7.90431 15.7307 7.54574 15.249C7.18297 14.7655 7 14.2849 7 13.8198C7 13.5312 7.11987 13.2797 7.35542 13.074C7.58885 12.8693 7.88854 12.7669 8.24606 12.7669C8.53838 12.7669 8.7918 12.8478 8.99685 13.0087C9.19348 13.1637 9.36172 13.3928 9.49737 13.6863C9.64879 14.008 9.81283 14.279 9.98633 14.4906C10.1546 14.6972 10.3954 14.8698 10.7024 15.0053C11.0116 15.1399 11.429 15.2101 11.9411 15.2101C12.6467 15.2101 13.225 15.0697 13.6593 14.7947C14.0852 14.5266 14.2913 14.203 14.2913 13.8071C14.2913 13.4961 14.183 13.2505 13.9621 13.0574C13.7287 12.8566 13.4227 12.7006 13.0515 12.5914C12.6635 12.4803 12.1377 12.3584 11.4869 12.2317C10.6004 12.0562 9.84858 11.8485 9.25131 11.6116C8.63933 11.3708 8.14616 11.0364 7.78549 10.6182C7.41956 10.1921 7.23344 9.65887 7.23344 9.032C7.23344 8.43535 7.42797 7.89622 7.81283 7.43215C8.19348 6.97102 8.75079 6.6103 9.46898 6.36559C10.1767 6.12284 11.0179 6 11.9716 6C12.7329 6 13.4027 6.08189 13.9621 6.24373C14.5247 6.40557 14.9979 6.62395 15.3701 6.894C15.7455 7.16698 16.0252 7.45653 16.1998 7.75875C16.3764 8.0639 16.4669 8.3671 16.4669 8.66055C16.4669 8.94328 16.3491 9.20066 16.1167 9.42391C15.8833 9.65009 15.5878 9.76416 15.2408 9.76416C14.9253 9.76416 14.6772 9.69201 14.5068 9.55163C14.347 9.42001 14.1809 9.21528 13.9968 8.9228C13.7844 8.54844 13.5268 8.25304 13.2313 8.0444C12.9443 7.84162 12.4658 7.74023 11.8065 7.74023C11.1966 7.74023 10.6982 7.85332 10.3291 8.07853C9.97371 8.29398 9.80021 8.54259 9.80021 8.83701C9.80021 9.0164 9.85594 9.16751 9.97161 9.2962C10.0915 9.43464 10.2629 9.55358 10.4795 9.65497C10.7035 9.75928 10.9348 9.84313 11.1661 9.90162C11.4027 9.96304 11.8002 10.0537 12.346 10.1707C13.0368 10.3072 13.6709 10.4622 14.2313 10.6289C14.8002 10.7966 15.2902 11.0033 15.6919 11.246C16.0999 11.4927 16.4227 11.8086 16.653 12.1868C16.8833 12.568 17 13.036 17 13.581C17 14.2322 16.7981 14.8259 16.4027 15.3456Z" fill="white"/>
</svg>
