<svg width="44" height="43" viewBox="0 0 44 43" fill="none" xmlns="http://www.w3.org/2000/svg">
<path fill-rule="evenodd" clip-rule="evenodd" d="M36.6667 32.25C36.6667 33.2372 35.8436 34.0417 34.8334 34.0417H31.1667V16.125H34.8334C35.8436 16.125 36.6667 16.9295 36.6667 17.9167V32.25ZM7.33341 32.25V17.9167C7.33341 16.9295 8.15658 16.125 9.16675 16.125H12.8334V34.0417H9.16675C8.15658 34.0417 7.33341 33.2372 7.33341 32.25ZM18.3334 9.85417C18.3334 9.35967 18.7441 8.95833 19.2501 8.95833H24.7501C25.2561 8.95833 25.6667 9.35967 25.6667 9.85417V12.5417H18.3334V9.85417ZM16.5001 34.0417H27.5001V16.125H16.5001V34.0417ZM34.8334 12.5417H29.3334V9.85417C29.3334 7.38525 27.2764 5.375 24.7501 5.375H19.2501C16.7237 5.375 14.6667 7.38525 14.6667 9.85417V12.5417H9.16675C6.13441 12.5417 3.66675 14.9532 3.66675 17.9167V32.25C3.66675 35.2134 6.13441 37.625 9.16675 37.625H34.8334C37.8657 37.625 40.3334 35.2134 40.3334 32.25V17.9167C40.3334 14.9532 37.8657 12.5417 34.8334 12.5417Z" fill="#E6DFD1"/>
<mask id="mask0" mask-type="alpha" maskUnits="userSpaceOnUse" x="3" y="5" width="38" height="33">
<path fill-rule="evenodd" clip-rule="evenodd" d="M36.6667 32.25C36.6667 33.2372 35.8436 34.0417 34.8334 34.0417H31.1667V16.125H34.8334C35.8436 16.125 36.6667 16.9295 36.6667 17.9167V32.25ZM7.33341 32.25V17.9167C7.33341 16.9295 8.15658 16.125 9.16675 16.125H12.8334V34.0417H9.16675C8.15658 34.0417 7.33341 33.2372 7.33341 32.25ZM18.3334 9.85417C18.3334 9.35967 18.7441 8.95833 19.2501 8.95833H24.7501C25.2561 8.95833 25.6667 9.35967 25.6667 9.85417V12.5417H18.3334V9.85417ZM16.5001 34.0417H27.5001V16.125H16.5001V34.0417ZM34.8334 12.5417H29.3334V9.85417C29.3334 7.38525 27.2764 5.375 24.7501 5.375H19.2501C16.7237 5.375 14.6667 7.38525 14.6667 9.85417V12.5417H9.16675C6.13441 12.5417 3.66675 14.9532 3.66675 17.9167V32.25C3.66675 35.2134 6.13441 37.625 9.16675 37.625H34.8334C37.8657 37.625 40.3334 35.2134 40.3334 32.25V17.9167C40.3334 14.9532 37.8657 12.5417 34.8334 12.5417Z" fill="white"/>
</mask>
<g mask="url(#mask0)">
</g>
</svg>
