<svg width="20" height="20" viewBox="0 0 20 20" fill="none" xmlns="http://www.w3.org/2000/svg">
<path fill-rule="evenodd" clip-rule="evenodd" d="M11.1785 9.99972L14.756 6.42222C15.0819 6.09639 15.0819 5.56972 14.756 5.24389C14.4302 4.91805 13.9035 4.91805 13.5777 5.24389L10.0002 8.82139L6.42271 5.24389C6.09687 4.91805 5.57021 4.91805 5.24437 5.24389C4.91854 5.56972 4.91854 6.09639 5.24437 6.42222L8.82187 9.99972L5.24437 13.5772C4.91854 13.9031 4.91854 14.4297 5.24437 14.7556C5.40687 14.9181 5.62021 14.9997 5.83354 14.9997C6.04687 14.9997 6.26021 14.9181 6.42271 14.7556L10.0002 11.1781L13.5777 14.7556C13.7402 14.9181 13.9535 14.9997 14.1669 14.9997C14.3802 14.9997 14.5935 14.9181 14.756 14.7556C15.0819 14.4297 15.0819 13.9031 14.756 13.5772L11.1785 9.99972Z" fill="white"/>
<mask id="mask0" mask-type="alpha" maskUnits="userSpaceOnUse" x="5" y="4" width="11" height="11">
<path fill-rule="evenodd" clip-rule="evenodd" d="M11.1785 9.99972L14.756 6.42222C15.0819 6.09639 15.0819 5.56972 14.756 5.24389C14.4302 4.91805 13.9035 4.91805 13.5777 5.24389L10.0002 8.82139L6.42271 5.24389C6.09687 4.91805 5.57021 4.91805 5.24437 5.24389C4.91854 5.56972 4.91854 6.09639 5.24437 6.42222L8.82187 9.99972L5.24437 13.5772C4.91854 13.9031 4.91854 14.4297 5.24437 14.7556C5.40687 14.9181 5.62021 14.9997 5.83354 14.9997C6.04687 14.9997 6.26021 14.9181 6.42271 14.7556L10.0002 11.1781L13.5777 14.7556C13.7402 14.9181 13.9535 14.9997 14.1669 14.9997C14.3802 14.9997 14.5935 14.9181 14.756 14.7556C15.0819 14.4297 15.0819 13.9031 14.756 13.5772L11.1785 9.99972Z" fill="white"/>
</mask>
<g mask="url(#mask0)">
</g>
</svg>
