<svg width="24" height="24" viewBox="0 0 24 24" fill="none" xmlns="http://www.w3.org/2000/svg">
<rect x="0.5" y="0.5" width="23" height="23" rx="11.5" fill="white"/>
<path fill-rule="evenodd" clip-rule="evenodd" d="M10.1968 17.2732C9.76268 17.2732 9.83645 17.1122 9.68673 16.7064L8.41016 12.5813L18.2366 6.85742" fill="#BAB5AB"/>
<path fill-rule="evenodd" clip-rule="evenodd" d="M10.1953 17.2731C10.5303 17.2731 10.6783 17.1227 10.8653 16.9442L12.6519 15.2385L10.4233 13.9189" fill="#575552"/>
<path fill-rule="evenodd" clip-rule="evenodd" d="M10.4233 13.9192L15.8234 17.8365C16.4396 18.1704 16.8844 17.9975 17.0378 17.2748L19.236 7.10432C19.461 6.21841 18.892 5.8166 18.3025 6.07938L5.3952 10.9661C4.51415 11.3131 4.51929 11.7957 5.2346 12.0108L8.54691 13.0258L16.2153 8.27572C16.5773 8.06018 16.9095 8.17605 16.6368 8.41369" fill="#897E76"/>
<rect x="0.5" y="0.5" width="23" height="23" rx="11.5" stroke="#F3EFE7"/>
</svg>
