<svg width="17" height="16" viewBox="0 0 17 16" fill="none" xmlns="http://www.w3.org/2000/svg">
<path fill-rule="evenodd" clip-rule="evenodd" d="M12.2311 12.2668H10.6365V8.53347C10.6365 8.23854 10.3975 8.00014 10.1031 8.00014H6.90312C6.60819 8.00014 6.36979 8.23854 6.36979 8.53347V12.2668H4.76979L4.77299 7.77774L8.50206 3.96387L12.2365 7.79961L12.2311 12.2668ZM7.43646 12.2668H9.56979V9.06681H7.43646V12.2668ZM12.9959 7.03214L8.88446 2.82734C8.68339 2.62201 8.32286 2.62201 8.12179 2.82734L4.00979 7.03267C3.81512 7.23267 3.70312 7.51214 3.70312 7.79961V12.2668C3.70312 12.8551 4.15486 13.3335 4.71006 13.3335H6.90312H10.1031H12.2957C12.8509 13.3335 13.3031 12.8551 13.3031 12.2668V7.79961C13.3031 7.51214 13.1911 7.23267 12.9959 7.03214Z" fill="#575552"/>
<mask id="mask0" mask-type="alpha" maskUnits="userSpaceOnUse" x="3" y="2" width="11" height="12">
<path fill-rule="evenodd" clip-rule="evenodd" d="M12.2311 12.2668H10.6365V8.53347C10.6365 8.23854 10.3975 8.00014 10.1031 8.00014H6.90312C6.60819 8.00014 6.36979 8.23854 6.36979 8.53347V12.2668H4.76979L4.77299 7.77774L8.50206 3.96387L12.2365 7.79961L12.2311 12.2668ZM7.43646 12.2668H9.56979V9.06681H7.43646V12.2668ZM12.9959 7.03214L8.88446 2.82734C8.68339 2.62201 8.32286 2.62201 8.12179 2.82734L4.00979 7.03267C3.81512 7.23267 3.70312 7.51214 3.70312 7.79961V12.2668C3.70312 12.8551 4.15486 13.3335 4.71006 13.3335H6.90312H10.1031H12.2957C12.8509 13.3335 13.3031 12.8551 13.3031 12.2668V7.79961C13.3031 7.51214 13.1911 7.23267 12.9959 7.03214Z" fill="white"/>
</mask>
<g mask="url(#mask0)">
<rect x="2.10156" y="1.6001" width="12.8" height="12.8" fill="#575552"/>
</g>
</svg>
