<svg width="20" height="20" viewBox="0 0 20 20" fill="none" xmlns="http://www.w3.org/2000/svg">
<circle cx="10" cy="10" r="9" fill="#0EA36C"/>
<path d="M9.21 12.153V10.086C9.912 10.0513 10.4493 9.904 10.822 9.644C11.2033 9.37533 11.394 8.981 11.394 8.461V8.279C11.394 7.88033 11.2727 7.57267 11.03 7.356C10.7873 7.13067 10.4623 7.018 10.055 7.018C9.62167 7.018 9.275 7.14367 9.015 7.395C8.755 7.64633 8.57733 7.967 8.482 8.357L7.247 7.863C7.325 7.59433 7.43767 7.33433 7.585 7.083C7.741 6.83167 7.936 6.61067 8.17 6.42C8.404 6.22067 8.68133 6.06467 9.002 5.952C9.32267 5.83067 9.691 5.77 10.107 5.77C10.5317 5.77 10.9173 5.83067 11.264 5.952C11.6107 6.07333 11.9053 6.24667 12.148 6.472C12.3907 6.68867 12.577 6.95733 12.707 7.278C12.837 7.59 12.902 7.93667 12.902 8.318C12.902 8.708 12.8327 9.059 12.694 9.371C12.564 9.67433 12.3863 9.93433 12.161 10.151C11.9443 10.3677 11.6973 10.5453 11.42 10.684C11.1427 10.814 10.8567 10.905 10.562 10.957V12.153H9.21ZM9.899 15.156C9.56967 15.156 9.327 15.078 9.171 14.922C9.02367 14.7573 8.95 14.5493 8.95 14.298V14.077C8.95 13.8257 9.02367 13.622 9.171 13.466C9.327 13.3013 9.56967 13.219 9.899 13.219C10.2283 13.219 10.4667 13.3013 10.614 13.466C10.77 13.622 10.848 13.8257 10.848 14.077V14.298C10.848 14.5493 10.77 14.7573 10.614 14.922C10.4667 15.078 10.2283 15.156 9.899 15.156Z" fill="#FBF8F4"/>
<g filter="url(#filter0_d)">
<path d="M-14 -72C-14 -75.3137 -11.3137 -78 -8 -78H168C171.314 -78 174 -75.3137 174 -72V-14C174 -10.6863 171.314 -8 168 -8H-8C-11.3137 -8 -14 -10.6863 -14 -14V-72Z" fill="white"/>
</g>
<defs>
<filter id="filter0_d" x="-20" y="-84" width="204" height="86" filterUnits="userSpaceOnUse" color-interpolation-filters="sRGB">
<feFlood flood-opacity="0" result="BackgroundImageFix"/>
<feColorMatrix in="SourceAlpha" type="matrix" values="0 0 0 0 0 0 0 0 0 0 0 0 0 0 0 0 0 0 127 0"/>
<feOffset dx="2" dy="2"/>
<feGaussianBlur stdDeviation="4"/>
<feColorMatrix type="matrix" values="0 0 0 0 0.505882 0 0 0 0 0.462745 0 0 0 0 0.435294 0 0 0 0.12 0"/>
<feBlend mode="normal" in2="BackgroundImageFix" result="effect1_dropShadow"/>
<feBlend mode="normal" in="SourceGraphic" in2="effect1_dropShadow" result="shape"/>
</filter>
</defs>
</svg>
