<svg width="24" height="24" viewBox="0 0 24 24" fill="none" xmlns="http://www.w3.org/2000/svg">
<path fill-rule="evenodd" clip-rule="evenodd" d="M2.9995 20.0002C2.9995 19.8082 3.0545 19.6162 3.1655 19.4482L7.7325 12.5522C7.9545 12.2172 7.9545 11.7832 7.7325 11.4482L3.1655 4.55223C2.9165 4.17423 2.9505 3.67623 3.2505 3.33723C3.5515 2.99823 4.0415 2.90323 4.4465 3.10523L20.4465 11.1052C21.1845 11.4742 21.1845 12.5262 20.4465 12.8952L4.4465 20.8952C4.0415 21.0972 3.5515 21.0022 3.2505 20.6632C3.0845 20.4752 2.9995 20.2382 2.9995 20.0002Z" fill="#231F20"/>
<mask id="mask0" mask-type="alpha" maskUnits="userSpaceOnUse" x="3" y="3" width="19" height="19">
<path fill-rule="evenodd" clip-rule="evenodd" d="M2.9995 20.0002C2.9995 19.8082 3.0545 19.6162 3.1655 19.4482L7.7325 12.5522C7.9545 12.2172 7.9545 11.7832 7.7325 11.4482L3.1655 4.55223C2.9165 4.17423 2.9505 3.67623 3.2505 3.33723C3.5515 2.99823 4.0415 2.90323 4.4465 3.10523L20.4465 11.1052C21.1845 11.4742 21.1845 12.5262 20.4465 12.8952L4.4465 20.8952C4.0415 21.0972 3.5515 21.0022 3.2505 20.6632C3.0845 20.4752 2.9995 20.2382 2.9995 20.0002Z" fill="white"/>
</mask>
<g mask="url(#mask0)">
<rect x="24" width="24" height="24" transform="rotate(90 24 0)" fill="#0EA36C"/>
</g>
</svg>
