<svg width="24" height="24" viewBox="0 0 24 24" fill="none" xmlns="http://www.w3.org/2000/svg">
<rect width="24" height="24" rx="12" fill="#81766F"/>
<path fill-rule="evenodd" clip-rule="evenodd" d="M12.6278 15.5703C12.6278 15.5703 12.8588 15.545 12.9772 15.4197C13.0855 15.3049 13.0817 15.0882 13.0817 15.0882C13.0817 15.0882 13.0673 14.0765 13.5437 13.9271C14.0133 13.7802 14.6162 14.9055 15.256 15.3382C15.7393 15.6654 16.1062 15.5938 16.1062 15.5938L17.8159 15.5703C17.8159 15.5703 18.7099 15.516 18.2861 14.8228C18.251 14.766 18.0388 14.3098 17.0152 13.3728C15.9428 12.392 16.0867 12.5506 17.3777 10.8537C18.164 9.82042 18.4783 9.18957 18.38 8.91982C18.2867 8.66181 17.7082 8.73032 17.7082 8.73032L15.7837 8.74205C15.7837 8.74205 15.641 8.72292 15.5352 8.78526C15.4319 8.84637 15.3649 8.98896 15.3649 8.98896C15.3649 8.98896 15.0607 9.78832 14.6543 10.4686C13.7973 11.9031 13.4548 11.979 13.3146 11.8901C12.9884 11.6821 13.0698 11.0556 13.0698 10.6105C13.0698 9.21982 13.2839 8.6402 12.6535 8.4902C12.4444 8.44021 12.2904 8.40749 11.7551 8.40194C11.0683 8.39515 10.4874 8.4044 10.1581 8.56304C9.93895 8.6686 9.76992 8.90439 9.87322 8.91797C10.0003 8.93464 10.2883 8.99451 10.441 9.19945C10.6382 9.46426 10.6314 10.0581 10.6314 10.0581C10.6314 10.0581 10.7447 11.6951 10.3665 11.8982C10.1074 12.0377 9.75176 11.7531 8.98736 10.4513C8.59608 9.78462 8.30058 9.0476 8.30058 9.0476C8.30058 9.0476 8.24361 8.90995 8.14157 8.83588C8.01823 8.74637 7.84607 8.71859 7.84607 8.71859L6.01738 8.73032C6.01738 8.73032 5.74255 8.73773 5.64175 8.85563C5.55223 8.95995 5.63487 9.17661 5.63487 9.17661C5.63487 9.17661 7.06664 12.4796 8.68811 14.1444C10.175 15.6703 11.8628 15.5703 11.8628 15.5703H12.6278Z" fill="white"/>
</svg>
