<svg width="56" height="56" viewBox="0 0 56 56" fill="none" xmlns="http://www.w3.org/2000/svg">
<path fill-rule="evenodd" clip-rule="evenodd" d="M27.9994 7C34.0217 7 39.3277 10.8757 41.241 16.4383C46.932 17.2107 51.3327 22.1013 51.3327 28C51.3327 30.849 50.2967 33.5907 48.416 35.721C47.954 36.2413 47.3124 36.5097 46.666 36.5097C46.1177 36.5097 45.567 36.3183 45.1213 35.9263C44.1577 35.07 44.0644 33.5977 44.9184 32.6293C46.0453 31.3553 46.666 29.708 46.666 28C46.666 24.1407 43.5254 21 39.666 21H39.4327C38.322 21 37.3654 20.216 37.146 19.1263C36.2734 14.805 32.428 11.6667 27.9994 11.6667C23.573 11.6667 19.7253 14.805 18.855 19.1263C18.6357 20.216 17.6767 21 16.566 21H16.3327C12.4733 21 9.33268 24.1407 9.33268 28C9.33268 29.708 9.95335 31.3553 11.0827 32.6293C11.9343 33.5977 11.8433 35.07 10.8773 35.9263C9.91135 36.7803 8.43668 36.6847 7.58502 35.721C5.70202 33.5907 4.66602 30.849 4.66602 28C4.66602 22.1013 9.06668 17.2107 14.7577 16.4383C16.6733 10.8757 21.9794 7 27.9994 7ZM26.3781 26.3202C27.2975 25.4429 28.7511 25.4499 29.6495 26.3506L36.6495 33.3506C37.5618 34.2629 37.5618 35.7376 36.6495 36.6499C36.1945 37.1049 35.5971 37.3336 34.9998 37.3336C34.4025 37.3336 33.8051 37.1049 33.3501 36.6499L30.3331 33.6329V46.6669C30.3331 47.9572 29.2878 49.0002 27.9998 49.0002C26.7118 49.0002 25.6665 47.9572 25.6665 46.6669V33.4976L22.6215 36.4376C21.6951 37.3359 20.2181 37.3056 19.3221 36.3792C18.4261 35.4506 18.4518 33.9759 19.3781 33.0799L26.3781 26.3202Z" fill="#231F20"/>
<mask id="mask0" mask-type="alpha" maskUnits="userSpaceOnUse" x="4" y="7" width="48" height="43">
<path fill-rule="evenodd" clip-rule="evenodd" d="M27.9994 7C34.0217 7 39.3277 10.8757 41.241 16.4383C46.932 17.2107 51.3327 22.1013 51.3327 28C51.3327 30.849 50.2967 33.5907 48.416 35.721C47.954 36.2413 47.3124 36.5097 46.666 36.5097C46.1177 36.5097 45.567 36.3183 45.1213 35.9263C44.1577 35.07 44.0644 33.5977 44.9184 32.6293C46.0453 31.3553 46.666 29.708 46.666 28C46.666 24.1407 43.5254 21 39.666 21H39.4327C38.322 21 37.3654 20.216 37.146 19.1263C36.2734 14.805 32.428 11.6667 27.9994 11.6667C23.573 11.6667 19.7253 14.805 18.855 19.1263C18.6357 20.216 17.6767 21 16.566 21H16.3327C12.4733 21 9.33268 24.1407 9.33268 28C9.33268 29.708 9.95335 31.3553 11.0827 32.6293C11.9343 33.5977 11.8433 35.07 10.8773 35.9263C9.91135 36.7803 8.43668 36.6847 7.58502 35.721C5.70202 33.5907 4.66602 30.849 4.66602 28C4.66602 22.1013 9.06668 17.2107 14.7577 16.4383C16.6733 10.8757 21.9794 7 27.9994 7ZM26.3781 26.3202C27.2975 25.4429 28.7511 25.4499 29.6495 26.3506L36.6495 33.3506C37.5618 34.2629 37.5618 35.7376 36.6495 36.6499C36.1945 37.1049 35.5971 37.3336 34.9998 37.3336C34.4025 37.3336 33.8051 37.1049 33.3501 36.6499L30.3331 33.6329V46.6669C30.3331 47.9572 29.2878 49.0002 27.9998 49.0002C26.7118 49.0002 25.6665 47.9572 25.6665 46.6669V33.4976L22.6215 36.4376C21.6951 37.3359 20.2181 37.3056 19.3221 36.3792C18.4261 35.4506 18.4518 33.9759 19.3781 33.0799L26.3781 26.3202Z" fill="white"/>
</mask>
<g mask="url(#mask0)">
<rect width="56" height="56" fill="#E6DFD1"/>
</g>
</svg>
