<svg width="21" height="20" viewBox="0 0 21 20" fill="none" xmlns="http://www.w3.org/2000/svg">
<path opacity="0.3" fill-rule="evenodd" clip-rule="evenodd" d="M10.5 0.000488281C4.97715 0.000488281 0.5 4.47764 0.5 10.0005C0.5 15.5233 4.97715 20.0005 10.5 20.0005C16.0228 20.0005 20.5 15.5233 20.5 10.0005C20.5 4.47764 16.0228 0.000488281 10.5 0.000488281ZM7.83342 11.3338C7.09709 11.3338 6.5001 11.9308 6.5001 12.6672C6.5001 13.4035 7.09709 14.0005 7.83342 14.0005C8.56974 14.0005 9.16674 13.4035 9.16674 12.6672C9.16674 11.9308 8.56974 11.3338 7.83342 11.3338ZM15.8333 14.0005H14.0557C14.0557 9.83416 10.6664 6.44482 6.5001 6.44482V4.66715C11.6464 4.66715 15.8333 8.85415 15.8333 14.0005ZM10.9446 14.0005H12.7223C12.7223 10.5695 9.93096 7.77815 6.5 7.77815V9.55616C8.95064 9.55616 10.9446 11.5498 10.9446 14.0005Z" fill="#575552"/>
</svg>
