<svg width="20" height="20" viewBox="0 0 20 20" fill="none" xmlns="http://www.w3.org/2000/svg">
<path d="M0 4C0 1.79086 1.79086 0 4 0H16C18.2091 0 20 1.79086 20 4V16C20 18.2091 18.2091 20 16 20H4C1.79086 20 0 18.2091 0 16V4Z" fill="#0EA36C"/>
<path fill-rule="evenodd" clip-rule="evenodd" d="M8.2194 15C7.9894 15 7.7694 14.905 7.6119 14.7375L3.5594 10.4217C3.24357 10.0867 3.26107 9.55916 3.59607 9.24416C3.9319 8.92916 4.4594 8.94583 4.77357 9.28083L8.21107 12.94L15.2177 5.27166C15.5294 4.93083 16.0561 4.90833 16.3961 5.21833C16.7352 5.52833 16.7586 6.05583 16.4486 6.395L8.8344 14.7283C8.67857 14.9 8.4569 14.9983 8.22524 15H8.2194Z" fill="white"/>
<mask id="mask0" mask-type="alpha" maskUnits="userSpaceOnUse" x="3" y="5" width="14" height="10">
<path fill-rule="evenodd" clip-rule="evenodd" d="M8.2194 15C7.9894 15 7.7694 14.905 7.6119 14.7375L3.5594 10.4217C3.24357 10.0867 3.26107 9.55916 3.59607 9.24416C3.9319 8.92916 4.4594 8.94583 4.77357 9.28083L8.21107 12.94L15.2177 5.27166C15.5294 4.93083 16.0561 4.90833 16.3961 5.21833C16.7352 5.52833 16.7586 6.05583 16.4486 6.395L8.8344 14.7283C8.67857 14.9 8.4569 14.9983 8.22524 15H8.2194Z" fill="white"/>
</mask>
<g mask="url(#mask0)">
</g>
</svg>
