<svg width="24" height="24" viewBox="0 0 24 24" fill="none" xmlns="http://www.w3.org/2000/svg">
<rect x="1.5" y="1.5" width="21" height="21" rx="6.5" fill="#81766F" stroke="#81766F" stroke-width="3"/>
<path fill-rule="evenodd" clip-rule="evenodd" d="M10.2201 16.9999C9.99014 16.9999 9.77014 16.9049 9.61264 16.7374L5.56014 12.4216C5.2443 12.0866 5.2618 11.5591 5.5968 11.2441C5.93264 10.9291 6.46014 10.9457 6.7743 11.2807L10.2118 14.9399L17.2185 7.27156C17.5301 6.93072 18.0568 6.90822 18.3968 7.21822C18.736 7.52822 18.7593 8.05572 18.4493 8.39489L10.8351 16.7282C10.6793 16.8999 10.4576 16.9982 10.226 16.9999H10.2201Z" fill="white"/>
<mask id="mask0" mask-type="alpha" maskUnits="userSpaceOnUse" x="5" y="7" width="14" height="10">
<path fill-rule="evenodd" clip-rule="evenodd" d="M10.2201 16.9999C9.99014 16.9999 9.77014 16.9049 9.61264 16.7374L5.56014 12.4216C5.2443 12.0866 5.2618 11.5591 5.5968 11.2441C5.93264 10.9291 6.46014 10.9457 6.7743 11.2807L10.2118 14.9399L17.2185 7.27156C17.5301 6.93072 18.0568 6.90822 18.3968 7.21822C18.736 7.52822 18.7593 8.05572 18.4493 8.39489L10.8351 16.7282C10.6793 16.8999 10.4576 16.9982 10.226 16.9999H10.2201Z" fill="white"/>
</mask>
<g mask="url(#mask0)">
</g>
</svg>
