<svg width="25" height="24" viewBox="0 0 25 24" fill="none" xmlns="http://www.w3.org/2000/svg">
<rect x="0.5" width="24" height="24" rx="12" fill="#575552"/>
<path fill-rule="evenodd" clip-rule="evenodd" d="M13.1278 15.5703C13.1278 15.5703 13.3588 15.545 13.4772 15.4197C13.5855 15.3049 13.5817 15.0882 13.5817 15.0882C13.5817 15.0882 13.5673 14.0765 14.0437 13.9271C14.5133 13.7802 15.1162 14.9055 15.756 15.3382C16.2393 15.6654 16.6062 15.5938 16.6062 15.5938L18.3159 15.5703C18.3159 15.5703 19.2099 15.516 18.7861 14.8228C18.751 14.766 18.5388 14.3098 17.5152 13.3728C16.4428 12.392 16.5867 12.5506 17.8777 10.8537C18.664 9.82042 18.9783 9.18957 18.88 8.91982C18.7867 8.66181 18.2082 8.73032 18.2082 8.73032L16.2837 8.74205C16.2837 8.74205 16.141 8.72292 16.0352 8.78526C15.9319 8.84637 15.8649 8.98896 15.8649 8.98896C15.8649 8.98896 15.5607 9.78832 15.1543 10.4686C14.2973 11.9031 13.9548 11.979 13.8146 11.8901C13.4884 11.6821 13.5698 11.0556 13.5698 10.6105C13.5698 9.21982 13.7839 8.6402 13.1535 8.4902C12.9444 8.44021 12.7904 8.40749 12.2551 8.40194C11.5683 8.39515 10.9874 8.4044 10.6581 8.56304C10.439 8.6686 10.2699 8.90439 10.3732 8.91797C10.5003 8.93464 10.7883 8.99451 10.941 9.19945C11.1382 9.46426 11.1314 10.0581 11.1314 10.0581C11.1314 10.0581 11.2447 11.6951 10.8665 11.8982C10.6074 12.0377 10.2518 11.7531 9.48736 10.4513C9.09608 9.78462 8.80058 9.0476 8.80058 9.0476C8.80058 9.0476 8.74361 8.90995 8.64157 8.83588C8.51823 8.74637 8.34607 8.71859 8.34607 8.71859L6.51738 8.73032C6.51738 8.73032 6.24255 8.73773 6.14175 8.85563C6.05223 8.95995 6.13487 9.17661 6.13487 9.17661C6.13487 9.17661 7.56664 12.4796 9.18811 14.1444C10.675 15.6703 12.3628 15.5703 12.3628 15.5703H13.1278Z" fill="white"/>
</svg>
