<svg width="24" height="22" viewBox="0 0 24 22" fill="none" xmlns="http://www.w3.org/2000/svg">
<path d="M12.4226 1.53949L12 1.15175L11.5774 1.53949L9.66687 3.29264L7.1357 2.72965L6.57587 2.60514L6.4038 3.15222L5.62577 5.62577L3.15222 6.4038L2.60514 6.57587L2.72965 7.1357L3.29264 9.66687L1.53949 11.5774L1.15175 12L1.53949 12.4226L3.29264 14.3331L2.72965 16.8643L2.60514 17.4241L3.15222 17.5962L5.62577 18.3742L6.4038 20.8478L6.57587 21.3949L7.1357 21.2703L9.66687 20.7074L11.5774 22.4605L12 22.8482L12.4226 22.4605L14.3331 20.7074L16.8643 21.2703L17.4241 21.3949L17.5962 20.8478L18.3742 18.3742L20.8478 17.5962L21.3949 17.4241L21.2703 16.8643L20.7074 14.3331L22.4605 12.4226L22.8482 12L22.4605 11.5774L20.7074 9.66687L21.2703 7.1357L21.3949 6.57587L20.8478 6.4038L18.3742 5.62577L17.5962 3.15222L17.4241 2.60514L16.8643 2.72965L14.3331 3.29264L12.4226 1.53949Z" fill="#0EA36C" stroke="#FBF8F4" stroke-width="1.25"/>
<path fill-rule="evenodd" clip-rule="evenodd" d="M16.7502 8.55982C16.4747 8.35119 16.076 8.39877 15.8595 8.66413L11.3804 14.1592L9.23513 11.5989C9.01419 11.3372 8.61549 11.2945 8.34249 11.5062C8.06886 11.7179 8.02632 12.1022 8.24535 12.3639L10.8922 15.5226C11.0134 15.6665 11.195 15.7501 11.3874 15.7501H11.3918C11.5848 15.7489 11.7677 15.6629 11.887 15.5158L16.8588 9.41567C17.0753 9.15093 17.027 8.76722 16.7502 8.55982Z" fill="white" stroke="white" stroke-width="0.645833"/>
</svg>
