<svg width="19" height="18" viewBox="0 0 19 18" fill="none" xmlns="http://www.w3.org/2000/svg">
<path d="M4.67642 15.7638V16.9869L14.0533 17.3946V16.1715L10.3841 14.1331V11.2792L12.8303 10.0561L14.0533 8.42538L14.461 3.53307L14.0533 0.679222H4.26872V7.60999L5.89949 10.4638L7.93795 11.6869V14.5408L4.67642 15.7638Z" fill="#C9C9C9"/>
<path d="M0.0577743 3.66342V2.26711C0.104386 1.78615 0.424407 1.4662 0.882187 1.4196H3.65209V0.800911C3.65209 0.36655 4.01872 0 4.45318 0H14.0641C14.4986 0 14.8652 0.36655 14.8652 0.800911V1.4196H17.383C17.8407 1.44289 18.1607 1.78615 18.2073 2.26711V3.66342C18.2307 4.02998 18.3451 7.57688 14.5452 8.17226C13.9497 9.84189 12.5764 11.1704 10.8365 11.6725V13.9375L13.8586 15.3783C13.8586 15.3783 13.8819 15.3783 13.8819 15.4016C14.3163 15.6538 14.5452 16.0203 14.5452 16.4314V16.9124C14.4986 17.37 14.1786 17.6667 13.6975 17.6667H4.79439C4.31332 17.6667 3.96997 17.37 3.94668 16.9124V16.4314C3.94668 16.0203 4.17556 15.6538 4.61002 15.4016L4.63334 15.3783L7.60883 13.9587V11.6513C5.93882 11.147 4.58673 9.84396 3.97 8.19554C2.68784 8.0345 1.70449 7.55567 1.01784 6.75476C-0.0354784 5.49407 0.0577743 3.89225 0.0577743 3.66342ZM14.7741 7.28022C17.5885 6.61704 17.3829 3.87107 17.3596 3.73334C17.3596 3.71003 17.3596 3.71003 17.3596 3.68674V2.31374C17.3596 2.29043 17.3596 2.26714 17.3596 2.26714H14.8652V6.29501C14.8652 6.45605 14.8652 6.59164 14.8419 6.75269C14.8419 6.776 14.8419 6.79929 14.8419 6.79929C14.8207 6.96027 14.7974 7.09589 14.7741 7.28022C14.7741 7.2569 14.7741 7.2569 14.7741 7.28022ZM4.79439 16.4102V16.8001H13.7208V16.4102C13.7208 16.2958 13.5831 16.1814 13.4919 16.1347L10.3787 14.6706H8.13651L5.02326 16.1347C4.93211 16.1814 4.79439 16.2958 4.79439 16.4102ZM8.47982 11.9014V13.8231H9.99088V11.9014H8.47982ZM9.25759 11.056C11.4087 11.056 13.2164 9.63635 13.8119 7.69126C13.8353 7.57685 13.8798 7.46244 13.9031 7.34803C13.9497 7.14249 13.9709 6.91367 13.9942 6.70816C13.9942 6.68485 13.9942 6.66156 13.9942 6.64035C13.9942 6.52594 14.0175 6.43481 14.0175 6.3204V0.849618H4.51887V6.27377C4.51887 6.38818 4.51887 6.47931 4.54219 6.59372C4.54219 6.61704 4.54219 6.64032 4.54219 6.66153C4.54219 6.75263 4.56551 6.86707 4.56551 6.95816V6.98148C4.58883 7.09589 4.61212 7.18702 4.63334 7.30143C4.63334 7.32474 4.63334 7.34803 4.65666 7.36924C4.67998 7.46034 4.70327 7.55146 4.72448 7.64469C5.29878 9.61304 7.12983 11.056 9.25759 11.056ZM1.68114 6.22717C2.16221 6.79926 2.84886 7.16581 3.7411 7.32472V7.3014C3.71778 7.14036 3.69449 7.00477 3.67328 6.84372C3.67328 6.82041 3.67328 6.79712 3.67328 6.79712C3.64995 6.63608 3.64995 6.47717 3.64995 6.31616V2.26925H0.92666C0.90334 2.26925 0.90334 2.26925 0.90334 2.26925C0.90334 2.26925 0.90334 2.29256 0.90334 2.31585V3.68885C0.90334 3.71216 0.90334 3.71216 0.90334 3.73545C0.903369 3.75663 0.788933 5.15081 1.68114 6.22717ZM10.1286 9.06426C10.1964 9.22531 10.3575 9.33972 10.5186 9.33972C10.5652 9.33972 10.6097 9.33972 10.6796 9.3164C12.0762 8.79095 12.3729 7.53236 12.3497 6.96027V2.65908C12.3497 2.43026 12.1674 2.24804 11.9385 2.24804C11.7096 2.24804 11.5274 2.43026 11.5274 2.65908V6.98359C11.5274 7.0514 11.574 8.10445 10.4063 8.53881C10.1498 8.60659 10.0354 8.85873 10.1286 9.06426Z" fill="#C9C9C9"/>
</svg>
