<svg width="16" height="16" viewBox="0 0 16 16" fill="none" xmlns="http://www.w3.org/2000/svg">
<path fill-rule="evenodd" clip-rule="evenodd" d="M11.3992 13.8947C11.4959 13.9454 11.6019 13.97 11.7079 13.97C11.8465 13.97 11.9845 13.9274 12.0999 13.842C12.3052 13.6927 12.4072 13.44 12.3645 13.19L11.7165 9.43804L14.4632 6.78137C14.6465 6.60471 14.7119 6.33937 14.6339 6.09737C14.5565 5.85537 14.3472 5.67937 14.0959 5.64271L10.2952 5.09071L8.59719 1.67337C8.37186 1.22004 7.62786 1.22004 7.40253 1.67337L5.70453 5.09071L1.90386 5.64271C1.65253 5.67937 1.44319 5.85537 1.36586 6.09737C1.28786 6.33937 1.35319 6.60471 1.53653 6.78137L4.28319 9.43804L3.63519 13.19C3.59253 13.44 3.69453 13.6927 3.89986 13.842C4.10319 13.9914 4.37519 14.012 4.60053 13.8947L7.99986 12.1187L11.3992 13.8947ZM8.30959 10.7755C8.21293 10.7255 8.10693 10.7001 8.00093 10.7001C7.89493 10.7001 7.78892 10.7255 7.69226 10.7755L5.17959 12.0888L5.65759 9.31746C5.69559 9.10012 5.62293 8.87879 5.46426 8.72479L3.44026 6.76746L6.24226 6.35946C6.45893 6.32812 6.64626 6.19279 6.74359 5.99679L8.00093 3.46746L9.25826 5.99679C9.35559 6.19279 9.54293 6.32812 9.75959 6.35946L12.5616 6.76746L10.5376 8.72479C10.3789 8.87879 10.3063 9.10012 10.3443 9.31746L10.8223 12.0888L8.30959 10.7755Z" fill="#FFBC26"/>
<path d="M8.00093 10.7001C8.10693 10.7001 8.21293 10.7255 8.30959 10.7755L10.8223 12.0888L10.3443 9.31746C10.3063 9.10012 10.3789 8.87879 10.5376 8.72479L12.5616 6.76746L9.75959 6.35946C9.54293 6.32812 9.35559 6.19279 9.25826 5.99679L8.00093 3.46746L6.74359 5.99679C6.64626 6.19279 6.45893 6.32812 6.24226 6.35946L3.44026 6.76746L5.46426 8.72479C5.62293 8.87879 5.69559 9.10012 5.65759 9.31746L5.17959 12.0888L7.69226 10.7755C7.78892 10.7255 7.89493 10.7001 8.00093 10.7001Z" fill="#FFBC26"/>
</svg>
