<svg width="16" height="16" viewBox="0 0 16 16" fill="none" xmlns="http://www.w3.org/2000/svg">
<path fill-rule="evenodd" clip-rule="evenodd" d="M8.94271 8.00017L11.8047 5.13817C12.0654 4.8775 12.0654 4.45617 11.8047 4.1955C11.544 3.93483 11.1227 3.93483 10.862 4.1955L8.00004 7.0575L5.13804 4.1955C4.87738 3.93483 4.45604 3.93483 4.19538 4.1955C3.93471 4.45617 3.93471 4.8775 4.19538 5.13817L7.05738 8.00017L4.19538 10.8622C3.93471 11.1228 3.93471 11.5442 4.19538 11.8048C4.32538 11.9348 4.49604 12.0002 4.66671 12.0002C4.83738 12.0002 5.00804 11.9348 5.13804 11.8048L8.00004 8.94283L10.862 11.8048C10.992 11.9348 11.1627 12.0002 11.3334 12.0002C11.504 12.0002 11.6747 11.9348 11.8047 11.8048C12.0654 11.5442 12.0654 11.1228 11.8047 10.8622L8.94271 8.00017Z" fill="#322E28"/>
<mask id="mask0" mask-type="alpha" maskUnits="userSpaceOnUse" x="3" y="4" width="10" height="9">
<path fill-rule="evenodd" clip-rule="evenodd" d="M8.94271 8.00017L11.8047 5.13817C12.0654 4.8775 12.0654 4.45617 11.8047 4.1955C11.544 3.93483 11.1227 3.93483 10.862 4.1955L8.00004 7.0575L5.13804 4.1955C4.87738 3.93483 4.45604 3.93483 4.19538 4.1955C3.93471 4.45617 3.93471 4.8775 4.19538 5.13817L7.05738 8.00017L4.19538 10.8622C3.93471 11.1228 3.93471 11.5442 4.19538 11.8048C4.32538 11.9348 4.49604 12.0002 4.66671 12.0002C4.83738 12.0002 5.00804 11.9348 5.13804 11.8048L8.00004 8.94283L10.862 11.8048C10.992 11.9348 11.1627 12.0002 11.3334 12.0002C11.504 12.0002 11.6747 11.9348 11.8047 11.8048C12.0654 11.5442 12.0654 11.1228 11.8047 10.8622L8.94271 8.00017Z" fill="white"/>
</mask>
<g mask="url(#mask0)">
</g>
</svg>
