<svg width="24" height="24" viewBox="0 0 24 24" fill="none" xmlns="http://www.w3.org/2000/svg">
<rect x="0.5" y="0.5" width="23" height="23" rx="11.5" fill="white"/>
<path d="M11.715 6.00469C10.7114 6.06857 9.65759 6.42264 8.82497 6.97566C7.94588 7.5597 7.24893 8.34815 6.79731 9.26802C6.55013 9.77175 6.39587 10.2463 6.28993 10.8303C6.21001 11.2684 6.19329 11.9291 6.24904 12.4364C6.32338 13.119 6.578 13.9367 6.92183 14.6047L7.02033 14.7927L6.79173 15.4625C6.66535 15.8312 6.43675 16.5028 6.2825 16.9555C6.12638 17.4099 6 17.7932 6 17.8115C6 17.8279 6.02416 17.8516 6.0539 17.8626C6.10222 17.8808 6.10779 17.8881 6.0985 17.9447C6.08735 18.0031 6.08921 18.0067 6.13196 17.994C6.20816 17.9702 7.87154 17.4501 8.57407 17.2274C8.94205 17.1124 9.25801 17.0175 9.27659 17.0175C9.29332 17.0175 9.37323 17.0485 9.45315 17.0887C10.1334 17.4245 10.8582 17.6253 11.6295 17.6946C11.9343 17.7202 12.555 17.7074 12.8543 17.6654C14.6273 17.4245 16.1364 16.4627 17.0657 14.9862C17.3686 14.5043 17.6567 13.8327 17.811 13.2486C17.9578 12.6883 18.0284 11.9929 17.9894 11.4563C17.889 10.0309 17.3277 8.76793 16.352 7.77506C15.406 6.81322 14.2017 6.21823 12.8301 6.03754C12.6294 6.01199 11.9343 5.99009 11.715 6.00469ZM12.4417 7.25308C13.1052 7.306 13.6497 7.45019 14.224 7.72578C15.0027 8.10176 15.6551 8.6639 16.1383 9.37935C16.51 9.92872 16.7386 10.5201 16.8278 11.1662C16.8705 11.4728 16.8705 12.0933 16.8278 12.4072C16.5249 14.6138 14.67 16.3148 12.4194 16.4536C11.6258 16.501 10.8879 16.3732 10.1668 16.063C9.96796 15.9772 9.639 15.802 9.53678 15.729C9.50519 15.7053 9.4643 15.6852 9.44572 15.6852C9.42899 15.6852 9.03312 15.8038 8.56849 15.9498C8.10386 16.0958 7.721 16.2145 7.71914 16.2108C7.71542 16.2072 7.83437 15.8513 7.98119 15.4205C8.12802 14.988 8.24882 14.6138 8.24882 14.5846C8.24882 14.5554 8.21537 14.4879 8.16705 14.4204C7.39018 13.3271 7.13742 11.8177 7.5147 10.5383C7.59834 10.2609 7.6671 10.0912 7.80278 9.82651C8.17448 9.11288 8.74133 8.49051 9.43828 8.03423C10.3174 7.45749 11.4158 7.17277 12.4417 7.25308Z" fill="#897E76"/>
<path d="M9.98447 8.9398C9.94172 8.95258 9.88039 8.98178 9.84508 9.00186C9.75029 9.06026 9.47523 9.34863 9.38974 9.48004C9.11653 9.89799 9.0552 10.4547 9.21875 10.9985C9.34327 11.4092 9.49567 11.7231 9.77445 12.1466C10.1276 12.6795 10.3562 12.9679 10.7223 13.3384C11.2724 13.895 11.7352 14.2071 12.4452 14.4973C12.9693 14.7127 13.3558 14.835 13.5733 14.8569C13.7238 14.8715 14.0528 14.8204 14.2461 14.751C14.5137 14.6561 14.8204 14.4444 14.9393 14.2728C15.0583 14.0976 15.1809 13.7016 15.1958 13.4387L15.2069 13.2654L15.1493 13.1997C15.1084 13.1559 14.9412 13.0573 14.6029 12.8784C13.8 12.455 13.6978 12.4148 13.5714 12.4806C13.5398 12.4952 13.4209 12.6138 13.3094 12.7415C12.9786 13.1193 12.9098 13.1851 12.854 13.1851C12.7834 13.1851 12.3206 12.9533 12.105 12.8109C11.8541 12.643 11.6906 12.5079 11.4843 12.298C11.239 12.048 10.9732 11.6903 10.8245 11.411L10.7911 11.3453L10.9249 11.2011C11.1014 11.0168 11.1739 10.9055 11.2445 10.712C11.317 10.5149 11.3133 10.4547 11.2074 10.1827C11.1126 9.93997 11.0364 9.73921 10.9044 9.39061C10.7966 9.10406 10.7167 8.98726 10.6052 8.95258C10.4993 8.92155 10.0718 8.91243 9.98447 8.9398Z" fill="#897E76"/>
<rect x="0.5" y="0.5" width="23" height="23" rx="11.5" stroke="#F3EFE7"/>
</svg>
