<svg width="16" height="16" viewBox="0 0 16 16" fill="none" xmlns="http://www.w3.org/2000/svg">
<path fill-rule="evenodd" clip-rule="evenodd" d="M2.16667 7.16667C2.16667 4.40917 4.40917 2.16667 7.16667 2.16667C9.92417 2.16667 12.1667 4.40917 12.1667 7.16667C12.1667 9.92417 9.92417 12.1667 7.16667 12.1667C4.40917 12.1667 2.16667 9.92417 2.16667 7.16667ZM15.2558 14.0775L12.4267 11.2475C13.3042 10.1192 13.8333 8.705 13.8333 7.16667C13.8333 3.49083 10.8425 0.5 7.16667 0.5C3.49083 0.5 0.5 3.49083 0.5 7.16667C0.5 10.8425 3.49083 13.8333 7.16667 13.8333C8.705 13.8333 10.1192 13.3042 11.2475 12.4267L14.0775 15.2558C14.24 15.4183 14.4533 15.5 14.6667 15.5C14.88 15.5 15.0933 15.4183 15.2558 15.2558C15.5817 14.93 15.5817 14.4033 15.2558 14.0775Z" fill="#81766F"/>
</svg>
