<svg width="21" height="20" viewBox="0 0 21 20" fill="none" xmlns="http://www.w3.org/2000/svg">
<path fill-rule="evenodd" clip-rule="evenodd" d="M7.24582 7.92993C5.55249 9.76243 5.58832 12.6674 7.35332 14.4666C8.21499 15.3474 9.35999 15.8333 10.58 15.8341H10.5842C11.8067 15.8341 12.9558 15.3483 13.8217 14.4666C15.6183 12.6349 15.615 9.65577 13.8142 7.8266L11.3258 5.2841C11.0742 7.35243 10.2983 9.16743 8.91665 9.16743C8.49332 9.16743 7.80332 8.9791 7.24582 7.92993ZM10.5842 17.5008H10.5784C8.90672 17.4991 7.33838 16.8366 6.16255 15.6324C3.73422 13.1574 3.73088 9.12994 6.15505 6.65911L6.97422 5.83078C7.18588 5.61911 7.49338 5.53744 7.78422 5.61328C8.07338 5.69161 8.29838 5.91911 8.37338 6.20911C8.56505 6.94994 8.79338 7.31411 8.91922 7.45244C9.21505 7.14078 9.75005 5.88161 9.75005 3.75078C9.75005 3.62828 9.75005 3.51244 9.74338 3.39661C9.72755 3.15078 9.82172 2.90994 10.0001 2.73994C10.3309 2.42578 10.8609 2.42578 11.1784 2.75244L15.0034 6.65994C17.4367 9.12994 17.4409 13.1574 15.0117 15.6333C13.8292 16.8383 12.2576 17.5008 10.5842 17.5008Z" fill="#575552"/>
<mask id="mask0" mask-type="alpha" maskUnits="userSpaceOnUse" x="4" y="2" width="13" height="16">
<path fill-rule="evenodd" clip-rule="evenodd" d="M7.24582 7.92993C5.55249 9.76243 5.58832 12.6674 7.35332 14.4666C8.21499 15.3474 9.35999 15.8333 10.58 15.8341H10.5842C11.8067 15.8341 12.9558 15.3483 13.8217 14.4666C15.6183 12.6349 15.615 9.65577 13.8142 7.8266L11.3258 5.2841C11.0742 7.35243 10.2983 9.16743 8.91665 9.16743C8.49332 9.16743 7.80332 8.9791 7.24582 7.92993ZM10.5842 17.5008H10.5784C8.90672 17.4991 7.33838 16.8366 6.16255 15.6324C3.73422 13.1574 3.73088 9.12994 6.15505 6.65911L6.97422 5.83078C7.18588 5.61911 7.49338 5.53744 7.78422 5.61328C8.07338 5.69161 8.29838 5.91911 8.37338 6.20911C8.56505 6.94994 8.79338 7.31411 8.91922 7.45244C9.21505 7.14078 9.75005 5.88161 9.75005 3.75078C9.75005 3.62828 9.75005 3.51244 9.74338 3.39661C9.72755 3.15078 9.82172 2.90994 10.0001 2.73994C10.3309 2.42578 10.8609 2.42578 11.1784 2.75244L15.0034 6.65994C17.4367 9.12994 17.4409 13.1574 15.0117 15.6333C13.8292 16.8383 12.2576 17.5008 10.5842 17.5008Z" fill="white"/>
</mask>
<g mask="url(#mask0)">
</g>
</svg>
