<svg width="20" height="20" viewBox="0 0 20 20" fill="none" xmlns="http://www.w3.org/2000/svg">
<path fill-rule="evenodd" clip-rule="evenodd" d="M14.697 4.78215C14.9899 5.07504 14.9899 5.54991 14.697 5.84281L10.8988 9.64104C10.6606 9.87939 10.337 10.0137 10 10.0137C9.66288 10.0137 9.33958 9.87966 9.10134 9.64113C9.10131 9.6411 9.10137 9.64116 9.10134 9.64113L7.90718 8.44697C7.61429 8.15408 7.61429 7.67921 7.90718 7.38631C8.20007 7.09342 8.67495 7.09342 8.96784 7.38631L10 8.41848L13.6363 4.78215C13.9292 4.48925 14.4041 4.48925 14.697 4.78215Z" fill="#897E76"/>
<path fill-rule="evenodd" clip-rule="evenodd" d="M5.41733 10.22C5.7379 10.4823 5.78513 10.9548 5.52281 11.2754L3.55815 13.6763L4.93876 13.9525C5.20268 14.0053 5.41808 14.1954 5.50319 14.4507L6.0437 16.0723L7.96965 13.0158C8.19047 12.6654 8.65357 12.5603 9.00401 12.7812C9.35446 13.002 9.45953 13.4651 9.23871 13.8155L6.46787 18.2127C6.31331 18.458 6.0312 18.5923 5.74336 18.5575C5.45552 18.5227 5.21352 18.3251 5.12183 18.0501L4.2178 15.338L2.04042 14.9025C1.7823 14.8509 1.57013 14.6677 1.4814 14.4199C1.39267 14.172 1.44036 13.8958 1.60707 13.6921L4.36193 10.3254C4.62424 10.0049 5.09676 9.95765 5.41733 10.22Z" fill="#897E76"/>
<path fill-rule="evenodd" clip-rule="evenodd" d="M14.5815 10.22C14.9021 9.95765 15.3746 10.0049 15.6369 10.3254L18.3918 13.6921C18.5585 13.8958 18.6062 14.172 18.5174 14.4199C18.4287 14.6677 18.2165 14.8509 17.9584 14.9025L15.781 15.338L14.877 18.0501C14.7853 18.3251 14.5433 18.5227 14.2555 18.5575C13.9676 18.5923 13.6855 18.458 13.531 18.2127L10.7601 13.8155C10.5393 13.4651 10.6444 13.002 10.9948 12.7812C11.3453 12.5603 11.8084 12.6654 12.0292 13.0158L13.9551 16.0723L14.4956 14.4507C14.5808 14.1954 14.7962 14.0053 15.0601 13.9525L16.4407 13.6763L14.476 11.2754C14.2137 10.9548 14.2609 10.4823 14.5815 10.22Z" fill="#897E76"/>
<path d="M11.1397 3.91814L9.99975 3.00222L8.85979 3.91814C8.71617 4.03353 8.53512 4.09202 8.35114 4.08247L6.89199 4.00671L6.5098 5.41837C6.46179 5.59571 6.35035 5.74926 6.19662 5.84988L4.97061 6.65241L5.49234 8.02289C5.55783 8.19491 5.55777 8.38501 5.49218 8.55699L4.97176 9.92155L6.19662 10.7233C6.35035 10.8239 6.46179 10.9775 6.5098 11.1548L6.8921 12.5669L8.35272 12.4941C8.53676 12.485 8.71774 12.5439 8.86113 12.6596L9.9999 13.5789L11.1389 12.6612C11.2822 12.5458 11.463 12.4871 11.6468 12.4962L13.1074 12.569L13.4897 11.1569C13.5377 10.9796 13.6492 10.826 13.8029 10.7254L15.0278 9.92359L14.5072 8.55667C14.3598 8.16958 14.5541 7.73627 14.9411 7.58884C15.3282 7.44141 15.7615 7.6357 15.909 8.02278L16.4946 9.56042L16.0028 11.0781L14.863 11.8242L14.507 13.1393C14.3508 13.7159 13.8139 14.1058 13.2173 14.0763L11.8575 14.0086L10.7966 14.8633C10.3312 15.2372 9.66834 15.2372 9.20292 14.8633L9.20157 14.8622L8.14157 14.0065L6.78198 14.0742C6.18535 14.1038 5.64866 13.7137 5.49248 13.1371L5.13646 11.8221L3.99594 11.0756C3.49578 10.7485 3.29142 10.1165 3.5049 9.55834L3.98882 8.28949L3.50507 7.0188C3.28934 6.45929 3.49412 5.82496 3.99651 5.49725L3.99754 5.49658L5.13646 4.75106L5.4925 3.43601C5.64868 2.85942 6.18535 2.46944 6.78198 2.49898L6.78378 2.49907L8.14326 2.56965L9.20292 1.71825C9.66834 1.34432 10.3312 1.34432 10.7966 1.71826L12.0792 2.74882C12.4021 3.00825 12.4536 3.48033 12.1941 3.80323C11.9347 4.12613 11.4626 4.17758 11.1397 3.91814Z" fill="#897E76"/>
</svg>
