<svg width="16" height="16" viewBox="0 0 16 16" fill="none" xmlns="http://www.w3.org/2000/svg">
<path fill-rule="evenodd" clip-rule="evenodd" d="M11.7575 3.82574C11.9918 4.06006 11.9918 4.43996 11.7575 4.67427L8.71892 7.71286C8.52835 7.90354 8.26951 8.01098 7.99991 8.01098C7.7302 8.01098 7.47156 7.90376 7.28097 7.71293C7.28095 7.71291 7.281 7.71295 7.28097 7.71293L6.32565 6.7576C6.09133 6.52329 6.09133 6.14339 6.32565 5.90908C6.55996 5.67476 6.93986 5.67476 7.17417 5.90908L7.99991 6.73481L10.909 3.82574C11.1433 3.59143 11.5232 3.59143 11.7575 3.82574Z" fill="#897E76"/>
<path fill-rule="evenodd" clip-rule="evenodd" d="M4.33377 8.17599C4.59022 8.38585 4.628 8.76386 4.41815 9.02032L2.84642 10.9411L3.95091 11.162C4.16205 11.2042 4.33436 11.3563 4.40245 11.5606L4.83486 12.8578L6.37562 10.4127C6.55228 10.1323 6.92276 10.0483 7.20311 10.2249C7.48347 10.4016 7.56753 10.7721 7.39087 11.0524L5.1742 14.5702C5.05055 14.7665 4.82486 14.8738 4.59459 14.846C4.36432 14.8182 4.17071 14.6601 4.09737 14.4401L3.37414 12.2704L1.63224 11.922C1.42574 11.8807 1.25601 11.7342 1.18502 11.5359C1.11404 11.3377 1.15219 11.1167 1.28556 10.9537L3.48945 8.26038C3.6993 8.00392 4.07731 7.96614 4.33377 8.17599Z" fill="#897E76"/>
<path fill-rule="evenodd" clip-rule="evenodd" d="M11.6651 8.17599C11.9216 7.96614 12.2996 8.00392 12.5094 8.26038L14.7133 10.9537C14.8467 11.1167 14.8848 11.3377 14.8138 11.5359C14.7429 11.7342 14.5731 11.8807 14.3666 11.922L12.6247 12.2704L11.9015 14.4401C11.8282 14.6601 11.6345 14.8182 11.4043 14.846C11.174 14.8738 10.9483 14.7665 10.8247 14.5702L8.608 11.0524C8.43134 10.7721 8.5154 10.4016 8.79575 10.2249C9.07611 10.0483 9.44659 10.1323 9.62325 10.4127L11.164 12.8578L11.5964 11.5606C11.6645 11.3563 11.8368 11.2042 12.048 11.162L13.1524 10.9411L11.5807 9.02032C11.3709 8.76386 11.4086 8.38585 11.6651 8.17599Z" fill="#897E76"/>
<path d="M8.91168 3.13454L7.9997 2.4018L7.08773 3.13454C6.97284 3.22685 6.828 3.27364 6.68082 3.266L5.5135 3.20539L5.20774 4.33472C5.16933 4.47659 5.08018 4.59943 4.9572 4.67993L3.97639 5.32195L4.39378 6.41834C4.44617 6.55595 4.44612 6.70803 4.39365 6.84561L3.97731 7.93727L4.9572 8.57868C5.08018 8.65918 5.16933 8.78202 5.20774 8.9239L5.51358 10.0535L6.68208 9.99533C6.82931 9.98799 6.9741 10.0351 7.0888 10.1277L7.99982 10.8631L8.91106 10.129C9.0257 10.0367 9.1703 9.98967 9.31733 9.99699L10.4858 10.0552L10.7917 8.92556C10.8301 8.78369 10.9192 8.66085 11.0422 8.58035L12.0222 7.9389L11.6057 6.84536C11.4877 6.53569 11.6431 6.18904 11.9528 6.0711C12.2625 5.95315 12.6091 6.10858 12.7271 6.41825L13.1956 7.64836L12.8022 8.86254L11.8903 9.45941L11.6055 10.5115C11.4806 10.9727 11.051 11.2847 10.5737 11.2611L9.48591 11.2069L8.63717 11.8907C8.26484 12.1898 7.73457 12.1898 7.36224 11.8907L7.36116 11.8898L6.51316 11.2052L5.42548 11.2594C4.94818 11.283 4.51883 10.971 4.39389 10.5097L4.10907 9.45774L3.19665 8.86049C2.79652 8.59885 2.63304 8.09325 2.80382 7.64669L3.19096 6.63161L2.80396 5.61507C2.63138 5.16746 2.7952 4.65999 3.19711 4.39783L3.19793 4.39729L4.10907 3.80087L4.39391 2.74883C4.51885 2.28756 4.94818 1.97558 5.42548 1.99921L5.42693 1.99928L6.51451 2.05575L7.36224 1.37463C7.73457 1.07548 8.26484 1.07548 8.63718 1.37463L9.66329 2.19908C9.92161 2.40663 9.96276 2.78429 9.75521 3.04261C9.54766 3.30093 9.17 3.34209 8.91168 3.13454Z" fill="#897E76"/>
</svg>
