<svg width="12" height="12" viewBox="0 0 12 12" fill="none" xmlns="http://www.w3.org/2000/svg">
<path fill-rule="evenodd" clip-rule="evenodd" d="M6.70712 6.00012L8.85362 3.85362C9.04912 3.65812 9.04912 3.34212 8.85362 3.14662C8.65812 2.95112 8.34212 2.95112 8.14662 3.14662L6.00012 5.29312L3.85362 3.14662C3.65812 2.95112 3.34212 2.95112 3.14662 3.14662C2.95112 3.34212 2.95112 3.65812 3.14662 3.85362L5.29312 6.00012L3.14662 8.14663C2.95112 8.34212 2.95112 8.65812 3.14662 8.85362C3.24412 8.95112 3.37212 9.00012 3.50012 9.00012C3.62812 9.00012 3.75612 8.95112 3.85362 8.85362L6.00012 6.70712L8.14662 8.85362C8.24412 8.95112 8.37212 9.00012 8.50012 9.00012C8.62812 9.00012 8.75612 8.95112 8.85362 8.85362C9.04912 8.65812 9.04912 8.34212 8.85362 8.14663L6.70712 6.00012Z" fill="#F3EFE7"/>
<mask id="mask0" mask-type="alpha" maskUnits="userSpaceOnUse" x="3" y="3" width="7" height="7">
<path fill-rule="evenodd" clip-rule="evenodd" d="M6.70712 6.00012L8.85362 3.85362C9.04912 3.65812 9.04912 3.34212 8.85362 3.14662C8.65812 2.95112 8.34212 2.95112 8.14662 3.14662L6.00012 5.29312L3.85362 3.14662C3.65812 2.95112 3.34212 2.95112 3.14662 3.14662C2.95112 3.34212 2.95112 3.65812 3.14662 3.85362L5.29312 6.00012L3.14662 8.14663C2.95112 8.34212 2.95112 8.65812 3.14662 8.85362C3.24412 8.95112 3.37212 9.00012 3.50012 9.00012C3.62812 9.00012 3.75612 8.95112 3.85362 8.85362L6.00012 6.70712L8.14662 8.85362C8.24412 8.95112 8.37212 9.00012 8.50012 9.00012C8.62812 9.00012 8.75612 8.95112 8.85362 8.85362C9.04912 8.65812 9.04912 8.34212 8.85362 8.14663L6.70712 6.00012Z" fill="white"/>
</mask>
<g mask="url(#mask0)">
</g>
</svg>
