<svg width="16" height="17" viewBox="0 0 16 17" fill="none" xmlns="http://www.w3.org/2000/svg">
<path fill-rule="evenodd" clip-rule="evenodd" d="M10 13.1667V10.5H12.6667L12.6673 13.1667H10ZM12.6669 9.16673H10.0003C9.26493 9.16673 8.66693 9.76473 8.66693 10.5001V13.1667C8.66693 13.9021 9.26493 14.5001 10.0003 14.5001H12.6669C13.4023 14.5001 14.0003 13.9021 14.0003 13.1667V10.5001C14.0003 9.76473 13.4023 9.16673 12.6669 9.16673ZM3.33307 13.1667V10.5H5.99974L6.00041 13.1667H3.33307ZM6 9.16673H3.33333C2.598 9.16673 2 9.76473 2 10.5001V13.1667C2 13.9021 2.598 14.5001 3.33333 14.5001H6C6.73533 14.5001 7.33333 13.9021 7.33333 13.1667V10.5001C7.33333 9.76473 6.73533 9.16673 6 9.16673ZM10 6.49994V3.83327H12.6667L12.6673 6.49994H10ZM12.6669 2.5H10.0003C9.26493 2.5 8.66693 3.098 8.66693 3.83333V6.5C8.66693 7.23533 9.26493 7.83333 10.0003 7.83333H12.6669C13.4023 7.83333 14.0003 7.23533 14.0003 6.5V3.83333C14.0003 3.098 13.4023 2.5 12.6669 2.5ZM3.33307 6.49994V3.83327H5.99974L6.00041 6.49994H3.33307ZM6 2.5H3.33333C2.598 2.5 2 3.098 2 3.83333V6.5C2 7.23533 2.598 7.83333 3.33333 7.83333H6C6.73533 7.83333 7.33333 7.23533 7.33333 6.5V3.83333C7.33333 3.098 6.73533 2.5 6 2.5Z" fill="#FA7355"/>
<mask id="mask0" mask-type="alpha" maskUnits="userSpaceOnUse" x="2" y="2" width="13" height="13">
<path fill-rule="evenodd" clip-rule="evenodd" d="M10 13.1667V10.5H12.6667L12.6673 13.1667H10ZM12.6669 9.16673H10.0003C9.26493 9.16673 8.66693 9.76473 8.66693 10.5001V13.1667C8.66693 13.9021 9.26493 14.5001 10.0003 14.5001H12.6669C13.4023 14.5001 14.0003 13.9021 14.0003 13.1667V10.5001C14.0003 9.76473 13.4023 9.16673 12.6669 9.16673ZM3.33307 13.1667V10.5H5.99974L6.00041 13.1667H3.33307ZM6 9.16673H3.33333C2.598 9.16673 2 9.76473 2 10.5001V13.1667C2 13.9021 2.598 14.5001 3.33333 14.5001H6C6.73533 14.5001 7.33333 13.9021 7.33333 13.1667V10.5001C7.33333 9.76473 6.73533 9.16673 6 9.16673ZM10 6.49994V3.83327H12.6667L12.6673 6.49994H10ZM12.6669 2.5H10.0003C9.26493 2.5 8.66693 3.098 8.66693 3.83333V6.5C8.66693 7.23533 9.26493 7.83333 10.0003 7.83333H12.6669C13.4023 7.83333 14.0003 7.23533 14.0003 6.5V3.83333C14.0003 3.098 13.4023 2.5 12.6669 2.5ZM3.33307 6.49994V3.83327H5.99974L6.00041 6.49994H3.33307ZM6 2.5H3.33333C2.598 2.5 2 3.098 2 3.83333V6.5C2 7.23533 2.598 7.83333 3.33333 7.83333H6C6.73533 7.83333 7.33333 7.23533 7.33333 6.5V3.83333C7.33333 3.098 6.73533 2.5 6 2.5Z" fill="white"/>
</mask>
<g mask="url(#mask0)">
</g>
</svg>
