<svg width="17" height="17" viewBox="0 0 17 17" fill="none" xmlns="http://www.w3.org/2000/svg">
<path fill-rule="evenodd" clip-rule="evenodd" d="M12.6042 12.8639C12.2362 12.8639 11.9375 12.5653 11.9375 12.1973C11.9375 11.8293 12.2362 11.5306 12.6042 11.5306C12.9722 11.5306 13.2708 11.8293 13.2708 12.1973C13.2708 12.5653 12.9722 12.8639 12.6042 12.8639ZM3.9375 8.86393C3.5695 8.86393 3.27083 8.56527 3.27083 8.19727C3.27083 7.82927 3.5695 7.5306 3.9375 7.5306C4.3055 7.5306 4.60417 7.82927 4.60417 8.19727C4.60417 8.56527 4.3055 8.86393 3.9375 8.86393ZM12.6042 3.5306C12.9722 3.5306 13.2708 3.82927 13.2708 4.19727C13.2708 4.56527 12.9722 4.86393 12.6042 4.86393C12.2362 4.86393 11.9375 4.56527 11.9375 4.19727C11.9375 3.82927 12.2362 3.5306 12.6042 3.5306ZM12.6042 10.1973C12.0595 10.1973 11.5662 10.4173 11.2048 10.7713L5.91483 8.4206C5.9235 8.3466 5.9375 8.27327 5.9375 8.19727C5.9375 8.12127 5.9235 8.04793 5.91483 7.97393L11.2048 5.62327C11.5662 5.97727 12.0595 6.19727 12.6042 6.19727C13.7068 6.19727 14.6042 5.29993 14.6042 4.19727C14.6042 3.0946 13.7068 2.19727 12.6042 2.19727C11.5015 2.19727 10.6042 3.0946 10.6042 4.19727C10.6042 4.27327 10.6182 4.3466 10.6268 4.4206L5.33683 6.77127C4.9755 6.41727 4.48217 6.19727 3.9375 6.19727C2.83483 6.19727 1.9375 7.0946 1.9375 8.19727C1.9375 9.29993 2.83483 10.1973 3.9375 10.1973C4.48217 10.1973 4.9755 9.97727 5.33683 9.62327L10.6268 11.9739C10.6182 12.0479 10.6042 12.1213 10.6042 12.1973C10.6042 13.2999 11.5015 14.1973 12.6042 14.1973C13.7068 14.1973 14.6042 13.2999 14.6042 12.1973C14.6042 11.0946 13.7068 10.1973 12.6042 10.1973Z" fill="#322E28"/>
<mask id="mask0" mask-type="alpha" maskUnits="userSpaceOnUse" x="1" y="2" width="14" height="13">
<path fill-rule="evenodd" clip-rule="evenodd" d="M12.6042 12.8639C12.2362 12.8639 11.9375 12.5653 11.9375 12.1973C11.9375 11.8293 12.2362 11.5306 12.6042 11.5306C12.9722 11.5306 13.2708 11.8293 13.2708 12.1973C13.2708 12.5653 12.9722 12.8639 12.6042 12.8639ZM3.9375 8.86393C3.5695 8.86393 3.27083 8.56527 3.27083 8.19727C3.27083 7.82927 3.5695 7.5306 3.9375 7.5306C4.3055 7.5306 4.60417 7.82927 4.60417 8.19727C4.60417 8.56527 4.3055 8.86393 3.9375 8.86393ZM12.6042 3.5306C12.9722 3.5306 13.2708 3.82927 13.2708 4.19727C13.2708 4.56527 12.9722 4.86393 12.6042 4.86393C12.2362 4.86393 11.9375 4.56527 11.9375 4.19727C11.9375 3.82927 12.2362 3.5306 12.6042 3.5306ZM12.6042 10.1973C12.0595 10.1973 11.5662 10.4173 11.2048 10.7713L5.91483 8.4206C5.9235 8.3466 5.9375 8.27327 5.9375 8.19727C5.9375 8.12127 5.9235 8.04793 5.91483 7.97393L11.2048 5.62327C11.5662 5.97727 12.0595 6.19727 12.6042 6.19727C13.7068 6.19727 14.6042 5.29993 14.6042 4.19727C14.6042 3.0946 13.7068 2.19727 12.6042 2.19727C11.5015 2.19727 10.6042 3.0946 10.6042 4.19727C10.6042 4.27327 10.6182 4.3466 10.6268 4.4206L5.33683 6.77127C4.9755 6.41727 4.48217 6.19727 3.9375 6.19727C2.83483 6.19727 1.9375 7.0946 1.9375 8.19727C1.9375 9.29993 2.83483 10.1973 3.9375 10.1973C4.48217 10.1973 4.9755 9.97727 5.33683 9.62327L10.6268 11.9739C10.6182 12.0479 10.6042 12.1213 10.6042 12.1973C10.6042 13.2999 11.5015 14.1973 12.6042 14.1973C13.7068 14.1973 14.6042 13.2999 14.6042 12.1973C14.6042 11.0946 13.7068 10.1973 12.6042 10.1973Z" fill="white"/>
</mask>
<g mask="url(#mask0)">
<rect x="0.605469" y="0.197266" width="16" height="16" fill="#0EA36C"/>
</g>
</svg>
