<svg width="40" height="41" viewBox="0 0 40 41" fill="none" xmlns="http://www.w3.org/2000/svg">
<path fill-rule="evenodd" clip-rule="evenodd" d="M20 40.8184C31.0457 40.8184 40 31.8641 40 20.8184C40 9.77267 31.0457 0.818359 20 0.818359C8.95431 0.818359 0 9.77267 0 20.8184C0 31.8641 8.95431 40.8184 20 40.8184ZM16.3333 29.985C16.8198 29.985 17.0421 29.7686 17.3107 29.507L17.3333 29.485L19.7356 27.1491L24.7333 30.8415C25.6531 31.349 26.3169 31.0863 26.546 29.9876L29.8268 14.5271C30.1627 13.1804 29.3135 12.5696 28.4336 12.9691L9.1686 20.3976C7.85358 20.925 7.86125 21.6587 8.9289 21.9856L13.8727 23.5286L25.3182 16.3078C25.8585 15.9801 26.3544 16.1563 25.9474 16.5175L16.6738 24.8863L16.6737 24.8862L16.6737 24.8864L16.6733 24.8867L16.6736 24.8869L16.3333 29.985Z" fill="#0EA36C"/>
</svg>
