<svg width="24" height="24" viewBox="0 0 24 24" fill="none" xmlns="http://www.w3.org/2000/svg">
<rect width="24" height="24" rx="12" fill="#81766F"/>
<path fill-rule="evenodd" clip-rule="evenodd" d="M10.1026 17C14.5308 17 17.0926 13.4838 17.0926 10.147C17.0926 10.0551 17.722 9.50263 17.9915 8.35077C18.0465 8.11703 17.8241 7.93266 17.6145 8.03078C17.0767 8.28328 16.5309 8.08328 16.2938 7.79578C15.382 6.77893 13.8573 6.73018 12.8875 7.68641C12.2623 8.30327 11.9971 9.22201 12.1908 10.0989C10.1429 10.2482 8.73675 9.25576 7.58052 7.89516C7.43141 7.71828 7.15457 7.81141 7.1234 8.04515C6.95229 9.34638 6.89851 12.5101 9.96388 14.3269C9.43159 15.1094 8.38964 15.5713 7.22974 15.7694C6.97307 15.8138 6.91196 16.1775 7.14663 16.295C8.06575 16.7575 9.07592 16.9994 10.1026 16.9981" fill="white"/>
</svg>
