<svg width="16" height="16" viewBox="0 0 16 16" fill="none" xmlns="http://www.w3.org/2000/svg">
<path d="M13.8833 4.92894L10.2722 1.12905C10.1544 1.00525 9.97383 0.966392 9.81667 1.03051C9.65889 1.09524 9.55554 1.25006 9.55554 1.42231V3.25196H9.41668C6.43002 3.25196 4 5.7143 4 8.74069V9.58511C4 9.78096 4.13611 9.94423 4.3244 9.98876C4.35502 9.9966 4.38554 10 4.41606 10C4.57333 10 4.72388 9.90651 4.79661 9.75962C5.57776 8.17602 7.1483 7.19255 8.89554 7.19255H9.55554V9.02209C9.55554 9.19444 9.65889 9.34926 9.81667 9.41338C9.97281 9.47811 10.1544 9.43874 10.2722 9.31484L13.8833 5.51494C14.0389 5.35115 14.0389 5.09335 13.8833 4.92894Z" fill="#0EA36C"/>
<path d="M12.375 14H2.625C1.72909 14 1 13.2598 1 12.35V4.65001C1 3.74031 1.72909 3 2.625 3H4.25C4.54953 3 4.79163 3.24583 4.79163 3.54997C4.79163 3.85411 4.54953 4.09994 4.25 4.09994H2.625C2.32597 4.09994 2.08327 4.34637 2.08327 4.65001V12.35C2.08327 12.6536 2.32597 12.9001 2.625 12.9001H12.375C12.6739 12.9001 12.9166 12.6536 12.9166 12.35V7.95003C12.9166 7.64589 13.1587 7.39996 13.4583 7.39996C13.7579 7.39996 14 7.64589 14 7.95003V12.35C14 13.2598 13.2709 14 12.375 14Z" fill="#0EA36C"/>
</svg>
