<svg width="21" height="20" viewBox="0 0 21 20" fill="none" xmlns="http://www.w3.org/2000/svg">
<path d="M15.5 4.375L10.9417 8.93333C10.8246 9.05058 10.6657 9.11646 10.5 9.11646C10.3343 9.11646 10.1754 9.05058 10.0583 8.93333L8.625 7.5" stroke="#BAB5AB" stroke-width="1.5" stroke-linecap="round" stroke-linejoin="round"/>
<path d="M4.43083 10.96L1.125 15L4.25 15.625L5.5 19.375L8.825 14.0983" stroke="#BAB5AB" stroke-width="1.5" stroke-linecap="round" stroke-linejoin="round"/>
<path d="M16.569 10.96L19.8748 15L16.7498 15.625L15.4998 19.375L12.1748 14.0983" stroke="#BAB5AB" stroke-width="1.5" stroke-linecap="round" stroke-linejoin="round"/>
<path d="M16.7502 7.94731L17.4535 9.79398C17.5586 10.0685 17.458 10.3791 17.2118 10.5398L15.5568 11.6231L15.0402 13.5315C14.9634 13.815 14.6994 14.0068 14.406 13.9923L12.4318 13.894L10.8927 15.134C10.6634 15.3182 10.3369 15.3182 10.1077 15.134L8.5685 13.8915L6.59433 13.9898C6.3009 14.0043 6.03697 13.8125 5.96016 13.529L5.4435 11.6206L3.7885 10.5373C3.54237 10.3766 3.44172 10.066 3.54683 9.79148L4.25016 7.94731L3.54683 6.09981C3.4398 5.82412 3.54064 5.51115 3.7885 5.34981L5.4435 4.26648L5.96016 2.35814C6.03697 2.07458 6.3009 1.88278 6.59433 1.89731L8.5685 1.99981L10.1077 0.763144C10.3369 0.578952 10.6634 0.578952 10.8927 0.763144L12.4318 1.99981" stroke="#BAB5AB" stroke-width="1.5" stroke-linecap="round" stroke-linejoin="round"/>
</svg>
