<svg width="24" height="24" viewBox="0 0 24 24" fill="none" xmlns="http://www.w3.org/2000/svg">
<rect x="0.5" y="0.5" width="23" height="23" rx="11.5" fill="white"/>
<path fill-rule="evenodd" clip-rule="evenodd" d="M12.6293 15.5703C12.6293 15.5703 12.8603 15.545 12.9786 15.4197C13.0869 15.3049 13.0832 15.0882 13.0832 15.0882C13.0832 15.0882 13.0688 14.0765 13.5452 13.9271C14.0147 13.7802 14.6176 14.9055 15.2574 15.3382C15.7408 15.6654 16.1076 15.5938 16.1076 15.5938L17.8174 15.5703C17.8174 15.5703 18.7114 15.516 18.2875 14.8228C18.2525 14.766 18.0402 14.3098 17.0166 13.3728C15.9442 12.392 16.0882 12.5506 17.3791 10.8537C18.1654 9.82042 18.4797 9.18957 18.3814 8.91982C18.2881 8.66181 17.7097 8.73032 17.7097 8.73032L15.7852 8.74205C15.7852 8.74205 15.6425 8.72292 15.5367 8.78526C15.4334 8.84637 15.3664 8.98896 15.3664 8.98896C15.3664 8.98896 15.0621 9.78832 14.6558 10.4686C13.7988 11.9031 13.4563 11.979 13.3161 11.8901C12.9899 11.6821 13.0713 11.0556 13.0713 10.6105C13.0713 9.21982 13.2854 8.6402 12.655 8.4902C12.4459 8.44021 12.2919 8.40749 11.7566 8.40194C11.0698 8.39515 10.4888 8.4044 10.1595 8.56304C9.94042 8.6686 9.77138 8.90439 9.87468 8.91797C10.0018 8.93464 10.2898 8.99451 10.4425 9.19945C10.6397 9.46426 10.6328 10.0581 10.6328 10.0581C10.6328 10.0581 10.7461 11.6951 10.368 11.8982C10.1088 12.0377 9.75323 11.7531 8.98882 10.4513C8.59754 9.78462 8.30205 9.0476 8.30205 9.0476C8.30205 9.0476 8.24508 8.90995 8.14303 8.83588C8.0197 8.74637 7.84754 8.71859 7.84754 8.71859L6.01885 8.73032C6.01885 8.73032 5.74401 8.73773 5.64322 8.85563C5.55369 8.95995 5.63633 9.17661 5.63633 9.17661C5.63633 9.17661 7.0681 12.4796 8.68957 14.1444C10.1764 15.6703 11.8643 15.5703 11.8643 15.5703H12.6293Z" fill="#897E76"/>
<rect x="0.5" y="0.5" width="23" height="23" rx="11.5" stroke="#F3EFE7"/>
</svg>
