<svg width="8" height="9" viewBox="0 0 8 9" fill="none" xmlns="http://www.w3.org/2000/svg">
<path fill-rule="evenodd" clip-rule="evenodd" d="M4.94283 4.50004L7.80483 1.63804C8.0655 1.37738 8.0655 0.956045 7.80483 0.695378C7.54417 0.434711 7.12283 0.434711 6.86217 0.695378L4.00017 3.55738L1.13817 0.695378C0.8775 0.434711 0.456167 0.434711 0.1955 0.695378C-0.0651667 0.956045 -0.0651667 1.37738 0.1955 1.63804L3.0575 4.50004L0.1955 7.36204C-0.0651667 7.62271 -0.0651667 8.04404 0.1955 8.30471C0.3255 8.43471 0.496167 8.50004 0.666833 8.50004C0.8375 8.50004 1.00817 8.43471 1.13817 8.30471L4.00017 5.44271L6.86217 8.30471C6.99217 8.43471 7.16283 8.50004 7.3335 8.50004C7.50417 8.50004 7.67483 8.43471 7.80483 8.30471C8.0655 8.04404 8.0655 7.62271 7.80483 7.36204L4.94283 4.50004Z" fill="#BAB5AB"/>
</svg>
