<svg width="16" height="16" viewBox="0 0 16 16" fill="none" xmlns="http://www.w3.org/2000/svg">
<path fill-rule="evenodd" clip-rule="evenodd" d="M14.8483 1.15146C15.317 1.62009 15.317 2.37989 14.8483 2.84852L2.84833 14.8485C2.3797 15.3171 1.61991 15.3171 1.15128 14.8485C0.682648 14.3799 0.682648 13.6201 1.15128 13.1515L13.1513 1.15146C13.6199 0.682831 14.3797 0.682831 14.8483 1.15146Z" fill="white"/>
<path fill-rule="evenodd" clip-rule="evenodd" d="M14.8483 14.8485C14.3797 15.3171 13.6199 15.3171 13.1513 14.8485L1.15128 2.84852C0.682647 2.37989 0.682647 1.62009 1.15128 1.15146C1.61991 0.68283 2.3797 0.682831 2.84833 1.15146L14.8483 13.1515C15.317 13.6201 15.317 14.3799 14.8483 14.8485Z" fill="white"/>
</svg>
