<svg width="48" height="42" viewBox="0 0 48 42" fill="none" xmlns="http://www.w3.org/2000/svg">
<mask id="mask0" mask-type="alpha" maskUnits="userSpaceOnUse" x="0" y="0" width="48" height="43">
<path fill-rule="evenodd" clip-rule="evenodd" d="M23.9994 0C30.0217 0 35.3277 3.87567 37.241 9.43833C42.932 10.2107 47.3327 15.1013 47.3327 21C47.3327 23.849 46.2967 26.5907 44.416 28.721C43.954 29.2413 43.3124 29.5097 42.666 29.5097C42.1177 29.5097 41.567 29.3183 41.1213 28.9263C40.1577 28.07 40.0644 26.5977 40.9184 25.6293C42.0453 24.3553 42.666 22.708 42.666 21C42.666 17.1407 39.5254 14 35.666 14H35.4327C34.322 14 33.3654 13.216 33.146 12.1263C32.2734 7.805 28.428 4.66667 23.9994 4.66667C19.573 4.66667 15.7253 7.805 14.855 12.1263C14.6357 13.216 13.6767 14 12.566 14H12.3327C8.47335 14 5.33268 17.1407 5.33268 21C5.33268 22.708 5.95335 24.3553 7.08268 25.6293C7.93435 26.5977 7.84335 28.07 6.87735 28.9263C5.91135 29.7803 4.43668 29.6847 3.58502 28.721C1.70202 26.5907 0.666016 23.849 0.666016 21C0.666016 15.1013 5.06668 10.2107 10.7577 9.43833C12.6733 3.87567 17.9794 0 23.9994 0ZM22.3781 19.3202C23.2975 18.4429 24.7511 18.4499 25.6495 19.3506L32.6495 26.3506C33.5618 27.2629 33.5618 28.7376 32.6495 29.6499C32.1945 30.1049 31.5971 30.3336 30.9998 30.3336C30.4025 30.3336 29.8051 30.1049 29.3501 29.6499L26.3331 26.6329V39.6669C26.3331 40.9572 25.2878 42.0002 23.9998 42.0002C22.7118 42.0002 21.6665 40.9572 21.6665 39.6669V26.4976L18.6215 29.4376C17.6951 30.3359 16.2181 30.3056 15.3221 29.3792C14.4261 28.4506 14.4518 26.9759 15.3781 26.0799L22.3781 19.3202Z" fill="white"/>
</mask>
<g mask="url(#mask0)">
<rect x="-4" y="-7" width="56" height="56" fill="#E6DFD1"/>
</g>
</svg>
