<svg width="16" height="16" viewBox="0 0 16 16" fill="none" xmlns="http://www.w3.org/2000/svg">
<path fill-rule="evenodd" clip-rule="evenodd" d="M11.9987 12.6667C11.6307 12.6667 11.332 12.368 11.332 12C11.332 11.632 11.6307 11.3333 11.9987 11.3333C12.3667 11.3333 12.6654 11.632 12.6654 12C12.6654 12.368 12.3667 12.6667 11.9987 12.6667ZM3.33203 8.66667C2.96403 8.66667 2.66536 8.368 2.66536 8C2.66536 7.632 2.96403 7.33333 3.33203 7.33333C3.70003 7.33333 3.9987 7.632 3.9987 8C3.9987 8.368 3.70003 8.66667 3.33203 8.66667ZM11.9987 3.33333C12.3667 3.33333 12.6654 3.632 12.6654 4C12.6654 4.368 12.3667 4.66667 11.9987 4.66667C11.6307 4.66667 11.332 4.368 11.332 4C11.332 3.632 11.6307 3.33333 11.9987 3.33333ZM11.9987 10C11.454 10 10.9607 10.22 10.5994 10.574L5.30936 8.22333C5.31803 8.14933 5.33203 8.076 5.33203 8C5.33203 7.924 5.31803 7.85067 5.30936 7.77667L10.5994 5.426C10.9607 5.78 11.454 6 11.9987 6C13.1014 6 13.9987 5.10267 13.9987 4C13.9987 2.89733 13.1014 2 11.9987 2C10.896 2 9.9987 2.89733 9.9987 4C9.9987 4.076 10.0127 4.14933 10.0214 4.22333L4.73136 6.574C4.37003 6.22 3.8767 6 3.33203 6C2.22936 6 1.33203 6.89733 1.33203 8C1.33203 9.10267 2.22936 10 3.33203 10C3.8767 10 4.37003 9.78 4.73136 9.426L10.0214 11.7767C10.0127 11.8507 9.9987 11.924 9.9987 12C9.9987 13.1027 10.896 14 11.9987 14C13.1014 14 13.9987 13.1027 13.9987 12C13.9987 10.8973 13.1014 10 11.9987 10Z" fill="#231F20"/>
<mask id="mask0" mask-type="alpha" maskUnits="userSpaceOnUse" x="1" y="2" width="13" height="12">
<path fill-rule="evenodd" clip-rule="evenodd" d="M11.9987 12.6667C11.6307 12.6667 11.332 12.368 11.332 12C11.332 11.632 11.6307 11.3333 11.9987 11.3333C12.3667 11.3333 12.6654 11.632 12.6654 12C12.6654 12.368 12.3667 12.6667 11.9987 12.6667ZM3.33203 8.66667C2.96403 8.66667 2.66536 8.368 2.66536 8C2.66536 7.632 2.96403 7.33333 3.33203 7.33333C3.70003 7.33333 3.9987 7.632 3.9987 8C3.9987 8.368 3.70003 8.66667 3.33203 8.66667ZM11.9987 3.33333C12.3667 3.33333 12.6654 3.632 12.6654 4C12.6654 4.368 12.3667 4.66667 11.9987 4.66667C11.6307 4.66667 11.332 4.368 11.332 4C11.332 3.632 11.6307 3.33333 11.9987 3.33333ZM11.9987 10C11.454 10 10.9607 10.22 10.5994 10.574L5.30936 8.22333C5.31803 8.14933 5.33203 8.076 5.33203 8C5.33203 7.924 5.31803 7.85067 5.30936 7.77667L10.5994 5.426C10.9607 5.78 11.454 6 11.9987 6C13.1014 6 13.9987 5.10267 13.9987 4C13.9987 2.89733 13.1014 2 11.9987 2C10.896 2 9.9987 2.89733 9.9987 4C9.9987 4.076 10.0127 4.14933 10.0214 4.22333L4.73136 6.574C4.37003 6.22 3.8767 6 3.33203 6C2.22936 6 1.33203 6.89733 1.33203 8C1.33203 9.10267 2.22936 10 3.33203 10C3.8767 10 4.37003 9.78 4.73136 9.426L10.0214 11.7767C10.0127 11.8507 9.9987 11.924 9.9987 12C9.9987 13.1027 10.896 14 11.9987 14C13.1014 14 13.9987 13.1027 13.9987 12C13.9987 10.8973 13.1014 10 11.9987 10Z" fill="white"/>
</mask>
<g mask="url(#mask0)">
<rect width="16" height="16" fill="#0EA36C"/>
</g>
</svg>
