<svg width="17" height="16" viewBox="0 0 17 16" fill="none" xmlns="http://www.w3.org/2000/svg">
<path fill-rule="evenodd" clip-rule="evenodd" d="M12.4955 4.69921C12.4955 4.33321 12.1995 4.03521 11.8328 4.03321L6.50417 3.99988H6.50017C6.1335 3.99988 5.83617 4.29588 5.8335 4.66254C5.83083 5.03054 6.1275 5.33121 6.49617 5.33321L10.2015 5.35654L4.6955 10.8619C4.43483 11.1225 4.43483 11.5445 4.6955 11.8045C4.8255 11.9352 4.99617 11.9999 5.16683 11.9999C5.3375 11.9999 5.50817 11.9352 5.63817 11.8045L11.1635 6.27921L11.1668 10.0005C11.1668 10.3685 11.4655 10.6665 11.8335 10.6665H11.8342C12.2022 10.6665 12.5002 10.3672 12.5002 9.99921L12.4955 4.69921Z" fill="#897E76"/>
</svg>
