<svg width="24" height="20" viewBox="0 0 24 20" fill="none" xmlns="http://www.w3.org/2000/svg">
<path fill-rule="evenodd" clip-rule="evenodd" d="M13.414 10L17.707 5.70701C18.098 5.31601 18.098 4.68401 17.707 4.29301C17.316 3.90201 16.684 3.90201 16.293 4.29301L12 8.58601L7.70701 4.29301C7.31601 3.90201 6.68401 3.90201 6.29301 4.29301C5.90201 4.68401 5.90201 5.31601 6.29301 5.70701L10.586 10L6.29301 14.293C5.90201 14.684 5.90201 15.316 6.29301 15.707C6.48801 15.902 6.74401 16 7.00001 16C7.25601 16 7.51201 15.902 7.70701 15.707L12 11.414L16.293 15.707C16.488 15.902 16.744 16 17 16C17.256 16 17.512 15.902 17.707 15.707C18.098 15.316 18.098 14.684 17.707 14.293L13.414 10Z" fill="#897E76"/>
<mask id="mask0" mask-type="alpha" maskUnits="userSpaceOnUse" x="5" y="3" width="14" height="13">
<path fill-rule="evenodd" clip-rule="evenodd" d="M13.414 10L17.707 5.70701C18.098 5.31601 18.098 4.68401 17.707 4.29301C17.316 3.90201 16.684 3.90201 16.293 4.29301L12 8.58601L7.70701 4.29301C7.31601 3.90201 6.68401 3.90201 6.29301 4.29301C5.90201 4.68401 5.90201 5.31601 6.29301 5.70701L10.586 10L6.29301 14.293C5.90201 14.684 5.90201 15.316 6.29301 15.707C6.48801 15.902 6.74401 16 7.00001 16C7.25601 16 7.51201 15.902 7.70701 15.707L12 11.414L16.293 15.707C16.488 15.902 16.744 16 17 16C17.256 16 17.512 15.902 17.707 15.707C18.098 15.316 18.098 14.684 17.707 14.293L13.414 10Z" fill="white"/>
</mask>
<g mask="url(#mask0)">
</g>
</svg>
