<svg width="16" height="16" viewBox="0 0 16 16" fill="none" xmlns="http://www.w3.org/2000/svg">
<path fill-rule="evenodd" clip-rule="evenodd" d="M4.81366 4.00026C4.23766 4.00026 3.69766 4.22293 3.29366 4.62759C2.45499 5.46759 2.45499 6.83493 3.29432 7.67626L8.00032 12.3903L12.707 7.67626C13.5463 6.83493 13.5463 5.46759 12.707 4.62759C11.899 3.81759 10.475 3.81893 9.66699 4.62759L8.47232 5.82426C8.22166 6.07559 7.77899 6.07559 7.52832 5.82426L6.33366 4.62693C5.92966 4.22293 5.39032 4.00026 4.81366 4.00026ZM8.00003 14.0003C7.82336 14.0003 7.65336 13.9303 7.5287 13.8043L2.35003 8.61766C0.992698 7.25766 0.992698 5.04499 2.35003 3.68499C3.00603 3.02899 3.8807 2.66699 4.81336 2.66699C5.74603 2.66699 6.62136 3.02899 7.2767 3.68499L8.00003 4.40966L8.72336 3.68566C9.37936 3.02899 10.254 2.66699 11.1874 2.66699C12.1194 2.66699 12.9947 3.02899 13.65 3.68499C15.008 5.04499 15.008 7.25766 13.6507 8.61766L8.47203 13.805C8.3467 13.9303 8.17736 14.0003 8.00003 14.0003Z" fill="#897E76"/>
</svg>
