<svg width="16" height="17" viewBox="0 0 16 17" fill="none" xmlns="http://www.w3.org/2000/svg">
<path d="M11.3486 4.51758L8.0665 7.7997C7.9822 7.88412 7.86779 7.93156 7.74849 7.93156C7.62919 7.93156 7.51478 7.88412 7.43048 7.7997L6.39844 6.76766" stroke="#897E76" stroke-linecap="round" stroke-linejoin="round"/>
<path d="M3.38029 9.25977L1 12.1687L3.25009 12.6187L4.15012 15.3188L6.54421 11.5195" stroke="#897E76" stroke-linecap="round" stroke-linejoin="round"/>
<path d="M12.121 9.25977L14.5012 12.1687L12.2512 12.6187L11.3511 15.3188L8.95703 11.5195" stroke="#897E76" stroke-linecap="round" stroke-linejoin="round"/>
<path d="M12.2483 7.09062L12.7547 8.42027C12.8304 8.61792 12.7579 8.84159 12.5807 8.9573L11.389 9.73732L11.017 11.1114C10.9617 11.3156 10.7717 11.4536 10.5604 11.4432L9.13894 11.3724L8.03069 12.2652C7.86562 12.3978 7.63054 12.3978 7.46547 12.2652L6.35723 11.3706L4.93577 11.4414C4.7245 11.4519 4.53446 11.3138 4.47916 11.1096L4.10714 9.73552L2.9155 8.9555C2.73828 8.83979 2.66581 8.61612 2.74149 8.41847L3.24791 7.09062L2.74149 5.76037C2.66442 5.56187 2.73704 5.33652 2.9155 5.22035L4.10714 4.44032L4.47916 3.06627C4.53446 2.8621 4.7245 2.724 4.93577 2.73446L6.35723 2.80826L7.46547 1.91783C7.63054 1.7852 7.86562 1.7852 8.03069 1.91783L9.13894 2.80826" stroke="#897E76" stroke-linecap="round" stroke-linejoin="round"/>
</svg>
