<svg width="20" height="20" viewBox="0 0 20 20" fill="none" xmlns="http://www.w3.org/2000/svg">
<path fill-rule="evenodd" clip-rule="evenodd" d="M4.59611 13.3332L5.57945 12.3482C5.89445 12.0332 6.06778 11.6149 6.06778 11.1699V7.27236C6.06778 6.14153 6.55945 5.06069 7.41778 4.30903C8.28278 3.55069 9.38445 3.21736 10.5319 3.36819C12.4711 3.62569 13.9336 5.37903 13.9336 7.44736V11.1699C13.9336 11.6149 14.1069 12.0332 14.4211 12.3474L15.4053 13.3332H4.59611ZM11.6669 15.284C11.6669 16.0332 10.9036 16.6665 10.0003 16.6665C9.09695 16.6665 8.33361 16.0332 8.33361 15.284V14.9999H11.6669V15.284ZM17.1011 12.6732L15.6003 11.1699V7.44736C15.6003 4.54653 13.5153 2.08236 10.7503 1.71653C9.14861 1.50319 7.53195 1.99236 6.31945 3.05569C5.09945 4.12403 4.40111 5.66069 4.40111 7.27236L4.40028 11.1699L2.89945 12.6732C2.50861 13.0649 2.39278 13.6474 2.60445 14.1582C2.81695 14.6699 3.31111 14.9999 3.86445 14.9999H6.66695V15.284C6.66695 16.9657 8.16195 18.3332 10.0003 18.3332C11.8386 18.3332 13.3336 16.9657 13.3336 15.284V14.9999H16.1361C16.6894 14.9999 17.1828 14.6699 17.3944 14.159C17.6069 13.6474 17.4919 13.064 17.1011 12.6732Z" fill="#231F20"/>
<mask id="mask0" mask-type="alpha" maskUnits="userSpaceOnUse" x="2" y="1" width="16" height="18">
<path fill-rule="evenodd" clip-rule="evenodd" d="M4.59611 13.3332L5.57945 12.3482C5.89445 12.0332 6.06778 11.6149 6.06778 11.1699V7.27236C6.06778 6.14153 6.55945 5.06069 7.41778 4.30903C8.28278 3.55069 9.38445 3.21736 10.5319 3.36819C12.4711 3.62569 13.9336 5.37903 13.9336 7.44736V11.1699C13.9336 11.6149 14.1069 12.0332 14.4211 12.3474L15.4053 13.3332H4.59611ZM11.6669 15.284C11.6669 16.0332 10.9036 16.6665 10.0003 16.6665C9.09695 16.6665 8.33361 16.0332 8.33361 15.284V14.9999H11.6669V15.284ZM17.1011 12.6732L15.6003 11.1699V7.44736C15.6003 4.54653 13.5153 2.08236 10.7503 1.71653C9.14861 1.50319 7.53195 1.99236 6.31945 3.05569C5.09945 4.12403 4.40111 5.66069 4.40111 7.27236L4.40028 11.1699L2.89945 12.6732C2.50861 13.0649 2.39278 13.6474 2.60445 14.1582C2.81695 14.6699 3.31111 14.9999 3.86445 14.9999H6.66695V15.284C6.66695 16.9657 8.16195 18.3332 10.0003 18.3332C11.8386 18.3332 13.3336 16.9657 13.3336 15.284V14.9999H16.1361C16.6894 14.9999 17.1828 14.6699 17.3944 14.159C17.6069 13.6474 17.4919 13.064 17.1011 12.6732Z" fill="white"/>
</mask>
<g mask="url(#mask0)">
<rect width="20" height="20" fill="#0EA36C"/>
</g>
</svg>
