<svg width="24" height="20" viewBox="0 0 24 20" fill="none" xmlns="http://www.w3.org/2000/svg">
<path fill-rule="evenodd" clip-rule="evenodd" d="M13.4142 10.0002L17.7072 5.70725C18.0982 5.31625 18.0982 4.68425 17.7072 4.29325C17.3162 3.90225 16.6842 3.90225 16.2933 4.29325L12.0002 8.58625L7.70725 4.29325C7.31625 3.90225 6.68425 3.90225 6.29325 4.29325C5.90225 4.68425 5.90225 5.31625 6.29325 5.70725L10.5862 10.0002L6.29325 14.2933C5.90225 14.6842 5.90225 15.3162 6.29325 15.7072C6.48825 15.9022 6.74425 16.0002 7.00025 16.0002C7.25625 16.0002 7.51225 15.9022 7.70725 15.7072L12.0002 11.4142L16.2933 15.7072C16.4882 15.9022 16.7443 16.0002 17.0002 16.0002C17.2562 16.0002 17.5122 15.9022 17.7072 15.7072C18.0982 15.3162 18.0982 14.6842 17.7072 14.2933L13.4142 10.0002Z" fill="#81766F"/>
<mask id="mask0" mask-type="alpha" maskUnits="userSpaceOnUse" x="6" y="4" width="13" height="13">
<path fill-rule="evenodd" clip-rule="evenodd" d="M13.4142 10.0002L17.7072 5.70725C18.0982 5.31625 18.0982 4.68425 17.7072 4.29325C17.3162 3.90225 16.6842 3.90225 16.2933 4.29325L12.0002 8.58625L7.70725 4.29325C7.31625 3.90225 6.68425 3.90225 6.29325 4.29325C5.90225 4.68425 5.90225 5.31625 6.29325 5.70725L10.5862 10.0002L6.29325 14.2933C5.90225 14.6842 5.90225 15.3162 6.29325 15.7072C6.48825 15.9022 6.74425 16.0002 7.00025 16.0002C7.25625 16.0002 7.51225 15.9022 7.70725 15.7072L12.0002 11.4142L16.2933 15.7072C16.4882 15.9022 16.7443 16.0002 17.0002 16.0002C17.2562 16.0002 17.5122 15.9022 17.7072 15.7072C18.0982 15.3162 18.0982 14.6842 17.7072 14.2933L13.4142 10.0002Z" fill="white"/>
</mask>
<g mask="url(#mask0)">
</g>
</svg>
