<svg width="13" height="13" viewBox="0 0 13 13" fill="none" xmlns="http://www.w3.org/2000/svg">
<path d="M5.85645 7.42578H8.48145" stroke="#897E76" stroke-linecap="round" stroke-linejoin="round"/>
<path d="M5.85645 9.67578H8.48145" stroke="#897E76" stroke-linecap="round" stroke-linejoin="round"/>
<path d="M4.35645 7.23828C4.46 7.23828 4.54395 7.32223 4.54395 7.42578C4.54395 7.52933 4.46 7.61328 4.35645 7.61328C4.25289 7.61328 4.16895 7.52933 4.16895 7.42578C4.16895 7.32223 4.25289 7.23828 4.35645 7.23828" stroke="#897E76" stroke-linecap="round" stroke-linejoin="round"/>
<path d="M5.85645 5.17578H8.48145" stroke="#897E76" stroke-linecap="round" stroke-linejoin="round"/>
<path d="M4.35645 4.98828C4.46 4.98828 4.54395 5.07223 4.54395 5.17578C4.54395 5.27933 4.46 5.36328 4.35645 5.36328C4.25289 5.36328 4.16895 5.27933 4.16895 5.17578C4.16895 5.07223 4.25289 4.98828 4.35645 4.98828" stroke="#897E76" stroke-linecap="round" stroke-linejoin="round"/>
<path d="M4.35645 9.48828C4.46 9.48828 4.54395 9.57223 4.54395 9.67578C4.54395 9.77933 4.46 9.86328 4.35645 9.86328C4.25289 9.86328 4.16895 9.77933 4.16895 9.67578C4.16895 9.57223 4.25289 9.48828 4.35645 9.48828" stroke="#897E76" stroke-linecap="round" stroke-linejoin="round"/>
<path fill-rule="evenodd" clip-rule="evenodd" d="M8.10645 2.55078H9.98145C10.3957 2.55078 10.7314 2.88657 10.7314 3.30078V11.1758C10.7314 11.59 10.3957 11.9258 9.98145 11.9258H2.48145C2.06723 11.9258 1.73145 11.59 1.73145 11.1758V3.30078C1.73145 2.88657 2.06723 2.55078 2.48145 2.55078H4.35645C4.35645 1.51525 5.19591 0.675781 6.23145 0.675781C7.26698 0.675781 8.10645 1.51525 8.10645 2.55078Z" stroke="#897E76" stroke-linecap="round" stroke-linejoin="round"/>
<path d="M6.23145 2.17578C6.335 2.17578 6.41895 2.25973 6.41895 2.36328C6.41895 2.46683 6.335 2.55078 6.23145 2.55078C6.12789 2.55078 6.04395 2.46683 6.04395 2.36328C6.04395 2.25973 6.12789 2.17578 6.23145 2.17578" stroke="#897E76" stroke-linecap="round" stroke-linejoin="round"/>
</svg>
