<svg width="32" height="32" viewBox="0 0 32 32" fill="none" xmlns="http://www.w3.org/2000/svg">
<rect x="0.5" y="0.5" width="31" height="31" rx="15.5" fill="white"/>
<path fill-rule="evenodd" clip-rule="evenodd" d="M15.9998 19.3333C15.0809 19.3333 14.3332 18.5856 14.3332 17.6667C14.3332 16.7478 15.0809 16 15.9998 16C16.9187 16 17.6665 16.7478 17.6665 17.6667C17.6665 18.5856 16.9187 19.3333 15.9998 19.3333ZM15.9998 14.3333C14.1617 14.3333 12.6665 15.8286 12.6665 17.6667C12.6665 19.5048 14.1617 21 15.9998 21C17.8379 21 19.3332 19.5048 19.3332 17.6667C19.3332 15.8286 17.8379 14.3333 15.9998 14.3333ZM22.6665 21C22.6665 21.4592 22.2932 21.8333 21.8332 21.8333H10.1665C9.7065 21.8333 9.33317 21.4592 9.33317 21V14.3333C9.33317 13.8742 9.7065 13.5 10.1665 13.5H21.8332C22.2932 13.5 22.6665 13.8742 22.6665 14.3333V21ZM13.4998 10.5833C13.4998 10.3533 13.7811 10.1667 14.1248 10.1667H17.8748C18.2186 10.1667 18.4998 10.3533 18.4998 10.5833V11.8333H13.4998V10.5833ZM21.8332 11.8333H20.1665V10.5833C20.1665 9.435 19.2323 8.5 18.0832 8.5H13.9165C12.7673 8.5 11.8332 9.435 11.8332 10.5833V11.8333H10.1665C8.78817 11.8333 7.6665 12.955 7.6665 14.3333V21C7.6665 22.3783 8.78817 23.5 10.1665 23.5H21.8332C23.2115 23.5 24.3332 22.3783 24.3332 21V14.3333C24.3332 12.955 23.2115 11.8333 21.8332 11.8333Z" fill="#81766F"/>
<ellipse cx="20.9998" cy="15.1663" rx="0.833334" ry="0.833333" fill="#81766F"/>
<rect x="0.5" y="0.5" width="31" height="31" rx="15.5" stroke="#E6DFD1"/>
</svg>
