<svg width="20" height="20" viewBox="0 0 20 20" fill="none" xmlns="http://www.w3.org/2000/svg">
<path fill-rule="evenodd" clip-rule="evenodd" d="M4.59611 13.3337L5.57945 12.3487C5.89445 12.0337 6.06778 11.6153 6.06778 11.1704V7.27285C6.06778 6.14202 6.55945 5.06118 7.41778 4.30952C8.28278 3.55118 9.38445 3.21785 10.5319 3.36868C12.4711 3.62618 13.9336 5.37952 13.9336 7.44785V11.1704C13.9336 11.6153 14.1069 12.0337 14.4211 12.3478L15.4053 13.3337H4.59611ZM11.6669 15.2845C11.6669 16.0337 10.9036 16.667 10.0003 16.667C9.09695 16.667 8.33361 16.0337 8.33361 15.2845V15.0003H11.6669V15.2845ZM17.1011 12.6737L15.6003 11.1703V7.44785C15.6003 4.54702 13.5153 2.08285 10.7503 1.71702C9.14861 1.50368 7.53195 1.99285 6.31945 3.05618C5.09945 4.12452 4.40111 5.66118 4.40111 7.27285L4.40028 11.1703L2.89945 12.6737C2.50861 13.0653 2.39278 13.6478 2.60445 14.1587C2.81695 14.6703 3.31111 15.0003 3.86445 15.0003H6.66695V15.2845C6.66695 16.9662 8.16195 18.3337 10.0003 18.3337C11.8386 18.3337 13.3336 16.9662 13.3336 15.2845V15.0003H16.1361C16.6894 15.0003 17.1828 14.6703 17.3944 14.1595C17.6069 13.6478 17.4919 13.0645 17.1011 12.6737Z" fill="#322E28"/>
<mask id="mask0" mask-type="alpha" maskUnits="userSpaceOnUse" x="2" y="1" width="16" height="18">
<path fill-rule="evenodd" clip-rule="evenodd" d="M4.59611 13.3337L5.57945 12.3487C5.89445 12.0337 6.06778 11.6153 6.06778 11.1704V7.27285C6.06778 6.14202 6.55945 5.06118 7.41778 4.30952C8.28278 3.55118 9.38445 3.21785 10.5319 3.36868C12.4711 3.62618 13.9336 5.37952 13.9336 7.44785V11.1704C13.9336 11.6153 14.1069 12.0337 14.4211 12.3478L15.4053 13.3337H4.59611ZM11.6669 15.2845C11.6669 16.0337 10.9036 16.667 10.0003 16.667C9.09695 16.667 8.33361 16.0337 8.33361 15.2845V15.0003H11.6669V15.2845ZM17.1011 12.6737L15.6003 11.1703V7.44785C15.6003 4.54702 13.5153 2.08285 10.7503 1.71702C9.14861 1.50368 7.53195 1.99285 6.31945 3.05618C5.09945 4.12452 4.40111 5.66118 4.40111 7.27285L4.40028 11.1703L2.89945 12.6737C2.50861 13.0653 2.39278 13.6478 2.60445 14.1587C2.81695 14.6703 3.31111 15.0003 3.86445 15.0003H6.66695V15.2845C6.66695 16.9662 8.16195 18.3337 10.0003 18.3337C11.8386 18.3337 13.3336 16.9662 13.3336 15.2845V15.0003H16.1361C16.6894 15.0003 17.1828 14.6703 17.3944 14.1595C17.6069 13.6478 17.4919 13.0645 17.1011 12.6737Z" fill="white"/>
</mask>
<g mask="url(#mask0)">
<rect width="20" height="20" fill="#81766F"/>
</g>
</svg>
