<svg width="20" height="20" viewBox="0 0 20 20" fill="none" xmlns="http://www.w3.org/2000/svg">
<path d="M10 20C15.5228 20 20 15.5228 20 10C20 4.47715 15.5228 0 10 0C4.47715 0 0 4.47715 0 10C0 15.5228 4.47715 20 10 20Z" fill="#0EA36C"/>
<path d="M8.16634 14.5835C7.84237 14.5835 7.89742 14.4612 7.78569 14.1527L6.83301 11.0174L14.1663 6.66687" fill="#C8DAEA"/>
<path d="M8.16699 14.5832C8.41699 14.5832 8.52745 14.4689 8.66699 14.3332L10.0003 13.0367L8.33716 12.0338" fill="#A9C9DD"/>
<path d="M8.33628 12.0342L12.3663 15.0116C12.8261 15.2653 13.1581 15.1339 13.2726 14.5846L14.913 6.85437C15.081 6.18102 14.6563 5.87562 14.2164 6.07535L4.58391 9.7896C3.9264 10.0533 3.93023 10.4202 4.46406 10.5836L6.93597 11.3551L12.6587 7.74471C12.9289 7.58088 13.1768 7.66896 12.9733 7.84958" fill="url(#paint0_linear)"/>
<defs>
<linearGradient id="paint0_linear" x1="11.25" y1="9.99989" x2="12.8149" y2="13.561" gradientUnits="userSpaceOnUse">
<stop stop-color="#EFF7FC"/>
<stop offset="1" stop-color="white"/>
</linearGradient>
</defs>
</svg>
