<svg width="12" height="13" viewBox="0 0 12 13" fill="none" xmlns="http://www.w3.org/2000/svg">
<path fill-rule="evenodd" clip-rule="evenodd" d="M2.5 6.55115H8.4325L6.616 8.73115C6.439 8.94315 6.468 9.25865 6.68 9.43515C6.8925 9.61215 7.2075 9.58315 7.3845 9.37115L9.8845 6.37115C9.904 6.34765 9.9135 6.32015 9.928 6.29415C9.94 6.27315 9.9545 6.25515 9.9635 6.23215C9.986 6.17465 9.9995 6.11415 9.9995 6.05315C9.9995 6.05265 10 6.05165 10 6.05115C10 6.05065 9.9995 6.04965 9.9995 6.04915C9.9995 5.98815 9.986 5.92765 9.9635 5.87015C9.9545 5.84715 9.94 5.82915 9.928 5.80815C9.9135 5.78215 9.904 5.75465 9.8845 5.73115L7.3845 2.73115C7.285 2.61265 7.143 2.55115 7 2.55115C6.887 2.55115 6.7735 2.58915 6.68 2.66715C6.468 2.84365 6.439 3.15915 6.616 3.37115L8.4325 5.55115H2.5C2.224 5.55115 2 5.77515 2 6.05115C2 6.32715 2.224 6.55115 2.5 6.55115Z" fill="#322E28"/>
<mask id="mask0" mask-type="alpha" maskUnits="userSpaceOnUse" x="2" y="2" width="8" height="8">
<path fill-rule="evenodd" clip-rule="evenodd" d="M2.5 6.55115H8.4325L6.616 8.73115C6.439 8.94315 6.468 9.25865 6.68 9.43515C6.8925 9.61215 7.2075 9.58315 7.3845 9.37115L9.8845 6.37115C9.904 6.34765 9.9135 6.32015 9.928 6.29415C9.94 6.27315 9.9545 6.25515 9.9635 6.23215C9.986 6.17465 9.9995 6.11415 9.9995 6.05315C9.9995 6.05265 10 6.05165 10 6.05115C10 6.05065 9.9995 6.04965 9.9995 6.04915C9.9995 5.98815 9.986 5.92765 9.9635 5.87015C9.9545 5.84715 9.94 5.82915 9.928 5.80815C9.9135 5.78215 9.904 5.75465 9.8845 5.73115L7.3845 2.73115C7.285 2.61265 7.143 2.55115 7 2.55115C6.887 2.55115 6.7735 2.58915 6.68 2.66715C6.468 2.84365 6.439 3.15915 6.616 3.37115L8.4325 5.55115H2.5C2.224 5.55115 2 5.77515 2 6.05115C2 6.32715 2.224 6.55115 2.5 6.55115Z" fill="white"/>
</mask>
<g mask="url(#mask0)">
<rect y="0.0511475" width="12" height="12" fill="#0EA36C"/>
</g>
</svg>
