<svg width="24" height="20" viewBox="0 0 24 20" fill="none" xmlns="http://www.w3.org/2000/svg">
<path fill-rule="evenodd" clip-rule="evenodd" d="M13.4142 9.99976L17.7072 5.70676C18.0982 5.31576 18.0982 4.68376 17.7072 4.29276C17.3162 3.90176 16.6842 3.90176 16.2933 4.29276L12.0002 8.58576L7.70725 4.29276C7.31625 3.90176 6.68425 3.90176 6.29325 4.29276C5.90225 4.68376 5.90225 5.31576 6.29325 5.70676L10.5862 9.99976L6.29325 14.2928C5.90225 14.6838 5.90225 15.3158 6.29325 15.7068C6.48825 15.9018 6.74425 15.9998 7.00025 15.9998C7.25625 15.9998 7.51225 15.9018 7.70725 15.7068L12.0002 11.4138L16.2933 15.7068C16.4882 15.9018 16.7443 15.9998 17.0002 15.9998C17.2562 15.9998 17.5122 15.9018 17.7072 15.7068C18.0982 15.3158 18.0982 14.6838 17.7072 14.2928L13.4142 9.99976Z" fill="#575552"/>
<mask id="mask0" mask-type="alpha" maskUnits="userSpaceOnUse" x="6" y="3" width="13" height="13">
<path fill-rule="evenodd" clip-rule="evenodd" d="M13.4142 9.99976L17.7072 5.70676C18.0982 5.31576 18.0982 4.68376 17.7072 4.29276C17.3162 3.90176 16.6842 3.90176 16.2933 4.29276L12.0002 8.58576L7.70725 4.29276C7.31625 3.90176 6.68425 3.90176 6.29325 4.29276C5.90225 4.68376 5.90225 5.31576 6.29325 5.70676L10.5862 9.99976L6.29325 14.2928C5.90225 14.6838 5.90225 15.3158 6.29325 15.7068C6.48825 15.9018 6.74425 15.9998 7.00025 15.9998C7.25625 15.9998 7.51225 15.9018 7.70725 15.7068L12.0002 11.4138L16.2933 15.7068C16.4882 15.9018 16.7443 15.9998 17.0002 15.9998C17.2562 15.9998 17.5122 15.9018 17.7072 15.7068C18.0982 15.3158 18.0982 14.6838 17.7072 14.2928L13.4142 9.99976Z" fill="white"/>
</mask>
<g mask="url(#mask0)">
</g>
</svg>
