<svg width="40" height="41" viewBox="0 0 40 41" fill="none" xmlns="http://www.w3.org/2000/svg">
<rect y="0.818359" width="40" height="40" rx="20" fill="#0EA36C"/>
<path fill-rule="evenodd" clip-rule="evenodd" d="M21.0449 26.7662C21.0449 26.7662 21.4299 26.7241 21.6271 26.5152C21.8077 26.3239 21.8014 25.9628 21.8014 25.9628C21.8014 25.9628 21.7774 24.2766 22.5714 24.0276C23.354 23.7828 24.3588 25.6582 25.4252 26.3794C26.2307 26.9247 26.8421 26.8053 26.8421 26.8053L29.6917 26.7662C29.6917 26.7662 31.1817 26.6757 30.4753 25.5204C30.4169 25.4257 30.0631 24.6655 28.3572 23.1038C26.5698 21.469 26.8098 21.7334 28.9613 18.9053C30.2718 17.1831 30.7956 16.1317 30.6318 15.6821C30.4763 15.2521 29.5122 15.3663 29.5122 15.3663L26.3048 15.3858C26.3048 15.3858 26.0669 15.3539 25.8905 15.4579C25.7184 15.5597 25.6067 15.7974 25.6067 15.7974C25.6067 15.7974 25.0996 17.1296 24.4224 18.2633C22.994 20.6542 22.4233 20.7808 22.1895 20.6326C21.6459 20.2859 21.7816 19.2417 21.7816 18.5C21.7816 16.1821 22.1384 15.2161 21.0877 14.9661C20.7392 14.8828 20.4825 14.8282 19.5904 14.819C18.4458 14.8077 17.4775 14.8231 16.9286 15.0875C16.5635 15.2634 16.2817 15.6564 16.4539 15.679C16.6657 15.7068 17.1457 15.8066 17.4003 16.1482C17.7289 16.5895 17.7175 17.5792 17.7175 17.5792C17.7175 17.5792 17.9063 20.3075 17.2761 20.646C16.8441 20.8785 16.2515 20.4042 14.9775 18.2345C14.3253 17.1235 13.8328 15.8951 13.8328 15.8951C13.8328 15.8951 13.7379 15.6657 13.5678 15.5422C13.3623 15.393 13.0753 15.3467 13.0753 15.3467L10.0275 15.3663C10.0275 15.3663 9.56945 15.3786 9.40146 15.5751C9.25225 15.749 9.38998 16.1101 9.38998 16.1101C9.38998 16.1101 11.7763 21.6151 14.4787 24.3898C16.9568 26.9329 19.7699 26.7662 19.7699 26.7662H21.0449Z" fill="white"/>
</svg>
