<svg width="20" height="20" viewBox="0 0 20 20" fill="none" xmlns="http://www.w3.org/2000/svg">
<path fill-rule="evenodd" clip-rule="evenodd" d="M15.0013 8.33333C15.0013 7.87417 14.628 7.5 14.168 7.5C13.708 7.5 13.3346 7.87417 13.3346 8.33333C13.3346 8.7925 13.708 9.16667 14.168 9.16667C14.628 9.16667 15.0013 8.7925 15.0013 8.33333ZM16.668 8.33333C16.668 9.71167 15.5463 10.8333 14.168 10.8333C12.7896 10.8333 11.668 9.71167 11.668 8.33333C11.668 6.955 12.7896 5.83333 14.168 5.83333C15.5463 5.83333 16.668 6.955 16.668 8.33333ZM9.16797 5.83333C9.16797 4.91417 8.42047 4.16667 7.5013 4.16667C6.58214 4.16667 5.83463 4.91417 5.83463 5.83333C5.83463 6.7525 6.58214 7.5 7.5013 7.5C8.42047 7.5 9.16797 6.7525 9.16797 5.83333ZM10.8346 5.83333C10.8346 7.67167 9.33964 9.16667 7.5013 9.16667C5.66297 9.16667 4.16797 7.67167 4.16797 5.83333C4.16797 3.995 5.66297 2.5 7.5013 2.5C9.33964 2.5 10.8346 3.995 10.8346 5.83333ZM11.618 12.5383C12.3421 11.9783 13.2338 11.6667 14.168 11.6667C16.4655 11.6667 18.3346 13.5358 18.3346 15.8333C18.3346 16.2933 17.9621 16.6667 17.5013 16.6667C17.0405 16.6667 16.668 16.2933 16.668 15.8333C16.668 14.455 15.5463 13.3333 14.168 13.3333C13.5988 13.3333 13.058 13.5283 12.6213 13.8742C13.0746 14.7042 13.3346 15.6558 13.3346 16.6667C13.3346 17.1267 12.9621 17.5 12.5013 17.5C12.0405 17.5 11.668 17.1267 11.668 16.6667C11.668 14.3692 9.7988 12.5 7.5013 12.5C5.2038 12.5 3.33464 14.3692 3.33464 16.6667C3.33464 17.1267 2.96214 17.5 2.5013 17.5C2.04047 17.5 1.66797 17.1267 1.66797 16.6667C1.66797 13.45 4.28547 10.8333 7.5013 10.8333C9.10714 10.8333 10.5621 11.4858 11.618 12.5383Z" fill="#FA7355"/>
</svg>
