<svg width="16" height="15" viewBox="0 0 16 15" fill="none" xmlns="http://www.w3.org/2000/svg">
<path fill-rule="evenodd" clip-rule="evenodd" d="M5.43368 5.94786C4.16368 7.32223 4.19055 9.50098 5.5143 10.8504C6.16055 11.511 7.0193 11.8754 7.9343 11.876H7.93743C8.8543 11.876 9.71618 11.5116 10.3656 10.8504C11.7131 9.47661 11.7106 7.24223 10.3599 5.87036L8.49368 3.96348C8.30493 5.51473 7.72305 6.87598 6.6868 6.87598C6.3693 6.87598 5.8518 6.73473 5.43368 5.94786ZM7.93774 13.126H7.93336C6.67961 13.1248 5.50336 12.6279 4.62149 11.7248C2.80024 9.86851 2.79774 6.84788 4.61586 4.99476L5.23024 4.37351C5.38899 4.21476 5.61961 4.15351 5.83774 4.21039C6.05461 4.26914 6.22336 4.43976 6.27961 4.65726C6.42336 5.21289 6.59461 5.48601 6.68899 5.58976C6.91086 5.35601 7.31211 4.41164 7.31211 2.81351C7.31211 2.72164 7.31211 2.63476 7.30711 2.54789C7.29524 2.36351 7.36586 2.18289 7.49961 2.05539C7.74774 1.81976 8.14524 1.81976 8.38336 2.06476L11.2521 4.99539C13.0771 6.84788 13.0802 9.86851 11.2584 11.7254C10.3715 12.6291 9.19274 13.126 7.93774 13.126Z" fill="#FA7355"/>
<mask id="mask0" mask-type="alpha" maskUnits="userSpaceOnUse" x="3" y="1" width="10" height="13">
<path fill-rule="evenodd" clip-rule="evenodd" d="M5.43368 5.94786C4.16368 7.32223 4.19055 9.50098 5.5143 10.8504C6.16055 11.511 7.0193 11.8754 7.9343 11.876H7.93743C8.8543 11.876 9.71618 11.5116 10.3656 10.8504C11.7131 9.47661 11.7106 7.24223 10.3599 5.87036L8.49368 3.96348C8.30493 5.51473 7.72305 6.87598 6.6868 6.87598C6.3693 6.87598 5.8518 6.73473 5.43368 5.94786ZM7.93774 13.126H7.93336C6.67961 13.1248 5.50336 12.6279 4.62149 11.7248C2.80024 9.86851 2.79774 6.84788 4.61586 4.99476L5.23024 4.37351C5.38899 4.21476 5.61961 4.15351 5.83774 4.21039C6.05461 4.26914 6.22336 4.43976 6.27961 4.65726C6.42336 5.21289 6.59461 5.48601 6.68899 5.58976C6.91086 5.35601 7.31211 4.41164 7.31211 2.81351C7.31211 2.72164 7.31211 2.63476 7.30711 2.54789C7.29524 2.36351 7.36586 2.18289 7.49961 2.05539C7.74774 1.81976 8.14524 1.81976 8.38336 2.06476L11.2521 4.99539C13.0771 6.84788 13.0802 9.86851 11.2584 11.7254C10.3715 12.6291 9.19274 13.126 7.93774 13.126Z" fill="white"/>
</mask>
<g mask="url(#mask0)">
</g>
</svg>
