<svg width="24" height="24" viewBox="0 0 24 24" fill="none" xmlns="http://www.w3.org/2000/svg">
<path fill-rule="evenodd" clip-rule="evenodd" d="M17.5615 20.955C17.4025 20.955 17.2435 20.918 17.0985 20.842L11.9995 18.178L6.90055 20.842C6.56255 21.018 6.15455 20.987 5.84955 20.763C5.54155 20.539 5.38855 20.16 5.45255 19.785L6.42455 14.157L2.30455 10.172C2.02955 9.907 1.93155 9.509 2.04855 9.146C2.16455 8.783 2.47855 8.519 2.85555 8.464L8.55655 7.636L11.1035 2.51C11.4415 1.83 12.5575 1.83 12.8955 2.51L15.4425 7.636L21.1435 8.464C21.5205 8.519 21.8345 8.783 21.9505 9.146C22.0675 9.509 21.9695 9.907 21.6945 10.172L17.5745 14.157L18.5465 19.785C18.6105 20.16 18.4575 20.539 18.1495 20.763C17.9765 20.891 17.7695 20.955 17.5615 20.955Z" fill="#81766F"/>
<path fill-rule="evenodd" clip-rule="evenodd" d="M12.0012 16.0502C12.1602 16.0502 12.3192 16.0882 12.4642 16.1632L16.2332 18.1332L15.5162 13.9762C15.4592 13.6502 15.5682 13.3182 15.8062 13.0872L18.8422 10.1512L14.6392 9.53917C14.3142 9.49217 14.0332 9.28917 13.8872 8.99517L12.0012 5.20117L10.1152 8.99517C9.96916 9.28917 9.68816 9.49217 9.36316 9.53917L5.16016 10.1512L8.19616 13.0872C8.43416 13.3182 8.54316 13.6502 8.48616 13.9762L7.76916 18.1332L11.5382 16.1632C11.6832 16.0882 11.8422 16.0502 12.0012 16.0502Z" fill="#81766F"/>
</svg>
