<svg width="17" height="16" viewBox="0 0 17 16" fill="none" xmlns="http://www.w3.org/2000/svg">
<path d="M11.8506 3.7002L8.56845 6.98232C8.48415 7.06674 8.36975 7.11418 8.25044 7.11418C8.13114 7.11418 8.01673 7.06674 7.93243 6.98232L6.90039 5.95028" stroke="white" stroke-linecap="round" stroke-linejoin="round"/>
<path d="M3.88029 8.44141L1.5 11.3503L3.75009 11.8003L4.65012 14.5004L7.04421 10.7011" stroke="white" stroke-linecap="round" stroke-linejoin="round"/>
<path d="M12.621 8.44141L15.0012 11.3503L12.7512 11.8003L11.8511 14.5004L9.45703 10.7011" stroke="white" stroke-linecap="round" stroke-linejoin="round"/>
<path d="M12.7502 6.27226L13.2566 7.60192C13.3323 7.79956 13.2598 8.02323 13.0826 8.13894L11.891 8.91897L11.519 10.293C11.4637 10.4972 11.2736 10.6353 11.0623 10.6248L9.64089 10.554L8.53265 11.4469C8.36758 11.5795 8.13249 11.5795 7.96742 11.4469L6.85918 10.5522L5.43773 10.623C5.22645 10.6335 5.03641 10.4954 4.98111 10.2912L4.6091 8.91717L3.41745 8.13714C3.24024 8.02143 3.16776 7.79776 3.24344 7.60012L3.74986 6.27226L3.24344 4.94201C3.16638 4.74351 3.23899 4.51816 3.41745 4.40199L4.6091 3.62196L4.98111 2.24791C5.03641 2.04374 5.22645 1.90564 5.43773 1.9161L6.85918 1.9899L7.96742 1.09947C8.13249 0.966844 8.36758 0.966844 8.53265 1.09947L9.64089 1.9899" stroke="white" stroke-linecap="round" stroke-linejoin="round"/>
</svg>
