<svg width="20" height="20" viewBox="0 0 20 20" fill="none" xmlns="http://www.w3.org/2000/svg">
<path fill-rule="evenodd" clip-rule="evenodd" d="M7.08317 7.91663C7.08317 6.30829 8.3915 4.99996 9.99984 4.99996C11.6082 4.99996 12.9165 6.30829 12.9165 7.91663C12.9165 9.23329 12.0332 10.3358 10.8332 10.6975V11.6666C10.8332 12.1275 10.4607 12.5 9.99984 12.5C9.539 12.5 9.1665 12.1275 9.1665 11.6666V9.99996C9.1665 9.53913 9.539 9.16663 9.99984 9.16663C10.689 9.16663 11.2498 8.60579 11.2498 7.91663C11.2498 7.22746 10.689 6.66663 9.99984 6.66663C9.31067 6.66663 8.74984 7.22746 8.74984 7.91663C8.74984 8.37746 8.37734 8.74996 7.9165 8.74996C7.45567 8.74996 7.08317 8.37746 7.08317 7.91663ZM9.1665 14.1666C9.1665 13.7058 9.539 13.3333 9.99984 13.3333C10.4607 13.3333 10.8332 13.7058 10.8332 14.1666C10.8332 14.6275 10.4607 15 9.99984 15C9.539 15 9.1665 14.6275 9.1665 14.1666ZM9.99984 16.6666C6.324 16.6666 3.33317 13.6758 3.33317 9.99996C3.33317 6.32413 6.324 3.33329 9.99984 3.33329C13.6757 3.33329 16.6665 6.32413 16.6665 9.99996C16.6665 13.6758 13.6757 16.6666 9.99984 16.6666ZM9.99984 1.66663C5.40484 1.66663 1.6665 5.40496 1.6665 9.99996C1.6665 14.595 5.40484 18.3333 9.99984 18.3333C14.5948 18.3333 18.3332 14.595 18.3332 9.99996C18.3332 5.40496 14.5948 1.66663 9.99984 1.66663Z" fill="#897E76"/>
<mask id="mask0" mask-type="alpha" maskUnits="userSpaceOnUse" x="1" y="1" width="18" height="18">
<path fill-rule="evenodd" clip-rule="evenodd" d="M7.08317 7.91663C7.08317 6.30829 8.3915 4.99996 9.99984 4.99996C11.6082 4.99996 12.9165 6.30829 12.9165 7.91663C12.9165 9.23329 12.0332 10.3358 10.8332 10.6975V11.6666C10.8332 12.1275 10.4607 12.5 9.99984 12.5C9.539 12.5 9.1665 12.1275 9.1665 11.6666V9.99996C9.1665 9.53913 9.539 9.16663 9.99984 9.16663C10.689 9.16663 11.2498 8.60579 11.2498 7.91663C11.2498 7.22746 10.689 6.66663 9.99984 6.66663C9.31067 6.66663 8.74984 7.22746 8.74984 7.91663C8.74984 8.37746 8.37734 8.74996 7.9165 8.74996C7.45567 8.74996 7.08317 8.37746 7.08317 7.91663ZM9.1665 14.1666C9.1665 13.7058 9.539 13.3333 9.99984 13.3333C10.4607 13.3333 10.8332 13.7058 10.8332 14.1666C10.8332 14.6275 10.4607 15 9.99984 15C9.539 15 9.1665 14.6275 9.1665 14.1666ZM9.99984 16.6666C6.324 16.6666 3.33317 13.6758 3.33317 9.99996C3.33317 6.32413 6.324 3.33329 9.99984 3.33329C13.6757 3.33329 16.6665 6.32413 16.6665 9.99996C16.6665 13.6758 13.6757 16.6666 9.99984 16.6666ZM9.99984 1.66663C5.40484 1.66663 1.6665 5.40496 1.6665 9.99996C1.6665 14.595 5.40484 18.3333 9.99984 18.3333C14.5948 18.3333 18.3332 14.595 18.3332 9.99996C18.3332 5.40496 14.5948 1.66663 9.99984 1.66663Z" fill="white"/>
</mask>
<g mask="url(#mask0)">
</g>
</svg>
