<svg width="16" height="16" viewBox="0 0 16 16" fill="none" xmlns="http://www.w3.org/2000/svg">
<path fill-rule="evenodd" clip-rule="evenodd" d="M12.5659 3.43427C12.8783 3.74669 12.8783 4.25322 12.5659 4.56564L4.56588 12.5656C4.25346 12.8781 3.74693 12.8781 3.43451 12.5656C3.12209 12.2532 3.12209 11.7467 3.43451 11.4343L11.4345 3.43427C11.7469 3.12185 12.2535 3.12185 12.5659 3.43427Z" fill="#897E76"/>
<path fill-rule="evenodd" clip-rule="evenodd" d="M12.5659 12.5656C12.2535 12.8781 11.7469 12.8781 11.4345 12.5656L3.43451 4.56564C3.12209 4.25322 3.12209 3.74669 3.43451 3.43427C3.74693 3.12185 4.25346 3.12185 4.56588 3.43427L12.5659 11.4343C12.8783 11.7467 12.8783 12.2532 12.5659 12.5656Z" fill="#897E76"/>
</svg>
