<svg width="64" height="64" viewBox="0 0 64 64" fill="none" xmlns="http://www.w3.org/2000/svg">
<path fill-rule="evenodd" clip-rule="evenodd" d="M46.8334 55.8806C46.4094 55.8806 45.9854 55.782 45.5987 55.5793L32.0014 48.4753L18.4041 55.5793C17.5027 56.0486 16.4147 55.966 15.6014 55.3686C14.7801 54.7713 14.3721 53.7606 14.5427 52.7606L17.1347 37.7526L6.14806 27.126C5.41473 26.4193 5.1534 25.358 5.4654 24.39C5.77473 23.422 6.61206 22.718 7.6174 22.5713L22.8201 20.3633L29.6121 6.69398C30.5134 4.88065 33.4894 4.88065 34.3907 6.69398L41.1827 20.3633L56.3854 22.5713C57.3907 22.718 58.2281 23.422 58.5374 24.39C58.8494 25.358 58.5881 26.4193 57.8547 27.126L46.8681 37.7526L49.4601 52.7606C49.6307 53.7606 49.2227 54.7713 48.4014 55.3686C47.9401 55.71 47.3881 55.8806 46.8334 55.8806Z" fill="#81766F"/>
<path fill-rule="evenodd" clip-rule="evenodd" d="M32.0044 42.7998C32.4284 42.7998 32.8524 42.9011 33.2391 43.1011L43.2897 48.3545L41.3777 37.2691C41.2257 36.3998 41.5164 35.5145 42.1511 34.8985L50.2471 27.0691L39.0391 25.4371C38.1724 25.3118 37.4231 24.7705 37.0337 23.9865L32.0044 13.8691L26.9751 23.9865C26.5857 24.7705 25.8364 25.3118 24.9697 25.4371L13.7617 27.0691L21.8577 34.8985C22.4924 35.5145 22.7831 36.3998 22.6311 37.2691L20.7191 48.3545L30.7697 43.1011C31.1564 42.9011 31.5804 42.7998 32.0044 42.7998Z" fill="#FBF8F4"/>
</svg>
