<svg width="20" height="20" viewBox="0 0 20 20" fill="none" xmlns="http://www.w3.org/2000/svg">
<path fill-rule="evenodd" clip-rule="evenodd" d="M10.8333 15.8333H14.5833V12.5H10.8333V15.8333ZM5.41667 15.8333H9.16667V12.5H5.41667V15.8333ZM4.16667 7.66667C4.16667 7.5975 4.1775 7.54167 4.18833 7.5H6.78583H9.16667V10.8333H4.18833C4.1775 10.7917 4.16667 10.7358 4.16667 10.6667V7.66667ZM5.83333 5C5.83333 4.54 6.26083 4.16667 6.78583 4.16667C7.83333 4.16667 8.475 5.075 8.82833 5.83333H6.78583C6.26083 5.83333 5.83333 5.46 5.83333 5ZM13.2142 4.16667C13.7392 4.16667 14.1667 4.54 14.1667 5C14.1667 5.46 13.7392 5.83333 13.2142 5.83333H11.1667C11.5167 5.075 12.1567 4.16667 13.2142 4.16667ZM15.8333 7.66667V10.6667C15.8333 10.7358 15.8225 10.7917 15.8117 10.8333H10.8333V7.5H13.2142H15.8117C15.8225 7.54167 15.8333 7.5975 15.8333 7.66667ZM16 5.83333H15.6725C15.7708 5.57167 15.8333 5.29417 15.8333 5C15.8333 3.62167 14.6583 2.5 13.2142 2.5C11.6125 2.5 10.6075 3.49917 10 4.4975C9.3925 3.49917 8.3875 2.5 6.78583 2.5C5.34167 2.5 4.16667 3.62167 4.16667 5C4.16667 5.29417 4.23 5.57167 4.3275 5.83333H4C3.15917 5.83333 2.5 6.63917 2.5 7.66667V10.6667C2.5 11.5892 3.03333 12.3275 3.75 12.47V16.1108C3.75 16.8767 4.4275 17.5 5.26 17.5H14.7392C15.5725 17.5 16.25 16.8767 16.25 16.1108V12.47C16.9667 12.3275 17.5 11.5892 17.5 10.6667V7.66667C17.5 6.63917 16.8408 5.83333 16 5.83333Z" fill="#897E76"/>
</svg>
