<svg width="25" height="25" viewBox="0 0 25 25" fill="none" xmlns="http://www.w3.org/2000/svg">
<rect x="0.231445" y="0.295166" width="23.9995" height="24" rx="11.9998" fill="white"/>
<path d="M6.15581 11.0126L4.76489 13.6384H18.4662L19.8575 11.0126H6.15581Z" fill="url(#paint0_linear)"/>
<path d="M18.4664 13.6375H4.76489L6.15592 11.0116H19.8576L18.4664 13.6375Z" fill="url(#paint1_linear)"/>
<g opacity="0.300003">
<g opacity="0.300003">
<path opacity="0.300003" d="M7.9458 13.6379H12.7603L16.6926 11.0121H11.8784L7.9458 13.6379Z" fill="#07A279"/>
</g>
</g>
<path d="M18.4645 13.6401L19.8556 11.0143L14.7971 13.6401H18.4645Z" fill="url(#paint2_linear)"/>
<path d="M6.15592 11.0116L4.76489 13.6375L9.82306 11.0116H6.15592Z" fill="url(#paint3_linear)"/>
<path d="M11.536 4.35532C11.3062 4.35532 11.1189 4.54006 11.1189 4.76628V6.77539L14.7324 4.35532H11.536Z" fill="url(#paint4_linear)"/>
<path d="M11.0898 6.77246V4.76346C11.0898 4.53724 11.2771 4.35251 11.5071 4.35251H14.7034L11.0898 6.77246Z" fill="url(#paint5_linear)"/>
<path d="M15.1479 6.98092C14.9186 6.98092 14.731 7.166 14.731 7.39222V9.40088L18.3447 6.98092H15.1479Z" fill="url(#paint6_linear)"/>
<path d="M14.728 9.40186V7.3932C14.728 7.16686 14.9156 6.98201 15.1449 6.98201H18.3417L14.728 9.40186Z" fill="url(#paint7_linear)"/>
<path d="M14.728 9.40186L18.3415 6.98201L14.728 8.85783V9.40186Z" fill="url(#paint8_linear)"/>
<path d="M11.0903 6.77515L14.7039 4.35519L11.0903 6.23112V6.77515Z" fill="url(#paint9_linear)"/>
<path d="M9.89282 20.2952H13.0889C13.3184 20.2952 13.5064 20.1096 13.5064 19.884L13.5062 17.8753L9.89282 20.2952Z" fill="url(#paint10_linear)"/>
<path d="M13.5025 17.8754L13.5028 19.8841C13.5028 20.1098 13.3146 20.2952 13.0851 20.2952H9.88916L13.5025 17.8754Z" fill="url(#paint11_linear)"/>
<path d="M6.28271 17.6675H9.47893C9.70882 17.6675 9.89643 17.4827 9.89643 17.2565L9.8962 15.2476L6.28271 17.6675Z" fill="url(#paint12_linear)"/>
<path d="M9.86251 15.2467L9.86274 17.2555C9.86274 17.4818 9.67513 17.6665 9.44524 17.6665H6.24902L9.86251 15.2467Z" fill="url(#paint13_linear)"/>
<path d="M9.86251 15.2467L6.24902 17.6665L9.86251 15.7907V15.2467Z" fill="url(#paint14_linear)"/>
<path d="M4.99501 10.8587C4.86829 10.9437 4.76489 11.1361 4.76489 11.2864V13.6384L14.5034 7.13581C14.63 7.05102 14.7338 6.85882 14.7338 6.70823V4.35611L4.99501 10.8587Z" fill="url(#paint15_linear)"/>
<path d="M10.1229 17.5155C9.99645 17.5999 9.89282 17.7922 9.89282 17.943L9.89305 20.2952L19.6314 13.7924C19.7585 13.7078 19.862 13.5151 19.862 13.3649V11.013L10.1229 17.5155Z" fill="url(#paint16_linear)"/>
<path d="M6.51306 14.8879C6.38623 14.9725 6.28271 15.165 6.28271 15.3154V17.6675L18.1247 9.76003C18.2514 9.67592 18.3554 9.48316 18.3554 9.33291V6.98067L6.51306 14.8879Z" fill="url(#paint17_linear)"/>
<g opacity="0.300003">
<g opacity="0.300003">
<g opacity="0.300003">
<g opacity="0.300003">
<g opacity="0.300003">
<path opacity="0.300003" d="M11.8784 13.8621L16.6613 10.6682H12.7292L7.9458 13.8621H11.8784Z" fill="url(#paint18_linear)"/>
</g>
</g>
</g>
</g>
</g>
<g opacity="0.149994">
<g opacity="0.149994">
<g opacity="0.149994">
<g opacity="0.149994">
<g opacity="0.149994">
<path opacity="0.149994" d="M19.8471 13.3055V10.9536L15.489 13.8633H19.4212L19.6165 13.733C19.7436 13.6484 19.8471 13.4557 19.8471 13.3055Z" fill="url(#paint19_linear)"/>
</g>
</g>
</g>
</g>
</g>
<g opacity="0.199997">
<g opacity="0.199997">
<g opacity="0.199997">
<g opacity="0.199997">
<g opacity="0.199997">
<path opacity="0.199997" d="M18.3769 9.27423V6.92222L14.0188 9.83228H17.9514L18.1463 9.70147C18.2729 9.61724 18.3769 9.4246 18.3769 9.27423Z" fill="url(#paint20_linear)"/>
</g>
</g>
</g>
</g>
</g>
<g opacity="0.300003">
<g opacity="0.300003">
<g opacity="0.300003">
<g opacity="0.300003">
<g opacity="0.300003">
<path opacity="0.300003" d="M14.7269 6.64762V4.29538L10.3689 7.20532H14.3012L14.4966 7.07508C14.6233 6.99029 14.7269 6.7981 14.7269 6.64762Z" fill="url(#paint21_linear)"/>
</g>
</g>
</g>
</g>
</g>
<g opacity="0.149994">
<g opacity="0.149994">
<g opacity="0.149994">
<g opacity="0.149994">
<g opacity="0.149994">
<path opacity="0.149994" d="M4.76514 11.2251V13.5771L9.12273 10.6672H5.19056L4.99537 10.7976C4.86876 10.8825 4.76514 11.0748 4.76514 11.2251Z" fill="url(#paint22_linear)"/>
</g>
</g>
</g>
</g>
</g>
<g opacity="0.199997">
<g opacity="0.199997">
<g opacity="0.199997">
<g opacity="0.199997">
<g opacity="0.199997">
<path opacity="0.199997" d="M6.25464 15.2577V17.6099L10.6126 14.7H6.68052L6.4851 14.8303C6.35815 14.9148 6.25464 15.1074 6.25464 15.2577Z" fill="url(#paint23_linear)"/>
</g>
</g>
</g>
</g>
</g>
<g opacity="0.149994">
<g opacity="0.149994">
<g opacity="0.149994">
<g opacity="0.149994">
<g opacity="0.149994">
<path opacity="0.149994" d="M9.8894 17.8819V20.2339L14.2472 17.3238H10.3146L10.1193 17.4543C9.99269 17.5389 9.8894 17.7311 9.8894 17.8819Z" fill="url(#paint24_linear)"/>
</g>
</g>
</g>
</g>
</g>
<path d="M4.99537 10.7976C4.86853 10.8825 4.76514 11.0748 4.76514 11.2251V13.5771L14.7125 4.30975L4.99537 10.7976Z" fill="url(#paint25_linear)"/>
<path d="M10.1303 17.4514C10.0038 17.5359 9.90015 17.7281 9.90015 17.8789L9.90038 20.231L19.8477 10.9634L10.1303 17.4514Z" fill="url(#paint26_linear)"/>
<path d="M6.4851 14.8303C6.35815 14.9148 6.25464 15.1074 6.25464 15.2577V17.6099L16.202 8.34235L6.4851 14.8303Z" fill="url(#paint27_linear)"/>
<path d="M13.5028 17.8112L9.8894 20.231L13.5028 18.3553V17.8112Z" fill="url(#paint28_linear)"/>
<defs>
<linearGradient id="paint0_linear" x1="4.76481" y1="12.3255" x2="17.7" y2="12.3255" gradientUnits="userSpaceOnUse">
<stop stop-color="#C4AE2B"/>
<stop offset="0.0452979" stop-color="#C4AE2B"/>
<stop offset="0.175497" stop-color="#C4AE2B"/>
<stop offset="0.540301" stop-color="#259747"/>
<stop offset="1" stop-color="#1B4274"/>
</linearGradient>
<linearGradient id="paint1_linear" x1="2.43245" y1="12.3245" x2="18.9915" y2="12.3245" gradientUnits="userSpaceOnUse">
<stop stop-color="#9D3D2A"/>
<stop offset="0.198929" stop-color="#259747"/>
<stop offset="0.5" stop-color="#259747"/>
<stop offset="0.742494" stop-color="#259747"/>
<stop offset="1" stop-color="#1B4274"/>
</linearGradient>
<linearGradient id="paint2_linear" x1="4.85649" y1="12.3272" x2="18.1347" y2="12.3272" gradientUnits="userSpaceOnUse">
<stop stop-color="#C03038"/>
<stop offset="0.198929" stop-color="#50B548"/>
<stop offset="0.5" stop-color="#50B548"/>
<stop offset="0.742494" stop-color="#50B548"/>
<stop offset="1" stop-color="#108689"/>
</linearGradient>
<linearGradient id="paint3_linear" x1="5.32236" y1="12.3246" x2="26.3656" y2="12.3246" gradientUnits="userSpaceOnUse">
<stop stop-color="#C03038"/>
<stop offset="0.198929" stop-color="#50B548"/>
<stop offset="0.5" stop-color="#50B548"/>
<stop offset="0.742494" stop-color="#50B548"/>
<stop offset="1" stop-color="#108689"/>
</linearGradient>
<linearGradient id="paint4_linear" x1="3.6407" y1="5.56537" x2="12.7533" y2="5.56537" gradientUnits="userSpaceOnUse">
<stop stop-color="#A5CD3D"/>
<stop offset="1" stop-color="#BA3E26"/>
</linearGradient>
<linearGradient id="paint5_linear" x1="13.1359" y1="5.5625" x2="-0.72409" y2="5.5625" gradientUnits="userSpaceOnUse">
<stop stop-color="#9D3D2A"/>
<stop offset="0.263896" stop-color="#259747"/>
<stop offset="0.663293" stop-color="#259747"/>
<stop offset="0.826592" stop-color="#259747"/>
<stop offset="1" stop-color="#1B4274"/>
</linearGradient>
<linearGradient id="paint6_linear" x1="5.67941" y1="8.19092" x2="16.8427" y2="8.19092" gradientUnits="userSpaceOnUse">
<stop stop-color="#83C341"/>
<stop offset="1" stop-color="#259747"/>
</linearGradient>
<linearGradient id="paint7_linear" x1="0.394007" y1="8.1919" x2="18.1972" y2="8.1919" gradientUnits="userSpaceOnUse">
<stop stop-color="#9D3D2A"/>
<stop offset="0.198929" stop-color="#259747"/>
<stop offset="0.5" stop-color="#259747"/>
<stop offset="0.742494" stop-color="#259747"/>
<stop offset="1" stop-color="#1B4274"/>
</linearGradient>
<linearGradient id="paint8_linear" x1="3.60136" y1="8.19179" x2="19.2235" y2="8.19179" gradientUnits="userSpaceOnUse">
<stop stop-color="#C03038"/>
<stop offset="0.198929" stop-color="#50B548"/>
<stop offset="0.5" stop-color="#50B548"/>
<stop offset="0.742494" stop-color="#50B548"/>
<stop offset="1" stop-color="#108689"/>
</linearGradient>
<linearGradient id="paint9_linear" x1="15.0916" y1="5.56518" x2="0.581836" y2="5.56519" gradientUnits="userSpaceOnUse">
<stop stop-color="#C03038"/>
<stop offset="0.198929" stop-color="#50B548"/>
<stop offset="0.5" stop-color="#50B548"/>
<stop offset="0.742494" stop-color="#50B548"/>
<stop offset="1" stop-color="#108689"/>
</linearGradient>
<linearGradient id="paint10_linear" x1="7.76611" y1="19.0853" x2="19.4698" y2="19.0853" gradientUnits="userSpaceOnUse">
<stop stop-color="#3D63AD"/>
<stop offset="1" stop-color="#1B4274"/>
</linearGradient>
<linearGradient id="paint11_linear" x1="23.2044" y1="19.0854" x2="10.374" y2="19.0854" gradientUnits="userSpaceOnUse">
<stop stop-color="#9D3D2A"/>
<stop offset="0.198929" stop-color="#259747"/>
<stop offset="0.5" stop-color="#259747"/>
<stop offset="0.742494" stop-color="#259747"/>
<stop offset="1" stop-color="#1B4274"/>
</linearGradient>
<linearGradient id="paint12_linear" x1="6.2827" y1="16.4575" x2="20.7487" y2="16.4575" gradientUnits="userSpaceOnUse">
<stop stop-color="#83C341"/>
<stop offset="1" stop-color="#259747"/>
</linearGradient>
<linearGradient id="paint13_linear" x1="20.8865" y1="16.4566" x2="5.51865" y2="16.4566" gradientUnits="userSpaceOnUse">
<stop stop-color="#9D3D2A"/>
<stop offset="0.198929" stop-color="#259747"/>
<stop offset="0.5" stop-color="#259747"/>
<stop offset="0.742494" stop-color="#259747"/>
<stop offset="1" stop-color="#1B4274"/>
</linearGradient>
<linearGradient id="paint14_linear" x1="20.9893" y1="16.4566" x2="5.36706" y2="16.4566" gradientUnits="userSpaceOnUse">
<stop stop-color="#C03038"/>
<stop offset="0.198929" stop-color="#50B548"/>
<stop offset="0.5" stop-color="#50B548"/>
<stop offset="0.742494" stop-color="#50B548"/>
<stop offset="1" stop-color="#108689"/>
</linearGradient>
<linearGradient id="paint15_linear" x1="3.43988" y1="13.1856" x2="15.0754" y2="5.20975" gradientUnits="userSpaceOnUse">
<stop stop-color="#FCE930"/>
<stop offset="1" stop-color="#ED2A2A"/>
</linearGradient>
<linearGradient id="paint16_linear" x1="8.18239" y1="20.0984" x2="19.8178" y2="12.1226" gradientUnits="userSpaceOnUse">
<stop stop-color="#33C4F3"/>
<stop offset="1" stop-color="#108689"/>
</linearGradient>
<linearGradient id="paint17_linear" x1="5.81671" y1="16.6406" x2="17.4522" y2="8.66476" gradientUnits="userSpaceOnUse">
<stop stop-color="#E3E331"/>
<stop offset="1" stop-color="#50B548"/>
</linearGradient>
<linearGradient id="paint18_linear" x1="2.6219" y1="12.2652" x2="15.7902" y2="12.2652" gradientUnits="userSpaceOnUse">
<stop stop-color="#E3E331"/>
<stop offset="1" stop-color="#50B548"/>
</linearGradient>
<linearGradient id="paint19_linear" x1="12.8269" y1="12.4084" x2="19.4115" y2="12.4084" gradientUnits="userSpaceOnUse">
<stop stop-color="#33C4F3"/>
<stop offset="1" stop-color="#108689"/>
</linearGradient>
<linearGradient id="paint20_linear" x1="11.3566" y1="8.37721" x2="17.9413" y2="8.37721" gradientUnits="userSpaceOnUse">
<stop stop-color="#E3E331"/>
<stop offset="1" stop-color="#50B548"/>
</linearGradient>
<linearGradient id="paint21_linear" x1="7.70679" y1="5.75037" x2="14.2913" y2="5.75037" gradientUnits="userSpaceOnUse">
<stop stop-color="#FCE930"/>
<stop offset="1" stop-color="#ED2A2A"/>
</linearGradient>
<linearGradient id="paint22_linear" x1="11.7846" y1="12.1222" x2="5.20072" y2="12.1222" gradientUnits="userSpaceOnUse">
<stop stop-color="#FCE930"/>
<stop offset="1" stop-color="#ED2A2A"/>
</linearGradient>
<linearGradient id="paint23_linear" x1="13.2747" y1="16.1549" x2="6.69025" y2="16.1549" gradientUnits="userSpaceOnUse">
<stop stop-color="#E3E331"/>
<stop offset="1" stop-color="#50B548"/>
</linearGradient>
<linearGradient id="paint24_linear" x1="16.9092" y1="18.7789" x2="10.3249" y2="18.7789" gradientUnits="userSpaceOnUse">
<stop stop-color="#33C4F3"/>
<stop offset="1" stop-color="#108689"/>
</linearGradient>
<linearGradient id="paint25_linear" x1="3.71601" y1="13.5654" x2="12.1326" y2="6.54108" gradientUnits="userSpaceOnUse">
<stop stop-color="#FFDF2C"/>
<stop offset="1" stop-color="#F3762D"/>
</linearGradient>
<linearGradient id="paint26_linear" x1="7.56177" y1="20.2615" x2="17.2851" y2="13.1684" gradientUnits="userSpaceOnUse">
<stop stop-color="#75EBFB"/>
<stop offset="1" stop-color="#1995A3"/>
</linearGradient>
<linearGradient id="paint27_linear" x1="4.60018" y1="17.129" x2="14.6384" y2="9.79171" gradientUnits="userSpaceOnUse">
<stop stop-color="#F7FE05"/>
<stop offset="1" stop-color="#65BC46"/>
</linearGradient>
<linearGradient id="paint28_linear" x1="25.1441" y1="19.0212" x2="9.52193" y2="19.0212" gradientUnits="userSpaceOnUse">
<stop stop-color="#C03038"/>
<stop offset="0.198929" stop-color="#50B548"/>
<stop offset="0.5" stop-color="#50B548"/>
<stop offset="0.742494" stop-color="#50B548"/>
<stop offset="1" stop-color="#108689"/>
</linearGradient>
</defs>
</svg>
