<svg width="13" height="13" viewBox="0 0 13 13" fill="none" xmlns="http://www.w3.org/2000/svg">
<path d="M5.52113 7.72662C5.22585 7.80951 4.90879 7.74946 4.66428 7.56433C4.41976 7.37919 4.27595 7.09031 4.27563 6.78362V5.07162C4.28766 4.53996 4.72209 4.11523 5.25388 4.11523C5.78568 4.11523 6.22011 4.53996 6.23213 5.07162V6.57162" stroke="#897E76" stroke-linecap="round" stroke-linejoin="round"/>
<path d="M6.23145 6.53912V5.07162C6.24347 4.53996 6.6779 4.11523 7.2097 4.11523C7.74149 4.11523 8.17592 4.53996 8.18795 5.07162V6.53912" stroke="#897E76" stroke-linecap="round" stroke-linejoin="round"/>
<path d="M10.1457 8.33857V1.64857C10.1537 1.2938 9.96906 0.962494 9.66309 0.782754C9.35712 0.603014 8.97781 0.603014 8.67184 0.782754C8.36587 0.962494 8.18119 1.2938 8.18922 1.64857V5.07157" stroke="#897E76" stroke-linecap="round" stroke-linejoin="round"/>
<path d="M6.23234 10.4521C6.23194 9.93303 6.43793 9.4351 6.80492 9.06802C7.1719 8.70094 7.66978 8.49483 8.18884 8.49509H6.47684C5.94519 8.48307 5.52046 8.04864 5.52046 7.51684C5.52046 6.98505 5.94519 6.55061 6.47684 6.53859H8.20284C8.61948 6.53896 9.02546 6.67033 9.36334 6.91409C9.83557 7.23745 10.1259 7.7661 10.1453 8.33809C10.1453 9.87059 8.60234 11.9196 6.23234 11.9196C4.07125 11.9196 2.31934 10.1677 2.31934 8.00659V2.62659C2.31132 2.27183 2.496 1.94052 2.80197 1.76078C3.10794 1.58104 3.48724 1.58104 3.79321 1.76078C4.09918 1.94052 4.28386 2.27183 4.27584 2.62659V5.07159" stroke="#897E76" stroke-linecap="round" stroke-linejoin="round"/>
</svg>
