<svg width="10" height="17" viewBox="0 0 10 17" fill="none" xmlns="http://www.w3.org/2000/svg">
<path fill-rule="evenodd" clip-rule="evenodd" d="M3.5602 1.6C2.65782 1.6 1.8002 2.42587 1.8002 3.44V11.44C1.8002 13.1371 3.18376 14.4882 4.85643 14.56H5.0002C6.71837 14.56 8.12019 13.1582 8.12019 11.44V3.2C8.12019 2.75817 8.47837 2.4 8.9202 2.4C9.36202 2.4 9.72019 2.75817 9.72019 3.2V11.44C9.72019 14.0418 7.60202 16.16 5.0002 16.16H4.8402C4.82994 16.16 4.81969 16.1598 4.80945 16.1594C2.32862 16.064 0.200195 14.058 0.200195 11.44V3.44C0.200195 1.57413 1.74257 0 3.5602 0C5.42606 0 7.0002 1.54238 7.0002 3.36V11.2C7.0002 12.3307 6.11249 13.36 4.8402 13.36C3.70946 13.36 2.6802 12.4723 2.6802 11.2V3.92C2.6802 3.47817 3.03837 3.12 3.4802 3.12C3.92202 3.12 4.2802 3.47817 4.2802 3.92V11.2C4.2802 11.5277 4.53093 11.76 4.8402 11.76C5.1679 11.76 5.4002 11.5093 5.4002 11.2V3.36C5.4002 2.45762 4.57433 1.6 3.5602 1.6Z" fill="#897E76"/>
</svg>
