<svg width="21" height="20" viewBox="0 0 21 20" fill="none" xmlns="http://www.w3.org/2000/svg">
<path opacity="0.3" fill-rule="evenodd" clip-rule="evenodd" d="M10.5 0.000488281C4.97715 0.000488281 0.5 4.47764 0.5 10.0005C0.5 15.5233 4.97715 20.0005 10.5 20.0005C16.0228 20.0005 20.5 15.5233 20.5 10.0005C20.5 4.47764 16.0228 0.000488281 10.5 0.000488281ZM11.3142 12.8239C11.2156 12.9279 11.0231 12.9489 11.0231 12.9489H10.3856C10.3856 12.9489 8.97906 13.0318 7.74001 11.7659C6.38879 10.3847 5.19564 7.64446 5.19564 7.64446C5.19564 7.64446 5.12678 7.46471 5.20138 7.37817C5.28537 7.28035 5.5144 7.27421 5.5144 7.27421L7.03831 7.26448C7.03831 7.26448 7.18178 7.28752 7.28456 7.36178C7.36959 7.42323 7.41707 7.53743 7.41707 7.53743C7.41707 7.53743 7.66332 8.14889 7.98938 8.70196C8.62639 9.78199 8.92272 10.0181 9.1387 9.90234C9.45381 9.73385 9.35939 8.37575 9.35939 8.37575C9.35939 8.37575 9.36512 7.8831 9.20079 7.66341C9.07349 7.49339 8.8335 7.44372 8.7276 7.42989C8.64152 7.41862 8.78238 7.223 8.96497 7.13543C9.23939 7.00382 9.72354 6.99614 10.2958 7.00177C10.7419 7.00638 10.8702 7.03352 11.0445 7.075C11.4489 7.17079 11.4363 7.47779 11.409 8.14036C11.4009 8.33851 11.3914 8.56846 11.3914 8.83408C11.3914 8.89377 11.3897 8.9574 11.3878 9.02285C11.3784 9.3623 11.3676 9.751 11.5954 9.89568C11.7123 9.96942 11.9977 9.90643 12.7119 8.7163C13.0505 8.15196 13.304 7.48878 13.304 7.48878C13.304 7.48878 13.3598 7.37049 13.4459 7.31979C13.5341 7.26806 13.653 7.28394 13.653 7.28394L15.2568 7.27421C15.2568 7.27421 15.7388 7.21737 15.8166 7.43143C15.8985 7.65522 15.6366 8.17859 14.9813 9.03585C14.3597 9.84927 14.0572 10.1488 14.085 10.4136C14.1053 10.6071 14.3019 10.7822 14.6792 11.1258C15.4669 11.8436 15.678 12.2213 15.7288 12.312C15.733 12.3195 15.7361 12.3251 15.7383 12.3287C16.0915 12.9038 15.3465 12.9489 15.3465 12.9489L13.9217 12.9683C13.9217 12.9683 13.616 13.0277 13.2132 12.7563C13.0023 12.6143 12.7961 12.3822 12.5997 12.1612C12.2998 11.8238 12.0228 11.512 11.7864 11.5856C11.3893 11.7096 11.4013 12.5489 11.4013 12.5489C11.4013 12.5489 11.4045 12.7286 11.3142 12.8239Z" fill="#575552"/>
</svg>
