<svg width="20" height="20" viewBox="0 0 20 20" fill="none" xmlns="http://www.w3.org/2000/svg">
<rect x="0.5" y="0.5" width="19" height="19" rx="9.5" fill="#0EA36C"/>
<path fill-rule="evenodd" clip-rule="evenodd" d="M13.1337 13.9492C12.8064 13.9494 12.4986 13.8218 12.267 13.5903C12.0354 13.3587 11.9078 13.0508 11.9078 12.7234V9.76378L14.0006 11.8564C14.232 12.088 14.3596 12.3958 14.3596 12.7234C14.3596 13.3993 13.8099 13.9492 13.1337 13.9492ZM10.8578 11.6848L8.72513 9.55236H10.8578V11.6848ZM10.0828 13.2973C9.9853 13.395 9.87821 13.4831 9.76306 13.5603L6.84972 10.6469C6.92652 10.5322 7.01463 10.4251 7.11278 10.3272L7.56377 9.87603L10.534 12.8461L10.0828 13.2971V13.2973ZM8.59777 13.9124H6.49758V11.8122C6.49758 11.8019 6.49889 11.7918 6.49913 11.7814L8.62853 13.911C8.61828 13.911 8.60802 13.9124 8.59777 13.9124ZM6.46073 7.27618C6.46073 6.60026 7.0107 6.05046 7.6866 6.05046C8.01393 6.05046 8.32195 6.17776 8.55341 6.40937L10.6462 8.50225L7.68672 8.50201C7.35926 8.50225 7.05136 8.37472 6.81978 8.14311C6.58821 7.9115 6.46073 7.6037 6.46073 7.27618ZM14.7432 11.1142L13.1814 9.55236H13.535V9.55271C13.8624 9.55271 14.1703 9.68012 14.4019 9.91162L15.1449 9.16872C14.7149 8.73887 14.1433 8.50225 13.5353 8.50225V6.8748L11.908 6.87445C11.908 6.26655 11.6714 5.69506 11.2414 5.26498L10.4985 6.00811C10.7302 6.23972 10.8575 6.54752 10.8575 6.87504H10.8579V7.22834L9.29585 5.66659C8.86608 5.23674 8.29416 5 7.6866 5C6.43139 4.99988 5.41016 6.02083 5.41016 7.27606C5.41016 7.88408 5.64698 8.45569 6.07699 8.88554C6.24494 9.05342 6.43892 9.19431 6.65176 9.30302L6.3701 9.58445C5.77505 10.1796 5.44748 10.9707 5.44724 11.8122V14.9628H8.59777C9.43918 14.9628 10.2303 14.6349 10.8253 14.0398L11.107 13.7583C11.2148 13.9699 11.3556 14.1639 11.5243 14.3332C11.9545 14.763 12.526 14.9998 13.1338 15C14.3889 14.9999 15.4099 13.9788 15.4102 12.7237C15.4102 12.1157 15.1732 11.5441 14.7432 11.1142Z" fill="white"/>
<rect x="0.5" y="0.5" width="19" height="19" rx="9.5" stroke="#FBF8F4"/>
</svg>
