<svg width="20" height="20" viewBox="0 0 20 20" fill="none" xmlns="http://www.w3.org/2000/svg">
<path fill-rule="evenodd" clip-rule="evenodd" d="M13.3786 8.86794L11.1319 6.62128L12.7253 5.02878L14.9703 7.27378L13.3786 8.86794ZM7.56444 14.6871L5.08444 14.9129L5.30444 12.4496L9.95361 7.79961L12.2003 10.0463L7.56444 14.6871ZM16.1678 6.11378L13.8844 3.83128C13.2453 3.19128 12.2294 3.16794 11.6228 3.77461L9.95361 5.44294L8.92111 4.41044C8.59611 4.08544 8.06861 4.08544 7.74278 4.41044C7.41778 4.73628 7.41778 5.26378 7.74278 5.58878L8.77528 6.62128L4.12528 11.2713C3.85444 11.5421 3.68611 11.9021 3.65111 12.2829L3.33528 15.7579C3.31361 16.0038 3.40111 16.2471 3.57611 16.4221C3.73361 16.5796 3.94611 16.6663 4.16528 16.6663C4.19111 16.6663 4.21611 16.6654 4.24111 16.6629L7.71611 16.3479C8.09694 16.3129 8.45694 16.1438 8.72778 15.8729L13.3778 11.2238L14.4094 12.2554C14.5728 12.4188 14.7853 12.4996 14.9986 12.4996C15.2119 12.4996 15.4253 12.4188 15.5878 12.2554C15.9136 11.9304 15.9136 11.4029 15.5878 11.0771L14.5561 10.0454L16.2244 8.37628C16.8328 7.76878 16.8069 6.75378 16.1678 6.11378Z" fill="#FA7355"/>
</svg>
