<svg width="174" height="159" viewBox="0 0 174 159" fill="none" xmlns="http://www.w3.org/2000/svg">
<path d="M82.7208 34.3949L104.402 31.9785L130.518 42.1073C130.518 42.1073 131.312 111.354 129.724 110.957C128.102 110.559 69.5799 107.315 69.5799 106.091C69.5799 104.866 65.7402 73.288 65.7402 73.288L82.7208 34.3949Z" fill="#FECA55"/>
<path d="M63.2583 42.1069C54.5528 58.2931 52.1365 63.1588 52.1365 63.1588L25.2588 39.2933C25.1926 35.553 24.5968 31.7133 23.1735 28.2708C21.386 24.0008 18.6056 23.4381 15.6265 20.095C13.9053 18.1421 11.8531 20.7901 13.5743 22.743L15.3286 24.8615C15.3617 25.9207 15.9575 28.7011 16.0899 29.7603C13.2102 27.013 9.37051 23.0078 5.66325 21.2866C4.63713 20.8232 3.67721 21.1873 3.1145 21.8824C2.25388 21.9817 1.55878 22.7099 1.36017 23.5374C0.532658 24.1663 0.0692461 25.4573 0.797459 26.5496C0.234749 27.1454 -0.0631441 28.006 0.334063 28.9328C0.367163 28.999 0.400268 29.0321 0.400268 29.0983C0.168564 29.33 0.466469 30.1576 0.234765 30.5548C-0.791353 32.3753 2.18769 39.6574 7.71549 43.2985C9.33742 47.072 12.7137 49.5214 12.9785 49.5876C18.8373 57.4655 39.1279 85.5348 49.025 94.7368C60.2461 105.197 69.4812 92.0887 76.9619 68.2232C84.4426 44.3246 85.8659 36.2481 85.8659 36.2481L105.097 32.2098C80.7023 30.7534 71.9968 25.8876 63.2583 42.1069Z" fill="#FFA79B"/>
<path d="M105.197 32.1759L104.734 32.2752L91.6923 35.0225L85.9659 36.2141C85.9659 36.2141 84.5426 44.3238 77.0619 68.1893C76.5654 69.745 76.0689 71.2677 75.5724 72.7241C69.0515 67.1632 62.3321 61.834 55.5465 56.571C57.2677 53.294 59.7503 48.5938 63.2921 42.0398C70.0115 29.5609 76.6978 29.594 90.6331 30.8849C94.6383 31.2491 99.2062 31.7456 104.568 32.0766C104.767 32.1428 104.966 32.1428 105.197 32.1759Z" fill="#FECA55"/>
<path d="M76.4658 45.1185C75.87 51.6724 75.2742 58.2264 74.6452 64.7803C74.6121 65.0451 75.0425 65.0451 75.0425 64.7803C75.6383 58.2264 76.2341 51.6724 76.863 45.1185C76.863 44.8537 76.4658 44.8537 76.4658 45.1185Z" fill="white"/>
<path d="M53.5589 66.5345C53.2941 65.7401 53.0293 64.9126 52.7645 64.1182C52.6983 63.8865 52.3011 63.9858 52.3673 64.2175C52.6321 65.0119 52.8969 65.8394 53.1617 66.6338C53.2279 66.8986 53.6251 66.7994 53.5589 66.5345Z" fill="#952C28"/>
<path d="M11.4237 30.6543C9.13977 28.2379 6.82273 25.7885 4.53879 23.3721C4.37329 23.1735 4.07537 23.4714 4.24088 23.67C6.52482 26.0864 8.84185 28.5358 11.1258 30.9522C11.3244 31.1177 11.5892 30.8198 11.4237 30.6543Z" fill="#952C28"/>
<path d="M8.80774 33.2698C6.7224 30.8866 4.60397 28.4702 2.51863 26.087C2.35313 25.8884 2.05523 26.1863 2.22074 26.3849C4.30607 28.7681 6.42451 31.1845 8.50985 33.5677C8.67535 33.7332 8.97324 33.4353 8.80774 33.2698Z" fill="#952C28"/>
<path d="M6.69008 35.8839C5.00195 33.9972 3.34691 32.1104 1.65878 30.2237C1.49328 30.0251 1.19537 30.323 1.36087 30.5216C3.049 32.4083 4.70403 34.2951 6.39216 36.1818C6.59077 36.3804 6.88868 36.0825 6.69008 35.8839Z" fill="#952C28"/>
<path d="M17.3156 38.7314C16.3226 36.5137 16.124 34.0973 16.6867 31.7141C16.7529 31.4493 16.3557 31.35 16.2895 31.6148C15.6937 34.0973 15.9254 36.6129 16.9515 38.93C17.0508 39.1948 17.4149 38.9631 17.3156 38.7314Z" fill="#952C28"/>
<path d="M89.5733 95.0007C82.4566 94.769 75.3069 94.5042 68.1903 93.9746C68.9185 100.231 69.5474 105.593 69.5474 106.089C69.5474 107.314 128.069 110.558 129.691 110.955C130.188 111.088 130.452 104.765 130.585 95.9276C116.914 95.7289 103.244 95.4641 89.5733 95.0007Z" fill="#B47F5A"/>
<path d="M117.477 97.4841C141.839 92.7838 173.053 83.4164 173.946 106.62C174.84 129.79 144.586 130.982 110.857 130.916C77.1604 130.816 75.3729 130.816 69.5803 137.47C64.1849 143.693 59.2199 148.856 52.7983 143.064L72.6256 111.916C72.6587 111.949 105.263 99.8674 117.477 97.4841Z" fill="#B47F5A"/>
<path d="M137.999 95.9287C140.416 96.69 142.832 96.8224 145.348 96.4914C149.254 95.9949 152.63 94.2737 154.947 91.5925C148.691 91.5594 141.475 92.6848 134.16 94.1081C135.252 95.0019 136.94 95.5977 137.999 95.9287Z" fill="black"/>
<path d="M78.5834 109.766C74.9755 111.057 72.6584 111.917 72.6584 111.917L52.8312 143.065C59.2858 148.857 64.2178 143.661 69.6132 137.471C72.526 134.128 74.4128 132.473 79.7419 131.645C78.3186 124.528 78.1531 117.081 78.5834 109.766Z" fill="black"/>
<path d="M113.902 122.673C113.902 122.673 108.572 119.231 101.522 114.861C100.562 122.905 99.6022 130.948 98.1458 138.892C106.255 141.474 107.944 143.526 110.459 148.194C114.398 155.542 118.138 161.765 126.248 157.727L113.902 122.673Z" fill="#FFA79B"/>
<path d="M103.244 115.922C93.3139 109.732 78.9483 101.026 71.6 97.7824C47.8006 87.2895 18.1425 70.6399 11.2576 92.9166C4.37269 115.193 35.1562 123.7 69.7794 131.777C84.5423 135.219 93.347 137.305 98.9079 139.125C100.762 131.479 102.681 123.799 103.244 115.922Z" fill="#B47F5A"/>
<path d="M113.903 122.674C113.903 122.674 111.188 120.92 107.084 118.338C107.514 120.787 108.242 123.204 108.474 125.719C108.673 128.202 108.077 130.486 107.117 132.77C105.892 135.649 104.336 138.298 103.84 141.111C107.349 142.899 108.706 144.885 110.493 148.195C114.432 155.543 118.172 161.766 126.282 157.728L113.903 122.674Z" fill="black"/>
<path d="M100.959 114.266C90.2017 108.87 78.9475 104.501 67.3623 101.191C67.0975 101.125 66.9982 101.522 67.263 101.588C78.8151 104.898 90.0361 109.268 100.761 114.63C100.992 114.729 101.191 114.398 100.959 114.266Z" fill="white"/>
<path d="M141.012 101.093C127.805 100.861 114.631 101.887 101.622 104.138C97.8819 104.8 94.1747 105.528 90.5005 106.389C90.2357 106.455 90.3681 106.852 90.5998 106.786C103.476 103.807 116.65 102.053 129.857 101.589C133.564 101.457 137.305 101.424 141.012 101.49C141.277 101.523 141.277 101.093 141.012 101.093Z" fill="white"/>
<path d="M53.6586 94.8039C48.528 93.215 43.3643 91.6262 38.2337 90.0705C37.9689 90.0043 37.8696 90.3684 38.1344 90.4677C43.265 92.0565 48.4287 93.6454 53.5593 95.2011C53.791 95.2673 53.8903 94.9032 53.6586 94.8039Z" fill="white"/>
<path d="M104.37 31.9766C119.166 33.3999 137.967 31.1821 140.218 44.7203C142.435 58.2915 144.057 64.5475 145.084 74.2791C146.11 84.0107 149.751 95.7283 137.603 96.953C125.455 98.1777 97.518 100.395 97.518 100.395L92.0564 85.5995C92.0564 85.5995 114.73 77.4899 122.012 75.2721L120.589 46.1105L104.37 31.9766Z" fill="#FFA79B"/>
<path d="M144.521 69.7112C136.908 69.8767 129.295 70.2077 121.814 71.4655L120.589 46.1436L110.593 37.4051L104.734 32.2745L104.569 32.1421L104.37 31.9766C107.68 32.3076 111.189 32.44 114.664 32.6055C126.746 33.2013 138.464 34.1943 140.185 44.7534C142.071 56.0407 143.528 62.2967 144.521 69.7112Z" fill="#FECA55"/>
<path d="M121.416 50.6127C121.416 50.3479 121.019 50.3479 121.019 50.6127C121.052 56.9018 121.085 63.1578 121.118 69.4469C121.118 69.7117 121.516 69.7117 121.516 69.4469C121.482 63.1578 121.449 56.8687 121.416 50.6127Z" fill="white"/>
<path d="M126.05 75.2714C125.09 75.2714 124.163 75.2383 123.203 75.2383C122.938 75.2383 122.938 75.6355 123.203 75.6355C124.163 75.6355 125.09 75.6686 126.05 75.6686C126.315 75.6686 126.315 75.2714 126.05 75.2714Z" fill="#952C28"/>
<path d="M102.848 35.3542C105.694 34.659 108.475 33.8646 111.288 33.0702L105.132 18.5391L94.3409 23.3386C94.5395 23.5041 96.2608 30.5546 97.6179 36.3141C99.3722 35.9831 101.127 35.7514 102.848 35.3542Z" fill="#FFA79B"/>
<path d="M101.852 21.0214C101.819 20.5911 101.786 20.1608 101.687 19.7305L94.3717 23.3715C94.5041 23.4708 95.2985 26.5823 96.1922 30.3227C98.9727 27.7077 101.157 24.5301 101.852 21.0214Z" fill="black"/>
<path d="M113.437 11.3569C113.371 7.61658 107.777 3.77691 103.342 3.2473C101.422 3.0156 100.959 1.45987 100.032 2.75079C97.7478 5.99465 90.3002 15.8255 90.6312 19.6652C91.1277 25.2592 97.8802 26.517 102.283 24.4317C106.718 22.3463 113.537 16.653 113.437 11.3569Z" fill="#FFA79B"/>
<path d="M113.67 12.184C114.266 11.224 113.968 10.0324 113.174 9.37041C113.141 9.3373 113.141 9.3373 113.108 9.3042C113.373 7.45057 112.015 5.96105 110.36 5.79555C110.162 5.33214 109.798 4.96803 109.301 4.73632C109.235 4.53772 109.169 4.37222 109.036 4.23982C108.738 3.94191 108.374 3.80951 107.977 3.80951C107.712 2.982 107.249 2.25378 106.454 1.85657C105.958 1.59176 105.395 1.65797 104.965 1.88967C104.005 0.896655 102.813 0.0691462 101.622 0.00294506C101.125 -0.0301555 100.132 0.201544 99.702 1.42627C99.2055 1.39317 98.742 1.65797 98.5103 2.18758C98.1793 2.98199 98.5766 3.80951 99.2055 4.30602C99.5696 4.60393 100.099 4.80252 100.596 4.76942C102.118 6.45755 106.256 9.37041 107.249 9.33731C106.488 11.0916 105.627 15.1299 107.712 15.494C108.11 17.2483 106.157 20.1281 107.116 21.3528C109.235 19.6316 111.221 17.5463 112.379 15.2954C112.413 15.2954 112.479 15.2954 112.545 15.2954C114.035 14.9644 114.498 13.2432 113.67 12.184Z" fill="#952C28"/>
<path d="M111.751 19.7969C112.247 17.8108 110.294 15.2621 107.481 15.5269C106.19 17.3474 104.866 19.1348 103.509 20.8892C104.171 22.0146 106.19 23.3717 107.977 23.2393C109.996 23.0407 111.221 21.9153 111.751 19.7969Z" fill="#FFA79B"/>
<path d="M108.705 18.4727C107.911 18.572 107.116 18.6382 106.322 18.7375C106.057 18.7706 106.123 19.1347 106.388 19.1347C106.454 19.1347 106.487 19.1347 106.554 19.1347C106.587 19.1347 106.587 19.1347 106.62 19.1347C107.348 19.0685 108.043 18.9692 108.771 18.903C109.036 18.8368 108.97 18.4396 108.705 18.4727Z" fill="#952C28"/>
<path d="M102.25 11.6207C102.018 11.8855 101.754 12.1834 101.522 12.4482C101.257 12.7461 100.86 12.2827 101.125 12.0179C101.356 11.7531 101.621 11.4552 101.853 11.1904C102.085 10.8925 102.482 11.3228 102.25 11.6207Z" fill="black"/>
<path d="M98.5106 8.54258C98.2789 8.80739 98.0141 9.10529 97.7824 9.3701C97.5176 9.668 97.1204 9.2046 97.3852 8.93979C97.6169 8.67499 97.8817 8.37708 98.1134 8.11228C98.3451 7.81437 98.7423 8.24468 98.5106 8.54258Z" fill="black"/>
<path d="M96.2265 11.4552C96.4582 11.5545 96.3258 11.9186 96.0941 11.8193C95.5645 11.6207 95.2997 12.2496 95.4321 12.6799C95.5645 13.1102 95.9286 13.4081 96.2596 13.706C96.4582 13.8715 96.2265 14.2025 96.0279 14.037C95.4983 13.5736 94.8694 12.9778 95.0349 12.1834C95.1011 11.6207 95.6969 11.2566 96.2265 11.4552Z" fill="#952C28"/>
<path d="M103.011 9.50345C103.309 9.83446 103.573 10.1324 103.871 10.4634C104.236 10.8606 103.607 11.3571 103.242 10.9599C102.945 10.6289 102.68 10.331 102.382 9.99996C102.051 9.60275 102.68 9.10624 103.011 9.50345Z" fill="#952C28"/>
<path d="M99.3047 6.22498C99.5033 6.39048 99.7019 6.55598 99.9336 6.72149C100.331 7.05249 99.8674 7.6814 99.4702 7.3835C99.2716 7.218 99.073 7.05249 98.8413 6.88699C98.4441 6.55598 98.9075 5.89397 99.3047 6.22498Z" fill="#952C28"/>
<path d="M93.8102 17.744C94.1413 18.1081 94.704 18.2074 95.1343 18.0088C95.366 17.9095 95.5315 18.2736 95.2998 18.3729C94.6709 18.6377 93.9757 18.5053 93.4792 18.0088C93.3137 17.8102 93.6116 17.5785 93.8102 17.744Z" fill="#952C28"/>
<path d="M114.697 32.6082C113.704 34.4949 112.28 36.1168 110.592 37.4077C108.738 38.8311 106.521 39.8241 104.038 40.2213C99.2717 40.9826 93.9094 38.9635 91.6586 35.0245C90.9966 33.8329 90.5994 32.4758 90.5994 30.9531C94.6045 31.3172 99.1724 31.8137 104.535 32.1447L104.336 31.9792C107.679 32.2771 111.188 32.4096 114.697 32.6082Z" fill="#FFA79B"/>
</svg>
