<svg width="334" height="306" viewBox="0 0 334 306" fill="none" xmlns="http://www.w3.org/2000/svg">
<path d="M158.72 66.0215L200.337 61.3833L250.468 80.8258C250.468 80.8258 251.993 213.747 248.943 212.984C245.83 212.222 133.495 205.995 133.495 203.644C133.495 201.293 126.125 140.678 126.125 140.678L158.72 66.0215Z" fill="#FECA55"/>
<path d="M121.36 80.8259C104.65 111.896 100.012 121.236 100.012 121.236L48.419 75.4252C48.2919 68.2454 47.1482 60.875 44.4161 54.2671C40.9851 46.0708 35.6479 44.9906 29.9296 38.5733C26.6256 34.8246 22.6863 39.9076 25.9902 43.6564L29.3577 47.7227C29.4212 49.7559 30.5649 55.0931 30.8191 57.1263C25.2913 51.8527 17.9209 44.1646 10.8047 40.8607C8.83504 39.9712 6.99244 40.6701 5.9123 42.0044C4.26033 42.195 2.92604 43.5928 2.54482 45.1812C0.956377 46.3884 0.0668425 48.8664 1.46467 50.9632C0.384531 52.1069 -0.187285 53.7588 0.575167 55.5379C0.638704 55.6649 0.70225 55.7285 0.70225 55.8555C0.257486 56.3003 0.829325 57.8888 0.384562 58.6512C-1.5851 62.1458 4.13327 76.1241 14.744 83.1132C17.8574 90.3565 24.3382 95.0583 24.8465 95.1854C36.0927 110.307 75.0413 164.187 94.039 181.851C115.578 201.929 133.305 176.768 147.665 130.957C162.024 85.0829 164.756 69.5797 164.756 69.5797L201.672 61.8281C154.845 59.0324 138.134 49.6924 121.36 80.8259Z" fill="#FFA79B"/>
<path d="M201.865 61.7646L200.975 61.9552L175.942 67.2288L164.95 69.5162C164.95 69.5162 162.218 85.0829 147.858 130.894C146.905 133.88 145.952 136.803 144.999 139.598C132.482 128.924 119.584 118.694 106.559 108.592C109.863 102.302 114.628 93.2792 121.426 80.6988C134.325 56.7451 147.159 56.8086 173.908 59.2866C181.597 59.9855 190.365 60.9386 200.658 61.5739C201.039 61.701 201.42 61.7011 201.865 61.7646Z" fill="#FECA55"/>
<path d="M146.713 86.6078C145.569 99.1882 144.426 111.769 143.218 124.349C143.155 124.857 143.981 124.857 143.981 124.349C145.124 111.769 146.268 99.1882 147.475 86.6078C147.475 86.0995 146.713 86.0995 146.713 86.6078Z" fill="white"/>
<path d="M102.743 127.717C102.235 126.192 101.726 124.603 101.218 123.078C101.091 122.634 100.329 122.824 100.456 123.269C100.964 124.794 101.472 126.382 101.981 127.907C102.108 128.415 102.87 128.225 102.743 127.717Z" fill="#952C28"/>
<path d="M21.8612 58.8418C17.4771 54.2035 13.0295 49.5018 8.64541 44.8635C8.32772 44.4823 7.75586 45.0541 8.07355 45.4354C12.4576 50.0736 16.9053 54.7754 21.2894 59.4136C21.6706 59.7313 22.1789 59.1595 21.8612 58.8418Z" fill="#952C28"/>
<path d="M16.8386 63.8611C12.8357 59.2864 8.76934 54.6482 4.76647 50.0735C4.44878 49.6922 3.87696 50.2641 4.19465 50.6453C8.19752 55.22 12.2639 59.8583 16.2668 64.433C16.5845 64.7507 17.1563 64.1788 16.8386 63.8611Z" fill="#952C28"/>
<path d="M12.7758 68.8808C9.53537 65.2591 6.35848 61.6375 3.11806 58.0159C2.80037 57.6346 2.22852 58.2065 2.54621 58.5877C5.78663 62.2094 8.96352 65.831 12.2039 69.4526C12.5852 69.8339 13.157 69.262 12.7758 68.8808Z" fill="#952C28"/>
<path d="M33.1723 74.3449C31.2661 70.0878 30.8849 65.4496 31.965 60.8749C32.0921 60.3666 31.3297 60.176 31.2026 60.6843C30.0589 65.4496 30.5037 70.2784 32.4734 74.7261C32.664 75.2344 33.3629 74.7896 33.1723 74.3449Z" fill="#952C28"/>
<path d="M171.873 182.359C158.213 181.914 144.489 181.406 130.828 180.389C132.226 192.398 133.433 202.691 133.433 203.644C133.433 205.995 245.768 212.222 248.881 212.984C249.834 213.238 250.342 201.102 250.597 184.138C224.355 183.757 198.114 183.248 171.873 182.359Z" fill="#B47F5A"/>
<path d="M225.434 187.124C272.197 178.102 332.113 160.121 333.829 204.661C335.544 249.137 277.471 251.424 212.726 251.297C148.045 251.107 144.614 251.107 133.495 263.878C123.138 275.823 113.608 285.735 101.281 274.615L139.34 214.827C139.404 214.89 201.988 191.699 225.434 187.124Z" fill="#B47F5A"/>
<path d="M264.831 184.138C269.47 185.599 274.108 185.853 278.937 185.218C286.434 184.265 292.915 180.961 297.363 175.814C285.354 175.751 271.503 177.911 257.461 180.643C259.558 182.359 262.798 183.502 264.831 184.138Z" fill="black"/>
<path d="M150.78 210.696C143.854 213.174 139.407 214.826 139.407 214.826L101.348 274.615C113.737 285.734 123.205 275.759 133.561 263.877C139.153 257.46 142.774 254.283 153.004 252.695C150.272 239.034 149.954 224.738 150.78 210.696Z" fill="black"/>
<path d="M218.572 235.476C218.572 235.476 208.342 228.868 194.809 220.481C192.966 235.921 191.124 251.361 188.328 266.61C203.895 271.566 207.135 275.505 211.964 284.464C219.525 298.569 226.705 310.514 242.272 302.763L218.572 235.476Z" fill="#FFA79B"/>
<path d="M198.115 222.515C179.054 210.633 151.479 193.923 137.373 187.696C91.6898 167.555 34.7601 135.595 21.5442 178.356C8.32841 221.117 67.4184 237.446 133.879 252.949C162.217 259.557 179.118 263.56 189.792 267.055C193.35 252.377 197.035 237.637 198.115 222.515Z" fill="#B47F5A"/>
<path d="M218.573 235.476C218.573 235.476 213.363 232.109 205.484 227.153C206.31 231.855 207.708 236.493 208.153 241.322C208.534 246.087 207.391 250.471 205.548 254.855C203.197 260.383 200.211 265.466 199.258 270.867C205.993 274.298 208.598 278.11 212.029 284.464C219.59 298.569 226.77 310.514 242.336 302.763L218.573 235.476Z" fill="black"/>
<path d="M193.73 219.338C173.081 208.981 151.478 200.594 129.24 194.24C128.731 194.113 128.541 194.876 129.049 195.003C151.224 201.356 172.763 209.743 193.349 220.037C193.794 220.227 194.175 219.592 193.73 219.338Z" fill="white"/>
<path d="M270.614 194.05C245.263 193.605 219.975 195.575 195.004 199.895C187.825 201.166 180.708 202.564 173.656 204.216C173.147 204.343 173.402 205.105 173.846 204.978C198.562 199.26 223.85 195.892 249.202 195.003C256.318 194.749 263.498 194.685 270.614 194.812C271.122 194.876 271.122 194.05 270.614 194.05Z" fill="white"/>
<path d="M102.934 181.977C93.0858 178.927 83.1739 175.878 73.3256 172.891C72.8173 172.764 72.6267 173.463 73.135 173.654C82.9833 176.704 92.8951 179.753 102.743 182.74C103.188 182.867 103.379 182.168 102.934 181.977Z" fill="white"/>
<path d="M200.277 61.3833C228.678 64.1154 264.767 59.8584 269.088 85.8453C273.345 111.896 276.458 123.904 278.428 142.584C280.398 161.264 287.387 183.757 264.068 186.108C240.75 188.459 187.124 192.716 187.124 192.716L176.641 164.314C176.641 164.314 220.164 148.748 234.142 144.491L231.41 88.5139L200.277 61.3833Z" fill="#FFA79B"/>
<path d="M277.349 133.816C262.735 134.134 248.121 134.769 233.762 137.184L231.411 88.5774L212.222 71.8035L200.976 61.9552L200.659 61.701L200.277 61.3833C206.631 62.0187 213.366 62.2728 220.038 62.5905C243.229 63.7342 265.721 65.6403 269.025 85.9088C272.647 107.575 275.442 119.584 277.349 133.816Z" fill="#FECA55"/>
<path d="M232.997 97.1552C232.997 96.6469 232.234 96.6469 232.234 97.1552C232.298 109.227 232.361 121.236 232.425 133.308C232.425 133.816 233.187 133.816 233.187 133.308C233.124 121.236 233.06 109.164 232.997 97.1552Z" fill="white"/>
<path d="M241.892 144.491C240.05 144.491 238.271 144.427 236.428 144.427C235.92 144.427 235.92 145.19 236.428 145.19C238.271 145.19 240.05 145.253 241.892 145.253C242.401 145.253 242.401 144.491 241.892 144.491Z" fill="#952C28"/>
<path d="M197.357 67.8635C202.821 66.5292 208.158 65.0043 213.559 63.4794L201.741 35.5864L181.027 44.7994C181.409 45.1171 184.713 58.6506 187.318 69.7061C190.685 69.0708 194.053 68.626 197.357 67.8635Z" fill="#FFA79B"/>
<path d="M195.445 40.3525C195.382 39.5265 195.318 38.7005 195.128 37.8745L181.086 44.8637C181.34 45.0543 182.865 51.0268 184.581 58.2066C189.918 53.1871 194.111 47.0875 195.445 40.3525Z" fill="black"/>
<path d="M217.681 21.7994C217.554 14.6197 206.816 7.24933 198.302 6.23273C194.617 5.78796 193.727 2.8017 191.948 5.27966C187.564 11.5064 173.268 30.377 173.903 37.7474C174.856 48.4852 187.818 50.8997 196.269 46.8968C204.783 42.8939 217.871 31.9655 217.681 21.7994Z" fill="#FFA79B"/>
<path d="M218.13 23.3875C219.274 21.5449 218.702 19.2575 217.177 17.9868C217.114 17.9233 217.114 17.9232 217.05 17.8597C217.559 14.3016 214.953 11.4424 211.777 11.1247C211.395 10.2352 210.696 9.53629 209.743 9.09153C209.616 8.7103 209.489 8.39261 209.235 8.13846C208.663 7.56662 207.964 7.31248 207.202 7.31248C206.694 5.72404 205.804 4.3262 204.279 3.56374C203.326 3.05544 202.246 3.18252 201.42 3.62729C199.577 1.72116 197.29 0.132728 195.003 0.00565314C194.05 -0.0578845 192.143 0.386871 191.317 2.73776C190.364 2.67423 189.475 3.18252 189.03 4.19912C188.395 5.72402 189.157 7.31248 190.364 8.26554C191.063 8.83738 192.08 9.21859 193.033 9.15505C195.956 12.3955 203.898 17.9868 205.804 17.9233C204.343 21.2908 202.691 29.0423 206.694 29.7413C207.456 33.1087 203.707 38.6365 205.55 40.9874C209.616 37.6835 213.429 33.6806 215.652 29.36C215.716 29.36 215.843 29.36 215.97 29.36C218.829 28.7247 219.719 25.4207 218.13 23.3875Z" fill="#952C28"/>
<path d="M214.446 38.001C215.399 34.1888 211.65 29.2964 206.25 29.8047C203.772 33.2992 201.23 36.7303 198.625 40.0978C199.896 42.258 203.772 44.8631 207.203 44.609C211.078 44.2277 213.429 42.0674 214.446 38.001Z" fill="#FFA79B"/>
<path d="M208.597 35.4593C207.073 35.6499 205.548 35.777 204.023 35.9676C203.515 36.0312 203.642 36.7301 204.15 36.7301C204.277 36.7301 204.34 36.7301 204.468 36.7301C204.531 36.7301 204.531 36.7301 204.595 36.7301C205.992 36.603 207.327 36.4124 208.725 36.2853C209.233 36.1582 209.106 35.3958 208.597 35.4593Z" fill="#952C28"/>
<path d="M196.207 22.3076C195.762 22.8159 195.254 23.3877 194.809 23.896C194.301 24.4679 193.538 23.5783 194.047 23.07C194.491 22.5617 195 21.9899 195.444 21.4816C195.889 20.9098 196.652 21.7357 196.207 22.3076Z" fill="black"/>
<path d="M189.031 16.3984C188.586 16.9067 188.078 17.4785 187.633 17.9868C187.125 18.5587 186.362 17.6692 186.871 17.1609C187.316 16.6526 187.824 16.0807 188.269 15.5724C188.713 15.0006 189.476 15.8266 189.031 16.3984Z" fill="black"/>
<path d="M184.644 21.9899C185.089 22.1805 184.834 22.8794 184.39 22.6888C183.373 22.3076 182.865 23.5148 183.119 24.3408C183.373 25.1668 184.072 25.7386 184.707 26.3104C185.089 26.6281 184.644 27.2635 184.263 26.9458C183.246 26.0563 182.039 24.9126 182.356 23.3877C182.484 22.3076 183.627 21.6087 184.644 21.9899Z" fill="#952C28"/>
<path d="M197.668 18.2408C198.24 18.8761 198.748 19.4479 199.32 20.0833C200.019 20.8458 198.812 21.7988 198.113 21.0364C197.541 20.401 197.033 19.8292 196.461 19.1938C195.825 18.4314 197.033 17.4783 197.668 18.2408Z" fill="#952C28"/>
<path d="M190.556 11.9505C190.937 12.2682 191.318 12.5859 191.763 12.9036C192.525 13.539 191.636 14.7462 190.874 14.1743C190.492 13.8566 190.111 13.539 189.666 13.2213C188.904 12.5859 189.793 11.3151 190.556 11.9505Z" fill="#952C28"/>
<path d="M180.005 34.062C180.641 34.7609 181.721 34.9515 182.547 34.5703C182.992 34.3797 183.309 35.0786 182.864 35.2692C181.657 35.7775 180.323 35.5234 179.37 34.5703C179.052 34.1891 179.624 33.7443 180.005 34.062Z" fill="#952C28"/>
<path d="M220.099 62.59C218.193 66.2116 215.461 69.325 212.22 71.8029C208.662 74.535 204.405 76.4412 199.64 77.2036C190.491 78.665 180.197 74.7892 175.877 67.2282C174.606 64.9409 173.844 62.3358 173.844 59.4131C181.532 60.112 190.3 61.065 200.593 61.7004L200.212 61.3827C206.629 61.9546 213.364 62.2087 220.099 62.59Z" fill="#FFA79B"/>
</svg>
