<svg width="280" height="218" viewBox="0 0 280 218" fill="none" xmlns="http://www.w3.org/2000/svg">
<g clip-path="url(#clip0)">
<path d="M171.407 150.381C169.512 150.381 167.957 148.822 167.957 146.921C167.957 145.02 169.512 143.461 171.407 143.461C173.374 143.461 174.662 144.728 174.856 146.872C174.929 147.725 174.638 148.554 174.03 149.187C173.374 149.967 172.403 150.381 171.407 150.381ZM171.407 144.168C169.876 144.168 168.637 145.41 168.637 146.946C168.637 148.481 169.876 149.724 171.407 149.724C172.208 149.724 173.01 149.382 173.544 148.798C174.006 148.286 174.249 147.652 174.176 146.994C174.03 145.167 173.034 144.168 171.407 144.168Z" fill="#E6DFD1"/>
<path d="M156.474 45.975C153.413 45.975 150.911 43.4651 150.911 40.3947C150.911 37.3244 153.413 34.8145 156.474 34.8145C159.705 34.8145 161.722 36.837 162.037 40.3704C162.159 41.735 161.697 43.0508 160.726 44.123C159.657 45.2927 158.053 45.975 156.474 45.975ZM156.474 35.4968C153.778 35.4968 151.591 37.6899 151.591 40.3947C151.591 43.0996 153.778 45.2927 156.474 45.2927C157.883 45.2927 159.292 44.6835 160.24 43.6357C161.066 42.7341 161.479 41.5888 161.382 40.4191C161.09 37.2513 159.341 35.4968 156.474 35.4968Z" fill="#E6DFD1"/>
<path d="M159.939 180.158C158.919 181.937 157 181.596 155.809 180.256C155.105 179.452 154.546 178.648 153.574 178.136C151.947 177.259 150.1 177.283 148.448 178.038C148.06 178.209 148.4 178.794 148.789 178.623C150.538 177.843 152.676 178.038 154.157 179.33C155.032 180.085 155.518 181.279 156.587 181.815C158.044 182.546 159.745 181.889 160.547 180.524C160.717 180.11 160.134 179.769 159.939 180.158Z" fill="#E6DFD1"/>
<path d="M159.088 183.766C158.067 185.545 156.148 185.204 154.958 183.863C154.253 183.059 153.695 182.255 152.723 181.743C151.095 180.866 149.249 180.89 147.597 181.646C147.208 181.816 147.548 182.401 147.937 182.231C149.686 181.451 151.824 181.646 153.306 182.937C154.181 183.693 154.666 184.887 155.735 185.423C157.193 186.154 158.893 185.496 159.695 184.131C159.889 183.741 159.306 183.4 159.088 183.766Z" fill="#E6DFD1"/>
<path d="M177.772 154.183C175.61 156.571 173.448 158.983 171.261 161.371C170.97 161.688 171.455 162.176 171.747 161.859C173.909 159.471 176.071 157.058 178.258 154.67C178.549 154.353 178.063 153.866 177.772 154.183Z" fill="#E6DFD1"/>
<path d="M234.144 147.176C231.69 154.072 221.317 151.952 218.378 158.58C218.208 158.97 218.791 159.311 218.961 158.921C221.9 152.293 232.273 154.462 234.8 147.346C234.946 146.932 234.29 146.761 234.144 147.176Z" fill="#E6DFD1"/>
<path d="M236.501 152.244C234.047 159.14 223.674 157.02 220.734 163.648C220.564 164.038 221.147 164.379 221.318 163.989C224.257 157.361 234.63 159.53 237.157 152.415C237.302 152 236.646 151.83 236.501 152.244Z" fill="#E6DFD1"/>
<path d="M202.902 190.172C199.769 186.785 196.659 183.398 193.525 180.011C193.234 179.694 192.748 180.182 193.039 180.498C196.173 183.886 199.283 187.273 202.416 190.66C202.732 190.952 203.194 190.489 202.902 190.172Z" fill="#E6DFD1"/>
<path d="M140.903 123.296C140.125 124.343 139.323 125.391 138.546 126.439C138.279 126.78 138.862 127.121 139.129 126.78C139.906 125.732 140.708 124.685 141.486 123.637C141.728 123.296 141.145 122.954 140.903 123.296Z" fill="#E6DFD1"/>
<path d="M167.163 93.8355C165.924 94.3716 164.685 94.8833 163.47 95.4194C163.082 95.59 163.422 96.1749 163.811 96.0043C165.05 95.4682 166.288 94.9565 167.503 94.4204C167.892 94.2498 167.552 93.665 167.163 93.8355Z" fill="#E6DFD1"/>
<path d="M169.108 95.9312C167.383 96.711 165.658 97.4664 163.934 98.2462C163.545 98.4168 163.885 99.0016 164.274 98.831C165.999 98.0513 167.723 97.2958 169.448 96.5161C169.837 96.3455 169.497 95.7607 169.108 95.9312Z" fill="#E6DFD1"/>
<path d="M146.004 41.9792C145.276 42.8808 144.547 43.7824 143.818 44.6841C143.551 45.0252 144.012 45.4882 144.304 45.1714C145.033 44.2698 145.761 43.3682 146.49 42.4666C146.757 42.1254 146.296 41.6381 146.004 41.9792Z" fill="#E6DFD1"/>
<path d="M103.736 11.3489C100.99 11.0078 98.3424 12.0069 96.4961 14.0538C96.2046 14.3706 96.6905 14.8579 96.982 14.5412C98.7311 12.6161 101.16 11.7145 103.736 12.0313C104.148 12.08 104.148 11.3977 103.736 11.3489Z" fill="#E6DFD1"/>
<path d="M104.899 13.5423C102.154 13.2012 99.5064 14.2002 97.6601 16.2472C97.3686 16.5639 97.8544 17.0513 98.1459 16.7345C99.8951 14.8094 102.324 13.9078 104.899 14.2246C105.337 14.2733 105.337 13.591 104.899 13.5423Z" fill="#E6DFD1"/>
<path d="M44.7659 187.15C40.3931 187.15 36.8463 183.592 36.8463 179.206C36.8463 174.819 40.3931 171.262 44.7659 171.262C49.3573 171.262 52.2482 174.137 52.6855 179.181C52.8555 181.106 52.1996 182.983 50.8149 184.494C49.3087 186.151 47.0252 187.15 44.7659 187.15ZM44.7659 171.944C40.7818 171.944 37.5265 175.209 37.5265 179.206C37.5265 183.202 40.7818 186.467 44.7659 186.467C46.8551 186.467 48.92 185.566 50.329 184.031C51.568 182.666 52.1753 180.96 52.0296 179.23C51.6166 174.6 48.9686 171.944 44.7659 171.944Z" fill="#E6DFD1"/>
<path d="M41.8734 42.1361C40.9017 43.4032 39.93 44.6947 38.9582 45.9619C38.691 46.303 39.274 46.6442 39.5413 46.303C40.513 45.0359 41.4847 43.7444 42.4565 42.4772C42.7237 42.1117 42.1406 41.7949 41.8734 42.1361Z" fill="#E6DFD1"/>
<path d="M43.2342 44.8171L40.7563 48.4236C40.5133 48.7891 41.0964 49.1302 41.3393 48.7647C42.1653 47.5707 42.9913 46.3766 43.8172 45.1582C44.0602 44.8171 43.4771 44.4759 43.2342 44.8171Z" fill="#E6DFD1"/>
<path d="M51.3703 17.1097C49.4268 14.7947 47.459 12.4797 45.5156 10.1648C45.2241 9.82361 44.7625 10.311 45.0297 10.6521L50.8844 17.597C51.1759 17.9138 51.6375 17.4264 51.3703 17.1097Z" fill="#E6DFD1"/>
<path d="M29.3137 207.253C26.5199 205.84 23.7019 204.451 20.9082 203.037C20.5195 202.842 20.1794 203.427 20.5681 203.622C23.3618 205.035 26.1798 206.424 28.9735 207.838C29.3622 208.033 29.7023 207.448 29.3137 207.253Z" fill="#E6DFD1"/>
<path d="M69.4704 190.732C68.7416 191.585 68.0128 192.413 67.284 193.266C66.9925 193.583 67.4784 194.07 67.7699 193.753C68.4987 192.9 69.2275 192.072 69.9563 191.219C70.2235 190.902 69.7377 190.415 69.4704 190.732Z" fill="#E6DFD1"/>
<path d="M18.5891 86.8378C17.6173 92.1257 10.8638 91.1266 6.97692 91.5652C4.2075 91.882 1.3409 93.2223 0.514931 96.0977C0.393465 96.512 1.04938 96.6825 1.17085 96.2683C2.62844 91.1997 9.18761 92.4181 13.0988 91.882C15.8439 91.4921 18.6863 89.9569 19.2207 87.0084C19.3179 86.5942 18.6863 86.4236 18.5891 86.8378Z" fill="#E6DFD1"/>
<path d="M20.2902 90.2253C19.3185 95.5132 12.565 94.5141 8.67809 94.9527C5.90867 95.2695 3.04207 96.6098 2.2161 99.4852C2.09464 99.8994 2.75055 100.07 2.87202 99.6558C4.32961 94.5872 10.8888 95.8056 14.8 95.2695C17.5451 94.8796 20.3874 93.3444 20.9219 90.3959C20.9948 89.9816 20.3631 89.7867 20.2902 90.2253Z" fill="#E6DFD1"/>
<path d="M194.99 10.4844H49.6982V161.577H194.99V10.4844Z" fill="#FA7355"/>
<path d="M194.989 19.6523H49.6979V20.8973H194.989V19.6523Z" fill="white"/>
<path d="M190.303 16.1987C189.004 14.8972 187.706 13.5956 186.463 12.3507C185.899 11.7848 185.052 12.6336 185.616 13.1995C186.915 14.5011 188.214 15.8026 189.456 17.0476C189.964 17.6135 190.868 16.708 190.303 16.1987Z" fill="white"/>
<path d="M186.406 17.0476C187.705 15.746 189.003 14.4445 190.246 13.1995C190.81 12.6336 189.963 11.7848 189.399 12.3507C188.1 13.6522 186.801 14.9538 185.559 16.1987C184.994 16.708 185.841 17.6135 186.406 17.0476Z" fill="white"/>
<path d="M173.983 29.4414H106.843V34.308H173.983V29.4414Z" fill="white"/>
<path d="M99.954 71.8826H59.8619V28.875H99.954V71.8826ZM61.1042 70.6377H98.7118V30.0634H61.1042V70.6377Z" fill="#FECA55"/>
<path d="M99.3327 34.082V71.261H60.4829V50.0401C61.2735 49.7572 62.064 49.5874 62.911 49.4176C67.1461 48.682 71.6071 49.4176 75.2775 51.6812C76.6892 52.5866 78.1573 54.3975 79.7949 54.7936C81.376 55.1897 82.9006 54.0014 83.917 52.9262C86.6275 49.9835 87.7568 45.7959 90.0155 42.5138C92.2178 39.2882 95.0976 36.5719 98.4292 34.5913C98.7116 34.4216 99.0504 34.2518 99.3327 34.082Z" fill="#FECA55"/>
<path d="M165.344 38.9492H148.573C147.783 38.9492 147.783 40.1942 148.573 40.1942H165.344C166.135 40.1376 166.135 38.9492 165.344 38.9492Z" fill="white"/>
<path d="M165.344 43.8145H156.422C155.688 43.8145 155.688 45.0594 156.422 45.0594H165.344C166.078 45.0594 166.078 43.8145 165.344 43.8145Z" fill="white"/>
<path d="M165.344 49.6426H158.963C158.342 49.6426 158.342 50.8875 158.963 50.8875H165.344C165.965 50.8875 165.965 49.6426 165.344 49.6426Z" fill="white"/>
<path d="M103.624 151.787H60.5961C59.8055 151.787 59.8055 153.032 60.5961 153.032H103.624C104.415 153.032 104.415 151.787 103.624 151.787Z" fill="white"/>
<path d="M127.906 49.6426H107.86C107.239 49.6426 107.239 50.8875 107.86 50.8875H127.906C128.527 50.8875 128.527 49.6426 127.906 49.6426Z" fill="white"/>
<path d="M132.988 38.9492H107.973C107.182 38.9492 107.182 40.1942 107.973 40.1942H132.988C133.779 40.1376 133.779 38.9492 132.988 38.9492Z" fill="white"/>
<path d="M111.643 320.309C116.217 305.936 120.961 282.791 119.888 274.755L168.732 163.445L153.486 137.131L119.323 154.843C119.323 154.843 101.592 222.354 94.929 257.609C90.6375 280.244 87.3059 305.257 84.3696 316.744C91.6539 317.706 104.246 319.517 111.643 320.309Z" fill="#B47F5A"/>
<path d="M175.395 150.542C179.065 170.744 181.493 248.384 180.251 269.209C180.251 269.209 190.02 296.145 182.058 341.982H150.944C150.944 341.982 149.137 332.815 161.334 331.57C169.861 330.721 158.906 302.822 153.994 269.152C150.38 244.14 138.126 146.807 138.126 146.807L175.395 150.542Z" fill="#FFA79B"/>
<path d="M187.028 317.877C188.553 288.508 180.308 269.267 180.308 269.267C181.551 248.443 179.066 170.802 175.452 150.6L138.24 146.922C138.24 146.922 150.493 244.255 154.107 269.267C157.1 290.035 159.811 309.559 161.448 320.933C162.747 320.82 181.212 319.688 187.028 317.877Z" fill="#B47F5A"/>
<path d="M156.027 184.666L155.801 185.402C153.429 193.833 151.057 202.209 148.686 210.64C148.573 211.037 148.008 210.867 148.121 210.471C150.493 202.209 152.808 193.947 155.123 185.628C155.18 185.402 155.236 185.175 155.349 184.892C155.575 184.836 155.801 184.723 156.027 184.666Z" fill="black"/>
<path d="M166.813 181.61C163.142 182.855 159.472 184.156 155.802 185.401C155.576 185.458 155.35 185.571 155.124 185.628C155.18 185.401 155.237 185.175 155.35 184.892C155.576 184.779 155.802 184.722 156.028 184.666C159.585 183.421 163.086 182.232 166.643 180.987C166.982 180.874 167.152 181.44 166.813 181.61Z" fill="black"/>
<path d="M203.008 65.5452C202.952 63.3948 202.67 61.1313 201.145 59.5468C201.032 57.6227 200.411 55.7553 199.338 54.1142C198.886 52.36 198.039 50.8321 196.741 49.3608C196.571 49.1344 196.345 49.0212 196.119 48.9646C196.119 48.9646 196.119 48.9646 196.119 48.908C195.724 48.0026 194.425 47.7197 194.256 48.7383C193.917 50.8887 194.143 53.2654 193.804 55.4158C193.353 55.3026 192.336 54.5669 191.602 56.1514C189.343 61.1313 188.045 66.2809 189.795 71.487L182.172 86.2568C182.003 85.9738 167.208 110.42 166.022 117.72C165.345 122.134 164.949 126.831 165.175 131.302C165.288 134.414 165.683 137.47 165.796 140.582C172.177 143.978 180.196 144.826 187.649 135.829C196.063 125.699 202.387 80.0886 203.008 74.3731C203.517 70.9212 203.008 65.5452 203.008 65.5452Z" fill="#FFA79B"/>
<path d="M188.609 100.801C187.028 102.952 184.882 105.498 182.567 107.931C179.348 111.383 175.847 114.609 173.363 116.307C172.403 116.759 171.556 117.155 170.765 117.495C167.716 118.966 165.514 120.041 161.787 121.683C159.02 122.927 156.197 124.059 153.373 125.191V78.9579C170.539 79.4672 174.831 76.4679 179.518 82.3532C181.268 84.447 187.423 96.7268 188.609 100.801Z" fill="white"/>
<path d="M182.623 107.93C180.082 110.647 177.372 113.25 175.113 115.061L174.944 93.7266C177.485 98.4234 180.026 103.177 182.623 107.93Z" fill="black"/>
<path d="M193.24 56.5471C193.127 59.2634 193.014 61.9796 192.844 64.6959C192.844 65.092 193.409 65.092 193.466 64.6959C193.579 61.9796 193.692 59.2634 193.861 56.5471C193.861 56.151 193.296 56.151 193.24 56.5471Z" fill="#D24A43"/>
<path d="M196.402 49.4736C196.232 49.134 195.668 49.417 195.894 49.7565C197.418 52.6426 197.7 55.8115 196.741 58.9239C196.628 59.3201 197.192 59.4333 197.305 59.0937C198.322 55.8681 198.039 52.4728 196.402 49.4736Z" fill="#D24A43"/>
<path d="M199.79 55.1317C199.677 54.7356 199.112 54.9053 199.225 55.3015C199.677 56.886 199.677 58.4704 199.282 60.0549C199.169 60.4511 199.79 60.6208 199.846 60.2247C200.298 58.527 200.298 56.8294 199.79 55.1317Z" fill="#D24A43"/>
<path d="M200.919 60.508C200.919 61.0173 200.919 61.47 200.919 61.9793C200.919 62.3755 201.54 62.3755 201.54 61.9793C201.54 61.47 201.54 61.0173 201.54 60.508C201.54 60.1119 200.919 60.1119 200.919 60.508Z" fill="#D24A43"/>
<path d="M190.755 102.499C190.303 102.102 189.852 101.706 189.4 101.254C189.117 100.971 188.666 101.423 188.948 101.706C189.4 102.103 189.852 102.499 190.303 102.951C190.586 103.178 191.037 102.725 190.755 102.499Z" fill="#D24A43"/>
<path d="M119.266 154.843L119.774 124.285C112.716 116.928 122.711 92.4818 122.711 92.4818L153.147 79.0137L163.989 82.9749L170.313 85.2951L174.774 86.9361L174.83 93.6702L175 115.004L175.339 150.542L119.266 154.843Z" fill="white"/>
<path d="M136.658 66.3935C136.94 66.8463 135.246 85.1245 135.246 85.1245L151.453 82.4648L147.274 65.3184L136.658 66.3935Z" fill="#FFA79B"/>
<path d="M136.432 71.0345C137.674 69.5066 138.803 67.8655 139.65 66.0547L136.658 66.3376C136.714 66.5074 136.601 68.488 136.432 71.0345Z" fill="black"/>
<path d="M89.3385 107.138C89.3385 107.138 74.9957 93.8959 64.7186 85.2378C64.3798 83.5401 63.8716 81.899 63.081 80.258C62.1776 78.4471 55.4014 72.3355 53.6509 71.2037C52.7474 70.6378 51.5616 71.5998 51.844 72.5619C51.9005 72.7882 53.0298 76.0138 55.0626 77.6549C55.4579 79.0696 55.6838 80.4277 55.6838 80.4277C53.0298 78.051 50.9405 75.2215 49.4723 71.9394C49.0206 70.9208 47.5524 71.3169 47.2136 72.2223C46.7619 73.5239 46.5925 74.6557 46.7619 75.844C46.4796 76.4665 46.3101 77.1456 46.1972 77.8246C45.2373 79.6355 44.842 81.5029 44.9549 83.3138C43.3738 87.6145 46.4795 91.8587 49.6982 94.9145C52.4086 98.2533 64.8315 113.815 72.9629 123.605C82.1106 134.64 90.6373 149.297 112.66 124.85C134.626 100.404 153.542 78.9564 153.542 78.9564C113.789 79.6355 114.975 72.2789 89.3385 107.138Z" fill="#FFA79B"/>
<path d="M106.504 113.079C109.102 116.248 112.151 119.191 114.805 122.416C135.811 98.9885 153.486 79.0125 153.486 79.0125C117.177 79.5784 115.144 73.4668 95.3803 99.1582C99.0507 103.799 102.721 108.495 106.504 113.079Z" fill="white"/>
<path d="M122.994 112.4C121.356 113.928 119.719 115.456 118.137 116.984C117.855 117.267 118.307 117.663 118.589 117.437C120.227 115.909 121.864 114.381 123.445 112.853C123.728 112.57 123.276 112.117 122.994 112.4Z" fill="black"/>
<path d="M92.1049 110.192C91.5402 109.344 90.9756 108.438 90.4109 107.589C90.185 107.25 89.6768 107.589 89.9027 107.872C90.4673 108.721 91.032 109.627 91.5967 110.475C91.7661 110.815 92.3308 110.475 92.1049 110.192Z" fill="#D24A43"/>
<path d="M52.9168 84.0488C50.5451 82.0682 48.9076 79.5782 48.0605 76.6356C47.9476 76.2395 47.3829 76.4093 47.4959 76.8054C48.3994 79.8612 50.0934 82.4643 52.5215 84.5015C52.8038 84.7278 53.1991 84.2751 52.9168 84.0488Z" fill="#D24A43"/>
<path d="M50.8279 87.3325C48.908 85.4085 47.5527 83.0883 46.8187 80.4852C46.7057 80.0891 46.1411 80.2589 46.254 80.655C46.9881 83.3713 48.3998 85.8046 50.3761 87.7852C50.6585 88.0681 51.1102 87.6154 50.8279 87.3325Z" fill="#D24A43"/>
<path d="M48.9639 90.2748C47.4393 88.5772 46.4229 86.6531 45.8018 84.4462C45.6888 84.05 45.1241 84.2198 45.2371 84.6159C45.8582 86.8795 46.9876 88.9167 48.5122 90.7275C48.7945 90.9539 49.2463 90.5578 48.9639 90.2748Z" fill="#D24A43"/>
<path d="M156.083 50.8311C155.631 46.6435 148.912 42.7955 143.886 42.6257C141.684 42.5691 141.006 40.8148 140.103 42.3993C137.844 46.304 130.503 58.9233 131.124 62.4884C132.254 68.7698 139.99 69.5055 144.789 66.7326C149.589 63.9597 156.704 56.8295 156.083 50.8311Z" fill="#FFA79B"/>
<path d="M133.834 51.2279C134.399 50.3791 135.585 50.3225 136.319 50.945C136.545 51.1713 136.545 51.5675 136.319 51.7938L136.262 51.8504C136.319 51.907 136.375 51.9636 136.432 52.0768C136.883 52.6992 135.811 53.2651 135.415 52.6427C135.415 52.6427 135.359 52.6426 135.415 52.6992C135.811 53.0953 135.415 53.831 134.851 53.6612C133.834 53.3783 133.269 52.1334 133.834 51.2279Z" fill="#FFA79B"/>
<path d="M139.82 45.796C140.159 46.1921 140.554 46.6448 140.893 47.0409C141.401 47.6068 140.554 48.5123 139.99 47.8898C139.651 47.4937 139.256 47.041 138.917 46.6448C138.465 46.0789 139.312 45.2301 139.82 45.796Z" fill="#697CCC"/>
<path d="M138.013 49.1341C137.9 49.7 137.787 50.2659 137.674 50.7752C137.617 51.1713 136.996 51.0016 137.109 50.6054C137.222 50.0396 137.335 49.4737 137.448 48.9644C137.504 48.6248 138.069 48.7946 138.013 49.1341Z" fill="black"/>
<path d="M133.383 58.6986C134.117 58.8684 134.851 58.642 135.303 58.0195C135.528 57.68 136.037 58.0195 135.811 58.3591C135.19 59.2079 134.173 59.5475 133.213 59.3211C132.818 59.1513 132.987 58.5854 133.383 58.6986Z" fill="#D24A43"/>
<path d="M176.016 70.4685C175.226 68.9406 173.983 67.6956 172.289 66.8468C170.539 65.9413 168.449 65.715 166.473 66.1111C165.061 63.791 162.69 62.6026 160.262 62.4894C159.076 57.9057 156.309 53.322 156.083 50.8887C155.744 47.6631 151.735 44.6639 147.556 43.3623C146.596 41.6647 143.886 39.1182 141.571 39.1748C140.837 39.1748 139.199 39.7972 139.425 42.5701C139.707 44.4941 143.208 47.0406 144.789 46.8143C142.926 48.7949 141.345 51.8507 142.587 54.8499C142.926 55.9251 137.731 67.1863 141.345 72.1661C141.063 73.8638 141.176 75.5615 141.74 77.0894C140.95 79.2963 141.232 81.956 142.87 83.8235C144.62 85.8041 147.048 86.4831 149.363 86.2002C149.759 86.4831 150.21 86.7661 150.662 87.049C152.413 90.1614 155.631 92.3118 159.584 92.142C162.916 91.9723 165.795 90.1614 167.433 87.5583C169.748 87.332 172.007 86.2568 173.532 84.3328C174.379 83.3142 174.887 82.1258 175.169 80.9374C176.694 80.994 180.421 73.3545 176.016 70.4685Z" fill="#697CCC"/>
<path d="M148.065 59.3769C148.403 57.0001 145.919 54.2272 142.644 54.7931C141.345 57.0567 139.933 59.2637 138.522 61.4706C139.425 62.7156 141.91 64.1303 143.999 63.7908C146.371 63.3947 147.669 61.9234 148.065 59.3769Z" fill="#FFA79B"/>
<path d="M141.514 58.8119L143.717 57.8499C144.055 57.6801 144.394 58.246 143.999 58.3592C143.265 58.6987 142.531 58.9817 141.797 59.3212C141.458 59.491 141.176 58.9251 141.514 58.8119Z" fill="#D24A43"/>
<line x1="73.6538" y1="217.5" x2="207.248" y2="217.5" stroke="#897E76"/>
</g>
<defs>
<clipPath id="clip0">
<rect width="279" height="218" fill="white" transform="translate(0.5)"/>
</clipPath>
</defs>
</svg>
