<svg width="175" height="199" viewBox="0 0 175 199" fill="none" xmlns="http://www.w3.org/2000/svg">
<path d="M126.903 136.222C125.588 136.222 124.51 135.137 124.51 133.815C124.51 132.493 125.588 131.408 126.903 131.408C128.268 131.408 129.161 132.289 129.296 133.781C129.346 134.374 129.144 134.951 128.723 135.392C128.268 135.934 127.594 136.222 126.903 136.222ZM126.903 131.899C125.841 131.899 124.982 132.764 124.982 133.832C124.982 134.9 125.841 135.764 126.903 135.764C127.459 135.764 128.015 135.527 128.386 135.12C128.706 134.764 128.874 134.324 128.824 133.866C128.723 132.594 128.032 131.899 126.903 131.899Z" fill="#E6DFD1"/>
<path d="M116.545 63.5903C114.421 63.5903 112.686 61.8442 112.686 59.7082C112.686 57.5723 114.421 55.8262 116.545 55.8262C118.786 55.8262 120.185 57.2332 120.404 59.6913C120.488 60.6406 120.168 61.556 119.494 62.3019C118.752 63.1156 117.64 63.5903 116.545 63.5903ZM116.545 56.3008C114.674 56.3008 113.158 57.8265 113.158 59.7082C113.158 61.5899 114.674 63.1156 116.545 63.1156C117.522 63.1156 118.499 62.6918 119.157 61.9629C119.73 61.3356 120.016 60.5389 119.949 59.7252C119.746 57.5214 118.533 56.3008 116.545 56.3008Z" fill="#E6DFD1"/>
<path d="M132.329 166.065C131.622 167.303 130.29 167.066 129.465 166.133C128.976 165.574 128.589 165.014 127.914 164.658C126.785 164.048 125.505 164.065 124.359 164.59C124.089 164.709 124.325 165.116 124.595 164.997C125.808 164.455 127.291 164.59 128.319 165.489C128.926 166.014 129.263 166.845 130.004 167.218C131.015 167.727 132.195 167.269 132.751 166.32C132.869 166.031 132.464 165.794 132.329 166.065Z" fill="#E6DFD1"/>
<path d="M131.739 168.574C131.031 169.811 129.7 169.574 128.874 168.641C128.386 168.082 127.998 167.523 127.324 167.167C126.195 166.556 124.914 166.573 123.768 167.099C123.499 167.217 123.735 167.624 124.004 167.506C125.217 166.963 126.7 167.099 127.728 167.997C128.335 168.523 128.672 169.353 129.413 169.726C130.425 170.235 131.604 169.777 132.16 168.828C132.295 168.557 131.891 168.319 131.739 168.574Z" fill="#E6DFD1"/>
<path d="M131.318 138.867C129.818 140.529 128.318 142.207 126.802 143.868C126.6 144.089 126.937 144.428 127.139 144.207C128.639 142.546 130.138 140.868 131.655 139.206C131.857 138.986 131.52 138.647 131.318 138.867Z" fill="#E6DFD1"/>
<path d="M170.421 133.993C168.719 138.79 161.524 137.316 159.485 141.927C159.367 142.198 159.771 142.435 159.889 142.164C161.928 137.553 169.124 139.062 170.876 134.112C170.978 133.823 170.523 133.705 170.421 133.993Z" fill="#E6DFD1"/>
<path d="M172.056 137.519C170.354 142.316 163.159 140.841 161.12 145.452C161.002 145.724 161.406 145.961 161.524 145.69C163.563 141.079 170.759 142.587 172.511 137.637C172.613 137.349 172.158 137.231 172.056 137.519Z" fill="#E6DFD1"/>
<path d="M148.75 163.905C146.576 161.548 144.419 159.192 142.246 156.836C142.043 156.615 141.706 156.954 141.909 157.175C144.082 159.531 146.239 161.887 148.413 164.244C148.632 164.447 148.952 164.125 148.75 163.905Z" fill="#E6DFD1"/>
<path d="M105.743 117.38C105.204 118.108 104.648 118.837 104.109 119.566C103.923 119.804 104.328 120.041 104.513 119.804C105.052 119.075 105.608 118.346 106.148 117.617C106.316 117.38 105.912 117.142 105.743 117.38Z" fill="#E6DFD1"/>
<path d="M123.959 96.8842C123.1 97.2572 122.24 97.6132 121.398 97.9861C121.128 98.1048 121.364 98.5117 121.634 98.393C122.493 98.02 123.353 97.6641 124.195 97.2911C124.465 97.1724 124.229 96.7656 123.959 96.8842Z" fill="#E6DFD1"/>
<path d="M125.308 98.3418C124.112 98.8842 122.915 99.4098 121.719 99.9522C121.449 100.071 121.685 100.478 121.955 100.359C123.151 99.8166 124.347 99.2911 125.544 98.7486C125.814 98.63 125.578 98.2231 125.308 98.3418Z" fill="#E6DFD1"/>
<path d="M109.282 60.8101C108.776 61.4374 108.271 62.0646 107.765 62.6918C107.58 62.9292 107.9 63.2513 108.102 63.0309C108.608 62.4037 109.113 61.7764 109.619 61.1492C109.804 60.9119 109.484 60.5728 109.282 60.8101Z" fill="#E6DFD1"/>
<path d="M79.9615 39.5013C78.0573 39.264 76.2205 39.959 74.9398 41.383C74.7376 41.6034 75.0746 41.9424 75.2768 41.722C76.4901 40.3828 78.1752 39.7556 79.9615 39.976C80.248 40.0099 80.248 39.5352 79.9615 39.5013Z" fill="#E6DFD1"/>
<path d="M80.7689 41.0277C78.8647 40.7903 77.0279 41.4854 75.7472 42.9094C75.545 43.1297 75.882 43.4688 76.0842 43.2484C77.2975 41.9092 78.9826 41.282 80.7689 41.5023C81.0722 41.5362 81.0722 41.0616 80.7689 41.0277Z" fill="#E6DFD1"/>
<path d="M39.0563 161.8C36.023 161.8 33.5627 159.325 33.5627 156.274C33.5627 153.223 36.023 150.748 39.0563 150.748C42.2412 150.748 44.2465 152.748 44.5498 156.257C44.6678 157.596 44.2128 158.902 43.2523 159.953C42.2075 161.105 40.6235 161.8 39.0563 161.8ZM39.0563 151.222C36.2927 151.222 34.0346 153.494 34.0346 156.274C34.0346 159.054 36.2927 161.326 39.0563 161.326C40.5055 161.326 41.9379 160.699 42.9152 159.631C43.7747 158.681 44.1959 157.495 44.0948 156.291C43.8084 153.07 41.9716 151.222 39.0563 151.222Z" fill="#E6DFD1"/>
<path d="M37.0499 60.9174C36.3758 61.7989 35.7018 62.6974 35.0277 63.5789C34.8423 63.8162 35.2468 64.0535 35.4321 63.8162C36.1062 62.9347 36.7803 62.0362 37.4543 61.1547C37.6397 60.9004 37.2352 60.68 37.0499 60.9174Z" fill="#E6DFD1"/>
<path d="M37.994 62.7819L36.2751 65.2908C36.1066 65.5451 36.511 65.7825 36.6796 65.5282C37.2525 64.6975 37.8254 63.8668 38.3984 63.0192C38.5669 62.7819 38.1625 62.5446 37.994 62.7819Z" fill="#E6DFD1"/>
<path d="M43.6377 43.5077C42.2896 41.8973 40.9247 40.2868 39.5765 38.6764C39.3743 38.439 39.0541 38.7781 39.2395 39.0154L43.3007 43.8468C43.5029 44.0672 43.8231 43.7281 43.6377 43.5077Z" fill="#E6DFD1"/>
<path d="M28.3374 175.786C26.3995 174.803 24.4447 173.836 22.5068 172.853C22.2372 172.717 22.0013 173.124 22.2709 173.26C24.2088 174.243 26.1636 175.209 28.1015 176.193C28.3711 176.328 28.607 175.921 28.3374 175.786Z" fill="#E6DFD1"/>
<path d="M56.1927 164.293C55.6872 164.886 55.1817 165.462 54.6761 166.056C54.4739 166.276 54.8109 166.615 55.0131 166.395C55.5187 165.801 56.0242 165.225 56.5298 164.632C56.7151 164.411 56.3781 164.072 56.1927 164.293Z" fill="#E6DFD1"/>
<path d="M20.8984 92.0158C20.2243 95.6945 15.5396 94.9994 12.8434 95.3046C10.9224 95.5249 8.93389 96.4573 8.36094 98.4577C8.27669 98.7459 8.73167 98.8645 8.81593 98.5763C9.82701 95.0503 14.3769 95.8979 17.0899 95.5249C18.9942 95.2537 20.9658 94.1857 21.3365 92.1345C21.4039 91.8463 20.9658 91.7276 20.8984 92.0158Z" fill="#E6DFD1"/>
<path d="M22.0783 94.3728C21.4042 98.0514 16.7196 97.3564 14.0233 97.6615C12.1023 97.8819 10.1138 98.8143 9.54087 100.815C9.45662 101.103 9.9116 101.221 9.99586 100.933C11.0069 97.4072 15.5568 98.2548 18.2699 97.8819C20.1741 97.6106 22.1457 96.5426 22.5164 94.4914C22.567 94.2032 22.1288 94.0676 22.0783 94.3728Z" fill="#E6DFD1"/>
<mask id="mask0" mask-type="alpha" maskUnits="userSpaceOnUse" x="0" y="0" width="175" height="199">
<rect x="0.53125" y="0.923828" width="174.093" height="197.937" fill="#C4C4C4"/>
</mask>
<g mask="url(#mask0)">
<path d="M25.2036 105.883C26.7794 100.093 30.7189 94.4011 33.5751 91.6295C36.4805 88.8579 37.3177 111.674 37.3177 111.674L25.2036 105.883Z" fill="#FFA79B"/>
<path d="M73.4133 294.847C77.8453 277.97 80.3567 256.886 79.5688 247.582C79.5688 247.582 108.426 148.843 117.437 117.416C116.059 117.168 114.729 116.97 113.35 116.723C106.308 115.535 99.2664 114.397 92.2738 113.06C86.9062 112.07 77.2051 110.437 71.8375 109.596C57.9999 151.962 52.7308 219.519 51.155 230.606C50.1209 237.782 46.2306 270.051 45.6396 290.195C53.174 292.026 65.682 293.709 73.4133 294.847Z" fill="#E64825"/>
<path d="M168.503 287.226C160.525 257.679 153.582 242.138 153.582 242.138C150.972 220.114 136.248 137.51 136.248 137.51L134.18 120.138C127.236 119 120.342 117.861 113.399 116.723C106.357 115.535 99.3148 114.397 92.3221 113.061C91.5342 112.912 90.7956 112.764 90.0077 112.615L78.4353 134.244C78.4353 134.244 110.001 212.838 118.914 241.197C125.02 260.599 136.986 283.167 142.453 296.778C149.839 294.452 161.264 290.146 168.503 287.226Z" fill="#E64825"/>
<path d="M96.8532 181.41C95.1789 174.184 93.5047 166.958 91.7811 159.682C91.7319 159.534 91.7319 159.435 91.6826 159.287C91.6826 159.188 91.6826 159.089 91.7319 159.039C91.9289 159.089 92.0766 159.188 92.2736 159.237C92.3228 159.484 92.372 159.682 92.4213 159.93C94.0463 167.057 95.7206 174.134 97.3949 181.261C97.4934 181.608 96.9517 181.756 96.8532 181.41Z" fill="black"/>
<path d="M92.4706 159.93C92.2736 159.831 92.0274 159.782 91.8304 159.683C89.9099 158.99 88.0386 158.248 86.1181 157.555C85.7734 157.406 85.9211 156.862 86.2658 157.01L91.7812 159.089C91.9781 159.138 92.1258 159.237 92.3228 159.287C92.3721 159.485 92.4213 159.683 92.4706 159.93Z" fill="black"/>
<path d="M141.715 66.1897C140.976 80.3941 135.855 134.787 135.855 134.787L97.6905 130.926L78.9777 113.604L70.36 83.2152L65.9773 67.6745C67.4054 43.3735 72.6745 39.0181 94.4404 41.0968C95.179 41.1463 95.9669 41.2453 96.7548 41.3443C97.9367 41.4928 99.2171 41.6412 100.497 41.7897C103.797 42.1857 107.392 42.7301 111.38 43.2745C111.38 43.2745 112.414 43.9674 114.138 45.0563C121.475 49.8076 141.025 62.4282 141.715 62.8737C141.862 62.9726 141.813 64.1605 141.715 66.1897Z" fill="#39B54A"/>
<path d="M134.821 68.9121C127.188 87.0265 123.987 97.024 116.206 115.039C138.317 118.256 140.484 85.3932 134.821 68.9121Z" fill="black"/>
<path d="M109.314 66.7388H33.5762V142.611H109.314V66.7388Z" fill="#E6DFD1"/>
<path d="M109.313 78.0723H33.5757V79.2106H109.313V78.0723Z" fill="white"/>
<path d="M40.4212 75.0529C41.8626 75.0529 43.0311 73.8785 43.0311 72.4298C43.0311 70.9811 41.8626 69.8066 40.4212 69.8066C38.9798 69.8066 37.8113 70.9811 37.8113 72.4298C37.8113 73.8785 38.9798 75.0529 40.4212 75.0529Z" fill="#FECA55"/>
<path d="M48.152 75.0529C49.5934 75.0529 50.7619 73.8785 50.7619 72.4298C50.7619 70.9811 49.5934 69.8066 48.152 69.8066C46.7105 69.8066 45.542 70.9811 45.542 72.4298C45.542 73.8785 46.7105 75.0529 48.152 75.0529Z" fill="white"/>
<path d="M81.8841 117.023H44.8526C44.1139 117.023 44.1139 118.162 44.8526 118.162H81.8841C82.6227 118.211 82.6227 117.023 81.8841 117.023Z" fill="black"/>
<path d="M81.8841 123.408H44.8526C44.1139 123.408 44.1139 124.547 44.8526 124.547H81.8841C82.6227 124.596 82.6227 123.408 81.8841 123.408Z" fill="black"/>
<path d="M96.0668 84.21H44.3113V110.936H96.0668V84.21Z" fill="#BAB5AB"/>
<path d="M93.0629 132.069H79.5701V137.712H93.0629V132.069Z" fill="white"/>
<path d="M90.5027 86.8329C89.1731 87.7238 87.7943 88.5652 86.4647 89.4561C85.8245 89.852 86.4154 90.8914 87.0556 90.4459C88.3852 89.5551 89.764 88.7137 91.0936 87.8228C91.7338 87.4269 91.1429 86.437 90.5027 86.8329Z" fill="white"/>
<path d="M41.5526 112.714C42.9807 113.109 44.852 111.328 43.4731 109.991C41.8973 108.507 35.5941 101.924 33.6243 101.033C24.7604 97.1233 23.677 111.179 24.0218 114.149C24.5634 119.197 26.7302 123.899 30.0295 127.66C30.128 127.957 32.5409 130.086 33.7228 130.927C34.6092 131.521 36.0373 130.877 36.2343 129.789C37.2684 130.135 39.8291 128.65 39.2874 127.116C39.6813 126.868 40.7647 126.522 41.0109 125.73C41.3556 124.74 41.0602 123.75 40.617 122.761C40.9124 122.612 41.1587 122.464 41.4049 122.167C42.8822 120.533 40.5185 118.653 38.7457 116.178C37.4161 114.297 36.9729 111.773 35.7418 110.585C36.1358 110.437 36.4805 110.288 36.8252 110.041C38.1548 111.278 39.7306 112.219 41.5526 112.714Z" fill="#FFA79B"/>
<path d="M39.927 122.068C37.0708 119.791 34.8056 116.97 33.1806 113.703C33.0328 113.357 32.4911 113.654 32.6881 114C34.3624 117.316 36.6769 120.137 39.5331 122.463C39.8285 122.711 40.2225 122.315 39.927 122.068Z" fill="#E37E71"/>
<path d="M38.7467 125.828C35.7429 124.047 33.3792 121.522 31.8034 118.404C31.6556 118.058 31.1139 118.355 31.3109 118.701C32.8867 121.918 35.3489 124.542 38.4513 126.323C38.7468 126.521 39.0422 126.026 38.7467 125.828Z" fill="#E37E71"/>
<path d="M35.4952 128.452C33.3285 127.016 31.5557 125.185 30.2261 122.908C30.0291 122.562 29.5367 122.859 29.7336 123.205C31.1125 125.531 32.9345 127.511 35.1997 128.946C35.4952 129.144 35.7907 128.65 35.4952 128.452Z" fill="#E37E71"/>
<path d="M41.7006 79.3063C40.2232 77.6235 38.549 74.456 36.6284 74.06C31.9503 73.1197 27.9122 73.5651 27.3213 74.1095C26.5826 74.8519 27.1244 76.0397 27.9615 76.7821C29.1434 77.8215 31.8518 76.9306 32.4427 78.8113C32.4427 78.8608 32.4427 78.8608 32.4919 78.9103C31.0639 78.6134 29.882 78.5144 28.9956 78.7123C25.844 79.4052 26.6812 85.8393 27.6168 91.63C29.3403 101.924 49.0379 103.706 49.0379 103.706C49.0379 103.706 41.8483 79.3558 41.7006 79.3063Z" fill="#FFA79B"/>
<path d="M141.716 66.1901C141.125 70.5454 139.45 75.7917 136.545 82.1762C122.806 112.02 120.344 124.097 109.756 125.037C103.65 125.581 94.8352 122.414 79.5695 116.772C64.3531 111.129 52.633 106.824 43.8676 103.557C42.735 95.5393 42.341 87.4225 41.6516 79.3056C47.8564 80.0975 59.281 81.6318 70.3609 83.2156C81.9332 84.8983 93.0624 86.6306 97.1989 87.7194L120.639 56.9349L113.302 46.096L111.381 43.2749C112.612 43.4234 113.843 43.6214 115.025 43.7698C130.734 46.0465 144.03 49.412 141.716 66.1901Z" fill="#39B54A"/>
<path d="M101.483 91.8768L98.578 88.9568C98.3317 88.7093 97.8885 89.1053 98.184 89.3527C99.1689 90.3426 100.105 91.2829 101.089 92.2728C101.336 92.5697 101.73 92.1243 101.483 91.8768Z" fill="black"/>
<path d="M111.97 66.7846C111.232 67.8735 110.542 69.0118 109.804 70.1006C109.607 70.3976 110.099 70.6946 110.296 70.3976C111.035 69.3088 111.724 68.1704 112.463 67.0816C112.709 66.7846 112.217 66.4877 111.97 66.7846Z" fill="black"/>
<path d="M29.0452 83.9579C28.6513 83.3145 28.3066 82.6216 27.9126 81.9782C27.7156 81.6317 27.2232 81.9287 27.4202 82.2751C27.8141 82.9185 28.1588 83.6114 28.5528 84.2548C28.7005 84.6013 29.193 84.3043 29.0452 83.9579Z" fill="#E37E71"/>
<path d="M29.0945 89.2533C28.799 88.8078 28.5035 88.3624 28.2573 87.917C28.0603 87.62 27.5679 87.9169 27.7649 88.2139C28.0603 88.6593 28.3558 89.1048 28.602 89.5502C28.799 89.8967 29.2914 89.5997 29.0945 89.2533Z" fill="#E37E71"/>
<path d="M29.5369 92.9167L28.749 91.8774C28.5028 91.5804 28.0103 91.8774 28.2566 92.1743L29.0445 93.2137C29.2907 93.5107 29.7831 93.2137 29.5369 92.9167Z" fill="#E37E71"/>
<path d="M34.6085 79.3547C34.0668 79.1568 33.5251 78.9588 33.0326 78.8103C32.6879 78.7113 32.5402 79.2557 32.8849 79.3547C33.4266 79.5527 33.9683 79.7507 34.4607 79.8991C34.8054 79.9981 34.9532 79.4537 34.6085 79.3547Z" fill="#E37E71"/>
<path d="M114.237 44.2641L108.673 23.0317L95.1306 26.8922C95.3768 27.1891 96.4602 38.9189 97.1496 46.2439C99.1194 46.0954 111.43 44.4621 114.237 44.2641Z" fill="#FFA79B"/>
<path d="M104.339 25.4075C104.389 24.8631 104.388 24.3682 104.388 23.8237L95.1306 26.8923C95.2783 27.0408 95.6723 30.8517 96.1155 35.405C99.858 32.8314 102.96 29.4164 104.339 25.4075Z" fill="black"/>
<path d="M119.113 16.054C119.655 11.7976 113.893 6.45238 108.919 5.11607C106.753 4.52216 106.506 2.69092 105.226 4.02723C102.074 7.34324 91.9794 17.4398 91.7332 21.8941C91.3885 28.3777 98.8735 30.9018 104.241 29.2685C109.609 27.5858 118.325 22.1416 119.113 16.054Z" fill="#FFA79B"/>
<path d="M107.442 1.10693C109.756 1.60186 111.824 4.7199 112.366 6.65012C116.158 8.87729 119.507 12.7872 119.063 16.1032C118.522 20.1617 114.484 23.9726 110.249 26.4967C109.362 24.913 112.021 21.9434 111.874 19.8647C109.067 15.0639 109.559 13.1337 110.741 11.253C109.116 11.1045 104.389 5.95722 104.536 4.02701C104.93 1.15642 106.752 0.958456 107.442 1.10693Z" fill="#322E28"/>
<path d="M116.207 25.6056C117.093 23.3289 115.222 19.9634 111.873 19.8149C110.051 21.7452 108.18 23.6259 106.309 25.5066C106.9 26.9419 109.067 28.9216 111.184 29.0701C113.597 29.1691 115.271 28.0802 116.207 25.6056Z" fill="#FFA79B"/>
<path d="M113.745 23.7248C112.958 23.5763 112.219 23.4773 111.431 23.3289C111.086 23.2794 110.889 23.8238 111.283 23.8733C112.071 24.0218 112.81 24.1207 113.598 24.2692C113.992 24.3187 114.139 23.7743 113.745 23.7248Z" fill="#E37E71"/>
<path d="M100.548 9.81731C100.154 10.2627 99.7109 10.6587 99.317 11.1041C99.0707 11.3516 99.4647 11.797 99.7109 11.5001C100.105 11.0546 100.548 10.6587 100.942 10.2132C101.237 9.96579 100.794 9.52036 100.548 9.81731Z" fill="black"/>
<path d="M105.275 14.1733C104.881 14.6187 104.438 15.0147 104.044 15.4601C103.798 15.7076 104.192 16.153 104.438 15.856C104.832 15.4106 105.275 15.0146 105.669 14.5692C105.915 14.3217 105.521 13.8763 105.275 14.1733Z" fill="black"/>
<path d="M99.9076 15.8554C99.5136 15.707 98.9719 15.5585 98.7257 15.1625C98.578 14.8656 98.6272 14.4697 98.9719 14.4202C99.3167 14.3707 99.1689 13.8262 98.8242 13.8757C98.2333 13.9747 97.9871 14.6181 98.0856 15.1625C98.2333 15.9049 99.0704 16.2019 99.7106 16.3999C100.105 16.5483 100.252 16.0039 99.9076 15.8554Z" fill="#E37E71"/>
<path d="M102.173 23.6257C101.779 24.2197 100.942 24.4671 100.252 24.1702C99.9074 24.0217 99.6119 24.5166 99.9566 24.6651C100.942 25.1105 102.074 24.7641 102.665 23.8732C102.862 23.6257 102.37 23.3288 102.173 23.6257Z" fill="#E37E71"/>
<path d="M115.025 43.7698C114.73 44.2152 114.484 44.6112 114.139 45.0566C113.844 45.403 113.597 45.7495 113.302 46.0959C111.234 48.4716 108.574 50.3028 105.521 51.2432C102.173 52.233 98.3317 51.9361 95.8695 49.214C93.8013 46.9373 93.3581 43.8193 94.4415 41.0972C95.1801 41.1467 100.991 41.2951 100.991 41.2951C104.29 41.6911 107.442 42.6809 111.381 43.2748C112.612 43.4233 113.794 43.5718 115.025 43.7698Z" fill="#FFA79B"/>
<path d="M107.689 12.8858L107.245 11.9949C106.901 11.302 105.916 11.8959 106.261 12.5888L106.704 13.4797C106.999 14.1231 108.033 13.5787 107.689 12.8858Z" fill="#322E28"/>
<path d="M102.37 8.33218C102.026 8.08472 101.681 7.83725 101.336 7.58979C101.09 7.39182 100.696 7.54029 100.548 7.78776C100.4 8.08471 100.499 8.38167 100.745 8.57964C101.09 8.82711 101.435 9.07457 101.779 9.32204C102.025 9.52001 102.419 9.37152 102.567 9.12405C102.764 8.87659 102.666 8.53015 102.37 8.33218Z" fill="#322E28"/>
</g>
<path fill-rule="evenodd" clip-rule="evenodd" d="M122.503 85.6865C122.253 85.6867 122.018 85.5889 121.841 85.4117C121.664 85.2343 121.567 84.9986 121.567 84.7479V82.4817L123.164 84.084C123.341 84.2614 123.438 84.4971 123.438 84.7479C123.438 85.2654 123.019 85.6865 122.503 85.6865ZM120.765 83.9526L119.137 82.3198H120.765V83.9526ZM120.173 85.1873C120.099 85.2622 120.017 85.3296 119.929 85.3887L117.705 83.1579C117.764 83.0701 117.831 82.9881 117.906 82.9131L118.25 82.5676L120.518 84.8419L120.173 85.1872V85.1873ZM119.04 85.6584H117.437V84.0502C117.437 84.0423 117.438 84.0346 117.438 84.0266L119.063 85.6573C119.056 85.6573 119.048 85.6584 119.04 85.6584ZM117.408 80.5769C117.408 80.0593 117.828 79.6383 118.344 79.6383C118.594 79.6383 118.829 79.7358 119.006 79.9132L120.604 81.5157L118.344 81.5155C118.094 81.5157 117.859 81.4181 117.683 81.2407C117.506 81.0634 117.408 80.8277 117.408 80.5769ZM123.731 83.5157L122.539 82.3198H122.809V82.3201C123.059 82.3201 123.294 82.4176 123.471 82.5949L124.038 82.026C123.71 81.6969 123.273 81.5157 122.809 81.5157V80.2695L121.567 80.2693C121.567 79.8038 121.386 79.3662 121.058 79.0369L120.491 79.6059C120.668 79.7833 120.765 80.0189 120.765 80.2697H120.765V80.5403L119.573 79.3444C119.245 79.0153 118.808 78.834 118.344 78.834C117.386 78.8339 116.606 79.6156 116.606 80.5768C116.606 81.0424 116.787 81.4801 117.116 81.8092C117.244 81.9377 117.392 82.0456 117.554 82.1289L117.339 82.3444C116.885 82.8001 116.635 83.4058 116.635 84.0502V86.4626H119.04C119.682 86.4626 120.286 86.2116 120.74 85.7559L120.955 85.5403C121.038 85.7024 121.145 85.8509 121.274 85.9805C121.602 86.3097 122.039 86.4909 122.503 86.4911C123.461 86.491 124.24 85.7092 124.24 84.7481C124.24 84.2826 124.059 83.8449 123.731 83.5157Z" fill="white"/>
<line x1="39.8853" y1="198.361" x2="173.479" y2="198.361" stroke="#897E76"/>
</svg>
