<svg width="599" height="350" viewBox="0 0 599 350" fill="none" xmlns="http://www.w3.org/2000/svg">
<path d="M344.881 203.18H497.721V348.948H344.881V203.18Z" fill="#DACEB6"/>
<path d="M362.357 91.2544V225.04H497.721V91.2544C497.721 82.1366 490.298 74.7139 481.18 74.7139H378.898C369.78 74.7139 362.357 82.0782 362.357 91.2544Z" fill="#DACEB6"/>
<path d="M486.148 88.2153V159.17C486.148 159.988 484.863 159.988 484.863 159.17V88.2153C484.863 87.397 486.148 87.397 486.148 88.2153Z" fill="#DACEB6"/>
<path d="M150.827 187.925H159.887V220.363H150.827V187.925Z" fill="#E6DFD1"/>
<path d="M163.804 198.329H172.863V220.364H163.804V198.329Z" fill="#E6DFD1"/>
<path d="M201.909 198.329H210.969V220.364H201.909V198.329Z" fill="#E6DFD1"/>
<path d="M176.777 169.105H185.836V220.364H176.777V169.105Z" fill="#E6DFD1"/>
<path d="M189.749 177.522H198.809V220.364H189.749V177.522Z" fill="#E6DFD1"/>
<path d="M406.77 71.9058L378.832 84.4135L374.799 78.8026L369.656 71.6136L360.713 59.1643L377.78 47.4749C378.832 48.9945 406.77 71.9058 406.77 71.9058Z" fill="#FFA79B"/>
<path d="M369.19 70.9128L360.715 59.165L370.066 53.028C371.586 58.6389 371.411 65.4188 369.19 70.9128Z" fill="black"/>
<path d="M382.399 31.6949C378.775 23.2785 356.449 21.7004 354.344 30.4675C352.708 37.0136 348.383 55.1906 350.838 59.2819C355.806 67.523 367.028 65.5358 372.814 59.4573C378.658 53.3203 385.964 39.9944 382.399 31.6949Z" fill="#FFA79B"/>
<path d="M369.364 32.0457C362.993 32.3964 356.388 29.6494 354.927 29.0064C349.959 23.8631 354.051 17.4339 364.629 22.1681C372.871 22.3435 382.865 24.6814 384.443 32.221C389.002 41.1635 383.099 42.274 380.586 47.8264C378.54 46.8328 378.657 43.6182 376.202 42.6246C372.578 41.105 371.176 39.7607 369.364 32.0457Z" fill="#952C28"/>
<path d="M357.498 46.3657C356.796 46.3657 356.037 46.4241 355.335 46.1319C354.575 45.7812 353.874 44.846 354.575 44.0862C354.868 43.794 354.4 43.3264 354.108 43.6186C353.465 44.32 353.465 45.4305 354.166 46.1319C354.985 47.067 356.329 47.067 357.498 47.067C357.907 47.0086 357.907 46.3072 357.498 46.3657Z" fill="#D24A43"/>
<path d="M363.695 38.6492C363.461 39.2337 363.228 39.7597 362.994 40.3442C362.76 40.9287 363.695 41.1625 363.929 40.578C364.163 39.9935 364.397 39.4675 364.63 38.883C364.806 38.357 363.929 38.1232 363.695 38.6492Z" fill="black"/>
<path d="M354.226 36.1959C353.992 36.7804 353.758 37.3064 353.525 37.8909C353.291 38.4753 354.226 38.7091 354.46 38.1247C354.693 37.5402 354.927 37.0142 355.161 36.4297C355.395 35.9037 354.46 35.6114 354.226 36.1959Z" fill="black"/>
<path d="M366.15 35.6697C365.566 35.4359 364.923 35.2022 364.338 35.0268C363.579 34.7346 363.169 35.962 363.988 36.2542C364.572 36.488 365.215 36.7218 365.8 36.8971C366.559 37.1894 366.969 35.962 366.15 35.6697Z" fill="#952C28"/>
<path d="M356.798 33.2154C356.213 32.9816 355.57 32.7478 354.986 32.5725C354.226 32.2802 353.817 33.5076 354.635 33.7999C355.22 34.0336 355.863 34.2674 356.447 34.4428C357.207 34.735 357.616 33.5076 356.798 33.2154Z" fill="#952C28"/>
<path d="M363.633 51.859C362.932 53.0864 361.763 53.9047 360.36 54.08C359.951 54.1385 359.951 54.7814 360.36 54.7229C361.997 54.5476 363.399 53.6125 364.218 52.2097C364.393 51.8006 363.808 51.5084 363.633 51.859Z" fill="#D24A43"/>
<path d="M384.852 45.6645C384.15 42.5083 379.708 40.2873 375.968 42.6252C375.442 46.0736 374.799 49.5804 374.156 52.9704C375.851 54.0809 379.591 54.6069 381.988 53.1457C384.676 51.5092 385.611 49.0544 384.852 45.6645Z" fill="#FFA79B"/>
<path d="M380.121 46.1902C379.186 47.0085 378.192 47.8852 377.257 48.7035C376.965 48.9957 377.374 49.4048 377.725 49.1711C377.783 49.1126 377.842 49.0542 377.9 48.9957L377.959 48.9373C378.835 48.1775 379.712 47.4176 380.589 46.6578C380.939 46.3656 380.472 45.9565 380.121 46.1902Z" fill="#D24A43"/>
<path d="M384.156 165.13C376.324 140.699 356.335 69.4519 388.013 64.0748C407.652 60.7433 431.498 82.4856 453.123 124.86C459.786 137.894 466.391 152.914 471.184 167.643C442.135 167.76 412.795 168.812 384.156 165.13Z" fill="#FECA55"/>
<path d="M417.645 167.584C415.482 155.427 412.91 143.329 410.339 131.23C406.832 114.748 401.338 107.033 397.714 90.551C413.319 100.545 427.814 107.968 431.613 126.145C434.828 141.458 430.854 156.246 421.444 167.643C420.158 167.701 418.93 167.643 417.645 167.584Z" fill="black"/>
<path d="M293.91 332.524C303.554 330.888 308.171 325.978 306.067 310.957C316.938 313.003 328.218 312.477 339.44 312.711C339.791 324.809 339.849 336.908 339.732 349.006H280.116C280.058 348.948 278.772 335.096 293.91 332.524Z" fill="#FFA79B"/>
<path d="M290.409 195.816C312.619 201.778 302.742 213.233 322.614 223.754C324.133 227.611 325.536 231.469 326.822 235.385C330.329 245.73 333.134 256.25 335.472 266.888C337.985 281.733 338.921 296.871 339.388 311.892C339.447 313.938 339.505 315.983 339.563 318.029C328.575 318.555 314.84 317.503 303.852 316.977C300.404 303.125 296.956 290.617 285.675 254.672C275.681 222.76 273.109 201.427 290.409 195.816Z" fill="#0EA36C"/>
<path d="M293.914 332.525C297.947 331.824 301.044 330.596 303.207 328.317C306.889 329.427 310.513 330.538 314.254 331.415C318.754 332.467 323.196 333.11 327.872 332.876C331.846 332.7 335.821 332.35 339.795 332.174C339.795 337.785 339.795 343.338 339.736 348.949H280.12C280.062 348.949 278.776 335.097 293.914 332.525Z" fill="black"/>
<path d="M332.84 332.525C343.769 330.654 347.452 328.842 338.918 313.412C350.958 312.127 363.057 310.782 375.039 309.204C377.201 320.601 379.013 333.752 380.299 349.007H318.988C318.988 348.948 317.702 335.096 332.84 332.525Z" fill="#FFA79B"/>
<path d="M380.823 316.1C369.485 317.853 353.704 319.899 342.248 320.367C338.975 312.184 329.565 297.923 312.031 271.972C274.859 217.032 268.313 195.407 306.42 185.471C344.469 175.535 386.902 173.372 386.902 173.372C386.902 173.372 386.843 173.138 386.668 172.729C413.378 166.651 440.264 161.449 467.15 156.539C482.229 196.049 487.372 237.781 447.453 237.781C396.429 237.781 347.099 239.067 347.099 239.067C350.08 243.742 371.647 259.698 380.823 316.1Z" fill="#0EA36C"/>
<path d="M440.382 222.586C451.253 214.228 464.872 209.202 478.314 205.637C478.198 224.398 470.073 237.783 447.454 237.783C441.084 237.783 434.713 237.783 428.517 237.841C431.907 232.347 435.882 227.262 440.382 222.586Z" fill="black"/>
<path d="M332.838 332.524C337.221 331.764 340.436 331.005 342.189 329.427C346.339 330.362 350.547 331.297 354.756 331.881C360.074 332.641 365.276 332.992 370.653 332.407C373.283 332.115 375.855 331.648 378.485 331.18C379.187 336.791 379.829 342.694 380.355 349.006H319.044C318.986 348.948 317.7 335.096 332.838 332.524Z" fill="black"/>
<path d="M340.91 233.573C342.488 235.151 344.066 236.729 345.644 238.366C345.936 238.658 345.468 239.125 345.176 238.833C343.598 237.255 342.02 235.677 340.442 234.041C340.15 233.748 340.617 233.281 340.91 233.573Z" fill="white"/>
<path d="M287.483 234.683C293.27 243.509 298.997 252.276 304.784 261.101C305.018 261.452 304.433 261.803 304.199 261.452C298.413 252.626 292.685 243.859 286.899 235.034C286.665 234.683 287.25 234.391 287.483 234.683Z" fill="white"/>
<path d="M324.134 334.628C324.543 334.628 324.543 335.271 324.134 335.271C319.049 335.038 314.607 339.538 314.84 344.623C314.84 345.032 314.198 345.032 314.198 344.623C313.964 339.187 318.698 334.395 324.134 334.628Z" fill="white"/>
<path d="M316.827 272.557C323.607 284.247 330.445 295.878 337.225 307.567C337.459 307.918 336.874 308.269 336.641 307.918C329.861 296.229 323.022 284.598 316.243 272.908C316.067 272.557 316.593 272.207 316.827 272.557Z" fill="white"/>
<path d="M325.531 194.529C320.739 187.282 315.128 180.56 309.926 173.546C321.732 165.305 334.707 159.052 346.221 150.401C346.689 150.051 347.683 148.94 347.683 148.94C347.683 148.94 368.139 91.545 374.627 80.4985C374.627 80.4985 380.121 161.915 379.829 164.546C379.478 167.117 329.564 192.776 329.564 192.776L325.531 194.529Z" fill="#FECA55"/>
<path d="M302.852 178.865C306.359 176.001 309.983 173.43 313.723 170.975C319.568 177.872 325.237 184.885 330.264 192.425C329.796 192.659 329.562 192.776 329.562 192.776L285.785 211.596L280.642 200.257C281.343 186.054 294.903 185.411 302.852 178.865Z" fill="#FFA79B"/>
<path d="M349.96 147.07C351.421 146.368 352.824 145.608 354.285 144.907C354.636 144.732 354.987 145.258 354.636 145.491C353.175 146.193 351.772 146.953 350.311 147.654C349.902 147.829 349.61 147.245 349.96 147.07Z" fill="black"/>
<path d="M292.337 197.509C292.746 197.334 292.921 197.977 292.512 198.152C288.947 199.555 289.122 203.354 289.531 206.51C289.59 206.919 288.947 207.094 288.889 206.685C288.363 203.062 288.363 199.029 292.337 197.509Z" fill="#D24A43"/>
<path d="M288.768 192.95C289.118 192.717 289.469 193.301 289.118 193.535C287.073 194.879 285.728 197.042 285.436 199.496C285.378 199.906 284.735 199.906 284.793 199.496C285.086 196.808 286.488 194.47 288.768 192.95Z" fill="#D24A43"/>
<path d="M296.019 200.725C300.695 197.803 308.527 193.77 319.866 189.036C323.899 186.581 328.107 184.126 332.257 181.847C338.803 191.374 343.595 198.037 349.674 207.856C343.186 208.615 337.341 209.2 332.841 209.609C326.295 213.7 317.82 214.986 305.488 212.005C303.501 214.46 302.039 219.194 298.942 219.779C296.078 219.37 293.272 218.727 290.701 217.499C288.363 216.389 286.551 214.811 285.031 212.941C289.006 208.323 290.467 204.641 296.019 200.725Z" fill="#FFA79B"/>
<path d="M328.864 183.774C349.554 172.026 370.888 162.5 370.888 162.5C370.888 162.5 371.823 155.194 371.647 119.541C371.53 83.8882 368.842 74.186 387.837 65.4189C387.837 65.4189 393.623 65.6527 404.495 76.8161C415.366 87.9795 425.01 139.121 427.581 166.416C429.393 185.82 381.174 207.855 349.262 211.42C343.125 202.302 334.416 193.184 328.864 183.774Z" fill="#FECA55"/>
<path d="M371.123 92.8896C372.175 111.768 373.227 130.646 374.279 149.525C374.279 149.759 374.338 150.051 374.338 150.285C374.571 150.109 374.747 149.993 374.98 149.817C374.98 149.583 374.98 149.291 374.922 149.057C373.87 130.296 372.818 111.593 371.766 92.8896C371.766 92.4805 371.065 92.4805 371.123 92.8896Z" fill="black"/>
<path d="M332.726 180.619C346.578 170.508 360.43 160.396 374.34 150.285C374.574 150.11 374.749 149.993 374.983 149.817C376.327 148.824 377.73 147.83 379.074 146.837C379.425 146.603 379.074 146.018 378.724 146.252C377.438 147.187 376.211 148.122 374.925 148.999C374.691 149.175 374.516 149.291 374.282 149.467C360.313 159.637 346.344 169.806 332.434 179.976C332.083 180.268 332.375 180.853 332.726 180.619Z" fill="black"/>
<path d="M295.259 198.27C296.545 195.991 298.766 194.822 301.221 194.062C308.176 191.899 315.189 189.971 322.203 187.925C322.612 187.808 322.788 188.451 322.378 188.568C316.3 190.321 310.28 192.075 304.201 193.887C301.337 194.705 298.006 195.348 296.194 197.978C294.675 200.199 294.324 203.063 294.032 205.693C293.973 206.102 293.33 206.102 293.389 205.693C293.681 203.121 294.032 200.491 295.259 198.27Z" fill="#D24A43"/>
<path d="M297.831 200.549C298.007 200.198 298.591 200.49 298.416 200.899C296.195 204.874 294.675 209.141 293.857 213.641C293.798 214.05 293.156 213.875 293.214 213.466C294.032 208.907 295.61 204.582 297.831 200.549Z" fill="#D24A43"/>
<path d="M296.133 218.142C297.243 213.349 299.406 208.907 302.445 205.05C302.679 204.699 303.147 205.167 302.913 205.517C300.049 209.141 298.062 213.232 296.893 217.674C296.893 217.674 296.893 217.674 296.893 217.733C296.834 217.966 296.776 218.142 296.717 218.376C296.659 218.726 296.016 218.551 296.133 218.142Z" fill="#D24A43"/>
<path d="M145.283 218.085H77.1334C76.3152 218.085 76.3152 219.371 77.1334 219.371H145.283C146.101 219.371 146.101 218.085 145.283 218.085Z" fill="#E6DFD1"/>
<path d="M145.283 215.513H77.1334C76.3152 215.513 76.3152 216.799 77.1334 216.799H145.283C146.101 216.799 146.101 215.513 145.283 215.513Z" fill="#E6DFD1"/>
<path d="M145.283 212.883H77.1334C76.3152 212.883 76.3152 214.169 77.1334 214.169H145.283C146.101 214.227 146.101 212.883 145.283 212.883Z" fill="#E6DFD1"/>
<path d="M145.283 209.96H77.1334C76.3152 209.96 76.3152 211.246 77.1334 211.246H145.283C146.101 211.304 146.101 209.96 145.283 209.96Z" fill="#E6DFD1"/>
<path d="M194.143 67.2916H240.842V130.941H194.143V67.2916Z" fill="#E6DFD1"/>
<path d="M201.973 78.3388H248.672V141.988H201.973V78.3388Z" fill="#E6DFD1"/>
<path d="M123.652 62.0317H233.007V142.806H123.652V62.0317Z" fill="#8DB8A8"/>
<path d="M200.16 76.2925H233.007V57.1218C233.007 54.784 231.137 52.9136 228.799 52.9136H204.309C201.971 52.9136 200.101 54.784 200.101 57.1218V76.2925H200.16Z" fill="#8DB8A8"/>
<path d="M163.571 131.585H220.674C221.024 131.585 221.316 131.292 221.316 130.942V73.8388C221.316 73.4882 221.024 73.1959 220.674 73.1959H163.571C163.22 73.1959 162.928 73.4882 162.928 73.8388V130.942C162.928 131.292 163.22 131.585 163.571 131.585ZM220.031 130.299H164.214V74.4817H220.031V130.299Z" fill="white"/>
<path d="M175.437 117.849C186.249 107.211 197.062 96.6322 207.875 85.9949C208.459 85.4104 209.395 86.3455 208.81 86.93C198.523 97.0414 188.178 107.153 177.892 117.264C177.833 117.381 177.833 117.439 177.716 117.498L176.313 118.784C175.729 119.368 174.852 118.433 175.437 117.849Z" fill="white"/>
<path d="M207.585 119.076C196.947 108.263 186.369 97.4506 175.731 86.6378C175.147 86.0534 176.082 85.1182 176.666 85.7027C186.778 95.9894 196.889 106.335 207 116.621C207.117 116.68 207.176 116.68 207.234 116.797L208.52 118.199C209.046 118.784 208.169 119.719 207.585 119.076Z" fill="white"/>
<path d="M134.466 77.2872H153.227C154.045 77.2872 154.045 78.5731 153.227 78.5731H134.466C133.647 78.5731 133.647 77.2872 134.466 77.2872Z" fill="white"/>
<path d="M134.466 83.4817H153.227C154.045 83.4817 154.045 84.7675 153.227 84.7675H134.466C133.647 84.7675 133.647 83.4817 134.466 83.4817Z" fill="white"/>
<path d="M200.102 49.6989H205.129V62.0312H200.102V49.6989Z" fill="#FECA55"/>
<path d="M208.4 46.6602H213.427V62.0902H208.4V46.6602Z" fill="#FECA55"/>
<path d="M241.31 83.1313V136.318C241.31 137.136 240.024 137.136 240.024 136.318V83.1313C240.024 82.3131 241.31 82.3131 241.31 83.1313Z" fill="white"/>
<path d="M111.206 189.853H133.942V221.006H111.206V189.853Z" fill="#D24A43"/>
<path d="M128.856 213.35C131.252 213.467 133.648 213.642 136.103 213.7C137.33 213.759 139.084 213.876 139.844 212.532C140.428 211.363 140.077 209.025 140.077 207.739C140.136 205.226 140.253 202.712 140.253 200.199C140.253 194.471 135.986 194.53 131.778 195.523C130.96 195.699 130.609 194.471 131.427 194.296C134.174 193.653 137.681 192.893 140.019 195.173C142.474 197.628 141.539 202.186 141.48 205.226C141.422 207.622 142.357 212.882 140.019 214.636C139.084 215.337 137.857 215.162 136.746 215.103C134.116 214.986 131.544 214.811 128.914 214.694C128.037 214.636 128.037 213.291 128.856 213.35Z" fill="#D24A43"/>
<path d="M123.185 183.658C125.874 181.437 125.932 177.288 123.361 175.008C122.718 174.482 123.653 173.547 124.296 174.073C127.394 176.82 127.335 181.964 124.121 184.594C123.419 185.12 122.543 184.184 123.185 183.658Z" fill="black"/>
<path d="M117.987 183.424C120.676 181.203 120.734 177.054 118.162 174.774C117.52 174.248 118.455 173.313 119.098 173.839C122.195 176.586 122.137 181.729 118.922 184.36C118.279 184.886 117.344 183.95 117.987 183.424Z" fill="black"/>
<path d="M442.999 193.769V348.946H497.939V177.229H459.54C450.422 177.229 442.999 184.651 442.999 193.769Z" fill="#DACEB6"/>
<path d="M453.705 194.18V331.297C453.705 332.116 452.419 332.116 452.419 331.297V194.18C452.419 193.362 453.705 193.362 453.705 194.18Z" fill="white"/>
<path d="M225.411 220.6H294.729L272.812 176.005C272.11 174.661 270.766 173.784 269.188 173.784H203.961C203.201 173.784 202.734 174.544 203.084 175.245L225.411 220.6Z" fill="black"/>
<path d="M279.769 219.081H330.384C331.203 219.081 331.203 220.367 330.384 220.367H279.769C278.951 220.367 278.951 219.081 279.769 219.081Z" fill="black"/>
<path d="M238.154 198.564C239.089 201.662 241.661 202.597 244.232 201.779C246.804 200.961 248.265 198.097 247.564 195.642C246.804 193.07 243.94 191.668 241.368 192.428C238.797 193.187 237.336 195.993 238.154 198.564Z" fill="white"/>
<path d="M283.626 174.953C288.418 171.387 293.153 167.764 297.945 164.198C298.588 163.672 299.231 164.841 298.588 165.309C293.796 168.874 289.061 172.498 284.269 176.063C283.626 176.589 282.983 175.42 283.626 174.953Z" fill="#FECA55"/>
<path d="M276.03 169.516L282.109 161.333C282.576 160.691 283.745 161.333 283.219 161.976L277.141 170.159C276.615 170.86 275.504 170.217 276.03 169.516Z" fill="#FECA55"/>
<path d="M252.186 159.931V168.114C252.186 168.932 250.9 168.932 250.9 168.114V159.931C250.841 159.054 252.186 159.054 252.186 159.931Z" fill="#FECA55"/>
<path d="M271.063 176.588C273.226 180.68 275.388 184.829 277.492 188.921C277.902 189.681 276.733 190.324 276.382 189.564C274.219 185.472 272.057 181.323 269.953 177.231C269.544 176.53 270.654 175.829 271.063 176.588Z" fill="white"/>
<path d="M226.291 162.911C227.576 164.665 228.862 166.36 230.207 168.113C230.733 168.756 229.564 169.457 229.096 168.756C227.81 167.003 226.524 165.308 225.18 163.554C224.713 162.911 225.823 162.268 226.291 162.911Z" fill="#FECA55"/>
<path d="M97.2337 263.381H310.332V267.94H97.2337V263.381Z" fill="#D24A43"/>
<path d="M306.473 349.707C306.064 349.357 305.83 348.831 305.83 348.129V222.935C305.83 220.013 310.389 220.013 310.389 222.935V348.071C310.389 348.772 310.096 349.298 309.746 349.649H306.473V349.707Z" fill="#D24A43"/>
<path d="M95.1885 349.707C94.7794 349.357 94.5456 348.831 94.5456 348.129V222.935C94.5456 220.013 99.1045 220.013 99.1045 222.935V348.071C99.1045 348.772 98.8123 349.298 98.4616 349.649H95.1885V349.707Z" fill="#D24A43"/>
<path d="M71.9848 220.13H337.861C340.783 220.13 340.783 224.689 337.861 224.689H71.9848C69.0625 224.689 69.0625 220.13 71.9848 220.13Z" fill="#D24A43"/>
<path d="M6.81583 348.539H501.22C502.039 348.539 502.039 349.825 501.22 349.825H6.81583C5.99756 349.883 5.99756 348.539 6.81583 348.539Z" fill="#E6DFD1"/>
<path d="M547.757 184.296C541.848 184.296 537 179.722 537 174.148C537 168.574 541.848 164 547.757 164C553.893 164 557.908 167.716 558.514 174.005C558.741 176.506 557.832 178.936 555.938 180.794C553.893 183.081 550.863 184.296 547.757 184.296ZM547.757 166.072C542.985 166.072 539.121 169.717 539.121 174.22C539.121 178.722 542.985 182.367 547.757 182.367C550.257 182.367 552.757 181.366 554.423 179.651C555.863 178.15 556.62 176.292 556.393 174.363C555.938 169.003 552.833 166.072 547.757 166.072Z" fill="#E6DFD1"/>
<path d="M24.6956 226.913C11.06 226.913 0 216.479 0 203.615C0 190.751 11.06 180.317 24.6956 180.317C39.013 180.317 48.0276 188.75 49.3912 203.544C49.9215 209.189 47.8761 214.692 43.5582 219.123C38.8615 223.983 31.7407 226.913 24.6956 226.913ZM24.6956 182.318C12.2721 182.318 2.1211 191.895 2.1211 203.615C2.1211 215.336 12.2721 224.912 24.6956 224.912C31.2104 224.912 37.6494 222.268 42.0431 217.765C45.9066 213.763 47.8004 208.761 47.3459 203.687C46.0581 190.108 37.8009 182.318 24.6956 182.318Z" fill="#E6DFD1"/>
<path d="M596.582 169.302C589.84 176.305 583.098 183.38 576.28 190.384C575.371 191.313 576.886 192.742 577.795 191.813C584.537 184.81 591.279 177.735 598.097 170.731C599.006 169.802 597.491 168.373 596.582 169.302Z" fill="#E6DFD1"/>
<path d="M60.4696 7.69865C52.8185 27.9234 20.472 21.7059 11.3058 41.1445C10.7756 42.288 12.5936 43.2885 13.1238 42.1451C22.29 22.7064 54.6367 29.0669 62.515 8.19892C62.9695 6.984 60.9241 6.48373 60.4696 7.69865Z" fill="#E6DFD1"/>
<path d="M67.8202 22.5629C60.1691 42.7877 27.8225 36.5702 18.6564 56.0088C18.1261 57.1523 19.9442 58.1528 20.4745 57.0094C29.6406 37.5707 61.9871 43.9312 69.8655 23.0632C70.32 21.8483 68.2747 21.348 67.8202 22.5629Z" fill="#E6DFD1"/>
<path d="M521.05 38.0904C517.186 39.6627 513.323 41.1634 509.535 42.7357C508.323 43.2359 509.384 44.9511 510.596 44.4509C514.459 42.8786 518.323 41.3779 522.11 39.8056C523.322 39.3054 522.262 37.5902 521.05 38.0904Z" fill="#E6DFD1"/>
<path d="M527.114 44.236C521.736 46.5229 516.357 48.7383 510.979 51.0252C509.767 51.5255 510.827 53.2406 512.039 52.7404C517.418 50.4535 522.796 48.238 528.175 45.9511C529.387 45.4509 528.326 43.7357 527.114 44.236Z" fill="#E6DFD1"/>
<path d="M196.513 305.872C187.802 301.727 179.014 297.654 170.303 293.509C169.091 292.937 168.03 294.652 169.242 295.224C177.954 299.369 186.741 303.442 195.453 307.587C196.665 308.159 197.726 306.444 196.513 305.872Z" fill="#E6DFD1"/>
<path d="M281.761 43.3668C288.477 36.4414 295.151 29.4215 301.867 22.4962C302.797 21.5311 301.512 19.9771 300.582 20.9422C293.865 27.8675 287.192 34.8875 280.475 41.8128C279.546 42.7779 280.831 44.3319 281.761 43.3668Z" fill="#E6DFD1"/>
<path d="M66.0981 282.302C63.8255 284.803 61.5529 287.233 59.2803 289.734C58.3713 290.663 59.8863 292.092 60.7954 291.163C63.068 288.662 65.3406 286.232 67.6132 283.731C68.4465 282.802 66.9314 281.373 66.0981 282.302Z" fill="#E6DFD1"/>
<path d="M568.02 291.871C564.838 297.088 558.854 296.088 555.142 292.157C552.945 289.799 551.203 287.44 548.173 285.939C543.097 283.367 537.34 283.438 532.189 285.654C530.976 286.154 532.037 287.869 533.249 287.369C538.703 285.082 545.37 285.654 549.991 289.441C552.718 291.657 554.233 295.158 557.566 296.731C562.111 298.875 567.414 296.945 569.914 292.943C570.444 291.728 568.626 290.728 568.02 291.871Z" fill="#E6DFD1"/>
<path d="M565.367 302.448C562.185 307.665 556.2 306.665 552.488 302.734C550.292 300.376 548.549 298.017 545.519 296.517C540.444 293.944 534.686 294.015 529.535 296.231C528.323 296.731 529.384 298.446 530.596 297.946C536.05 295.659 542.716 296.231 547.337 300.018C550.064 302.234 551.579 305.736 554.913 307.308C559.458 309.452 564.761 307.522 567.26 303.52C567.866 302.377 566.048 301.376 565.367 302.448Z" fill="#E6DFD1"/>
</svg>
