<svg width="543" height="350" viewBox="0 0 543 350" fill="none" xmlns="http://www.w3.org/2000/svg">
<path d="M391 6H153V197H391V6Z" fill="#E6DFD1"/>
<path d="M368.012 30.735H325.489V142.074H368.012V30.735Z" fill="#9299AB"/>
<path d="M366.712 15.5966H203.625V22.5579H366.712V15.5966Z" fill="#FF5950"/>
<path d="M191.843 15.5966H175.11V29.4773H191.843V15.5966Z" fill="#FFA79B"/>
<path d="M198.634 15.5966H193.476V29.4773H198.634V15.5966Z" fill="#FFA79B"/>
<path d="M359.416 41.2606H333.962C333.207 41.2606 333.207 42.4348 333.962 42.4348H359.416C360.129 42.4348 360.171 41.2606 359.416 41.2606Z" fill="white"/>
<path d="M359.416 47.7189H333.962C333.207 47.7189 333.207 48.8931 333.962 48.8931H359.416C360.129 48.8512 360.171 47.7189 359.416 47.7189Z" fill="white"/>
<path d="M359.416 54.1349H333.962C333.207 54.1349 333.207 55.3091 333.962 55.3091H359.416C360.129 55.3091 360.171 54.1349 359.416 54.1349Z" fill="white"/>
<path d="M359.416 60.5932H333.962C333.207 60.5932 333.207 61.7674 333.962 61.7674H359.416C360.129 61.7674 360.171 60.5932 359.416 60.5932Z" fill="white"/>
<path d="M359.416 67.0512H333.962C333.207 67.0512 333.207 68.2254 333.962 68.2254H359.416C360.129 68.1835 360.171 67.0512 359.416 67.0512Z" fill="white"/>
<path d="M359.416 73.4675H333.962C333.207 73.4675 333.207 74.6417 333.962 74.6417H359.416C360.129 74.6417 360.171 73.4675 359.416 73.4675Z" fill="white"/>
<path d="M359.416 79.9255H333.962C333.207 79.9255 333.207 81.0997 333.962 81.0997H359.416C360.129 81.0997 360.171 79.9255 359.416 79.9255Z" fill="white"/>
<path d="M359.416 86.3835H333.962C333.207 86.3835 333.207 87.5577 333.962 87.5577H359.416C360.129 87.5158 360.171 86.3835 359.416 86.3835Z" fill="white"/>
<path d="M359.669 91.374H345.662C345.243 91.374 345.243 92.5482 345.662 92.5482H359.669C360.046 92.5482 360.046 91.374 359.669 91.374Z" fill="white"/>
<path d="M360.925 102.361H333.164V133.225H360.925V102.361Z" fill="white"/>
<path d="M390.824 6.95773V197.219C390.824 197.974 391.998 197.974 391.998 197.219V6.95773C391.998 6.20289 390.824 6.20289 390.824 6.95773Z" fill="white"/>
<path d="M360.967 105.087V106.596C356.984 110.203 355.684 115.612 351.825 119.303C348.009 122.909 344.067 121.693 339.622 120.058C337.442 119.261 335.261 118.925 333.206 119.429V118.171C339.454 116.871 345.493 123.748 350.987 118.464C353.629 115.948 354.803 112.342 356.858 109.448C357.99 107.812 359.416 106.345 360.967 105.087Z" fill="#FECA55"/>
<path d="M329.727 103.535V131.296C329.727 132.051 330.901 132.051 330.901 131.296V103.535C330.859 102.78 329.727 102.78 329.727 103.535Z" fill="white"/>
<path d="M359.498 135.322H335.804C335.05 135.322 335.05 136.496 335.804 136.496H359.498C360.253 136.496 360.253 135.322 359.498 135.322Z" fill="white"/>
<path d="M310.856 51.6611H216.375V108.735H310.856V51.6611Z" fill="white"/>
<path d="M303.391 57.2803H263.762V96.9093H303.391V57.2803Z" fill="#8DB8A8"/>
<path d="M299.782 93.6803C299.615 93.6803 299.489 93.6384 299.363 93.5126L267.282 61.4319C267.073 61.2223 267.073 60.8448 267.282 60.5932C267.492 60.3836 267.869 60.3836 268.121 60.5932L300.202 92.6739C300.411 92.8836 300.411 93.261 300.202 93.5126C300.076 93.6384 299.95 93.6803 299.782 93.6803Z" fill="white"/>
<path d="M267.702 93.6803C267.534 93.6803 267.408 93.6384 267.282 93.5126C267.073 93.3029 267.073 92.9255 267.282 92.6739L299.363 60.5932C299.573 60.3836 299.95 60.3836 300.202 60.5932C300.411 60.8029 300.411 61.1803 300.202 61.4319L268.121 93.5126C267.995 93.6384 267.827 93.6803 267.702 93.6803Z" fill="white"/>
<path d="M316.431 57.0707C316.096 57.0707 315.844 56.8191 315.844 56.4836V46.2513H305.821C305.486 46.2513 305.234 45.9997 305.234 45.6643C305.234 45.3288 305.486 45.0771 305.821 45.0771H316.431C316.767 45.0771 317.018 45.3288 317.018 45.6643V56.4836C316.976 56.8191 316.725 57.0707 316.431 57.0707Z" fill="#8DB8A8"/>
<path d="M316.513 114.019H305.736C305.4 114.019 305.148 113.768 305.148 113.432C305.148 113.097 305.4 112.845 305.736 112.845H315.968V102.822C315.968 102.487 316.219 102.235 316.555 102.235C316.89 102.235 317.142 102.487 317.142 102.822V113.432C317.1 113.768 316.806 114.019 316.513 114.019Z" fill="#8DB8A8"/>
<path d="M209.915 57.1545C209.58 57.1545 209.328 56.9029 209.328 56.5674V45.9996C209.328 45.6641 209.58 45.4125 209.915 45.4125H220.693C221.028 45.4125 221.28 45.6641 221.28 45.9996C221.28 46.3351 221.028 46.5867 220.693 46.5867H210.46V56.6093C210.46 56.9029 210.209 57.1545 209.915 57.1545Z" fill="#8DB8A8"/>
<path d="M229.962 78.248C228.494 77.4093 227.026 76.6125 225.559 75.7738C224.93 75.3964 224.301 76.4029 224.972 76.7384C226.439 77.5771 227.907 78.3738 229.375 79.2125C230.004 79.59 230.633 78.6254 229.962 78.248Z" fill="#FECA55"/>
<path d="M229.794 85.0423C228.159 85.7133 226.523 86.3842 224.888 87.0552C224.217 87.3487 224.51 88.4391 225.181 88.1874C226.817 87.5165 228.452 86.8455 230.088 86.1745C230.801 85.881 230.465 84.7488 229.794 85.0423Z" fill="#FECA55"/>
<path d="M248.328 89.1934C246.986 88.145 245.644 87.0547 244.302 86.0063C243.715 85.545 242.918 86.3837 243.463 86.845C244.805 87.8934 246.147 88.9837 247.489 90.0321C248.076 90.4934 248.915 89.6547 248.328 89.1934Z" fill="#FECA55"/>
<path d="M256.336 59.084H234.362V73.7195H256.336V59.084Z" fill="#FECA55"/>
<path d="M245.477 83.5745C245.351 83.5745 245.267 83.5325 245.141 83.4906L235.203 76.9486C234.993 76.8228 234.909 76.5293 234.951 76.3196C234.993 76.1099 235.244 75.9003 235.496 75.9003H240.78V67.1357C240.78 66.8003 241.032 66.5486 241.367 66.5486H249.251C249.586 66.5486 249.838 66.8003 249.838 67.1357V75.9003H254.744C254.996 75.9003 255.206 76.068 255.29 76.3196C255.374 76.5712 255.29 76.8228 255.08 76.9486L245.728 83.4906C245.686 83.5325 245.603 83.5745 245.477 83.5745ZM237.467 77.0325L245.477 82.3164L252.983 77.0325H249.335C248.999 77.0325 248.748 76.7809 248.748 76.4454V67.6809H241.996V76.4454C241.996 76.7809 241.744 77.0325 241.409 77.0325H237.467Z" fill="#9299AB"/>
<path d="M242.917 57.0711H234.404V60.1743H242.917C243.63 60.1743 243.63 57.0711 242.917 57.0711Z" fill="#FECA55"/>
<path d="M283.262 175.035C277.852 175.035 273.449 170.632 273.449 165.222V148.071H293.117V165.222C293.075 170.632 288.672 175.035 283.262 175.035Z" fill="#D24A43"/>
<path d="M290.307 150.796C289.594 150.964 289.888 152.096 290.601 151.929C296.094 150.671 301.588 154.571 301.462 160.4C301.336 166.229 295.717 169.877 290.265 168.409C289.552 168.2 289.259 169.332 289.971 169.542C296.136 171.177 302.552 167.025 302.636 160.4C302.72 153.816 296.555 149.412 290.307 150.796Z" fill="#D24A43"/>
<path d="M282.425 140.984C280.957 142.368 280.663 144.632 281.795 146.309C282.215 146.938 283.221 146.351 282.802 145.722C281.963 144.464 282.131 142.829 283.263 141.78C283.808 141.277 282.97 140.48 282.425 140.984Z" fill="black"/>
<path d="M285.524 145.68C284.727 145.009 284.601 143.793 285.356 143.038C285.859 142.493 285.063 141.654 284.517 142.199C283.385 143.416 283.427 145.387 284.685 146.519C285.272 146.98 286.111 146.183 285.524 145.68Z" fill="black"/>
<path d="M175.778 70.6581C175.861 70.4484 175.61 70.2387 175.4 70.3226C175.232 70.3226 175.107 70.4903 175.107 70.6581C174.561 71.4968 174.016 72.3774 173.471 73.2161C172.423 69.1065 168.481 66.2129 164.161 66.8839C160.052 67.5129 157.284 70.9936 157.116 74.8936C155.691 72.5452 152.545 71.6226 149.82 71.371C145.836 70.9936 141.642 71.5387 138.371 73.9291C135.478 76.0678 133.549 79.6323 134.22 83.2807C134.765 86.4678 137.365 88.9839 140.552 89.3194C139.629 92.3807 142.145 94.9807 144.829 96.1129C148.184 97.5387 152.084 98.1678 155.732 97.8323C162.149 97.2871 170.745 97.1194 170.787 90.242C174.352 91.0807 175.987 84.6645 177.539 81.3097C179.132 77.7452 178.126 73.5936 175.778 70.6581Z" fill="black"/>
<path d="M210.966 330.616C197.086 328.31 191.299 322.522 207.486 300.548C208.786 298.787 210.211 296.858 211.721 294.803C208.24 293.755 204.76 292.58 201.363 291.239C197.211 289.603 193.228 287.8 189.328 285.619C186.644 284.11 183.96 282.558 181.108 281.342C172.595 301.89 167.773 319.377 165.844 327.135L197.086 348.732H219.06C219.06 348.774 224.847 332.964 210.966 330.616Z" fill="#FFA79B"/>
<path d="M210.377 296.648C227.57 273.332 259.567 229.971 259.567 229.971H208.657C196.412 247.542 182.406 265.155 175.612 281.929C185.383 286.835 200.145 292.665 210.377 296.648Z" fill="#FECA55"/>
<path d="M210.586 230.014C208.992 238.988 210.502 248.759 213.144 257.272C215.366 264.485 218.889 272.201 224.298 277.778C240.779 255.427 259.524 230.056 259.524 230.056H210.586V230.014Z" fill="#575552"/>
<path d="M210.966 330.617C203.376 329.359 198.218 327.052 197.757 321.601C187.441 322.397 176.747 316.317 171.631 307.175C168.779 315.981 166.892 322.984 165.844 327.178L197.086 348.775H219.06C219.06 348.775 224.847 332.965 210.966 330.617Z" fill="#575552"/>
<path d="M241.03 332.965C227.359 332.965 239.059 317.323 252.898 291.658C249.082 291.616 245.266 291.533 241.408 291.407C232.476 291.155 223.25 291.784 214.234 291.071C210.166 306.629 206.14 326.129 203.582 348.775H257.93C258.014 348.775 264.179 332.965 241.03 332.965Z" fill="#FFA79B"/>
<path d="M190.123 185.604L192.807 165.81C162.571 162.791 114.555 178.726 114.555 178.726C106.461 258.53 104.448 253.917 228.2 249.304C228.2 249.304 220.526 265.91 213.313 294.804C225.181 296.775 246.316 297.697 258.268 298.452C260.029 295.307 276.048 249.933 281.123 234.249C283.723 226.155 286.658 211.897 278.816 207.914C255.961 196.339 190.123 185.604 190.123 185.604Z" fill="#FECA55"/>
<path d="M146.717 187.868C156.446 182.458 165.379 175.287 171.585 166.104C144.201 168.871 114.553 178.684 114.553 178.684C113.714 186.82 112.959 194.074 112.414 200.533C117.656 200.365 140.637 191.265 146.717 187.868Z" fill="#575552"/>
<path d="M241.031 332.964C236.88 332.964 235.077 331.497 234.951 328.771C225.054 331.245 214.654 331.371 206.98 325.164C205.722 332.587 204.59 340.471 203.625 348.732H257.973C258.015 348.774 264.18 332.964 241.031 332.964Z" fill="#575552"/>
<path d="M185.972 185.478C180.185 185.561 174.398 185.603 168.611 185.687C168.234 185.687 168.234 186.274 168.611 186.274C174.398 186.19 180.185 186.148 185.972 186.065C186.35 186.023 186.35 185.478 185.972 185.478Z" fill="black"/>
<path d="M231.932 245.739C230.423 246.997 228.871 248.297 227.361 249.555C227.068 249.806 227.487 250.184 227.781 249.974C229.291 248.716 230.842 247.416 232.352 246.158C232.645 245.906 232.226 245.487 231.932 245.739Z" fill="black"/>
<path d="M220.273 249.849C213.857 249.891 207.44 249.891 201.024 249.933C200.647 249.933 200.647 250.52 201.024 250.52C207.44 250.478 213.857 250.478 220.273 250.436C220.65 250.436 220.65 249.849 220.273 249.849Z" fill="black"/>
<path d="M221.153 265.952C219.35 272.829 217.546 279.707 215.743 286.626C215.659 287.003 216.204 287.129 216.288 286.794C218.091 279.916 219.895 273.039 221.698 266.12C221.824 265.742 221.237 265.574 221.153 265.952Z" fill="black"/>
<path d="M196.707 144.003C210.588 122.029 222.162 109.281 222.162 109.281L240.655 115.068C240.655 115.068 230.255 172.897 225.601 175.203C220.988 177.51 186.559 176.084 186.559 176.084L196.707 144.003Z" fill="#FFA79B"/>
<path d="M215.284 117.584C210.63 123.538 203.962 132.471 196.707 144.003L186.601 176.084C186.601 176.084 221.03 177.509 225.643 175.203C228.872 173.567 234.994 144.59 238.349 127.438C229.501 127.648 220.778 124.545 215.284 117.584Z" fill="#EBF5F1"/>
<path d="M237.177 90.6191C238.351 88.3546 238.309 86.2997 239.609 84.0772C240.909 81.8126 237.429 79.7997 236.129 82.0223C233.738 86.132 231.558 90.3255 229.587 94.603C229.042 94.1836 228.119 93.4707 225.435 95.6094C219.354 100.432 219.187 100.726 220.906 111.126C227.364 110.706 234.745 112.635 240.28 116.745C241.203 114.48 241.958 112.048 243.006 109.909C243.971 107.98 245.187 106.135 245.942 103.326C247.2 102.655 247.242 99.132 247.367 97.9159C248.206 91.332 241.329 91.1643 237.177 90.6191Z" fill="#FFA79B"/>
<path d="M230.17 95.7352C230.212 95.3578 229.625 95.3578 229.583 95.7352C229.415 98.0836 228.283 100.097 226.396 101.48C226.27 101.564 226.186 101.732 226.312 101.858C227.612 104.038 227.99 106.513 227.361 109.029C227.277 109.406 227.822 109.532 227.906 109.197C228.577 106.638 228.199 104.08 226.941 101.816C228.828 100.306 229.961 98.1675 230.17 95.7352Z" fill="#D24A43"/>
<path d="M238.642 100.852C237.342 101.774 236.083 100.768 236.042 99.342C236 98.6291 236.167 97.9162 236.293 97.2452C236.503 95.8194 236.713 94.3936 236.964 92.9678C237.006 92.5904 236.461 92.4646 236.419 92.8001C236.167 94.3097 235.958 95.8613 235.706 97.371C235.538 98.3775 235.287 99.5097 235.706 100.474C236.251 101.858 237.845 102.194 238.977 101.355C239.229 101.103 238.935 100.6 238.642 100.852Z" fill="#D24A43"/>
<path d="M242.081 102.319C239.313 102.655 240.781 95.9448 240.906 94.4352C240.948 94.0577 240.361 94.0577 240.319 94.4352C240.11 96.4481 239.564 98.7545 239.816 100.767C239.942 101.984 240.739 103.074 242.081 102.906C242.416 102.864 242.458 102.277 242.081 102.319Z" fill="#D24A43"/>
<path d="M244.639 102.822C243.255 102.739 244.219 96.3225 244.303 95.358C244.345 94.9805 243.758 94.9805 243.716 95.358C243.59 97.4547 243.339 99.5515 243.297 101.606C243.297 102.571 243.59 103.368 244.639 103.41C245.016 103.41 245.016 102.822 244.639 102.822Z" fill="#D24A43"/>
<path d="M205.431 131.003C203.124 135.532 200.818 140.061 198.553 144.632C198.386 144.967 198.889 145.261 199.057 144.925C201.363 140.396 203.669 135.867 205.934 131.296C206.102 130.961 205.598 130.667 205.431 131.003Z" fill="white"/>
<path d="M215.786 157.884L189.744 157.548L177.038 157.381L128.477 156.752L141.141 106.219L152.925 101.774L166.596 96.6162C174.186 97.4969 180.057 98.3775 184.67 99.3839C204.086 103.452 201.025 108.987 204.757 122.071C208.867 136.413 214.318 153.523 215.493 157.213C215.702 157.632 215.786 157.884 215.786 157.884Z" fill="#EBF5F1"/>
<path d="M193.644 150.964C193.602 151.174 193.56 151.342 193.518 151.552C193.351 151.51 193.183 151.468 193.015 151.426C193.057 151.258 193.099 151.048 193.183 150.839C194.022 147.232 193.183 142.829 192.847 139.474C192.26 133.352 191.631 127.229 191.044 121.106C191.002 120.729 191.589 120.729 191.631 121.106L193.644 141.739C193.896 144.632 194.315 148.029 193.644 150.964Z" fill="white"/>
<path d="M246.734 170.633C244.008 166.565 244.889 162.539 236.502 162.623C231.386 160.694 223.921 157.759 217.715 157.675C217.002 157.507 216.289 157.339 215.576 157.171C213.018 156.584 210.46 156.123 207.86 155.788C204.883 162.413 204.212 169.962 204.841 177.301C216.918 174.113 229.918 175.581 242.583 176.252C243.463 176.084 244.176 175.33 244.302 174.491C245.015 174.491 245.644 174.071 246.021 173.526C249.041 173.317 246.734 170.633 246.734 170.633ZM246.734 170.633C246.147 166.313 244.889 162.539 236.502 162.623C231.386 160.694 223.921 157.759 217.715 157.675" fill="#FFA79B"/>
<path d="M209.579 156.039C207.524 155.703 205.469 155.452 203.372 155.242C188.569 152.181 163.66 147.484 146.382 146.31L160.808 110.916L166.637 96.5743C160.85 96.1969 155.776 95.9452 151.247 95.8614C114.176 95.1485 115.601 104.626 108.808 134.736C96.9402 187.407 100.672 187.7 155.063 181.913C195.363 177.636 198.508 176.294 205.972 174.7C206.182 167.319 206.853 162.707 209.579 156.039Z" fill="#EBF5F1"/>
<path d="M245.561 172.772C242.709 169.249 238.767 166.817 234.28 165.852C233.903 165.768 233.777 166.314 234.113 166.397C238.474 167.32 242.29 169.71 245.142 173.149C245.351 173.443 245.771 173.023 245.561 172.772Z" fill="#952C28"/>
<path d="M239.646 172.142C237.969 170.171 235.704 168.871 233.104 168.452C232.727 168.41 232.601 168.955 232.937 168.997C235.411 169.374 237.592 170.59 239.227 172.52C239.479 172.813 239.856 172.394 239.646 172.142Z" fill="#952C28"/>
<path d="M244.723 168.285C243.674 166.985 242.374 165.936 240.907 165.181C240.571 165.014 240.278 165.517 240.613 165.685C242.081 166.398 243.297 167.446 244.345 168.704C244.555 168.998 244.932 168.578 244.723 168.285Z" fill="#952C28"/>
<path d="M144.539 146.646C144.33 146.646 144.162 146.646 143.952 146.646C143.952 146.436 143.91 146.268 143.91 146.058C143.407 139.475 142.904 132.933 142.401 126.349C142.359 125.971 142.946 125.971 142.988 126.349C143.491 132.891 143.994 139.475 144.497 146.016C144.539 146.226 144.539 146.436 144.539 146.646Z" fill="white"/>
<path d="M204.378 154.488C200.771 153.398 197.123 152.391 193.475 151.511C193.307 151.469 193.139 151.427 192.971 151.385C177.12 147.653 160.807 146.017 144.536 146.604C144.326 146.604 144.158 146.604 143.949 146.604C142.9 146.646 141.894 146.688 140.846 146.73C140.468 146.772 140.468 146.185 140.846 146.143C141.852 146.101 142.9 146.059 143.907 146.017C144.117 146.017 144.284 146.017 144.494 145.975C160.849 145.388 177.204 147.024 193.097 150.756C193.265 150.798 193.433 150.84 193.6 150.882C197.249 151.762 200.897 152.769 204.504 153.859C204.881 154.069 204.755 154.614 204.378 154.488Z" fill="white"/>
<path d="M177.712 86.2157C177.167 86.677 171.422 110.538 171.422 110.538L153.516 97.1609L164.796 80.3447L177.712 86.2157Z" fill="#FFA79B"/>
<path d="M175.533 93.9321C176.623 89.7386 177.504 86.3837 177.713 86.216L171.633 83.4482C171.884 87.3063 173.268 90.9128 175.533 93.9321Z" fill="black"/>
<path d="M153.851 63.2773C154.773 57.6999 164.125 53.2128 170.877 53.4224C173.812 53.5063 174.86 51.2837 175.951 53.4644C178.635 58.874 187.441 76.9902 186.141 81.0579C183.583 89.1934 173.686 89.6547 167.564 85.5031C161.399 81.3515 152.509 71.245 153.851 63.2773Z" fill="#FFA79B"/>
<path d="M174.229 48.9773C171.126 48.7257 167.31 51.8289 165.884 54.0095C160.223 55.3515 154.562 58.9999 153.849 63.2773C152.968 68.6031 156.658 74.8934 161.02 79.716C162.739 78.0386 162.613 75.9418 163.578 73.3837C168.946 68.4773 169.952 61.6418 169.197 58.8321C171.294 59.2515 176.2 56.1902 176.787 53.674C177.333 50.0257 175.152 49.0611 174.229 48.9773Z" fill="black"/>
<path d="M155.947 79.0449C155.654 75.8578 159.302 72.3352 163.621 73.4256C165.173 76.5707 166.809 79.632 168.528 82.6933C167.228 84.2449 163.789 85.9223 161.021 85.2933C157.876 84.5385 156.241 82.4836 155.947 79.0449Z" fill="#FFA79B"/>
<path d="M161.609 77.8706C162.658 78.3319 163.706 78.7513 164.754 79.2126C165.09 79.3803 164.838 79.8416 164.503 79.7158C164.419 79.6738 164.377 79.6738 164.293 79.6319C164.251 79.6319 164.251 79.59 164.209 79.59C163.245 79.1706 162.322 78.7932 161.358 78.3738C161.022 78.248 161.274 77.7448 161.609 77.8706Z" fill="#D24A43"/>
<path d="M171.213 67.8067C171.297 68.3519 171.381 68.8551 171.465 69.4003C171.549 69.9454 172.387 69.6938 172.304 69.1486C172.22 68.6035 172.136 68.1003 172.052 67.5551C171.926 67.0099 171.129 67.2616 171.213 67.8067Z" fill="black"/>
<path d="M178.549 63.4874C178.633 64.0325 178.717 64.5358 178.8 65.0809C178.884 65.6261 179.723 65.3745 179.639 64.8293C179.555 64.2841 179.471 63.7809 179.388 63.2358C179.304 62.6906 178.465 62.9422 178.549 63.4874Z" fill="black"/>
<path d="M179.809 68.8127C179.431 68.8546 179.473 69.3998 179.85 69.3998C180.647 69.3578 180.731 70.3224 180.396 70.8256C180.06 71.3708 179.431 71.6224 178.844 71.874C178.509 72.0417 178.676 72.5869 179.012 72.4191C179.934 71.9998 181.067 71.4546 181.15 70.3224C181.276 69.4836 180.647 68.7707 179.809 68.8127Z" fill="#D24A43"/>
<path d="M171.463 64.954C170.918 65.2475 170.415 65.583 169.87 65.8765C169.241 66.254 169.87 67.2185 170.499 66.8411C171.044 66.5475 171.547 66.212 172.093 65.9185C172.722 65.5411 172.093 64.6185 171.463 64.954Z" fill="#642421"/>
<path d="M177.836 60.3838C177.501 60.5096 177.124 60.6354 176.788 60.7612C176.075 61.0128 176.453 62.1032 177.166 61.8516C177.501 61.7257 177.878 61.5999 178.214 61.4741C178.885 61.1806 178.507 60.0903 177.836 60.3838Z" fill="#642421"/>
<path d="M180.479 78.4157C179.85 78.7511 179.095 78.6673 178.55 78.206C178.256 77.9544 177.879 78.4157 178.173 78.6253C178.927 79.2544 179.934 79.3382 180.815 78.877C181.15 78.7511 180.815 78.2479 180.479 78.4157Z" fill="#D24A43"/>
<path d="M184.715 99.3416C181.402 112.384 172.092 114.145 166.64 113.18C164.837 112.845 162.824 112.132 160.811 110.916C157.792 109.071 154.856 106.135 152.969 101.732C152.215 100.013 151.627 98.0415 151.25 95.8609C155.779 95.9448 160.853 96.1964 166.64 96.5738C174.189 97.4964 180.102 98.377 184.715 99.3416Z" fill="#FFA79B"/>
<path d="M268.411 125.803L248.073 172.519C247.779 173.19 248.786 173.777 249.079 173.106L269.418 126.39C269.711 125.719 268.705 125.132 268.411 125.803Z" fill="black"/>
<path d="M248.41 172.519H201.023C200.268 172.519 200.268 173.693 201.023 173.693H248.452C249.165 173.651 249.165 172.519 248.41 172.519Z" fill="black"/>
<path d="M253.779 144.843C248.159 146.436 244.637 151.972 245.391 157.717C245.475 158.472 246.608 158.136 246.524 157.423C245.853 152.307 249.124 147.359 254.072 145.975C254.785 145.765 254.491 144.675 253.779 144.843Z" fill="black"/>
<path d="M253.947 138.678C243.463 139.852 236.669 149.875 239.605 160.065C239.814 160.778 240.947 160.485 240.737 159.772C238.011 150.378 244.176 140.943 253.947 139.852C254.659 139.727 254.659 138.594 253.947 138.678Z" fill="black"/>
<path d="M265.438 176.419V346.845C265.438 349.445 269.505 349.445 269.505 346.845V176.419C269.463 173.777 265.438 173.777 265.438 176.419Z" fill="#EBF5F1"/>
<path d="M334.716 173.609H200.145C197.545 173.609 197.545 177.677 200.145 177.677H334.716C337.316 177.635 337.316 173.609 334.716 173.609Z" fill="#EBF5F1"/>
<path d="M113.17 250.855C104.783 209.968 96.3963 169.08 87.9672 128.193C87.464 125.635 83.5221 126.726 84.0672 129.284C92.4543 170.171 100.841 211.058 109.27 251.945C109.774 254.461 113.674 253.371 113.17 250.855Z" fill="#575552"/>
<path d="M197.083 249.554H111.493C108.893 249.554 108.893 253.622 111.493 253.622H197.083C199.683 253.622 199.683 249.554 197.083 249.554Z" fill="#575552"/>
<path d="M114.761 252.363C109.561 284.779 104.403 314.428 99.2034 346.844C98.784 349.402 102.684 350.492 103.103 347.934C108.303 315.518 113.461 285.87 118.661 253.454C119.081 250.896 115.181 249.805 114.761 252.363Z" fill="#575552"/>
<path d="M193.728 252.363C198.928 284.779 204.086 314.428 209.286 346.844C209.706 349.402 205.806 350.492 205.386 347.934C200.186 315.518 195.028 285.87 189.828 253.454C189.409 250.896 193.309 249.805 193.728 252.363Z" fill="#575552"/>
<path d="M254.706 108.106C253.993 116.494 253.28 124.881 252.568 133.31C252.526 134.065 253.658 134.065 253.742 133.31C254.455 124.923 255.168 116.535 255.88 108.106H254.706Z" fill="white"/>
<path d="M35.9818 348.539H530.386C531.205 348.539 531.205 349.825 530.386 349.825H35.9818C35.1636 349.883 35.1636 348.539 35.9818 348.539Z" fill="#E6DFD1"/>
<path d="M486.757 222.296C480.848 222.296 476 217.722 476 212.148C476 206.574 480.848 202 486.757 202C492.893 202 496.908 205.716 497.514 212.005C497.741 214.506 496.832 216.936 494.938 218.794C492.893 221.081 489.863 222.296 486.757 222.296ZM486.757 204.072C481.985 204.072 478.121 207.717 478.121 212.22C478.121 216.722 481.985 220.367 486.757 220.367C489.257 220.367 491.757 219.366 493.423 217.651C494.863 216.15 495.62 214.292 495.393 212.363C494.938 207.003 491.833 204.072 486.757 204.072Z" fill="#E6DFD1"/>
<path d="M24.6956 233.913C11.06 233.913 0 223.479 0 210.615C0 197.751 11.06 187.317 24.6956 187.317C39.013 187.317 48.0276 195.75 49.3912 210.544C49.9215 216.189 47.8761 221.692 43.5582 226.123C38.8615 230.983 31.7407 233.913 24.6956 233.913ZM24.6956 189.318C12.2721 189.318 2.1211 198.895 2.1211 210.615C2.1211 222.336 12.2721 231.912 24.6956 231.912C31.2104 231.912 37.6494 229.268 42.0431 224.765C45.9066 220.763 47.8004 215.761 47.3459 210.687C46.0581 197.108 37.8009 189.318 24.6956 189.318Z" fill="#E6DFD1"/>
<path d="M376.02 271.871C372.838 277.088 366.854 276.088 363.142 272.157C360.945 269.799 359.203 267.44 356.173 265.939C351.097 263.367 345.34 263.438 340.189 265.654C338.976 266.154 340.037 267.869 341.249 267.369C346.703 265.082 353.37 265.654 357.991 269.441C360.718 271.657 362.233 275.158 365.566 276.731C370.111 278.875 375.414 276.945 377.914 272.943C378.444 271.728 376.626 270.728 376.02 271.871Z" fill="#E6DFD1"/>
<path d="M373.367 282.448C370.185 287.665 364.2 286.665 360.488 282.734C358.292 280.376 356.549 278.017 353.519 276.517C348.444 273.944 342.686 274.015 337.535 276.231C336.323 276.731 337.384 278.446 338.596 277.946C344.05 275.659 350.716 276.231 355.337 280.018C358.064 282.234 359.579 285.736 362.913 287.308C367.458 289.452 372.761 287.522 375.26 283.52C375.866 282.377 374.048 281.376 373.367 282.448Z" fill="#E6DFD1"/>
<path d="M529.582 209.302C522.84 216.305 516.098 223.38 509.28 230.384C508.371 231.313 509.886 232.742 510.795 231.813C517.537 224.81 524.279 217.735 531.097 210.731C532.006 209.802 530.491 208.373 529.582 209.302Z" fill="#E6DFD1"/>
<path d="M60.4696 14.6986C52.8185 34.9234 20.472 28.7059 11.3058 48.1445C10.7756 49.288 12.5936 50.2885 13.1238 49.1451C22.29 29.7064 54.6367 36.0669 62.515 15.1989C62.9695 13.984 60.9241 13.4837 60.4696 14.6986Z" fill="#E6DFD1"/>
<path d="M67.8202 29.5629C60.1691 49.7877 27.8225 43.5702 18.6564 63.0088C18.1261 64.1523 19.9442 65.1528 20.4745 64.0094C29.6406 44.5707 61.9871 50.9312 69.8655 30.0632C70.32 28.8483 68.2747 28.348 67.8202 29.5629Z" fill="#E6DFD1"/>
<path d="M434.562 137.414C432.137 140.487 429.638 143.56 427.213 146.633C426.38 147.634 428.198 148.635 429.032 147.634C431.456 144.561 433.956 141.488 436.38 138.415C437.137 137.414 435.319 136.414 434.562 137.414Z" fill="#E6DFD1"/>
<path d="M467.05 25.0904C463.186 26.6627 459.323 28.1634 455.535 29.7357C454.323 30.2359 455.384 31.9511 456.596 31.4509C460.459 29.8786 464.323 28.3779 468.11 26.8056C469.322 26.3054 468.262 24.5902 467.05 25.0904Z" fill="#E6DFD1"/>
<path d="M473.114 31.236C467.736 33.5229 462.357 35.7383 456.979 38.0252C455.767 38.5255 456.827 40.2406 458.039 39.7404C463.418 37.4535 468.796 35.238 474.175 32.9511C475.387 32.4509 474.326 30.7357 473.114 31.236Z" fill="#E6DFD1"/>
<path d="M196.513 312.872C187.802 308.727 179.014 304.654 170.303 300.509C169.091 299.937 168.03 301.652 169.242 302.224C177.954 306.369 186.741 310.442 195.453 314.587C196.665 315.159 197.726 313.444 196.513 312.872Z" fill="#E6DFD1"/>
<path d="M71.7329 280.419C69.4603 282.92 67.1877 285.35 64.9151 287.852C64.006 288.781 65.5211 290.21 66.4301 289.281C68.7028 286.78 70.9754 284.35 73.248 281.848C74.0813 280.919 72.5662 279.49 71.7329 280.419Z" fill="#E6DFD1"/>
</svg>
