<svg width="130" height="130" viewBox="0 0 130 130" fill="none" xmlns="http://www.w3.org/2000/svg">
<path fill-rule="evenodd" clip-rule="evenodd" d="M75.8333 37.9167C75.8333 31.9421 70.9746 27.0833 65 27.0833C59.0254 27.0833 54.1666 31.9421 54.1666 37.9167C54.1666 43.8913 59.0254 48.75 65 48.75C70.9746 48.75 75.8333 43.8913 75.8333 37.9167ZM86.6667 37.9167C86.6667 49.8658 76.9492 59.5833 65 59.5833C53.0508 59.5833 43.3333 49.8658 43.3333 37.9167C43.3333 25.9675 53.0508 16.25 65 16.25C76.9492 16.25 86.6667 25.9675 86.6667 37.9167ZM27.0833 108.333C27.0833 87.425 44.0971 70.4167 65 70.4167C85.9029 70.4167 102.917 87.425 102.917 108.333C102.917 111.323 100.495 113.75 97.5 113.75C94.5046 113.75 92.0833 111.323 92.0833 108.333C92.0833 93.3996 79.9337 81.25 65 81.25C50.0662 81.25 37.9166 93.3996 37.9166 108.333C37.9166 111.323 35.4954 113.75 32.5 113.75C29.5046 113.75 27.0833 111.323 27.0833 108.333Z" fill="#E6DFD1"/>
<mask id="mask0" mask-type="alpha" maskUnits="userSpaceOnUse" x="27" y="16" width="76" height="98">
<path fill-rule="evenodd" clip-rule="evenodd" d="M75.8333 37.9167C75.8333 31.9421 70.9746 27.0833 65 27.0833C59.0254 27.0833 54.1666 31.9421 54.1666 37.9167C54.1666 43.8913 59.0254 48.75 65 48.75C70.9746 48.75 75.8333 43.8913 75.8333 37.9167ZM86.6667 37.9167C86.6667 49.8658 76.9492 59.5833 65 59.5833C53.0508 59.5833 43.3333 49.8658 43.3333 37.9167C43.3333 25.9675 53.0508 16.25 65 16.25C76.9492 16.25 86.6667 25.9675 86.6667 37.9167ZM27.0833 108.333C27.0833 87.425 44.0971 70.4167 65 70.4167C85.9029 70.4167 102.917 87.425 102.917 108.333C102.917 111.323 100.495 113.75 97.5 113.75C94.5046 113.75 92.0833 111.323 92.0833 108.333C92.0833 93.3996 79.9337 81.25 65 81.25C50.0662 81.25 37.9166 93.3996 37.9166 108.333C37.9166 111.323 35.4954 113.75 32.5 113.75C29.5046 113.75 27.0833 111.323 27.0833 108.333Z" fill="white"/>
</mask>
<g mask="url(#mask0)">
</g>
</svg>
