<svg width="452" height="518" viewBox="0 0 452 518" fill="none" xmlns="http://www.w3.org/2000/svg">
<path d="M310.976 353.89C307.533 353.89 304.707 351.056 304.707 347.602C304.707 344.148 307.533 341.315 310.976 341.315C314.552 341.315 316.892 343.617 317.245 347.513C317.378 349.063 316.848 350.569 315.744 351.72C314.552 353.137 312.786 353.89 310.976 353.89ZM310.976 342.599C308.195 342.599 305.943 344.857 305.943 347.646C305.943 350.436 308.195 352.694 310.976 352.694C312.433 352.694 313.89 352.074 314.861 351.011C315.7 350.082 316.142 348.93 316.009 347.735C315.744 344.414 313.934 342.599 310.976 342.599Z" fill="#E6DFD1"/>
<path d="M283.839 164.178C278.277 164.178 273.729 159.618 273.729 154.039C273.729 148.46 278.277 143.899 283.839 143.899C289.711 143.899 293.376 147.574 293.949 153.994C294.17 156.474 293.331 158.865 291.565 160.813C289.623 162.938 286.709 164.178 283.839 164.178ZM283.839 145.139C278.939 145.139 274.966 149.124 274.966 154.039C274.966 158.953 278.939 162.938 283.839 162.938C286.4 162.938 288.961 161.832 290.682 159.928C292.184 158.289 292.934 156.208 292.757 154.083C292.228 148.327 289.049 145.139 283.839 145.139Z" fill="#E6DFD1"/>
<path d="M325.193 431.835C323.339 435.067 319.851 434.448 317.688 432.012C316.408 430.551 315.392 429.09 313.626 428.16C310.668 426.566 307.313 426.61 304.311 427.983C303.605 428.293 304.223 429.356 304.929 429.046C308.108 427.629 311.993 427.983 314.686 430.33C316.275 431.702 317.158 433.872 319.101 434.846C321.75 436.174 324.84 434.979 326.297 432.499C326.606 431.747 325.546 431.127 325.193 431.835Z" fill="#E6DFD1"/>
<path d="M323.646 438.389C321.792 441.621 318.304 441.001 316.141 438.566C314.861 437.105 313.845 435.643 312.079 434.714C309.121 433.12 305.766 433.164 302.764 434.537C302.058 434.846 302.676 435.909 303.382 435.599C306.561 434.182 310.446 434.537 313.139 436.883C314.728 438.256 315.611 440.425 317.554 441.4C320.203 442.728 323.293 441.532 324.75 439.053C325.103 438.344 324.044 437.724 323.646 438.389Z" fill="#E6DFD1"/>
<path d="M322.543 360.797C318.614 365.136 314.685 369.52 310.711 373.859C310.181 374.435 311.064 375.32 311.594 374.745C315.523 370.405 319.453 366.022 323.426 361.683C323.956 361.107 323.073 360.221 322.543 360.797Z" fill="#E6DFD1"/>
<path d="M424.99 348.066C420.531 360.597 401.68 356.744 396.338 368.788C396.029 369.496 397.089 370.116 397.398 369.408C402.74 357.364 421.591 361.305 426.182 348.376C426.447 347.623 425.255 347.313 424.99 348.066Z" fill="#E6DFD1"/>
<path d="M429.273 357.275C424.814 369.806 405.962 365.954 400.62 377.998C400.311 378.706 401.371 379.326 401.68 378.618C407.022 366.574 425.873 370.515 430.465 357.585C430.73 356.833 429.538 356.523 429.273 357.275Z" fill="#E6DFD1"/>
<path d="M368.214 426.193C362.518 420.038 356.867 413.884 351.172 407.729C350.643 407.153 349.76 408.039 350.289 408.614C355.985 414.769 361.636 420.924 367.331 427.078C367.905 427.61 368.743 426.769 368.214 426.193Z" fill="#E6DFD1"/>
<path d="M255.541 304.673C254.128 306.577 252.671 308.481 251.258 310.385C250.773 311.005 251.832 311.625 252.318 311.005C253.731 309.101 255.187 307.197 256.6 305.293C257.042 304.673 255.982 304.053 255.541 304.673Z" fill="#E6DFD1"/>
<path d="M303.265 251.141C301.013 252.115 298.762 253.045 296.554 254.019C295.848 254.329 296.466 255.391 297.172 255.081C299.424 254.107 301.675 253.177 303.883 252.203C304.589 251.893 303.971 250.831 303.265 251.141Z" fill="#E6DFD1"/>
<path d="M306.799 254.949C303.664 256.366 300.529 257.738 297.395 259.155C296.689 259.465 297.307 260.528 298.013 260.218C301.148 258.801 304.282 257.428 307.417 256.011C308.123 255.701 307.505 254.639 306.799 254.949Z" fill="#E6DFD1"/>
<path d="M264.812 156.917C263.487 158.555 262.163 160.193 260.838 161.832C260.353 162.451 261.191 163.293 261.721 162.717C263.046 161.079 264.37 159.441 265.694 157.802C266.18 157.182 265.341 156.297 264.812 156.917Z" fill="#E6DFD1"/>
<path d="M187.995 101.259C183.007 100.639 178.194 102.454 174.839 106.174C174.309 106.749 175.192 107.635 175.722 107.059C178.901 103.561 183.316 101.923 187.995 102.499C188.746 102.587 188.746 101.348 187.995 101.259Z" fill="#E6DFD1"/>
<path d="M190.111 105.244C185.122 104.624 180.31 106.44 176.954 110.159C176.425 110.735 177.308 111.62 177.837 111.045C181.016 107.547 185.431 105.908 190.111 106.484C190.905 106.572 190.905 105.333 190.111 105.244Z" fill="#E6DFD1"/>
<path d="M80.828 420.698C72.8812 420.698 66.4355 414.233 66.4355 406.263C66.4355 398.293 72.8812 391.829 80.828 391.829C89.1721 391.829 94.4257 397.053 95.2204 406.219C95.5294 409.717 94.3374 413.126 91.821 415.872C89.0838 418.883 84.9338 420.698 80.828 420.698ZM80.828 393.068C73.5876 393.068 67.6717 399.002 67.6717 406.263C67.6717 413.525 73.5876 419.458 80.828 419.458C84.6248 419.458 88.3774 417.82 90.938 415.03C93.1896 412.551 94.2933 409.451 94.0284 406.308C93.2779 397.895 88.4657 393.068 80.828 393.068Z" fill="#E6DFD1"/>
<path d="M75.5716 157.199C73.8057 159.501 72.0398 161.848 70.2738 164.15C69.7882 164.77 70.8478 165.39 71.3334 164.77C73.0993 162.468 74.8653 160.121 76.6312 157.818C77.1168 157.154 76.0573 156.579 75.5716 157.199Z" fill="#E6DFD1"/>
<path d="M78.0451 162.069L73.542 168.622C73.1005 169.287 74.1601 169.906 74.6016 169.242C76.1026 167.073 77.6036 164.903 79.1047 162.689C79.5462 162.069 78.4866 161.449 78.0451 162.069Z" fill="#E6DFD1"/>
<path d="M92.8308 111.725C89.2989 107.518 85.7228 103.312 82.1909 99.1055C81.6612 98.4856 80.8223 99.3712 81.308 99.9911L91.9478 112.61C92.4776 113.186 93.3164 112.3 92.8308 111.725Z" fill="#E6DFD1"/>
<path d="M52.7464 457.228C47.6694 454.659 42.5481 452.136 37.471 449.567C36.7646 449.213 36.1466 450.276 36.8529 450.63C41.93 453.198 47.0513 455.722 52.1284 458.29C52.8347 458.644 53.4528 457.582 52.7464 457.228Z" fill="#E6DFD1"/>
<path d="M125.724 427.207C124.399 428.757 123.075 430.262 121.75 431.812C121.22 432.388 122.103 433.273 122.633 432.697C123.958 431.148 125.282 429.642 126.607 428.093C127.092 427.517 126.209 426.631 125.724 427.207Z" fill="#E6DFD1"/>
<path d="M33.2565 238.425C31.4906 248.034 19.2172 246.218 12.1535 247.015C7.12053 247.591 1.911 250.026 0.409948 255.251C0.189205 256.004 1.38122 256.314 1.60196 255.561C4.25087 246.351 16.171 248.565 23.2789 247.591C28.2677 246.882 33.4331 244.093 34.4044 238.735C34.581 237.982 33.4331 237.673 33.2565 238.425Z" fill="#E6DFD1"/>
<path d="M36.3483 244.58C34.5824 254.189 22.309 252.373 15.2453 253.17C10.2123 253.746 5.0028 256.181 3.50174 261.406C3.281 262.159 4.47301 262.469 4.69376 261.716C7.34267 252.506 19.2628 254.72 26.3707 253.746C31.3595 253.037 36.5249 250.248 37.4962 244.89C37.6286 244.137 36.4807 243.783 36.3483 244.58Z" fill="#E6DFD1"/>
<mask id="mask0" mask-type="alpha" maskUnits="userSpaceOnUse" x="-21" y="0" width="457" height="518">
<rect x="-20.1035" y="0.5" width="456.103" height="517" fill="#C4C4C4"/>
</mask>
<g mask="url(#mask0)">
<path d="M44.5352 274.646C48.6636 259.521 58.9847 244.655 66.4675 237.416C74.0793 230.176 76.2725 289.771 76.2725 289.771L44.5352 274.646Z" fill="#FFA79B"/>
<path d="M170.839 768.207C182.45 724.126 189.03 669.056 186.966 644.752C186.966 644.752 262.568 386.854 286.177 304.767C282.565 304.12 279.081 303.603 275.469 302.957C257.02 299.854 238.571 296.881 220.251 293.391C206.189 290.805 180.773 286.539 166.71 284.342C130.458 394.999 116.653 571.455 112.525 600.412C109.815 619.157 99.6234 703.442 98.0752 756.056C117.814 760.839 150.584 765.234 170.839 768.207Z" fill="#E64825"/>
<path d="M419.962 748.3C399.062 671.124 380.871 630.532 380.871 630.532C374.033 573.006 335.458 357.251 335.458 357.251L330.039 311.876C311.849 308.903 293.787 305.93 275.596 302.957C257.147 299.854 238.698 296.881 220.378 293.391C218.314 293.003 216.379 292.615 214.314 292.227L183.996 348.719C183.996 348.719 266.694 554.003 290.045 628.076C306.043 678.751 337.393 737.699 351.714 773.249C371.066 767.173 400.997 755.927 419.962 748.3Z" fill="#E64825"/>
<path d="M232.249 471.915C227.862 453.042 223.476 434.168 218.96 415.165C218.831 414.777 218.831 414.519 218.702 414.131C218.702 413.872 218.702 413.614 218.831 413.484C219.347 413.614 219.734 413.872 220.25 414.001C220.379 414.648 220.508 415.165 220.637 415.811C224.895 434.426 229.281 452.912 233.668 471.528C233.926 472.432 232.507 472.82 232.249 471.915Z" fill="black"/>
<path d="M220.767 415.811C220.251 415.553 219.606 415.424 219.09 415.165C214.058 413.355 209.156 411.416 204.124 409.606C203.221 409.219 203.608 407.796 204.511 408.184L218.961 413.614C219.477 413.743 219.864 414.002 220.38 414.131C220.509 414.648 220.638 415.165 220.767 415.811Z" fill="black"/>
<path d="M349.781 170.969C347.846 208.071 334.429 350.141 334.429 350.141L234.443 340.058L185.418 294.812L162.841 215.439L151.358 174.848C155.1 111.375 168.904 99.999 225.928 105.428C227.864 105.558 229.928 105.816 231.992 106.075C235.088 106.463 238.443 106.85 241.797 107.238C250.441 108.272 259.859 109.694 270.309 111.116C270.309 111.116 273.018 112.926 277.534 115.77C296.757 128.18 347.975 161.145 349.781 162.308C350.169 162.567 350.039 165.669 349.781 170.969Z" fill="#39B54A"/>
<path d="M331.719 178.08C311.722 225.393 303.336 251.506 282.952 298.561C340.879 306.964 346.556 221.127 331.719 178.08Z" fill="black"/>
<path d="M264.894 172.402H66.4707V370.576H264.894V172.402Z" fill="#E6DFD1"/>
<path d="M264.893 202.005H66.4697V204.978H264.893V202.005Z" fill="white"/>
<path d="M84.4041 194.12C88.1805 194.12 91.2418 191.052 91.2418 187.268C91.2418 183.484 88.1805 180.417 84.4041 180.417C80.6277 180.417 77.5664 183.484 77.5664 187.268C77.5664 191.052 80.6277 194.12 84.4041 194.12Z" fill="#FECA55"/>
<path d="M104.658 194.12C108.435 194.12 111.496 191.052 111.496 187.268C111.496 183.484 108.435 180.417 104.658 180.417C100.882 180.417 97.8203 183.484 97.8203 187.268C97.8203 191.052 100.882 194.12 104.658 194.12Z" fill="white"/>
<path d="M193.032 303.742H96.0139C94.0787 303.742 94.0787 306.716 96.0139 306.716H193.032C194.967 306.845 194.967 303.742 193.032 303.742Z" fill="black"/>
<path d="M193.032 320.419H96.0139C94.0787 320.419 94.0787 323.392 96.0139 323.392H193.032C194.967 323.521 194.967 320.419 193.032 320.419Z" fill="black"/>
<path d="M230.189 218.035H94.5957V287.842H230.189V218.035Z" fill="#BAB5AB"/>
<path d="M222.318 343.041H186.969V357.778H222.318V343.041Z" fill="white"/>
<path d="M215.612 224.887C212.129 227.213 208.516 229.411 205.033 231.738C203.356 232.772 204.904 235.487 206.581 234.323C210.064 231.997 213.677 229.799 217.16 227.472C218.837 226.438 217.289 223.852 215.612 224.887Z" fill="white"/>
<path d="M87.3687 292.486C91.1101 293.52 96.0126 288.866 92.4003 285.376C88.2718 281.498 71.7581 264.304 66.5976 261.977C43.3751 251.765 40.5368 288.478 41.4399 296.235C42.8591 309.42 48.5356 321.701 57.1795 331.526C57.4375 332.302 63.7592 337.86 66.8555 340.058C69.1778 341.609 72.9192 339.929 73.4353 337.085C76.1445 337.989 82.8533 334.111 81.4341 330.104C82.4662 329.458 85.3045 328.553 85.9496 326.484C86.8527 323.899 86.0785 321.313 84.9174 318.728C85.6915 318.34 86.3366 317.952 86.9817 317.177C90.8521 312.911 84.6594 307.998 80.0149 301.535C76.5316 296.622 75.3705 290.03 72.1451 286.927C73.1772 286.539 74.0803 286.151 74.9834 285.505C78.4668 288.737 82.5952 291.193 87.3687 292.486Z" fill="#FFA79B"/>
<path d="M83.1099 316.918C75.6271 310.972 69.6924 303.603 65.435 295.071C65.0479 294.166 63.6288 294.942 64.1448 295.847C68.5313 304.508 74.595 311.877 82.0778 317.952C82.8518 318.599 83.8839 317.565 83.1099 316.918Z" fill="#E37E71"/>
<path d="M80.0174 326.742C72.1476 322.089 65.955 315.496 61.8266 307.351C61.4395 306.447 60.0204 307.222 60.5364 308.127C64.6649 316.53 71.1155 323.381 79.2434 328.035C80.0175 328.552 80.7915 327.259 80.0174 326.742Z" fill="#E37E71"/>
<path d="M71.4984 333.594C65.8218 329.845 61.1773 325.062 57.6939 319.115C57.1778 318.211 55.8877 318.986 56.4037 319.891C60.0161 325.967 64.7896 331.138 70.7243 334.887C71.4984 335.404 72.2725 334.111 71.4984 333.594Z" fill="#E37E71"/>
<path d="M87.7561 205.227C83.8857 200.832 79.4992 192.558 74.4677 191.524C62.2114 189.068 51.6323 190.231 50.0841 191.653C48.1489 193.592 49.5681 196.695 51.7614 198.634C54.8577 201.349 61.9534 199.022 63.5016 203.934C63.5016 204.064 63.5015 204.064 63.6305 204.193C59.8891 203.417 56.7929 203.159 54.4706 203.676C46.2137 205.486 48.407 222.291 50.8582 237.416C55.3737 264.304 106.979 268.958 106.979 268.958C106.979 268.958 88.1431 205.356 87.7561 205.227Z" fill="#FFA79B"/>
<path d="M349.783 170.969C348.235 182.345 343.848 196.048 336.236 212.724C300.242 290.676 293.791 322.218 266.053 324.674C250.055 326.096 226.962 317.823 186.967 303.086C147.102 288.349 116.397 277.102 93.4326 268.57C90.4653 247.628 89.4331 226.427 87.627 205.227C103.883 207.295 133.814 211.302 162.842 215.439C193.16 219.834 222.317 224.359 233.154 227.203L294.565 146.796L275.342 118.485L270.31 111.116C273.536 111.504 276.761 112.021 279.857 112.409C321.013 118.356 355.846 127.146 349.783 170.969Z" fill="#39B54A"/>
<path d="M244.38 238.062L236.769 230.435C236.123 229.788 234.962 230.822 235.736 231.469C238.317 234.054 240.768 236.51 243.348 239.096C243.993 239.871 245.025 238.708 244.38 238.062Z" fill="black"/>
<path d="M271.855 172.521C269.92 175.365 268.113 178.338 266.178 181.182C265.662 181.958 266.952 182.733 267.468 181.958C269.404 179.114 271.21 176.14 273.145 173.296C273.79 172.521 272.5 171.745 271.855 172.521Z" fill="black"/>
<path d="M54.6007 217.378C53.5686 215.698 52.6655 213.888 51.6334 212.207C51.1173 211.302 49.8271 212.078 50.3432 212.983C51.3753 214.663 52.2784 216.473 53.3105 218.154C53.6976 219.059 54.9877 218.283 54.6007 217.378Z" fill="#E37E71"/>
<path d="M54.7299 231.211C53.9558 230.047 53.1817 228.884 52.5367 227.72C52.0206 226.945 50.7305 227.72 51.2465 228.496C52.0206 229.659 52.7947 230.823 53.4398 231.986C53.9558 232.891 55.246 232.115 54.7299 231.211Z" fill="#E37E71"/>
<path d="M55.8885 240.776L53.8243 238.062C53.1793 237.286 51.8891 238.062 52.5342 238.837L54.5984 241.552C55.2435 242.328 56.5336 241.552 55.8885 240.776Z" fill="#E37E71"/>
<path d="M69.176 205.356C67.7568 204.839 66.3377 204.322 65.0475 203.934C64.1444 203.676 63.7574 205.098 64.6605 205.356C66.0797 205.873 67.4987 206.39 68.7889 206.778C69.692 207.037 70.0791 205.615 69.176 205.356Z" fill="#E37E71"/>
<path d="M277.794 113.702L263.215 58.2444L227.736 68.3277C228.381 69.1033 231.22 99.7408 233.026 118.873C238.186 118.485 270.44 114.219 277.794 113.702Z" fill="#FFA79B"/>
<path d="M251.862 64.4495C251.991 63.0275 251.991 61.7347 251.991 60.3127L227.736 68.3276C228.123 68.7154 229.155 78.6694 230.317 90.5624C240.122 83.8403 248.25 74.9205 251.862 64.4495Z" fill="black"/>
<path d="M290.566 40.0171C291.985 28.8996 276.891 14.9383 263.86 11.4479C258.184 9.89667 257.539 5.11359 254.184 8.60393C245.928 17.2652 219.48 43.6367 218.835 55.2712C217.932 72.2058 237.542 78.7987 251.604 74.5327C265.667 70.1375 288.502 55.9175 290.566 40.0171Z" fill="#FFA79B"/>
<path d="M259.99 0.97677C266.053 2.26949 271.472 10.4136 272.891 15.4552C282.825 21.2725 291.598 31.485 290.437 40.1462C289.018 50.7465 278.439 60.7005 267.344 67.2934C265.021 63.1567 271.988 55.4004 271.601 49.9709C264.247 37.4315 265.537 32.3899 268.634 27.4776C264.376 27.0898 251.991 13.6454 252.378 8.60382C253.41 1.10603 258.184 0.588954 259.99 0.97677Z" fill="#322E28"/>
<path d="M282.953 64.9666C285.275 59.0201 280.373 50.2296 271.6 49.8418C266.827 54.8834 261.924 59.7957 257.021 64.7081C258.57 68.457 264.246 73.6279 269.794 74.0157C276.116 74.2742 280.502 71.4302 282.953 64.9666Z" fill="#FFA79B"/>
<path d="M276.504 60.0543C274.44 59.6665 272.505 59.408 270.44 59.0202C269.537 58.8909 269.021 60.3129 270.053 60.4422C272.118 60.83 274.053 61.0885 276.117 61.4763C277.149 61.6056 277.536 60.1836 276.504 60.0543Z" fill="#E37E71"/>
<path d="M241.929 23.7286C240.896 24.892 239.735 25.9262 238.703 27.0896C238.058 27.736 239.09 28.8994 239.735 28.1238C240.767 26.9604 241.929 25.9262 242.961 24.7627C243.735 24.1164 242.574 22.9529 241.929 23.7286Z" fill="black"/>
<path d="M254.312 35.1045C253.28 36.268 252.119 37.3022 251.087 38.4656C250.442 39.112 251.474 40.2754 252.119 39.4998C253.151 38.3363 254.312 37.3022 255.344 36.1387C255.99 35.4923 254.957 34.3289 254.312 35.1045Z" fill="black"/>
<path d="M240.251 39.5C239.219 39.1121 237.799 38.7243 237.154 37.6902C236.767 36.9145 236.896 35.8803 237.799 35.7511C238.703 35.6218 238.315 34.1998 237.412 34.3291C235.864 34.5876 235.219 36.2682 235.477 37.6902C235.864 39.6292 238.057 40.4049 239.735 40.922C240.767 41.3098 241.154 39.8878 240.251 39.5Z" fill="#E37E71"/>
<path d="M246.185 59.7955C245.153 61.3467 242.959 61.9931 241.153 61.2175C240.25 60.8297 239.476 62.1224 240.379 62.5102C242.959 63.6737 245.927 62.7687 247.475 60.4418C247.991 59.7955 246.701 59.0198 246.185 59.7955Z" fill="#E37E71"/>
<path d="M279.858 112.409C279.084 113.573 278.439 114.607 277.535 115.771C276.761 116.675 276.116 117.58 275.342 118.485C269.924 124.69 262.957 129.473 254.958 131.93C246.185 134.515 236.122 133.739 229.671 126.629C224.253 120.683 223.092 112.539 225.93 105.429C227.865 105.558 243.089 105.946 243.089 105.946C251.733 106.98 259.99 109.565 270.311 111.117C273.536 111.505 276.632 111.892 279.858 112.409Z" fill="#FFA79B"/>
<path d="M260.636 31.7435L259.475 29.4166C258.572 27.6068 255.992 29.1581 256.895 30.9679L258.056 33.2948C258.83 34.9753 261.539 33.5533 260.636 31.7435Z" fill="#322E28"/>
<path d="M246.702 19.8506C245.799 19.2042 244.896 18.5579 243.993 17.9115C243.348 17.3944 242.316 17.7822 241.929 18.4286C241.542 19.2042 241.8 19.9798 242.445 20.4969C243.348 21.1433 244.251 21.7897 245.154 22.436C245.799 22.9531 246.831 22.5653 247.218 21.9189C247.735 21.2725 247.476 20.3677 246.702 19.8506Z" fill="#322E28"/>
</g>
<path fill-rule="evenodd" clip-rule="evenodd" d="M299.447 221.898C298.792 221.899 298.177 221.644 297.714 221.181C297.251 220.717 296.995 220.102 296.995 219.447V213.528L301.181 217.713C301.644 218.176 301.899 218.792 301.899 219.447C301.899 220.799 300.799 221.898 299.447 221.898ZM294.895 217.37L290.63 213.105H294.895V217.37ZM293.345 220.595C293.15 220.79 292.936 220.966 292.706 221.121L286.879 215.294C287.033 215.064 287.209 214.85 287.405 214.654L288.307 213.752L294.248 219.692L293.345 220.594V220.595ZM290.375 221.825H286.175V217.624C286.175 217.604 286.177 217.584 286.178 217.563L290.437 221.822C290.416 221.822 290.396 221.825 290.375 221.825ZM286.101 208.552C286.101 207.201 287.201 206.101 288.553 206.101C289.208 206.101 289.824 206.356 290.287 206.819L294.472 211.004L288.553 211.004C287.898 211.004 287.282 210.749 286.819 210.286C286.356 209.823 286.101 209.207 286.101 208.552ZM302.666 216.228L299.543 213.105H300.25V213.105C300.905 213.105 301.52 213.36 301.984 213.823L303.47 212.337C302.61 211.478 301.466 211.004 300.25 211.004V207.75L296.996 207.749C296.996 206.533 296.522 205.39 295.662 204.53L294.177 206.016C294.64 206.479 294.895 207.095 294.895 207.75H294.895V208.457L291.771 205.333C290.912 204.473 289.768 204 288.553 204C286.042 204 284 206.042 284 208.552C284 209.768 284.474 210.911 285.334 211.771C285.67 212.107 286.058 212.389 286.483 212.606L285.92 213.169C284.73 214.359 284.075 215.941 284.074 217.624V223.926H290.375C292.058 223.926 293.64 223.27 294.83 222.08L295.394 221.517C295.609 221.94 295.891 222.328 296.228 222.666C297.089 223.526 298.232 224 299.447 224C301.958 224 304 221.958 304 219.447C304 218.231 303.526 217.088 302.666 216.228Z" fill="white"/>
<line x1="83" y1="517" x2="433" y2="517" stroke="#81766F"/>
</svg>
