<svg width="246" height="55" viewBox="0 0 246 55" fill="none" xmlns="http://www.w3.org/2000/svg">
<path fill-rule="evenodd" clip-rule="evenodd" d="M90.1754 43.1484V15.5242H75.4331V43.1484H69.788V10.3108H95.8192V43.1484H90.1754ZM145.106 43.8993C135.7 43.8993 128.606 36.5122 128.606 26.7168C128.606 16.9213 135.76 9.53428 145.248 9.53428C150.917 9.53428 155.309 11.7258 158.301 16.0492L158.478 16.3033L154.125 19.4607L153.947 19.2149C151.774 16.1923 149.048 14.8459 145.106 14.8459C138.926 14.8459 134.441 19.838 134.441 26.7168C134.441 33.5955 139.006 38.5876 145.294 38.5876C149.286 38.5876 152.263 37.1052 154.66 33.9241L154.834 33.6899L159.242 36.794L159.049 37.0545C155.581 41.7886 151.28 43.8993 145.106 43.8993ZM163.569 43.1484V10.3108H184.563V15.5281H169.213V24.7434H182.821V29.8632H169.213V37.9317H185.222V43.1484H163.569ZM231.403 21.7728C232.791 25.1997 235.518 31.9405 236.188 33.6571H226.541L231.403 21.7728ZM222.692 43.1542L224.405 38.8713H238.309L240.021 43.1542H246L231.791 9.2917H231.108L216.947 43.1542H222.692ZM41.3747 49.2205C39.6211 49.2218 37.9724 48.5198 36.7318 47.2465C35.4913 45.9727 34.8078 44.2792 34.8078 42.4784V26.2008L46.0188 37.7104C47.258 38.9842 47.9416 40.6771 47.9416 42.4784C47.9416 46.196 44.9967 49.2205 41.3747 49.2205ZM29.1825 36.7664L17.7581 25.038H29.1825V36.7664ZM25.0309 45.6352C24.5088 46.1728 23.9351 46.6573 23.3182 47.0816L7.71163 31.0581C8.1231 30.4272 8.59509 29.8382 9.12084 29.2998L11.5368 26.8182L27.4481 43.1536L25.0309 45.6339V45.6352ZM17.0759 49.0184H5.82525V37.4671C5.82525 37.4107 5.83228 37.3548 5.83355 37.2977L17.2407 49.0107C17.1857 49.0107 17.1308 49.0184 17.0759 49.0184ZM5.62786 12.519C5.62786 8.80141 8.57402 5.77755 12.1948 5.77755C13.9483 5.77755 15.5983 6.47769 16.8382 7.75153L28.0492 19.2624L12.1954 19.2611C10.4412 19.2624 8.79185 18.5609 7.5513 17.2871C6.31074 16.0132 5.62786 14.3203 5.62786 12.519ZM49.9966 33.6283L41.6302 25.038H43.5242V25.0399C45.2784 25.0399 46.9278 25.7407 48.1683 27.0139L52.1487 22.928C49.8452 20.5638 46.7828 19.2624 43.5261 19.2624V10.3114L34.8084 10.3095C34.8084 6.96605 33.541 3.82282 31.2375 1.45738L27.2577 5.5446C28.4989 6.81845 29.1812 8.51135 29.1812 10.3127H29.1831V12.2559L20.8154 3.66624C18.5132 1.30208 15.4495 5.50005e-08 12.1948 5.50005e-08C5.47071 -0.000641681 0 5.61455 0 12.5183C0 15.8624 1.26866 19.0063 3.57219 21.3705C4.47188 22.2938 5.51101 23.0687 6.65122 23.6666L5.14237 25.2145C1.95474 28.488 0.199945 32.8389 0.198668 37.4671V54.7953H17.0759C21.5833 54.7953 25.8211 52.992 29.0087 49.7192L30.5176 48.1706C31.0951 49.3347 31.8494 50.4014 32.7534 51.3325C35.0575 53.6966 38.1193 54.9987 41.3753 55C48.0987 54.9994 53.5681 49.3835 53.5694 42.4804C53.5694 39.1363 52.3001 35.9924 49.9966 33.6283ZM114.094 21.7728C115.483 25.1984 118.209 31.9405 118.879 33.6571H109.232L114.094 21.7728ZM105.385 43.1542L107.095 38.8713H121L122.712 43.1542H128.691L114.482 9.2917H113.8L99.638 43.1542H105.385ZM214.365 10.3114H207.893L196.129 25.6701V10.3108H190.485V43.1484H196.129V33.4999L199.345 29.4493L209.198 43.1542H216.075L203.035 25.0316L214.365 10.3114Z" fill="#39B54A"/>
</svg>
