<svg width="20" height="20" viewBox="0 0 20 20" fill="none" xmlns="http://www.w3.org/2000/svg">
<path d="M0 10C0 4.47715 4.47715 0 10 0C15.5228 0 20 4.47715 20 10C20 15.5228 15.5228 20 10 20C4.47715 20 0 15.5228 0 10Z" fill="#E6DFD1"/>
<path fill-rule="evenodd" clip-rule="evenodd" d="M13.0252 7.29974C12.8268 7.14015 12.5397 7.17655 12.3838 7.37954L9.15878 11.5832L7.61416 9.62461C7.45508 9.42442 7.168 9.39175 6.97144 9.55368C6.77442 9.71561 6.74379 10.0096 6.9015 10.2098L8.80726 12.6261C8.89457 12.7363 9.0253 12.8002 9.16381 12.8002H9.16701C9.30598 12.7993 9.43763 12.7335 9.52357 12.621L13.1033 7.95446C13.2592 7.75193 13.2245 7.45841 13.0252 7.29974Z" fill="#81766F" stroke="#81766F" stroke-width="0.516667"/>
</svg>
