<svg width="16" height="16" viewBox="0 0 16 16" fill="none" xmlns="http://www.w3.org/2000/svg">
<path d="M15.5312 0C15.2725 0 15.0625 0.209839 15.0625 0.46875V1.25513H0.9375V0.46875C0.9375 0.209839 0.727661 0 0.46875 0C0.209839 0 0 0.209839 0 0.46875V15.5312C0 15.7902 0.209839 16 0.46875 16C0.727661 16 0.9375 15.7902 0.9375 15.5312V9.72388H15.0625V15.5312C15.0625 15.7902 15.2725 16 15.5312 16C15.7902 16 16 15.7902 16 15.5312V0.46875C16 0.209839 15.7902 0 15.5312 0ZM15.0625 5.02075H12.2344V2.19263H15.0625V5.02075ZM7.53125 5.02075H4.70312V2.19263H7.53125V5.02075ZM0.9375 5.95825H3.76562V8.78638H0.9375V5.95825ZM8.46875 5.95825H11.2969V8.78638H8.46875V5.95825Z" fill="#81766F"/>
</svg>
