<svg width="125" height="37" viewBox="0 0 125 37" fill="none" xmlns="http://www.w3.org/2000/svg">
<path d="M3.12964 15.1147L0 21.0229H30.8288L33.9592 15.1147H3.12964Z" fill="url(#paint0_linear)"/>
<path d="M30.8293 21.0234H0L3.1299 15.1152H33.9595L30.8293 21.0234Z" fill="url(#paint1_linear)"/>
<g opacity="0.300003">
<g opacity="0.300003">
<path opacity="0.300003" d="M7.13281 21.0254H17.9657L26.8136 15.1171H15.9815L7.13281 21.0254Z" fill="#07A279"/>
</g>
</g>
<path d="M30.8221 21.0273L33.9523 15.1191L22.5703 21.0273H30.8221Z" fill="url(#paint2_linear)"/>
<path d="M3.1299 15.1152L0 21.0234L11.3812 15.1152H3.1299Z" fill="url(#paint3_linear)"/>
<path d="M15.2199 0.136242C14.7026 0.136242 14.2812 0.551905 14.2812 1.06092V5.58154L22.4118 0.136242H15.2199Z" fill="url(#paint4_linear)"/>
<path d="M14.2695 5.5791V1.05874C14.2695 0.549718 14.6909 0.134056 15.2084 0.134056H22.4003L14.2695 5.5791Z" fill="url(#paint5_linear)"/>
<path d="M23.3639 6.04617C22.8479 6.04617 22.4258 6.46259 22.4258 6.97161V11.4912L30.5568 6.04617H23.3639Z" fill="url(#paint6_linear)"/>
<path d="M22.4141 11.4922V6.97258C22.4141 6.46331 22.8362 6.0474 23.3522 6.0474H30.5451L22.4141 11.4922Z" fill="url(#paint7_linear)"/>
<path d="M22.4141 11.4922L30.5446 6.0474L22.4141 10.2681V11.4922Z" fill="url(#paint8_linear)"/>
<path d="M14.2695 5.58057L22.4003 0.135521L14.2695 4.35648V5.58057Z" fill="url(#paint9_linear)"/>
<path d="M11.5391 36.001H18.7305C19.2467 36.001 19.6699 35.5835 19.6699 35.0758L19.6694 30.5562L11.5391 36.001Z" fill="url(#paint10_linear)"/>
<path d="M19.6576 30.5564L19.6582 35.076C19.6582 35.5838 19.2347 36.001 18.7185 36.001H11.5273L19.6576 30.5564Z" fill="url(#paint11_linear)"/>
<path d="M3.39844 30.0938H10.5901C11.1074 30.0938 11.5295 29.6781 11.5295 29.1691L11.529 24.649L3.39844 30.0938Z" fill="url(#paint12_linear)"/>
<path d="M11.5056 24.6509L11.5061 29.171C11.5061 29.68 11.0839 30.0957 10.5667 30.0957H3.375L11.5056 24.6509Z" fill="url(#paint13_linear)"/>
<path d="M11.5056 24.6509L3.375 30.0957L11.5056 25.875V24.6509Z" fill="url(#paint14_linear)"/>
<path d="M0.517772 14.7685C0.232648 14.9598 0 15.3925 0 15.7308V21.0229L21.9121 6.39167C22.197 6.20088 22.4307 5.76843 22.4307 5.42959V0.137178L0.517772 14.7685Z" fill="url(#paint15_linear)"/>
<path d="M12.0451 29.7465C11.7605 29.9365 11.5273 30.3692 11.5273 30.7086L11.5279 36.001L33.4397 21.3694C33.7256 21.1789 33.9585 20.7454 33.9585 20.4074V15.1155L12.0451 29.7465Z" fill="url(#paint16_linear)"/>
<path d="M3.91673 23.8395C3.63134 24.0298 3.39844 24.463 3.39844 24.8013V30.0938L30.0437 12.3015C30.3288 12.1123 30.5627 11.6785 30.5627 11.3405V6.04779L3.91673 23.8395Z" fill="url(#paint17_linear)"/>
<g opacity="0.300003">
<g opacity="0.300003">
<g opacity="0.300003">
<g opacity="0.300003">
<g opacity="0.300003">
<path opacity="0.300003" d="M16.0088 21.5269L26.7706 14.3406H17.923L7.16016 21.5269H16.0088Z" fill="url(#paint18_linear)"/>
</g>
</g>
</g>
</g>
</g>
<g opacity="0.149994">
<g opacity="0.149994">
<g opacity="0.149994">
<g opacity="0.149994">
<g opacity="0.149994">
<path opacity="0.149994" d="M33.9582 20.2708V14.9789L24.1523 21.5259H33L33.4394 21.2328C33.7253 21.0423 33.9582 20.6088 33.9582 20.2708Z" fill="url(#paint19_linear)"/>
</g>
</g>
</g>
</g>
</g>
<g opacity="0.199997">
<g opacity="0.199997">
<g opacity="0.199997">
<g opacity="0.199997">
<g opacity="0.199997">
<path opacity="0.199997" d="M30.5754 11.2029V5.91071L20.7695 12.4585H29.6182L30.0566 12.1642C30.3415 11.9747 30.5754 11.5412 30.5754 11.2029Z" fill="url(#paint20_linear)"/>
</g>
</g>
</g>
</g>
</g>
<g opacity="0.300003">
<g opacity="0.300003">
<g opacity="0.300003">
<g opacity="0.300003">
<g opacity="0.300003">
<path opacity="0.300003" d="M22.4153 5.29299V0.000315103L12.6094 6.54785H21.4573L21.897 6.25481C22.1821 6.06402 22.4153 5.63157 22.4153 5.29299Z" fill="url(#paint21_linear)"/>
</g>
</g>
</g>
</g>
</g>
<g opacity="0.149994">
<g opacity="0.149994">
<g opacity="0.149994">
<g opacity="0.149994">
<g opacity="0.149994">
<path opacity="0.149994" d="M0 15.5931V20.8853L9.80484 14.3377H0.957218L0.51803 14.631C0.233165 14.8221 0 15.2548 0 15.5931Z" fill="url(#paint22_linear)"/>
</g>
</g>
</g>
</g>
</g>
<g opacity="0.199997">
<g opacity="0.199997">
<g opacity="0.199997">
<g opacity="0.199997">
<g opacity="0.199997">
<path opacity="0.199997" d="M3.37891 24.6612V29.9536L13.1845 23.4063H4.33716L3.89745 23.6994C3.61181 23.8897 3.37891 24.3229 3.37891 24.6612Z" fill="url(#paint23_linear)"/>
</g>
</g>
</g>
</g>
</g>
<g opacity="0.149994">
<g opacity="0.149994">
<g opacity="0.149994">
<g opacity="0.149994">
<g opacity="0.149994">
<path opacity="0.149994" d="M11.5352 30.5687V35.8608L21.3405 29.3131H12.4919L12.0524 29.6066C11.7675 29.7969 11.5352 30.2293 11.5352 30.5687Z" fill="url(#paint24_linear)"/>
</g>
</g>
</g>
</g>
</g>
<path d="M0.51803 14.631C0.232648 14.8221 0 15.2548 0 15.5931V20.8853L22.3821 0.0330531L0.51803 14.631Z" fill="url(#paint25_linear)"/>
<path d="M12.0451 29.609C11.7605 29.7993 11.5273 30.2318 11.5273 30.5711L11.5279 35.8633L33.9099 15.0108L12.0451 29.609Z" fill="url(#paint26_linear)"/>
<path d="M3.89745 23.6994C3.61181 23.8897 3.37891 24.3229 3.37891 24.6612V29.9536L25.761 9.10116L3.89745 23.6994Z" fill="url(#paint27_linear)"/>
<path d="M19.6615 30.4153L11.5312 35.8599L19.6615 31.6394V30.4153Z" fill="url(#paint28_linear)"/>
<path d="M49.7736 23.8301C49.7736 23.8674 49.7676 23.9075 49.7558 23.9447C49.728 24.021 49.6579 24.06 49.5423 24.06H48.1884C48.0198 24.06 47.9375 23.9823 47.9375 23.8301V15.9087C47.9375 15.7401 48.0135 15.6602 48.1703 15.6602H49.5245C49.6902 15.6602 49.7736 15.7401 49.7736 15.9087V23.8301Z" fill="#322E28"/>
<path d="M56.3139 23.8394C56.262 23.8854 56.1861 23.9277 56.0819 23.9635C55.8625 24.0386 55.5945 24.0938 55.2766 24.1251C54.9619 24.1576 54.6676 24.1748 54.3989 24.1748C53.9331 24.1748 53.5458 24.1135 53.237 23.9919C52.9283 23.8719 52.68 23.7033 52.4924 23.4876C52.306 23.2723 52.173 23.0213 52.0959 22.737C52.018 22.4491 51.9791 22.1353 51.9791 21.7923V17.3546C51.9791 17.2145 51.9017 17.1437 51.7482 17.1437H51.0107C50.8317 17.1437 50.742 17.0689 50.742 16.9167V15.9088C50.742 15.7402 50.8183 15.6603 50.9747 15.6603H51.7275C51.8954 15.6603 51.9791 15.576 51.9791 15.4114V13.8879C51.9791 13.8252 51.9936 13.7672 52.0284 13.7153C52.0607 13.6654 52.12 13.6289 52.2119 13.603L53.4694 13.3169C53.5843 13.2906 53.6666 13.3041 53.711 13.3537C53.7566 13.4055 53.78 13.4617 53.78 13.5245V15.4308C53.78 15.5826 53.863 15.6603 54.0316 15.6603H55.675C55.8436 15.6603 55.9274 15.7351 55.9274 15.8873V16.9167C55.9274 17.0689 55.8436 17.1437 55.675 17.1437H54.0105C53.8567 17.1437 53.78 17.2145 53.78 17.3546V21.4492C53.78 21.7809 53.8437 22.0408 53.9734 22.2309C54.1006 22.4203 54.34 22.517 54.6876 22.517C54.7914 22.517 54.9515 22.5031 55.1717 22.4776C55.3907 22.4517 55.566 22.4254 55.6942 22.402C55.8736 22.3644 55.9941 22.3706 56.0519 22.4203C56.1097 22.4725 56.152 22.5473 56.1779 22.6465L56.3502 23.5646C56.3769 23.7033 56.3636 23.7963 56.3139 23.8394Z" fill="#322E28"/>
<path d="M59.38 20.3816H55.9136C55.7472 20.3816 55.6627 20.3072 55.6627 20.1543V19.354C55.6627 19.1997 55.7398 19.1245 55.8943 19.1245H59.3611C59.5279 19.1245 59.6109 19.1946 59.6109 19.3347V20.1543C59.6109 20.3072 59.5357 20.3816 59.38 20.3816Z" fill="#322E28"/>
<path d="M49.5423 14.5802H48.1884C48.022 14.5802 47.9375 14.5054 47.9375 14.3539V13.5522C47.9375 13.399 48.0146 13.3241 48.1691 13.3241H49.523C49.6905 13.3241 49.7732 13.3935 49.7732 13.5343V14.3539C49.7732 14.5054 49.6987 14.5802 49.5423 14.5802Z" fill="#322E28"/>
<path d="M111.519 14.5802H110.166C109.999 14.5802 109.915 14.5054 109.915 14.3539V13.5522C109.915 13.399 109.992 13.3241 110.147 13.3241H111.501C111.668 13.3241 111.75 13.3935 111.75 13.5343V14.3539C111.75 14.5054 111.676 14.5802 111.519 14.5802Z" fill="#322E28"/>
<path d="M114.788 14.5802H113.435C113.268 14.5802 113.184 14.5054 113.184 14.3539V13.5522C113.184 13.399 113.261 13.3241 113.415 13.3241H114.769C114.937 13.3241 115.019 13.3935 115.019 13.5343V14.3539C115.019 14.5054 114.945 14.5802 114.788 14.5802Z" fill="#322E28"/>
<path d="M64.8992 22.4988C65.2328 22.4988 65.49 22.3948 65.6705 22.1959C65.8491 21.9941 65.9418 21.7475 65.9418 21.4585C65.9418 21.1698 65.8491 20.9173 65.6705 20.7038C65.49 20.4896 65.2154 20.3816 64.8448 20.3816H62.7671C62.6896 20.3816 62.6507 20.4265 62.6507 20.5155V22.3645C62.6507 22.4539 62.6959 22.4988 62.7845 22.4988H64.8992ZM64.6902 19.1066C65.0078 19.1066 65.255 19.0095 65.4289 18.814C65.6012 18.6198 65.6883 18.398 65.6883 18.1451C65.6883 17.8677 65.6012 17.647 65.4289 17.4758C65.255 17.3058 65.0038 17.2208 64.6702 17.2208H62.8219C62.7085 17.2208 62.6507 17.2846 62.6507 17.4105V18.9742C62.6507 19.0625 62.6959 19.1066 62.7845 19.1066H64.6902ZM66.5885 19.6025C66.5615 19.6142 66.5504 19.6321 66.5504 19.6481C66.5504 19.6678 66.5685 19.6839 66.6056 19.6974C67.0033 19.8758 67.2983 20.1393 67.4891 20.4871C67.6811 20.8367 67.7753 21.1961 67.7753 21.5636C67.7753 22.3251 67.5221 22.932 67.0148 23.3812C66.5037 23.8344 65.8121 24.0599 64.9337 24.0599H61.1623C60.9302 24.0599 60.8128 23.9574 60.8128 23.7541V15.9636C60.8128 15.7608 60.9232 15.6604 61.1426 15.6604H64.6743C65.5556 15.6604 66.2487 15.8571 66.7598 16.2501C67.2723 16.6416 67.5273 17.2146 67.5273 17.9619C67.5273 18.2564 67.4436 18.5571 67.282 18.8687C67.1185 19.1781 66.8884 19.4244 66.5885 19.6025Z" fill="#322E28"/>
<path d="M70.8936 20.9301C70.8936 21.4151 71.0293 21.8147 71.2991 22.1354C71.5689 22.4518 71.9892 22.6134 72.557 22.6134C73.0844 22.6134 73.4965 22.4602 73.7948 22.1526C74.0913 21.8475 74.2385 21.4373 74.2385 20.9301V18.7509C74.2385 18.2546 74.0984 17.8484 73.8141 17.5372C73.5287 17.2259 73.1181 17.069 72.5762 17.069C72.0351 17.069 71.6182 17.2259 71.3287 17.5372C71.0393 17.8484 70.8936 18.2546 70.8936 18.7509V20.9301ZM76.0771 20.9363C76.0771 21.9759 75.768 22.7755 75.1498 23.3345C74.5298 23.8957 73.6722 24.1749 72.5762 24.1749C71.4796 24.1749 70.6186 23.8957 69.9919 23.3345C69.3659 22.7755 69.0564 21.988 69.0564 20.9724V18.7443C69.0564 18.2615 69.138 17.8214 69.3073 17.4222C69.4726 17.0216 69.7143 16.6775 70.0223 16.3932C70.3317 16.1071 70.7016 15.8874 71.1338 15.7353C71.5659 15.5827 72.0399 15.5072 72.557 15.5072C73.6384 15.5072 74.4979 15.7845 75.1287 16.345C75.7599 16.9037 76.0771 17.6992 76.0771 18.7253V20.9363Z" fill="#322E28"/>
<path d="M78.5353 15.6603H83.7007C83.7767 15.6603 83.8448 15.6833 83.9019 15.726C83.9616 15.7702 83.9883 15.8304 83.9883 15.9088V23.7942C83.9883 23.8956 83.9616 23.9635 83.9019 24.0011C83.8448 24.0387 83.7767 24.0602 83.7007 24.0602H82.4235C82.2426 24.0602 82.153 23.9774 82.153 23.8131V17.4692C82.153 17.3032 82.0866 17.2207 81.9584 17.2207H80.1405C79.9985 17.2207 79.9266 17.3032 79.9266 17.4692V19.1817C79.9025 20.0984 79.8399 20.8493 79.7447 21.4394C79.6468 22.0295 79.5004 22.517 79.3095 22.8972C79.1135 23.2782 78.8663 23.5833 78.5642 23.8113C78.2603 24.0387 77.8953 24.243 77.4709 24.42C77.406 24.4455 77.3456 24.4558 77.2859 24.4481C77.2289 24.443 77.1733 24.389 77.1221 24.2905L76.6981 23.4687C76.6463 23.3683 76.6348 23.2877 76.6678 23.2318C76.6996 23.1738 76.7608 23.1133 76.8519 23.0516C77.1344 22.8855 77.3671 22.7067 77.5469 22.517C77.7285 22.3254 77.8667 22.0816 77.9642 21.7839C78.0605 21.4839 78.1269 21.1106 78.1673 20.6592C78.2058 20.2111 78.2258 19.6393 78.2258 18.9544V15.9274C78.2258 15.7497 78.3292 15.6603 78.5353 15.6603Z" fill="#322E28"/>
<path d="M87.3168 20.9301C87.3168 21.4151 87.4513 21.8147 87.7234 22.1354C87.9928 22.4518 88.4135 22.6134 88.9801 22.6134C89.5101 22.6134 89.9234 22.4602 90.2188 22.1526C90.5164 21.8475 90.6646 21.4373 90.6646 20.9301V18.7509C90.6646 18.2546 90.5212 17.8484 90.2377 17.5372C89.9541 17.2259 89.5439 17.069 88.9998 17.069C88.4587 17.069 88.0428 17.2259 87.7504 17.5372C87.4636 17.8484 87.3168 18.2546 87.3168 18.7509V20.9301ZM92.5018 20.9363C92.5018 21.9759 92.1923 22.7755 91.5738 23.3345C90.9563 23.8957 90.0972 24.1749 88.9998 24.1749C87.9053 24.1749 87.0425 23.8957 86.4184 23.3345C85.7954 22.7755 85.4778 21.988 85.4778 20.9724V18.7443C85.4778 18.2615 85.563 17.8214 85.7305 17.4222C85.8988 17.0216 86.1375 16.6775 86.4451 16.3932C86.7572 16.1071 87.1274 15.8874 87.5577 15.7353C87.9898 15.5827 88.4657 15.5072 88.9801 15.5072C90.0631 15.5072 90.9211 15.7845 91.5537 16.345C92.1849 16.9037 92.5018 17.6992 92.5018 18.7253V20.9363Z" fill="#322E28"/>
<path d="M98.9624 15.9439C98.9624 15.7538 99.0725 15.6604 99.2934 15.6604H100.456C100.687 15.6604 100.803 15.7538 100.803 15.9439V23.7731C100.803 23.9636 100.692 24.0599 100.473 24.0599H99.3134C99.0799 24.0599 98.9624 23.9694 98.9624 23.7942V20.5911C98.9624 20.4783 98.8987 20.4217 98.7705 20.4217H96.0045C95.9385 20.4217 95.8948 20.4407 95.8692 20.4783C95.8418 20.5177 95.8303 20.5538 95.8303 20.5911V23.7731C95.8303 23.9636 95.7217 24.0599 95.5001 24.0599H94.3211C94.1025 24.0599 93.9917 23.9694 93.9917 23.7942V15.9439C93.9917 15.7538 94.0943 15.6604 94.3015 15.6604H95.5205C95.7262 15.6604 95.8303 15.7538 95.8303 15.9439V18.8982C95.8303 18.934 95.8418 18.9716 95.8692 19.0132C95.8948 19.049 95.9385 19.069 96.0045 19.069H98.7886C98.9046 19.069 98.9624 19.0132 98.9624 18.8982V15.9439Z" fill="#322E28"/>
<path d="M107.921 17.2208H105.948C105.883 17.2208 105.841 17.2445 105.822 17.289C105.803 17.3328 105.792 17.3729 105.792 17.4105V23.7541C105.792 23.9574 105.684 24.0599 105.465 24.0599H104.285C104.063 24.0599 103.956 23.9574 103.956 23.7541V17.4105C103.956 17.2846 103.891 17.2208 103.762 17.2208H101.924C101.691 17.2208 101.575 17.1204 101.575 16.9131V15.9666C101.575 15.7615 101.691 15.6604 101.924 15.6604H107.921C108.14 15.6604 108.25 15.7564 108.25 15.9487V16.9131C108.25 17.1204 108.14 17.2208 107.921 17.2208Z" fill="#322E28"/>
<path d="M114.112 18.6505C114.086 18.1673 113.933 17.7831 113.651 17.4955C113.368 17.212 112.978 17.0689 112.476 17.0689C111.94 17.0689 111.549 17.2284 111.304 17.5448C111.06 17.8608 110.921 18.2564 110.882 18.7253C110.87 18.7909 110.879 18.8387 110.912 18.8796C110.944 18.9154 111.015 18.934 111.132 18.934H113.9C114.042 18.934 114.112 18.8387 114.112 18.6505ZM115.951 19.7357C115.951 19.8755 115.903 19.993 115.813 20.0886C115.726 20.1834 115.622 20.2294 115.507 20.2294H111.152C111.035 20.2294 110.945 20.2652 110.882 20.3363C110.817 20.4071 110.784 20.487 110.784 20.5764V20.9027C110.784 21.3643 110.939 21.7642 111.247 22.1021C111.559 22.4419 111.966 22.6134 112.467 22.6134C112.855 22.6134 113.184 22.5196 113.464 22.3364C113.741 22.1518 113.983 21.931 114.189 21.6785C114.255 21.6018 114.314 21.5548 114.374 21.5351C114.432 21.5172 114.512 21.5394 114.616 21.6018L115.467 22.1353C115.57 22.1985 115.641 22.2612 115.679 22.3178C115.719 22.3747 115.711 22.4466 115.661 22.5353C115.338 23.1129 114.895 23.5297 114.335 23.7877C113.775 24.0453 113.165 24.1748 112.507 24.1748C111.977 24.1748 111.494 24.0964 111.054 23.9449C110.614 23.7942 110.238 23.5808 109.922 23.3067C109.613 23.0334 109.369 22.7002 109.2 22.3065C109.033 21.9127 108.947 21.4763 108.947 20.9921V18.8387C108.947 18.3461 109.035 17.8929 109.209 17.4864C109.382 17.0817 109.624 16.7336 109.932 16.4384C110.242 16.1483 110.612 15.9202 111.036 15.7542C111.463 15.5878 111.933 15.5071 112.45 15.5071C112.965 15.5071 113.438 15.5856 113.87 15.7443C114.302 15.9038 114.673 16.126 114.982 16.4114C115.291 16.6964 115.532 17.0467 115.699 17.4598C115.866 17.8717 115.951 18.3253 115.951 18.819V19.7357Z" fill="#322E28"/>
<path d="M122.488 18.7791C122.488 18.2964 122.344 17.9026 122.057 17.591C121.768 17.2801 121.353 17.1243 120.816 17.1243C120.33 17.1243 119.927 17.2888 119.614 17.6103C119.298 17.934 119.144 18.3201 119.144 18.7791V20.9606C119.144 21.4163 119.298 21.8068 119.614 22.1378C119.927 22.4662 120.336 22.63 120.835 22.63C121.336 22.63 121.737 22.4662 122.037 22.1378C122.339 21.8068 122.488 21.4163 122.488 20.9606V18.7791ZM124.327 20.9726C124.327 21.4047 124.261 21.8145 124.126 22.2005C123.99 22.5914 123.788 22.9318 123.518 23.2318C123.248 23.5299 122.916 23.7645 122.524 23.9357C122.133 24.1068 121.688 24.1926 121.186 24.1926C120.761 24.1926 120.408 24.1371 120.124 24.0309C119.843 23.9236 119.632 23.8112 119.492 23.6981C119.388 23.6215 119.303 23.5832 119.239 23.5832C119.174 23.5832 119.144 23.6536 119.144 23.7941V27.2585C119.144 27.4129 119.065 27.4873 118.908 27.4873H117.559C117.388 27.4873 117.306 27.406 117.306 27.2396V15.9088C117.306 15.754 117.388 15.677 117.559 15.677H118.871C118.974 15.677 119.033 15.6997 119.044 15.7445C119.058 15.7902 119.065 15.8427 119.065 15.9088V16.0773C119.065 16.1788 119.091 16.2408 119.144 16.2598C119.194 16.2791 119.253 16.2561 119.314 16.1916C119.65 15.9372 119.974 15.7701 120.289 15.6873C120.605 15.6062 120.936 15.5628 121.281 15.5628C121.807 15.5628 122.262 15.6467 122.641 15.8102C123.02 15.977 123.334 16.2043 123.585 16.497C123.834 16.7896 124.022 17.1279 124.145 17.5173C124.267 17.9034 124.327 18.3256 124.327 18.7842V20.9726Z" fill="#322E28"/>
<defs>
<linearGradient id="paint0_linear" x1="-0.000174745" y1="18.0687" x2="29.1049" y2="18.0687" gradientUnits="userSpaceOnUse">
<stop stop-color="#C4AE2B"/>
<stop offset="0.0452979" stop-color="#C4AE2B"/>
<stop offset="0.175497" stop-color="#C4AE2B"/>
<stop offset="0.540301" stop-color="#259747"/>
<stop offset="1" stop-color="#1B4274"/>
</linearGradient>
<linearGradient id="paint1_linear" x1="-5.24814" y1="18.0692" x2="32.0107" y2="18.0692" gradientUnits="userSpaceOnUse">
<stop stop-color="#9D3D2A"/>
<stop offset="0.198929" stop-color="#259747"/>
<stop offset="0.5" stop-color="#259747"/>
<stop offset="0.742494" stop-color="#259747"/>
<stop offset="1" stop-color="#1B4274"/>
</linearGradient>
<linearGradient id="paint2_linear" x1="0.203298" y1="18.0731" x2="30.08" y2="18.0731" gradientUnits="userSpaceOnUse">
<stop stop-color="#C03038"/>
<stop offset="0.198929" stop-color="#50B548"/>
<stop offset="0.5" stop-color="#50B548"/>
<stop offset="0.742494" stop-color="#50B548"/>
<stop offset="1" stop-color="#108689"/>
</linearGradient>
<linearGradient id="paint3_linear" x1="1.25433" y1="18.0695" x2="48.6029" y2="18.0695" gradientUnits="userSpaceOnUse">
<stop stop-color="#C03038"/>
<stop offset="0.198929" stop-color="#50B548"/>
<stop offset="0.5" stop-color="#50B548"/>
<stop offset="0.742494" stop-color="#50B548"/>
<stop offset="1" stop-color="#108689"/>
</linearGradient>
<linearGradient id="paint4_linear" x1="-2.54515" y1="2.85893" x2="17.9588" y2="2.85893" gradientUnits="userSpaceOnUse">
<stop stop-color="#A5CD3D"/>
<stop offset="1" stop-color="#BA3E26"/>
</linearGradient>
<linearGradient id="paint5_linear" x1="18.8734" y1="2.85661" x2="-12.3125" y2="2.85662" gradientUnits="userSpaceOnUse">
<stop stop-color="#9D3D2A"/>
<stop offset="0.263896" stop-color="#259747"/>
<stop offset="0.663293" stop-color="#259747"/>
<stop offset="0.826592" stop-color="#259747"/>
<stop offset="1" stop-color="#1B4274"/>
</linearGradient>
<linearGradient id="paint6_linear" x1="2.05926" y1="8.76874" x2="27.1772" y2="8.76874" gradientUnits="userSpaceOnUse">
<stop stop-color="#83C341"/>
<stop offset="1" stop-color="#259747"/>
</linearGradient>
<linearGradient id="paint7_linear" x1="-9.83834" y1="8.76972" x2="30.2199" y2="8.76972" gradientUnits="userSpaceOnUse">
<stop stop-color="#9D3D2A"/>
<stop offset="0.198929" stop-color="#259747"/>
<stop offset="0.5" stop-color="#259747"/>
<stop offset="0.742494" stop-color="#259747"/>
<stop offset="1" stop-color="#1B4274"/>
</linearGradient>
<linearGradient id="paint8_linear" x1="-2.6216" y1="8.76947" x2="32.5293" y2="8.76947" gradientUnits="userSpaceOnUse">
<stop stop-color="#C03038"/>
<stop offset="0.198929" stop-color="#50B548"/>
<stop offset="0.5" stop-color="#50B548"/>
<stop offset="0.742494" stop-color="#50B548"/>
<stop offset="1" stop-color="#108689"/>
</linearGradient>
<linearGradient id="paint9_linear" x1="23.2727" y1="2.85808" x2="-9.37521" y2="2.85808" gradientUnits="userSpaceOnUse">
<stop stop-color="#C03038"/>
<stop offset="0.198929" stop-color="#50B548"/>
<stop offset="0.5" stop-color="#50B548"/>
<stop offset="0.742494" stop-color="#50B548"/>
<stop offset="1" stop-color="#108689"/>
</linearGradient>
<linearGradient id="paint10_linear" x1="6.75383" y1="33.2787" x2="33.0878" y2="33.2787" gradientUnits="userSpaceOnUse">
<stop stop-color="#3D63AD"/>
<stop offset="1" stop-color="#1B4274"/>
</linearGradient>
<linearGradient id="paint11_linear" x1="41.4874" y1="33.2789" x2="12.6182" y2="33.2789" gradientUnits="userSpaceOnUse">
<stop stop-color="#9D3D2A"/>
<stop offset="0.198929" stop-color="#259747"/>
<stop offset="0.5" stop-color="#259747"/>
<stop offset="0.742494" stop-color="#259747"/>
<stop offset="1" stop-color="#1B4274"/>
</linearGradient>
<linearGradient id="paint12_linear" x1="3.39841" y1="27.3713" x2="35.9477" y2="27.3713" gradientUnits="userSpaceOnUse">
<stop stop-color="#83C341"/>
<stop offset="1" stop-color="#259747"/>
</linearGradient>
<linearGradient id="paint13_linear" x1="36.3102" y1="27.3733" x2="1.73162" y2="27.3733" gradientUnits="userSpaceOnUse">
<stop stop-color="#9D3D2A"/>
<stop offset="0.198929" stop-color="#259747"/>
<stop offset="0.5" stop-color="#259747"/>
<stop offset="0.742494" stop-color="#259747"/>
<stop offset="1" stop-color="#1B4274"/>
</linearGradient>
<linearGradient id="paint14_linear" x1="36.5414" y1="27.3733" x2="1.39054" y2="27.3732" gradientUnits="userSpaceOnUse">
<stop stop-color="#C03038"/>
<stop offset="0.198929" stop-color="#50B548"/>
<stop offset="0.5" stop-color="#50B548"/>
<stop offset="0.742494" stop-color="#50B548"/>
<stop offset="1" stop-color="#108689"/>
</linearGradient>
<linearGradient id="paint15_linear" x1="-2.98136" y1="20.0041" x2="23.1993" y2="2.05791" gradientUnits="userSpaceOnUse">
<stop stop-color="#FCE930"/>
<stop offset="1" stop-color="#ED2A2A"/>
</linearGradient>
<linearGradient id="paint16_linear" x1="7.67877" y1="35.5582" x2="33.8591" y2="17.6122" gradientUnits="userSpaceOnUse">
<stop stop-color="#33C4F3"/>
<stop offset="1" stop-color="#108689"/>
</linearGradient>
<linearGradient id="paint17_linear" x1="2.3499" y1="27.7832" x2="28.5305" y2="9.83709" gradientUnits="userSpaceOnUse">
<stop stop-color="#E3E331"/>
<stop offset="1" stop-color="#50B548"/>
</linearGradient>
<linearGradient id="paint18_linear" x1="-4.81893" y1="17.9338" x2="24.8104" y2="17.9338" gradientUnits="userSpaceOnUse">
<stop stop-color="#E3E331"/>
<stop offset="1" stop-color="#50B548"/>
</linearGradient>
<linearGradient id="paint19_linear" x1="18.1625" y1="18.2524" x2="32.9781" y2="18.2524" gradientUnits="userSpaceOnUse">
<stop stop-color="#33C4F3"/>
<stop offset="1" stop-color="#108689"/>
</linearGradient>
<linearGradient id="paint20_linear" x1="14.7794" y1="9.18452" x2="29.5954" y2="9.18452" gradientUnits="userSpaceOnUse">
<stop stop-color="#E3E331"/>
<stop offset="1" stop-color="#50B548"/>
</linearGradient>
<linearGradient id="paint21_linear" x1="6.61947" y1="3.27412" x2="21.435" y2="3.27412" gradientUnits="userSpaceOnUse">
<stop stop-color="#FCE930"/>
<stop offset="1" stop-color="#ED2A2A"/>
</linearGradient>
<linearGradient id="paint22_linear" x1="15.7941" y1="17.6115" x2="0.980093" y2="17.6115" gradientUnits="userSpaceOnUse">
<stop stop-color="#FCE930"/>
<stop offset="1" stop-color="#ED2A2A"/>
</linearGradient>
<linearGradient id="paint23_linear" x1="19.1744" y1="26.6799" x2="4.35906" y2="26.6799" gradientUnits="userSpaceOnUse">
<stop stop-color="#E3E331"/>
<stop offset="1" stop-color="#50B548"/>
</linearGradient>
<linearGradient id="paint24_linear" x1="27.3301" y1="32.587" x2="12.5151" y2="32.587" gradientUnits="userSpaceOnUse">
<stop stop-color="#33C4F3"/>
<stop offset="1" stop-color="#108689"/>
</linearGradient>
<linearGradient id="paint25_linear" x1="-2.36061" y1="20.8588" x2="16.5772" y2="5.05367" gradientUnits="userSpaceOnUse">
<stop stop-color="#FFDF2C"/>
<stop offset="1" stop-color="#F3762D"/>
</linearGradient>
<linearGradient id="paint26_linear" x1="6.26587" y1="35.932" x2="28.1439" y2="19.972" gradientUnits="userSpaceOnUse">
<stop stop-color="#75EBFB"/>
<stop offset="1" stop-color="#1995A3"/>
</linearGradient>
<linearGradient id="paint27_linear" x1="-0.343728" y1="28.8717" x2="22.243" y2="12.3623" gradientUnits="userSpaceOnUse">
<stop stop-color="#F7FE05"/>
<stop offset="1" stop-color="#65BC46"/>
</linearGradient>
<linearGradient id="paint28_linear" x1="45.8553" y1="33.1378" x2="10.7044" y2="33.1378" gradientUnits="userSpaceOnUse">
<stop stop-color="#C03038"/>
<stop offset="0.198929" stop-color="#50B548"/>
<stop offset="0.5" stop-color="#50B548"/>
<stop offset="0.742494" stop-color="#50B548"/>
<stop offset="1" stop-color="#108689"/>
</linearGradient>
</defs>
</svg>
