<svg width="218" height="128" viewBox="0 0 218 128" fill="none" xmlns="http://www.w3.org/2000/svg">
<g clip-path="url(#clip0)">
<rect y="0.818359" width="218" height="127" rx="6" fill="url(#paint0_linear)"/>
<rect y="0.818359" width="218" height="127" rx="6" fill="url(#paint1_linear)"/>
<path d="M65.89 72.1784C64.53 72.1784 63.27 71.9284 62.11 71.4284C60.97 70.9284 59.99 70.2184 59.17 69.2984C58.35 68.3584 57.71 67.2284 57.25 65.9084C56.79 64.5684 56.56 63.0584 56.56 61.3784C56.56 59.6184 56.81 58.0684 57.31 56.7284C57.83 55.3684 58.53 54.2284 59.41 53.3084C60.31 52.3884 61.35 51.6984 62.53 51.2384C63.71 50.7584 64.97 50.5184 66.31 50.5184C67.69 50.5184 68.78 50.7484 69.58 51.2084C70.4 51.6684 70.94 52.1384 71.2 52.6184H71.38V50.8784H74.86V57.5384H71.38V56.2184C71.38 55.1784 71.06 54.3484 70.42 53.7284C69.78 53.1084 68.74 52.7984 67.3 52.7984C65.48 52.7984 64.12 53.2684 63.22 54.2084C62.34 55.1284 61.9 56.5684 61.9 58.5284V64.2584C61.9 66.0784 62.29 67.4584 63.07 68.3984C63.87 69.3184 64.99 69.7784 66.43 69.7784C67.83 69.7784 68.86 69.4284 69.52 68.7284C70.18 68.0084 70.51 67.1184 70.51 66.0584V63.2384H67.51V61.2584H76.84V63.2384H75.31V71.8184H73.66L71.83 68.8184H71.62C71.52 69.1584 71.31 69.5284 70.99 69.9284C70.67 70.3084 70.25 70.6684 69.73 71.0084C69.23 71.3284 68.65 71.5984 67.99 71.8184C67.35 72.0584 66.65 72.1784 65.89 72.1784ZM80.3177 61.0184H89.3177V64.3184H80.3177V61.0184ZM98.7208 72.1784C97.6208 72.1784 96.7808 71.9784 96.2008 71.5784C95.6208 71.1584 95.2508 70.6984 95.0908 70.1984H94.9708V71.8184H92.0308V67.1384H94.9708V67.6184C94.9708 68.3984 95.2108 68.9884 95.6908 69.3884C96.1708 69.7884 96.9508 69.9884 98.0308 69.9884C98.9908 69.9884 99.6908 69.8384 100.131 69.5384C100.571 69.2384 100.791 68.7784 100.791 68.1584C100.791 67.6584 100.631 67.2784 100.311 67.0184C99.9908 66.7384 99.4608 66.4884 98.7208 66.2684L97.3108 65.8784C95.5708 65.3984 94.2808 64.7584 93.4408 63.9584C92.6208 63.1384 92.2108 62.0384 92.2108 60.6584C92.2108 59.0784 92.7308 57.8684 93.7708 57.0284C94.8108 56.1684 96.1808 55.7384 97.8808 55.7384C98.9408 55.7384 99.7508 55.9384 100.311 56.3384C100.871 56.7384 101.231 57.1884 101.391 57.6884H101.511V56.0984H104.451V60.7784H101.511V60.2384C101.511 59.4784 101.271 58.9084 100.791 58.5284C100.331 58.1284 99.5708 57.9284 98.5108 57.9284C96.9908 57.9284 96.2308 58.4784 96.2308 59.5784C96.2308 60.0984 96.3808 60.5184 96.6808 60.8384C97.0008 61.1584 97.5708 61.4184 98.3908 61.6184L99.6808 61.9484C100.521 62.1684 101.261 62.4184 101.901 62.6984C102.541 62.9784 103.071 63.3184 103.491 63.7184C103.931 64.0984 104.261 64.5684 104.481 65.1284C104.701 65.6684 104.811 66.3184 104.811 67.0784C104.811 68.7384 104.251 70.0084 103.131 70.8884C102.011 71.7484 100.541 72.1784 98.7208 72.1784ZM113.745 72.1784C111.825 72.1784 110.465 71.6984 109.665 70.7384C108.885 69.7584 108.495 68.2984 108.495 66.3584V59.1284L106.695 58.7384V57.0284L113.055 55.7384V66.2084C113.055 67.2684 113.235 68.0284 113.595 68.4884C113.975 68.9284 114.605 69.1484 115.485 69.1484C115.825 69.1484 116.165 69.1084 116.505 69.0284C116.845 68.9284 117.145 68.7884 117.405 68.6084C117.665 68.4084 117.875 68.1684 118.035 67.8884C118.195 67.5884 118.275 67.2284 118.275 66.8084V59.1284L116.475 58.7384V57.0284L122.835 55.7384V68.7884L124.635 69.1784V70.8884L118.365 72.1784V69.2084H118.215C117.935 70.0084 117.435 70.7084 116.715 71.3084C115.995 71.8884 115.005 72.1784 113.745 72.1784ZM130.619 54.0284C129.779 54.0284 129.119 53.7984 128.639 53.3384C128.179 52.8784 127.949 52.2584 127.949 51.4784V51.3284C127.949 50.5484 128.179 49.9284 128.639 49.4684C129.119 49.0084 129.779 48.7784 130.619 48.7784C131.459 48.7784 132.109 49.0084 132.569 49.4684C133.049 49.9284 133.289 50.5484 133.289 51.3284V51.4784C133.289 52.2584 133.049 52.8784 132.569 53.3384C132.109 53.7984 131.459 54.0284 130.619 54.0284ZM126.569 69.8384H128.369V59.1284L126.569 58.7384V57.0284L132.929 55.7384V69.8384H134.729V71.8184H126.569V69.8384ZM141.718 72.1184C140.518 72.1184 139.628 71.8584 139.048 71.3384C138.488 70.7984 138.208 70.0084 138.208 68.9684V58.1984H136.108V56.0984H136.918C137.578 56.0984 138.058 55.9584 138.358 55.6784C138.678 55.3784 138.978 54.9384 139.258 54.3584L140.518 51.7484H142.768V56.0984H146.218V58.1984H142.768V69.7784H146.218V71.5484C145.898 71.6884 145.328 71.8184 144.508 71.9384C143.688 72.0584 142.758 72.1184 141.718 72.1184ZM155.519 72.1784C154.279 72.1784 153.179 71.9784 152.219 71.5784C151.279 71.1584 150.479 70.5884 149.819 69.8684C149.179 69.1284 148.689 68.2584 148.349 67.2584C148.009 66.2384 147.839 65.1284 147.839 63.9284C147.839 62.6684 148.009 61.5284 148.349 60.5084C148.709 59.4884 149.209 58.6284 149.849 57.9284C150.509 57.2284 151.289 56.6884 152.189 56.3084C153.109 55.9284 154.129 55.7384 155.249 55.7384C156.369 55.7384 157.379 55.9084 158.279 56.2484C159.179 56.5884 159.939 57.0784 160.559 57.7184C161.199 58.3384 161.689 59.0984 162.029 59.9984C162.369 60.8984 162.539 61.8984 162.539 62.9984V64.0184H152.669V65.2184C152.669 66.5584 153.019 67.5684 153.719 68.2484C154.419 68.9284 155.349 69.2684 156.509 69.2684C157.589 69.2684 158.459 69.0284 159.119 68.5484C159.779 68.0484 160.249 67.4484 160.529 66.7484L162.179 67.7384C161.999 68.2384 161.739 68.7484 161.399 69.2684C161.059 69.7884 160.619 70.2684 160.079 70.7084C159.539 71.1284 158.889 71.4784 158.129 71.7584C157.369 72.0384 156.499 72.1784 155.519 72.1784ZM152.669 62.1284H157.829V61.7084C157.829 60.2684 157.599 59.2584 157.139 58.6784C156.679 58.0984 156.049 57.8084 155.249 57.8084C154.449 57.8084 153.819 58.0984 153.359 58.6784C152.899 59.2584 152.669 60.2684 152.669 61.7084V62.1284Z" fill="white"/>
<path d="M170 13.8184H47V209.388H170V13.8184Z" fill="#F3EFE7"/>
<path d="M161.194 28.3251C158.392 25.5171 155.589 22.7091 152.787 19.9011C152.112 19.2251 151.126 20.2651 151.749 20.9411C154.551 23.7491 157.354 26.5571 160.156 29.3651C160.831 29.9891 161.869 29.0011 161.194 28.3251Z" fill="#FFA79B"/>
<path d="M152.839 29.3127C155.642 26.5047 158.444 23.6967 161.247 20.8887C161.921 20.2127 160.883 19.2247 160.209 19.8487C157.406 22.6567 154.604 25.4647 151.801 28.2727C151.126 29.0007 152.164 29.9887 152.839 29.3127Z" fill="#FFA79B"/>
<path d="M170 33.498H47V35.498H170V33.498Z" fill="white"/>
<path d="M137.296 147.917C118.425 131.901 99.6153 115.937 80.7442 99.9206C79.9477 99.2446 78.7836 100.285 79.5188 100.961C98.3899 116.977 117.2 132.941 136.071 148.957C136.867 149.581 138.093 148.593 137.296 147.917Z" fill="white"/>
<path d="M80.7442 148.955C99.6153 132.939 118.425 116.975 137.296 100.959C138.093 100.283 136.867 99.295 136.071 99.919C117.2 115.935 98.3899 131.899 79.5188 147.915C78.7836 148.591 79.9477 149.579 80.7442 148.955Z" fill="white"/>
<path d="M68.8578 104.65C68.3676 104.65 68 104.338 68 103.922V91.8061C68 91.3901 68.3676 91.0781 68.8578 91.0781H83.3787C83.8689 91.0781 84.2365 91.3901 84.2365 91.8061C84.2365 92.2221 83.8689 92.5341 83.3787 92.5341H69.7155V103.922C69.6543 104.338 69.2867 104.65 68.8578 104.65Z" fill="#C7C9BC"/>
<path d="M148.567 104.805C148.077 104.805 147.709 104.493 147.709 104.077V92.4814H134.291C133.801 92.4814 133.434 92.1694 133.434 91.7534C133.434 91.3374 133.801 91.0254 134.291 91.0254H148.567C149.057 91.0254 149.425 91.3374 149.425 91.7534V104.077C149.364 104.493 148.996 104.805 148.567 104.805Z" fill="#C7C9BC"/>
<path d="M159.219 65.0059H59.1045C58.0016 65.0059 58.0016 67.0059 59.1045 67.0059H159.219C160.261 67.0059 160.261 65.0059 159.219 65.0059Z" fill="#9299AB"/>
<path d="M127.462 77.8184H58.5692C57.8103 77.8184 57.8103 79.8184 58.5692 79.8184H127.462C128.179 79.8184 128.179 77.8184 127.462 77.8184Z" fill="#9299AB"/>
<path d="M120.004 45.8184H61.2422C59.5853 45.8184 58.2422 47.1615 58.2422 48.8184V52.4383C58.2422 54.0952 59.5853 55.4383 61.2422 55.4383H120.004C121.661 55.4383 123.004 54.0952 123.004 52.4383V48.8184C123.004 47.1615 121.661 45.8184 120.004 45.8184Z" fill="#FFA79B"/>
</g>
<defs>
<linearGradient id="paint0_linear" x1="64.1732" y1="10.3184" x2="223.977" y2="119.032" gradientUnits="userSpaceOnUse">
<stop stop-color="#5DB5E6"/>
<stop offset="1" stop-color="#1590D5"/>
</linearGradient>
<linearGradient id="paint1_linear" x1="109" y1="0.818359" x2="109" y2="127.818" gradientUnits="userSpaceOnUse">
<stop stop-color="#E6DFD1"/>
<stop offset="1" stop-color="#E0D6C3"/>
</linearGradient>
<clipPath id="clip0">
<rect y="0.818359" width="218" height="127" rx="6" fill="white"/>
</clipPath>
</defs>
</svg>
