<svg width="161" height="37" viewBox="0 0 161 37" fill="none" xmlns="http://www.w3.org/2000/svg">
<path d="M3.1214 16.1132L0 22.0215H30.7476L33.8698 16.1132H3.1214Z" fill="url(#paint0_linear)"/>
<path d="M30.7481 22.0225H0L3.12166 16.1142H33.8701L30.7481 22.0225Z" fill="url(#paint1_linear)"/>
<g opacity="0.300003">
<g opacity="0.300003">
<path opacity="0.300003" d="M7.11328 22.0244H17.9177L26.7423 16.1161H15.9386L7.11328 22.0244Z" fill="#07A279"/>
</g>
</g>
<path d="M30.7418 22.0264L33.8637 16.1181L22.5117 22.0264H30.7418Z" fill="url(#paint2_linear)"/>
<path d="M3.12166 16.1142L0 22.0225L11.3512 16.1142H3.12166Z" fill="url(#paint3_linear)"/>
<path d="M15.1783 1.13575C14.6624 1.13575 14.2422 1.55142 14.2422 2.06043V6.58105L22.3513 1.13575H15.1783Z" fill="url(#paint4_linear)"/>
<path d="M14.2305 6.57812V2.05776C14.2305 1.54874 14.6507 1.13308 15.1669 1.13308H22.3399L14.2305 6.57812Z" fill="url(#paint5_linear)"/>
<path d="M23.3028 7.04519C22.7882 7.04519 22.3672 7.46161 22.3672 7.97063V12.4902L30.4768 7.04519H23.3028Z" fill="url(#paint6_linear)"/>
<path d="M22.3555 12.4912V7.97161C22.3555 7.46234 22.7765 7.04642 23.2911 7.04642H30.4651L22.3555 12.4912Z" fill="url(#paint7_linear)"/>
<path d="M22.3555 12.4912L30.4646 7.04642L22.3555 11.2671V12.4912Z" fill="url(#paint8_linear)"/>
<path d="M14.2305 6.58008L22.3399 1.13503L14.2305 5.35599V6.58008Z" fill="url(#paint9_linear)"/>
<path d="M11.5078 37H18.6803C19.1952 37 19.6172 36.5826 19.6172 36.0748L19.6167 31.5552L11.5078 37Z" fill="url(#paint10_linear)"/>
<path d="M19.605 31.5555L19.6055 36.0751C19.6055 36.5828 19.1832 37 18.6683 37H11.4961L19.605 31.5555Z" fill="url(#paint11_linear)"/>
<path d="M3.39062 31.0928H10.5634C11.0793 31.0928 11.5003 30.6771 11.5003 30.1681L11.4998 25.648L3.39062 31.0928Z" fill="url(#paint12_linear)"/>
<path d="M11.4763 25.6499L11.4769 30.17C11.4769 30.6791 11.0558 31.0947 10.5399 31.0947H3.36719L11.4763 25.6499Z" fill="url(#paint13_linear)"/>
<path d="M11.4763 25.6499L3.36719 31.0947L11.4763 26.874V25.6499Z" fill="url(#paint14_linear)"/>
<path d="M0.516409 15.767C0.232036 15.9583 0 16.391 0 16.7293V22.0215L21.8545 7.3902C22.1386 7.19942 22.3716 6.76696 22.3716 6.42813V1.13571L0.516409 15.767Z" fill="url(#paint15_linear)"/>
<path d="M12.0125 30.7455C11.7286 30.9355 11.4961 31.3682 11.4961 31.7076L11.4966 37L33.3508 22.3685C33.636 22.1779 33.8682 21.7445 33.8682 21.4064V16.1145L12.0125 30.7455Z" fill="url(#paint16_linear)"/>
<path d="M3.90755 24.8385C3.62292 25.0288 3.39062 25.462 3.39062 25.8004V31.0928L29.9657 13.3005C30.2501 13.1113 30.4834 12.6776 30.4834 12.3395V7.04681L3.90755 24.8385Z" fill="url(#paint17_linear)"/>
<g opacity="0.300003">
<g opacity="0.300003">
<g opacity="0.300003">
<g opacity="0.300003">
<g opacity="0.300003">
<path opacity="0.300003" d="M15.966 22.5254L26.6995 15.3391H17.8751L7.14062 22.5254H15.966Z" fill="url(#paint18_linear)"/>
</g>
</g>
</g>
</g>
</g>
<g opacity="0.149994">
<g opacity="0.149994">
<g opacity="0.149994">
<g opacity="0.149994">
<g opacity="0.149994">
<path opacity="0.149994" d="M33.8699 21.2693V15.9774L24.0898 22.5244H32.9142L33.3525 22.2314C33.6376 22.0408 33.8699 21.6074 33.8699 21.2693Z" fill="url(#paint19_linear)"/>
</g>
</g>
</g>
</g>
</g>
<g opacity="0.199997">
<g opacity="0.199997">
<g opacity="0.199997">
<g opacity="0.199997">
<g opacity="0.199997">
<path opacity="0.199997" d="M30.4949 12.2014V6.90924L20.7148 13.457H29.5402L29.9775 13.1627C30.2616 12.9732 30.4949 12.5397 30.4949 12.2014Z" fill="url(#paint20_linear)"/>
</g>
</g>
</g>
</g>
</g>
<g opacity="0.300003">
<g opacity="0.300003">
<g opacity="0.300003">
<g opacity="0.300003">
<g opacity="0.300003">
<path opacity="0.300003" d="M22.3582 6.29201V0.999339L12.5781 7.54688H21.4027L21.8413 7.25383C22.1256 7.06304 22.3582 6.63059 22.3582 6.29201Z" fill="url(#paint21_linear)"/>
</g>
</g>
</g>
</g>
</g>
<g opacity="0.149994">
<g opacity="0.149994">
<g opacity="0.149994">
<g opacity="0.149994">
<g opacity="0.149994">
<path opacity="0.149994" d="M0 16.5916V21.8838L9.77903 15.3363H0.954699L0.516667 15.6296C0.232551 15.8206 0 16.2533 0 16.5916" fill="url(#paint22_linear)"/>
</g>
</g>
</g>
</g>
</g>
<g opacity="0.199997">
<g opacity="0.199997">
<g opacity="0.199997">
<g opacity="0.199997">
<g opacity="0.199997">
<path opacity="0.199997" d="M3.37109 25.6597V30.9521L13.1509 24.4049H4.32683L3.88828 24.6979C3.60339 24.8882 3.37109 25.3214 3.37109 25.6597" fill="url(#paint23_linear)"/>
</g>
</g>
</g>
</g>
</g>
<g opacity="0.149994">
<g opacity="0.149994">
<g opacity="0.149994">
<g opacity="0.149994">
<g opacity="0.149994">
<path opacity="0.149994" d="M11.5039 31.5672V36.8594L21.2835 30.3116H12.4581L12.0198 30.6051C11.7357 30.7954 11.5039 31.2279 11.5039 31.5672" fill="url(#paint24_linear)"/>
</g>
</g>
</g>
</g>
</g>
<path d="M0.516667 15.6296C0.232036 15.8206 0 16.2533 0 16.5916V21.8838L22.3232 1.03159L0.516667 15.6296Z" fill="url(#paint25_linear)"/>
<path d="M12.0125 30.6081C11.7286 30.7983 11.4961 31.2308 11.4961 31.5701L11.4966 36.8623L33.8198 16.0099L12.0125 30.6081Z" fill="url(#paint26_linear)"/>
<path d="M3.88828 24.6979C3.60339 24.8882 3.37109 25.3214 3.37109 25.6597V30.9521L25.6943 10.0997L3.88828 24.6979Z" fill="url(#paint27_linear)"/>
<path d="M19.6089 31.4139L11.5 36.8584L19.6089 32.638V31.4139Z" fill="url(#paint28_linear)"/>
<g clip-path="url(#clip0)">
<path d="M3.12964 16.0585L0 21.9668H30.8288L33.9592 16.0585H3.12964Z" fill="url(#paint29_linear)"/>
<path d="M30.8293 21.9678H0L3.1299 16.0595H33.9595L30.8293 21.9678Z" fill="url(#paint30_linear)"/>
<g opacity="0.300003">
<g opacity="0.300003">
<path opacity="0.300003" d="M7.13281 21.9697H17.9657L26.8136 16.0615H15.9815L7.13281 21.9697Z" fill="#07A279"/>
</g>
</g>
<path d="M30.8221 21.9717L33.9523 16.0634L22.5703 21.9717H30.8221Z" fill="url(#paint31_linear)"/>
<path d="M3.1299 16.0595L0 21.9678L11.3812 16.0595H3.1299Z" fill="url(#paint32_linear)"/>
<path d="M15.2199 1.08107C14.7026 1.08107 14.2812 1.49673 14.2812 2.00575V6.52637L22.4118 1.08107H15.2199Z" fill="url(#paint33_linear)"/>
<path d="M14.2695 6.52344V2.00307C14.2695 1.49405 14.6909 1.07839 15.2084 1.07839H22.4003L14.2695 6.52344Z" fill="url(#paint34_linear)"/>
<path d="M23.3639 6.9905C22.8479 6.9905 22.4258 7.40692 22.4258 7.91594V12.4355L30.5568 6.9905H23.3639Z" fill="url(#paint35_linear)"/>
<path d="M22.4141 12.4365V7.91692C22.4141 7.40765 22.8362 6.99173 23.3522 6.99173H30.5451L22.4141 12.4365Z" fill="url(#paint36_linear)"/>
<path d="M22.4141 12.4365L30.5446 6.99173L22.4141 11.2124V12.4365Z" fill="url(#paint37_linear)"/>
<path d="M14.2695 6.52539L22.4003 1.08034L14.2695 5.3013V6.52539Z" fill="url(#paint38_linear)"/>
<path d="M11.5391 36.9453H18.7305C19.2467 36.9453 19.6699 36.5279 19.6699 36.0201L19.6694 31.5005L11.5391 36.9453Z" fill="url(#paint39_linear)"/>
<path d="M19.6576 31.5008L19.6582 36.0204C19.6582 36.5281 19.2347 36.9453 18.7185 36.9453H11.5273L19.6576 31.5008Z" fill="url(#paint40_linear)"/>
<path d="M3.39844 31.0381H10.5901C11.1074 31.0381 11.5295 30.6224 11.5295 30.1134L11.529 25.5933L3.39844 31.0381Z" fill="url(#paint41_linear)"/>
<path d="M11.5056 25.5952L11.5061 30.1154C11.5061 30.6244 11.0839 31.04 10.5667 31.04H3.375L11.5056 25.5952Z" fill="url(#paint42_linear)"/>
<path d="M11.5056 25.5952L3.375 31.04L11.5056 26.8193V25.5952Z" fill="url(#paint43_linear)"/>
<path d="M0.517772 15.7123C0.232648 15.9036 0 16.3363 0 16.6746V21.9668L21.9121 7.33551C22.197 7.14473 22.4307 6.71228 22.4307 6.37344V1.08103L0.517772 15.7123Z" fill="url(#paint44_linear)"/>
<path d="M12.0451 30.6908C11.7605 30.8808 11.5273 31.3135 11.5273 31.6529L11.5279 36.9453L33.4397 22.3138C33.7256 22.1232 33.9585 21.6898 33.9585 21.3517V16.0598L12.0451 30.6908Z" fill="url(#paint45_linear)"/>
<path d="M3.91673 24.7839C3.63134 24.9741 3.39844 25.4073 3.39844 25.7457V31.0381L30.0437 13.2459C30.3288 13.0566 30.5627 12.6229 30.5627 12.2848V6.99213L3.91673 24.7839Z" fill="url(#paint46_linear)"/>
<g opacity="0.300003">
<g opacity="0.300003">
<g opacity="0.300003">
<g opacity="0.300003">
<g opacity="0.300003">
<path opacity="0.300003" d="M16.0088 22.4707L26.7706 15.2844H17.923L7.16016 22.4707H16.0088Z" fill="url(#paint47_linear)"/>
</g>
</g>
</g>
</g>
</g>
<g opacity="0.149994">
<g opacity="0.149994">
<g opacity="0.149994">
<g opacity="0.149994">
<g opacity="0.149994">
<path opacity="0.149994" d="M33.9582 21.2146V15.9227L24.1523 22.4697H33L33.4394 22.1767C33.7253 21.9861 33.9582 21.5527 33.9582 21.2146Z" fill="url(#paint48_linear)"/>
</g>
</g>
</g>
</g>
</g>
<g opacity="0.199997">
<g opacity="0.199997">
<g opacity="0.199997">
<g opacity="0.199997">
<g opacity="0.199997">
<path opacity="0.199997" d="M30.5754 12.1467V6.85456L20.7695 13.4023H29.6182L30.0566 13.108C30.3415 12.9185 30.5754 12.485 30.5754 12.1467Z" fill="url(#paint49_linear)"/>
</g>
</g>
</g>
</g>
</g>
<g opacity="0.300003">
<g opacity="0.300003">
<g opacity="0.300003">
<g opacity="0.300003">
<g opacity="0.300003">
<path opacity="0.300003" d="M22.4153 6.23732V0.944651L12.6094 7.49219H21.4573L21.897 7.19914C22.1821 7.00835 22.4153 6.5759 22.4153 6.23732Z" fill="url(#paint50_linear)"/>
</g>
</g>
</g>
</g>
</g>
<g opacity="0.149994">
<g opacity="0.149994">
<g opacity="0.149994">
<g opacity="0.149994">
<g opacity="0.149994">
<path opacity="0.149994" d="M0 16.5369V21.8291L9.80484 15.2816H0.957218L0.51803 15.5749C0.233165 15.7659 0 16.1986 0 16.5369" fill="url(#paint51_linear)"/>
</g>
</g>
</g>
</g>
</g>
<g opacity="0.199997">
<g opacity="0.199997">
<g opacity="0.199997">
<g opacity="0.199997">
<g opacity="0.199997">
<path opacity="0.199997" d="M3.37891 25.605V30.8975L13.1845 24.3502H4.33716L3.89745 24.6432C3.61181 24.8335 3.37891 25.2667 3.37891 25.605" fill="url(#paint52_linear)"/>
</g>
</g>
</g>
</g>
</g>
<g opacity="0.149994">
<g opacity="0.149994">
<g opacity="0.149994">
<g opacity="0.149994">
<g opacity="0.149994">
<path opacity="0.149994" d="M11.5352 31.5125V36.8047L21.3405 30.2569H12.4919L12.0524 30.5505C11.7675 30.7407 11.5352 31.1732 11.5352 31.5125" fill="url(#paint53_linear)"/>
</g>
</g>
</g>
</g>
</g>
<path d="M0.51803 15.5749C0.232648 15.7659 0 16.1986 0 16.5369V21.8291L22.3821 0.976901L0.51803 15.5749Z" fill="url(#paint54_linear)"/>
<path d="M12.0451 30.5534C11.7605 30.7437 11.5273 31.1761 11.5273 31.5155L11.5279 36.8076L33.9099 15.9552L12.0451 30.5534Z" fill="url(#paint55_linear)"/>
<path d="M3.89745 24.6432C3.61181 24.8335 3.37891 25.2667 3.37891 25.605V30.8975L25.761 10.045L3.89745 24.6432Z" fill="url(#paint56_linear)"/>
<path d="M19.6615 31.3592L11.5312 36.8037L19.6615 32.5833V31.3592Z" fill="url(#paint57_linear)"/>
<g clip-path="url(#clip1)">
<path d="M49.9569 19.9453V7.12931H47.4549V19.9453H49.9569ZM61.1833 9.36131V7.12931H51.9853V9.36131H55.3333V19.9453H57.8353V9.36131H61.1833ZM67.6138 15.8953V13.7173H62.0698V15.8953H67.6138ZM77.6359 17.2453C77.6359 16.2373 77.2039 15.5893 76.3039 15.1213C77.1139 14.6533 77.4919 14.0233 77.4919 13.1413C77.4919 11.5753 76.3579 10.5673 74.5939 10.5673H69.9679V19.9453H74.7559C76.5199 19.9453 77.6359 18.9013 77.6359 17.2453ZM74.0359 12.2953C74.7739 12.2953 75.1699 12.6553 75.1699 13.2853C75.1699 13.9333 74.7739 14.3113 74.0359 14.3113H72.2899V12.2953H74.0359ZM75.3139 17.1193C75.3139 17.7853 74.8819 18.2173 74.1439 18.2173H72.2899V16.0213H74.1439C74.8819 16.0213 75.3139 16.4353 75.3139 17.1193ZM87.3365 15.2473C87.3365 13.5553 87.1205 12.5113 86.2745 11.6113C85.6805 10.9813 84.7445 10.4593 83.3585 10.4593C81.9725 10.4593 81.0545 10.9993 80.4605 11.6113C79.6145 12.5113 79.3985 13.5553 79.3985 15.2473C79.3985 16.9393 79.6145 18.0013 80.4605 18.9013C81.0545 19.5133 81.9725 20.0533 83.3585 20.0533C84.7445 20.0533 85.6805 19.5133 86.2745 18.9013C87.1385 18.0193 87.3365 16.9393 87.3365 15.2473ZM84.9965 15.2473C84.9965 16.2193 84.9425 17.0653 84.4565 17.5333C84.1865 17.8033 83.8265 17.9473 83.3585 17.9473C82.9085 17.9473 82.5485 17.8033 82.2785 17.5333C81.7925 17.0653 81.7385 16.2193 81.7385 15.2473C81.7385 14.2933 81.7925 13.4473 82.2785 12.9793C82.5485 12.7093 82.9085 12.5653 83.3585 12.5653C83.8265 12.5653 84.1865 12.7093 84.4565 12.9793C84.9425 13.4473 84.9965 14.2933 84.9965 15.2473ZM96.8663 19.9453V10.5673H90.0083V14.3653C90.0083 17.7313 89.2343 17.8753 88.4423 17.8753H88.1543V19.9453H89.2703C91.1783 19.9453 92.2763 18.9013 92.2763 14.8873V12.6373H94.5263V19.9453H96.8663ZM107.042 15.2473C107.042 13.5553 106.826 12.5113 105.98 11.6113C105.386 10.9813 104.45 10.4593 103.064 10.4593C101.678 10.4593 100.76 10.9993 100.166 11.6113C99.3195 12.5113 99.1035 13.5553 99.1035 15.2473C99.1035 16.9393 99.3195 18.0013 100.166 18.9013C100.76 19.5133 101.678 20.0533 103.064 20.0533C104.45 20.0533 105.386 19.5133 105.98 18.9013C106.844 18.0193 107.042 16.9393 107.042 15.2473ZM104.702 15.2473C104.702 16.2193 104.648 17.0653 104.162 17.5333C103.892 17.8033 103.532 17.9473 103.064 17.9473C102.614 17.9473 102.254 17.8033 101.984 17.5333C101.498 17.0653 101.444 16.2193 101.444 15.2473C101.444 14.2933 101.498 13.4473 101.984 12.9793C102.254 12.7093 102.614 12.5653 103.064 12.5653C103.532 12.5653 103.892 12.7093 104.162 12.9793C104.648 13.4473 104.702 14.2933 104.702 15.2473ZM116.977 19.9453V10.5673H114.619V14.1133H111.613V10.5673H109.255V19.9453H111.613V16.1833H114.619V19.9453H116.977ZM126.112 12.6373V10.5673H118.3V12.6373H121.054V19.9453H123.412V12.6373H126.112ZM135.241 15.9853V14.9953C135.241 12.3313 133.765 10.4593 131.155 10.4593C128.725 10.4593 127.069 12.1873 127.069 15.2473C127.069 19.0453 129.193 20.0533 131.407 20.0533C133.099 20.0533 134.017 19.5493 134.971 18.5773L133.549 17.1913C132.955 17.7673 132.451 18.0733 131.425 18.0733C130.093 18.0733 129.373 17.2093 129.373 15.9853H135.241ZM132.937 14.3833H129.373C129.391 13.9693 129.427 13.7173 129.589 13.3753C129.841 12.8173 130.363 12.4033 131.155 12.4033C131.947 12.4033 132.469 12.8173 132.721 13.3753C132.883 13.7173 132.919 13.9693 132.937 14.3833ZM134.197 9.03731V6.78731H132.199V9.03731H134.197ZM130.219 9.03731V6.78731H128.221V9.03731H130.219ZM145.246 15.2473C145.246 13.6813 145.174 12.2233 144.274 11.3053C143.752 10.7653 142.924 10.4593 142.006 10.4593C140.998 10.4593 140.314 10.7293 139.666 11.4493V10.5673H137.398V23.3833H139.738V19.1173C140.332 19.8013 141.052 20.0533 142.006 20.0533C142.924 20.0533 143.752 19.7473 144.274 19.2073C145.174 18.2893 145.246 16.8133 145.246 15.2473ZM142.906 15.2473C142.906 16.7593 142.726 17.9473 141.322 17.9473C139.918 17.9473 139.738 16.7593 139.738 15.2473C139.738 13.7353 139.918 12.5653 141.322 12.5653C142.726 12.5653 142.906 13.7353 142.906 15.2473Z" fill="#322E28"/>
<path d="M50.3439 34.9453V30.3823H46.6899V34.9453H47.6079V31.1833H49.4259V34.9453H50.3439ZM55.2982 34.9453V30.3823H52.1752V32.2813C52.1752 34.0453 51.7072 34.1353 51.3112 34.1353H51.1672V34.9453H51.5992C52.4902 34.9453 53.0572 34.4413 53.0572 32.5063V31.1833H54.3802V34.9453H55.2982ZM60.1192 34.9453V31.8943C60.1192 30.8683 59.4982 30.3283 58.2382 30.3283C57.4732 30.3283 57.0322 30.4903 56.6092 30.9943L57.2032 31.5613C57.4642 31.2373 57.7162 31.1113 58.2022 31.1113C58.9222 31.1113 59.2012 31.3813 59.2012 31.9663V32.2903H58.0042C56.9512 32.2903 56.4202 32.8393 56.4202 33.6043C56.4202 33.9913 56.5462 34.3423 56.7802 34.5853C57.0592 34.8643 57.4372 34.9993 58.0042 34.9993C58.5712 34.9993 58.8862 34.8643 59.2192 34.5313V34.9453H60.1192ZM59.2012 33.2983C59.2012 33.6223 59.1472 33.8383 59.0032 33.9733C58.7602 34.1983 58.4992 34.2343 58.1752 34.2343C57.5722 34.2343 57.3112 34.0093 57.3112 33.5863C57.3112 33.1633 57.5902 32.9293 58.1482 32.9293H59.2012V33.2983ZM64.5788 31.1833V30.3823H60.8168V31.1833H62.2658V34.9453H63.1838V31.1833H64.5788ZM69.6237 32.6503C69.6237 33.6043 69.1647 34.1533 68.2737 34.1713V31.1473C69.2187 31.1743 69.6237 31.7233 69.6237 32.6503ZM68.2737 36.7903V34.9903C69.6597 34.9183 70.5417 34.1623 70.5417 32.6413C70.5417 31.1293 69.6777 30.4093 68.2737 30.3283V28.5373H67.3557V30.3283C65.9517 30.4093 65.0877 31.1293 65.0877 32.6413C65.0877 34.1623 65.9697 34.9183 67.3557 34.9903V36.7903H68.2737ZM66.0057 32.6503C66.0057 31.7233 66.4107 31.1743 67.3557 31.1473V34.1713C66.4647 34.1533 66.0057 33.6043 66.0057 32.6503ZM75.3122 32.6593C75.3122 31.8943 75.2042 31.3183 74.7722 30.8683C74.4752 30.5623 74.0252 30.3283 73.4042 30.3283C72.7832 30.3283 72.3422 30.5623 72.0452 30.8683C71.6132 31.3183 71.5052 31.8943 71.5052 32.6593C71.5052 33.4333 71.6132 34.0093 72.0452 34.4593C72.3422 34.7653 72.7832 34.9993 73.4042 34.9993C74.0252 34.9993 74.4752 34.7653 74.7722 34.4593C75.2042 34.0093 75.3122 33.4333 75.3122 32.6593ZM74.3942 32.6593C74.3942 33.1543 74.3582 33.6313 74.0792 33.9103C73.9082 34.0813 73.6742 34.1803 73.4042 34.1803C73.1342 34.1803 72.9092 34.0813 72.7382 33.9103C72.4592 33.6313 72.4232 33.1543 72.4232 32.6593C72.4232 32.1643 72.4592 31.6873 72.7382 31.4083C72.9092 31.2373 73.1342 31.1473 73.4042 31.1473C73.6742 31.1473 73.9082 31.2373 74.0792 31.4083C74.3582 31.6873 74.3942 32.1643 74.3942 32.6593ZM80.2902 32.6593C80.2902 31.9123 80.2182 31.1833 79.7772 30.7333C79.5252 30.4813 79.1292 30.3283 78.6612 30.3283C78.1752 30.3283 77.7972 30.4543 77.4552 30.8683V30.3823H76.5552V36.7903H77.4732V34.4773C77.8062 34.8823 78.1842 34.9993 78.6702 34.9993C79.1382 34.9993 79.5252 34.8463 79.7772 34.5943C80.2182 34.1443 80.2902 33.4063 80.2902 32.6593ZM79.3722 32.6593C79.3722 33.4693 79.2552 34.1803 78.4272 34.1803C77.5902 34.1803 77.4732 33.4693 77.4732 32.6593C77.4732 31.8493 77.5902 31.1473 78.4272 31.1473C79.2552 31.1473 79.3722 31.8493 79.3722 32.6593ZM86.0658 34.9453V30.3823H85.1658L83.8068 33.1003L82.4388 30.3823H81.5298V34.9453H82.4478V32.0203L83.5188 34.1083H84.0948L85.1478 32.0203V34.9453H86.0658ZM90.8897 34.9453V31.8943C90.8897 30.8683 90.2687 30.3283 89.0087 30.3283C88.2437 30.3283 87.8027 30.4903 87.3797 30.9943L87.9737 31.5613C88.2347 31.2373 88.4867 31.1113 88.9727 31.1113C89.6927 31.1113 89.9717 31.3813 89.9717 31.9663V32.2903H88.7747C87.7217 32.2903 87.1907 32.8393 87.1907 33.6043C87.1907 33.9913 87.3167 34.3423 87.5507 34.5853C87.8297 34.8643 88.2077 34.9993 88.7747 34.9993C89.3417 34.9993 89.6567 34.8643 89.9897 34.5313V34.9453H90.8897ZM89.9717 33.2983C89.9717 33.6223 89.9177 33.8383 89.7737 33.9733C89.5307 34.1983 89.2697 34.2343 88.9457 34.2343C88.3427 34.2343 88.0817 34.0093 88.0817 33.5863C88.0817 33.1633 88.3607 32.9293 88.9187 32.9293H89.9717V33.2983ZM98.1213 34.9453V30.3823H94.4673V34.9453H95.3853V31.1833H97.2033V34.9453H98.1213ZM103.13 32.6593C103.13 31.8943 103.022 31.3183 102.59 30.8683C102.293 30.5623 101.843 30.3283 101.222 30.3283C100.601 30.3283 100.16 30.5623 99.8626 30.8683C99.4306 31.3183 99.3226 31.8943 99.3226 32.6593C99.3226 33.4333 99.4306 34.0093 99.8626 34.4593C100.16 34.7653 100.601 34.9993 101.222 34.9993C101.843 34.9993 102.293 34.7653 102.59 34.4593C103.022 34.0093 103.13 33.4333 103.13 32.6593ZM102.212 32.6593C102.212 33.1543 102.176 33.6313 101.897 33.9103C101.726 34.0813 101.492 34.1803 101.222 34.1803C100.952 34.1803 100.727 34.0813 100.556 33.9103C100.277 33.6313 100.241 33.1543 100.241 32.6593C100.241 32.1643 100.277 31.6873 100.556 31.4083C100.727 31.2373 100.952 31.1473 101.222 31.1473C101.492 31.1473 101.726 31.2373 101.897 31.4083C102.176 31.6873 102.212 32.1643 102.212 32.6593ZM108.909 34.9453V30.3823H108.009L106.65 33.1003L105.282 30.3823H104.373V34.9453H105.291V32.0203L106.362 34.1083H106.938L107.991 32.0203V34.9453H108.909ZM113.966 32.6593C113.966 31.8943 113.858 31.3183 113.426 30.8683C113.129 30.5623 112.679 30.3283 112.058 30.3283C111.437 30.3283 110.996 30.5623 110.699 30.8683C110.267 31.3183 110.159 31.8943 110.159 32.6593C110.159 33.4333 110.267 34.0093 110.699 34.4593C110.996 34.7653 111.437 34.9993 112.058 34.9993C112.679 34.9993 113.129 34.7653 113.426 34.4593C113.858 34.0093 113.966 33.4333 113.966 32.6593ZM113.048 32.6593C113.048 33.1543 113.012 33.6313 112.733 33.9103C112.562 34.0813 112.328 34.1803 112.058 34.1803C111.788 34.1803 111.563 34.0813 111.392 33.9103C111.113 33.6313 111.077 33.1543 111.077 32.6593C111.077 32.1643 111.113 31.6873 111.392 31.4083C111.563 31.2373 111.788 31.1473 112.058 31.1473C112.328 31.1473 112.562 31.2373 112.733 31.4083C113.012 31.6873 113.048 32.1643 113.048 32.6593ZM121.698 36.1153V34.1443H121.05V30.3823H120.132V34.1443H118.593V30.3823H117.675V34.1443H116.127V30.3823H115.209V34.9453H120.825V36.1153H121.698ZM126.469 34.9453V30.3823H125.551L123.598 33.4783V30.3823H122.68V34.9453H123.598L125.551 31.8043V34.9453H126.469ZM134.742 34.9453V28.5373H133.761V31.2823H131.169V28.5373H130.197V34.9453H131.169V32.1463H133.761V34.9453H134.742ZM137.41 34.9453V28.5373H136.438V34.9453H137.41ZM141.235 34.9453L138.544 31.5613L141.01 28.5373H139.813L137.419 31.5883L140.002 34.9453H141.235ZM146.322 31.7413C146.322 30.4003 146.304 29.7613 145.674 29.1313C145.26 28.7173 144.72 28.4833 144.018 28.4833C143.316 28.4833 142.776 28.7173 142.362 29.1313C141.732 29.7613 141.714 30.4003 141.714 31.7413C141.714 33.0823 141.732 33.7213 142.362 34.3513C142.776 34.7653 143.316 34.9993 144.018 34.9993C144.72 34.9993 145.26 34.7653 145.674 34.3513C146.304 33.7213 146.322 33.0823 146.322 31.7413ZM145.35 31.7413C145.35 33.0103 145.296 33.3973 144.972 33.7303C144.729 33.9823 144.405 34.1353 144.018 34.1353C143.631 34.1353 143.307 33.9823 143.064 33.7303C142.749 33.3883 142.686 33.0103 142.686 31.7413C142.686 30.4723 142.749 30.0853 143.064 29.7433C143.307 29.4913 143.631 29.3473 144.018 29.3473C144.405 29.3473 144.729 29.4913 144.972 29.7433C145.296 30.0763 145.35 30.4723 145.35 31.7413Z" fill="#322E28"/>
</g>
</g>
<defs>
<linearGradient id="paint0_linear" x1="-0.000174285" y1="19.0673" x2="29.0282" y2="19.0673" gradientUnits="userSpaceOnUse">
<stop stop-color="#C4AE2B"/>
<stop offset="0.0452979" stop-color="#C4AE2B"/>
<stop offset="0.175497" stop-color="#C4AE2B"/>
<stop offset="0.540301" stop-color="#259747"/>
<stop offset="1" stop-color="#1B4274"/>
</linearGradient>
<linearGradient id="paint1_linear" x1="-5.23433" y1="19.0683" x2="31.9264" y2="19.0683" gradientUnits="userSpaceOnUse">
<stop stop-color="#9D3D2A"/>
<stop offset="0.198929" stop-color="#259747"/>
<stop offset="0.5" stop-color="#259747"/>
<stop offset="0.742494" stop-color="#259747"/>
<stop offset="1" stop-color="#1B4274"/>
</linearGradient>
<linearGradient id="paint2_linear" x1="0.20358" y1="19.0722" x2="30.0017" y2="19.0722" gradientUnits="userSpaceOnUse">
<stop stop-color="#C03038"/>
<stop offset="0.198929" stop-color="#50B548"/>
<stop offset="0.5" stop-color="#50B548"/>
<stop offset="0.742494" stop-color="#50B548"/>
<stop offset="1" stop-color="#108689"/>
</linearGradient>
<linearGradient id="paint3_linear" x1="1.25103" y1="19.0685" x2="48.475" y2="19.0685" gradientUnits="userSpaceOnUse">
<stop stop-color="#C03038"/>
<stop offset="0.198929" stop-color="#50B548"/>
<stop offset="0.5" stop-color="#50B548"/>
<stop offset="0.742494" stop-color="#50B548"/>
<stop offset="1" stop-color="#108689"/>
</linearGradient>
<linearGradient id="paint4_linear" x1="-2.53992" y1="3.85844" x2="17.9101" y2="3.85844" gradientUnits="userSpaceOnUse">
<stop stop-color="#A5CD3D"/>
<stop offset="1" stop-color="#BA3E26"/>
</linearGradient>
<linearGradient id="paint5_linear" x1="18.8222" y1="3.85564" x2="-12.2816" y2="3.85564" gradientUnits="userSpaceOnUse">
<stop stop-color="#9D3D2A"/>
<stop offset="0.263896" stop-color="#259747"/>
<stop offset="0.663293" stop-color="#259747"/>
<stop offset="0.826592" stop-color="#259747"/>
<stop offset="1" stop-color="#1B4274"/>
</linearGradient>
<linearGradient id="paint6_linear" x1="2.05427" y1="9.76776" x2="27.1061" y2="9.76776" gradientUnits="userSpaceOnUse">
<stop stop-color="#83C341"/>
<stop offset="1" stop-color="#259747"/>
</linearGradient>
<linearGradient id="paint7_linear" x1="-9.81202" y1="9.76874" x2="30.1407" y2="9.76874" gradientUnits="userSpaceOnUse">
<stop stop-color="#9D3D2A"/>
<stop offset="0.198929" stop-color="#259747"/>
<stop offset="0.5" stop-color="#259747"/>
<stop offset="0.742494" stop-color="#259747"/>
<stop offset="1" stop-color="#1B4274"/>
</linearGradient>
<linearGradient id="paint8_linear" x1="-2.61429" y1="9.76849" x2="32.444" y2="9.7685" gradientUnits="userSpaceOnUse">
<stop stop-color="#C03038"/>
<stop offset="0.198929" stop-color="#50B548"/>
<stop offset="0.5" stop-color="#50B548"/>
<stop offset="0.742494" stop-color="#50B548"/>
<stop offset="1" stop-color="#108689"/>
</linearGradient>
<linearGradient id="paint9_linear" x1="23.2099" y1="3.85759" x2="-9.35204" y2="3.85759" gradientUnits="userSpaceOnUse">
<stop stop-color="#C03038"/>
<stop offset="0.198929" stop-color="#50B548"/>
<stop offset="0.5" stop-color="#50B548"/>
<stop offset="0.742494" stop-color="#50B548"/>
<stop offset="1" stop-color="#108689"/>
</linearGradient>
<linearGradient id="paint10_linear" x1="6.73518" y1="34.2777" x2="32.9999" y2="34.2777" gradientUnits="userSpaceOnUse">
<stop stop-color="#3D63AD"/>
<stop offset="1" stop-color="#1B4274"/>
</linearGradient>
<linearGradient id="paint11_linear" x1="41.3773" y1="34.2779" x2="12.584" y2="34.2779" gradientUnits="userSpaceOnUse">
<stop stop-color="#9D3D2A"/>
<stop offset="0.198929" stop-color="#259747"/>
<stop offset="0.5" stop-color="#259747"/>
<stop offset="0.742494" stop-color="#259747"/>
<stop offset="1" stop-color="#1B4274"/>
</linearGradient>
<linearGradient id="paint12_linear" x1="3.39059" y1="28.3703" x2="35.8542" y2="28.3703" gradientUnits="userSpaceOnUse">
<stop stop-color="#83C341"/>
<stop offset="1" stop-color="#259747"/>
</linearGradient>
<linearGradient id="paint13_linear" x1="36.2157" y1="28.3723" x2="1.72813" y2="28.3723" gradientUnits="userSpaceOnUse">
<stop stop-color="#9D3D2A"/>
<stop offset="0.198929" stop-color="#259747"/>
<stop offset="0.5" stop-color="#259747"/>
<stop offset="0.742494" stop-color="#259747"/>
<stop offset="1" stop-color="#1B4274"/>
</linearGradient>
<linearGradient id="paint14_linear" x1="36.4463" y1="28.3723" x2="1.38795" y2="28.3723" gradientUnits="userSpaceOnUse">
<stop stop-color="#C03038"/>
<stop offset="0.198929" stop-color="#50B548"/>
<stop offset="0.5" stop-color="#50B548"/>
<stop offset="0.742494" stop-color="#50B548"/>
<stop offset="1" stop-color="#108689"/>
</linearGradient>
<linearGradient id="paint15_linear" x1="-2.97352" y1="21.0026" x2="23.1822" y2="3.12074" gradientUnits="userSpaceOnUse">
<stop stop-color="#FCE930"/>
<stop offset="1" stop-color="#ED2A2A"/>
</linearGradient>
<linearGradient id="paint16_linear" x1="7.65765" y1="36.5572" x2="33.8131" y2="18.6756" gradientUnits="userSpaceOnUse">
<stop stop-color="#33C4F3"/>
<stop offset="1" stop-color="#108689"/>
</linearGradient>
<linearGradient id="paint17_linear" x1="2.34485" y1="28.7822" x2="28.5005" y2="10.9004" gradientUnits="userSpaceOnUse">
<stop stop-color="#E3E331"/>
<stop offset="1" stop-color="#50B548"/>
</linearGradient>
<linearGradient id="paint18_linear" x1="-4.80693" y1="18.9323" x2="24.7444" y2="18.9323" gradientUnits="userSpaceOnUse">
<stop stop-color="#E3E331"/>
<stop offset="1" stop-color="#50B548"/>
</linearGradient>
<linearGradient id="paint19_linear" x1="18.1158" y1="19.2509" x2="32.8923" y2="19.2509" gradientUnits="userSpaceOnUse">
<stop stop-color="#33C4F3"/>
<stop offset="1" stop-color="#108689"/>
</linearGradient>
<linearGradient id="paint20_linear" x1="14.7405" y1="10.1831" x2="29.5175" y2="10.1831" gradientUnits="userSpaceOnUse">
<stop stop-color="#E3E331"/>
<stop offset="1" stop-color="#50B548"/>
</linearGradient>
<linearGradient id="paint21_linear" x1="6.60399" y1="4.27314" x2="21.3805" y2="4.27314" gradientUnits="userSpaceOnUse">
<stop stop-color="#FCE930"/>
<stop offset="1" stop-color="#ED2A2A"/>
</linearGradient>
<linearGradient id="paint22_linear" x1="15.7525" y1="18.61" x2="0.977513" y2="18.61" gradientUnits="userSpaceOnUse">
<stop stop-color="#FCE930"/>
<stop offset="1" stop-color="#ED2A2A"/>
</linearGradient>
<linearGradient id="paint23_linear" x1="19.125" y1="27.6785" x2="4.34867" y2="27.6785" gradientUnits="userSpaceOnUse">
<stop stop-color="#E3E331"/>
<stop offset="1" stop-color="#50B548"/>
</linearGradient>
<linearGradient id="paint24_linear" x1="27.2573" y1="33.5856" x2="12.4813" y2="33.5856" gradientUnits="userSpaceOnUse">
<stop stop-color="#33C4F3"/>
<stop offset="1" stop-color="#108689"/>
</linearGradient>
<linearGradient id="paint25_linear" x1="-2.35439" y1="21.8573" x2="16.5744" y2="6.10129" gradientUnits="userSpaceOnUse">
<stop stop-color="#FFDF2C"/>
<stop offset="1" stop-color="#F3762D"/>
</linearGradient>
<linearGradient id="paint26_linear" x1="6.24847" y1="36.931" x2="28.1088" y2="21.0259" gradientUnits="userSpaceOnUse">
<stop stop-color="#75EBFB"/>
<stop offset="1" stop-color="#1995A3"/>
</linearGradient>
<linearGradient id="paint27_linear" x1="-0.341742" y1="29.8703" x2="22.2268" y2="13.4175" gradientUnits="userSpaceOnUse">
<stop stop-color="#F7FE05"/>
<stop offset="1" stop-color="#65BC46"/>
</linearGradient>
<linearGradient id="paint28_linear" x1="45.7337" y1="34.1363" x2="10.6753" y2="34.1363" gradientUnits="userSpaceOnUse">
<stop stop-color="#C03038"/>
<stop offset="0.198929" stop-color="#50B548"/>
<stop offset="0.5" stop-color="#50B548"/>
<stop offset="0.742494" stop-color="#50B548"/>
<stop offset="1" stop-color="#108689"/>
</linearGradient>
<linearGradient id="paint29_linear" x1="-0.000174745" y1="19.0126" x2="29.1049" y2="19.0126" gradientUnits="userSpaceOnUse">
<stop stop-color="#C4AE2B"/>
<stop offset="0.0452979" stop-color="#C4AE2B"/>
<stop offset="0.175497" stop-color="#C4AE2B"/>
<stop offset="0.540301" stop-color="#259747"/>
<stop offset="1" stop-color="#1B4274"/>
</linearGradient>
<linearGradient id="paint30_linear" x1="-5.24814" y1="19.0136" x2="32.0107" y2="19.0136" gradientUnits="userSpaceOnUse">
<stop stop-color="#9D3D2A"/>
<stop offset="0.198929" stop-color="#259747"/>
<stop offset="0.5" stop-color="#259747"/>
<stop offset="0.742494" stop-color="#259747"/>
<stop offset="1" stop-color="#1B4274"/>
</linearGradient>
<linearGradient id="paint31_linear" x1="0.203298" y1="19.0175" x2="30.08" y2="19.0175" gradientUnits="userSpaceOnUse">
<stop stop-color="#C03038"/>
<stop offset="0.198929" stop-color="#50B548"/>
<stop offset="0.5" stop-color="#50B548"/>
<stop offset="0.742494" stop-color="#50B548"/>
<stop offset="1" stop-color="#108689"/>
</linearGradient>
<linearGradient id="paint32_linear" x1="1.25433" y1="19.0138" x2="48.6029" y2="19.0138" gradientUnits="userSpaceOnUse">
<stop stop-color="#C03038"/>
<stop offset="0.198929" stop-color="#50B548"/>
<stop offset="0.5" stop-color="#50B548"/>
<stop offset="0.742494" stop-color="#50B548"/>
<stop offset="1" stop-color="#108689"/>
</linearGradient>
<linearGradient id="paint33_linear" x1="-2.54515" y1="3.80375" x2="17.9588" y2="3.80375" gradientUnits="userSpaceOnUse">
<stop stop-color="#A5CD3D"/>
<stop offset="1" stop-color="#BA3E26"/>
</linearGradient>
<linearGradient id="paint34_linear" x1="18.8734" y1="3.80095" x2="-12.3125" y2="3.80095" gradientUnits="userSpaceOnUse">
<stop stop-color="#9D3D2A"/>
<stop offset="0.263896" stop-color="#259747"/>
<stop offset="0.663293" stop-color="#259747"/>
<stop offset="0.826592" stop-color="#259747"/>
<stop offset="1" stop-color="#1B4274"/>
</linearGradient>
<linearGradient id="paint35_linear" x1="2.05926" y1="9.71308" x2="27.1772" y2="9.71308" gradientUnits="userSpaceOnUse">
<stop stop-color="#83C341"/>
<stop offset="1" stop-color="#259747"/>
</linearGradient>
<linearGradient id="paint36_linear" x1="-9.83834" y1="9.71405" x2="30.2199" y2="9.71405" gradientUnits="userSpaceOnUse">
<stop stop-color="#9D3D2A"/>
<stop offset="0.198929" stop-color="#259747"/>
<stop offset="0.5" stop-color="#259747"/>
<stop offset="0.742494" stop-color="#259747"/>
<stop offset="1" stop-color="#1B4274"/>
</linearGradient>
<linearGradient id="paint37_linear" x1="-2.6216" y1="9.71381" x2="32.5293" y2="9.71381" gradientUnits="userSpaceOnUse">
<stop stop-color="#C03038"/>
<stop offset="0.198929" stop-color="#50B548"/>
<stop offset="0.5" stop-color="#50B548"/>
<stop offset="0.742494" stop-color="#50B548"/>
<stop offset="1" stop-color="#108689"/>
</linearGradient>
<linearGradient id="paint38_linear" x1="23.2727" y1="3.8029" x2="-9.37521" y2="3.80291" gradientUnits="userSpaceOnUse">
<stop stop-color="#C03038"/>
<stop offset="0.198929" stop-color="#50B548"/>
<stop offset="0.5" stop-color="#50B548"/>
<stop offset="0.742494" stop-color="#50B548"/>
<stop offset="1" stop-color="#108689"/>
</linearGradient>
<linearGradient id="paint39_linear" x1="6.75383" y1="34.223" x2="33.0878" y2="34.223" gradientUnits="userSpaceOnUse">
<stop stop-color="#3D63AD"/>
<stop offset="1" stop-color="#1B4274"/>
</linearGradient>
<linearGradient id="paint40_linear" x1="41.4874" y1="34.2232" x2="12.6182" y2="34.2232" gradientUnits="userSpaceOnUse">
<stop stop-color="#9D3D2A"/>
<stop offset="0.198929" stop-color="#259747"/>
<stop offset="0.5" stop-color="#259747"/>
<stop offset="0.742494" stop-color="#259747"/>
<stop offset="1" stop-color="#1B4274"/>
</linearGradient>
<linearGradient id="paint41_linear" x1="3.39841" y1="28.3156" x2="35.9477" y2="28.3156" gradientUnits="userSpaceOnUse">
<stop stop-color="#83C341"/>
<stop offset="1" stop-color="#259747"/>
</linearGradient>
<linearGradient id="paint42_linear" x1="36.3102" y1="28.3176" x2="1.73162" y2="28.3176" gradientUnits="userSpaceOnUse">
<stop stop-color="#9D3D2A"/>
<stop offset="0.198929" stop-color="#259747"/>
<stop offset="0.5" stop-color="#259747"/>
<stop offset="0.742494" stop-color="#259747"/>
<stop offset="1" stop-color="#1B4274"/>
</linearGradient>
<linearGradient id="paint43_linear" x1="36.5414" y1="28.3176" x2="1.39054" y2="28.3176" gradientUnits="userSpaceOnUse">
<stop stop-color="#C03038"/>
<stop offset="0.198929" stop-color="#50B548"/>
<stop offset="0.5" stop-color="#50B548"/>
<stop offset="0.742494" stop-color="#50B548"/>
<stop offset="1" stop-color="#108689"/>
</linearGradient>
<linearGradient id="paint44_linear" x1="-2.98136" y1="20.9479" x2="23.1993" y2="3.00176" gradientUnits="userSpaceOnUse">
<stop stop-color="#FCE930"/>
<stop offset="1" stop-color="#ED2A2A"/>
</linearGradient>
<linearGradient id="paint45_linear" x1="7.67877" y1="36.5025" x2="33.8591" y2="18.5566" gradientUnits="userSpaceOnUse">
<stop stop-color="#33C4F3"/>
<stop offset="1" stop-color="#108689"/>
</linearGradient>
<linearGradient id="paint46_linear" x1="2.3499" y1="28.7275" x2="28.5305" y2="10.7814" gradientUnits="userSpaceOnUse">
<stop stop-color="#E3E331"/>
<stop offset="1" stop-color="#50B548"/>
</linearGradient>
<linearGradient id="paint47_linear" x1="-4.81893" y1="18.8776" x2="24.8104" y2="18.8776" gradientUnits="userSpaceOnUse">
<stop stop-color="#E3E331"/>
<stop offset="1" stop-color="#50B548"/>
</linearGradient>
<linearGradient id="paint48_linear" x1="18.1625" y1="19.1962" x2="32.9781" y2="19.1962" gradientUnits="userSpaceOnUse">
<stop stop-color="#33C4F3"/>
<stop offset="1" stop-color="#108689"/>
</linearGradient>
<linearGradient id="paint49_linear" x1="14.7794" y1="10.1284" x2="29.5954" y2="10.1284" gradientUnits="userSpaceOnUse">
<stop stop-color="#E3E331"/>
<stop offset="1" stop-color="#50B548"/>
</linearGradient>
<linearGradient id="paint50_linear" x1="6.61947" y1="4.21845" x2="21.435" y2="4.21845" gradientUnits="userSpaceOnUse">
<stop stop-color="#FCE930"/>
<stop offset="1" stop-color="#ED2A2A"/>
</linearGradient>
<linearGradient id="paint51_linear" x1="15.7941" y1="18.5553" x2="0.980093" y2="18.5553" gradientUnits="userSpaceOnUse">
<stop stop-color="#FCE930"/>
<stop offset="1" stop-color="#ED2A2A"/>
</linearGradient>
<linearGradient id="paint52_linear" x1="19.1744" y1="27.6238" x2="4.35906" y2="27.6238" gradientUnits="userSpaceOnUse">
<stop stop-color="#E3E331"/>
<stop offset="1" stop-color="#50B548"/>
</linearGradient>
<linearGradient id="paint53_linear" x1="27.3301" y1="33.5309" x2="12.5151" y2="33.5309" gradientUnits="userSpaceOnUse">
<stop stop-color="#33C4F3"/>
<stop offset="1" stop-color="#108689"/>
</linearGradient>
<linearGradient id="paint54_linear" x1="-2.36061" y1="21.8026" x2="16.5772" y2="5.99752" gradientUnits="userSpaceOnUse">
<stop stop-color="#FFDF2C"/>
<stop offset="1" stop-color="#F3762D"/>
</linearGradient>
<linearGradient id="paint55_linear" x1="6.26587" y1="36.8763" x2="28.1439" y2="20.9163" gradientUnits="userSpaceOnUse">
<stop stop-color="#75EBFB"/>
<stop offset="1" stop-color="#1995A3"/>
</linearGradient>
<linearGradient id="paint56_linear" x1="-0.343728" y1="29.8156" x2="22.243" y2="13.3061" gradientUnits="userSpaceOnUse">
<stop stop-color="#F7FE05"/>
<stop offset="1" stop-color="#65BC46"/>
</linearGradient>
<linearGradient id="paint57_linear" x1="45.8553" y1="34.0816" x2="10.7044" y2="34.0816" gradientUnits="userSpaceOnUse">
<stop stop-color="#C03038"/>
<stop offset="0.198929" stop-color="#50B548"/>
<stop offset="0.5" stop-color="#50B548"/>
<stop offset="0.742494" stop-color="#50B548"/>
<stop offset="1" stop-color="#108689"/>
</linearGradient>
<clipPath id="clip0">
<rect width="120.72" height="27.0004" fill="white" transform="matrix(1.33333 0 0 -1.33333 0 36.9453)"/>
</clipPath>
<clipPath id="clip1">
<rect width="115" height="36" fill="white" transform="translate(45.9609 0.945312)"/>
</clipPath>
</defs>
</svg>
