<svg width="803" height="657" viewBox="0 0 803 657" fill="none" xmlns="http://www.w3.org/2000/svg">
<path d="M620.98 474.759C615.075 474.759 610.23 469.91 610.23 464C610.23 458.09 615.075 453.24 620.98 453.24C627.112 453.24 631.124 457.18 631.73 463.848C631.957 466.5 631.048 469.076 629.156 471.046C627.112 473.471 624.084 474.759 620.98 474.759ZM620.98 455.438C616.211 455.438 612.35 459.302 612.35 464.076C612.35 468.849 616.211 472.713 620.98 472.713C623.478 472.713 625.976 471.653 627.642 469.834C629.08 468.243 629.837 466.273 629.61 464.227C629.156 458.544 626.052 455.438 620.98 455.438Z" fill="#E6DFD1"/>
<path d="M75.9363 572.655C62.3101 572.655 51.2578 561.593 51.2578 547.954C51.2578 534.315 62.3101 523.253 75.9363 523.253C90.2437 523.253 99.2521 532.194 100.615 547.878C101.145 553.864 99.1007 559.699 94.7858 564.396C90.0923 569.549 82.9764 572.655 75.9363 572.655ZM75.9363 525.374C63.5213 525.374 53.3774 535.528 53.3774 547.954C53.3774 560.381 63.5213 570.534 75.9363 570.534C82.4465 570.534 88.8811 567.73 93.2717 562.957C97.1325 558.714 99.025 553.41 98.5708 548.03C97.2839 533.633 89.0325 525.374 75.9363 525.374Z" fill="#E6DFD1"/>
<path d="M712.199 107.875C702.66 107.875 694.863 100.071 694.863 90.5236C694.863 80.9764 702.66 73.172 712.199 73.172C722.267 73.172 728.55 79.461 729.534 90.4478C729.913 94.691 728.474 98.7826 725.446 102.117C722.116 105.754 717.119 107.875 712.199 107.875ZM712.199 75.2936C703.796 75.2936 696.983 82.113 696.983 90.5236C696.983 98.9342 703.796 105.754 712.199 105.754C716.589 105.754 720.98 103.859 723.932 100.601C726.506 97.7976 727.793 94.2364 727.49 90.5994C726.582 80.7491 721.131 75.2936 712.199 75.2936Z" fill="#E6DFD1"/>
<path d="M82.2898 291.696C79.2617 308.138 58.2169 305.032 46.1048 306.396C37.4749 307.381 28.5422 311.548 25.9684 320.489C25.5899 321.777 27.6338 322.308 28.0123 321.019C32.5544 305.259 52.9936 309.048 65.1814 307.381C73.7356 306.168 82.5926 301.395 84.258 292.226C84.5608 290.938 82.5926 290.408 82.2898 291.696Z" fill="#E6DFD1"/>
<path d="M87.5906 302.228C84.5625 318.671 63.5177 315.564 51.4056 316.928C42.7757 317.913 33.843 322.08 31.2692 331.021C30.8907 332.31 32.9346 332.84 33.3131 331.552C37.8551 315.791 58.2944 319.58 70.4822 317.913C79.0364 316.701 87.8934 311.927 89.5588 302.759C89.7859 301.471 87.8177 300.864 87.5906 302.228Z" fill="#E6DFD1"/>
<path d="M66.9224 121.741C63.8944 125.681 60.8664 129.697 57.8383 133.637C57.0056 134.698 58.8224 135.759 59.6551 134.698C62.6832 130.758 65.7112 126.742 68.7392 122.802C69.5719 121.666 67.7551 120.681 66.9224 121.741Z" fill="#E6DFD1"/>
<path d="M71.164 130.076L63.4426 141.29C62.6856 142.427 64.5024 143.488 65.2594 142.351C67.8332 138.638 70.407 134.926 72.9808 131.137C73.7379 130.076 71.921 129.015 71.164 130.076Z" fill="#E6DFD1"/>
<path d="M96.5197 43.9244C90.4637 36.7262 84.3319 29.5279 78.2758 22.3296C77.3674 21.2688 75.9291 22.7842 76.7618 23.845L95.0057 45.4399C95.9141 46.4249 97.3525 44.9095 96.5197 43.9244Z" fill="#E6DFD1"/>
<path d="M585.244 567.352C582.064 572.883 576.084 571.822 572.375 567.655C570.179 565.154 568.438 562.654 565.41 561.063C560.338 558.335 554.585 558.411 549.437 560.759C548.226 561.29 549.286 563.108 550.497 562.578C555.947 560.153 562.609 560.76 567.227 564.775C569.952 567.124 571.466 570.837 574.797 572.504C579.339 574.777 584.638 572.731 587.136 568.488C587.666 567.2 585.849 566.139 585.244 567.352Z" fill="#E6DFD1"/>
<path d="M582.591 578.566C579.412 584.097 573.432 583.036 569.722 578.869C567.527 576.368 565.786 573.868 562.758 572.277C557.686 569.549 551.933 569.625 546.785 571.974C545.574 572.504 546.633 574.322 547.845 573.792C553.295 571.367 559.957 571.974 564.575 575.989C567.3 578.338 568.814 582.051 572.145 583.718C576.687 585.991 581.986 583.945 584.484 579.702C585.089 578.49 583.273 577.429 582.591 578.566Z" fill="#E6DFD1"/>
<path d="M640.814 486.579C634.077 494.005 627.339 501.506 620.526 508.932C619.618 509.917 621.132 511.432 622.04 510.447C628.778 503.022 635.515 495.52 642.328 488.095C643.236 487.11 641.722 485.594 640.814 486.579Z" fill="#E6DFD1"/>
<path d="M793.503 422.553C785.857 443.996 753.533 437.404 744.373 458.014C743.843 459.226 745.66 460.287 746.19 459.075C755.35 438.465 787.674 445.208 795.547 423.083C796.001 421.795 793.957 421.265 793.503 422.553Z" fill="#E6DFD1"/>
<path d="M800.847 438.313C793.201 459.756 760.877 453.164 751.717 473.774C751.187 474.986 753.004 476.047 753.534 474.835C762.693 454.225 795.018 460.969 802.89 438.843C803.345 437.555 801.301 437.025 800.847 438.313Z" fill="#E6DFD1"/>
<path d="M755.124 654.488C745.359 643.956 735.669 633.424 725.904 622.892C724.995 621.907 723.481 623.422 724.389 624.407C734.155 634.939 743.845 645.471 753.61 656.004C754.594 656.913 756.032 655.473 755.124 654.488Z" fill="#E6DFD1"/>
<path d="M663.674 348.297C661.251 351.555 658.753 354.813 656.331 358.072C655.498 359.132 657.315 360.193 658.147 359.132C660.57 355.874 663.068 352.616 665.49 349.358C666.247 348.297 664.431 347.236 663.674 348.297Z" fill="#E6DFD1"/>
<path d="M745.506 256.69C741.646 258.357 737.785 259.948 734 261.615C732.788 262.145 733.848 263.964 735.06 263.433C738.92 261.766 742.781 260.175 746.566 258.508C747.777 257.978 746.717 256.159 745.506 256.69Z" fill="#E6DFD1"/>
<path d="M751.565 263.206C746.191 265.631 740.816 267.98 735.441 270.404C734.23 270.935 735.29 272.753 736.501 272.223C741.876 269.798 747.25 267.449 752.625 265.025C753.836 264.494 752.777 262.676 751.565 263.206Z" fill="#E6DFD1"/>
<path d="M27.7871 635.167C19.0816 630.772 10.3003 626.453 1.59467 622.058C0.383456 621.452 -0.676353 623.271 0.53486 623.877C9.24045 628.272 18.0217 632.591 26.7273 636.985C27.9385 637.591 28.9984 635.773 27.7871 635.167Z" fill="#E6DFD1"/>
<path d="M152.917 583.794C150.646 586.446 148.375 589.022 146.104 591.674C145.196 592.659 146.71 594.175 147.618 593.189C149.889 590.537 152.16 587.961 154.431 585.309C155.264 584.324 153.75 582.809 152.917 583.794Z" fill="#E6DFD1"/>
<path d="M679.575 95.4488C677.304 98.2523 675.033 101.056 672.762 103.859C671.929 104.92 673.367 106.36 674.276 105.375C676.547 102.571 678.818 99.7677 681.089 96.9642C681.921 95.9034 680.483 94.388 679.575 95.4488Z" fill="#E6DFD1"/>
<path d="M547.855 0.20443C539.3 -0.856365 531.049 2.25025 525.296 8.61502C524.387 9.60004 525.901 11.1155 526.81 10.1304C532.26 4.14452 539.83 1.34099 547.855 2.32602C549.141 2.47756 549.141 0.355972 547.855 0.20443Z" fill="#E6DFD1"/>
<path d="M551.484 7.02389C542.929 5.96309 534.678 9.06971 528.925 15.4345C528.016 16.4195 529.53 17.9349 530.439 16.9499C535.889 10.964 543.459 8.16045 551.484 9.14548C552.846 9.29702 552.846 7.17543 551.484 7.02389Z" fill="#E6DFD1"/>
</svg>
