<svg width="518" height="421" viewBox="0 0 518 421" fill="none" xmlns="http://www.w3.org/2000/svg">
<rect width="527" height="468" transform="translate(-9)" fill="#FBF8F4"/>
<path d="M384.836 51.9154H103.234V211.128H384.836V51.9154Z" fill="#E6DFD1"/>
<path d="M167.918 187.792C154.923 174.771 141.969 161.792 128.974 148.771C128.425 148.221 127.623 149.067 128.13 149.616C141.125 162.637 154.079 175.616 167.075 188.637C167.623 189.145 168.467 188.341 167.918 187.792Z" fill="white"/>
<path d="M128.974 188.637C141.969 175.616 154.923 162.637 167.918 149.616C168.467 149.067 167.623 148.263 167.075 148.771C154.079 161.792 141.125 174.771 128.13 187.792C127.623 188.342 128.425 189.145 128.974 188.637Z" fill="white"/>
<path d="M120.786 152.618C120.448 152.618 120.195 152.364 120.195 152.026V142.176C120.195 141.837 120.448 141.584 120.786 141.584H130.786C131.123 141.584 131.377 141.837 131.377 142.176C131.377 142.514 131.123 142.767 130.786 142.767H121.377V152.026C121.335 152.364 121.081 152.618 120.786 152.618Z" fill="#C7C9BC"/>
<path d="M175.68 152.745C175.342 152.745 175.089 152.491 175.089 152.153V142.725H165.849C165.511 142.725 165.258 142.471 165.258 142.133C165.258 141.795 165.511 141.541 165.849 141.541H175.68C176.017 141.541 176.27 141.795 176.27 142.133V152.153C176.228 152.491 175.975 152.745 175.68 152.745Z" fill="#C7C9BC"/>
<path d="M130.66 195.444H120.829C120.491 195.444 120.238 195.19 120.238 194.852V184.832C120.238 184.494 120.491 184.241 120.829 184.241C121.167 184.241 121.42 184.494 121.42 184.832V194.26H130.66C130.998 194.26 131.251 194.514 131.251 194.852C131.251 195.19 130.998 195.444 130.66 195.444Z" fill="#C7C9BC"/>
<path d="M370.952 169.402H316.016V198.276H370.952V169.402Z" fill="#FFA79B"/>
<path d="M378.043 63.7105C375.765 61.4276 373.486 59.1447 371.208 56.8617C370.659 56.3121 369.858 57.1577 370.364 57.7073C372.643 59.9902 374.921 62.2731 377.199 64.5561C377.748 65.0634 378.592 64.2601 378.043 63.7105Z" fill="#FFA79B"/>
<path d="M371.248 64.5137C373.527 62.2308 375.805 59.9479 378.084 57.665C378.632 57.1154 377.789 56.3121 377.24 56.8194C374.962 59.1024 372.683 61.3853 370.405 63.6682C369.856 64.2601 370.7 65.0633 371.248 64.5137Z" fill="#FFA79B"/>
<path d="M384.836 68.2341H103.234V69.4179H384.836V68.2341Z" fill="white"/>
<path d="M370.952 77.1968H316.016V106.072H370.952V77.1968Z" fill="white"/>
<path d="M370.952 77.1968H316.016V106.072H370.952V77.1968Z" fill="white"/>
<path d="M305.806 77.1968H207.832V140.02H305.806V77.1968Z" fill="#FBF8F4"/>
<path d="M291.211 85.9056C282.012 88.569 279.354 98.3349 275.261 105.818C272.687 110.51 268.552 115.372 262.814 115.626C258.046 115.837 254.544 112.328 251.506 109.158C246.148 103.493 240.325 98.9268 231.97 100.449C224.249 101.886 218.722 108.608 218.004 116.345C217.92 117.106 219.101 117.106 219.186 116.345C220.114 106.198 229.903 99.1381 239.818 101.971C247.667 104.211 250.747 112.667 257.92 115.837C264.544 118.797 271.084 114.442 274.755 108.989C279.776 101.463 281.633 89.9219 291.548 87.0471C292.265 86.7934 291.928 85.6942 291.211 85.9056Z" fill="white"/>
<path d="M189.901 104.127H120.956C120.197 104.127 120.197 105.31 120.956 105.31H189.901C190.618 105.31 190.618 104.127 189.901 104.127Z" fill="#9299AB"/>
<path d="M189.901 114.654H120.956C120.197 114.654 120.197 115.837 120.956 115.837H189.901C190.618 115.837 190.618 114.654 189.901 114.654Z" fill="#9299AB"/>
<path d="M189.901 125.984H120.956C120.197 125.984 120.197 127.167 120.956 127.167H189.901C190.618 127.125 190.618 125.984 189.901 125.984Z" fill="#9299AB"/>
<path d="M164.962 88.5267H120.363V96.3479H164.962V88.5267Z" fill="#FFA79B"/>
<path d="M366.986 81.213H357.07V89.7106H366.986V81.213Z" fill="#FECA55"/>
<path d="M221.632 116.514C221.801 118.289 220.198 119.727 218.425 119.727C216.653 119.727 215.219 118.289 215.219 116.514C215.219 114.738 216.653 113.301 218.425 113.301C220.198 113.301 221.421 114.358 221.632 116.514Z" fill="#FFA79B"/>
<path d="M264.288 116.852C264.457 118.628 262.854 120.065 261.082 120.065C259.31 120.065 257.875 118.628 257.875 116.852C257.875 115.076 259.31 113.639 261.082 113.639C262.854 113.639 264.12 114.696 264.288 116.852Z" fill="#FFA79B"/>
<path d="M236.566 100.956C236.735 102.732 235.131 104.169 233.359 104.169C231.587 104.169 230.152 102.732 230.152 100.956C230.152 99.1804 231.587 97.743 233.359 97.743C235.131 97.743 236.397 98.8 236.566 100.956Z" fill="#FFA79B"/>
<path d="M288.589 90.2601C288.758 92.0357 287.155 93.4731 285.383 93.4731C283.61 93.4731 282.176 92.0357 282.176 90.2601C282.176 88.4845 283.61 87.0471 285.383 87.0471C287.155 87.0471 288.378 88.1463 288.589 90.2601Z" fill="#FFA79B"/>
<path d="M250.365 180.14H220.281V201.785H250.365V180.14Z" fill="#FECA55"/>
<path d="M235.47 192.569C235.343 192.569 235.216 192.527 235.132 192.442L222.263 182.634C222.01 182.423 221.968 182.085 222.136 181.831C222.347 181.577 222.685 181.535 222.938 181.704L235.427 191.216L247.621 181.577C247.875 181.366 248.254 181.408 248.423 181.662C248.634 181.915 248.592 182.296 248.339 182.465L235.765 192.358C235.723 192.527 235.596 192.569 235.47 192.569Z" fill="white"/>
<path d="M254.75 178.66V185.086C254.75 185.847 255.931 185.847 255.931 185.086V178.66C255.931 177.899 254.75 177.899 254.75 178.66Z" fill="white"/>
<path d="M363.232 178.068H339.562C338.802 178.068 338.802 179.252 339.562 179.252H363.232C363.992 179.252 363.992 178.068 363.232 178.068Z" fill="white"/>
<path d="M363.232 185.086H339.562C338.802 185.086 338.802 186.27 339.562 186.27H363.232C363.992 186.27 363.992 185.086 363.232 185.086Z" fill="white"/>
<path d="M170.45 86.1593C170.408 86.1593 170.366 86.1593 170.324 86.1593C170.028 86.0748 169.817 85.7789 169.902 85.4406C170.197 84.2992 170.534 83.1577 170.914 82.0163C170.999 81.7203 171.336 81.5512 171.674 81.6358C171.969 81.7203 172.138 82.0585 172.053 82.3967C171.674 83.4959 171.336 84.5951 171.083 85.7366C170.914 85.9902 170.703 86.1593 170.45 86.1593Z" fill="#D24A43"/>
<path d="M254.416 86.117C254.163 86.117 253.909 85.9479 253.867 85.6943C253.277 83.5382 252.517 81.4243 251.547 79.4796C251.42 79.1837 251.547 78.8455 251.842 78.7186C252.137 78.5918 252.475 78.7186 252.601 79.0146C253.572 81.0439 254.374 83.2 254.964 85.4406C255.049 85.7365 254.88 86.0747 254.542 86.1593C254.542 86.117 254.5 86.117 254.416 86.117ZM174.121 76.6048C174.037 76.6048 173.952 76.5626 173.826 76.5203C173.53 76.3512 173.446 76.013 173.573 75.717C174.67 73.6878 175.935 71.7853 177.328 70.0097C177.539 69.7561 177.876 69.7138 178.13 69.9252C178.383 70.1365 178.425 70.4748 178.214 70.7284C176.864 72.4617 175.598 74.3219 174.543 76.2666C174.543 76.478 174.332 76.6048 174.121 76.6048ZM248.677 73.9837C248.509 73.9837 248.298 73.8991 248.213 73.73C246.947 71.9544 245.471 70.2211 243.91 68.6991C243.699 68.4878 243.656 68.1073 243.91 67.8536C244.121 67.6422 244.5 67.6 244.753 67.8536C246.399 69.4601 247.876 71.2357 249.184 73.0536C249.353 73.3073 249.31 73.6878 249.057 73.8569C248.888 73.9414 248.804 73.9837 248.677 73.9837ZM182.518 66.078C182.349 66.078 182.18 65.9935 182.096 65.8666C181.885 65.613 181.927 65.2325 182.138 65.0211C183.826 63.5414 185.724 62.1886 187.665 61.0048C187.961 60.8357 188.298 60.9203 188.467 61.2162C188.636 61.5122 188.551 61.8504 188.256 62.0195C186.357 63.1609 184.543 64.4715 182.897 65.9089C182.771 66.0357 182.644 66.078 182.518 66.078ZM239.099 64.5138C238.973 64.5138 238.846 64.4715 238.762 64.3869C236.99 63.1187 235.049 61.9772 233.066 60.9626C232.77 60.8357 232.644 60.4552 232.813 60.1593C232.939 59.8634 233.319 59.7365 233.614 59.9056C235.682 60.9203 237.665 62.104 239.479 63.4146C239.732 63.5837 239.817 63.9642 239.606 64.2178C239.479 64.4292 239.31 64.5138 239.099 64.5138ZM193.994 59.1447C193.741 59.1447 193.53 59.0178 193.446 58.7642C193.319 58.4682 193.488 58.13 193.783 58.0032C195.851 57.1577 198.045 56.4813 200.323 55.9739C200.619 55.8894 200.956 56.1008 201.041 56.3967C201.125 56.6926 200.914 57.0309 200.619 57.1154C198.425 57.6227 196.315 58.2991 194.248 59.1024C194.163 59.1447 194.079 59.1447 193.994 59.1447ZM227.074 58.5105C227.032 58.5105 226.948 58.5105 226.905 58.4682C224.796 57.7918 222.644 57.2 220.45 56.7772C220.112 56.7349 219.944 56.3967 219.986 56.1008C220.028 55.7626 220.365 55.5935 220.661 55.6357C222.897 56.0585 225.133 56.6504 227.285 57.3268C227.581 57.4113 227.749 57.7495 227.665 58.0878C227.538 58.3414 227.327 58.5105 227.074 58.5105ZM207.117 56.1008C206.821 56.1008 206.568 55.8894 206.526 55.5512C206.484 55.213 206.737 54.9593 207.074 54.917C209.311 54.7479 211.631 54.7056 213.91 54.7902C214.247 54.7902 214.458 55.0861 214.458 55.4243C214.458 55.7626 214.205 56.0162 213.825 55.9739C211.589 55.8471 209.353 55.8894 207.159 56.0585C207.159 56.1008 207.117 56.1008 207.117 56.1008Z" fill="#D24A43"/>
<path d="M255.935 96.3057C255.64 96.3057 255.344 96.052 255.344 95.7561C255.302 94.6146 255.218 93.4309 255.134 92.2894C255.091 91.9512 255.345 91.6975 255.64 91.6553C255.977 91.613 256.231 91.8666 256.273 92.1626C256.399 93.3463 256.484 94.5301 256.526 95.7138C256.526 96.052 256.273 96.3057 255.935 96.3057Z" fill="#D24A43"/>
<path d="M258.047 98.4617C257.456 99.3072 256.823 100.195 256.232 101.041C255.642 100.322 255.051 99.5609 254.502 98.8422C254.038 98.2503 253.194 99.0959 253.659 99.6877C254.376 100.618 255.135 101.506 255.853 102.436C256.106 102.774 256.57 102.605 256.781 102.309C257.54 101.21 258.3 100.153 259.059 99.0536C259.481 98.4617 258.469 97.8698 258.047 98.4617Z" fill="#D24A43"/>
<path d="M336.1 210.579C331.796 202.885 327.492 195.148 323.188 187.454C322.471 186.143 320.446 187.327 321.163 188.637C325.467 196.332 329.771 204.068 334.074 211.763C334.792 213.073 336.817 211.89 336.1 210.579Z" fill="#D24A43"/>
<path d="M335.595 214.553C333.021 228.42 330.405 242.328 327.831 256.195C327.536 257.675 329.814 258.309 330.067 256.829C332.641 242.963 335.257 229.054 337.831 215.187C338.126 213.707 335.89 213.073 335.595 214.553Z" fill="#D24A43"/>
<path d="M339.856 265.581H316.691V262.368C316.691 257.717 320.447 253.997 325.046 253.997H331.501C336.143 253.997 339.856 257.759 339.856 262.368V265.581Z" fill="#D24A43"/>
<path d="M340.699 212.904C340.91 215.272 338.8 217.174 336.437 217.174C334.075 217.174 332.176 215.272 332.176 212.904C332.176 210.537 334.075 208.634 336.437 208.634C338.8 208.634 340.488 210.029 340.699 212.904Z" fill="#D24A43"/>
<path d="M323.78 189.398H276.27V186.185C276.27 181.535 280.025 177.815 284.624 177.815H315.383C320.024 177.815 323.738 181.577 323.738 186.185V189.398H323.78Z" fill="#D24A43"/>
<path d="M294.33 215.652C289.309 230.998 284.288 246.387 279.267 261.733C278.929 262.79 280.617 263.255 280.955 262.198C285.976 246.852 290.997 231.463 296.018 216.117C296.398 215.06 294.668 214.595 294.33 215.652Z" fill="black"/>
<path d="M279.646 261.353H251.292C250.153 261.353 250.153 263.128 251.292 263.128H279.646C280.743 263.086 280.743 261.353 279.646 261.353Z" fill="black"/>
<path d="M256.315 234.846H239.227V257.379H256.315V234.846Z" fill="#EBF5F1"/>
<path d="M261.926 239.411C260.618 237.044 257.706 238.397 255.597 237.763C254.5 237.424 254.036 239.115 255.133 239.454C256.272 239.792 258.508 239.327 259.394 239.707C261.588 240.722 260.702 249.685 260.407 251.333C259.858 254.589 257.116 254.419 254.542 254.25C253.403 254.166 253.403 255.941 254.542 256.026C256.694 256.153 259.099 256.237 260.871 254.758C262.938 253.067 263.149 241.652 261.926 239.411Z" fill="#EBF5F1"/>
<path d="M245.891 224.234C244.372 226.137 244.161 228.758 245.554 230.787C245.976 231.421 246.988 230.829 246.566 230.195C245.512 228.631 245.512 226.559 246.735 225.08C247.199 224.488 246.355 223.685 245.891 224.234Z" fill="#E6DFD1"/>
<path d="M248.507 224.234C246.946 226.137 246.777 228.758 248.17 230.787C248.592 231.421 249.604 230.829 249.182 230.195C248.127 228.631 248.127 226.559 249.351 225.08C249.815 224.488 248.971 223.685 248.507 224.234Z" fill="#E6DFD1"/>
<path d="M278.509 213.031C270.914 215.441 265.893 221.951 265.513 229.941C265.471 230.702 266.652 230.702 266.694 229.941C267.032 222.501 271.758 216.413 278.846 214.172C279.521 213.961 279.226 212.819 278.509 213.031Z" fill="#D24A43"/>
<path d="M278.973 223.008C275.682 223.981 273.404 227.024 273.446 230.449C273.446 231.21 274.627 231.21 274.627 230.449C274.627 227.532 276.484 224.953 279.311 224.107C280.028 223.896 279.691 222.797 278.973 223.008Z" fill="#D24A43"/>
<path d="M275.344 204.153C263.488 206.14 255.26 216.667 256.062 228.673C256.104 229.434 257.285 229.434 257.243 228.673C256.484 217.132 264.332 207.197 275.682 205.294C276.357 205.168 276.062 204.026 275.344 204.153Z" fill="#D24A43"/>
<path d="M283.065 230.449C283.149 231.379 282.305 232.098 281.419 232.098C280.491 232.098 279.773 231.337 279.773 230.449C279.773 229.519 280.533 228.8 281.419 228.8C282.347 228.8 282.98 229.35 283.065 230.449Z" fill="#D24A43"/>
<path d="M401.546 138.244C400.238 138.244 399.184 137.187 399.184 135.876C399.184 134.566 400.238 133.509 401.546 133.509C402.897 133.509 403.783 134.397 403.909 135.834C403.951 136.426 403.74 137.018 403.319 137.483C402.897 137.948 402.264 138.244 401.546 138.244ZM401.546 134.65C400.871 134.65 400.323 135.2 400.323 135.876C400.323 136.553 400.871 137.102 401.546 137.102C401.884 137.102 402.264 136.933 402.475 136.68C402.601 136.511 402.77 136.257 402.728 135.919C402.686 135.073 402.306 134.65 401.546 134.65Z" fill="#D24A43"/>
<path d="M409.605 145.98C408.297 145.98 407.242 144.924 407.242 143.613C407.242 142.302 408.297 141.245 409.605 141.245C410.955 141.245 411.841 142.133 411.968 143.571C412.01 144.163 411.799 144.754 411.377 145.219C410.955 145.685 410.28 145.98 409.605 145.98ZM409.605 142.387C408.93 142.387 408.381 142.937 408.381 143.613C408.381 144.289 408.93 144.839 409.605 144.839C409.943 144.839 410.322 144.67 410.533 144.416C410.66 144.247 410.829 143.993 410.787 143.655C410.744 142.81 410.365 142.387 409.605 142.387Z" fill="#D24A43"/>
<path d="M425.131 164.624H237.031V109.961H425.131V164.624ZM238.213 163.441H423.992V111.145H238.213V163.441Z" fill="#003865"/>
<path d="M332.938 133.002H252.812V145.6H320.449C324.584 141.372 328.761 137.187 332.938 133.002Z" fill="#575552"/>
<path d="M345.302 133.002H340.661C336.484 137.187 332.307 141.372 328.172 145.6H332.771C336.948 141.372 341.125 137.187 345.302 133.002Z" fill="#575552"/>
<path d="M357.998 133.002H353.357C349.179 137.187 345.002 141.372 340.867 145.6H345.424C349.644 141.372 353.821 137.187 357.998 133.002Z" fill="#575552"/>
<path d="M370.702 133.002H366.187C361.968 137.187 357.79 141.372 353.613 145.6H358.128L370.702 133.002Z" fill="#575552"/>
<path d="M383.401 133.002H378.886C374.667 137.187 370.49 141.372 366.312 145.6H370.827L383.401 133.002Z" fill="#575552"/>
<path d="M395.64 134.397V133.002H391.885C387.75 137.187 383.572 141.372 379.438 145.6H384.459C388.172 141.837 391.885 138.117 395.64 134.397Z" fill="#575552"/>
<path d="M392.219 145.6H395.636V142.176C394.497 143.317 393.358 144.458 392.219 145.6Z" fill="#575552"/>
<path d="M366.44 121.672H293.402V126.745H366.44V121.672Z" fill="#9299AB"/>
<path d="M413.105 120.107C411.629 118.543 410.11 116.979 408.633 115.415C408.126 114.865 407.283 115.711 407.789 116.26C409.266 117.824 410.785 119.389 412.261 120.953C412.81 121.46 413.612 120.657 413.105 120.107Z" fill="#D24A43"/>
<path d="M408.504 120.826C410.065 119.346 411.626 117.824 413.187 116.345C413.736 115.837 412.892 114.992 412.344 115.499C410.782 116.979 409.221 118.501 407.66 119.98C407.154 120.53 407.998 121.333 408.504 120.826Z" fill="#D24A43"/>
<path d="M410.279 134.312C406.861 137.737 403.443 141.203 400.026 144.628C399.477 145.177 400.321 145.98 400.87 145.473C404.287 142.049 407.705 138.582 411.123 135.158C411.629 134.608 410.827 133.763 410.279 134.312Z" fill="#D24A43"/>
<path d="M392.686 259.239C392.475 257.802 392.686 256.364 393.108 255.011H347.285C344.796 258.013 345.049 260.423 347.285 262.41H394.205C393.403 261.649 392.854 260.592 392.686 259.239Z" fill="#E6DFD1"/>
<path d="M384.289 250.868C384.416 250.446 384.584 250.023 384.753 249.642H347.285C345.597 251.376 345.682 253.32 347.285 255.392H385.597C384.5 254.208 383.783 252.729 384.289 250.868Z" fill="#E6DFD1"/>
<path d="M385.849 255.138H346.946C346.777 255.138 346.609 255.054 346.524 254.927C345.511 253.743 344.668 251.841 346.482 249.304C346.609 249.135 346.777 249.05 346.946 249.05H385.511C385.849 249.05 386.102 249.304 386.102 249.642C386.102 249.98 385.849 250.234 385.511 250.234H347.241C346.355 251.629 346.313 252.813 347.199 253.954H385.806C386.144 253.954 386.397 254.208 386.397 254.546C386.397 254.885 386.186 255.138 385.849 255.138Z" fill="#C7C9BC"/>
<path d="M394.455 262.833H346.692C346.523 262.833 346.312 262.748 346.228 262.579C344.455 260.127 344.455 257.506 346.228 254.8C346.354 254.631 346.523 254.546 346.734 254.546H394.075C394.413 254.546 394.666 254.8 394.666 255.138C394.666 255.476 394.413 255.73 394.075 255.73H347.029C345.763 257.844 345.763 259.789 347.029 261.691H394.497C394.835 261.691 395.088 261.945 395.088 262.283C395.088 262.621 394.793 262.833 394.455 262.833Z" fill="#C7C9BC"/>
<path d="M389.689 256.745H347.664C347.284 256.745 347.284 257.337 347.664 257.337H389.689C390.068 257.337 390.068 256.745 389.689 256.745Z" fill="white"/>
<path d="M385.807 258.647H365.343C364.964 258.647 364.964 259.239 365.343 259.239H385.807C386.145 259.197 386.145 258.647 385.807 258.647Z" fill="white"/>
<path d="M226.232 328.53C202.857 356.94 210.452 420.735 210.452 420.735H267.118C267.118 420.735 266.822 406.699 248.426 404.923C230.03 403.148 244.924 385.603 268.299 330.01L226.232 328.53Z" fill="#FFA79B"/>
<path d="M248.425 404.881C237.244 403.824 238.341 396.891 246.231 379.093C234.206 379.262 222.181 378.332 210.198 376.767C207.962 399.893 210.451 420.693 210.451 420.693H267.117C267.117 420.693 266.822 406.657 248.425 404.881Z" fill="#E6DFD1"/>
<path d="M316.399 405.685C292.939 400.696 298.087 387.928 292.137 348.231C286.062 307.519 284.163 300.036 251.674 296.95C245.176 313.649 238.931 330.475 234.543 347.808C242.94 347.428 248.129 347.047 248.129 347.047C248.129 347.047 246.948 353.6 276.568 420.693H331.378C331.378 420.693 333.445 409.278 316.399 405.685Z" fill="#FFA79B"/>
<path d="M316.403 405.685C299.103 402.007 297.373 394.101 295.264 374.273C283.956 378.205 272.353 381.207 260.496 382.982C264.462 392.748 269.694 405.093 276.572 420.735H331.382C331.382 420.693 333.449 409.278 316.403 405.685Z" fill="#E6DFD1"/>
<path d="M209.777 294.371C199.271 293.779 189.144 293.779 179.609 293.187C178.976 289.594 178.469 284.013 178.047 277.883C156.233 278.517 134.419 280.166 112.689 282.153C112.267 286.042 111.888 290.059 111.634 294.202C107.162 362.098 167.33 348.654 200.832 348.654C218.68 348.654 234.081 347.935 242.14 347.47C246.95 330.898 250.663 313.945 255.431 297.372C244.545 296.062 229.904 295.554 209.777 294.371Z" fill="#FECA55"/>
<path d="M316.399 405.685C310.323 404.416 306.146 402.598 303.234 399.893C299.732 401.668 296.272 403.486 292.644 405.05C285.977 407.967 279.184 409.701 271.969 410.208C273.403 413.548 274.922 417.015 276.568 420.735H331.378C331.378 420.693 333.445 409.278 316.399 405.685Z" fill="#575552"/>
<path d="M248.427 404.881C245.769 404.628 243.786 404.036 242.435 403.063C239.06 404.966 235.642 406.784 231.845 407.841C224.587 409.828 217.035 409.616 209.566 409.532C209.904 416.423 210.41 420.735 210.41 420.735H267.077C267.119 420.693 266.823 406.657 248.427 404.881Z" fill="#575552"/>
<path d="M252.771 361.083C251.505 357.236 250.239 353.389 248.974 349.541C248.847 349.203 248.298 349.33 248.425 349.71C249.691 353.558 250.957 357.405 252.223 361.252C252.349 361.59 252.898 361.421 252.771 361.083Z" fill="black"/>
<path d="M233.533 308.449C221.972 307.941 210.453 307.265 198.935 306.419C193.154 305.997 187.416 305.489 181.677 304.982C178.935 304.728 176.192 304.517 173.449 304.179C170.876 303.883 168.217 303.376 165.939 302.023C161.255 299.19 160.158 293.356 159.315 288.367C159.272 287.987 158.682 288.156 158.766 288.537C159.483 292.722 160.285 297.288 163.239 300.543C166.488 304.094 171.424 304.602 175.939 305.067C188.217 306.25 200.496 307.265 212.816 308.026C219.736 308.449 226.656 308.829 233.576 309.125C233.871 309.041 233.871 308.449 233.533 308.449Z" fill="white"/>
<path d="M138.384 332.546C138.173 332.039 137.245 331.32 136.865 330.94C136.359 330.39 135.894 329.841 135.388 329.249C134.333 328.023 133.363 326.712 132.435 325.402C128.932 320.413 126.232 314.917 124.418 309.125C124.375 308.956 124.207 308.872 124.038 308.914C121.253 309.421 118.511 309.886 115.726 310.394C115.346 310.478 115.515 311.028 115.895 310.943C118.553 310.478 121.253 309.971 123.911 309.506C125.641 314.875 128.089 319.99 131.211 324.641C132.73 326.924 134.418 329.08 136.274 331.151C136.738 331.659 137.54 332.25 137.709 332.927C137.877 333.603 137.498 334.533 137.371 335.21C136.991 336.985 136.612 338.761 136.232 340.579C136.148 340.959 136.738 341.086 136.78 340.748C137.118 339.057 137.498 337.366 137.835 335.675C138.046 334.787 138.679 333.392 138.384 332.546Z" fill="white"/>
<path d="M177.751 293.398L173.363 292.976C172.983 292.933 172.983 293.525 173.363 293.567L177.751 293.99C178.089 293.99 178.089 293.441 177.751 293.398Z" fill="white"/>
<path d="M182.983 194.049C182.265 194.133 163.405 210.452 163.405 210.452L153.531 190.371L175.767 181.493L182.983 194.049Z" fill="#FFA79B"/>
<path d="M176.989 198.826C180.154 196.163 182.685 194.091 182.938 194.091L180.28 189.441C178.002 192.02 176.441 195.655 176.989 198.826Z" fill="black"/>
<path d="M171.169 161.327C174.417 156.55 184.924 156.381 191.084 159.509C193.784 160.862 195.683 159.255 195.767 161.707C195.978 167.837 196.569 187.707 193.447 191.554C188.004 198.319 178.299 194.176 174.375 187.75C170.451 181.281 166.569 168.091 171.169 161.327Z" fill="#FFA79B"/>
<path d="M196.106 156.761C193.363 155.197 188.511 156.465 186.275 157.86C180.452 156.676 173.701 157.649 171.212 161.285C168.132 165.808 158.427 170.247 159.819 180.436C160.621 186.735 170.663 191.977 177.119 189.06C184.84 185.594 183.659 175.785 184.756 174.728C188.174 171.981 188.216 167.246 187.287 163.694C189.06 165.005 194.882 164.244 196.486 162.13C198.511 159.086 196.95 157.268 196.106 156.761Z" fill="black"/>
<path d="M185.259 185.424C183.403 186.312 179.479 186.397 177.243 184.621C174.669 182.634 174.036 180.013 175.217 176.715C176.061 174.39 179.015 172.868 181.926 173.46C182.643 173.629 183.403 173.883 184.078 174.348C184.289 174.475 184.5 174.644 184.669 174.771C184.795 178.364 185.006 181.873 185.259 185.424Z" fill="#FFA79B"/>
<path d="M197.876 177.223C197.749 175.87 196.399 175.024 195.133 175.278C194.711 175.363 194.5 175.912 194.627 176.293C194.627 176.335 194.669 176.377 194.669 176.377C194.542 176.419 194.416 176.462 194.289 176.504C193.361 176.969 194.247 178.322 195.133 177.857C195.133 177.857 195.217 177.857 195.133 177.899C194.416 178.153 194.373 179.294 195.175 179.463C196.525 179.802 198.002 178.702 197.876 177.223Z" fill="#FFA79B"/>
<path d="M183.361 180.647L180.66 177.899C180.365 177.603 179.901 178.068 180.196 178.364C181.082 179.294 182.01 180.224 182.897 181.112C183.15 181.408 183.656 180.943 183.361 180.647Z" fill="black"/>
<path d="M193.066 184.41C192.602 184.241 192.096 184.072 191.632 183.902C191.21 183.776 191.041 184.41 191.463 184.537C191.927 184.706 192.434 184.875 192.898 185.044C193.32 185.171 193.488 184.537 193.066 184.41Z" fill="black"/>
<path d="M193.828 172.023C193.702 172.784 193.533 173.502 193.406 174.263C193.322 174.686 193.955 174.855 194.039 174.432C194.166 173.671 194.334 172.953 194.461 172.192C194.545 171.769 193.912 171.6 193.828 172.023Z" fill="black"/>
<path d="M194.038 169.275C193.658 169.359 193.278 169.486 192.899 169.571C192.055 169.782 192.434 171.093 193.236 170.839C193.616 170.754 193.996 170.628 194.375 170.543C195.219 170.374 194.839 169.063 194.038 169.275Z" fill="black"/>
<path d="M197.454 172.276L195.597 177.096C195.429 177.476 194.796 177.307 194.964 176.927C195.175 176.42 195.344 175.912 195.555 175.405C192.475 175.109 187.791 174.686 184.121 174.348C183.446 173.925 182.686 173.629 181.969 173.46C185.935 173.841 192.011 174.348 195.808 174.729C196.146 173.841 196.483 172.953 196.821 172.065C196.948 171.685 197.58 171.854 197.454 172.276Z" fill="white"/>
<path d="M162.268 284.985C167.668 284.732 173.069 284.351 178.47 283.886C177.12 268.455 176.613 245.161 176.613 245.161L169.694 205.929C169.694 205.929 169.567 187.792 160.453 188.384C142.858 189.525 118.006 223.558 112.184 286.677C128.892 286.211 145.601 285.789 162.268 284.985Z" fill="#EBF5F1"/>
<path d="M149.357 247.275C144.969 270.062 167.754 277.249 175.18 276.234C177.205 275.938 179.23 275.516 181.213 275.008C179.99 258.098 179.526 234.507 179.526 234.507L176.783 217.385C172.057 220.176 167.627 223.6 163.619 227.363C157.754 232.859 150.581 240.891 149.357 247.275Z" fill="#088054"/>
<path d="M259.44 245.753C258.259 241.863 252.056 243.301 248.597 243.935C248.681 243.724 250.031 243.089 250.073 242.836C251.592 242.709 253.111 242.244 254.504 241.483C256.149 240.595 256.529 238.27 254.926 238.058C248.09 237.128 242.521 238.058 241.044 238.354C237.753 238.989 234.63 240.172 231.635 241.694C231.255 241.863 230.96 242.117 230.749 242.371C220.875 241.483 209.652 241.948 200.96 242.667C200.327 253.109 200.411 263.636 201.888 273.951C215.052 270.484 228.723 266.468 236.824 264.016C240.242 264.058 243.702 263.974 247.12 263.72C251.17 263.424 255.558 262.663 257.626 258.689C258.639 256.787 258.765 254.546 258.976 252.475C259.272 250.403 260.031 247.782 259.44 245.753Z" fill="#FFA79B"/>
<path d="M204.927 242.371C194.378 243.047 186.361 244.231 186.361 244.231C178.471 196.797 174.42 190.455 161.762 188.51C161.762 188.51 155.096 193.288 154.505 226.813C153.914 260.338 155.391 280.081 168.977 280.504C175.053 280.715 190.707 276.995 206.192 272.81C205.602 262.663 205.222 252.517 204.927 242.371Z" fill="#EBF5F1"/>
<path d="M185.094 244.231C183.828 244.527 182.562 244.823 181.296 245.119C180.916 245.203 181.085 245.753 181.465 245.668C182.731 245.372 183.996 245.076 185.262 244.78C185.642 244.696 185.473 244.146 185.094 244.231Z" fill="white"/>
<path d="M153.955 226.137C153.913 231.252 153.913 236.367 153.871 241.483C153.871 241.863 154.462 241.863 154.462 241.483C154.504 236.367 154.504 231.252 154.546 226.137C154.546 225.756 153.955 225.756 153.955 226.137Z" fill="#088054"/>
<path d="M257.749 247.993C257.285 248.289 256.821 248.543 256.399 248.839C256.062 249.05 256.357 249.558 256.694 249.346L258.045 248.501C258.382 248.289 258.087 247.782 257.749 247.993Z" fill="#D24A43"/>
<path d="M257.71 252.052C257.246 252.348 256.782 252.602 256.36 252.897C256.022 253.109 256.318 253.616 256.655 253.405L258.006 252.559C258.301 252.348 258.006 251.841 257.71 252.052Z" fill="#D24A43"/>
<path d="M256.741 257.294C256.277 257.59 255.813 257.844 255.391 258.14C255.054 258.351 255.349 258.859 255.687 258.647L257.037 257.802C257.332 257.633 257.037 257.125 256.741 257.294Z" fill="#D24A43"/>
<path d="M151.465 197.304C151.507 198.023 150.875 198.572 150.199 198.572C149.524 198.572 148.934 197.981 148.934 197.304C148.934 196.628 149.524 196.036 150.199 196.036C150.875 196.036 151.381 196.459 151.465 197.304Z" fill="white"/>
<path d="M170.918 197.304C170.961 198.023 170.328 198.572 169.653 198.572C168.977 198.572 168.387 197.981 168.387 197.304C168.387 196.628 168.977 196.036 169.653 196.036C170.328 196.036 170.834 196.459 170.918 197.304Z" fill="white"/>
<path d="M132.017 216.032C132.059 216.751 131.426 217.301 130.751 217.301C130.624 217.301 130.498 217.301 130.371 217.258C130.751 216.497 131.173 215.737 131.553 215.018C131.848 215.229 131.974 215.567 132.017 216.032Z" fill="white"/>
<path d="M151.465 216.032C151.507 216.751 150.875 217.301 150.199 217.301C149.524 217.301 148.934 216.709 148.934 216.032C148.934 215.314 149.524 214.764 150.199 214.764C150.875 214.764 151.381 215.187 151.465 216.032Z" fill="white"/>
<path d="M170.918 216.032C170.961 216.751 170.328 217.301 169.653 217.301C168.977 217.301 168.387 216.709 168.387 216.032C168.387 215.314 168.977 214.764 169.653 214.764C170.328 214.764 170.834 215.187 170.918 216.032Z" fill="white"/>
<path d="M132.016 234.761C132.058 235.48 131.425 236.029 130.75 236.029C130.075 236.029 129.484 235.437 129.484 234.761C129.484 234.085 130.075 233.493 130.75 233.493C131.425 233.493 131.974 233.915 132.016 234.761Z" fill="white"/>
<path d="M151.465 234.761C151.507 235.48 150.875 236.029 150.199 236.029C149.524 236.029 148.934 235.437 148.934 234.761C148.934 234.085 149.524 233.493 150.199 233.493C150.875 233.493 151.381 233.915 151.465 234.761Z" fill="white"/>
<path d="M170.918 234.761C170.961 235.48 170.328 236.029 169.653 236.029C168.977 236.029 168.387 235.437 168.387 234.761C168.387 234.085 168.977 233.493 169.653 233.493C170.328 233.493 170.834 233.915 170.918 234.761Z" fill="white"/>
<path d="M132.016 253.489C132.058 254.208 131.425 254.758 130.75 254.758C130.075 254.758 129.484 254.166 129.484 253.489C129.484 252.771 130.075 252.221 130.75 252.221C131.425 252.221 131.974 252.644 132.016 253.489Z" fill="white"/>
<path d="M170.918 253.489C170.961 254.208 170.328 254.758 169.653 254.758C168.977 254.758 168.387 254.166 168.387 253.489C168.387 252.771 168.977 252.221 169.653 252.221C170.328 252.221 170.834 252.644 170.918 253.489Z" fill="white"/>
<path d="M190.368 253.489C190.41 254.208 189.777 254.758 189.102 254.758C188.384 254.758 187.836 254.166 187.836 253.489C187.836 252.771 188.427 252.221 189.102 252.221C189.777 252.221 190.283 252.644 190.368 253.489Z" fill="white"/>
<path d="M132.016 272.218C132.058 272.936 131.425 273.486 130.75 273.486C130.075 273.486 129.484 272.894 129.484 272.218C129.484 271.499 130.075 270.949 130.75 270.949C131.425 270.949 131.974 271.372 132.016 272.218Z" fill="white"/>
<path d="M151.465 272.218C151.507 272.936 150.875 273.486 150.199 273.486C149.524 273.486 148.934 272.894 148.934 272.218C148.934 271.499 149.524 270.949 150.199 270.949C150.875 270.949 151.381 271.372 151.465 272.218Z" fill="white"/>
<path d="M170.918 272.218C170.961 272.936 170.328 273.486 169.653 273.486C168.977 273.486 168.387 272.894 168.387 272.218C168.387 271.499 168.977 270.949 169.653 270.949C170.328 270.949 170.834 271.372 170.918 272.218Z" fill="white"/>
<path d="M190.368 272.218C190.41 272.936 189.777 273.486 189.102 273.486C188.384 273.486 187.836 272.894 187.836 272.218C187.836 271.499 188.427 270.949 189.102 270.949C189.777 270.949 190.283 271.372 190.368 272.218Z" fill="white"/>
<path d="M239.859 264.101V419.551C239.859 422.173 243.952 422.173 243.952 419.551V264.101H239.859Z" fill="#EBF5F1"/>
<path d="M394.879 265.834V419.509C394.879 422.13 398.972 422.13 398.972 419.509V265.75C397.622 265.834 396.229 265.876 394.879 265.834Z" fill="#EBF5F1"/>
<path d="M411.336 262.748H226.907C224.291 262.748 224.291 266.849 226.907 266.849H411.336C413.952 266.849 413.952 262.748 411.336 262.748Z" fill="#EBF5F1"/>
<path d="M113.781 347.47C112.768 337.831 111.755 328.234 110.743 318.595C110.532 316.735 107.62 316.735 107.831 318.595C108.844 328.234 109.857 337.831 110.869 347.47C111.038 349.33 113.992 349.33 113.781 347.47Z" fill="#EBF5F1"/>
<path d="M150.448 348.358C150.11 348.527 149.688 348.654 149.182 348.654C149.098 348.654 148.971 348.654 148.887 348.654V415.07C148.887 416.972 151.798 416.972 151.798 415.07V348.273C151.376 348.315 150.912 348.315 150.448 348.358Z" fill="#EBF5F1"/>
<path d="M179.521 412.237C172.939 403.19 162.475 397.356 151.251 396.933C139.606 396.511 128.214 402.176 121.167 411.392C120.028 412.872 122.138 414.901 123.277 413.421C129.69 405.008 139.775 399.724 150.408 399.85C160.872 399.977 170.872 405.346 176.99 413.759C178.129 415.281 180.618 413.759 179.521 412.237Z" fill="#EBF5F1"/>
<path d="M126.609 414.859C126.947 418.579 123.613 421.58 119.9 421.58C116.187 421.58 113.191 418.579 113.191 414.859C113.191 411.138 116.187 408.137 119.9 408.137C123.613 408.137 126.229 410.377 126.609 414.859Z" fill="#575552"/>
<path d="M122.306 414.859C122.433 416.169 121.209 417.268 119.901 417.268C118.551 417.268 117.496 416.169 117.496 414.859C117.496 413.506 118.593 412.449 119.901 412.449C121.251 412.449 122.18 413.252 122.306 414.859Z" fill="white"/>
<path d="M156.906 414.859C157.243 418.579 153.91 421.58 150.197 421.58C146.484 421.58 143.488 418.579 143.488 414.859C143.488 411.138 146.484 408.137 150.197 408.137C153.868 408.137 156.526 410.377 156.906 414.859Z" fill="#575552"/>
<path d="M184.371 414.859C184.708 418.579 181.375 421.58 177.662 421.58C173.949 421.58 170.953 418.579 170.953 414.859C170.953 411.138 173.949 408.137 177.662 408.137C181.333 408.137 183.949 410.377 184.371 414.859Z" fill="#575552"/>
<path d="M112.221 320.54C108.761 291.031 105.301 261.522 101.841 231.971C101.588 229.899 100.28 228.208 98.044 228.166C96.1875 228.166 93.9934 229.942 94.2466 231.971C97.7065 261.48 101.166 290.989 104.626 320.54C104.879 322.611 106.187 324.303 108.424 324.345C110.322 324.345 112.474 322.569 112.221 320.54Z" fill="#575552"/>
<path d="M190.112 346.371H113.741C108.847 346.371 108.847 353.98 113.741 353.98H190.07C195.006 353.98 195.006 346.371 190.112 346.371Z" fill="#575552"/>
<path d="M152.56 414.859C152.687 416.169 151.463 417.268 150.155 417.268C148.847 417.268 147.75 416.169 147.75 414.859C147.75 413.506 148.847 412.449 150.155 412.449C151.463 412.449 152.391 413.252 152.56 414.859Z" fill="white"/>
<path d="M179.857 414.859C179.983 416.169 178.76 417.268 177.452 417.268C176.144 417.268 175.047 416.169 175.047 414.859C175.047 413.506 176.144 412.449 177.452 412.449C178.76 412.449 179.73 413.252 179.857 414.859Z" fill="white"/>
</svg>
