<svg width="193" height="128" viewBox="0 0 193 128" fill="none" xmlns="http://www.w3.org/2000/svg">
<g clip-path="url(#clip0)">
<rect width="255" height="36" transform="translate(18.9102 -30.8389) rotate(30)" fill="#E64825"/>
<path d="M74.0187 26.5485C73.4852 26.2405 73.0468 25.8719 72.7034 25.4427C72.36 25.0135 72.1176 24.5133 71.9763 23.9421L73.6215 23.4925C73.7112 23.8491 73.8517 24.1658 74.043 24.4425C74.2412 24.7232 74.5031 24.9575 74.8287 25.1455C75.2444 25.3855 75.6016 25.4948 75.9004 25.4733C76.1992 25.4518 76.4246 25.3094 76.5766 25.0461L76.6246 24.963C76.7846 24.6859 76.8154 24.4404 76.7172 24.2266C76.6229 24.0059 76.3991 23.7936 76.0457 23.5896L74.7883 22.8636L75.5923 21.471L76.7874 22.161C77.4317 22.533 77.9079 22.4523 78.2159 21.9188L78.2459 21.8668C78.5379 21.3611 78.3201 20.8982 77.5927 20.4782C77.3017 20.3102 76.9836 20.2051 76.6385 20.1629C76.2974 20.1137 75.9733 20.1391 75.6662 20.2389L75.2861 18.6893C75.783 18.5327 76.3002 18.4849 76.8377 18.5458C77.3822 18.6108 77.9038 18.7872 78.4027 19.0752C78.8322 19.3232 79.1887 19.5937 79.4722 19.8867C79.7597 20.1728 79.9692 20.4739 80.1008 20.79C80.2433 21.1032 80.3049 21.4206 80.2856 21.742C80.2732 22.0674 80.177 22.386 79.997 22.6977C79.853 22.9472 79.6855 23.1414 79.4943 23.2805C79.3141 23.4166 79.1187 23.507 78.9082 23.5517C78.7045 23.6004 78.4892 23.6054 78.2621 23.5667C78.042 23.532 77.822 23.465 77.6021 23.3658L77.5661 23.4282C77.766 23.562 77.9429 23.7196 78.0969 23.9009C78.2578 24.0861 78.373 24.2866 78.4425 24.5022C78.5189 24.7219 78.5462 24.9547 78.5242 25.2007C78.5092 25.4507 78.4257 25.7073 78.2737 25.9706C78.0777 26.3101 77.8305 26.5784 77.5319 26.7755C77.2333 26.9726 76.8979 27.0976 76.5255 27.1506C76.1601 27.2075 75.7618 27.1854 75.3306 27.0842C74.9063 26.9871 74.469 26.8085 74.0187 26.5485ZM82.5682 31.3183L83.0446 29.2932L80.6232 27.8952L79.1076 29.3203L77.5072 28.3963L84.0854 22.5225L86.0392 23.6505L84.2102 32.2663L82.5682 31.3183ZM84.2135 24.5086L84.1615 24.4786L81.7713 26.7705L83.4341 27.7305L84.2135 24.5086ZM85.4003 31.0827L86.1901 31.5387C86.3719 31.4959 86.5667 31.4144 86.7746 31.2943C86.9866 31.1672 87.2106 30.9871 87.4468 30.754C87.683 30.5209 87.9359 30.2188 88.2055 29.8479C88.4751 29.477 88.7659 29.0214 89.0779 28.481L90.4099 26.1739L95.6164 29.1799L92.2384 35.0307L93.4127 35.7087L91.7027 38.6705L90.2166 37.8125L91.1166 36.2537L86.0764 33.3437L85.1764 34.9025L83.6903 34.0445L85.4003 31.0827ZM90.6588 34.1187L93.2328 29.6604L91.1439 28.4544L90.4899 29.5872C90.2139 30.0652 89.9601 30.4729 89.7284 30.8103C89.5006 31.1407 89.2865 31.4235 89.086 31.6588C88.8895 31.8871 88.6992 32.0728 88.515 32.2159C88.3348 32.352 88.1616 32.4599 87.9956 32.5396L87.9776 32.5707L90.6588 34.1187ZM98.1567 40.3183L98.6331 38.2932L96.2117 36.8952L94.6961 38.3203L93.0956 37.3963L99.6739 31.5225L101.628 32.6505L99.7987 41.2663L98.1567 40.3183ZM99.802 33.5086L99.75 33.4786L97.3598 35.7705L99.0226 36.7305L99.802 33.5086ZM105.582 41.1827L105.53 41.1527C105.32 41.1329 105.092 41.0798 104.846 40.9933C104.6 40.9069 104.322 40.7737 104.01 40.5937C102.229 39.5657 101.853 38.1614 102.881 36.3809L104.183 34.1257L105.763 35.0377L104.425 37.3552C103.949 38.1797 104.123 38.8299 104.947 39.3059C105.252 39.4819 105.513 39.6141 105.73 39.7023C105.951 39.7837 106.155 39.8372 106.344 39.8629L108.288 36.4957L109.868 37.4077L105.68 44.6616L104.1 43.7496L105.582 41.1827ZM111.746 48.164L112.222 46.1389L109.801 44.7409L108.285 46.166L106.685 45.242L113.263 39.3682L115.217 40.4962L113.388 49.112L111.746 48.164ZM113.391 41.3543L113.339 41.3243L110.949 43.6163L112.612 44.5763L113.391 41.3543ZM121.035 43.8555L124.558 45.8895C125.161 46.2375 125.531 46.6773 125.667 47.2088C125.811 47.7442 125.721 48.2926 125.397 48.8538C125.237 49.1309 125.062 49.3445 124.874 49.4944C124.693 49.6484 124.504 49.7518 124.307 49.8045C124.118 49.8612 123.921 49.8727 123.719 49.8391C123.528 49.8025 123.337 49.7337 123.146 49.6326L123.11 49.695C123.283 49.795 123.445 49.9301 123.596 50.1005C123.754 50.2749 123.873 50.4773 123.952 50.7079C124.035 50.9315 124.067 51.1807 124.047 51.4555C124.034 51.7343 123.937 52.0295 123.757 52.3413C123.593 52.6254 123.389 52.8676 123.144 53.0679C122.91 53.2653 122.655 53.4096 122.381 53.5006C122.107 53.5917 121.823 53.6266 121.531 53.6055C121.242 53.5774 120.963 53.4854 120.693 53.3294L116.847 51.1094L121.035 43.8555ZM119.195 50.6912L121.014 51.7412C121.222 51.8612 121.416 51.8997 121.598 51.8569C121.791 51.8111 121.947 51.6843 122.067 51.4764L122.271 51.1231C122.391 50.9153 122.421 50.7199 122.36 50.5371C122.31 50.3513 122.182 50.1984 121.974 50.0784L120.155 49.0284L119.195 50.6912ZM120.899 47.7397L122.468 48.6457C122.676 48.7657 122.873 48.8009 123.059 48.7511C123.245 48.7013 123.397 48.5725 123.517 48.3646L123.697 48.0529C123.817 47.845 123.853 47.6482 123.803 47.4624C123.753 47.2766 123.624 47.1238 123.416 47.0038L121.847 46.0978L120.899 47.7397ZM126.235 56.5293L130.423 49.2755L133.852 51.2555C134.192 51.4515 134.463 51.6864 134.665 51.9601C134.871 52.227 135.01 52.5149 135.081 52.8238C135.159 53.1367 135.166 53.4687 135.102 53.8196C135.042 54.1637 134.914 54.5055 134.718 54.845C134.518 55.1914 134.284 55.4766 134.016 55.7007C133.748 55.9247 133.459 56.0812 133.149 56.1701C132.846 56.263 132.525 56.2904 132.187 56.2522C131.853 56.207 131.516 56.0864 131.176 55.8904L129.327 54.8224L127.815 57.4413L126.235 56.5293ZM130.119 53.4506L131.781 54.4107C132.017 54.5466 132.235 54.5938 132.434 54.552C132.645 54.5073 132.818 54.3671 132.954 54.1316L133.218 53.6743C133.354 53.4388 133.387 53.2221 133.316 53.0243C133.257 52.8236 133.109 52.6553 132.873 52.5193L131.211 51.5593L130.119 53.4506ZM136.762 62.6073L137.239 60.5822L134.817 59.1842L133.302 60.6093L131.701 59.6853L138.28 53.8115L140.233 54.9395L138.404 63.5553L136.762 62.6073ZM138.408 55.7977L138.356 55.7677L135.966 58.0596L137.628 59.0196L138.408 55.7977ZM143.596 56.8809L148.501 59.7129L147.691 61.1159L144.366 59.1959L143.58 60.5573L145.43 61.6253C145.769 61.8213 146.042 62.0527 146.248 62.3196C146.454 62.5864 146.593 62.8743 146.664 63.1832C146.742 63.4961 146.753 63.8212 146.697 64.1583C146.641 64.4954 146.519 64.8268 146.331 65.1524C146.143 65.478 145.919 65.746 145.659 65.9562C145.399 66.1664 145.114 66.3159 144.804 66.4048C144.501 66.4978 144.182 66.5216 143.848 66.4765C143.514 66.4313 143.177 66.3108 142.838 66.1148L139.408 64.1348L143.596 56.8809ZM143.442 64.635C143.678 64.771 143.896 64.8181 144.095 64.7763C144.306 64.7316 144.479 64.5915 144.615 64.3559L144.795 64.0441C144.931 63.8086 144.964 63.5919 144.893 63.3941C144.834 63.1934 144.686 63.0251 144.45 62.8891L142.788 61.9291L141.78 63.675L143.442 64.635ZM149.076 69.8828C148.598 69.6068 148.207 69.2752 147.905 68.8878C147.602 68.5005 147.402 68.0709 147.305 67.5991C147.211 67.1204 147.223 66.605 147.338 66.0528C147.458 65.4937 147.696 64.9058 148.052 64.2892C148.408 63.6726 148.796 63.1762 149.216 62.8C149.641 62.4169 150.081 62.1494 150.539 61.9977C151 61.839 151.474 61.794 151.961 61.8626C152.447 61.9313 152.93 62.1036 153.408 62.3796C153.886 62.6556 154.277 62.9873 154.579 63.3746C154.882 63.762 155.08 64.195 155.173 64.6737C155.271 65.1454 155.259 65.6609 155.14 66.22C155.024 66.7722 154.788 67.3566 154.432 67.9732C154.076 68.5898 153.686 69.0897 153.262 69.4728C152.841 69.849 152.401 70.1164 151.939 70.2751C151.482 70.4269 151.01 70.4685 150.523 70.3998C150.037 70.3312 149.554 70.1588 149.076 69.8828ZM149.886 68.4799C150.364 68.7559 150.825 68.814 151.268 68.6542C151.718 68.4984 152.111 68.1296 152.447 67.5476L153.071 66.4668C153.407 65.8848 153.53 65.36 153.44 64.8922C153.357 64.4284 153.076 64.0585 152.598 63.7825C152.12 63.5065 151.656 63.4464 151.206 63.6022C150.762 63.762 150.373 64.1328 150.037 64.7148L149.413 65.7956C149.077 66.3776 148.95 66.9004 149.034 67.3642C149.124 67.832 149.408 68.2039 149.886 68.4799ZM159.795 68.1041L156.417 73.955L154.838 73.043L158.216 67.1921L156.251 66.0581L157.061 64.6552L162.569 67.8352L161.759 69.2381L159.795 68.1041ZM159.462 75.7129L163.65 68.4591L168.586 71.3091L167.776 72.712L164.42 70.774L163.562 72.2601L166.44 73.9221L165.636 75.3147L162.758 73.6527L161.852 75.2219L165.208 77.1599L164.398 78.5629L159.462 75.7129Z" fill="white"/>
<path d="M69.9915 -4.81201L75.8372 -1.43701L70.3886 3.50017L64.543 0.125166L69.9915 -4.81201Z" fill="#FA7355"/>
<path d="M81.2493 1.68799L87.095 5.06299L81.6465 10.0002L75.8008 6.62517L81.2493 1.68799Z" fill="#FA7355"/>
<path d="M92.5072 8.18799L98.3528 11.563L92.9043 16.5002L87.0586 13.1252L92.5072 8.18799Z" fill="#FA7355"/>
<path d="M103.765 14.688L109.611 18.063L104.162 23.0002L98.3164 19.6252L103.765 14.688Z" fill="#FA7355"/>
<path d="M115.023 21.188L120.868 24.563L115.42 29.5002L109.574 26.1252L115.023 21.188Z" fill="#FA7355"/>
<path d="M126.281 27.688L132.126 31.063L126.678 36.0002L120.832 32.6252L126.281 27.688Z" fill="#FA7355"/>
<path d="M137.538 34.188L143.384 37.563L137.936 42.5002L132.09 39.1252L137.538 34.188Z" fill="#FA7355"/>
<path d="M148.796 40.688L154.642 44.063L149.193 49.0002L143.348 45.6252L148.796 40.688Z" fill="#FA7355"/>
<path d="M160.058 47.188L165.904 50.563L160.455 55.5002L154.609 52.1252L160.058 47.188Z" fill="#FA7355"/>
<path d="M171.316 53.688L177.161 57.063L171.713 62.0002L165.867 58.6252L171.316 53.688Z" fill="#FA7355"/>
<path d="M182.574 60.188L188.419 63.563L182.971 68.5002L177.125 65.1252L182.574 60.188Z" fill="#FA7355"/>
<path d="M193.831 66.688L199.677 70.063L194.228 75.0002L188.383 71.6252L193.831 66.688Z" fill="#FA7355"/>
<path d="M-1.20379 -5.50098L4.64188 -2.12598L-0.806672 2.8112L-6.65234 -0.563799L-1.20379 -5.50098Z" fill="#FA7355"/>
<path d="M10.054 0.999023L15.8997 4.37402L10.4511 9.3112L4.60547 5.9362L10.054 0.999023Z" fill="#FA7355"/>
<path d="M21.3118 7.49902L27.1575 10.874L21.709 15.8112L15.8633 12.4362L21.3118 7.49902Z" fill="#FA7355"/>
<path d="M32.5697 13.999L38.4153 17.374L32.9668 22.3112L27.1211 18.9362L32.5697 13.999Z" fill="#FA7355"/>
<path d="M43.8314 20.499L49.677 23.874L44.2285 28.8112L38.3828 25.4362L43.8314 20.499Z" fill="#FA7355"/>
<path d="M55.0892 26.999L60.9349 30.374L55.4863 35.3112L49.6406 31.9362L55.0892 26.999Z" fill="#FA7355"/>
<path d="M66.347 33.499L72.1927 36.874L66.7441 41.8112L60.8984 38.4362L66.347 33.499Z" fill="#FA7355"/>
<path d="M77.6048 39.999L83.4505 43.374L78.0019 48.3112L72.1562 44.9362L77.6048 39.999Z" fill="#FA7355"/>
<path d="M88.8626 46.499L94.7083 49.874L89.2597 54.8112L83.4141 51.4362L88.8626 46.499Z" fill="#FA7355"/>
<path d="M100.12 52.999L105.966 56.374L100.518 61.3112L94.6719 57.9362L100.12 52.999Z" fill="#FA7355"/>
<path d="M111.378 59.499L117.224 62.874L111.775 67.8112L105.93 64.4362L111.378 59.499Z" fill="#FA7355"/>
<path d="M122.636 65.999L128.482 69.374L123.033 74.3112L117.188 70.9362L122.636 65.999Z" fill="#FA7355"/>
<path d="M133.898 72.499L139.743 75.874L134.295 80.8112L128.449 77.4362L133.898 72.499Z" fill="#FA7355"/>
<path d="M145.156 78.999L151.001 82.374L145.553 87.3112L139.707 83.9362L145.156 78.999Z" fill="#FA7355"/>
<path d="M156.413 85.499L162.259 88.874L156.811 93.8112L150.965 90.4362L156.413 85.499Z" fill="#FA7355"/>
<path d="M167.671 91.999L173.517 95.374L168.068 100.311L162.223 96.9362L167.671 91.999Z" fill="#FA7355"/>
<path d="M178.929 98.499L184.775 101.874L179.326 106.811L173.48 103.436L178.929 98.499Z" fill="#FA7355"/>
<path d="M190.187 104.999L196.033 108.374L190.584 113.311L184.738 109.936L190.187 104.999Z" fill="#FA7355"/>
</g>
<defs>
<clipPath id="clip0">
<rect width="255" height="36" fill="white" transform="translate(18.9102 -30.8389) rotate(30)"/>
</clipPath>
</defs>
</svg>
