<svg width="671" height="101" viewBox="0 0 671 101" fill="none" xmlns="http://www.w3.org/2000/svg">
<path d="M26.8229 29.6844C22.3877 27.6081 18.6511 22.6395 15.3035 19.6818C11.4117 16.2664 5.57737 13.8833 0.834392 17.1053C0.330889 17.4542 0.893166 18.2703 1.41278 17.8848C8.67328 12.9185 15.6099 21.4812 20.2039 25.9933C24.0609 29.7878 29.6393 33.1541 35.0619 30.5806C35.6228 30.3007 35.272 29.402 34.7111 29.6819C31.8538 31.1018 29.2162 30.8215 26.8229 29.6844Z" fill="#E6DFD1"/>
<path d="M29.0631 24.576C24.6279 22.4997 20.8914 17.5311 17.5437 14.5734C13.6519 11.158 7.81761 8.77487 3.07463 11.9969C2.57112 12.3458 3.1334 13.1619 3.65302 12.7764C10.9135 7.81012 17.8501 16.3728 22.4441 20.8849C26.3012 24.6794 31.8796 28.0457 37.3022 25.4722C37.863 25.1923 37.5122 24.2936 36.9513 24.5735C34.094 25.9934 31.4565 25.7131 29.0631 24.576Z" fill="#E6DFD1"/>
<path d="M18.6373 84.0565C15.8283 85.3808 13.0594 86.6649 10.2504 87.9891C9.68862 88.27 10.1702 89.1127 10.732 88.8318C13.541 87.5076 16.3098 86.2235 19.1188 84.8992C19.6806 84.6183 19.1991 83.7756 18.6373 84.0565Z" fill="#E6DFD1"/>
<path d="M124.923 12.184C123.599 8.2514 122.275 4.3188 120.99 0.346074C120.79 -0.255854 119.827 -0.0150902 120.027 0.626967C121.352 4.55957 122.676 8.49216 123.96 12.4649C124.161 13.0668 125.124 12.7859 124.923 12.184Z" fill="#E6DFD1"/>
<path d="M248.898 91.1357C249.144 90.5374 248.306 90.0631 248.024 90.6416C246.309 94.6506 241.926 87.9745 240.28 87.1352C239.053 86.5332 237.763 86.449 236.642 87.2899C236.156 87.6603 236.632 88.5293 237.138 88.124C240.259 85.7865 242.404 91.6109 244.837 92.5265C246.422 93.147 248.203 92.7712 248.898 91.1357Z" fill="#E6DFD1"/>
<path d="M246.375 95.1034C246.621 94.5051 245.783 94.0308 245.502 94.6094C243.787 98.6184 239.403 91.9423 237.757 91.103C236.53 90.5009 235.241 90.4168 234.12 91.2577C233.633 91.628 234.11 92.4971 234.616 92.0918C237.737 89.7542 239.882 95.5787 242.314 96.4943C243.865 97.095 245.7 96.704 246.375 95.1034Z" fill="#E6DFD1"/>
<path d="M401.847 24.2099C397.917 21.93 393.999 19.6886 390.108 17.397C389.545 17.0658 389.104 17.9562 389.655 18.249C393.585 20.5289 397.503 22.7703 401.395 25.0619C401.958 25.3931 402.41 24.541 401.847 24.2099Z" fill="#E6DFD1"/>
<path d="M400.54 31.4505C396.749 28.6664 392.997 25.8705 389.207 23.0863C388.708 22.6933 388.017 23.4506 388.542 23.7935L399.875 32.1577C400.373 32.5508 401.038 31.8436 400.54 31.4505Z" fill="#E6DFD1"/>
<path d="M140.655 91.6613C140.677 91.6974 140.682 91.7448 140.686 91.7921C140.684 91.8689 140.645 91.9681 140.573 92.0131C140.162 92.3195 130.514 99.4133 128.654 100.372C128.581 100.417 128.475 100.408 128.405 100.377C128.324 100.327 128.279 100.255 128.282 100.178L126.645 82.9888C126.636 82.894 126.674 82.7948 126.765 82.7385C126.855 82.6822 126.961 82.6913 127.042 82.7411L140.562 91.5935C140.621 91.6071 140.632 91.6251 140.655 91.6613ZM128.792 99.7092C131.011 98.4009 138.399 92.9921 140 91.8185L127.244 83.4678L128.792 99.7092Z" fill="#E6DFD1"/>
<path d="M626.496 100.682C626.376 100.682 626.295 100.642 626.175 100.562C626.014 100.441 625.974 100.281 626.014 100.08C626.014 99.9599 627.981 89.8877 628.101 88.443C628.101 88.2424 628.222 88.0819 628.382 88.0418C628.543 87.9615 628.743 88.0016 628.904 88.122L637.291 95.0241C637.411 95.1445 637.491 95.305 637.451 95.4655C637.411 95.6261 637.331 95.7866 637.17 95.8668L626.697 100.682C626.616 100.642 626.576 100.682 626.496 100.682ZM628.944 89.4061C628.583 91.7336 627.579 97.1108 627.138 99.3179L636.006 95.2248L628.944 89.4061Z" fill="#E6DFD1"/>
<path d="M443.119 92.6958C438.801 93.3288 434.482 93.9618 430.119 94.6417C429.062 94.7996 429.552 96.3567 430.561 96.1537C434.88 95.5207 439.198 94.8877 443.562 94.2077C444.527 94.0516 444.129 92.4927 443.119 92.6958Z" fill="#E6DFD1"/>
<circle cx="271" cy="16" r="6.76667" stroke="#E6DFD1" stroke-width="0.466667"/>
<path d="M658.823 31.6844C654.388 29.6081 650.651 24.6395 647.304 21.6818C643.412 18.2663 637.577 15.8833 632.834 19.1053C632.331 19.4542 632.893 20.2703 633.413 19.8847C640.673 14.9185 647.61 23.4812 652.204 27.9932C656.061 31.7878 661.639 35.1541 667.062 32.5805C667.623 32.3007 667.272 31.402 666.711 31.6818C663.854 33.1017 661.216 32.8215 658.823 31.6844Z" fill="#F3EFE7"/>
<path d="M661.063 26.576C656.628 24.4997 652.891 19.5311 649.544 16.5734C645.652 13.1579 639.818 10.7749 635.075 13.9969C634.571 14.3458 635.133 15.1619 635.653 14.7764C642.914 9.81012 649.85 18.3728 654.444 22.8848C658.301 26.6794 663.88 30.0457 669.302 27.4721C669.863 27.1923 669.512 26.2936 668.951 26.5734C666.094 27.9933 663.456 27.7131 661.063 26.576Z" fill="#F3EFE7"/>
</svg>
