<svg width="485" height="120" viewBox="0 0 485 120" fill="none" xmlns="http://www.w3.org/2000/svg">
<g clip-path="url(#clip0)">
<path d="M119.986 114.343L115.933 93.5158C114.809 87.8175 110.676 83.8047 105.861 83.8047H75.5234C68.8621 83.8047 63.9262 91.4291 65.4511 99.3746L69.5041 120.161C70.6277 125.859 74.7609 129.872 79.5764 129.872H109.914C116.575 129.872 121.511 122.288 119.986 114.343Z" fill="#D24A43"/>
<path d="M75.0827 95.3629C74.2801 94.8412 73.2368 95.0017 72.675 95.8043C72.5947 95.8845 72.5546 96.0049 72.4743 96.0852C71.9527 96.8075 72.1132 97.9712 72.9157 98.4929C73.7183 99.0146 74.7617 98.854 75.3235 98.0515L75.5241 97.7706C76.0056 97.0082 75.8853 95.8444 75.0827 95.3629Z" fill="white"/>
<path d="M76.8073 105.193C76.0047 104.672 74.9614 104.832 74.3996 105.635C74.3193 105.715 74.2792 105.835 74.1989 105.916C73.6773 106.638 73.8378 107.802 74.6404 108.323C75.4429 108.845 76.4863 108.684 77.0481 107.882L77.2487 107.601C77.7704 106.839 77.6099 105.675 76.8073 105.193Z" fill="white"/>
<path d="M81.7438 95.3629C80.9412 94.8412 79.8979 95.0017 79.3361 95.8043C79.2558 95.8845 79.2157 96.0049 79.1355 96.0852C78.6138 96.8075 78.7743 97.9712 79.5769 98.4929C80.3794 99.0146 81.4228 98.854 81.9846 98.0515L82.1852 97.7706C82.6668 97.0082 82.5063 95.8444 81.7438 95.3629Z" fill="white"/>
<path d="M78.5729 115.025C77.7703 114.503 76.727 114.663 76.1652 115.466C76.0849 115.546 76.0448 115.667 75.9646 115.747C75.4429 116.469 75.6034 117.633 76.406 118.155C77.2085 118.676 78.2519 118.516 78.8137 117.713L79.0143 117.432C79.4959 116.67 79.3354 115.506 78.5729 115.025Z" fill="white"/>
<path d="M346.311 28.9082H301.889V63.1379H346.311V28.9082Z" fill="#E6DFD1"/>
<path d="M172 53H150V74H172V53Z" fill="#FFA79B"/>
<path d="M334.954 36.0518H311.8C311.158 36.0518 311.158 37.055 311.8 37.055H334.954C335.596 37.0148 335.596 36.0518 334.954 36.0518Z" fill="white"/>
<path d="M153.481 64.21L176.636 64.21C177.278 64.21 177.278 63.2067 176.636 63.2067L153.481 63.2067C152.839 63.2469 152.839 64.21 153.481 64.21Z" fill="white"/>
<path d="M334.954 41.9501H311.8C311.158 41.9501 311.158 42.9533 311.8 42.9533H334.954C335.596 42.9533 335.596 41.9501 334.954 41.9501Z" fill="white"/>
<path d="M334.954 47.85H311.8C311.158 47.85 311.158 48.8533 311.8 48.8533H334.954C335.596 48.8533 335.596 47.85 334.954 47.85Z" fill="white"/>
<path d="M328.694 53.7882H311.68C311.198 53.7882 311.198 54.7914 311.68 54.7914H328.694C329.135 54.7513 329.135 53.7882 328.694 53.7882Z" fill="white"/>
<path d="M309.713 39.2622C309.593 39.2622 309.473 39.2221 309.352 39.1017L306.904 36.5334C306.704 36.3328 306.744 36.0519 306.904 35.8513L309.352 33.4034C309.553 33.2028 309.874 33.2028 310.034 33.4034C310.235 33.6041 310.235 33.9251 310.034 34.0856L307.908 36.2124L310.034 38.4596C310.235 38.6603 310.195 38.9813 310.034 39.1418C309.954 39.1819 309.834 39.2622 309.713 39.2622Z" fill="white"/>
<path d="M178.722 60.9995C178.843 60.9995 178.963 61.0397 179.083 61.16L181.531 63.7283C181.732 63.9289 181.692 64.2098 181.531 64.4105L179.083 66.8583C178.883 67.0589 178.562 67.0589 178.401 66.8583C178.2 66.6577 178.2 66.3366 178.401 66.1761L180.528 64.0493L178.401 61.8021C178.2 61.6015 178.241 61.2804 178.401 61.1199C178.481 61.0798 178.602 60.9995 178.722 60.9995Z" fill="white"/>
<path d="M330.901 57.6014C330.781 57.6014 330.661 57.5613 330.54 57.4409C330.339 57.2403 330.339 56.9192 330.54 56.7587L332.667 54.6319L330.54 52.3847C330.339 52.184 330.38 51.863 330.54 51.7025C330.741 51.5019 331.062 51.542 331.222 51.7025L333.67 54.2707C333.871 54.4714 333.831 54.7523 333.67 54.9529L331.222 57.4008C331.142 57.5613 331.022 57.6014 330.901 57.6014Z" fill="white"/>
<path d="M293.764 26.0256C291.798 23.8186 289.791 21.6115 287.825 19.4044C287.384 18.9229 286.701 19.6452 287.143 20.0866L293.082 26.7078C293.483 27.1894 294.205 26.5072 293.764 26.0256Z" fill="#0EA36C"/>
<path d="M255.259 44.3182C237.201 42.3519 232.426 39.5429 228.654 55.9956C224.882 72.4483 221.752 103.949 221.752 103.949L249.521 119.238H302.41C302.41 119.238 304.056 43.0341 284.674 43.1946C270.267 43.315 255.259 44.3182 255.259 44.3182Z" fill="#D24A43"/>
<path d="M276.206 99.4564C258.349 102.546 247.675 107.723 243.742 109.368L243.903 119.039L292.177 119.2C289.529 111.294 283.229 103.429 276.206 99.4564Z" fill="#FFA79B"/>
<path d="M277.49 66.5109C277.49 66.1899 277.008 66.1899 277.008 66.5109C276.768 76.9845 276.527 87.458 276.286 97.9316C276.286 98.1723 276.607 98.2526 276.728 98.052C276.888 97.7711 277.49 66.5109 277.49 66.5109Z" fill="white"/>
<path d="M246.912 99.8565C246.672 99.2947 228.774 71.8868 215.371 58.3234C215.331 58.2833 215.331 58.203 215.291 58.1629C213.445 55.8756 211.238 53.9093 208.75 52.3443C208.228 52.0232 207.667 51.7022 207.065 51.341C205.821 50.4181 204.577 49.4149 203.413 48.3715C202.49 47.5689 200.524 44.8001 198.959 45.2415C198.678 45.3218 198.477 45.4823 198.317 45.6829C198.277 45.723 198.277 45.723 198.277 45.7632C197.956 46.2848 197.996 46.967 198.196 47.5288C198.517 48.5722 199.24 49.4149 200.122 50.0971C201.527 51.9028 200.805 53.1468 199.48 52.6252C198.277 51.9028 196.992 51.3009 195.628 50.9398C195.147 50.7391 194.665 50.5385 194.143 50.3779C192.779 47.6091 190.652 43.8771 189.569 44.6396C188.565 45.5224 187.803 47.3282 188.285 49.2142C187.442 49.8161 187.763 52.1837 188.164 53.2672C189.328 56.4775 189.93 57.8017 192.217 60.4101C194.625 63.1388 200.684 64.142 203.654 65.9478C206.864 68.516 224.561 104.712 223.598 104.511C223.517 104.511 247.554 101.261 246.912 99.8565Z" fill="#FFA79B"/>
<path d="M205.5 58.1629C203.574 56.7183 202.21 54.752 201.568 52.4246C201.487 52.1035 201.006 52.264 201.086 52.5449C201.768 54.9928 203.213 57.0393 205.219 58.5642C205.5 58.805 205.741 58.3636 205.5 58.1629Z" fill="#952C28"/>
<path d="M195.388 56.3167C194.746 55.7549 194.144 55.5543 193.301 55.3537C192.699 55.1932 192.86 55.4339 192.699 54.7919C192.619 54.4708 192.619 54.0696 192.539 53.7485C192.177 51.9427 191.335 50.2975 190.171 48.8528C189.97 48.6121 189.609 48.9732 189.81 49.214C191.295 51.0599 192.097 53.2268 192.217 55.5944C192.217 55.7148 192.338 55.8352 192.458 55.8352C193.421 55.755 194.264 56.0359 194.986 56.6779C195.267 56.8384 195.628 56.5174 195.388 56.3167Z" fill="#952C28"/>
<path d="M196.07 53.3875C195.347 52.7455 194.545 52.5047 193.622 52.6251C193.14 50.1371 191.816 47.93 189.81 46.3249C189.569 46.1243 189.208 46.4854 189.449 46.6861C191.455 48.2912 192.739 50.4581 193.18 52.9862C193.221 53.1066 193.381 53.1869 193.502 53.1468C194.344 52.9461 195.067 53.1468 195.749 53.7487C195.989 53.9493 196.311 53.5882 196.07 53.3875Z" fill="#952C28"/>
<path d="M194.144 58.5637C193.582 57.4803 192.258 57.3599 191.736 56.1962C190.974 54.591 190.452 52.8254 189.85 51.1801C189.73 50.8992 189.248 51.0196 189.369 51.3005C190.011 52.9859 190.573 54.7515 191.295 56.3968C191.496 56.8382 191.696 57.1592 192.057 57.4803C192.619 57.9618 193.382 58.0822 193.743 58.8045C193.863 59.1255 194.305 58.8848 194.144 58.5637Z" fill="#952C28"/>
<path d="M238.445 61.2921C238.164 67.3515 237.923 73.4511 237.643 79.5105C237.643 79.8315 238.124 79.8315 238.124 79.5105C238.405 73.4511 238.646 67.3515 238.927 61.2921C238.927 60.9711 238.445 60.9711 238.445 61.2921Z" fill="white"/>
<path d="M220.508 118.757C213.566 123.292 209.914 133.163 214.689 161.614C219.143 188.26 222.474 203.388 224.721 212.859C226.567 212.859 245.709 213.18 251.327 213.18C251.648 187.899 248.879 166.55 248.879 166.55C271.752 165.708 268.381 140.547 263.967 118.797H220.508V118.757Z" fill="#D24A43"/>
<path d="M251.688 118.757C248.638 124.616 248.197 136.133 251.247 158.123C254.738 183.243 256.624 202.184 257.707 212.698C265.853 212.658 277.651 213.019 285.797 212.537C287.402 186.654 285.637 167.553 285.637 167.553C293.542 167.272 298.157 163.942 300.605 158.845C305.219 149.214 302.13 133.123 299.12 118.797H251.688V118.757Z" fill="#D24A43"/>
<path d="M270.308 118.757C277.571 126.662 289.81 128.95 300.765 126.983C300.244 124.214 299.682 121.446 299.08 118.757H270.308Z" fill="#D24A43"/>
<path d="M253.092 118.757H252.209C248.637 121.446 248.397 127.104 248.397 131.357C248.356 138.259 248.918 145.161 249.962 151.983C250.002 152.304 250.483 152.184 250.443 151.863C249.48 145.723 248.958 139.503 248.878 133.283C248.838 128.588 248.517 121.446 253.092 118.757Z" fill="black"/>
<path d="M256.383 56.0771C258.911 57.8428 261.319 57.8428 263.325 56.8396C264.168 51.5828 265.251 45.0819 265.452 44.8411L254.176 40.3467L251.006 44.7609C251.407 48.5731 253.253 53.9102 256.383 56.0771Z" fill="#FFA79B"/>
<path d="M263.887 53.3471C264.609 49.0934 265.291 45.0404 265.452 44.8398L259.352 42.6729C258.871 46.4449 261.078 50.3775 263.887 53.3471Z" fill="black"/>
<path d="M246.873 27.6245C248.117 23.5715 255.5 21.0836 260.516 21.8861C262.724 22.2473 263.687 20.6823 264.289 22.4078C265.773 26.7016 270.87 39.8236 269.264 43.9568C266.977 49.936 259.152 49.1736 254.979 45.5219C250.765 41.83 245.107 33.403 246.873 27.6245Z" fill="#FFA79B"/>
<path d="M263.405 18.8768C261.118 18.3953 257.988 20.3616 256.704 21.8464C252.089 21.1642 247.274 23.5318 246.311 26.6618C240.532 28.7084 245.428 40.8272 250.645 40.5864C252.089 39.5029 252.21 37.9379 253.173 36.1321C257.667 32.962 256.624 28.8689 256.343 26.6618C257.868 27.1835 264.208 24.4547 264.89 22.6489C265.653 19.9603 264.128 19.0374 263.405 18.8768Z" fill="#952C28"/>
<path d="M261.279 32.8818L260.838 31.0359C260.757 30.7149 260.236 30.8353 260.316 31.1964C260.476 31.7984 260.597 32.4404 260.757 33.0424C260.878 33.3634 261.359 33.2029 261.279 32.8818Z" fill="black"/>
<path d="M266.175 31.3569L265.733 29.511C265.653 29.1899 265.131 29.3103 265.211 29.6715C265.372 30.2734 265.492 30.9155 265.653 31.5174C265.733 31.8384 266.255 31.718 266.175 31.3569Z" fill="black"/>
<path d="M266.777 34.4868C266.616 34.1658 266.175 34.4467 266.335 34.7677C266.536 35.169 266.255 35.6104 265.894 35.8512C265.533 36.0919 265.091 36.1722 264.69 36.2525C264.369 36.3327 264.489 36.8142 264.851 36.7741C265.453 36.6537 266.135 36.4932 266.576 36.0117C266.897 35.5703 267.018 35.0085 266.777 34.4868Z" fill="#952C28"/>
<path d="M264.249 42.3113C263.807 42.3915 263.406 42.231 263.085 41.91C262.844 41.6692 262.483 42.0304 262.724 42.2711C263.165 42.7527 263.767 42.9132 264.409 42.8329C264.73 42.7527 264.61 42.231 264.249 42.3113Z" fill="#952C28"/>
<path d="M259.954 28.3874C259.673 28.588 259.352 28.7485 259.071 28.9492C258.51 29.3103 259.031 30.2333 259.593 29.8721C259.874 29.6715 260.195 29.5109 260.476 29.3103C261.078 28.9492 260.556 28.0262 259.954 28.3874Z" fill="#952C28"/>
<path d="M265.733 27.545C265.613 27.3043 265.252 27.1839 265.011 27.3444C264.73 27.545 264.489 27.7457 264.208 27.9463C263.968 28.1068 263.847 28.3877 264.008 28.6686C264.128 28.9094 264.489 29.0298 264.73 28.8693C265.011 28.6686 265.252 28.468 265.533 28.2674C265.773 28.0667 265.894 27.7858 265.733 27.545Z" fill="#952C28"/>
<path d="M262.924 30.5144C262.763 30.2335 262.241 30.4341 262.442 30.715C263.365 32.2399 263.004 34.2463 261.278 35.0088C259.513 35.8114 257.587 34.6878 257.185 32.8418C257.105 32.5208 256.583 32.6011 256.664 32.9221C257.105 34.9687 259.111 36.333 261.158 35.6107C263.365 34.9285 264.087 32.4004 262.924 30.5144Z" fill="white"/>
<path d="M269.866 27.7456C269.706 27.4647 269.184 27.6653 269.385 27.9462C270.308 29.4711 269.946 31.4775 268.221 32.24C266.455 33.0426 264.529 31.919 264.128 30.073C264.047 29.752 263.526 29.8323 263.606 30.1533C264.047 32.1999 266.054 33.5642 268.1 32.8419C270.267 32.1196 270.99 29.6316 269.866 27.7456Z" fill="white"/>
<path d="M264.048 30.875L263.245 31.2763C262.924 31.4368 263.205 31.8782 263.526 31.7177L264.329 31.3164C264.61 31.1559 264.369 30.7145 264.048 30.875Z" fill="white"/>
<path d="M257.265 34.0453C255.058 34.567 252.41 35.53 250.203 36.0116C249.882 36.0918 250.002 36.6135 250.363 36.5333C252.611 36.0116 255.339 35.0485 257.586 34.5268C257.466 34.3663 257.346 34.2058 257.265 34.0453Z" fill="white"/>
<path d="M246.913 39.5834C246.993 37.1757 250.043 34.8884 253.173 36.1324C254.015 38.6203 254.978 41.0682 255.942 43.516C254.818 44.5594 252.089 45.4823 250.123 44.7199C247.836 43.8371 246.832 42.1516 246.913 39.5834Z" fill="#FFA79B"/>
<path d="M250.725 39.2623C250.404 39.1018 250.163 39.5833 250.444 39.7037C251.287 40.105 252.09 40.5464 252.932 40.9477C253.133 41.0681 253.374 40.8674 253.334 40.6668C253.293 40.5865 251.407 39.6234 250.725 39.2623Z" fill="#952C28"/>
<path d="M371.913 45.3226C372.435 45.5232 383.47 61.7352 383.47 61.7352L395.027 48.5329L379.939 37.2969L371.913 45.3226Z" fill="#FFA79B"/>
<path d="M375.444 50.1375C373.599 47.489 372.074 45.4023 371.873 45.3221L374.843 42.3124C376.087 44.7603 376.528 47.8502 375.444 50.1375Z" fill="black"/>
<path d="M377.411 19.2796C374.201 16.1094 366.055 17.5541 361.761 20.8446C359.875 22.2892 358.149 21.3261 358.47 23.2523C359.233 28.0276 361.761 43.3968 364.73 45.9249C369.947 50.299 376.809 45.6842 378.896 40.1464C380.942 34.5686 381.986 23.8141 377.411 19.2796Z" fill="#FFA79B"/>
<path d="M357.065 22.6896C357.868 26.5018 364.89 24.5355 368.462 22.7297C369.425 26.8228 372.314 36.9753 380.38 37.5371C383.631 30.2739 383.309 19.3589 378.614 19.7201C374.321 13.7409 366.014 17.5932 361.72 20.9239C359.754 18.9977 357.306 19.4392 357.065 22.6896Z" fill="black"/>
<path d="M377.732 28.9507C376.408 26.7436 372.435 26.1818 370.147 28.8704C370.589 31.6393 370.95 34.368 371.311 37.177C372.876 37.5783 375.886 37.0566 377.371 35.3712C379.016 33.4451 379.136 31.3183 377.732 28.9507Z" fill="#FFA79B"/>
<path d="M358.911 34.5282C358.791 33.4447 359.714 32.6021 360.757 32.6422C361.078 32.6422 361.359 33.0435 361.319 33.3244C361.319 33.3645 361.279 33.3645 361.279 33.4046C361.399 33.4046 361.479 33.4448 361.6 33.4448C362.362 33.6855 361.921 34.8493 361.158 34.6085C361.158 34.6085 361.118 34.6486 361.198 34.6486C361.8 34.7289 361.961 35.6117 361.399 35.8525C360.315 36.2939 359.031 35.6518 358.911 34.5282Z" fill="#FFA79B"/>
<path d="M361.84 29.632C361.72 30.234 361.559 30.7958 361.439 31.3977C361.359 31.7187 361.88 31.8792 361.961 31.5582C362.081 30.9563 362.242 30.3945 362.362 29.7926C362.402 29.4314 361.88 29.2709 361.84 29.632Z" fill="black"/>
<path d="M374.762 30.2346C374.401 30.676 374.039 31.1174 373.678 31.5989L373.397 31.9601C373.197 32.241 373.558 32.6021 373.799 32.3614C374.24 31.7996 374.722 31.2378 375.163 30.6358C375.364 30.3549 374.962 29.9537 374.762 30.2346Z" fill="black"/>
<path d="M368.422 40.7894C368.382 40.4282 367.86 40.5887 367.9 40.9499C368.061 41.9932 367.579 43.0366 366.696 43.5984C366.416 43.799 366.696 44.2405 366.977 44.0799C368.061 43.3576 368.582 42.1136 368.422 40.7894Z" fill="black"/>
<path d="M363.045 26.7426C362.603 26.6624 362.162 26.5821 361.68 26.4617C361.399 26.4216 361.078 26.542 360.998 26.8229C360.918 27.1038 361.078 27.4248 361.359 27.5051C361.801 27.5853 362.242 27.6656 362.724 27.786C363.005 27.8261 363.326 27.7057 363.406 27.4248C363.486 27.1439 363.326 26.7828 363.045 26.7426Z" fill="black"/>
<path d="M379.537 67.6734C368.823 82.1196 366.014 89.7039 366.014 89.7039C366.014 89.7039 354.296 65.7873 349.561 60.8916C349.561 60.8916 335.717 55.9157 333.991 58.4438C332.266 60.9719 332.988 65.9478 334.032 68.9173C335.075 71.8869 339.128 73.5321 343.02 73.1308C343.02 73.1308 351.969 114.544 359.874 116.269C367.74 117.995 375.645 117.031 376.608 116.911C381.905 116.269 402.531 77.1838 402.571 75.8596C402.571 74.5353 379.537 67.6734 379.537 67.6734Z" fill="#FFA79B"/>
<path d="M367.217 92.1518C366.937 91.4696 366.656 90.7473 366.375 90.0651C366.254 89.7842 365.773 89.9046 365.893 90.1855C366.174 90.8677 366.455 91.59 366.736 92.2722C366.856 92.5531 367.338 92.4327 367.217 92.1518Z" fill="white"/>
<path d="M348.51 57.0368L336.814 55.2114L334.488 70.1186L346.184 71.944L348.51 57.0368Z" fill="#088054"/>
<path d="M340.371 58.4837C339.93 61.4532 339.488 64.3826 339.087 67.3521C339.007 67.954 339.93 68.2349 340.05 67.633C340.491 64.6635 340.933 61.7341 341.334 58.7646C341.414 58.1225 340.451 57.8416 340.371 58.4837Z" fill="white"/>
<path d="M344.304 47.0073C342.137 48.0506 341.053 50.5787 341.776 52.8661C341.976 53.468 342.899 53.2272 342.739 52.5851C342.137 50.6991 343.06 48.6927 344.825 47.85C345.387 47.5691 344.865 46.7264 344.304 47.0073Z" fill="#BCD7FD"/>
<path d="M345.668 48.6921C344.264 49.6151 343.541 51.1801 343.782 52.8254C343.862 53.4674 344.825 53.1865 344.745 52.5444C344.585 51.3406 345.146 50.1769 346.19 49.5348C346.671 49.2138 346.19 48.3711 345.668 48.6921Z" fill="#BCD7FD"/>
<path d="M335.957 58.204C335.476 58.0435 335.235 58.6052 335.436 58.9263C335.115 58.9263 334.834 59.0066 334.553 59.2473C333.75 59.8894 333.871 61.2136 334.713 61.7754C334.794 61.8557 334.914 61.8557 334.994 61.8557C335.034 62.2971 335.115 62.7385 335.275 63.0595C335.275 63.0997 335.235 63.1799 335.235 63.22C334.954 63.2602 334.673 63.4207 334.392 63.7016C334.192 63.9022 334.031 64.2634 333.951 64.6647C333.148 65.7482 332.225 67.1526 332.908 68.5571C333.309 69.3597 334.192 69.8814 335.115 69.6406C336.439 69.2795 336.84 67.7947 336.439 66.5908C336.479 66.5106 336.479 66.4303 336.519 66.3501C336.559 66.2297 336.599 66.1494 336.64 66.029C336.72 65.8284 336.76 65.5876 336.8 65.3067C337.282 64.7851 337.522 64.143 337.522 63.4608C337.924 63.0194 338.245 62.4576 338.365 61.9761C338.726 60.2907 337.563 58.7658 335.957 58.204ZM335.235 60.0098C335.235 60.09 335.235 60.1301 335.235 60.2104C335.235 60.3308 335.275 60.411 335.315 60.4913C335.235 60.5716 335.195 60.6919 335.155 60.8123C334.914 60.5716 334.994 60.1703 335.235 60.0098Z" fill="#FFA79B"/>
<path d="M336.96 62.417C335.676 62.0959 334.753 61.0526 334.513 59.7685C334.472 59.5277 334.071 59.608 334.111 59.8889C334.352 61.2934 335.435 62.4571 336.84 62.8182C337.121 62.8584 337.201 62.4571 336.96 62.417Z" fill="black"/>
<path d="M335.757 64.9847C334.914 64.7841 334.272 64.1821 334.031 63.3796C333.951 63.1388 333.59 63.219 333.63 63.4999C333.911 64.463 334.673 65.1854 335.636 65.386C335.917 65.4261 335.998 65.0248 335.757 64.9847Z" fill="black"/>
<path d="M335.596 67.9552C334.794 67.7947 334.151 67.1526 334.031 66.3099C333.991 66.0692 333.59 66.1494 333.63 66.4303C333.79 67.3934 334.553 68.1558 335.476 68.3565C335.757 68.3966 335.877 67.9953 335.596 67.9552Z" fill="black"/>
<path d="M354.136 68.0352C354.016 65.6676 352.892 62.5777 350.886 60.8923C345.308 57.3208 344.586 56.9195 343.903 57.5215C342.539 58.7253 343.703 60.2101 344.947 61.0929C345.188 61.4942 346.11 62.4573 346.311 62.6178C346.391 62.9388 348.719 68.0352 349.401 68.8779C349.642 69.1989 350.083 69.0785 350.244 68.8377C350.645 68.918 351.086 68.8377 351.407 68.597C352.09 68.5167 352.611 68.1154 352.972 67.5938C353.053 67.8345 353.093 68.0352 353.173 68.2759C353.334 68.7174 354.176 68.5568 354.136 68.0352Z" fill="#FFA79B"/>
<path d="M349.28 67.9152C348.839 67.0725 348.357 66.2298 347.916 65.3871C347.795 65.1463 347.434 65.3469 347.555 65.5877L348.919 68.1158C349.079 68.3566 349.4 68.1559 349.28 67.9152Z" fill="black"/>
<path d="M427.371 118.196C411.801 117.915 396.191 117.112 380.621 117.634C380.862 120.684 380.982 122.49 380.982 122.49C380.982 122.49 373.117 123.493 341.576 125.941C310.035 128.389 301.166 136.294 315.974 182.081C330.781 227.867 338.325 230.355 329.096 232.643C317.258 235.612 316.054 240.387 316.134 242.474H357.587C353.614 188.943 344.024 161.856 344.024 161.856C344.024 161.856 344.024 161.856 372.114 162.337C437.804 163.541 430.701 142.795 427.371 118.196Z" fill="#952C28"/>
<path d="M427.371 118.196C411.801 117.915 396.191 117.112 380.621 117.634C380.862 120.684 380.982 122.49 380.982 122.49C380.982 122.49 373.117 123.493 341.576 125.941C310.035 128.389 301.166 136.294 315.974 182.081C321.873 200.379 326.608 211.736 329.617 218.959C338.044 217.634 346.512 216.712 354.979 215.789C350.484 179.954 344.064 161.856 344.064 161.856C344.064 161.856 344.064 161.856 372.154 162.337C437.804 163.541 431.584 158.124 427.371 118.196Z" fill="#FECA55"/>
<path d="M427.37 118.074H380.621C380.58 117.472 380.5 116.83 380.46 116.108C380.219 113.5 379.938 110.249 379.657 106.598C379.617 105.956 379.537 105.314 379.497 104.631C379.417 103.789 379.377 102.906 379.296 101.983C379.256 101.341 379.216 100.699 379.136 100.017C378.895 96.9668 378.694 93.7565 378.494 90.5061C378.454 89.864 378.413 89.1819 378.373 88.5398C378.333 87.657 378.253 86.7742 378.213 85.9315C378.173 85.2894 378.133 84.6072 378.092 83.9651C377.932 81.0759 377.812 78.2268 377.691 75.4178C377.651 74.7757 377.651 74.0935 377.611 73.4515C377.571 72.5686 377.571 71.6858 377.531 70.8431C377.531 70.1609 377.49 69.5189 377.49 68.8768C377.41 65.0245 377.41 61.4129 377.531 58.3631C377.571 57.6809 377.571 57.0389 377.611 56.3968C377.651 55.9955 377.651 55.6344 377.691 55.2331C377.731 54.7114 377.812 54.2299 377.892 53.7483C378.012 53.0662 378.173 52.384 378.373 51.782C380.42 45.522 386.359 42.4722 389.69 44.2379C391.816 45.4016 395.428 48.01 395.428 48.01C397.033 49.1737 398.518 50.4578 399.962 51.782C400.645 52.4241 401.327 53.0662 401.969 53.7483C402.812 54.591 403.614 55.4739 404.377 56.3968C404.938 57.0389 405.5 57.6809 406.022 58.3631C408.63 61.6135 410.918 65.1449 412.964 68.8768C413.325 69.5189 413.686 70.201 414.007 70.8431C414.449 71.7259 414.89 72.5686 415.292 73.4515C415.613 74.0935 415.894 74.7757 416.215 75.4178C417.459 78.1866 418.582 81.0759 419.585 83.9651C419.826 84.6072 420.027 85.2894 420.268 85.9315C420.548 86.8143 420.829 87.657 421.11 88.5398C421.311 89.1819 421.512 89.864 421.712 90.5061C422.635 93.6763 423.438 96.8464 424.16 100.017C424.321 100.659 424.441 101.341 424.601 101.983C424.802 102.866 424.963 103.749 425.123 104.631C425.243 105.273 425.364 105.956 425.484 106.598C426.086 109.808 426.568 113.018 427.009 116.108C427.089 116.67 427.17 117.192 427.25 117.753C427.33 117.834 427.37 117.954 427.37 118.074Z" fill="#FECA55"/>
<path d="M389.207 84.5266C388.485 78.3067 387.803 72.0868 387.081 65.8669C387.04 65.5458 386.559 65.5458 386.599 65.8669C387.321 72.0868 388.004 78.3067 388.726 84.5266C388.886 84.5266 389.047 84.5266 389.207 84.5266Z" fill="white"/>
<path d="M427.37 118.075H380.62C380.58 117.473 380.5 116.831 380.46 116.109H427.129C427.21 116.67 427.29 117.192 427.37 117.754C427.33 117.834 427.37 117.955 427.37 118.075Z" fill="white"/>
<path d="M424.641 101.983H379.255C379.215 101.341 379.175 100.699 379.095 100.017H424.199C424.36 100.659 424.52 101.301 424.641 101.983Z" fill="white"/>
<path d="M425.564 106.558H379.617C379.576 105.916 379.496 105.274 379.456 104.592H425.162C425.323 105.274 425.443 105.916 425.564 106.558Z" fill="white"/>
<path d="M402.009 53.7082H377.932C378.052 53.026 378.213 52.3439 378.413 51.7419H400.002C400.685 52.384 401.367 53.026 402.009 53.7082Z" fill="white"/>
<path d="M406.102 58.2831H377.57C377.61 57.6009 377.61 56.9588 377.651 56.3168H404.456C405.018 56.9588 405.54 57.641 406.102 58.2831Z" fill="white"/>
<path d="M414.087 70.7627H377.57C377.57 70.0805 377.53 69.4384 377.53 68.7964H413.044C413.405 69.4384 413.726 70.1206 414.087 70.7627Z" fill="white"/>
<path d="M416.294 75.3777H377.691C377.65 74.7356 377.65 74.0534 377.61 73.4114H415.371C415.692 74.0534 416.013 74.6955 416.294 75.3777Z" fill="white"/>
<path d="M420.347 85.8907H378.212C378.172 85.2486 378.132 84.5664 378.092 83.9244H419.665C419.906 84.5664 420.147 85.2085 420.347 85.8907Z" fill="white"/>
<path d="M414.289 89.7456C414.048 89.1436 395.669 88.4614 389.73 89.6653L390.131 93.9189C369.987 94.2399 356.905 97.7311 349.441 100.661C344.545 101.824 336.56 103.389 334.353 105.877C331.744 108.847 329.698 110.653 331.704 112.539C331.464 112.98 332.346 114.786 333.309 114.304C333.109 114.625 333.711 115.588 335.276 115.669C336.439 116.672 338.847 115.348 340.252 113.221C341.496 112.86 342.98 112.579 344.144 111.054C344.144 111.054 350.003 113.903 357.387 109.689C357.387 109.689 372.876 118.116 403.213 115.348C422.154 113.622 420.188 104.754 414.289 89.7456Z" fill="#FFA79B"/>
<path d="M392.66 94.0393C392.098 93.959 391.496 93.8788 390.934 93.7985C390.613 93.7584 390.493 94.2399 390.814 94.2801C391.376 94.3603 391.978 94.4406 392.539 94.5208C392.86 94.561 392.981 94.0794 392.66 94.0393Z" fill="white"/>
<path d="M339.409 109.85C337.844 111.334 336.519 113.06 335.476 114.946C335.315 115.227 335.757 115.468 335.917 115.187C336.961 113.341 338.245 111.655 339.77 110.211C340.011 109.97 339.649 109.609 339.409 109.85Z" fill="black"/>
<path d="M337.363 107.923C335.637 109.648 334.353 111.655 333.51 113.942C333.39 114.223 333.872 114.383 333.992 114.062C334.794 111.855 336.038 109.889 337.724 108.244C337.965 108.043 337.603 107.682 337.363 107.923Z" fill="black"/>
<path d="M336.359 106.238C333.55 106.76 332.547 109.529 331.784 111.936C331.704 112.257 332.186 112.378 332.266 112.057C332.948 109.809 333.871 107.201 336.479 106.72C336.8 106.679 336.64 106.198 336.359 106.238Z" fill="black"/>
<path d="M421.793 90.4677H378.494C378.454 89.8257 378.414 89.1435 378.374 88.5014H421.231C421.392 89.1836 421.592 89.8257 421.793 90.4677Z" fill="white"/>
<path d="M412.563 163.542H351.488C350.685 163.542 350.003 162.9 350.003 162.057C350.003 161.254 350.645 160.572 351.488 160.572H412.563C419.626 160.572 425.726 155.797 427.451 148.935L449.562 59.8897C449.763 59.0871 450.565 58.6056 451.368 58.8062C452.17 59.0069 452.652 59.8094 452.451 60.612L430.34 149.657C428.254 157.844 420.95 163.542 412.563 163.542Z" fill="#D24A43"/>
<path d="M331.504 115.668C326.047 102.707 323.077 96.0456 317.62 83.0841C317.379 82.5223 316.416 82.763 316.656 83.365C322.114 96.3265 325.083 102.988 330.541 115.949C330.822 116.511 331.785 116.27 331.504 115.668Z" fill="black"/>
<path d="M366.857 115.668H331.624C330.982 115.668 330.982 116.671 331.624 116.671H366.857C367.499 116.631 367.499 115.668 366.857 115.668Z" fill="black"/>
<path d="M329.056 74.4563L323.799 81.6794C323.438 82.2011 324.281 82.6827 324.642 82.161C326.407 79.7533 328.133 77.3456 329.899 74.9378C330.26 74.4563 329.417 73.9748 329.056 74.4563Z" fill="#0EA36C"/>
<path d="M332.146 81.1583L325.565 84.7699C325.003 85.0909 325.525 85.9336 326.046 85.6125L332.627 82.001C333.229 81.7201 332.708 80.8774 332.146 81.1583Z" fill="#0EA36C"/>
<path d="M225.724 67.834H217.498V87.8581H225.724V67.834Z" fill="#088054"/>
<path d="M215.532 72.73H207.306V92.7542H215.532V72.73Z" fill="#088054"/>
<path d="M235.877 78.3068H227.65V98.331H235.877V78.3068Z" fill="#BCD7FD"/>
<path d="M199.902 14.2245C198.257 16.5118 196.611 18.8393 194.966 21.1266C194.605 21.6483 195.448 22.1298 195.809 21.6082C197.454 19.3208 199.099 16.9934 200.745 14.706C201.146 14.1844 200.263 13.7028 199.902 14.2245Z" fill="#FECA55"/>
<path d="M204.999 22.5715C202.591 23.976 200.183 25.4206 197.776 26.8251C197.214 27.1461 197.735 27.9888 198.257 27.6678C200.665 26.2633 203.073 24.8187 205.48 23.4142C206.042 23.0932 205.561 22.2505 204.999 22.5715Z" fill="#FECA55"/>
<path d="M190.031 15.6285C189.71 16.712 189.388 17.8356 189.027 18.9191C188.827 19.521 189.79 19.8019 189.99 19.2C190.311 18.1165 190.632 16.9929 190.994 15.9094C191.154 15.3075 190.191 15.0266 190.031 15.6285Z" fill="#FECA55"/>
<path d="M257.387 119.039H207.868L199.24 82.8428H248.759L257.387 119.039Z" fill="#575552"/>
<path d="M267.017 115.668H231.784C231.142 115.668 231.142 116.671 231.784 116.671H267.017C267.659 116.631 267.659 115.668 267.017 115.668Z" fill="black"/>
<path d="M228.964 102.459C227.961 100.734 226.918 99.0081 225.914 97.2425C225.593 96.6807 224.751 97.2023 225.072 97.724C226.075 99.4495 227.118 101.175 228.121 102.941C228.442 103.503 229.285 103.021 228.964 102.459Z" fill="white"/>
<path d="M231.773 102.539C230.769 100.893 229.806 99.2481 228.803 97.6028C228.482 97.041 227.639 97.5627 227.96 98.0844C228.964 99.7297 229.927 101.375 230.93 103.02C231.251 103.582 232.134 103.1 231.773 102.539Z" fill="white"/>
<path d="M170.508 115.746L146.43 114.342L96.6309 111.453L99.2392 68.7559L113.525 62.4156L125.844 56.918C127.329 56.8778 128.774 56.7976 130.058 56.7575C146.912 56.0351 149.721 55.2326 157.345 75.658C165.612 97.6886 170.508 115.746 170.508 115.746Z" fill="#EBF5F1"/>
<path d="M144.263 95.5615L143.26 103.146C143.22 103.467 143.702 103.467 143.742 103.146L144.745 95.5615C144.785 95.2405 144.304 95.2405 144.263 95.5615Z" fill="white"/>
<path d="M146.31 85.5697C145.467 80.9951 144.143 76.5408 142.418 72.2069C142.297 71.926 141.816 72.0464 141.936 72.3273C143.381 75.9389 144.545 79.6307 145.347 83.4429C145.788 85.4092 146.15 87.4156 146.39 89.4221C146.631 91.5088 146.631 93.9165 144.665 95.2006C144.384 95.3611 144.665 95.8025 144.906 95.642C148.236 93.4751 146.912 88.6998 146.31 85.5697Z" fill="white"/>
<path d="M149.801 91.4286C147.033 93.9567 145.548 97.5683 145.748 101.3C145.748 101.621 146.27 101.621 146.23 101.3C146.029 97.6887 147.434 94.1975 150.122 91.7497C150.363 91.549 150.042 91.228 149.801 91.4286Z" fill="white"/>
<path d="M169.223 104.228C171.39 102.262 173.276 99.4129 171.19 96.6842C170.347 95.5606 169.103 94.758 167.699 94.1561C165.251 92.6312 162.522 91.628 159.553 92.3101C156.784 92.9121 153.132 96.3631 152.57 99.0517C151.848 100.898 154.256 101.74 154.978 103.667C159.793 103.747 164.528 103.506 169.223 104.228ZM157.707 98.5301C158.188 98.0887 158.67 97.6071 159.191 97.1657H159.231C159.272 97.4466 159.312 97.7275 159.312 98.0084C159.191 99.0116 158.951 99.9747 158.63 100.898C158.509 101.058 158.389 101.259 158.309 101.419C158.068 100.496 157.666 99.5734 157.345 98.7307C157.466 98.7307 157.586 98.6505 157.707 98.5301Z" fill="#FFA79B"/>
<path d="M163.285 97.7681C162.562 99.4134 161.88 101.059 161.158 102.704C161.038 102.985 161.439 103.226 161.599 102.945C162.322 101.299 163.004 99.6541 163.726 98.0089C163.847 97.728 163.445 97.4872 163.285 97.7681Z" fill="#D24A43"/>
<path d="M166.534 99.053C165.812 100.417 165.13 101.782 164.408 103.146C164.247 103.427 164.689 103.668 164.849 103.387C165.571 102.023 166.254 100.658 166.976 99.2938C167.096 99.0129 166.655 98.7721 166.534 99.053Z" fill="#D24A43"/>
<path d="M170.027 99.5741C169.344 100.938 168.622 102.343 167.94 103.707C167.779 103.988 168.221 104.229 168.381 103.948C169.063 102.584 169.786 101.179 170.468 99.8149C170.628 99.534 170.187 99.2932 170.027 99.5741Z" fill="#D24A43"/>
<path d="M161.719 84.7239C161.639 85.2054 161.599 85.687 161.518 86.1685C161.478 86.329 161.478 86.4895 161.438 86.65C160.836 91.2247 160.234 95.7994 159.632 100.374C159.111 101.177 158.629 101.979 158.228 102.782C157.987 101.738 157.666 100.695 157.265 99.6918C157.826 95.3579 158.388 90.9839 158.99 86.65C159.03 86.4895 159.03 86.329 159.07 86.1685C159.111 85.687 159.191 85.2054 159.271 84.7239C159.351 84.1621 159.712 83.8009 160.154 83.6404C160.475 83.52 160.836 83.52 161.157 83.6404C161.518 83.8009 161.799 84.1621 161.719 84.7239Z" fill="#088054"/>
<path d="M160.395 81.9959C160.194 83.3201 160.034 84.6444 159.833 85.9686C159.753 86.6107 160.716 86.8113 160.796 86.1693C160.997 84.845 161.157 83.5208 161.358 82.1965C161.438 81.5545 160.475 81.3538 160.395 81.9959Z" fill="#2252B2"/>
<path d="M161.518 86.1695C161.478 86.33 161.478 86.4905 161.438 86.651H158.99C159.03 86.4905 159.03 86.33 159.07 86.1695H161.518Z" fill="black"/>
<path d="M151.125 117.071H79.5361C80.1782 110.811 78.8941 91.7901 84.1509 73.4112C88.3243 58.7643 92.9391 57.2394 109.994 57.0789C114.368 57.0387 119.584 57.0789 125.844 56.9986L118.581 70.2812L104.135 96.7259C117.739 98.9329 137.482 109.366 146.39 114.382C149.36 116.028 151.125 117.071 151.125 117.071Z" fill="#EBF5F1"/>
<path d="M151.125 117.07C151.125 117.07 132.024 105.553 115.17 99.6545C110.314 104.55 106.943 110.73 103.934 117.07H151.125Z" fill="#FFA79B"/>
<path d="M113.886 98.7714C111.077 97.5275 108.148 96.5242 105.138 95.842C104.978 95.8019 104.817 95.7618 104.657 95.7217C102.49 95.2401 100.323 94.879 98.0757 94.6783C97.7547 94.6382 97.7547 94.1566 98.0757 94.1968C100.283 94.3974 102.49 94.7184 104.617 95.2C104.777 95.2401 104.938 95.2802 105.098 95.3204C108.188 96.0427 111.198 97.0459 114.087 98.33C114.448 98.4504 114.167 98.8918 113.886 98.7714Z" fill="white"/>
<path d="M105.178 95.802C105.018 95.7618 104.857 95.7217 104.697 95.6816C104.697 95.5211 104.697 95.3606 104.697 95.1599C104.496 89.4215 104.295 83.6831 104.095 77.9448C104.095 77.6237 104.576 77.6237 104.576 77.9448C104.777 83.7233 104.978 89.5018 105.178 95.2401C105.138 95.4809 105.178 95.6414 105.178 95.802Z" fill="white"/>
<path d="M130.104 57L124.888 80.0739L118.628 70.4431L113.531 62.6581L110 57.2408C114.374 57.2007 119.591 57.2408 125.851 57.1605C127.376 57.1204 128.78 57.0803 130.104 57Z" fill="#FFA79B"/>
<path d="M130.485 54.3359C130.011 54.4322 118.199 66.7843 118.199 66.7843L110.146 53.8022L124.712 46.2973L130.485 54.3359Z" fill="#FFA79B"/>
<path d="M126.737 57.9133C128.698 55.8961 130.306 54.3243 130.471 54.2807L128.321 51.2694C126.959 53.2161 126.15 55.8088 126.737 57.9133Z" fill="black"/>
<path d="M117.597 33.5366C119.135 29.9286 126.189 28.4094 130.749 29.6653C132.746 30.2217 133.801 28.885 134.183 30.5452C135.115 34.6132 138.134 47.8741 136.581 50.8697C133.807 56.1267 126.744 54.6245 123.276 50.8476C119.704 47.0102 115.351 38.6827 117.597 33.5366Z" fill="#FFA79B"/>
<path d="M125.759 55.4434C129.098 51.2108 127.885 41.5511 128.438 40.7585C130.38 38.4524 129.805 35.2878 128.706 33.0254C130.05 33.6668 133.872 32.3593 134.654 30.7719C135.611 28.4042 134.344 27.39 133.694 27.1516C132.145 26.6233 129.959 27.3498 128.425 28.3148C128.034 27.9488 127.528 27.7014 126.866 27.642C123.732 27.4462 120.068 28.2422 117.782 30.5807C117.416 30.9714 117.085 31.3822 116.823 31.8334C114.967 32.4726 113.514 33.8563 113.14 36.0985C113.14 36.0985 113.14 36.0985 113.12 36.1332C112.383 36.1232 111.641 36.2027 110.922 36.4814C109.266 37.0971 108.006 38.5468 107.646 40.2864C107.46 41.2458 107.528 42.1671 107.801 42.9753C105.966 45.0184 105.194 47.8651 106.814 50.4297C107.469 51.4596 108.484 52.1884 109.577 52.5443C109.177 54.9108 110.783 57.4206 113.268 57.9355C114.103 58.0956 114.86 58.0709 115.558 57.8269C117.224 60.2325 121.169 61.2702 123.69 59.4858C125.04 58.5991 125.822 57.0118 125.759 55.4434Z" fill="black"/>
<path d="M122.343 43.3436C122.697 41.136 125.721 39.365 128.453 40.8124C128.99 43.1655 129.615 45.5241 130.241 47.8828C129.111 48.7112 126.503 49.2855 124.742 48.4023C122.739 47.378 121.979 45.7302 122.343 43.3436Z" fill="#FFA79B"/>
<path d="M137.218 40.1025C136.951 39.2047 135.933 38.7994 135.119 39.1622C134.86 39.2898 134.782 39.6626 134.91 39.9223C134.945 39.9424 134.945 39.9424 134.959 39.9973C134.884 40.0465 134.809 40.0958 134.734 40.145C134.204 40.5794 134.945 41.3809 135.475 40.9465C135.475 40.9465 135.53 40.932 135.455 40.9812C135.025 41.2421 135.139 42.0044 135.697 42.0033C136.667 42.01 137.5 41.0551 137.218 40.1025Z" fill="#FFA79B"/>
<path d="M133.214 35.4105L132.129 36.08C131.569 36.4046 132.091 37.2643 132.616 36.9195C132.971 36.7079 133.326 36.4964 133.701 36.2501C134.205 35.94 133.739 35.0657 133.214 35.4105Z" fill="#952C28"/>
<path d="M127.649 44.755C126.909 44.5109 126.134 44.2468 125.394 44.0027C125.076 43.9109 124.994 44.3733 125.257 44.4796C125.997 44.7236 126.771 44.9878 127.511 45.2318C127.829 45.3236 127.967 44.8468 127.649 44.755Z" fill="#D24A43"/>
<path d="M134.03 47.6707C133.487 47.7267 133.05 47.5196 132.735 47.1043C132.552 46.8591 132.206 47.2151 132.389 47.4603C132.788 47.9708 133.419 48.2439 134.051 48.1935C134.325 48.1207 134.339 47.6181 134.03 47.6707Z" fill="#D24A43"/>
<path d="M134.413 38.9382C134.228 38.4591 134.007 37.9598 133.821 37.4807C133.714 37.1863 133.22 37.3172 133.328 37.6117C133.513 38.0908 133.734 38.59 133.92 39.0692C134.027 39.3636 134.521 39.2326 134.413 38.9382Z" fill="black"/>
<path d="M154.095 132.199C137.361 130.874 137.361 130.874 137.361 130.874L139.729 117.913H84.2313C81.021 160.931 77.5699 168.635 132.426 165.666L145.909 164.663C145.909 164.663 138.686 182.078 135.235 195.361C143.983 196.164 167.498 201.541 167.739 201.782C169.304 197.729 189.85 135.008 154.095 132.199Z" fill="#0083F9"/>
<path d="M101.527 129.711C106.543 126.581 111.278 122.608 115.01 117.913H84.2314C83.7097 124.695 83.2282 130.593 82.9473 135.73C89.4481 135.81 95.989 133.162 101.527 129.711Z" fill="black"/>
<path d="M174.863 93.2449C176.087 90.275 177.312 87.305 178.537 84.335C178.792 83.7627 177.826 83.4324 177.624 84.0231C176.399 86.9931 175.175 89.9631 173.95 92.933C173.694 93.5054 174.607 93.8173 174.863 93.2449Z" fill="#0EA36C"/>
<path d="M171.506 90.6004L172.921 83.8272C173.069 83.2182 172.102 82.8879 172.008 83.5153L170.593 90.2885C170.445 90.8976 171.376 91.2455 171.506 90.6004Z" fill="#0EA36C"/>
<path d="M121.431 117.07H174.922L182.667 105.032C183.349 103.948 182.587 102.544 181.302 102.544H132.988C131.583 102.544 130.259 103.266 129.496 104.43L121.431 117.07Z" fill="#575552"/>
<path d="M142.459 116.589C140.011 114.141 137.523 111.653 135.075 109.205C134.633 108.764 133.911 109.446 134.393 109.887C136.841 112.335 139.329 114.823 141.776 117.271C142.178 117.712 142.9 117.03 142.459 116.589Z" fill="white"/>
<path d="M185.636 116.589C183.188 114.141 180.7 111.653 178.253 109.205C177.811 108.764 177.089 109.446 177.57 109.887C180.018 112.335 182.506 114.823 184.954 117.271C185.396 117.712 186.078 117.03 185.636 116.589Z" fill="white"/>
<path d="M130.981 104.59C130.018 106.195 129.055 107.801 128.092 109.406C127.932 109.687 128.373 109.927 128.534 109.646L131.423 104.831C131.583 104.55 131.142 104.309 130.981 104.59Z" fill="white"/>
<path d="M300.626 19.9663C300.706 21.0498 299.743 21.9326 298.66 21.9326C297.576 21.9326 296.693 21.0498 296.693 19.9663C296.693 18.8828 297.576 18 298.66 18C299.743 18 300.506 18.6822 300.626 19.9663Z" fill="#0EA36C"/>
<path d="M203.761 102.063H191.683V117.072H203.761V102.063Z" fill="#FECA55"/>
<path d="M193.729 113.54C191.402 115.506 188.512 113.419 188.071 110.851C187.63 108.403 189.676 104.511 192.525 106.598C193.047 106.959 193.529 106.116 193.007 105.755C189.516 103.227 186.506 107.761 187.068 111.012C187.67 114.423 191.482 116.71 194.411 114.262C194.893 113.821 194.211 113.139 193.729 113.54Z" fill="#FECA55"/>
<path d="M196.338 96.1239C196.819 95.6825 196.097 95.0003 195.656 95.4417C194.05 96.9265 194.01 99.5348 195.535 101.1C195.977 101.541 196.659 100.859 196.217 100.418C195.054 99.2138 195.094 97.2475 196.338 96.1239Z" fill="#0EA36C"/>
<path d="M198.585 96.3251C199.066 95.8836 198.344 95.2015 197.903 95.6429C196.298 97.1276 196.257 99.736 197.782 101.301C198.224 101.742 198.906 101.06 198.464 100.619C197.301 99.3748 197.381 97.4487 198.585 96.3251Z" fill="#0EA36C"/>
<path d="M184.059 88.8431C181.839 90.6391 179.599 92.4708 177.379 94.2667C176.909 94.658 177.423 95.5053 177.911 95.0783C180.132 93.2823 182.371 91.4506 184.592 89.6547C185.061 89.2634 184.547 88.4161 184.059 88.8431Z" fill="#0EA36C"/>
<path d="M434.352 59.7274L430.019 67.6729C429.697 68.2347 430.58 68.7162 430.861 68.1544C432.306 65.5059 433.75 62.8574 435.195 60.209C435.516 59.6472 434.673 59.1656 434.352 59.7274Z" fill="#0EA36C"/>
<path d="M468.238 18.6469C468.118 18.0449 467.155 18.2857 467.275 18.9278C467.917 22.0578 464.827 23.6228 462.219 23.6228C460.373 23.6228 458.607 23.061 456.842 22.6196C454.635 22.0979 452.427 21.8973 450.22 22.6597C446.408 24.0241 443.8 27.5153 443.439 31.488C443.399 32.13 444.362 32.13 444.442 31.488C444.723 28.2376 446.729 25.3483 449.699 23.9438C453.31 22.2183 456.721 23.8636 460.373 24.3852C464.145 24.9872 469.241 23.3419 468.238 18.6469Z" fill="#0EA36C"/>
<path d="M470.043 26.5521C469.922 25.9502 468.959 26.191 469.08 26.833C469.722 29.9631 466.632 31.5281 464.024 31.5281C462.178 31.5281 460.412 30.9663 458.646 30.5248C456.439 30.0032 454.232 29.8025 452.025 30.565C448.213 31.9294 445.605 35.4205 445.243 39.3933C445.203 40.0353 446.166 40.0353 446.247 39.3933C446.528 36.1428 448.534 33.2536 451.503 31.8491C455.115 30.1236 458.526 31.7688 462.178 32.2905C465.91 32.8924 471.006 31.2472 470.043 26.5521Z" fill="#0EA36C"/>
<path d="M383.554 116H79.3757C79.215 116 78.9338 119.356 79.0141 120.999C79.0543 120.999 79.0945 120.999 79.1347 120.999H383.554C385.482 121.068 385.482 116 383.554 116Z" fill="#818181"/>
<path d="M192.916 25H173V39.3294H192.916V25Z" fill="#FECA55"/>
<path d="M183.056 33.2279C182.972 33.2279 182.888 33.1999 182.832 33.1439L174.313 26.6509C174.145 26.511 174.117 26.2871 174.229 26.1192C174.369 25.9512 174.592 25.9232 174.76 26.0352L183.028 32.3323L191.1 25.9512C191.268 25.8113 191.519 25.8393 191.631 26.0072C191.771 26.1751 191.743 26.427 191.575 26.539L183.251 33.088C183.223 33.1999 183.14 33.2279 183.056 33.2279Z" fill="white"/>
</g>
<defs>
<clipPath id="clip0">
<rect width="485" height="121" fill="white" transform="translate(0 -1)"/>
</clipPath>
</defs>
</svg>
