<svg width="221" height="121" viewBox="0 0 221 121" fill="none" xmlns="http://www.w3.org/2000/svg">
<path d="M101.172 34.3009V45.4364H99.8441V34.3009H96.2412V33.1277H104.773V34.3028L101.172 34.3009Z" fill="#333333"/>
<path d="M107.882 45.4364V33.1277H115.609V34.3028H109.212V38.6416H114.656V39.8186H109.212V44.2632H115.609V45.4364H107.882Z" fill="#333333"/>
<path d="M126.153 45.4364V34.3009H120.262V45.4364H118.934V33.1277H127.489V45.4364H126.153Z" fill="#333333"/>
<path d="M138.951 45.4364V34.3009H134.72V38.5128C134.72 43.7055 133.462 45.4364 131.084 45.4364H130.462V44.2613H130.795C132.333 44.2613 133.433 43.242 133.433 38.1223V33.1277H140.285V45.4364H138.951Z" fill="#333333"/>
<path d="M151.936 45.4364V35.3894L145.607 45.4364H144.349V33.1277H145.677V43.1554L152.006 33.1277H153.264V45.4364H151.936Z" fill="#333333"/>
<path d="M166.056 48.4117V45.4364H157.333V33.1277H158.656V44.2632H164.547V33.1277H165.875V44.2632H167.363V48.4136L166.056 48.4117Z" fill="#333333"/>
<path d="M178.646 45.4364L177.65 42.6535H172.206L171.216 45.4364H169.801L174.382 33.1277H175.5L180.061 45.4364H178.646ZM174.951 35.0105L172.618 41.5111H177.269L174.951 35.0105Z" fill="#333333"/>
<path d="M101.384 67.3902C100.794 67.3971 100.209 67.2875 99.6632 67.0679C99.117 66.8482 98.6206 66.523 98.2031 66.1112C97.0365 64.9573 97.0365 63.7418 97.0365 61.132C97.0365 58.5221 97.0365 57.3086 98.2031 56.1508C98.6209 55.7393 99.1173 55.4143 99.6635 55.1947C100.21 54.9752 100.795 54.8654 101.384 54.8718C103.622 54.8718 105.273 56.2181 105.703 58.5375H104.341C104.009 57.0316 102.942 56.0373 101.386 56.0373C100.987 56.0329 100.592 56.1072 100.223 56.2558C99.8534 56.4044 99.5178 56.6243 99.2355 56.9028C98.4578 57.6971 98.3625 58.5452 98.3625 61.1223C98.3625 63.6995 98.45 64.5438 99.2355 65.34C99.5178 65.6184 99.8534 65.8384 100.223 65.987C100.592 66.1356 100.987 66.2099 101.386 66.2055C102.942 66.2055 104.044 65.2188 104.376 63.7149H105.704C105.3 66.042 103.605 67.3902 101.384 67.3902Z" fill="#333333"/>
<path d="M117.571 61.132C117.571 63.586 117.534 64.9784 116.404 66.1112C115.553 66.9314 114.411 67.3903 113.222 67.3903C112.034 67.3903 110.892 66.9314 110.04 66.1112C108.905 64.9881 108.874 63.586 108.874 61.132V60.1703C108.874 58.701 108.979 57.1951 110.04 56.1412C110.892 55.321 112.034 54.8621 113.222 54.8621C114.411 54.8621 115.553 55.321 116.404 56.1412C117.487 57.2124 117.571 58.7702 117.571 60.2742V61.132ZM116.241 60.4742C116.241 59.0222 116.189 57.7413 115.368 56.9297C115.086 56.6499 114.751 56.4278 114.382 56.2764C114.013 56.1249 113.617 56.0469 113.218 56.0469C112.818 56.0469 112.422 56.1249 112.053 56.2764C111.684 56.4278 111.349 56.6499 111.067 56.9297C110.192 57.7932 110.192 59.0741 110.192 60.7762V62.0013C110.192 63.3341 110.262 64.5457 111.067 65.34C111.349 65.6198 111.684 65.8418 112.053 65.9933C112.422 66.1448 112.818 66.2228 113.218 66.2228C113.617 66.2228 114.013 66.1448 114.382 65.9933C114.751 65.8418 115.086 65.6198 115.368 65.34C116.224 64.4938 116.241 63.161 116.241 61.7435V60.4742Z" fill="#333333"/>
<path d="M129.98 70.2616V67.2863H121.256V54.9776H122.584V66.1112H128.475V54.9738H129.805V66.1112H131.291V70.2616H129.98Z" fill="#333333"/>
<path d="M142.091 67.2863V57.2393L135.763 67.2863H134.505V54.9776H135.833V65.0073L142.16 54.9776H143.42V67.2863H142.091Z" fill="#333333"/>
<path d="M155.23 67.2863L154.232 64.5034H148.788L147.792 67.2863H146.375L150.956 54.9776H152.074L156.637 67.2863H155.23ZM151.535 56.8605L149.202 63.361H153.853L151.535 56.8605Z" fill="#333333"/>
<path d="M167.324 67.2863V56.1508H163.093V60.3704C163.093 65.5631 161.835 67.294 159.457 67.294H158.827V66.1112H159.159C160.697 66.1112 161.8 65.0919 161.8 59.9722V54.9718H168.652V67.2806L167.324 67.2863Z" fill="#333333"/>
<path d="M177.388 67.2863H172.721V54.9776H174.049V60.0453H177.388C179.721 60.0453 181.234 61.4993 181.234 63.6764C181.234 65.8535 179.696 67.2863 177.388 67.2863ZM177.267 61.2166H174.049V66.1112H177.267C178.928 66.1112 179.89 65.2112 179.89 63.6726C179.89 62.134 178.928 61.2166 177.267 61.2166Z" fill="#333333"/>
<path d="M191.673 67.2863V61.6666H185.764V67.2863H184.434V54.9776H185.764V60.4954H191.673V54.9738H193.001V67.2825L191.673 67.2863Z" fill="#333333"/>
<path d="M201.739 67.2863H197.073V54.9776H198.401V60.0453H201.741C204.074 60.0453 205.585 61.4993 205.585 63.6764C205.585 65.8535 204.045 67.2863 201.739 67.2863ZM198.399 61.2166V66.1112H201.626C203.287 66.1112 204.247 65.2112 204.247 63.6726C204.247 62.134 203.277 61.2166 201.626 61.2166H198.399ZM207.255 67.2863V54.9776H208.583V67.2863H207.255Z" fill="#333333"/>
<path d="M219.143 67.2863L216.118 62.1167L213.077 67.2863H211.572L215.385 60.9762L211.817 54.9738H213.357L216.118 59.8338L218.881 54.9738H220.419L216.835 60.9762L220.681 67.2863H219.143Z" fill="#333333"/>
<path d="M101.172 77.3833V88.5169H99.8441V77.3833H96.2412V76.2082H104.773V77.3833H101.172Z" fill="#333333"/>
<path d="M107.882 88.5169V76.2082H115.609V77.3833H109.212V81.726H114.656V82.9011H109.212V87.3457H115.609V88.5169H107.882Z" fill="#333333"/>
<path d="M125.749 88.5169L122.724 83.3492L119.683 88.5169H118.178L121.991 82.2049L118.423 76.2082H119.963L122.724 81.0682L125.487 76.2082H127.025L123.441 82.2087L127.287 88.5169H125.749Z" fill="#333333"/>
<path d="M137.505 88.5169V82.9011H131.596V88.5169H130.268V76.2082H131.596V81.726H137.505V76.2082H138.833V88.5169H137.505Z" fill="#333333"/>
<path d="M151.248 82.3626C151.248 84.8186 151.211 86.2091 150.081 87.3438C149.229 88.1639 148.088 88.6228 146.899 88.6228C145.71 88.6228 144.569 88.1639 143.717 87.3438C142.58 86.2187 142.55 84.8186 142.55 82.3626V81.4125C142.55 79.9412 142.655 78.4373 143.717 77.3737C144.569 76.5536 145.71 76.0947 146.899 76.0947C148.088 76.0947 149.229 76.5536 150.081 77.3737C151.164 78.445 151.248 80.0028 151.248 81.5087V82.3626ZM149.918 81.7048C149.918 80.2528 149.867 78.9719 149.045 78.1603C148.762 77.8805 148.427 77.6585 148.058 77.507C147.689 77.3555 147.294 77.2775 146.894 77.2775C146.495 77.2775 146.099 77.3555 145.73 77.507C145.361 77.6585 145.026 77.8805 144.744 78.1603C143.869 79.0238 143.869 80.3047 143.869 82.0068V83.2357C143.869 84.5666 143.939 85.7763 144.744 86.5726C145.026 86.8524 145.361 87.0744 145.73 87.2259C146.099 87.3773 146.495 87.4553 146.894 87.4553C147.294 87.4553 147.689 87.3773 148.058 87.2259C148.427 87.0744 148.762 86.8524 149.045 86.5726C149.902 85.7244 149.918 84.3916 149.918 82.9761V81.7048Z" fill="#333333"/>
<path d="M161.961 88.5169V77.3833H157.73V81.6029C157.73 86.7956 156.472 88.5266 154.094 88.5266H153.466V87.3515H153.797C155.335 87.3515 156.437 86.3302 156.437 81.2125V76.2082H163.289V88.5169H161.961Z" fill="#333333"/>
<path d="M175.71 82.3626C175.71 84.8186 175.675 86.2091 174.543 87.3438C173.691 88.1639 172.55 88.6228 171.361 88.6228C170.173 88.6228 169.031 88.1639 168.179 87.3438C167.042 86.2187 167.013 84.8186 167.013 82.3626V81.4125C167.013 79.9412 167.116 78.4373 168.179 77.3737C169.031 76.5536 170.173 76.0947 171.361 76.0947C172.55 76.0947 173.691 76.5536 174.543 77.3737C175.626 78.445 175.71 80.0028 175.71 81.5087V82.3626ZM174.382 81.7048C174.382 80.2528 174.329 78.9719 173.507 78.1603C173.225 77.8805 172.889 77.6585 172.52 77.507C172.151 77.3555 171.756 77.2775 171.356 77.2775C170.957 77.2775 170.561 77.3555 170.192 77.507C169.823 77.6585 169.488 77.8805 169.206 78.1603C168.333 79.0238 168.333 80.3047 168.333 82.0068V83.2357C168.333 84.5666 168.403 85.7763 169.206 86.5726C169.488 86.8524 169.823 87.0744 170.192 87.2259C170.561 87.3773 170.957 87.4553 171.356 87.4553C171.756 87.4553 172.151 87.3773 172.52 87.2259C172.889 87.0744 173.225 86.8524 173.507 86.5726C174.364 85.7244 174.382 84.3916 174.382 82.9761V81.7048Z" fill="#333333"/>
<path d="M180.804 77.3833V88.5169H179.476V76.2082H186.958V77.3833H180.804Z" fill="#333333"/>
<path d="M197.666 88.5169V78.4738L191.337 88.5169H190.077V76.2082H191.405V86.2379L197.738 76.2082H198.998V88.5169H197.666Z" fill="#333333"/>
<path d="M210.648 88.5169V78.4738L204.321 88.5169H203.061V76.2082H204.389V86.2379L210.718 76.2082H211.976V88.5169H210.648ZM207.52 75.4389C206.067 75.4389 205.072 74.8004 204.967 73.2599H206.085C206.155 74.108 206.668 74.5389 207.52 74.5389C208.371 74.5389 208.881 74.108 208.953 73.2599H210.073C209.968 74.7908 208.97 75.4389 207.52 75.4389Z" fill="#333333"/>
<path d="M9.22387 22.4289C9.22344 22.9974 9.07177 23.5558 8.78415 24.0477L17.5052 29.0359C17.7915 28.5433 18.2038 28.1341 18.7005 27.8496C19.1972 27.5652 19.7607 27.4154 20.3344 27.4154C20.9081 27.4154 21.4716 27.5652 21.9683 27.8496C22.465 28.1341 22.8773 28.5433 23.1636 29.0359L31.8847 24.0439C31.596 23.5523 31.444 22.9938 31.444 22.4251C31.444 21.8564 31.596 21.2979 31.8847 20.8063L29.5704 19.478C29.1815 20.1348 28.9272 20.8611 28.822 21.6154C28.7168 22.3697 28.7627 23.1371 28.9571 23.8738L24.4924 26.4424C23.3835 25.3655 21.8928 24.7623 20.3402 24.7623C18.7876 24.7623 17.2969 25.3655 16.188 26.4424L11.7195 23.8776C11.9744 22.9232 11.9744 21.9194 11.7195 20.965L16.1783 18.4154C16.8258 19.0449 17.6103 19.5191 18.4715 19.8015C19.3326 20.0839 20.2476 20.167 21.1463 20.0445C22.0449 19.9219 22.9032 19.597 23.6555 19.0947C24.4077 18.5923 25.0338 17.9258 25.4856 17.1464L23.1714 15.8181C22.885 16.3107 22.4727 16.7199 21.976 17.0044C21.4794 17.2889 20.9158 17.4387 20.3421 17.4387C19.7685 17.4387 19.2049 17.2889 18.7082 17.0044C18.2115 16.7199 17.7993 16.3107 17.5129 15.8181L8.78223 20.8082C9.07187 21.3001 9.2243 21.8594 9.22387 22.4289Z" fill="url(#paint0_linear)"/>
<path d="M29.5582 8.91214L31.8725 7.58386C32.1589 8.07734 32.5715 8.48727 33.0687 8.77232C33.5659 9.05737 34.1302 9.20746 34.7046 9.20746C35.2791 9.20746 35.8433 9.05737 36.3406 8.77232C36.8378 8.48727 37.2504 8.07734 37.5367 7.58386L39.851 8.91214C39.0728 10.2439 37.8023 11.2234 36.3082 11.6432V16.7461C37.8009 17.1655 39.0706 18.1434 39.8491 19.4734L37.5348 20.8017C37.2485 20.309 36.8362 19.8999 36.3395 19.6154C35.8428 19.3309 35.2793 19.1811 34.7056 19.1811C34.1319 19.1811 33.5684 19.3309 33.0717 19.6154C32.575 19.8999 32.1627 20.309 31.8764 20.8017L29.5621 19.4734C30.3397 18.1431 31.6087 17.1645 33.101 16.7442V11.6413C31.6078 11.221 30.3375 10.2425 29.5582 8.91214ZM43.9415 11.2438C43.4148 12.1386 43.1372 13.1559 43.1372 14.1918C43.1372 15.2277 43.4148 16.245 43.9415 17.1398L46.2558 15.8115C45.9672 15.3197 45.8152 14.7608 45.8152 14.1918C45.8152 13.6228 45.9672 13.064 46.2558 12.5721L43.9415 11.2438ZM23.5989 14.1947C23.5993 14.7633 23.4476 15.3219 23.1592 15.8134L25.4735 17.1398C25.9999 16.2453 26.2772 15.2283 26.2772 14.1928C26.2772 13.1572 25.9999 12.1402 25.4735 11.2457L23.1592 12.5835C23.4462 13.0729 23.5979 13.6286 23.5989 14.1947Z" fill="url(#paint1_linear)"/>
<path d="M43.1335 30.6449C43.1345 29.6115 43.4113 28.5967 43.9358 27.7035L46.2501 29.0318C45.9622 29.5236 45.8106 30.0821 45.8106 30.6506C45.8106 31.2191 45.9622 31.7776 46.2501 32.2694L43.9358 33.5977C43.4086 32.7014 43.1317 31.6823 43.1335 30.6449ZM34.7094 25.6624C34.1357 25.6626 33.5721 25.5128 33.0754 25.2283C32.5786 24.9438 32.1664 24.5345 31.8802 24.0417L23.1592 29.0337C23.4476 29.5257 23.5995 30.0845 23.5995 30.6535C23.5995 31.2224 23.4476 31.7813 23.1592 32.2732L25.4735 33.6015C26.2578 32.2747 26.4784 30.6936 26.0868 29.2057L30.5495 26.6524C31.2617 27.339 32.1353 27.8388 33.0914 28.1068V37.9666L34.7056 38.8897L36.3179 37.9666V28.0973C37.8109 27.6774 39.0806 26.6987 39.8587 25.3681L37.5445 24.0398C37.2579 24.5336 36.8448 24.9437 36.347 25.2287C35.8492 25.5136 35.2843 25.6632 34.7094 25.6624Z" fill="url(#paint2_linear)"/>
<path d="M0.795776 35.9378L3.11007 37.266C3.39603 36.7721 3.80849 36.3617 4.30577 36.0762C4.80304 35.7908 5.36753 35.6405 5.94219 35.6405C6.51685 35.6405 7.08134 35.7908 7.57861 36.0762C8.07589 36.3617 8.48834 36.7721 8.77431 37.266L11.0886 35.9378C10.3108 34.6053 9.04017 33.6251 7.5458 33.2048V28.1038C8.5058 27.8367 9.38257 27.3346 10.0954 26.6436L14.5543 29.197C14.3593 29.9352 14.3131 30.7043 14.4183 31.4602C14.5235 32.2161 14.7781 32.944 15.1675 33.6023L17.4818 32.2645C17.1934 31.7729 17.0414 31.2143 17.0414 30.6457C17.0414 30.077 17.1934 29.5185 17.4818 29.0269L8.76081 24.0387C8.47458 24.5318 8.06225 24.9413 7.56537 25.2261C7.06849 25.5109 6.50462 25.6609 5.93062 25.6609C5.35661 25.6609 4.79275 25.5109 4.29587 25.2261C3.79899 24.9413 3.38666 24.5318 3.10043 24.0387L0.786133 25.367C1.56545 26.7029 2.83997 27.6848 4.33858 28.1038V33.2067C2.84453 33.6265 1.57396 34.606 0.795776 35.9378Z" fill="url(#paint3_linear)"/>
<path d="M11.9085 38.8828C11.9082 39.9198 11.63 40.9382 11.1024 41.8337L8.78809 40.5054C9.07671 40.0135 9.22874 39.4547 9.22874 38.8857C9.22874 38.3167 9.07671 37.7578 8.78809 37.266L11.1024 35.9377C11.6296 36.8313 11.9078 37.8477 11.9085 38.8828ZM20.3326 43.8691C20.9068 43.869 21.4709 44.0189 21.9679 44.3038C22.465 44.5887 22.8775 44.9984 23.1637 45.4917L34.714 38.8828L33.0998 37.9597L24.4925 42.8906C23.8443 42.2618 23.0593 41.7884 22.1979 41.5068C21.3364 41.2252 20.4213 41.1429 19.5228 41.2661C18.6242 41.3894 17.7661 41.715 17.0142 42.2178C16.2623 42.7207 15.6367 43.3876 15.1852 44.1673L17.4995 45.4955C17.7854 45.0013 18.198 44.5906 18.6954 44.305C19.1929 44.0194 19.7576 43.869 20.3326 43.8691ZM20.3326 36.5569C21.3773 36.5554 22.4032 36.2816 23.3074 35.763C24.2115 35.2444 24.9621 34.4992 25.4838 33.6022L23.1695 32.2739C22.8831 32.7665 22.4709 33.1757 21.9742 33.4602C21.4775 33.7447 20.914 33.8945 20.3403 33.8945C19.7666 33.8945 19.203 33.7447 18.7064 33.4602C18.2097 33.1757 17.7974 32.7665 17.511 32.2739L15.1968 33.6118C15.7182 34.5048 16.4668 35.2468 17.368 35.7636C18.2692 36.2804 19.2914 36.5539 20.3326 36.5569Z" fill="url(#paint4_linear)"/>
<path d="M2.68219 38.8784C2.68198 38.3113 2.83301 37.7541 3.11998 37.2635L0.80568 35.9352C0.279299 36.8301 0.00195312 37.8474 0.00195312 38.8832C0.00195312 39.919 0.279299 40.9363 0.80568 41.8312L3.11998 40.4934C2.83258 40.0029 2.68152 39.4456 2.68219 38.8784Z" fill="#B70E0C"/>
<path d="M17.5062 48.7292L8.78708 53.7193C8.50138 53.2244 8.08881 52.8132 7.59113 52.5271C7.09346 52.2411 6.52835 52.0904 5.95303 52.0904C5.37771 52.0904 4.8126 52.2411 4.31493 52.5271C3.81725 52.8132 3.40468 53.2244 3.11898 53.7193L0.804687 52.391C1.2555 51.6104 1.88088 50.9426 2.63277 50.4389C3.38466 49.9352 4.24305 49.609 5.14201 49.4854C6.04096 49.3617 6.95656 49.4439 7.81846 49.7256C8.68036 50.0074 9.46563 50.4811 10.1139 51.1105L14.5767 48.5591C14.1866 47.0713 14.4064 45.4911 15.188 44.1633L17.5023 45.4916C17.2139 45.9836 17.062 46.5424 17.062 47.1114C17.062 47.6803 17.2139 48.2391 17.5023 48.7311L17.5062 48.7292ZM5.95399 44.7845C6.99788 44.7836 8.02318 44.5107 8.927 43.9931C9.83082 43.4755 10.5814 42.7314 11.1033 41.8355L8.78901 40.4977C8.50278 40.9899 8.09077 41.3987 7.59443 41.6829C7.0981 41.9672 6.53496 42.1168 5.96171 42.1168C5.38846 42.1168 4.82532 41.9672 4.32899 41.6829C3.83265 41.3987 3.42063 40.9899 3.13441 40.4977L0.820116 41.826C1.33968 42.7213 2.08729 43.4657 2.98822 43.9849C3.88915 44.5041 4.91182 44.7798 5.95399 44.7845Z" fill="#E5005B"/>
<path d="M65.0836 33.2016V28.0988C66.5772 27.678 67.8471 26.6979 68.6244 25.3658L66.3101 24.0375C66.0242 24.5314 65.6117 24.9419 65.1144 25.2273C64.6172 25.5127 64.0527 25.663 63.478 25.663C62.9033 25.663 62.3389 25.5127 61.8416 25.2273C61.3443 24.9419 60.9319 24.5314 60.6459 24.0375L51.9287 29.0276C52.2171 29.5195 52.3691 30.0784 52.3691 30.6473C52.3691 31.2163 52.2171 31.7751 51.9287 32.2671L54.243 33.5953C54.634 32.9377 54.8898 32.2098 54.9957 31.4538C55.1016 30.6977 55.0555 29.9284 54.8602 29.19L59.3152 26.6329C60.0279 27.3225 60.9039 27.8239 61.8628 28.0911V33.1959C60.3698 33.6157 59.1001 34.5944 58.322 35.9251L60.6362 37.2534C60.9225 36.7603 61.3348 36.3507 61.8317 36.0659C62.3286 35.7811 62.8924 35.6312 63.4664 35.6312C64.0404 35.6312 64.6043 35.7811 65.1012 36.0659C65.5981 36.3507 66.0104 36.7603 66.2966 37.2534L68.6109 35.9251C67.8349 34.5993 66.5706 33.6231 65.0836 33.2016Z" fill="url(#paint5_linear)"/>
<path d="M66.7395 38.8791C66.7391 39.4476 66.5874 40.006 66.2998 40.4979L68.6141 41.8262C69.1408 40.931 69.4184 39.9134 69.4184 38.8772C69.4184 37.841 69.1408 36.8233 68.6141 35.9282L66.2998 37.2565C66.588 37.7496 66.7397 38.3093 66.7395 38.8791Z" fill="#00A8B0"/>
<path d="M60.6377 40.4897L58.3235 41.818C57.7967 40.9232 57.5191 39.9059 57.5191 38.87C57.5191 37.8341 57.7967 36.8167 58.3235 35.922L60.6377 37.2503C60.3491 37.7421 60.1971 38.301 60.1971 38.87C60.1971 39.439 60.3491 39.9978 60.6377 40.4897ZM44.9295 42.8711L36.3145 37.9478L34.708 38.8748L46.2563 45.4817C46.542 44.9877 46.9543 44.5773 47.4514 44.2918C47.9485 44.0063 48.5129 43.856 49.0875 43.856C49.6621 43.856 50.2264 44.0063 50.7236 44.2918C51.2207 44.5773 51.6329 44.9877 51.9186 45.4817L54.2329 44.1535C53.4556 42.8214 52.1857 41.8412 50.6921 41.4205V36.3138C52.183 35.894 53.4511 34.9169 54.2291 33.5884L51.9148 32.2601C51.6282 32.7518 51.216 33.1602 50.7197 33.444C50.2234 33.7279 49.6605 33.8774 49.0875 33.8774C48.5145 33.8774 47.9515 33.7279 47.4553 33.444C46.959 33.1602 46.5468 32.7518 46.2602 32.2601L43.9459 33.5884C44.7238 34.9169 45.992 35.894 47.4829 36.3138V41.4205C46.5231 41.6856 45.6453 42.1842 44.9295 42.8711Z" fill="url(#paint6_linear)"/>
<path d="M68.6224 52.388L66.3081 53.7163C66.0219 53.2232 65.6096 52.8137 65.1127 52.5289C64.6158 52.2441 64.052 52.0941 63.478 52.0941C62.904 52.0941 62.3401 52.2441 61.8432 52.5289C61.3463 52.8137 60.934 53.2232 60.6478 53.7163L51.9248 48.7262C52.2132 48.2342 52.3652 47.6754 52.3652 47.1064C52.3652 46.5375 52.2132 45.9787 51.9248 45.4867L54.2391 44.1584C54.6284 44.815 54.883 45.5413 54.9883 46.2957C55.0935 47.05 55.0473 47.8175 54.8524 48.5542L59.319 51.1094C59.967 50.4817 60.7514 50.0093 61.6121 49.7284C62.4728 49.4474 63.387 49.3654 64.2846 49.4887C65.1822 49.6119 66.0394 49.9371 66.7907 50.4393C67.5419 50.9415 68.1672 51.6074 68.6186 52.3861L68.6224 52.388ZM63.4712 44.7757C64.5156 44.7748 65.5413 44.5017 66.4455 43.9837C67.3497 43.4658 68.1004 42.7213 68.6224 41.8249L66.3081 40.4966C66.0215 40.9892 65.6091 41.3982 65.1122 41.6827C64.6154 41.9671 64.0517 42.1169 63.478 42.1169C62.9042 42.1169 62.3405 41.9671 61.8437 41.6827C61.3469 41.3982 60.9344 40.9892 60.6478 40.4966L58.3335 41.8249C58.8541 42.7201 59.6029 43.464 60.5049 43.9822C61.4069 44.5004 62.4305 44.7747 63.4731 44.7777L63.4712 44.7757Z" fill="url(#paint7_linear)"/>
<path d="M34.7095 49.439C33.1572 49.4386 31.6666 50.041 30.5572 51.117L26.0926 48.5636C26.3473 47.6098 26.3473 46.6067 26.0926 45.6529L34.7095 40.7201L43.3244 45.6453C43.1291 46.3839 43.0831 47.1536 43.189 47.9099C43.2949 48.6663 43.5507 49.3944 43.9416 50.0525L46.2559 48.7242C45.9673 48.2323 45.8152 47.6734 45.8152 47.1044C45.8152 46.5355 45.9673 45.9766 46.2559 45.4847L34.7095 38.8796L23.1611 45.4904C23.4496 45.9824 23.6015 46.5412 23.6015 47.1102C23.6015 47.6791 23.4496 48.238 23.1611 48.7299L31.8841 53.72C32.1703 53.227 32.5827 52.8174 33.0795 52.5326C33.5764 52.2478 34.1403 52.0978 34.7143 52.0978C35.2883 52.0978 35.8522 52.2478 36.349 52.5326C36.8459 52.8174 37.2583 53.227 37.5445 53.72L39.8588 52.3822C39.336 51.4875 38.5851 50.7447 37.6813 50.2281C36.7776 49.7116 35.7528 49.4394 34.7095 49.439Z" fill="url(#paint8_linear)"/>
<path d="M54.2445 60.619L51.9302 61.9568C51.6445 61.4628 51.2322 61.0523 50.7351 60.7669C50.238 60.4814 49.6736 60.3311 49.099 60.3311C48.5244 60.3311 47.9601 60.4814 47.4629 60.7669C46.9658 61.0523 46.5536 61.4628 46.2679 61.9568L43.9536 60.6286C44.4742 59.7305 45.2247 58.9844 46.1293 58.4655C47.0339 57.9467 48.0606 57.6735 49.1058 57.6735C50.1509 57.6735 51.1776 57.9467 52.0822 58.4655C52.9868 58.9844 53.7373 59.7305 54.258 60.6286L54.2445 60.619ZM60.2018 55.3365C60.2012 54.7684 60.353 54.2104 60.6416 53.7196L51.9186 48.7295C51.632 49.2212 51.2198 49.6295 50.7235 49.9134C50.2273 50.1973 49.6643 50.3467 49.0913 50.3467C48.5183 50.3467 47.9553 50.1973 47.4591 49.9134C46.9628 49.6295 46.5506 49.2212 46.264 48.7295L43.9497 50.0578C44.4019 50.8364 45.0279 51.5021 45.7799 52.0038C46.5319 52.5056 47.3898 52.83 48.2879 52.9524C49.186 53.0747 50.1004 52.9916 50.9611 52.7095C51.8217 52.4274 52.6058 51.9538 53.2532 51.3249L57.714 53.8782C57.519 54.6171 57.4728 55.3867 57.578 56.1433C57.6832 56.8998 57.9378 57.6284 58.3273 58.2874L60.6416 56.9495C60.3556 56.4591 60.2046 55.9029 60.2038 55.3365H60.2018ZM37.9827 55.3365C37.983 55.9051 37.8313 56.4636 37.543 56.9553L39.8573 58.2835C40.3854 57.3889 40.6637 56.3711 40.6637 55.3346C40.6637 54.2981 40.3854 53.2803 39.8573 52.3856L37.543 53.7234C37.8349 54.214 37.99 54.7727 37.9923 55.3422L37.9827 55.3365Z" fill="url(#paint9_linear)"/>
<path d="M20.3289 57.6598C19.2829 57.6608 18.2557 57.935 17.3506 58.4547C16.4456 58.9744 15.6948 59.7214 15.1738 60.6202L17.4881 61.9485C17.7738 61.4536 18.1864 61.0424 18.6841 60.7563C19.1817 60.4703 19.7468 60.3196 20.3222 60.3196C20.8975 60.3196 21.4626 60.4703 21.9603 60.7563C22.4579 61.0424 22.8705 61.4536 23.1562 61.9485L25.4705 60.6202C24.9504 59.7236 24.2016 58.9781 23.2992 58.4586C22.3969 57.939 21.3726 57.6635 20.3289 57.6598Z" fill="url(#paint10_linear)"/>
<path d="M11.1005 58.2906C11.6288 57.3939 11.9077 56.3743 11.9085 55.3359C11.905 54.8451 11.8402 54.3566 11.7157 53.8815L16.1803 51.3281C17.2899 52.4053 18.7812 53.0086 20.3345 53.0086C21.8877 53.0086 23.3791 52.4053 24.4887 51.3281L28.9514 53.8796C28.7562 54.6181 28.7099 55.3875 28.8152 56.1437C28.9204 56.8999 29.1751 57.6282 29.5647 58.2868L31.879 56.9585C31.5903 56.4666 31.4383 55.9078 31.4383 55.3388C31.4383 54.7698 31.5903 54.2109 31.879 53.719L23.1618 48.7308C22.8752 49.2226 22.463 49.6309 21.9667 49.9147C21.4704 50.1986 20.9075 50.3481 20.3345 50.3481C19.7615 50.3481 19.1985 50.1986 18.7023 49.9147C18.206 49.6309 17.7938 49.2226 17.5072 48.7308L8.78809 53.7229C9.07671 54.2147 9.22874 54.7736 9.22874 55.3426C9.22874 55.9116 9.07671 56.4704 8.78809 56.9623L11.1005 58.2906Z" fill="url(#paint11_linear)"/>
<path d="M43.9382 17.1374L46.2525 15.8091C46.5389 16.3026 46.9515 16.7125 47.4487 16.9975C47.9459 17.2826 48.5102 17.4327 49.0846 17.4327C49.6591 17.4327 50.2234 17.2826 50.7206 16.9975C51.2178 16.7125 51.6304 16.3026 51.9168 15.8091L60.6359 20.7973C60.3472 21.2888 60.1952 21.8474 60.1952 22.4161C60.1952 22.9848 60.3472 23.5433 60.6359 24.0348L51.9187 29.025C51.6327 28.531 51.2203 28.1206 50.723 27.8352C50.2257 27.5497 49.6612 27.3994 49.0866 27.3994C48.5119 27.3994 47.9474 27.5497 47.4502 27.8352C46.9529 28.1206 46.5404 28.531 46.2545 29.025L43.9402 27.6986C44.3912 26.9185 45.0166 26.2512 45.7684 25.7479C46.5202 25.2446 47.3784 24.9187 48.2771 24.7952C49.1758 24.6718 50.0911 24.754 50.9527 25.0357C51.8143 25.3173 52.5993 25.7909 53.2475 26.42L57.7083 23.8686C57.5828 23.395 57.518 22.9076 57.5154 22.418C57.5181 21.9258 57.5828 21.4359 57.7083 20.9597L53.2494 18.4121C52.6016 19.0422 51.8167 19.5168 50.9549 19.7993C50.0932 20.0818 49.1775 20.1648 48.2784 20.0419C47.3792 19.919 46.5204 19.5934 45.768 19.0902C45.0156 18.5871 44.3897 17.9196 43.9382 17.1393V17.1374ZM37.9905 22.4256C37.99 22.9941 37.8383 23.5525 37.5508 24.0444L39.8651 25.3727C40.3918 24.4779 40.6694 23.4606 40.6694 22.4247C40.6694 21.3888 40.3918 20.3714 39.8651 19.4767L37.5508 20.8049C37.8394 21.2971 37.9911 21.8564 37.9905 22.4256Z" fill="url(#paint12_linear)"/>
<path d="M15.1777 11.251C15.6985 10.3533 16.449 9.60763 17.3534 9.08911C18.2577 8.57058 19.2841 8.29755 20.329 8.29755C21.3738 8.29755 22.4002 8.57058 23.3046 9.08911C24.209 9.60763 24.9594 10.3533 25.4802 11.251L23.1659 12.5888C22.8799 12.0957 22.4678 11.686 21.9711 11.4012C21.4743 11.1163 20.9106 10.9663 20.3367 10.9663C19.7628 10.9663 19.199 11.1163 18.7023 11.4012C18.2056 11.686 17.7934 12.0957 17.5075 12.5888L15.1777 11.251ZM29.5592 3.02136C29.0314 3.91545 28.7532 4.9326 28.7532 5.96842C28.7532 7.00423 29.0314 8.02139 29.5592 8.91548L31.8734 7.5872C31.5848 7.09531 31.4328 6.53646 31.4328 5.96746C31.4328 5.39847 31.5848 4.83961 31.8734 4.34773L29.5592 3.02136Z" fill="url(#paint13_linear)"/>
<path d="M31.8825 4.34444C32.1687 3.85224 32.5807 3.44344 33.0771 3.1592C33.5734 2.87496 34.1365 2.72531 34.7098 2.72531C35.283 2.72531 35.8462 2.87496 36.3425 3.1592C36.8388 3.44344 37.2509 3.85224 37.5371 4.34444L39.8514 3.00661C39.3306 2.10983 38.5805 1.36493 37.6766 0.846962C36.7728 0.328998 35.7471 0.0562744 34.703 0.0562744C33.6589 0.0562744 32.6333 0.328998 31.7294 0.846962C30.8256 1.36493 30.0755 2.10983 29.5547 3.00661L31.8825 4.34444Z" fill="#DEDC00"/>
<path d="M3.11598 20.8049C3.40221 20.3118 3.81454 19.9023 4.31142 19.6175C4.8083 19.3327 5.37216 19.1827 5.94617 19.1827C6.52018 19.1827 7.08404 19.3327 7.58092 19.6175C8.0778 19.9023 8.49013 20.3118 8.77636 20.8049L17.4974 15.8129C17.209 15.3209 17.057 14.7621 17.057 14.1931C17.057 13.6242 17.209 13.0653 17.4974 12.5734L15.1831 11.2451C14.3998 12.5722 14.1793 14.1529 14.5698 15.6409L10.0936 18.1999C9.44543 17.5727 8.66104 17.1007 7.80045 16.8201C6.93987 16.5396 6.02591 16.4578 5.12855 16.5812C4.23119 16.7046 3.37422 17.0299 2.62325 17.5321C1.87227 18.0343 1.24721 18.7001 0.795898 19.4785L3.11598 20.8049Z" fill="url(#paint14_linear)"/>
<path d="M2.68277 22.4253C2.68321 21.8568 2.83488 21.2985 3.12249 20.8065L0.808195 19.4783C0.281453 20.3734 0.00390625 21.391 0.00390625 22.4272C0.00390625 23.4634 0.281453 24.4811 0.808195 25.3762L3.12249 24.0384C2.83586 23.5482 2.68422 22.9919 2.68277 22.4253Z" fill="#EC6608"/>
<path d="M63.4731 16.5155C61.9204 16.5148 60.4295 17.118 59.3209 18.1954L54.8562 15.6421C55.0508 14.9052 55.0965 14.1375 54.9906 13.3831C54.8847 12.6287 54.6293 11.9026 54.2391 11.2463L51.9248 12.5746C52.2127 13.0668 52.3643 13.6255 52.3643 14.1944C52.3643 14.7632 52.2127 15.3219 51.9248 15.8141L60.6439 20.8023C60.9304 20.3101 61.3426 19.9014 61.8391 19.6172C62.3356 19.333 62.8988 19.1834 63.4722 19.1834C64.0455 19.1834 64.6088 19.333 65.1053 19.6172C65.6017 19.9014 66.0139 20.3101 66.3004 20.8023L68.6147 19.474C68.0945 18.5776 67.3457 17.8324 66.4433 17.3132C65.5409 16.7939 64.5166 16.5188 63.4731 16.5155Z" fill="url(#paint15_linear)"/>
<path d="M66.7415 22.4245C66.7422 22.9923 66.5912 23.5502 66.3037 24.0414L68.618 25.3697C69.1448 24.4749 69.4223 23.4576 69.4223 22.4216C69.4223 21.3857 69.1448 20.3684 68.618 19.4736L66.3037 20.8019C66.5923 21.2947 66.7433 21.8547 66.7415 22.4245Z" fill="#76B82A"/>
<path d="M54.2398 11.2366L51.9255 12.5649C51.6389 12.0731 51.2267 11.6648 50.7304 11.381C50.2341 11.0971 49.6712 10.9476 49.0982 10.9476C48.5252 10.9476 47.9622 11.0971 47.4659 11.381C46.9697 11.6648 46.5575 12.0731 46.2709 12.5649L43.9566 11.2366C44.4774 10.3398 45.2275 9.59491 46.1313 9.07694C47.0352 8.55898 48.0608 8.28625 49.1049 8.28625C50.149 8.28625 51.1747 8.55898 52.0785 9.07694C52.9824 9.59491 53.7325 10.3398 54.2533 11.2366H54.2398ZM37.9915 5.9617C37.9916 6.52883 37.8406 7.08593 37.5537 7.57666L39.868 8.90494C40.3948 8.01017 40.6723 6.99283 40.6723 5.95692C40.6723 4.92101 40.3948 3.90368 39.868 3.00891L37.5537 4.34675C37.841 4.8373 37.9921 5.39451 37.9915 5.9617Z" fill="url(#paint16_linear)"/>
<path d="M51.9189 65.1831C52.2074 64.6915 52.3593 64.133 52.3593 63.5643C52.3593 62.9956 52.2074 62.4371 51.9189 61.9455L54.2332 60.6077C54.7611 61.5024 55.0394 62.5202 55.0394 63.5567C55.0394 64.5931 54.7611 65.6109 54.2332 66.5056L51.9189 65.1831ZM68.6224 58.2818L66.3081 56.9535C66.0218 57.4466 65.6095 57.8561 65.1126 58.1409C64.6157 58.4257 64.0519 58.5757 63.4779 58.5757C62.9039 58.5757 62.34 58.4257 61.8431 58.1409C61.3463 57.8561 60.9339 57.4466 60.6477 56.9535L58.3334 58.2913C58.8543 59.1885 59.6047 59.9338 60.5089 60.452C61.4131 60.9702 62.4391 61.2431 63.4837 61.2431C64.5282 61.2431 65.5543 60.9702 66.4584 60.452C67.3626 59.9338 68.113 59.1885 68.6339 58.2913L68.6224 58.2818Z" fill="url(#paint17_linear)"/>
<path d="M66.7395 55.3331C66.7391 55.9016 66.5874 56.46 66.2998 56.9519L68.6141 58.2802C69.1409 57.3854 69.4184 56.3681 69.4184 55.3322C69.4184 54.2963 69.1409 53.2789 68.6141 52.3842L66.2998 53.7124C66.5884 54.2046 66.7402 54.7639 66.7395 55.3331Z" fill="#0090D7"/>
<path d="M0.803539 58.2907L3.11783 56.9624C3.40471 57.4532 3.81674 57.8607 4.31263 58.144C4.80852 58.4272 5.37083 58.5763 5.9432 58.5763C6.51557 58.5763 7.07789 58.4272 7.57378 58.144C8.06966 57.8607 8.4817 57.4532 8.76857 56.9624L11.0829 58.2907C10.5614 59.1861 9.81129 59.9296 8.90789 60.4466C8.00449 60.9636 6.97966 61.2358 5.93645 61.2358C4.89324 61.2358 3.86842 60.9636 2.96502 60.4466C2.06162 59.9296 1.31148 59.1861 0.790039 58.2907H0.803539ZM17.0615 63.5637C17.0606 62.9975 17.2103 62.4412 17.4954 61.9506L15.1811 60.6223C14.6549 61.5173 14.3777 62.5346 14.3777 63.5703C14.3777 64.6061 14.6549 65.6234 15.1811 66.5184L17.4954 65.1805C17.2087 64.6891 17.0583 64.1313 17.0595 63.5637H17.0615Z" fill="url(#paint18_linear)"/>
<path d="M2.68186 55.3321C2.68095 54.7657 2.83133 54.2092 3.11772 53.719L0.803423 52.3907C0.277234 53.2857 0 54.303 0 55.3388C0 56.3745 0.277234 57.3918 0.803423 58.2868L3.11772 56.9585C2.82971 56.4641 2.6793 55.9029 2.68186 55.3321Z" fill="url(#paint19_linear)"/>
<path d="M67.9193 87.1798H36.3234V72.7102L44.9326 67.7812C45.5801 68.4096 46.3642 68.8828 47.2247 69.1646C48.0853 69.4463 48.9995 69.5291 49.8973 69.4066C50.7952 69.2841 51.6528 68.9596 52.4045 68.4579C53.1562 67.9562 53.7821 67.2906 54.2341 66.5122L51.9198 65.1743C51.707 65.5456 51.4221 65.8715 51.0815 66.1333C50.741 66.395 50.3516 66.5874 49.9357 66.6993C49.5199 66.8113 49.0858 66.8406 48.6584 66.7856C48.2311 66.7306 47.8189 66.5923 47.4457 66.3788C47.0725 66.1653 46.7457 65.8807 46.4839 65.5414C46.2222 65.2022 46.0308 64.8149 45.9207 64.4021C45.8106 63.9892 45.784 63.5588 45.8425 63.1357C45.901 62.7126 46.0433 62.3051 46.2614 61.9368L43.9471 60.6085C43.5587 61.2654 43.3048 61.9918 43.1999 62.7461C43.095 63.5003 43.1411 64.2677 43.3357 65.0042L36.3311 69.0177V61.0137C37.8231 60.5939 39.0921 59.616 39.8701 58.2864L37.5558 56.9581C37.2696 57.4512 36.8572 57.8608 36.3603 58.1456C35.8635 58.4304 35.2996 58.5803 34.7256 58.5803C34.1516 58.5803 33.5877 58.4304 33.0909 58.1456C32.594 57.8608 32.1816 57.4512 31.8954 56.9581L29.5811 58.2864C30.3596 59.6164 31.6293 60.5943 33.122 61.0137V69.0216L26.1174 65.0081C26.2419 64.5343 26.3067 64.047 26.3102 63.5575C26.3099 62.5242 26.0338 61.5095 25.5099 60.6162L23.1956 61.9444C23.6291 62.688 23.7467 63.5718 23.5227 64.4014C23.2986 65.2309 22.7512 65.9383 22.0008 66.3679C21.2505 66.7975 20.3586 66.9141 19.5215 66.692C18.6844 66.47 17.9706 65.9275 17.5371 65.1839L15.2228 66.5217C15.6768 67.2934 16.3021 67.9525 17.0514 68.4491C17.8006 68.9457 18.654 69.2668 19.5471 69.388C20.4401 69.5091 21.3492 69.4273 22.2056 69.1486C23.062 68.8698 23.843 68.4016 24.4897 67.7793L33.1027 72.7102V87.1798H1.50293C1.21803 87.1798 0.944797 87.2919 0.743342 87.4916C0.541887 87.6912 0.428711 87.962 0.428711 88.2443C0.428711 88.5267 0.541887 88.7974 0.743342 88.9971C0.944797 89.1967 1.21803 89.3089 1.50293 89.3089H33.0429C32.8345 90.576 32.2037 91.7374 31.2513 92.6076C29.2089 94.5054 25.5774 95.3425 20.7482 95.0291C18.775 94.8794 16.7904 94.9906 14.8468 95.3597C14.7476 95.3606 14.6494 95.3801 14.5575 95.417L14.5324 95.4285C9.00125 96.6612 6.81809 100.138 6.41695 102.483C6.38235 102.691 6.43254 102.905 6.55652 103.077C6.6805 103.249 6.86817 103.365 7.07845 103.4C7.12306 103.407 7.16821 103.411 7.21345 103.412C7.40376 103.411 7.58774 103.344 7.73281 103.222C7.87787 103.1 7.97468 102.931 8.0061 102.745C8.03695 102.571 8.52296 99.9542 11.6222 98.1806C11.3503 98.9451 11.2789 99.786 11.2095 100.638C11.1111 101.86 10.9973 103.243 10.2548 104.755C10.2024 104.85 10.1699 104.954 10.1594 105.062C10.1489 105.17 10.1605 105.279 10.1937 105.382C10.2269 105.485 10.2808 105.58 10.3523 105.662C10.4237 105.744 10.5112 105.81 10.6094 105.858C10.7076 105.905 10.8145 105.932 10.9235 105.937C11.0326 105.942 11.1416 105.925 11.2438 105.887C11.3461 105.85 11.4396 105.791 11.5185 105.717C11.5975 105.642 11.6603 105.552 11.7032 105.453C12.5788 103.671 12.708 102.06 12.814 100.766C12.9722 98.8323 13.059 97.7621 15.1168 96.9135C15.9078 96.7565 16.7087 96.6537 17.514 96.6058C16.5825 97.7391 16.3761 99.3044 16.164 100.927C15.8631 103.266 15.489 106.175 12.9857 109.115C12.9171 109.195 12.8652 109.289 12.833 109.39C12.8009 109.491 12.7891 109.597 12.7983 109.702C12.8075 109.807 12.8376 109.91 12.8868 110.004C12.936 110.098 13.0033 110.181 13.085 110.249C13.1667 110.317 13.2611 110.368 13.3628 110.4C13.4645 110.432 13.5716 110.444 13.6779 110.435C13.7842 110.425 13.8876 110.396 13.9823 110.347C14.0769 110.298 14.161 110.231 14.2296 110.15C17.0415 106.854 17.4503 103.683 17.7763 101.135C18.1369 98.3335 18.4031 97.0645 20.7559 96.6325C26.0576 96.9555 29.9591 95.9999 32.3544 93.7753C32.6012 93.5413 32.8325 93.2917 33.0468 93.028C32.3872 94.9258 31.0333 97.0817 28.2504 99.4057C26.8246 100.578 25.2948 101.621 23.6797 102.521C21.1841 103.983 19.3809 105.04 18.729 108.702C18.692 108.91 18.7401 109.125 18.8627 109.298C18.9853 109.472 19.1723 109.59 19.3828 109.627C19.4291 109.636 19.4763 109.64 19.5236 109.64C19.7128 109.64 19.8959 109.573 20.0405 109.452C20.1851 109.331 20.2821 109.164 20.3143 108.979C20.8369 106.039 22.1387 105.279 24.4974 103.895L25.1801 103.494C24.6497 104.738 24.3817 105.978 24.1309 107.125C23.5524 109.801 23.0587 112.094 19.8881 114.162C19.7421 114.256 19.6307 114.394 19.5706 114.555C19.5105 114.717 19.5049 114.894 19.5546 115.059C19.6044 115.224 19.7068 115.369 19.8466 115.471C19.9863 115.574 20.1558 115.629 20.3297 115.628C20.4858 115.627 20.6384 115.582 20.7694 115.498C24.5032 113.073 25.1184 110.217 25.7143 107.459C25.7818 107.142 25.8493 106.831 25.9226 106.517C26.0923 107.364 26.3392 108.197 26.5783 109.002C27.1087 110.781 27.6564 112.622 27.3497 114.353C27.3127 114.562 27.3608 114.776 27.4834 114.95C27.606 115.123 27.7931 115.241 28.0035 115.278C28.0501 115.286 28.0972 115.289 28.1443 115.29C28.3336 115.29 28.5169 115.224 28.6619 115.103C28.8069 114.982 28.9043 114.815 28.937 114.63C29.3092 112.528 28.7075 110.504 28.125 108.545C27.236 105.558 26.4684 102.978 29.2995 100.61C31.6717 98.624 33.1046 96.7205 33.9706 94.9755C34.1518 97.0645 34.3968 98.903 34.6475 100.556C35.2261 104.348 34.2618 105.512 33.1702 106.863C32.0786 108.214 30.8193 109.741 31.0488 113.633C31.061 113.836 31.1511 114.027 31.3006 114.166C31.45 114.306 31.6476 114.384 31.853 114.384H31.9012C32.1144 114.371 32.3138 114.275 32.4556 114.116C32.5973 113.958 32.6699 113.75 32.6572 113.539C32.4643 110.267 33.4074 109.101 34.4141 107.868C34.8175 107.401 35.1826 106.901 35.5057 106.376C35.9994 110.772 35.5462 114.151 31.6485 119.574C31.5248 119.747 31.4751 119.961 31.5106 120.169C31.546 120.378 31.6636 120.564 31.8375 120.687C32.0115 120.809 32.2274 120.859 32.4379 120.824C32.6484 120.788 32.8362 120.672 32.96 120.499C38.2597 113.118 37.6156 109.076 36.5491 102.385C36.1942 100.163 35.7776 97.5977 35.5308 94.471C36.4141 96.2962 37.6156 97.6646 38.7399 98.9374C41.5788 102.152 44.03 104.927 40.4274 114.202C40.3507 114.4 40.3561 114.619 40.4425 114.813C40.5289 115.006 40.6893 115.158 40.8884 115.234C40.9808 115.269 41.0788 115.287 41.1777 115.288C41.3408 115.288 41.5002 115.239 41.6348 115.147C41.7694 115.056 41.8729 114.926 41.9317 114.775C43.7928 109.986 44.1091 106.695 43.6192 104.207C44.7262 105.636 45.4514 107.576 45.0599 111.236C45.0484 111.34 45.0577 111.446 45.0874 111.546C45.117 111.647 45.1664 111.741 45.2327 111.822C45.299 111.904 45.3808 111.972 45.4736 112.022C45.5664 112.072 45.6683 112.104 45.7735 112.115H45.8602C46.0588 112.115 46.2503 112.042 46.398 111.91C46.5457 111.779 46.6392 111.598 46.6606 111.402C46.7921 110.27 46.8064 109.128 46.703 107.993C47.7348 109.042 48.863 110.019 49.8023 110.544C49.9886 110.647 50.2086 110.673 50.4142 110.616C50.6198 110.559 50.7943 110.424 50.8996 110.24C50.9517 110.149 50.9851 110.048 50.9979 109.944C51.0107 109.84 51.0027 109.734 50.9742 109.633C50.9457 109.532 50.8973 109.438 50.8319 109.355C50.7665 109.273 50.6853 109.204 50.593 109.153C48.919 108.218 46.2826 105.33 45.3858 103.926C45.3732 103.905 45.3591 103.886 45.3434 103.868C44.6645 102.815 43.8333 102.03 43.0291 101.288C42.4406 100.766 41.8944 100.198 41.3956 99.5911C41.3878 99.5822 41.3795 99.5739 41.3705 99.5662C40.9115 98.9814 40.4255 98.4195 39.9414 97.8805C38.7708 96.5561 37.5789 95.2049 36.7766 93.3453C38.4873 94.8284 41.0947 95.3807 43.8912 95.6922H43.9182C47.864 96.1223 48.433 98.9413 49.0925 102.209C49.3683 103.572 49.6538 104.986 50.2208 106.223C50.3098 106.415 50.4722 106.565 50.6724 106.638C50.8726 106.712 51.0941 106.704 51.2882 106.616C51.4823 106.527 51.6332 106.366 51.7075 106.168C51.7818 105.97 51.7736 105.75 51.6846 105.558C51.1966 104.499 50.9421 103.238 50.6721 101.904C50.5216 101.164 50.3654 100.407 50.1648 99.6637C50.8437 100.012 51.5496 100.296 52.2516 100.575C54.0991 101.311 55.6941 101.946 56.3749 103.587C56.4355 103.734 56.5389 103.86 56.6718 103.948C56.8048 104.036 56.9612 104.083 57.1212 104.082C57.2251 104.083 57.328 104.062 57.424 104.023C57.6216 103.943 57.7789 103.788 57.8614 103.592C57.9438 103.397 57.9447 103.177 57.8637 102.982C56.9264 100.715 54.8532 99.8892 52.8494 99.0922C51.2487 98.4558 49.7386 97.8538 48.7724 96.5599C48.6528 96.3994 48.5236 96.2427 48.3867 96.0917C53.4415 96.5484 58.2957 97.4123 59.6477 102.349C59.693 102.518 59.7931 102.667 59.9325 102.774C60.0719 102.88 60.2429 102.939 60.4191 102.939C60.4908 102.939 60.5621 102.929 60.6312 102.911C60.837 102.854 61.0119 102.72 61.1178 102.536C61.2237 102.352 61.2519 102.135 61.1963 101.93C59.4047 95.3769 52.7433 94.8379 46.867 94.3601C40.8363 93.8709 36.9695 93.3319 36.4141 89.2974H67.9193C68.2042 89.2974 68.4775 89.1852 68.6789 88.9856C68.8804 88.786 68.9936 88.5152 68.9936 88.2329C68.9936 87.9505 68.8804 87.6798 68.6789 87.4801C68.4775 87.2805 68.2042 87.1683 67.9193 87.1683V87.1798Z" fill="#213A8F"/>
<defs>
<linearGradient id="paint0_linear" x1="8.78223" y1="22.427" x2="31.8847" y2="22.427" gradientUnits="userSpaceOnUse">
<stop stop-color="#EC6608"/>
<stop offset="1" stop-color="#F9B000"/>
</linearGradient>
<linearGradient id="paint1_linear" x1="23.1592" y1="14.1928" x2="46.2616" y2="14.1928" gradientUnits="userSpaceOnUse">
<stop stop-color="#FFED00"/>
<stop offset="1" stop-color="#BCCF00"/>
</linearGradient>
<linearGradient id="paint2_linear" x1="23.1592" y1="31.4609" x2="46.2616" y2="31.4609" gradientUnits="userSpaceOnUse">
<stop stop-color="#EC6608"/>
<stop offset="1" stop-color="#C8D400"/>
</linearGradient>
<linearGradient id="paint3_linear" x1="0.795776" y1="30.6552" x2="17.4992" y2="30.6552" gradientUnits="userSpaceOnUse">
<stop stop-color="#E40428"/>
<stop offset="1" stop-color="#EC6608"/>
</linearGradient>
<linearGradient id="paint4_linear" x1="8.7823" y1="38.8847" x2="34.714" y2="38.8847" gradientUnits="userSpaceOnUse">
<stop stop-color="#B70E0C"/>
<stop offset="1" stop-color="#C80973"/>
</linearGradient>
<linearGradient id="paint5_linear" x1="51.9191" y1="30.6483" x2="68.6244" y2="30.6483" gradientUnits="userSpaceOnUse">
<stop stop-color="#65B32E"/>
<stop offset="1" stop-color="#C8D400"/>
</linearGradient>
<linearGradient id="paint6_linear" x1="34.708" y1="38.8709" x2="60.6377" y2="38.8709" gradientUnits="userSpaceOnUse">
<stop stop-color="#0081A7"/>
<stop offset="1" stop-color="#76B82A"/>
</linearGradient>
<linearGradient id="paint7_linear" x1="51.919" y1="47.1074" x2="68.6224" y2="47.1074" gradientUnits="userSpaceOnUse">
<stop stop-color="#76B82A"/>
<stop offset="1" stop-color="#0081A7"/>
</linearGradient>
<linearGradient id="paint8_linear" x1="23.1573" y1="46.2989" x2="46.2617" y2="46.2989" gradientUnits="userSpaceOnUse">
<stop stop-color="#C80973"/>
<stop offset="1" stop-color="#007BC4"/>
</linearGradient>
<linearGradient id="paint9_linear" x1="37.543" y1="55.3384" x2="60.6435" y2="55.3384" gradientUnits="userSpaceOnUse">
<stop stop-color="#213A8F"/>
<stop offset="1" stop-color="#009FE3"/>
</linearGradient>
<linearGradient id="paint10_linear" x1="15.1758" y1="59.8041" x2="25.4859" y2="59.8041" gradientUnits="userSpaceOnUse">
<stop stop-color="#831F82"/>
<stop offset="1" stop-color="#5C2483"/>
</linearGradient>
<linearGradient id="paint11_linear" x1="1060.12" y1="2722.02" x2="3826.4" y2="2722.02" gradientUnits="userSpaceOnUse">
<stop stop-color="#831F82"/>
<stop offset="1" stop-color="#5C2483"/>
</linearGradient>
<linearGradient id="paint12_linear" x1="37.5392" y1="22.418" x2="60.6436" y2="22.418" gradientUnits="userSpaceOnUse">
<stop stop-color="#C8D400"/>
<stop offset="1" stop-color="#65B32E"/>
</linearGradient>
<linearGradient id="paint13_linear" x1="15.1777" y1="7.80125" x2="31.8812" y2="7.80125" gradientUnits="userSpaceOnUse">
<stop stop-color="#FDC300"/>
<stop offset="1" stop-color="#FFD500"/>
</linearGradient>
<linearGradient id="paint14_linear" x1="0.795898" y1="16.025" x2="17.4974" y2="16.025" gradientUnits="userSpaceOnUse">
<stop stop-color="#EF7D00"/>
<stop offset="1" stop-color="#FFD500"/>
</linearGradient>
<linearGradient id="paint15_linear" x1="51.919" y1="16.0167" x2="68.6205" y2="16.0167" gradientUnits="userSpaceOnUse">
<stop stop-color="#BCCF00"/>
<stop offset="1" stop-color="#FFED00"/>
</linearGradient>
<linearGradient id="paint16_linear" x1="37.5402" y1="7.78689" x2="54.2398" y2="7.78689" gradientUnits="userSpaceOnUse">
<stop stop-color="#C8D400"/>
<stop offset="1" stop-color="#A2C617"/>
</linearGradient>
<linearGradient id="paint17_linear" x1="4551.93" y1="3139.14" x2="5999.61" y2="3139.14" gradientUnits="userSpaceOnUse">
<stop stop-color="#213A8F"/>
<stop offset="1" stop-color="#009FE3"/>
</linearGradient>
<linearGradient id="paint18_linear" x1="0.803539" y1="61.7404" x2="17.505" y2="61.7404" gradientUnits="userSpaceOnUse">
<stop stop-color="#E50071"/>
<stop offset="1" stop-color="#831F82"/>
</linearGradient>
<linearGradient id="paint19_linear" x1="-10.7411" y1="55.3397" x2="11.509" y2="55.3397" gradientUnits="userSpaceOnUse">
<stop stop-color="#E94190"/>
<stop offset="1" stop-color="#A71680"/>
</linearGradient>
</defs>
</svg>
