<svg width="20" height="20" viewBox="0 0 20 20" fill="none" xmlns="http://www.w3.org/2000/svg">
<path fill-rule="evenodd" clip-rule="evenodd" d="M6.66667 8.33333C7.35667 8.33333 7.91667 7.77333 7.91667 7.08333C7.91667 6.39333 7.35667 5.83333 6.66667 5.83333C5.97667 5.83333 5.41667 6.39333 5.41667 7.08333C5.41667 7.77333 5.97667 8.33333 6.66667 8.33333ZM14.9998 15.8334H5.46725L11.3048 10.9626C11.5098 10.7884 11.8814 10.7892 12.0823 10.9617L15.8331 14.1617V15.0001C15.8331 15.4601 15.4598 15.8334 14.9998 15.8334ZM5 4.16667H15C15.46 4.16667 15.8333 4.54 15.8333 5V11.97L13.1642 9.69333C12.3392 8.99167 11.0483 8.99167 10.2308 9.68833L4.16667 14.7483V5C4.16667 4.54 4.54 4.16667 5 4.16667ZM15 2.5H5C3.62167 2.5 2.5 3.62167 2.5 5V15C2.5 16.3783 3.62167 17.5 5 17.5H15C16.3783 17.5 17.5 16.3783 17.5 15V5C17.5 3.62167 16.3783 2.5 15 2.5Z" fill="#897E76"/>
<mask id="mask0" mask-type="alpha" maskUnits="userSpaceOnUse" x="2" y="2" width="16" height="16">
<path fill-rule="evenodd" clip-rule="evenodd" d="M6.66667 8.33333C7.35667 8.33333 7.91667 7.77333 7.91667 7.08333C7.91667 6.39333 7.35667 5.83333 6.66667 5.83333C5.97667 5.83333 5.41667 6.39333 5.41667 7.08333C5.41667 7.77333 5.97667 8.33333 6.66667 8.33333ZM14.9998 15.8334H5.46725L11.3048 10.9626C11.5098 10.7884 11.8814 10.7892 12.0823 10.9617L15.8331 14.1617V15.0001C15.8331 15.4601 15.4598 15.8334 14.9998 15.8334ZM5 4.16667H15C15.46 4.16667 15.8333 4.54 15.8333 5V11.97L13.1642 9.69333C12.3392 8.99167 11.0483 8.99167 10.2308 9.68833L4.16667 14.7483V5C4.16667 4.54 4.54 4.16667 5 4.16667ZM15 2.5H5C3.62167 2.5 2.5 3.62167 2.5 5V15C2.5 16.3783 3.62167 17.5 5 17.5H15C16.3783 17.5 17.5 16.3783 17.5 15V5C17.5 3.62167 16.3783 2.5 15 2.5Z" fill="white"/>
</mask>
<g mask="url(#mask0)">
</g>
</svg>
